<?xml version="1.0" encoding="UTF-8"?>
<!DOCTYPE svg PUBLIC "-//W3C//DTD SVG 1.1//EN" "http://www.w3.org/Graphics/SVG/1.1/DTD/svg11.dtd">
<svg xmlns="http://www.w3.org/2000/svg" version="1.1" width="2048px" height="2048px" style="shape-rendering:geometricPrecision; text-rendering:geometricPrecision; image-rendering:optimizeQuality; fill-rule:evenodd; clip-rule:evenodd" xmlns:xlink="http://www.w3.org/1999/xlink">
<g><path style="opacity:1" fill="#79641e" d="M 999.5,1177.5 C 1022.27,1176.74 1042.27,1183.57 1059.5,1198C 1061.02,1199.01 1062.69,1199.51 1064.5,1199.5C 1064.35,1200.55 1064.52,1201.55 1065,1202.5C 1082.85,1218.86 1092.68,1239.2 1094.5,1263.5C 1094.6,1271.19 1094.26,1278.86 1093.5,1286.5C 1090.59,1299.37 1085.42,1311.37 1078,1322.5C 1076.63,1324.04 1075.13,1325.37 1073.5,1326.5C 1090.34,1298.73 1093.17,1269.4 1082,1238.5C 1066.69,1204.65 1040.86,1185.31 1004.5,1180.5C 1000.35,1179.68 996.019,1179.18 991.5,1179C 994.365,1178.82 997.031,1178.32 999.5,1177.5 Z"/></g>
<g><path style="opacity:1" fill="#d0ab36" d="M 1064.5,1333.5 C 1063.83,1333.5 1063.5,1333.83 1063.5,1334.5C 1060.57,1335.76 1058.24,1337.76 1056.5,1340.5C 1022.62,1361.79 989.615,1360.29 957.5,1336C 939.577,1319.99 928.577,1300.15 924.5,1276.5C 924.5,1267.5 924.5,1258.5 924.5,1249.5C 924.788,1246.06 925.454,1242.73 926.5,1239.5C 927.434,1238.43 927.768,1237.1 927.5,1235.5C 932.643,1218.56 942.643,1205.22 957.5,1195.5C 971.783,1185.2 987.783,1181.04 1005.5,1183C 1042.14,1188.78 1067.3,1208.95 1081,1243.5C 1091.75,1276.66 1086.25,1306.66 1064.5,1333.5 Z"/></g>
<g><path style="opacity:1" fill="#211e18" d="M 1013.5,1191.5 C 1014.82,1191.33 1015.99,1191.66 1017,1192.5C 1018.58,1196.67 1020.92,1200.34 1024,1203.5C 1024.8,1205.26 1024.63,1206.93 1023.5,1208.5C 1001.16,1219 979.16,1230.17 957.5,1242C 959.399,1246.95 961.399,1251.79 963.5,1256.5C 982.009,1248.33 1000.51,1240 1019,1231.5C 1019.83,1231.83 1020.67,1232.17 1021.5,1232.5C 1023.71,1237.79 1025.71,1243.12 1027.5,1248.5C 1032.71,1246.56 1037.71,1244.06 1042.5,1241C 1043.78,1240.32 1044.95,1240.48 1046,1241.5C 1047.69,1247.05 1049.53,1252.55 1051.5,1258C 1051.36,1258.77 1051.02,1259.44 1050.5,1260C 1045.58,1262.71 1040.75,1265.54 1036,1268.5C 1037.43,1273.41 1038.93,1278.41 1040.5,1283.5C 1018.28,1293.53 996.111,1303.86 974,1314.5C 970.616,1310.76 967.95,1306.42 966,1301.5C 965.333,1300.5 965.333,1299.5 966,1298.5C 986.724,1287.89 1007.56,1277.39 1028.5,1267C 1028.96,1266.59 1029.29,1266.09 1029.5,1265.5C 1027.72,1260.91 1025.22,1256.91 1022,1253.5C 1004.22,1260.31 987.217,1268.65 971,1278.5C 968.17,1272.68 965.337,1266.85 962.5,1261C 956.91,1263.3 951.244,1265.3 945.5,1267C 943.304,1261.13 940.637,1255.46 937.5,1250C 937.759,1248.74 938.426,1247.74 939.5,1247C 943.288,1245.02 947.121,1243.19 951,1241.5C 950.483,1236.26 949.316,1231.09 947.5,1226C 947.833,1225.17 948.167,1224.33 948.5,1223.5C 970.412,1213.04 992.079,1202.38 1013.5,1191.5 Z"/></g>
<g><path style="opacity:1" fill="#f8f8f8" d="M 1012.5,1194.5 C 1015.29,1194.45 1017.13,1195.79 1018,1198.5C 1018.75,1200.33 1019.75,1202 1021,1203.5C 1021.78,1204.94 1021.61,1206.28 1020.5,1207.5C 998.752,1217.87 977.085,1228.54 955.5,1239.5C 952.75,1235.61 950.75,1231.28 949.5,1226.5C 949.709,1225.91 950.043,1225.41 950.5,1225C 971.35,1215.07 992.017,1204.91 1012.5,1194.5 Z"/></g>
<g><path style="opacity:1" fill="#f8f8f8" d="M 1017.5,1233.5 C 1018.5,1233.41 1019.33,1233.75 1020,1234.5C 1021.97,1238.94 1023.8,1243.44 1025.5,1248C 1008.03,1257.15 990.195,1265.65 972,1273.5C 968.574,1268.73 966.408,1263.4 965.5,1257.5C 977.519,1252.65 989.519,1247.48 1001.5,1242C 1007.02,1239.41 1012.36,1236.57 1017.5,1233.5 Z"/></g>
<g><path style="opacity:1" fill="#8d7323" d="M 923.5,1233.5 C 924.833,1234.17 926.167,1234.83 927.5,1235.5C 927.768,1237.1 927.434,1238.43 926.5,1239.5C 926.631,1238.62 926.298,1237.96 925.5,1237.5C 924.583,1238.13 923.583,1238.46 922.5,1238.5C 922.366,1236.71 922.699,1235.04 923.5,1233.5 Z"/></g>
<g><path style="opacity:0.996" fill="#221c0a" d="M 1004.5,1180.5 C 1040.86,1185.31 1066.69,1204.65 1082,1238.5C 1093.17,1269.4 1090.34,1298.73 1073.5,1326.5C 1071.77,1330.34 1068.77,1332.68 1064.5,1333.5C 1086.25,1306.66 1091.75,1276.66 1081,1243.5C 1067.3,1208.95 1042.14,1188.78 1005.5,1183C 987.783,1181.04 971.783,1185.2 957.5,1195.5C 956.075,1191.87 957.408,1189.53 961.5,1188.5C 961.56,1189.04 961.893,1189.38 962.5,1189.5C 975.516,1182.16 989.516,1179.16 1004.5,1180.5 Z"/></g>
<g><path style="opacity:0.494" fill="#0a0802" d="M 952.5,1336.5 C 950.977,1333.64 948.643,1331.97 945.5,1331.5C 939.463,1323.61 933.963,1315.28 929,1306.5C 918.941,1284.48 916.774,1261.82 922.5,1238.5C 923.583,1238.46 924.583,1238.13 925.5,1237.5C 926.298,1237.96 926.631,1238.62 926.5,1239.5C 925.454,1242.73 924.788,1246.06 924.5,1249.5C 923.661,1250.64 922.994,1251.97 922.5,1253.5C 923.137,1261.3 923.804,1268.96 924.5,1276.5C 928.577,1300.15 939.577,1319.99 957.5,1336C 989.615,1360.29 1022.62,1361.79 1056.5,1340.5C 1059.43,1339.24 1061.76,1337.24 1063.5,1334.5C 1063.5,1333.83 1063.83,1333.5 1064.5,1333.5C 1068.77,1332.68 1071.77,1330.34 1073.5,1326.5C 1075.13,1325.37 1076.63,1324.04 1078,1322.5C 1085.42,1311.37 1090.59,1299.37 1093.5,1286.5C 1095.03,1282.27 1095.69,1277.77 1095.5,1273C 1095.5,1269.65 1095.16,1266.48 1094.5,1263.5C 1092.68,1239.2 1082.85,1218.86 1065,1202.5C 1064.52,1201.55 1064.35,1200.55 1064.5,1199.5C 1062.69,1199.51 1061.02,1199.01 1059.5,1198C 1042.27,1183.57 1022.27,1176.74 999.5,1177.5C 985.781,1177.7 973.114,1181.37 961.5,1188.5C 957.408,1189.53 956.075,1191.87 957.5,1195.5C 942.643,1205.22 932.643,1218.56 927.5,1235.5C 926.167,1234.83 924.833,1234.17 923.5,1233.5C 932.808,1203.03 952.808,1183.53 983.5,1175C 1029.78,1168.38 1064.78,1185.38 1088.5,1226C 1104.73,1260.75 1102.23,1293.91 1081,1325.5C 1051.49,1358.42 1015.99,1367.25 974.5,1352C 966.223,1348.04 958.89,1342.87 952.5,1336.5 Z"/></g>
<g><path style="opacity:1" fill="#352f1e" d="M 1010.5,1325.5 C 1008.17,1325.5 1005.83,1325.5 1003.5,1325.5C 1005.92,1322.97 1008.25,1322.97 1010.5,1325.5 Z"/></g>
<g><path style="opacity:1" fill="#3c3624" d="M 1003.5,1325.5 C 1000.37,1328.1 997.207,1328.1 994,1325.5C 994.618,1319.69 997.785,1318.02 1003.5,1320.5C 1004.74,1320.44 1005.74,1319.94 1006.5,1319C 998.382,1314.22 993.049,1316.39 990.5,1325.5C 990.848,1327.7 991.848,1329.53 993.5,1331C 997.465,1331.53 1001.3,1331.03 1005,1329.5C 1010.41,1330.66 1010.91,1333.16 1006.5,1337C 1003.1,1337.93 999.767,1338.6 996.5,1339C 1002.1,1341.32 1007.27,1340.49 1012,1336.5C 1013.61,1332.59 1013.11,1328.92 1010.5,1325.5C 1013.59,1326.65 1014.92,1328.99 1014.5,1332.5C 1014.72,1335.79 1013.39,1338.29 1010.5,1340C 1005.92,1342.55 1001.25,1342.88 996.5,1341C 995.643,1340.31 994.977,1339.48 994.5,1338.5C 995.874,1337.29 997.374,1336.29 999,1335.5C 1003.76,1337.75 1006.59,1336.41 1007.5,1331.5C 1003.81,1331.55 1000.15,1331.88 996.5,1332.5C 994.307,1332.67 992.473,1332.01 991,1330.5C 987.892,1323.6 989.725,1318.43 996.5,1315C 1000.98,1313.99 1004.82,1315.16 1008,1318.5C 1008.45,1320.41 1007.61,1321.58 1005.5,1322C 1002.29,1321.44 999.121,1321.6 996,1322.5C 995.316,1323.78 995.483,1324.95 996.5,1326C 998.797,1326.02 1001.13,1325.85 1003.5,1325.5 Z"/></g>
<g><path style="opacity:1" fill="#e7e6e6" d="M 1003.5,1325.5 C 1005.83,1325.5 1008.17,1325.5 1010.5,1325.5C 1013.11,1328.92 1013.61,1332.59 1012,1336.5C 1007.27,1340.49 1002.1,1341.32 996.5,1339C 999.767,1338.6 1003.1,1337.93 1006.5,1337C 1010.91,1333.16 1010.41,1330.66 1005,1329.5C 1001.3,1331.03 997.465,1331.53 993.5,1331C 991.848,1329.53 990.848,1327.7 990.5,1325.5C 993.049,1316.39 998.382,1314.22 1006.5,1319C 1005.74,1319.94 1004.74,1320.44 1003.5,1320.5C 997.785,1318.02 994.618,1319.69 994,1325.5C 997.207,1328.1 1000.37,1328.1 1003.5,1325.5 Z"/></g>
<g><path style="opacity:1" fill="#403926" d="M 1036.5,1308.5 C 1036.37,1310.65 1036.87,1312.65 1038,1314.5C 1040.87,1316.32 1043.37,1318.49 1045.5,1321C 1043.46,1323.51 1041.12,1324.01 1038.5,1322.5C 1040.66,1322.88 1042.33,1322.22 1043.5,1320.5C 1038.74,1318.74 1035.74,1315.41 1034.5,1310.5C 1034.75,1309.29 1035.41,1308.62 1036.5,1308.5 Z"/></g>
<g><path style="opacity:1" fill="#433d30" d="M 1027.5,1308.5 C 1027.5,1309.5 1027.5,1310.5 1027.5,1311.5C 1028.87,1311.34 1030.21,1311.51 1031.5,1312C 1033.22,1315.96 1035.56,1319.46 1038.5,1322.5C 1034.15,1320.48 1031.15,1317.15 1029.5,1312.5C 1027.46,1313.36 1026.13,1312.53 1025.5,1310C 1025.84,1308.97 1026.5,1308.47 1027.5,1308.5 Z"/></g>
<g><path style="opacity:1" fill="#342f20" d="M 1018.5,1317.5 C 1017.69,1320.65 1015.69,1322.31 1012.5,1322.5C 1012.67,1312.25 1017.34,1309.41 1026.5,1314C 1031.07,1317.77 1033.07,1322.44 1032.5,1328C 1030.74,1328.2 1029.08,1328.7 1027.5,1329.5C 1025.06,1333.08 1021.73,1334.25 1017.5,1333C 1013.93,1326.83 1015.26,1322 1021.5,1318.5C 1020.68,1317.61 1019.68,1317.28 1018.5,1317.5 Z"/></g>
<g><path style="opacity:1" fill="#726f65" d="M 1029.5,1326.5 C 1027.94,1326.73 1026.6,1327.4 1025.5,1328.5C 1023.5,1328.5 1021.5,1328.5 1019.5,1328.5C 1019.34,1326.8 1019.51,1325.13 1020,1323.5C 1020.67,1322.75 1021.5,1322.41 1022.5,1322.5C 1023.71,1321.22 1025.04,1321.22 1026.5,1322.5C 1027.17,1324.16 1028.17,1325.49 1029.5,1326.5 Z"/></g>
<g><path style="opacity:1" fill="#e5e5e4" d="M 1029.5,1326.5 C 1028.17,1325.49 1027.17,1324.16 1026.5,1322.5C 1025.04,1321.22 1023.71,1321.22 1022.5,1322.5C 1021.5,1322.41 1020.67,1322.75 1020,1323.5C 1019.51,1325.13 1019.34,1326.8 1019.5,1328.5C 1021.5,1328.5 1023.5,1328.5 1025.5,1328.5C 1024.85,1330.59 1023.35,1331.59 1021,1331.5C 1016.92,1330.84 1015.58,1328.51 1017,1324.5C 1018.57,1322.08 1020.74,1320.74 1023.5,1320.5C 1023.5,1319.17 1023.5,1317.83 1023.5,1316.5C 1021.59,1316.22 1019.92,1316.55 1018.5,1317.5C 1016.98,1318.17 1015.64,1319.17 1014.5,1320.5C 1014.01,1316.52 1015.85,1313.85 1020,1312.5C 1027.53,1314.94 1031.03,1319.94 1030.5,1327.5C 1029.89,1327.38 1029.56,1327.04 1029.5,1326.5 Z"/></g>
<g><path style="opacity:1" fill="#bb9b31" d="M 1022.5,1322.5 C 1023.5,1322.5 1024.5,1322.5 1025.5,1322.5C 1025.5,1325.83 1023.83,1327.5 1020.5,1327.5C 1020.39,1325.49 1021.06,1323.82 1022.5,1322.5 Z"/></g>
<g><path style="opacity:1" fill="#3c3627" d="M 1051.5,1298.5 C 1054.17,1298.68 1054.84,1299.85 1053.5,1302C 1050.8,1302.64 1048.13,1303.3 1045.5,1304C 1047.63,1305.5 1049.96,1305.66 1052.5,1304.5C 1057.88,1304.7 1060.04,1307.37 1059,1312.5C 1056.27,1317.56 1052.1,1319.4 1046.5,1318C 1042.5,1315.44 1043,1313.6 1048,1312.5C 1049.44,1313.15 1050.94,1313.48 1052.5,1313.5C 1050.3,1314.17 1047.97,1314.83 1045.5,1315.5C 1049.78,1317.15 1053.62,1316.49 1057,1313.5C 1057.67,1311.5 1057.67,1309.5 1057,1307.5C 1053.25,1306.7 1049.42,1306.2 1045.5,1306C 1044.17,1304.67 1044.17,1303.33 1045.5,1302C 1047.9,1301.81 1050.23,1301.31 1052.5,1300.5C 1052.14,1299.82 1051.8,1299.15 1051.5,1298.5 Z"/></g>
<g><path style="opacity:1" fill="#4e4736" d="M 1036.5,1308.5 C 1036.5,1307.5 1036.5,1306.5 1036.5,1305.5C 1033.67,1305.31 1031,1304.64 1028.5,1303.5C 1028.42,1304.93 1028.75,1306.26 1029.5,1307.5C 1029.04,1308.3 1028.38,1308.63 1027.5,1308.5C 1025.47,1304.9 1026.47,1302.57 1030.5,1301.5C 1032.49,1302.87 1034.66,1303.87 1037,1304.5C 1039.03,1306.28 1038.86,1307.61 1036.5,1308.5 Z"/></g>
<g><path style="opacity:1" fill="#e1e0e0" d="M 1051.5,1298.5 C 1051.8,1299.15 1052.14,1299.82 1052.5,1300.5C 1050.23,1301.31 1047.9,1301.81 1045.5,1302C 1044.17,1303.33 1044.17,1304.67 1045.5,1306C 1049.42,1306.2 1053.25,1306.7 1057,1307.5C 1057.67,1309.5 1057.67,1311.5 1057,1313.5C 1053.62,1316.49 1049.78,1317.15 1045.5,1315.5C 1047.97,1314.83 1050.3,1314.17 1052.5,1313.5C 1055.39,1313 1056.06,1311.5 1054.5,1309C 1050.84,1309.11 1047.18,1309.11 1043.5,1309C 1039.5,1304.96 1040.17,1301.62 1045.5,1299C 1047.47,1298.5 1049.47,1298.34 1051.5,1298.5 Z"/></g>
<g><path style="opacity:1" fill="#3b3627" d="M 1051.5,1298.5 C 1049.47,1298.34 1047.47,1298.5 1045.5,1299C 1040.17,1301.62 1039.5,1304.96 1043.5,1309C 1047.18,1309.11 1050.84,1309.11 1054.5,1309C 1056.06,1311.5 1055.39,1313 1052.5,1313.5C 1053.23,1312.29 1053.57,1310.96 1053.5,1309.5C 1049.87,1310.41 1046.2,1310.58 1042.5,1310C 1038.24,1305.28 1038.91,1301.28 1044.5,1298C 1047.04,1297.2 1049.37,1297.37 1051.5,1298.5 Z"/></g>
<g><path style="opacity:1" fill="#e8e8e7" d="M 1036.5,1308.5 C 1035.41,1308.62 1034.75,1309.29 1034.5,1310.5C 1035.74,1315.41 1038.74,1318.74 1043.5,1320.5C 1042.33,1322.22 1040.66,1322.88 1038.5,1322.5C 1035.56,1319.46 1033.22,1315.96 1031.5,1312C 1030.21,1311.51 1028.87,1311.34 1027.5,1311.5C 1027.5,1310.5 1027.5,1309.5 1027.5,1308.5C 1028.38,1308.63 1029.04,1308.3 1029.5,1307.5C 1028.75,1306.26 1028.42,1304.93 1028.5,1303.5C 1031,1304.64 1033.67,1305.31 1036.5,1305.5C 1036.5,1306.5 1036.5,1307.5 1036.5,1308.5 Z"/></g>
<g><path style="opacity:0.931" fill="#3d320f" d="M 1094.5,1263.5 C 1095.16,1266.48 1095.5,1269.65 1095.5,1273C 1095.69,1277.77 1095.03,1282.27 1093.5,1286.5C 1094.26,1278.86 1094.6,1271.19 1094.5,1263.5 Z"/></g>
<g><path style="opacity:1" fill="#f8f8f8" d="M 1027.5,1269.5 C 1029.94,1269.32 1032.1,1269.98 1034,1271.5C 1035.64,1274.62 1037.14,1277.79 1038.5,1281C 1016.59,1291.79 994.589,1302.29 972.5,1312.5C 971.895,1308.45 970.562,1304.61 968.5,1301C 968.645,1300.23 968.978,1299.56 969.5,1299C 988.729,1288.93 1008.06,1279.1 1027.5,1269.5 Z"/></g>
<g><path style="opacity:0.988" fill="#897123" d="M 924.5,1249.5 C 924.5,1258.5 924.5,1267.5 924.5,1276.5C 923.804,1268.96 923.137,1261.3 922.5,1253.5C 922.994,1251.97 923.661,1250.64 924.5,1249.5 Z"/></g>
<g><path style="opacity:1" fill="#f3f3f3" d="M 1041.5,1243.5 C 1042.68,1243.28 1043.68,1243.61 1044.5,1244.5C 1046.31,1248.61 1047.97,1252.78 1049.5,1257C 1044.92,1260.73 1039.92,1263.9 1034.5,1266.5C 1033.33,1266.08 1032.33,1265.41 1031.5,1264.5C 1029.63,1260.59 1027.63,1256.75 1025.5,1253C 1030.88,1249.93 1036.22,1246.76 1041.5,1243.5 Z"/></g>
<g><path style="opacity:1" fill="#f6f6f5" d="M 951.5,1243.5 C 953.144,1243.29 954.644,1243.62 956,1244.5C 958.246,1248.49 960.079,1252.66 961.5,1257C 956.699,1260.55 951.366,1263.05 945.5,1264.5C 943.833,1259.17 942.167,1253.83 940.5,1248.5C 944.313,1247.09 947.98,1245.43 951.5,1243.5 Z"/></g>
<g><path style="opacity:0.998" fill="#594916" d="M 999.5,1177.5 C 997.031,1178.32 994.365,1178.82 991.5,1179C 996.019,1179.18 1000.35,1179.68 1004.5,1180.5C 989.516,1179.16 975.516,1182.16 962.5,1189.5C 961.893,1189.38 961.56,1189.04 961.5,1188.5C 973.114,1181.37 985.781,1177.7 999.5,1177.5 Z"/></g>
<g><path style="opacity:0.039" fill="#cbaa3f" d="M 945.5,1331.5 C 948.643,1331.97 950.977,1333.64 952.5,1336.5C 951.262,1337.41 949.928,1337.58 948.5,1337C 947.361,1335.22 946.361,1333.39 945.5,1331.5 Z"/></g>
<g><path style="opacity:0.992" fill="#463a13" d="M 1063.5,1334.5 C 1061.76,1337.24 1059.43,1339.24 1056.5,1340.5C 1058.24,1337.76 1060.57,1335.76 1063.5,1334.5 Z"/></g>
</svg>
