<?xml version="1.0" encoding="UTF-8"?>
<!DOCTYPE svg PUBLIC "-//W3C//DTD SVG 1.1//EN" "http://www.w3.org/Graphics/SVG/1.1/DTD/svg11.dtd">
<svg xmlns="http://www.w3.org/2000/svg" version="1.1" width="2048px" height="2048px" style="shape-rendering:geometricPrecision; text-rendering:geometricPrecision; image-rendering:optimizeQuality; fill-rule:evenodd; clip-rule:evenodd" xmlns:xlink="http://www.w3.org/1999/xlink">
<g><path style="opacity:0.693" fill="#050302" d="M 752.5,434.5 C 783.547,435.803 814.214,439.469 844.5,445.5C 867.361,451.933 889.028,461.1 909.5,473C 941.011,492.449 970.011,515.282 996.5,541.5C 998.078,542.298 999.744,542.798 1001.5,543C 1009.17,550 1016.83,557 1024.5,564C 1037.66,579.159 1051.49,593.659 1066,607.5C 1077.58,622.75 1090.25,637.083 1104,650.5C 1116.62,666.79 1129.62,682.79 1143,698.5C 1144.92,702.004 1147.08,705.337 1149.5,708.5C 1185.62,745.093 1220.12,783.093 1253,822.5C 1268.82,842.81 1284.15,863.477 1299,884.5C 1299.67,887.167 1299.67,889.833 1299,892.5C 1297.7,894.402 1297.03,896.402 1297,898.5C 1303.79,904.286 1309.46,910.952 1314,918.5C 1347.78,952.28 1379.45,987.947 1409,1025.5C 1416.69,1033.53 1424.36,1041.53 1432,1049.5C 1450.73,1073.98 1471.06,1096.98 1493,1118.5C 1510.34,1139.21 1527.68,1159.87 1545,1180.5C 1557.31,1194.14 1570.31,1207.14 1584,1219.5C 1594.8,1235.41 1606.8,1250.41 1620,1264.5C 1627.05,1273.22 1633.72,1282.22 1640,1291.5C 1650.53,1302.03 1659.53,1313.69 1667,1326.5C 1674.47,1345.25 1682.14,1363.91 1690,1382.5C 1696.11,1400.86 1699.28,1419.53 1699.5,1438.5C 1703.8,1467.67 1705.63,1497 1705,1526.5C 1703.34,1557.16 1696.34,1586.49 1684,1614.5C 1669.64,1643.54 1653.98,1671.88 1637,1699.5C 1633.62,1702.88 1630.62,1706.54 1628,1710.5C 1577.2,1759.17 1518.37,1795 1451.5,1818C 1420.29,1825.65 1388.63,1830.48 1356.5,1832.5C 1342.21,1832.34 1328.38,1830 1315,1825.5C 1305.12,1825.65 1295.62,1823.48 1286.5,1819C 1271,1815.84 1255.67,1811.84 1240.5,1807C 1228.34,1802.61 1216.34,1797.61 1204.5,1792C 1188.96,1783.07 1173.96,1773.4 1159.5,1763C 1145.03,1750.2 1130.87,1737.03 1117,1723.5C 1087.18,1689.16 1057.85,1654.5 1029,1619.5C 1019.91,1606.32 1010.58,1593.32 1001,1580.5C 997.779,1577.14 994.279,1574.14 990.5,1571.5C 982.763,1559.39 973.596,1548.39 963,1538.5C 943.03,1508.91 921.364,1480.57 898,1453.5C 889.54,1440.26 879.873,1427.93 869,1416.5C 859.574,1401 848.24,1387 835,1374.5C 827.52,1364.89 820.52,1354.89 814,1344.5C 811.54,1343.04 809.373,1341.21 807.5,1339C 802.856,1339.29 798.189,1339.29 793.5,1339C 787.622,1337.39 781.956,1335.23 776.5,1332.5C 762.877,1317.71 749.044,1303.04 735,1288.5C 696.906,1241.32 658.573,1194.32 620,1147.5C 603.089,1124.68 586.422,1101.68 570,1078.5C 550.5,1057.84 532.166,1036.17 515,1013.5C 509.366,1006.86 503.366,1000.53 497,994.5C 473.916,963.737 454.583,930.737 439,895.5C 436.667,894.5 435,892.833 434,890.5C 430.764,877.527 427.764,864.194 425,850.5C 423.339,828.881 421.173,807.381 418.5,786C 417.323,761.382 419.823,736.882 426,712.5C 434.111,690.177 443.778,668.51 455,647.5C 472.497,615.827 491.497,585.161 512,555.5C 520.749,546.756 528.749,537.422 536,527.5C 545.404,518.48 554.904,509.647 564.5,501C 584.371,488.23 604.705,476.23 625.5,465C 653.778,456.129 682.111,447.463 710.5,439C 724.646,437.463 738.646,435.963 752.5,434.5 Z"/></g>
<g><path style="opacity:1" fill="#4c0500" d="M 749.5,441.5 C 749.5,441.833 749.5,442.167 749.5,442.5C 738.005,442.435 726.672,443.101 715.5,444.5C 718.32,442.409 721.487,442.076 725,443.5C 732.971,441.7 741.137,441.034 749.5,441.5 Z"/></g>
<g><path style="opacity:1" fill="#7b0700" d="M 758.5,440.5 C 760.895,441.814 763.395,441.814 766,440.5C 767.302,441.085 768.469,441.751 769.5,442.5C 762.833,442.5 756.167,442.5 749.5,442.5C 749.5,442.167 749.5,441.833 749.5,441.5C 752.609,441.736 755.609,441.403 758.5,440.5 Z"/></g>
<g><path style="opacity:1" fill="#460500" d="M 790.5,442.5 C 787.713,443.477 784.713,443.81 781.5,443.5C 777.4,443.763 773.4,443.43 769.5,442.5C 768.469,441.751 767.302,441.085 766,440.5C 763.395,441.814 760.895,441.814 758.5,440.5C 761.219,440.603 763.885,440.269 766.5,439.5C 774.352,441.378 782.352,442.378 790.5,442.5 Z"/></g>
<g><path style="opacity:1" fill="#b50b00" d="M 749.5,442.5 C 756.167,442.5 762.833,442.5 769.5,442.5C 773.4,443.43 777.4,443.763 781.5,443.5C 786.306,444.593 791.306,445.259 796.5,445.5C 799.5,445.5 802.5,445.5 805.5,445.5C 805.833,445.5 806.167,445.5 806.5,445.5C 807.772,446.434 809.272,447.101 811,447.5C 813.735,446.994 816.569,446.994 819.5,447.5C 822.167,448.167 824.833,448.833 827.5,449.5C 829.838,451.04 832.505,451.706 835.5,451.5C 840.567,453.268 845.567,453.601 850.5,452.5C 853.412,454.331 856.412,455.997 859.5,457.5C 862.004,458.639 864.67,459.306 867.5,459.5C 878.653,464.444 889.653,469.778 900.5,475.5C 902.678,476.979 905.012,478.312 907.5,479.5C 908.5,480.167 909.5,480.833 910.5,481.5C 912.531,483.522 914.865,485.189 917.5,486.5C 921.868,488.496 925.868,491.163 929.5,494.5C 933.096,497.162 936.762,499.829 940.5,502.5C 943.254,505.576 946.588,507.91 950.5,509.5C 952.091,511.633 954.091,513.299 956.5,514.5C 958.5,517.167 960.833,519.5 963.5,521.5C 965.267,523.89 967.6,525.557 970.5,526.5C 971.694,527.272 972.694,528.272 973.5,529.5C 974.5,531.833 976.167,533.5 978.5,534.5C 979.391,535.11 980.391,535.443 981.5,535.5C 983.077,538.05 985.077,540.05 987.5,541.5C 988.167,542.833 989.167,543.833 990.5,544.5C 991.122,546.122 992.122,547.455 993.5,548.5C 994.167,549.833 995.167,550.833 996.5,551.5C 996.427,553.027 997.094,554.027 998.5,554.5C 1000.06,555.945 1001.4,557.611 1002.5,559.5C 1005.03,561.605 1007.36,563.939 1009.5,566.5C 1011.64,569.977 1014.64,572.311 1018.5,573.5C 1019.19,576.189 1020.86,577.856 1023.5,578.5C 1029.92,584.25 1036.25,590.417 1042.5,597C 1045.81,598.843 1048.81,601.009 1051.5,603.5C 1052.38,605.91 1053.55,608.243 1055,610.5C 1056.11,612.037 1057.61,612.703 1059.5,612.5C 1060.44,616.381 1062.77,619.047 1066.5,620.5C 1066.83,621.167 1067.17,621.833 1067.5,622.5C 1068.17,623.833 1069.17,624.833 1070.5,625.5C 1072.83,627.694 1074.67,630.361 1076,633.5C 1077.27,634.883 1078.77,635.883 1080.5,636.5C 1082.78,640.707 1085.78,644.374 1089.5,647.5C 1089.5,647.833 1089.5,648.167 1089.5,648.5C 1092.39,652.603 1095.73,656.269 1099.5,659.5C 1099.5,659.833 1099.5,660.167 1099.5,660.5C 1102.18,664.843 1105.51,668.51 1109.5,671.5C 1109.83,672.5 1110.5,673.167 1111.5,673.5C 1112.08,675.749 1113.41,677.415 1115.5,678.5C 1115.5,678.833 1115.5,679.167 1115.5,679.5C 1118.61,683.397 1121.94,687.064 1125.5,690.5C 1129.13,694.481 1132.46,698.815 1135.5,703.5C 1135.91,705.89 1136.58,708.223 1137.5,710.5C 1139.53,711.844 1141.53,713.177 1143.5,714.5C 1145.54,716.177 1147.54,717.844 1149.5,719.5C 1150.58,721.587 1152.25,722.92 1154.5,723.5C 1154.83,724.5 1155.5,725.167 1156.5,725.5C 1157.52,727.911 1159.18,729.578 1161.5,730.5C 1162.83,732.5 1164.5,734.167 1166.5,735.5C 1167.83,737.5 1169.5,739.167 1171.5,740.5C 1172.5,741.833 1173.5,743.167 1174.5,744.5C 1175.5,746.167 1176.83,747.5 1178.5,748.5C 1180.5,750.833 1182.5,753.167 1184.5,755.5C 1186.5,758.167 1188.83,760.5 1191.5,762.5C 1195.21,766.208 1198.54,770.208 1201.5,774.5C 1201.5,775.833 1202.17,776.5 1203.5,776.5C 1211.88,785.545 1219.88,794.879 1227.5,804.5C 1229.47,807.139 1231.81,809.473 1234.5,811.5C 1238.02,816.06 1241.69,820.393 1245.5,824.5C 1246.75,828.003 1248.75,831.003 1251.5,833.5C 1252.17,834.833 1253.17,835.833 1254.5,836.5C 1254.43,838.027 1255.09,839.027 1256.5,839.5C 1256.75,841.674 1257.75,843.341 1259.5,844.5C 1260.51,845.872 1261.51,847.205 1262.5,848.5C 1263.44,851.109 1265.11,853.109 1267.5,854.5C 1272.58,860.908 1277.25,867.575 1281.5,874.5C 1281.5,876.167 1281.5,877.833 1281.5,879.5C 1278.45,879.111 1275.78,879.777 1273.5,881.5C 1266.71,883.124 1260.04,885.124 1253.5,887.5C 1248.84,888.009 1244.51,889.342 1240.5,891.5C 1239.51,891.328 1238.84,891.662 1238.5,892.5C 1235.01,893.658 1231.68,894.991 1228.5,896.5C 1225.66,897.538 1222.99,898.872 1220.5,900.5C 1217.76,900.706 1215.43,901.706 1213.5,903.5C 1210.69,903.025 1208.69,904.025 1207.5,906.5C 1204.94,907.088 1202.6,908.088 1200.5,909.5C 1198.06,910.109 1196.39,911.609 1195.5,914C 1194.21,914.49 1192.87,914.657 1191.5,914.5C 1188.68,915.236 1186.68,916.902 1185.5,919.5C 1170.48,928.006 1155.81,937.006 1141.5,946.5C 1139,947.584 1136.66,948.917 1134.5,950.5C 1128.2,953.807 1122.2,957.473 1116.5,961.5C 1111.42,963.762 1106.76,966.762 1102.5,970.5C 1101.17,971.167 1100.17,972.167 1099.5,973.5C 1099.17,973.5 1098.83,973.5 1098.5,973.5C 1096.83,974.5 1095.5,975.833 1094.5,977.5C 1092.6,977.738 1091.26,978.738 1090.5,980.5C 1086.49,983.507 1082.49,986.507 1078.5,989.5C 1076.52,990.484 1074.85,991.817 1073.5,993.5C 1071.48,995.196 1069.48,996.863 1067.5,998.5C 1063.5,1001.83 1059.5,1005.17 1055.5,1008.5C 1053.25,1009.08 1051.58,1010.41 1050.5,1012.5C 1044.32,1017.17 1037.99,1021.67 1031.5,1026C 1020.83,1035.98 1009.83,1045.48 998.5,1054.5C 996.973,1054.43 995.973,1055.09 995.5,1056.5C 993.163,1058.67 990.663,1060.67 988,1062.5C 987.383,1063.45 987.549,1064.28 988.5,1065C 987.5,1065.33 986.5,1065.67 985.5,1066C 981.915,1069.76 978.248,1073.26 974.5,1076.5C 972.5,1077.83 970.833,1079.5 969.5,1081.5C 967.539,1082.46 965.873,1083.79 964.5,1085.5C 961.806,1088.19 959.14,1090.86 956.5,1093.5C 952.854,1095.82 949.52,1098.48 946.5,1101.5C 944.5,1102.83 942.833,1104.5 941.5,1106.5C 938.281,1107.72 936.615,1110.05 936.5,1113.5C 935.209,1113.26 934.209,1113.6 933.5,1114.5C 931.5,1114.5 930.5,1115.5 930.5,1117.5C 929.167,1118.17 928.167,1119.17 927.5,1120.5C 925.596,1120.74 924.262,1121.74 923.5,1123.5C 921.833,1124.5 920.5,1125.83 919.5,1127.5C 917.167,1129.17 915.167,1131.17 913.5,1133.5C 911.736,1134.33 910.402,1135.66 909.5,1137.5C 908.29,1137.93 907.29,1138.6 906.5,1139.5C 902.82,1143.18 899.486,1147.18 896.5,1151.5C 894.167,1151.83 892.833,1153.17 892.5,1155.5C 890.605,1156.97 888.939,1158.64 887.5,1160.5C 884.945,1162.61 882.612,1164.94 880.5,1167.5C 879.873,1168.42 879.539,1169.42 879.5,1170.5C 877.5,1171.17 876.167,1172.5 875.5,1174.5C 874.167,1174.5 873.5,1175.17 873.5,1176.5C 871.5,1177.83 869.833,1179.5 868.5,1181.5C 866.184,1182.42 864.517,1184.09 863.5,1186.5C 857.776,1191.89 852.776,1197.89 848.5,1204.5C 847.094,1204.97 846.427,1205.97 846.5,1207.5C 844.273,1209.61 842.273,1211.94 840.5,1214.5C 837.833,1216.5 835.5,1218.83 833.5,1221.5C 831.413,1222.58 830.08,1224.25 829.5,1226.5C 827.086,1227.91 825.419,1229.91 824.5,1232.5C 824.167,1233.5 823.5,1234.17 822.5,1234.5C 819.149,1236.85 816.482,1239.85 814.5,1243.5C 811.756,1246.81 808.923,1250.14 806,1253.5C 805.187,1255.44 804.687,1257.44 804.5,1259.5C 804.167,1259.5 803.833,1259.5 803.5,1259.5C 801.123,1261.23 799.456,1263.56 798.5,1266.5C 797.094,1266.97 796.427,1267.97 796.5,1269.5C 795.094,1269.97 794.427,1270.97 794.5,1272.5C 793.094,1272.97 792.427,1273.97 792.5,1275.5C 792.167,1276.17 791.833,1276.83 791.5,1277.5C 787.845,1280.12 785.679,1283.79 785,1288.5C 782.957,1290.21 781.29,1292.21 780,1294.5C 779.088,1299.46 778.588,1304.46 778.5,1309.5C 778.167,1309.5 777.833,1309.5 777.5,1309.5C 775.92,1311.72 774.92,1314.38 774.5,1317.5C 773.583,1316.87 772.583,1316.54 771.5,1316.5C 770.833,1316.17 770.167,1315.83 769.5,1315.5C 768.5,1313.83 767.167,1312.5 765.5,1311.5C 765.631,1310.76 765.464,1310.09 765,1309.5C 760.245,1304.57 755.411,1299.91 750.5,1295.5C 747.856,1292.52 745.189,1289.52 742.5,1286.5C 741.876,1284.25 740.543,1282.58 738.5,1281.5C 735.417,1277.72 732.084,1274.05 728.5,1270.5C 726.565,1266.29 723.898,1262.63 720.5,1259.5C 719.857,1257.92 718.857,1256.59 717.5,1255.5C 717.144,1253.81 716.144,1252.81 714.5,1252.5C 714.573,1250.97 713.906,1249.97 712.5,1249.5C 710.876,1246.21 708.543,1243.54 705.5,1241.5C 703.386,1237.25 700.886,1233.25 698,1229.5C 696.961,1228.29 695.794,1227.29 694.5,1226.5C 694.573,1224.97 693.906,1223.97 692.5,1223.5C 691.5,1222.83 690.5,1222.17 689.5,1221.5C 687.547,1217.88 684.881,1214.88 681.5,1212.5C 680.488,1211.13 679.488,1209.8 678.5,1208.5C 678.573,1206.97 677.906,1205.97 676.5,1205.5C 675.876,1203.25 674.543,1201.58 672.5,1200.5C 672.672,1199.51 672.338,1198.84 671.5,1198.5C 670.167,1196.5 668.5,1194.83 666.5,1193.5C 666.672,1192.51 666.338,1191.84 665.5,1191.5C 664.89,1190.61 664.557,1189.61 664.5,1188.5C 663.396,1186.61 662.063,1184.94 660.5,1183.5C 656.874,1178.54 652.874,1173.87 648.5,1169.5C 645.427,1164.01 641.427,1159.34 636.5,1155.5C 630.16,1145.55 623.16,1136.21 615.5,1127.5C 612.032,1124.54 609.032,1121.21 606.5,1117.5C 604.957,1112.42 601.957,1108.42 597.5,1105.5C 597.573,1103.97 596.906,1102.97 595.5,1102.5C 594.544,1099.56 592.877,1097.23 590.5,1095.5C 590.573,1093.97 589.906,1092.97 588.5,1092.5C 583.903,1084.91 578.569,1077.91 572.5,1071.5C 562.833,1060.5 553.167,1049.5 543.5,1038.5C 540.754,1033.69 537.088,1029.69 532.5,1026.5C 527.014,1017.18 520.348,1008.85 512.5,1001.5C 504.683,993.175 497.849,984.175 492,974.5C 488.786,972.29 486.786,969.29 486,965.5C 484.303,962.98 482.47,960.647 480.5,958.5C 480.155,955.802 478.822,953.802 476.5,952.5C 472.836,947.179 469.67,941.512 467,935.5C 466.329,934.748 465.496,934.414 464.5,934.5C 464.299,930.098 462.466,926.432 459,923.5C 453.16,908.79 446.66,894.457 439.5,880.5C 439.167,879.167 438.833,877.833 438.5,876.5C 436.575,871.165 434.908,865.832 433.5,860.5C 431.434,851.629 430.434,842.629 430.5,833.5C 430.822,827.642 430.489,821.975 429.5,816.5C 428.627,812.017 427.627,807.683 426.5,803.5C 426.5,795.167 426.5,786.833 426.5,778.5C 426.5,768.833 426.5,759.167 426.5,749.5C 426.5,747.167 426.5,744.833 426.5,742.5C 428.217,737.1 429.217,731.434 429.5,725.5C 430.924,723.485 431.59,721.152 431.5,718.5C 432.167,716.167 432.833,713.833 433.5,711.5C 435.139,707.548 436.805,703.548 438.5,699.5C 439.499,696.838 440.499,694.172 441.5,691.5C 443.31,688.855 444.31,685.855 444.5,682.5C 445.167,681.5 445.833,680.5 446.5,679.5C 448.379,678.105 449.379,676.105 449.5,673.5C 451.103,670.627 452.436,667.627 453.5,664.5C 455.417,661.669 457.083,658.669 458.5,655.5C 459.167,655.5 459.5,655.167 459.5,654.5C 461.942,652.879 463.275,650.546 463.5,647.5C 466.705,645.091 468.372,641.758 468.5,637.5C 469.677,635.321 470.677,632.987 471.5,630.5C 472.728,629.694 473.728,628.694 474.5,627.5C 476.047,626.232 477.047,624.565 477.5,622.5C 477.971,620.421 478.637,618.421 479.5,616.5C 481.522,614.469 483.189,612.135 484.5,609.5C 485.167,608.5 485.833,607.5 486.5,606.5C 488.727,605.599 489.727,603.933 489.5,601.5C 490.974,600.564 491.974,599.23 492.5,597.5C 492.328,596.508 492.662,595.842 493.5,595.5C 494.737,594.035 495.737,592.368 496.5,590.5C 498.543,589.421 499.876,587.754 500.5,585.5C 500.833,584.833 501.167,584.167 501.5,583.5C 503.192,581.795 504.525,579.795 505.5,577.5C 509.43,571.099 513.763,565.099 518.5,559.5C 520.883,558.115 522.55,556.115 523.5,553.5C 523.427,551.973 524.094,550.973 525.5,550.5C 529.522,548.478 532.522,545.478 534.5,541.5C 535.5,540.167 536.5,538.833 537.5,537.5C 539.522,535.469 541.189,533.135 542.5,530.5C 551.389,521.713 560.723,513.38 570.5,505.5C 572.967,505.245 574.967,504.245 576.5,502.5C 578.5,501.167 580.5,499.833 582.5,498.5C 585.696,497.071 588.696,495.405 591.5,493.5C 593.912,493.306 594.912,491.973 594.5,489.5C 605.556,484.47 616.223,478.637 626.5,472C 631.37,470.033 636.37,468.533 641.5,467.5C 646.393,466.204 651.059,464.538 655.5,462.5C 659.521,461.497 663.521,460.497 667.5,459.5C 669.306,458.976 670.972,458.309 672.5,457.5C 678.792,455.068 685.125,453.068 691.5,451.5C 699.868,450.063 707.868,447.73 715.5,444.5C 726.672,443.101 738.005,442.435 749.5,442.5 Z"/></g>
<g><path style="opacity:1" fill="#810800" d="M 790.5,442.5 C 791.167,442.5 791.833,442.5 792.5,442.5C 793.448,443.978 794.781,444.978 796.5,445.5C 791.306,445.259 786.306,444.593 781.5,443.5C 784.713,443.81 787.713,443.477 790.5,442.5 Z"/></g>
<g><path style="opacity:1" fill="#4c0500" d="M 792.5,442.5 C 797.041,442.994 801.374,443.994 805.5,445.5C 802.5,445.5 799.5,445.5 796.5,445.5C 794.781,444.978 793.448,443.978 792.5,442.5 Z"/></g>
<g><path style="opacity:1" fill="#4d0500" d="M 806.5,445.5 C 810.514,445.334 814.514,445.501 818.5,446C 819.056,446.383 819.389,446.883 819.5,447.5C 816.569,446.994 813.735,446.994 811,447.5C 809.272,447.101 807.772,446.434 806.5,445.5 Z"/></g>
<g><path style="opacity:1" fill="#3c0400" d="M 715.5,444.5 C 707.868,447.73 699.868,450.063 691.5,451.5C 699.006,448.004 707.006,445.67 715.5,444.5 Z"/></g>
<g><path style="opacity:1" fill="#7e0801" d="M 827.5,449.5 C 830.385,449.194 833.052,449.527 835.5,450.5C 835.5,450.833 835.5,451.167 835.5,451.5C 832.505,451.706 829.838,451.04 827.5,449.5 Z"/></g>
<g><path style="opacity:1" fill="#470500" d="M 835.5,451.5 C 835.5,451.167 835.5,450.833 835.5,450.5C 840.533,451.022 845.533,451.689 850.5,452.5C 845.567,453.601 840.567,453.268 835.5,451.5 Z"/></g>
<g><path style="opacity:1" fill="#310600" d="M 850.5,452.5 C 850.56,451.957 850.893,451.624 851.5,451.5C 854.776,452.787 857.442,454.787 859.5,457.5C 856.412,455.997 853.412,454.331 850.5,452.5 Z"/></g>
<g><path style="opacity:1" fill="#5e0500" d="M 672.5,457.5 C 670.972,458.309 669.306,458.976 667.5,459.5C 667.343,458.127 667.51,456.793 668,455.5C 669.11,457.037 670.61,457.703 672.5,457.5 Z"/></g>
<g><path style="opacity:1" fill="#400500" d="M 867.5,459.5 C 877.754,463.063 887.754,467.23 897.5,472C 898.71,473.039 899.71,474.206 900.5,475.5C 889.653,469.778 878.653,464.444 867.5,459.5 Z"/></g>
<g><path style="opacity:1" fill="#4f0500" d="M 655.5,462.5 C 651.059,464.538 646.393,466.204 641.5,467.5C 641.369,466.624 641.702,465.957 642.5,465.5C 644.661,464.965 646.661,464.132 648.5,463C 650.846,463.792 653.179,463.625 655.5,462.5 Z"/></g>
<g><path style="opacity:1" fill="#460400" d="M 900.5,475.5 C 902.482,475.995 904.482,476.495 906.5,477C 907.252,477.671 907.586,478.504 907.5,479.5C 905.012,478.312 902.678,476.979 900.5,475.5 Z"/></g>
<g><path style="opacity:1" fill="#450400" d="M 910.5,481.5 C 912.783,481.608 914.783,482.441 916.5,484C 917.252,484.671 917.586,485.504 917.5,486.5C 914.865,485.189 912.531,483.522 910.5,481.5 Z"/></g>
<g><path style="opacity:1" fill="#4b0500" d="M 594.5,489.5 C 594.912,491.973 593.912,493.306 591.5,493.5C 592.026,491.77 593.026,490.436 594.5,489.5 Z"/></g>
<g><path style="opacity:1" fill="#490500" d="M 929.5,494.5 C 932.516,494.841 935.182,496.007 937.5,498C 939.439,498.908 940.439,500.408 940.5,502.5C 936.762,499.829 933.096,497.162 929.5,494.5 Z"/></g>
<g><path style="opacity:1" fill="#3f0500" d="M 582.5,498.5 C 580.5,499.833 578.5,501.167 576.5,502.5C 576.167,502.5 575.833,502.5 575.5,502.5C 576.985,499.917 579.318,498.584 582.5,498.5 Z"/></g>
<g><path style="opacity:1" fill="#7e0802" d="M 575.5,502.5 C 575.833,502.5 576.167,502.5 576.5,502.5C 574.967,504.245 572.967,505.245 570.5,505.5C 571.401,503.273 573.067,502.273 575.5,502.5 Z"/></g>
<g><path style="opacity:1" fill="#430500" d="M 950.5,509.5 C 953.732,509.772 955.732,511.438 956.5,514.5C 954.091,513.299 952.091,511.633 950.5,509.5 Z"/></g>
<g><path style="opacity:1" fill="#4c0600" d="M 963.5,521.5 C 965.017,521.511 966.184,522.177 967,523.5C 969.005,522.968 970.171,523.968 970.5,526.5C 967.6,525.557 965.267,523.89 963.5,521.5 Z"/></g>
<g><path style="opacity:1" fill="#800801" d="M 973.5,529.5 C 976.167,530.167 977.833,531.833 978.5,534.5C 976.167,533.5 974.5,531.833 973.5,529.5 Z"/></g>
<g><path style="opacity:1" fill="#500600" d="M 542.5,530.5 C 541.189,533.135 539.522,535.469 537.5,537.5C 537.241,533.763 538.907,531.43 542.5,530.5 Z"/></g>
<g><path style="opacity:1" fill="#3c0500" d="M 981.5,535.5 C 984.5,536.5 986.5,538.5 987.5,541.5C 985.077,540.05 983.077,538.05 981.5,535.5 Z"/></g>
<g><path style="opacity:1" fill="#6b0701" d="M 534.5,541.5 C 532.522,545.478 529.522,548.478 525.5,550.5C 528.091,547.242 531.091,544.242 534.5,541.5 Z"/></g>
<g><path style="opacity:1" fill="#540500" d="M 993.5,548.5 C 992.122,547.455 991.122,546.122 990.5,544.5C 991.329,543.668 992.162,544.001 993,545.5C 993.483,546.448 993.649,547.448 993.5,548.5 Z"/></g>
<g><path style="opacity:1" fill="#5d0600" d="M 996.5,551.5 C 998.048,551.821 998.715,552.821 998.5,554.5C 997.094,554.027 996.427,553.027 996.5,551.5 Z"/></g>
<g><path style="opacity:1" fill="#740701" d="M 523.5,553.5 C 522.55,556.115 520.883,558.115 518.5,559.5C 519.316,556.893 520.983,554.893 523.5,553.5 Z"/></g>
<g><path style="opacity:1" fill="#770700" d="M 1009.5,566.5 C 1011.99,567.797 1014.66,568.797 1017.5,569.5C 1018.43,570.689 1018.76,572.022 1018.5,573.5C 1014.64,572.311 1011.64,569.977 1009.5,566.5 Z"/></g>
<g><path style="opacity:1" fill="#820800" d="M 1023.5,578.5 C 1020.86,577.856 1019.19,576.189 1018.5,573.5C 1022.47,572.306 1024.14,573.973 1023.5,578.5 Z"/></g>
<g><path style="opacity:1" fill="#370800" d="M 505.5,577.5 C 504.525,579.795 503.192,581.795 501.5,583.5C 501.375,580.392 502.708,578.392 505.5,577.5 Z"/></g>
<g><path style="opacity:1" fill="#510500" d="M 1002.5,559.5 C 1005.14,559.954 1007.47,561.121 1009.5,563C 1011.47,563.495 1013.47,563.662 1015.5,563.5C 1015.5,564.833 1015.5,566.167 1015.5,567.5C 1018.5,567.167 1019.83,568.5 1019.5,571.5C 1020.98,571.238 1022.31,571.571 1023.5,572.5C 1027.81,578.533 1032.64,584.2 1038,589.5C 1044.33,594.665 1050.16,600.331 1055.5,606.5C 1053.86,605.853 1052.53,604.853 1051.5,603.5C 1048.81,601.009 1045.81,598.843 1042.5,597C 1036.25,590.417 1029.92,584.25 1023.5,578.5C 1024.14,573.973 1022.47,572.306 1018.5,573.5C 1018.76,572.022 1018.43,570.689 1017.5,569.5C 1014.66,568.797 1011.99,567.797 1009.5,566.5C 1007.36,563.939 1005.03,561.605 1002.5,559.5 Z"/></g>
<g><path style="opacity:1" fill="#5c0500" d="M 500.5,585.5 C 499.876,587.754 498.543,589.421 496.5,590.5C 495.756,587.05 497.09,585.384 500.5,585.5 Z"/></g>
<g><path style="opacity:1" fill="#4a0500" d="M 496.5,590.5 C 495.737,592.368 494.737,594.035 493.5,595.5C 493.5,593.833 493.5,592.167 493.5,590.5C 494.5,590.5 495.5,590.5 496.5,590.5 Z"/></g>
<g><path style="opacity:1" fill="#4f0400" d="M 492.5,597.5 C 491.974,599.23 490.974,600.564 489.5,601.5C 489.088,599.027 490.088,597.694 492.5,597.5 Z"/></g>
<g><path style="opacity:1" fill="#600601" d="M 489.5,601.5 C 489.727,603.933 488.727,605.599 486.5,606.5C 485.916,603.715 486.916,602.048 489.5,601.5 Z"/></g>
<g><path style="opacity:1" fill="#7e0800" d="M 1051.5,603.5 C 1052.53,604.853 1053.86,605.853 1055.5,606.5C 1056.42,608.754 1057.75,610.754 1059.5,612.5C 1057.61,612.703 1056.11,612.037 1055,610.5C 1053.55,608.243 1052.38,605.91 1051.5,603.5 Z"/></g>
<g><path style="opacity:1" fill="#3b0500" d="M 484.5,609.5 C 483.189,612.135 481.522,614.469 479.5,616.5C 480.028,613.312 481.695,610.979 484.5,609.5 Z"/></g>
<g><path style="opacity:1" fill="#460600" d="M 1055.5,606.5 C 1060.13,610.432 1063.8,615.099 1066.5,620.5C 1062.77,619.047 1060.44,616.381 1059.5,612.5C 1057.75,610.754 1056.42,608.754 1055.5,606.5 Z"/></g>
<g><path style="opacity:1" fill="#430400" d="M 1067.5,622.5 C 1069.5,622.5 1070.5,623.5 1070.5,625.5C 1069.17,624.833 1068.17,623.833 1067.5,622.5 Z"/></g>
<g><path style="opacity:1" fill="#730701" d="M 477.5,622.5 C 477.047,624.565 476.047,626.232 474.5,627.5C 473.916,624.715 474.916,623.048 477.5,622.5 Z"/></g>
<g><path style="opacity:1" fill="#440500" d="M 1070.5,625.5 C 1072.09,625.628 1073.42,626.295 1074.5,627.5C 1076.77,630.385 1078.77,633.385 1080.5,636.5C 1078.77,635.883 1077.27,634.883 1076,633.5C 1074.67,630.361 1072.83,627.694 1070.5,625.5 Z"/></g>
<g><path style="opacity:1" fill="#3f0500" d="M 471.5,630.5 C 470.677,632.987 469.677,635.321 468.5,637.5C 468.338,635.473 468.505,633.473 469,631.5C 469.671,630.748 470.504,630.414 471.5,630.5 Z"/></g>
<g><path style="opacity:1" fill="#3b0400" d="M 1080.5,636.5 C 1084.2,639.536 1087.2,643.203 1089.5,647.5C 1085.78,644.374 1082.78,640.707 1080.5,636.5 Z"/></g>
<g><path style="opacity:1" fill="#7e0801" d="M 468.5,637.5 C 468.372,641.758 466.705,645.091 463.5,647.5C 465.175,644.123 466.842,640.789 468.5,637.5 Z"/></g>
<g><path style="opacity:1" fill="#710701" d="M 463.5,647.5 C 463.275,650.546 461.942,652.879 459.5,654.5C 459.725,651.454 461.058,649.121 463.5,647.5 Z"/></g>
<g><path style="opacity:1" fill="#380500" d="M 1089.5,648.5 C 1094.23,650.892 1097.56,654.559 1099.5,659.5C 1095.73,656.269 1092.39,652.603 1089.5,648.5 Z"/></g>
<g><path style="opacity:1" fill="#3f0400" d="M 458.5,655.5 C 457.083,658.669 455.417,661.669 453.5,664.5C 453.884,660.728 455.55,657.728 458.5,655.5 Z"/></g>
<g><path style="opacity:1" fill="#430500" d="M 1099.5,660.5 C 1102.42,661.913 1104.92,663.913 1107,666.5C 1108.09,668.078 1108.93,669.745 1109.5,671.5C 1105.51,668.51 1102.18,664.843 1099.5,660.5 Z"/></g>
<g><path style="opacity:1" fill="#3f0600" d="M 1111.5,673.5 C 1113.94,674.27 1115.27,675.937 1115.5,678.5C 1113.41,677.415 1112.08,675.749 1111.5,673.5 Z"/></g>
<g><path style="opacity:1" fill="#6a0702" d="M 449.5,673.5 C 449.379,676.105 448.379,678.105 446.5,679.5C 446.755,677.033 447.755,675.033 449.5,673.5 Z"/></g>
<g><path style="opacity:1" fill="#3e0400" d="M 1115.5,679.5 C 1116.82,679.33 1117.99,679.663 1119,680.5C 1121.42,683.734 1123.58,687.067 1125.5,690.5C 1121.94,687.064 1118.61,683.397 1115.5,679.5 Z"/></g>
<g><path style="opacity:1" fill="#4a0500" d="M 444.5,682.5 C 444.31,685.855 443.31,688.855 441.5,691.5C 441.132,687.956 442.132,684.956 444.5,682.5 Z"/></g>
<g><path style="opacity:1" fill="#440600" d="M 438.5,699.5 C 436.805,703.548 435.139,707.548 433.5,711.5C 433.356,706.675 435.023,702.675 438.5,699.5 Z"/></g>
<g><path style="opacity:1" fill="#870802" d="M 1135.5,703.5 C 1138.17,707.243 1140.84,710.91 1143.5,714.5C 1141.53,713.177 1139.53,711.844 1137.5,710.5C 1136.58,708.223 1135.91,705.89 1135.5,703.5 Z"/></g>
<g><path style="opacity:1" fill="#3a0600" d="M 1149.5,719.5 C 1152.2,719.67 1153.87,721.003 1154.5,723.5C 1152.25,722.92 1150.58,721.587 1149.5,719.5 Z"/></g>
<g><path style="opacity:1" fill="#4a0400" d="M 431.5,718.5 C 431.59,721.152 430.924,723.485 429.5,725.5C 429.171,722.772 429.837,720.438 431.5,718.5 Z"/></g>
<g><path style="opacity:1" fill="#470600" d="M 1156.5,725.5 C 1159.5,725.833 1161.17,727.5 1161.5,730.5C 1159.18,729.578 1157.52,727.911 1156.5,725.5 Z"/></g>
<g><path style="opacity:1" fill="#480500" d="M 429.5,725.5 C 429.217,731.434 428.217,737.1 426.5,742.5C 426.334,738.154 426.501,733.821 427,729.5C 427.934,728.142 428.768,726.808 429.5,725.5 Z"/></g>
<g><path style="opacity:1" fill="#320500" d="M 1166.5,735.5 C 1169.17,736.167 1170.83,737.833 1171.5,740.5C 1169.5,739.167 1167.83,737.5 1166.5,735.5 Z"/></g>
<g><path style="opacity:1" fill="#370600" d="M 1174.5,744.5 C 1177.18,744.525 1178.51,745.858 1178.5,748.5C 1176.83,747.5 1175.5,746.167 1174.5,744.5 Z"/></g>
<g><path style="opacity:1" fill="#4c0400" d="M 1184.5,755.5 C 1188.5,756.167 1190.83,758.5 1191.5,762.5C 1188.83,760.5 1186.5,758.167 1184.5,755.5 Z"/></g>
<g><path style="opacity:1" fill="#760700" d="M 426.5,749.5 C 426.5,759.167 426.5,768.833 426.5,778.5C 425.815,772.433 425.149,766.266 424.5,760C 425.252,759.329 425.586,758.496 425.5,757.5C 425.194,754.615 425.527,751.948 426.5,749.5 Z"/></g>
<g><path style="opacity:1" fill="#5e0600" d="M 1201.5,774.5 C 1202.83,774.5 1203.5,775.167 1203.5,776.5C 1203.5,775.167 1202.83,774.5 1201.5,774.5 Z"/></g>
<g><path style="opacity:1" fill="#470400" d="M 425.5,757.5 C 425.586,758.496 425.252,759.329 424.5,760C 425.149,766.266 425.815,772.433 426.5,778.5C 426.5,786.833 426.5,795.167 426.5,803.5C 425.796,798.414 424.796,793.248 423.5,788C 426.017,784.037 426.017,780.037 423.5,776C 424.833,770.667 424.833,765.333 423.5,760C 423.639,758.699 424.305,757.866 425.5,757.5 Z"/></g>
<g><path style="opacity:1" fill="#430400" d="M 1227.5,804.5 C 1230.79,805.789 1233.12,808.122 1234.5,811.5C 1231.81,809.473 1229.47,807.139 1227.5,804.5 Z"/></g>
<g><path style="opacity:1" fill="#510500" d="M 426.5,803.5 C 427.627,807.683 428.627,812.017 429.5,816.5C 429.806,819.385 429.473,822.052 428.5,824.5C 428.466,818.828 427.466,813.328 425.5,808C 426.148,806.56 426.481,805.06 426.5,803.5 Z"/></g>
<g><path style="opacity:1" fill="#8a0800" d="M 429.5,816.5 C 430.489,821.975 430.822,827.642 430.5,833.5C 429.549,832.081 429.216,830.415 429.5,828.5C 428.448,828.649 427.448,828.483 426.5,828C 427.823,827.184 428.489,826.017 428.5,824.5C 429.473,822.052 429.806,819.385 429.5,816.5 Z"/></g>
<g><path style="opacity:1" fill="#420500" d="M 1245.5,824.5 C 1248.32,826.979 1250.32,829.979 1251.5,833.5C 1248.75,831.003 1246.75,828.003 1245.5,824.5 Z"/></g>
<g><path style="opacity:1" fill="#400400" d="M 1254.5,836.5 C 1255.91,836.973 1256.57,837.973 1256.5,839.5C 1255.09,839.027 1254.43,838.027 1254.5,836.5 Z"/></g>
<g><path style="opacity:1" fill="#730700" d="M 1256.5,839.5 C 1257.17,839.833 1257.83,840.167 1258.5,840.5C 1259.23,841.708 1259.57,843.041 1259.5,844.5C 1257.75,843.341 1256.75,841.674 1256.5,839.5 Z"/></g>
<g><path style="opacity:1" fill="#400400" d="M 1258.5,840.5 C 1260.42,842.746 1261.75,845.413 1262.5,848.5C 1261.51,847.205 1260.51,845.872 1259.5,844.5C 1259.57,843.041 1259.23,841.708 1258.5,840.5 Z"/></g>
<g><path style="opacity:1" fill="#3d0500" d="M 428.5,824.5 C 428.489,826.017 427.823,827.184 426.5,828C 427.448,828.483 428.448,828.649 429.5,828.5C 429.216,830.415 429.549,832.081 430.5,833.5C 430.434,842.629 431.434,851.629 433.5,860.5C 433.5,862.5 433.5,864.5 433.5,866.5C 431.299,864.525 430.965,862.192 432.5,859.5C 431.717,853.866 430.383,848.366 428.5,843C 429.535,837.572 428.535,832.572 425.5,828C 425.978,826.358 426.978,825.191 428.5,824.5 Z"/></g>
<g><path style="opacity:1" fill="#320600" d="M 1262.5,848.5 C 1265.56,849.268 1267.23,851.268 1267.5,854.5C 1265.11,853.109 1263.44,851.109 1262.5,848.5 Z"/></g>
<g><path style="opacity:1" fill="#560500" d="M 433.5,860.5 C 434.908,865.832 436.575,871.165 438.5,876.5C 437.5,876.5 436.5,876.5 435.5,876.5C 435.5,875.167 435.5,873.833 435.5,872.5C 434.5,872.5 433.5,872.5 432.5,872.5C 432.36,870.876 433.027,869.71 434.5,869C 433.748,868.329 433.414,867.496 433.5,866.5C 433.5,864.5 433.5,862.5 433.5,860.5 Z"/></g>
<g><path style="opacity:1" fill="#4a0400" d="M 1282.5,875.5 C 1284.52,876.538 1284.85,877.872 1283.5,879.5C 1283.17,878.167 1282.83,876.833 1282.5,875.5 Z"/></g>
<g><path style="opacity:1" fill="#8e0900" d="M 1281.5,874.5 C 1282.17,874.5 1282.5,874.833 1282.5,875.5C 1282.83,876.833 1283.17,878.167 1283.5,879.5C 1280.34,880.434 1277.01,881.101 1273.5,881.5C 1275.78,879.777 1278.45,879.111 1281.5,879.5C 1281.5,877.833 1281.5,876.167 1281.5,874.5 Z"/></g>
<g><path style="opacity:1" fill="#757574" d="M 1290.5,886.5 C 1290.49,888.017 1289.82,889.184 1288.5,890C 1285.63,890.131 1283.3,891.297 1281.5,893.5C 1281.73,895.671 1282.06,897.838 1282.5,900C 1285.16,900.175 1287.82,900.008 1290.5,899.5C 1291.83,901.924 1293.33,904.257 1295,906.5C 1298.71,909.722 1302.55,912.722 1306.5,915.5C 1306.17,916.167 1305.83,916.833 1305.5,917.5C 1307.47,920.64 1309.64,923.64 1312,926.5C 1319.73,933.066 1326.9,940.066 1333.5,947.5C 1347.03,962.17 1360.37,977.17 1373.5,992.5C 1378.8,1000.1 1384.8,1007.1 1391.5,1013.5C 1391.71,1014.92 1392.21,1016.26 1393,1017.5C 1396.37,1021.37 1399.87,1025.03 1403.5,1028.5C 1410.1,1036.11 1416.77,1043.78 1423.5,1051.5C 1423.24,1052.98 1423.57,1054.31 1424.5,1055.5C 1426.79,1056.47 1428.79,1057.8 1430.5,1059.5C 1432.01,1061.35 1433.35,1063.35 1434.5,1065.5C 1442.49,1072.44 1449.32,1080.44 1455,1089.5C 1458.33,1092 1461.5,1094.67 1464.5,1097.5C 1467.19,1101.51 1470.19,1105.18 1473.5,1108.5C 1474.26,1110.26 1475.6,1111.26 1477.5,1111.5C 1479.57,1115.64 1482.57,1118.97 1486.5,1121.5C 1494.54,1131.53 1502.88,1141.2 1511.5,1150.5C 1512.76,1154.02 1514.76,1157.02 1517.5,1159.5C 1530.48,1174.57 1543.65,1189.24 1557,1203.5C 1563.72,1210.56 1570.72,1217.23 1578,1223.5C 1583.47,1229.63 1588.14,1236.3 1592,1243.5C 1609.51,1262.84 1625.85,1283.17 1641,1304.5C 1643.18,1307.85 1646.01,1310.52 1649.5,1312.5C 1659.52,1326.87 1667.18,1342.54 1672.5,1359.5C 1684.34,1383.34 1691.01,1408.68 1692.5,1435.5C 1692.47,1445.36 1693.14,1455.03 1694.5,1464.5C 1697.03,1478.25 1698.36,1492.25 1698.5,1506.5C 1697.45,1520.81 1696.45,1535.14 1695.5,1549.5C 1693.87,1553.91 1692.87,1558.58 1692.5,1563.5C 1689.8,1580.89 1684.3,1597.23 1676,1612.5C 1674.92,1615.06 1674.42,1617.73 1674.5,1620.5C 1673.5,1620.5 1672.5,1620.5 1671.5,1620.5C 1663.22,1639.63 1653.39,1657.96 1642,1675.5C 1640.99,1677.02 1640.49,1678.69 1640.5,1680.5C 1639.32,1680.28 1638.32,1680.61 1637.5,1681.5C 1635.18,1685.15 1632.52,1688.48 1629.5,1691.5C 1628.46,1693.13 1628.46,1694.8 1629.5,1696.5C 1624.39,1702.26 1619.72,1708.26 1615.5,1714.5C 1607.63,1719.03 1600.63,1724.69 1594.5,1731.5C 1591.43,1732.69 1588.77,1734.36 1586.5,1736.5C 1581.48,1740.53 1576.48,1744.53 1571.5,1748.5C 1569.97,1748.43 1568.97,1749.09 1568.5,1750.5C 1562.94,1753.1 1557.94,1756.44 1553.5,1760.5C 1548.39,1764.12 1543.05,1767.46 1537.5,1770.5C 1533.12,1773.23 1528.79,1775.9 1524.5,1778.5C 1520.87,1779.7 1517.54,1781.37 1514.5,1783.5C 1501.65,1788.93 1488.98,1794.93 1476.5,1801.5C 1476.17,1801.5 1475.83,1801.5 1475.5,1801.5C 1470.58,1802.64 1465.91,1804.3 1461.5,1806.5C 1455.56,1808.7 1449.56,1810.7 1443.5,1812.5C 1438,1812.62 1433,1813.96 1428.5,1816.5C 1413.97,1818.2 1399.63,1820.2 1385.5,1822.5C 1383.41,1821.13 1381.08,1820.47 1378.5,1820.5C 1366.79,1821.06 1354.79,1821.06 1342.5,1820.5C 1340.17,1820.5 1337.83,1820.5 1335.5,1820.5C 1335.17,1820.5 1334.83,1820.5 1334.5,1820.5C 1329.11,1818.71 1323.45,1817.71 1317.5,1817.5C 1310.26,1815.92 1302.92,1814.75 1295.5,1814C 1288.83,1811.1 1281.83,1809.77 1274.5,1810C 1263.24,1806.31 1251.58,1802.81 1239.5,1799.5C 1235.06,1795.25 1229.73,1793.09 1223.5,1793C 1220.41,1791.13 1217.08,1789.79 1213.5,1789C 1210.12,1787.31 1207.12,1785.15 1204.5,1782.5C 1204.59,1781.5 1204.25,1780.67 1203.5,1780C 1200.59,1779.72 1197.92,1778.89 1195.5,1777.5C 1190.74,1775.26 1186.07,1772.76 1181.5,1770C 1168.62,1760.72 1156.28,1750.72 1144.5,1740C 1130.32,1725.79 1116.49,1711.29 1103,1696.5C 1096,1687.83 1089,1679.17 1082,1670.5C 1080.99,1669.66 1079.82,1669.33 1078.5,1669.5C 1070.79,1654.78 1061.46,1641.11 1050.5,1628.5C 1050.47,1625.15 1049.14,1622.48 1046.5,1620.5C 1043.87,1617.14 1041.71,1613.47 1040,1609.5C 1035.56,1605.38 1031.06,1601.38 1026.5,1597.5C 1025.5,1597.59 1024.67,1597.25 1024,1596.5C 1023.53,1594.75 1022.86,1593.09 1022,1591.5C 1013.38,1584.62 1006.38,1576.29 1001,1566.5C 997.892,1562.72 994.225,1559.72 990,1557.5C 983.944,1549.34 977.444,1541.67 970.5,1534.5C 969.243,1531.57 967.243,1529.24 964.5,1527.5C 957.634,1516.45 950.134,1505.79 942,1495.5C 927.869,1479.38 914.535,1462.71 902,1445.5C 900.989,1444.66 899.822,1444.33 898.5,1444.5C 898.613,1441.95 897.946,1439.62 896.5,1437.5C 891.833,1431.83 887.167,1426.17 882.5,1420.5C 880.807,1418.97 878.973,1417.64 877,1416.5C 873.858,1409.68 869.524,1403.68 864,1398.5C 860.156,1390.49 854.656,1383.82 847.5,1378.5C 842.364,1370.53 836.53,1363.2 830,1356.5C 827.005,1351.54 824.005,1346.54 821,1341.5C 815.571,1337.57 811.071,1332.91 807.5,1327.5C 807.896,1324.96 807.229,1322.79 805.5,1321C 801.41,1317.74 797.41,1317.91 793.5,1321.5C 792.818,1318.82 791.152,1317.15 788.5,1316.5C 787.306,1312.61 787.472,1308.61 789,1304.5C 792.519,1297.62 795.852,1290.62 799,1283.5C 802.943,1277.26 807.109,1271.26 811.5,1265.5C 813.39,1265.7 814.89,1265.04 816,1263.5C 821.099,1255.61 825.932,1247.61 830.5,1239.5C 842.006,1224.48 853.506,1209.48 865,1194.5C 875.755,1183.91 886.589,1173.57 897.5,1163.5C 900.295,1161.25 902.628,1158.58 904.5,1155.5C 908.174,1152.99 910.841,1149.66 912.5,1145.5C 914.525,1143.44 916.858,1142.1 919.5,1141.5C 920.239,1141.63 920.906,1141.46 921.5,1141C 924.969,1137.19 928.302,1133.35 931.5,1129.5C 934.364,1127.98 936.031,1125.64 936.5,1122.5C 938.783,1122.39 940.783,1121.56 942.5,1120C 952.494,1108.01 963.828,1097.34 976.5,1088C 981.249,1083.92 985.249,1079.26 988.5,1074C 995.715,1068.27 1002.72,1062.44 1009.5,1056.5C 1013.92,1053.66 1017.92,1050.33 1021.5,1046.5C 1030.52,1039.35 1039.86,1032.52 1049.5,1026C 1053.85,1019.82 1059.51,1015.32 1066.5,1012.5C 1073.85,1006.83 1081.52,1001.66 1089.5,997C 1090.25,995.266 1090.75,993.433 1091,991.5C 1093.83,989.333 1096.67,987.167 1099.5,985C 1136.78,960.565 1174.78,937.232 1213.5,915C 1214.83,913.667 1216.17,912.333 1217.5,911C 1232.02,903.909 1246.68,897.076 1261.5,890.5C 1269.52,888.262 1277.69,886.595 1286,885.5C 1287.53,885.773 1289.03,886.106 1290.5,886.5 Z"/></g>
<g><path style="opacity:1" fill="#4a0500" d="M 1253.5,887.5 C 1253.39,888.117 1253.06,888.617 1252.5,889C 1248.51,889.945 1244.51,890.778 1240.5,891.5C 1244.51,889.342 1248.84,888.009 1253.5,887.5 Z"/></g>
<g><path style="opacity:1" fill="#4a0500" d="M 439.5,880.5 C 446.66,894.457 453.16,908.79 459,923.5C 462.466,926.432 464.299,930.098 464.5,934.5C 457.371,923.073 451.371,910.906 446.5,898C 442.012,893.017 439.679,887.184 439.5,880.5 Z"/></g>
<g><path style="opacity:1" fill="#320700" d="M 1238.5,892.5 C 1235.89,895.16 1232.55,896.493 1228.5,896.5C 1231.68,894.991 1235.01,893.658 1238.5,892.5 Z"/></g>
<g><path style="opacity:1" fill="#555555" d="M 1290.5,886.5 C 1291.57,887.251 1291.74,888.251 1291,889.5C 1288.38,891.414 1285.88,893.414 1283.5,895.5C 1284.36,896.425 1285.36,897.092 1286.5,897.5C 1287.83,898.167 1289.17,898.833 1290.5,899.5C 1287.82,900.008 1285.16,900.175 1282.5,900C 1282.06,897.838 1281.73,895.671 1281.5,893.5C 1283.3,891.297 1285.63,890.131 1288.5,890C 1289.82,889.184 1290.49,888.017 1290.5,886.5 Z"/></g>
<g><path style="opacity:1" fill="#340600" d="M 1220.5,900.5 C 1218.57,902.294 1216.24,903.294 1213.5,903.5C 1215.43,901.706 1217.76,900.706 1220.5,900.5 Z"/></g>
<g><path style="opacity:1" fill="#560500" d="M 1213.5,903.5 C 1212.09,905.539 1210.09,906.539 1207.5,906.5C 1208.69,904.025 1210.69,903.025 1213.5,903.5 Z"/></g>
<g><path style="opacity:1" fill="#330800" d="M 1207.5,906.5 C 1205.81,908.818 1203.48,909.818 1200.5,909.5C 1202.6,908.088 1204.94,907.088 1207.5,906.5 Z"/></g>
<g><path style="opacity:1" fill="#340800" d="M 1200.5,909.5 C 1199.05,911.133 1197.72,912.966 1196.5,915C 1194.87,915.494 1193.2,915.66 1191.5,915.5C 1191.5,915.167 1191.5,914.833 1191.5,914.5C 1192.87,914.657 1194.21,914.49 1195.5,914C 1196.39,911.609 1198.06,910.109 1200.5,909.5 Z"/></g>
<g><path style="opacity:1" fill="#630600" d="M 1191.5,914.5 C 1191.5,914.833 1191.5,915.167 1191.5,915.5C 1190.51,918.086 1188.51,919.419 1185.5,919.5C 1186.68,916.902 1188.68,915.236 1191.5,914.5 Z"/></g>
<g><path style="opacity:1" fill="#510500" d="M 464.5,934.5 C 465.496,934.414 466.329,934.748 467,935.5C 469.67,941.512 472.836,947.179 476.5,952.5C 474.983,952.489 473.816,951.823 473,950.5C 472.07,947.638 470.403,945.305 468,943.5C 467.362,940.236 466.196,937.236 464.5,934.5 Z"/></g>
<g><path style="opacity:1" fill="#2e2e2e" d="M 1286.5,897.5 C 1288.2,897.34 1289.87,897.506 1291.5,898C 1292.61,900.883 1294.28,903.383 1296.5,905.5C 1299.84,907.327 1302.51,909.827 1304.5,913C 1305.45,913.483 1306.45,913.649 1307.5,913.5C 1307.34,915.199 1307.51,916.866 1308,918.5C 1312.71,924.376 1317.88,929.71 1323.5,934.5C 1325.05,935.452 1326.71,935.785 1328.5,935.5C 1328.5,936.833 1328.5,938.167 1328.5,939.5C 1329.5,939.5 1330.5,939.5 1331.5,939.5C 1331.34,940.873 1331.51,942.207 1332,943.5C 1341.79,953.751 1351.13,964.418 1360,975.5C 1361.58,976.861 1363.42,977.528 1365.5,977.5C 1366.07,982.432 1368.41,986.432 1372.5,989.5C 1373.13,990.417 1373.46,991.417 1373.5,992.5C 1360.37,977.17 1347.03,962.17 1333.5,947.5C 1326.9,940.066 1319.73,933.066 1312,926.5C 1309.64,923.64 1307.47,920.64 1305.5,917.5C 1305.83,916.833 1306.17,916.167 1306.5,915.5C 1302.55,912.722 1298.71,909.722 1295,906.5C 1293.33,904.257 1291.83,901.924 1290.5,899.5C 1289.17,898.833 1287.83,898.167 1286.5,897.5 Z"/></g>
<g><path style="opacity:1" fill="#720700" d="M 1141.5,946.5 C 1140.42,948.543 1138.75,949.876 1136.5,950.5C 1135.83,950.5 1135.17,950.5 1134.5,950.5C 1136.66,948.917 1139,947.584 1141.5,946.5 Z"/></g>
<g><path style="opacity:1" fill="#420600" d="M 1134.5,950.5 C 1135.17,950.5 1135.83,950.5 1136.5,950.5C 1131.99,954.548 1126.99,957.881 1121.5,960.5C 1119.95,961.452 1118.29,961.785 1116.5,961.5C 1122.2,957.473 1128.2,953.807 1134.5,950.5 Z"/></g>
<g><path style="opacity:1" fill="#530500" d="M 476.5,952.5 C 478.822,953.802 480.155,955.802 480.5,958.5C 477.687,957.554 476.354,955.554 476.5,952.5 Z"/></g>
<g><path style="opacity:1" fill="#4f0500" d="M 480.5,958.5 C 482.47,960.647 484.303,962.98 486,965.5C 486.786,969.29 488.786,972.29 492,974.5C 497.849,984.175 504.683,993.175 512.5,1001.5C 508.979,999.898 505.979,997.565 503.5,994.5C 497.135,985.81 490.802,977.143 484.5,968.5C 483.675,967.614 482.675,967.281 481.5,967.5C 481.33,966.178 481.663,965.011 482.5,964C 481.139,962.416 480.472,960.582 480.5,958.5 Z"/></g>
<g><path style="opacity:1" fill="#410400" d="M 1102.5,970.5 C 1102.5,972.5 1101.5,973.5 1099.5,973.5C 1100.17,972.167 1101.17,971.167 1102.5,970.5 Z"/></g>
<g><path style="opacity:1" fill="#400500" d="M 1098.5,973.5 C 1098.51,976.142 1097.18,977.475 1094.5,977.5C 1095.5,975.833 1096.83,974.5 1098.5,973.5 Z"/></g>
<g><path style="opacity:1" fill="#4e0500" d="M 1094.5,977.5 C 1093.74,979.262 1092.4,980.262 1090.5,980.5C 1091.26,978.738 1092.6,977.738 1094.5,977.5 Z"/></g>
<g><path style="opacity:1" fill="#350600" d="M 1078.5,989.5 C 1078.25,992.47 1076.59,993.803 1073.5,993.5C 1074.85,991.817 1076.52,990.484 1078.5,989.5 Z"/></g>
<g><path style="opacity:1" fill="#480400" d="M 1073.5,993.5 C 1072.71,996.621 1070.71,998.288 1067.5,998.5C 1069.48,996.863 1071.48,995.196 1073.5,993.5 Z"/></g>
<g><path style="opacity:1" fill="#370700" d="M 1055.5,1008.5 C 1054.74,1010.93 1053.07,1012.26 1050.5,1012.5C 1051.58,1010.41 1053.25,1009.08 1055.5,1008.5 Z"/></g>
<g><path style="opacity:1" fill="#500500" d="M 512.5,1001.5 C 520.348,1008.85 527.014,1017.18 532.5,1026.5C 537.088,1029.69 540.754,1033.69 543.5,1038.5C 542.883,1038.61 542.383,1038.94 542,1039.5C 540.38,1037.76 538.88,1035.93 537.5,1034C 536.207,1033.51 534.873,1033.34 533.5,1033.5C 533.785,1031.71 533.452,1030.05 532.5,1028.5C 525.849,1019.51 519.183,1010.51 512.5,1001.5 Z"/></g>
<g><path style="opacity:1" fill="#222222" d="M 1391.5,1013.5 C 1393.08,1014.07 1394.41,1015.07 1395.5,1016.5C 1398.61,1020.26 1401.28,1024.26 1403.5,1028.5C 1399.87,1025.03 1396.37,1021.37 1393,1017.5C 1392.21,1016.26 1391.71,1014.92 1391.5,1013.5 Z"/></g>
<g><path style="opacity:1" fill="#414140" d="M 1021.5,1046.5 C 1017.92,1050.33 1013.92,1053.66 1009.5,1056.5C 1012.06,1053.59 1014.73,1050.59 1017.5,1047.5C 1018.74,1046.75 1020.07,1046.42 1021.5,1046.5 Z"/></g>
<g><path style="opacity:1" fill="#5d0500" d="M 998.5,1054.5 C 998.027,1055.91 997.027,1056.57 995.5,1056.5C 995.973,1055.09 996.973,1054.43 998.5,1054.5 Z"/></g>
<g><path style="opacity:1" fill="#3c3c3c" d="M 1423.5,1051.5 C 1426.51,1053.52 1428.84,1056.19 1430.5,1059.5C 1428.79,1057.8 1426.79,1056.47 1424.5,1055.5C 1423.57,1054.31 1423.24,1052.98 1423.5,1051.5 Z"/></g>
<g><path style="opacity:1" fill="#4f0500" d="M 543.5,1038.5 C 553.167,1049.5 562.833,1060.5 572.5,1071.5C 569.622,1070.63 566.955,1069.3 564.5,1067.5C 558.307,1058.46 551.474,1049.79 544,1041.5C 543.517,1040.55 543.351,1039.55 543.5,1038.5 Z"/></g>
<g><path style="opacity:1" fill="#320800" d="M 974.5,1076.5 C 973.833,1079.17 972.167,1080.83 969.5,1081.5C 970.833,1079.5 972.5,1077.83 974.5,1076.5 Z"/></g>
<g><path style="opacity:1" fill="#5a0501" d="M 969.5,1081.5 C 968.871,1084 967.204,1085.33 964.5,1085.5C 965.873,1083.79 967.539,1082.46 969.5,1081.5 Z"/></g>
<g><path style="opacity:1" fill="#333333" d="M 1434.5,1065.5 C 1438.35,1065.5 1441.02,1067.34 1442.5,1071C 1443.9,1072.44 1445.57,1073.27 1447.5,1073.5C 1448.17,1080.17 1451.84,1083.84 1458.5,1084.5C 1458.71,1086.14 1458.38,1087.64 1457.5,1089C 1460.45,1091.44 1462.78,1094.27 1464.5,1097.5C 1461.5,1094.67 1458.33,1092 1455,1089.5C 1449.32,1080.44 1442.49,1072.44 1434.5,1065.5 Z"/></g>
<g><path style="opacity:1" fill="#530500" d="M 588.5,1092.5 C 589.906,1092.97 590.573,1093.97 590.5,1095.5C 588.952,1095.18 588.285,1094.18 588.5,1092.5 Z"/></g>
<g><path style="opacity:1" fill="#430500" d="M 956.5,1093.5 C 956.461,1094.58 956.127,1095.58 955.5,1096.5C 953.263,1097.13 951.597,1098.47 950.5,1100.5C 949.311,1101.43 947.978,1101.76 946.5,1101.5C 949.52,1098.48 952.854,1095.82 956.5,1093.5 Z"/></g>
<g><path style="opacity:1" fill="#323232" d="M 1464.5,1097.5 C 1468.99,1099.99 1471.99,1103.65 1473.5,1108.5C 1470.19,1105.18 1467.19,1101.51 1464.5,1097.5 Z"/></g>
<g><path style="opacity:1" fill="#420500" d="M 595.5,1102.5 C 596.906,1102.97 597.573,1103.97 597.5,1105.5C 596.094,1105.03 595.427,1104.03 595.5,1102.5 Z"/></g>
<g><path style="opacity:1" fill="#480400" d="M 946.5,1101.5 C 946.368,1104.8 944.702,1106.46 941.5,1106.5C 942.833,1104.5 944.5,1102.83 946.5,1101.5 Z"/></g>
<g><path style="opacity:1" fill="#400600" d="M 597.5,1105.5 C 601.957,1108.42 604.957,1112.42 606.5,1117.5C 602.529,1114.22 599.529,1110.22 597.5,1105.5 Z"/></g>
<g><path style="opacity:1" fill="#2a2a2a" d="M 1477.5,1111.5 C 1481.52,1113.86 1484.52,1117.19 1486.5,1121.5C 1482.57,1118.97 1479.57,1115.64 1477.5,1111.5 Z"/></g>
<g><path style="opacity:1" fill="#420400" d="M 933.5,1114.5 C 933.19,1116.14 932.19,1117.14 930.5,1117.5C 930.5,1115.5 931.5,1114.5 933.5,1114.5 Z"/></g>
<g><path style="opacity:1" fill="#530500" d="M 927.5,1120.5 C 927.306,1122.91 925.973,1123.91 923.5,1123.5C 924.262,1121.74 925.596,1120.74 927.5,1120.5 Z"/></g>
<g><path style="opacity:1" fill="#3e0500" d="M 919.5,1127.5 C 918.545,1130.45 916.545,1132.45 913.5,1133.5C 915.167,1131.17 917.167,1129.17 919.5,1127.5 Z"/></g>
<g><path style="opacity:1" fill="#3a3a3a" d="M 931.5,1129.5 C 928.302,1133.35 924.969,1137.19 921.5,1141C 920.906,1141.46 920.239,1141.63 919.5,1141.5C 922.252,1138.92 924.419,1135.92 926,1132.5C 927.264,1130.39 929.097,1129.39 931.5,1129.5 Z"/></g>
<g><path style="opacity:1" fill="#410500" d="M 913.5,1133.5 C 913.167,1135.83 911.833,1137.17 909.5,1137.5C 910.402,1135.66 911.736,1134.33 913.5,1133.5 Z"/></g>
<g><path style="opacity:1" fill="#400400" d="M 909.5,1137.5 C 909.179,1139.05 908.179,1139.71 906.5,1139.5C 907.29,1138.6 908.29,1137.93 909.5,1137.5 Z"/></g>
<g><path style="opacity:1" fill="#420500" d="M 615.5,1127.5 C 623.16,1136.21 630.16,1145.55 636.5,1155.5C 630.875,1148.7 625.042,1142.04 619,1135.5C 617.555,1132.91 616.388,1130.24 615.5,1127.5 Z"/></g>
<g><path style="opacity:1" fill="#520500" d="M 906.5,1139.5 C 905.344,1145.32 902.011,1149.32 896.5,1151.5C 899.486,1147.18 902.82,1143.18 906.5,1139.5 Z"/></g>
<g><path style="opacity:1" fill="#2e2e2d" d="M 1511.5,1150.5 C 1515.04,1152.39 1517.04,1155.39 1517.5,1159.5C 1514.76,1157.02 1512.76,1154.02 1511.5,1150.5 Z"/></g>
<g><path style="opacity:1" fill="#460400" d="M 896.5,1151.5 C 895.833,1153.5 894.5,1154.83 892.5,1155.5C 892.833,1153.17 894.167,1151.83 896.5,1151.5 Z"/></g>
<g><path style="opacity:1" fill="#3f0400" d="M 892.5,1155.5 C 892.368,1158.8 890.702,1160.46 887.5,1160.5C 888.939,1158.64 890.605,1156.97 892.5,1155.5 Z"/></g>
<g><path style="opacity:1" fill="#454545" d="M 904.5,1155.5 C 902.628,1158.58 900.295,1161.25 897.5,1163.5C 898.412,1161.4 899.579,1159.4 901,1157.5C 901.816,1156.18 902.983,1155.51 904.5,1155.5 Z"/></g>
<g><path style="opacity:1" fill="#490500" d="M 636.5,1155.5 C 641.427,1159.34 645.427,1164.01 648.5,1169.5C 646.989,1168.5 645.322,1167.83 643.5,1167.5C 643.649,1166.45 643.483,1165.45 643,1164.5C 640.59,1161.6 638.423,1158.6 636.5,1155.5 Z"/></g>
<g><path style="opacity:1" fill="#420600" d="M 887.5,1160.5 C 885.81,1164.51 883.144,1167.84 879.5,1170.5C 879.539,1169.42 879.873,1168.42 880.5,1167.5C 882.612,1164.94 884.945,1162.61 887.5,1160.5 Z"/></g>
<g><path style="opacity:1" fill="#580500" d="M 875.5,1174.5 C 875.5,1175.83 874.833,1176.5 873.5,1176.5C 873.5,1175.17 874.167,1174.5 875.5,1174.5 Z"/></g>
<g><path style="opacity:1" fill="#400500" d="M 648.5,1169.5 C 652.874,1173.87 656.874,1178.54 660.5,1183.5C 660.67,1186.2 662.003,1187.87 664.5,1188.5C 664.557,1189.61 664.89,1190.61 665.5,1191.5C 663.629,1191.14 662.129,1190.14 661,1188.5C 657.487,1182.81 653.487,1177.48 649,1172.5C 648.517,1171.55 648.351,1170.55 648.5,1169.5 Z"/></g>
<g><path style="opacity:1" fill="#7c0700" d="M 660.5,1183.5 C 662.063,1184.94 663.396,1186.61 664.5,1188.5C 662.003,1187.87 660.67,1186.2 660.5,1183.5 Z"/></g>
<g><path style="opacity:1" fill="#350800" d="M 868.5,1181.5 C 867.483,1183.91 865.816,1185.58 863.5,1186.5C 864.517,1184.09 866.184,1182.42 868.5,1181.5 Z"/></g>
<g><path style="opacity:1" fill="#420500" d="M 666.5,1193.5 C 668.5,1194.83 670.167,1196.5 671.5,1198.5C 668.833,1197.83 667.167,1196.17 666.5,1193.5 Z"/></g>
<g><path style="opacity:1" fill="#390600" d="M 672.5,1200.5 C 674.543,1201.58 675.876,1203.25 676.5,1205.5C 674.003,1204.87 672.67,1203.2 672.5,1200.5 Z"/></g>
<g><path style="opacity:1" fill="#4b0600" d="M 848.5,1204.5 C 848.573,1206.03 847.906,1207.03 846.5,1207.5C 846.427,1205.97 847.094,1204.97 848.5,1204.5 Z"/></g>
<g><path style="opacity:1" fill="#4e0500" d="M 676.5,1205.5 C 677.906,1205.97 678.573,1206.97 678.5,1208.5C 676.952,1208.18 676.285,1207.18 676.5,1205.5 Z"/></g>
<g><path style="opacity:1" fill="#2a0600" d="M 681.5,1212.5 C 684.881,1214.88 687.547,1217.88 689.5,1221.5C 686.149,1219.15 683.482,1216.15 681.5,1212.5 Z"/></g>
<g><path style="opacity:1" fill="#380600" d="M 840.5,1214.5 C 839.167,1217.83 836.833,1220.17 833.5,1221.5C 835.5,1218.83 837.833,1216.5 840.5,1214.5 Z"/></g>
<g><path style="opacity:1" fill="#490500" d="M 692.5,1223.5 C 693.906,1223.97 694.573,1224.97 694.5,1226.5C 693.094,1226.03 692.427,1225.03 692.5,1223.5 Z"/></g>
<g><path style="opacity:1" fill="#4b0600" d="M 833.5,1221.5 C 832.92,1223.75 831.587,1225.42 829.5,1226.5C 830.08,1224.25 831.413,1222.58 833.5,1221.5 Z"/></g>
<g><path style="opacity:1" fill="#390600" d="M 829.5,1226.5 C 828.581,1229.09 826.914,1231.09 824.5,1232.5C 825.419,1229.91 827.086,1227.91 829.5,1226.5 Z"/></g>
<g><path style="opacity:1" fill="#580600" d="M 822.5,1234.5 C 821.232,1238.77 818.565,1241.77 814.5,1243.5C 816.482,1239.85 819.149,1236.85 822.5,1234.5 Z"/></g>
<g><path style="opacity:1" fill="#460400" d="M 705.5,1241.5 C 708.543,1243.54 710.876,1246.21 712.5,1249.5C 709.427,1247.43 707.094,1244.76 705.5,1241.5 Z"/></g>
<g><path style="opacity:1" fill="#540500" d="M 814.5,1243.5 C 812.182,1249.47 808.849,1254.8 804.5,1259.5C 804.687,1257.44 805.187,1255.44 806,1253.5C 808.923,1250.14 811.756,1246.81 814.5,1243.5 Z"/></g>
<g><path style="opacity:1" fill="#460500" d="M 712.5,1249.5 C 713.906,1249.97 714.573,1250.97 714.5,1252.5C 713.094,1252.03 712.427,1251.03 712.5,1249.5 Z"/></g>
<g><path style="opacity:1" fill="#4e0500" d="M 714.5,1252.5 C 716.144,1252.81 717.144,1253.81 717.5,1255.5C 715.856,1255.19 714.856,1254.19 714.5,1252.5 Z"/></g>
<g><path style="opacity:1" fill="#5e0600" d="M 803.5,1259.5 C 802.99,1262.67 801.323,1265.01 798.5,1266.5C 799.456,1263.56 801.123,1261.23 803.5,1259.5 Z"/></g>
<g><path style="opacity:1" fill="#424242" d="M 830.5,1239.5 C 825.932,1247.61 821.099,1255.61 816,1263.5C 814.89,1265.04 813.39,1265.7 811.5,1265.5C 812.688,1264.64 813.855,1263.64 815,1262.5C 819.352,1255.3 823.519,1247.97 827.5,1240.5C 828.325,1239.61 829.325,1239.28 830.5,1239.5 Z"/></g>
<g><path style="opacity:1" fill="#3a0500" d="M 720.5,1259.5 C 723.898,1262.63 726.565,1266.29 728.5,1270.5C 724.648,1267.84 721.981,1264.17 720.5,1259.5 Z"/></g>
<g><path style="opacity:1" fill="#630600" d="M 798.5,1266.5 C 798.573,1268.03 797.906,1269.03 796.5,1269.5C 796.427,1267.97 797.094,1266.97 798.5,1266.5 Z"/></g>
<g><path style="opacity:1" fill="#510500" d="M 796.5,1269.5 C 796.573,1271.03 795.906,1272.03 794.5,1272.5C 794.427,1270.97 795.094,1269.97 796.5,1269.5 Z"/></g>
<g><path style="opacity:1" fill="#5f0600" d="M 794.5,1272.5 C 794.573,1274.03 793.906,1275.03 792.5,1275.5C 792.427,1273.97 793.094,1272.97 794.5,1272.5 Z"/></g>
<g><path style="opacity:1" fill="#420500" d="M 738.5,1281.5 C 740.543,1282.58 741.876,1284.25 742.5,1286.5C 739.53,1286.25 738.197,1284.59 738.5,1281.5 Z"/></g>
<g><path style="opacity:1" fill="#460500" d="M 791.5,1277.5 C 789.351,1283.47 786.185,1288.81 782,1293.5C 780.745,1298.95 779.578,1304.29 778.5,1309.5C 778.588,1304.46 779.088,1299.46 780,1294.5C 781.29,1292.21 782.957,1290.21 785,1288.5C 785.679,1283.79 787.845,1280.12 791.5,1277.5 Z"/></g>
<g><path style="opacity:1" fill="#410500" d="M 750.5,1295.5 C 755.411,1299.91 760.245,1304.57 765,1309.5C 765.464,1310.09 765.631,1310.76 765.5,1311.5C 760.825,1307.06 755.991,1302.73 751,1298.5C 750.517,1297.55 750.351,1296.55 750.5,1295.5 Z"/></g>
<g><path style="opacity:1" fill="#360500" d="M 777.5,1309.5 C 777.833,1309.5 778.167,1309.5 778.5,1309.5C 778.5,1313.5 778.5,1317.5 778.5,1321.5C 776.585,1321.78 774.919,1321.45 773.5,1320.5C 774.833,1320.5 776.167,1320.5 777.5,1320.5C 777.5,1316.83 777.5,1313.17 777.5,1309.5 Z"/></g>
<g><path style="opacity:1" fill="#2f0500" d="M 769.5,1315.5 C 770.167,1315.83 770.833,1316.17 771.5,1316.5C 772.6,1317.6 773.267,1318.94 773.5,1320.5C 771.413,1319.42 770.08,1317.75 769.5,1315.5 Z"/></g>
<g><path style="opacity:1" fill="#970901" d="M 777.5,1309.5 C 777.5,1313.17 777.5,1316.83 777.5,1320.5C 776.167,1320.5 774.833,1320.5 773.5,1320.5C 773.267,1318.94 772.6,1317.6 771.5,1316.5C 772.583,1316.54 773.583,1316.87 774.5,1317.5C 774.92,1314.38 775.92,1311.72 777.5,1309.5 Z"/></g>
<g><path style="opacity:1" fill="#4c4c4b" d="M 788.5,1316.5 C 791.152,1317.15 792.818,1318.82 793.5,1321.5C 797.41,1317.91 801.41,1317.74 805.5,1321C 807.229,1322.79 807.896,1324.96 807.5,1327.5C 806.566,1326.43 806.232,1325.1 806.5,1323.5C 803.882,1323.22 801.382,1322.55 799,1321.5C 796.619,1322.44 794.119,1322.77 791.5,1322.5C 790.794,1320.33 789.794,1318.33 788.5,1316.5 Z"/></g>
<g><path style="opacity:1" fill="#555555" d="M 1692.5,1435.5 C 1693.86,1444.97 1694.53,1454.64 1694.5,1464.5C 1693.14,1455.03 1692.47,1445.36 1692.5,1435.5 Z"/></g>
<g><path style="opacity:1" fill="#2c2c2c" d="M 964.5,1527.5 C 967.243,1529.24 969.243,1531.57 970.5,1534.5C 967.339,1533.19 965.339,1530.85 964.5,1527.5 Z"/></g>
<g><path style="opacity:1" fill="#2c2c2b" d="M 1695.5,1549.5 C 1695.5,1554.5 1694.5,1559.17 1692.5,1563.5C 1692.87,1558.58 1693.87,1553.91 1695.5,1549.5 Z"/></g>
<g><path style="opacity:1" fill="#383838" d="M 1026.5,1597.5 C 1031.06,1601.38 1035.56,1605.38 1040,1609.5C 1041.71,1613.47 1043.87,1617.14 1046.5,1620.5C 1045.08,1620.29 1043.74,1619.79 1042.5,1619C 1039.79,1615.76 1037.46,1612.26 1035.5,1608.5C 1034.68,1607.61 1033.68,1607.28 1032.5,1607.5C 1032.65,1606.45 1032.48,1605.45 1032,1604.5C 1028.8,1603.15 1026.97,1600.82 1026.5,1597.5 Z"/></g>
<g><path style="opacity:1" fill="#2e2e2e" d="M 1046.5,1620.5 C 1049.14,1622.48 1050.47,1625.15 1050.5,1628.5C 1049.5,1628.59 1048.67,1628.25 1048,1627.5C 1047.02,1625.26 1046.52,1622.93 1046.5,1620.5 Z"/></g>
<g><path style="opacity:1" fill="#2e2e2e" d="M 1629.5,1696.5 C 1631.46,1696.95 1631.8,1697.95 1630.5,1699.5C 1626.81,1703.19 1623.48,1707.19 1620.5,1711.5C 1618.8,1712.55 1617.13,1713.55 1615.5,1714.5C 1619.72,1708.26 1624.39,1702.26 1629.5,1696.5 Z"/></g>
<g><path style="opacity:1" fill="#323232" d="M 1615.5,1714.5 C 1614.96,1716.12 1614.63,1717.78 1614.5,1719.5C 1613.13,1719.34 1611.79,1719.51 1610.5,1720C 1605.17,1725.49 1599.34,1730.33 1593,1734.5C 1591.12,1736.01 1588.95,1736.68 1586.5,1736.5C 1588.77,1734.36 1591.43,1732.69 1594.5,1731.5C 1600.63,1724.69 1607.63,1719.03 1615.5,1714.5 Z"/></g>
<g><path style="opacity:1" fill="#343434" d="M 1586.5,1736.5 C 1586.62,1738.48 1585.95,1740.15 1584.5,1741.5C 1579.95,1743.66 1575.62,1746 1571.5,1748.5C 1576.48,1744.53 1581.48,1740.53 1586.5,1736.5 Z"/></g>
<g><path style="opacity:1" fill="#272727" d="M 1568.5,1750.5 C 1567.41,1753.73 1565.07,1755.57 1561.5,1756C 1559.86,1759.32 1557.19,1760.82 1553.5,1760.5C 1557.94,1756.44 1562.94,1753.1 1568.5,1750.5 Z"/></g>
<g><path style="opacity:1" fill="#2a2a2a" d="M 1553.5,1760.5 C 1552.24,1762.93 1550.41,1764.93 1548,1766.5C 1544.59,1768.3 1541.09,1769.63 1537.5,1770.5C 1543.05,1767.46 1548.39,1764.12 1553.5,1760.5 Z"/></g>
<g><path style="opacity:1" fill="#30302f" d="M 1537.5,1770.5 C 1537.5,1771.5 1537.5,1772.5 1537.5,1773.5C 1533.59,1775.94 1529.25,1777.61 1524.5,1778.5C 1528.79,1775.9 1533.12,1773.23 1537.5,1770.5 Z"/></g>
<g><path style="opacity:1" fill="#4d4d4c" d="M 1195.5,1777.5 C 1197.92,1778.89 1200.59,1779.72 1203.5,1780C 1204.25,1780.67 1204.59,1781.5 1204.5,1782.5C 1200.72,1782.11 1197.72,1780.44 1195.5,1777.5 Z"/></g>
<g><path style="opacity:1" fill="#2b2b2a" d="M 1524.5,1778.5 C 1522.08,1781.66 1518.75,1783.33 1514.5,1783.5C 1517.54,1781.37 1520.87,1779.7 1524.5,1778.5 Z"/></g>
<g><path style="opacity:1" fill="#2a2a2a" d="M 1514.5,1783.5 C 1513.03,1785.13 1511.36,1786.63 1509.5,1788C 1502.76,1791.08 1496.09,1794.24 1489.5,1797.5C 1485.41,1799.71 1481.08,1801.05 1476.5,1801.5C 1488.98,1794.93 1501.65,1788.93 1514.5,1783.5 Z"/></g>
<g><path style="opacity:1" fill="#363636" d="M 1475.5,1801.5 C 1471.71,1805.08 1467.04,1806.75 1461.5,1806.5C 1465.91,1804.3 1470.58,1802.64 1475.5,1801.5 Z"/></g>
<g><path style="opacity:1" fill="#313131" d="M 1443.5,1812.5 C 1438.63,1814.08 1433.63,1815.41 1428.5,1816.5C 1433,1813.96 1438,1812.62 1443.5,1812.5 Z"/></g>
<g><path style="opacity:1" fill="#4f4f4e" d="M 1317.5,1817.5 C 1323.45,1817.71 1329.11,1818.71 1334.5,1820.5C 1332.25,1821.44 1329.75,1821.78 1327,1821.5C 1325.31,1819.96 1323.31,1818.96 1321,1818.5C 1319.13,1821.16 1317.97,1820.83 1317.5,1817.5 Z"/></g>
<g><path style="opacity:1" fill="#343434" d="M 1428.5,1816.5 C 1422.29,1818.37 1415.96,1820.03 1409.5,1821.5C 1408.39,1820.98 1407.23,1820.64 1406,1820.5C 1399.29,1822.25 1392.46,1822.91 1385.5,1822.5C 1399.63,1820.2 1413.97,1818.2 1428.5,1816.5 Z"/></g>
<g><path style="opacity:1" fill="#616160" d="M 1378.5,1820.5 C 1378.61,1822.38 1378.11,1822.71 1377,1821.5C 1371.4,1822.15 1365.9,1822.81 1360.5,1823.5C 1354.87,1824.04 1349.53,1823.37 1344.5,1821.5C 1343.51,1821.67 1342.84,1821.34 1342.5,1820.5C 1354.79,1821.06 1366.79,1821.06 1378.5,1820.5 Z"/></g>
<g><path style="opacity:1" fill="#3a3a39" d="M 1335.5,1820.5 C 1337.83,1820.5 1340.17,1820.5 1342.5,1820.5C 1342.84,1821.34 1343.51,1821.67 1344.5,1821.5C 1344.38,1822.59 1343.71,1823.25 1342.5,1823.5C 1340.1,1822.34 1337.77,1821.34 1335.5,1820.5 Z"/></g>
<g><path style="opacity:1" fill="#3d3d3c" d="M 1378.5,1820.5 C 1381.08,1820.47 1383.41,1821.13 1385.5,1822.5C 1383.38,1825.53 1380.71,1826.03 1377.5,1824C 1371.84,1823.5 1366.18,1823.33 1360.5,1823.5C 1365.9,1822.81 1371.4,1822.15 1377,1821.5C 1378.11,1822.71 1378.61,1822.38 1378.5,1820.5 Z"/></g>
</svg>
