<?xml version="1.0" encoding="UTF-8"?>
<!DOCTYPE svg PUBLIC "-//W3C//DTD SVG 1.1//EN" "http://www.w3.org/Graphics/SVG/1.1/DTD/svg11.dtd">
<svg xmlns="http://www.w3.org/2000/svg" version="1.1" width="2048px" height="2048px" style="shape-rendering:geometricPrecision; text-rendering:geometricPrecision; image-rendering:optimizeQuality; fill-rule:evenodd; clip-rule:evenodd" xmlns:xlink="http://www.w3.org/1999/xlink">
<g><path style="opacity:1" fill="#415827" d="M -0.5,-0.5 C 682.167,-0.5 1364.83,-0.5 2047.5,-0.5C 2047.5,682.167 2047.5,1364.83 2047.5,2047.5C 1364.83,2047.5 682.167,2047.5 -0.5,2047.5C -0.5,1364.83 -0.5,682.167 -0.5,-0.5 Z"/></g>
<g><path style="opacity:1" fill="#415727" d="M 1149.5,786.5 C 1149.46,785.244 1149.96,784.244 1151,783.5C 1151.58,784.998 1151.08,785.998 1149.5,786.5 Z"/></g>
<g><path style="opacity:1" fill="#415727" d="M 1149.5,786.5 C 1149.57,788.027 1148.91,789.027 1147.5,789.5C 1147.43,787.973 1148.09,786.973 1149.5,786.5 Z"/></g>
<g><path style="opacity:1" fill="#415627" d="M 1147.5,789.5 C 1146,807.337 1145,825.17 1144.5,843C 1144.18,867.184 1144.51,891.684 1145.5,916.5C 1144.68,917.386 1143.68,917.719 1142.5,917.5C 1142.36,901.202 1142.2,884.202 1142,866.5C 1142.05,874.046 1141.21,881.546 1139.5,889C 1139.5,898.667 1139.5,908.333 1139.5,918C 1139.05,923.131 1138.05,928.131 1136.5,933C 1137.08,933.893 1137.41,934.893 1137.5,936C 1136.41,940.852 1135.25,945.685 1134,950.5C 1132.51,951.741 1131.68,951.241 1131.5,949C 1134.3,938.838 1136.3,928.838 1137.5,919C 1136.53,909.041 1136.2,899.708 1136.5,891C 1137.62,879.915 1139.28,868.915 1141.5,858C 1141.59,854.538 1141.26,850.871 1140.5,847C 1141.17,843.333 1141.83,839.667 1142.5,836C 1141.14,834.062 1141.47,832.396 1143.5,831C 1142.28,817.921 1143.12,804.754 1146,791.5C 1146.28,790.584 1146.78,789.918 1147.5,789.5 Z"/></g>
<g><path style="opacity:1" fill="#415627" d="M 1143.5,918.5 C 1144.25,919.531 1144.92,920.698 1145.5,922C 1145.74,936.736 1147.24,951.569 1150,966.5C 1158.33,1001.17 1166.67,1035.83 1175,1070.5C 1175.87,1073.38 1175.54,1076.05 1174,1078.5C 1163.56,1037.4 1153.89,996.403 1145,955.5C 1143.77,949.402 1143.6,943.568 1144.5,938C 1143.83,936.667 1143.17,935.333 1142.5,934C 1142.23,928.922 1142.57,923.755 1143.5,918.5 Z"/></g>
<g><path style="opacity:1" fill="#415627" d="M 1131.5,952.5 C 1132.62,954.288 1132.79,956.288 1132,958.5C 1129.95,961.964 1128.29,965.63 1127,969.5C 1123.67,998.503 1119.5,1027.34 1114.5,1056C 1115.02,1056.56 1115.36,1057.23 1115.5,1058C 1114.75,1062.46 1114.25,1066.96 1114,1071.5C 1113.04,1057.51 1113.88,1043.68 1116.5,1030C 1116.17,1029.67 1115.83,1029.33 1115.5,1029C 1118.1,1015.92 1120.43,1002.75 1122.5,989.5C 1122.16,976.519 1125.16,964.185 1131.5,952.5 Z"/></g>
</svg>
