<?xml version="1.0" encoding="UTF-8"?>
<!DOCTYPE svg PUBLIC "-//W3C//DTD SVG 1.1//EN" "http://www.w3.org/Graphics/SVG/1.1/DTD/svg11.dtd">
<svg xmlns="http://www.w3.org/2000/svg" version="1.1" width="2048px" height="2048px" style="shape-rendering:geometricPrecision; text-rendering:geometricPrecision; image-rendering:optimizeQuality; fill-rule:evenodd; clip-rule:evenodd" xmlns:xlink="http://www.w3.org/1999/xlink">
<g><path style="opacity:0.693" fill="#050303" d="M 752.5,434.5 C 783.547,435.803 814.214,439.469 844.5,445.5C 867.361,451.933 889.028,461.1 909.5,473C 941.011,492.449 970.011,515.282 996.5,541.5C 998.078,542.298 999.744,542.798 1001.5,543C 1009.17,550 1016.83,557 1024.5,564C 1037.66,579.159 1051.49,593.659 1066,607.5C 1077.58,622.75 1090.25,637.083 1104,650.5C 1116.62,666.79 1129.62,682.79 1143,698.5C 1144.92,702.004 1147.08,705.337 1149.5,708.5C 1185.62,745.093 1220.12,783.093 1253,822.5C 1268.82,842.81 1284.15,863.477 1299,884.5C 1299.67,887.167 1299.67,889.833 1299,892.5C 1297.7,894.402 1297.03,896.402 1297,898.5C 1303.79,904.286 1309.46,910.952 1314,918.5C 1347.78,952.28 1379.45,987.947 1409,1025.5C 1416.69,1033.53 1424.36,1041.53 1432,1049.5C 1450.73,1073.98 1471.06,1096.98 1493,1118.5C 1510.34,1139.21 1527.68,1159.87 1545,1180.5C 1557.31,1194.14 1570.31,1207.14 1584,1219.5C 1594.8,1235.41 1606.8,1250.41 1620,1264.5C 1627.05,1273.22 1633.72,1282.22 1640,1291.5C 1650.53,1302.03 1659.53,1313.69 1667,1326.5C 1674.47,1345.25 1682.14,1363.91 1690,1382.5C 1696.11,1400.86 1699.28,1419.53 1699.5,1438.5C 1703.8,1467.67 1705.63,1497 1705,1526.5C 1703.34,1557.16 1696.34,1586.49 1684,1614.5C 1669.64,1643.54 1653.98,1671.88 1637,1699.5C 1633.62,1702.88 1630.62,1706.54 1628,1710.5C 1577.2,1759.17 1518.37,1795 1451.5,1818C 1420.29,1825.65 1388.63,1830.48 1356.5,1832.5C 1342.21,1832.34 1328.38,1830 1315,1825.5C 1305.12,1825.65 1295.62,1823.48 1286.5,1819C 1271,1815.84 1255.67,1811.84 1240.5,1807C 1228.34,1802.61 1216.34,1797.61 1204.5,1792C 1188.96,1783.07 1173.96,1773.4 1159.5,1763C 1145.03,1750.2 1130.87,1737.03 1117,1723.5C 1087.18,1689.16 1057.85,1654.5 1029,1619.5C 1019.91,1606.32 1010.58,1593.32 1001,1580.5C 997.779,1577.14 994.279,1574.14 990.5,1571.5C 982.763,1559.39 973.596,1548.39 963,1538.5C 943.03,1508.91 921.364,1480.57 898,1453.5C 889.54,1440.26 879.873,1427.93 869,1416.5C 859.574,1401 848.24,1387 835,1374.5C 827.52,1364.89 820.52,1354.89 814,1344.5C 811.54,1343.04 809.373,1341.21 807.5,1339C 802.856,1339.29 798.189,1339.29 793.5,1339C 787.622,1337.39 781.956,1335.23 776.5,1332.5C 762.877,1317.71 749.044,1303.04 735,1288.5C 696.906,1241.32 658.573,1194.32 620,1147.5C 603.089,1124.68 586.422,1101.68 570,1078.5C 550.5,1057.84 532.166,1036.17 515,1013.5C 509.366,1006.86 503.366,1000.53 497,994.5C 473.916,963.737 454.583,930.737 439,895.5C 436.667,894.5 435,892.833 434,890.5C 430.764,877.527 427.764,864.194 425,850.5C 423.339,828.881 421.173,807.381 418.5,786C 417.323,761.382 419.823,736.882 426,712.5C 434.111,690.177 443.778,668.51 455,647.5C 472.497,615.827 491.497,585.161 512,555.5C 520.749,546.756 528.749,537.422 536,527.5C 545.404,518.48 554.904,509.647 564.5,501C 584.371,488.23 604.705,476.23 625.5,465C 653.778,456.129 682.111,447.463 710.5,439C 724.646,437.463 738.646,435.963 752.5,434.5 Z"/></g>
<g><path style="opacity:1" fill="#5c1915" d="M 820.5,448.5 C 804.072,446.661 787.405,444.828 770.5,443C 757.165,442.712 743.832,442.879 730.5,443.5C 730.611,442.883 730.944,442.383 731.5,442C 743.203,441.535 754.869,440.702 766.5,439.5C 783.79,441.996 801.123,444.162 818.5,446C 819.381,446.708 820.047,447.542 820.5,448.5 Z"/></g>
<g><path style="opacity:1" fill="#6a0465" d="M 820.5,448.5 C 822.607,449.468 824.941,449.802 827.5,449.5C 830.627,450.581 833.96,451.247 837.5,451.5C 842.234,453.145 847.234,453.811 852.5,453.5C 853.708,456.044 855.708,457.378 858.5,457.5C 858.833,457.5 859.167,457.5 859.5,457.5C 860.635,459.213 862.302,459.88 864.5,459.5C 875.795,464.479 887.129,469.479 898.5,474.5C 898.973,475.906 899.973,476.573 901.5,476.5C 906.872,480.522 912.538,484.189 918.5,487.5C 919.899,488.89 921.566,489.89 923.5,490.5C 928.603,495.225 934.269,499.225 940.5,502.5C 942.55,504.547 944.883,506.214 947.5,507.5C 948.5,507.833 949.167,508.5 949.5,509.5C 953.867,513.868 958.533,517.868 963.5,521.5C 965.8,523.984 968.467,525.984 971.5,527.5C 973.091,529.633 975.091,531.299 977.5,532.5C 977.5,534.5 978.5,535.5 980.5,535.5C 982.833,538.5 985.5,541.167 988.5,543.5C 989.973,545.395 991.64,547.061 993.5,548.5C 993.833,549.5 994.5,550.167 995.5,550.5C 995.738,552.404 996.738,553.738 998.5,554.5C 1000.56,555.559 1001.89,557.225 1002.5,559.5C 1004.5,562.167 1006.83,564.5 1009.5,566.5C 1023.84,578.49 1037.84,590.824 1051.5,603.5C 1052.64,606.425 1054.3,609.092 1056.5,611.5C 1067.53,622.569 1077.86,634.236 1087.5,646.5C 1090.82,651.152 1094.49,655.485 1098.5,659.5C 1101.8,664.132 1105.46,668.466 1109.5,672.5C 1110.5,674.167 1111.83,675.5 1113.5,676.5C 1117.08,682.419 1121.42,687.752 1126.5,692.5C 1126.83,693.5 1127.5,694.167 1128.5,694.5C 1129.34,696.853 1130.67,698.853 1132.5,700.5C 1133.5,702.167 1134.83,703.5 1136.5,704.5C 1136.43,706.027 1137.09,707.027 1138.5,707.5C 1138.94,710.714 1140.61,713.047 1143.5,714.5C 1145.55,717.55 1148.22,719.883 1151.5,721.5C 1155.83,726.5 1160.5,731.167 1165.5,735.5C 1167.17,737.833 1169.17,739.833 1171.5,741.5C 1172.83,743.5 1174.5,745.167 1176.5,746.5C 1176.83,747.5 1177.5,748.167 1178.5,748.5C 1179.76,751.427 1181.76,753.761 1184.5,755.5C 1187.53,758.859 1190.53,762.192 1193.5,765.5C 1194.17,766.833 1195.17,767.833 1196.5,768.5C 1196.43,770.027 1197.09,771.027 1198.5,771.5C 1203.49,777.823 1208.82,783.823 1214.5,789.5C 1214.83,790.5 1215.5,791.167 1216.5,791.5C 1216.74,793.404 1217.74,794.738 1219.5,795.5C 1224.16,801.489 1229.16,807.156 1234.5,812.5C 1236.78,816.727 1239.78,820.393 1243.5,823.5C 1245.48,826.81 1247.82,829.81 1250.5,832.5C 1250.74,834.404 1251.74,835.738 1253.5,836.5C 1253.5,838.5 1254.5,839.5 1256.5,839.5C 1258.34,844.665 1261.34,848.999 1265.5,852.5C 1265.43,854.027 1266.09,855.027 1267.5,855.5C 1267.83,856.5 1268.5,857.167 1269.5,857.5C 1270.03,859.23 1271.03,860.564 1272.5,861.5C 1274.02,864.533 1276.02,867.2 1278.5,869.5C 1279.34,871.853 1280.67,873.853 1282.5,875.5C 1282.83,876.833 1283.17,878.167 1283.5,879.5C 1279.99,879.899 1276.66,880.566 1273.5,881.5C 1268.97,882.137 1264.63,883.137 1260.5,884.5C 1257.37,883.908 1255.04,884.908 1253.5,887.5C 1248.67,887.941 1244.01,889.107 1239.5,891C 1238.06,891.377 1237.06,892.21 1236.5,893.5C 1235.51,893.328 1234.84,893.662 1234.5,894.5C 1232.1,894.259 1230.1,894.926 1228.5,896.5C 1225.76,896.707 1223.43,897.707 1221.5,899.5C 1218.28,899.896 1215.61,901.229 1213.5,903.5C 1210.69,903.025 1208.69,904.025 1207.5,906.5C 1204.94,907.088 1202.6,908.088 1200.5,909.5C 1197.89,910.443 1195.89,912.11 1194.5,914.5C 1194.17,914.5 1193.83,914.5 1193.5,914.5C 1193.1,913.475 1192.44,913.308 1191.5,914C 1188.35,915.652 1185.69,917.819 1183.5,920.5C 1179.02,921.657 1175.36,923.99 1172.5,927.5C 1170.62,927.229 1169.29,927.896 1168.5,929.5C 1165.97,930.596 1163.64,931.929 1161.5,933.5C 1159.97,933.427 1158.97,934.094 1158.5,935.5C 1156.97,935.427 1155.97,936.094 1155.5,937.5C 1150.45,940.017 1145.79,943.017 1141.5,946.5C 1135.33,949.08 1129.66,952.414 1124.5,956.5C 1121.8,958.181 1119.13,959.847 1116.5,961.5C 1114.62,961.229 1113.29,961.896 1112.5,963.5C 1108.08,964.253 1104.74,966.587 1102.5,970.5C 1101.13,971.512 1099.8,972.512 1098.5,973.5C 1096.83,974.5 1095.5,975.833 1094.5,977.5C 1092.6,977.738 1091.26,978.738 1090.5,980.5C 1088.6,980.738 1087.26,981.738 1086.5,983.5C 1084.6,983.738 1083.26,984.738 1082.5,986.5C 1080.77,987.026 1079.44,988.026 1078.5,989.5C 1076.25,990.124 1074.58,991.457 1073.5,993.5C 1071.48,995.196 1069.48,996.863 1067.5,998.5C 1064.55,999.781 1062.22,1001.78 1060.5,1004.5C 1058.6,1004.74 1057.26,1005.74 1056.5,1007.5C 1054.97,1007.43 1053.97,1008.09 1053.5,1009.5C 1051.61,1010.6 1049.94,1011.94 1048.5,1013.5C 1044.52,1016.15 1040.85,1019.15 1037.5,1022.5C 1035.6,1022.74 1034.26,1023.74 1033.5,1025.5C 1030.63,1026.43 1028.3,1028.1 1026.5,1030.5C 1024.23,1030.96 1022.89,1032.29 1022.5,1034.5C 1018.85,1036.82 1015.52,1039.48 1012.5,1042.5C 1010.83,1043.5 1009.5,1044.83 1008.5,1046.5C 1004.95,1048.11 1001.95,1050.44 999.5,1053.5C 997.596,1053.74 996.262,1054.74 995.5,1056.5C 992.573,1057.76 990.239,1059.76 988.5,1062.5C 986.089,1064.74 983.256,1067.4 980,1070.5C 979.517,1071.45 979.351,1072.45 979.5,1073.5C 975.637,1074.69 972.637,1077.03 970.5,1080.5C 968.227,1081.77 966.227,1083.43 964.5,1085.5C 961.548,1087.79 958.882,1090.45 956.5,1093.5C 952.753,1095.7 949.42,1098.37 946.5,1101.5C 944.167,1103.17 942.167,1105.17 940.5,1107.5C 939.508,1107.33 938.842,1107.66 938.5,1108.5C 933.194,1113.14 928.194,1118.14 923.5,1123.5C 922.5,1123.83 921.833,1124.5 921.5,1125.5C 915.961,1129.46 910.961,1134.13 906.5,1139.5C 899.825,1146.18 893.492,1153.18 887.5,1160.5C 879.138,1168.86 871.138,1177.53 863.5,1186.5C 860.097,1188.9 857.43,1191.9 855.5,1195.5C 853.413,1196.58 852.08,1198.25 851.5,1200.5C 850.094,1200.97 849.427,1201.97 849.5,1203.5C 848.833,1203.5 848.5,1203.83 848.5,1204.5C 846.738,1205.26 845.738,1206.6 845.5,1208.5C 844.833,1208.5 844.5,1208.83 844.5,1209.5C 841.427,1211.57 839.094,1214.24 837.5,1217.5C 835.5,1218.17 834.167,1219.5 833.5,1221.5C 828.467,1226.53 823.801,1231.86 819.5,1237.5C 810.298,1247.04 802.632,1257.71 796.5,1269.5C 794.178,1270.8 792.845,1272.8 792.5,1275.5C 788.432,1280.62 784.599,1285.96 781,1291.5C 779.748,1294.01 779.248,1296.68 779.5,1299.5C 779.5,1300.17 779.5,1300.83 779.5,1301.5C 778.202,1307.37 776.869,1313.37 775.5,1319.5C 774.482,1318.81 773.482,1318.14 772.5,1317.5C 771.5,1315.83 770.167,1314.5 768.5,1313.5C 760.806,1305.47 753.139,1297.47 745.5,1289.5C 742.857,1286.19 740.19,1282.85 737.5,1279.5C 733.511,1274.18 729.178,1269.18 724.5,1264.5C 723.928,1262.74 723.094,1261.08 722,1259.5C 719.597,1255.97 716.763,1252.97 713.5,1250.5C 713.262,1248.6 712.262,1247.26 710.5,1246.5C 708.206,1242.87 705.54,1239.54 702.5,1236.5C 702.573,1234.97 701.906,1233.97 700.5,1233.5C 700.573,1231.97 699.906,1230.97 698.5,1230.5C 697.243,1227.57 695.243,1225.24 692.5,1223.5C 691.5,1221.83 690.167,1220.5 688.5,1219.5C 687.243,1216.57 685.243,1214.24 682.5,1212.5C 680.183,1208.85 677.516,1205.52 674.5,1202.5C 674.262,1200.6 673.262,1199.26 671.5,1198.5C 671.167,1197.5 670.5,1196.83 669.5,1196.5C 669.262,1194.6 668.262,1193.26 666.5,1192.5C 664.471,1187.78 661.471,1183.78 657.5,1180.5C 656.581,1177.91 654.914,1175.91 652.5,1174.5C 652.262,1172.6 651.262,1171.26 649.5,1170.5C 639.523,1157.68 629.69,1144.68 620,1131.5C 617.963,1129.29 615.797,1127.29 613.5,1125.5C 612.92,1123.25 611.587,1121.58 609.5,1120.5C 608.92,1118.25 607.587,1116.58 605.5,1115.5C 604.99,1112.33 603.323,1109.99 600.5,1108.5C 599.92,1106.25 598.587,1104.58 596.5,1103.5C 596.573,1101.97 595.906,1100.97 594.5,1100.5C 593.92,1098.25 592.587,1096.58 590.5,1095.5C 590.573,1093.97 589.906,1092.97 588.5,1092.5C 588.573,1090.97 587.906,1089.97 586.5,1089.5C 586.573,1087.97 585.906,1086.97 584.5,1086.5C 584.155,1083.8 582.822,1081.8 580.5,1080.5C 580.573,1078.97 579.906,1077.97 578.5,1077.5C 577.5,1075.83 576.167,1074.5 574.5,1073.5C 564.589,1061.58 554.256,1049.91 543.5,1038.5C 529.659,1020.15 514.826,1002.48 499,985.5C 493.305,976.087 487.138,967.087 480.5,958.5C 479.149,954.458 476.815,951.125 473.5,948.5C 467.316,935.483 460.482,922.816 453,910.5C 451.672,905.856 449.839,901.523 447.5,897.5C 444.249,891.638 441.582,885.638 439.5,879.5C 439.737,878.209 439.404,877.209 438.5,876.5C 436.709,871.287 435.209,865.954 434,860.5C 432.757,851.306 431.257,842.306 429.5,833.5C 429.666,826.825 429.5,820.158 429,813.5C 428.79,811.942 428.29,810.609 427.5,809.5C 427.795,807.265 427.461,805.265 426.5,803.5C 426.5,803.167 426.5,802.833 426.5,802.5C 426.5,784.833 426.5,767.167 426.5,749.5C 427.587,743.347 428.42,737.014 429,730.5C 430.946,724.601 432.446,718.601 433.5,712.5C 434.677,710.321 435.677,707.987 436.5,705.5C 436.5,705.167 436.5,704.833 436.5,704.5C 438.742,701.918 440.076,698.918 440.5,695.5C 442.283,691.387 443.616,687.054 444.5,682.5C 444.833,681.5 445.5,680.833 446.5,680.5C 448.293,678.574 449.293,676.241 449.5,673.5C 451.588,671.664 452.921,669.331 453.5,666.5C 455.448,661.667 457.781,657 460.5,652.5C 462.25,651.341 463.25,649.674 463.5,647.5C 465.25,646.341 466.25,644.674 466.5,642.5C 466.5,642.167 466.5,641.833 466.5,641.5C 468.104,640.713 468.771,639.38 468.5,637.5C 470.682,634.307 472.682,630.974 474.5,627.5C 474.5,627.167 474.5,626.833 474.5,626.5C 477.405,624.244 479.072,621.244 479.5,617.5C 482.323,614.525 484.656,611.192 486.5,607.5C 488.008,605.819 489.008,603.819 489.5,601.5C 491.262,600.738 492.262,599.404 492.5,597.5C 492.328,596.508 492.662,595.842 493.5,595.5C 496.399,592.048 499.066,588.382 501.5,584.5C 504.08,581.011 506.413,577.344 508.5,573.5C 510.075,571.475 511.908,569.475 514,567.5C 514.791,566.255 515.291,564.922 515.5,563.5C 516.906,563.027 517.573,562.027 517.5,560.5C 519.167,558.833 520.833,557.167 522.5,555.5C 522.5,555.167 522.5,554.833 522.5,554.5C 527.017,550.59 531.017,546.257 534.5,541.5C 537.729,538.057 540.729,534.39 543.5,530.5C 544.5,530.167 545.167,529.5 545.5,528.5C 547.912,528.306 548.912,526.973 548.5,524.5C 548.833,524.5 549.167,524.5 549.5,524.5C 551.5,524.5 552.5,523.5 552.5,521.5C 555.089,520.581 557.089,518.914 558.5,516.5C 559.239,516.631 559.906,516.464 560.5,516C 563.002,512.667 565.668,509.501 568.5,506.5C 569.167,506.167 569.833,505.833 570.5,505.5C 572.434,504.89 574.101,503.89 575.5,502.5C 576.995,502.011 578.329,501.345 579.5,500.5C 580.71,500.068 581.71,499.401 582.5,498.5C 585.313,498.975 587.313,497.975 588.5,495.5C 589.609,495.443 590.609,495.11 591.5,494.5C 593.543,493.421 594.876,491.754 595.5,489.5C 597.153,489.34 598.486,488.674 599.5,487.5C 601.698,487.88 603.365,487.213 604.5,485.5C 606.434,484.89 608.101,483.89 609.5,482.5C 612.546,482.275 614.879,480.942 616.5,478.5C 620.1,476.89 623.434,474.89 626.5,472.5C 628.698,472.88 630.365,472.213 631.5,470.5C 636.854,469.586 641.854,467.919 646.5,465.5C 646.833,465.5 647.167,465.5 647.5,465.5C 649.698,465.125 651.698,464.458 653.5,463.5C 653.833,463.5 654.167,463.5 654.5,463.5C 657.453,462.183 660.453,461.183 663.5,460.5C 665.099,460.768 666.432,460.434 667.5,459.5C 674.913,457.139 682.247,454.805 689.5,452.5C 696.541,451.411 703.208,449.411 709.5,446.5C 715.607,444.654 721.773,444.32 728,445.5C 729.301,445.361 730.134,444.695 730.5,443.5C 743.832,442.879 757.165,442.712 770.5,443C 787.405,444.828 804.072,446.661 820.5,448.5 Z"/></g>
<g><path style="opacity:1" fill="#551709" d="M 730.5,443.5 C 730.134,444.695 729.301,445.361 728,445.5C 721.773,444.32 715.607,444.654 709.5,446.5C 709.611,445.883 709.944,445.383 710.5,445C 713.767,444.547 716.934,443.713 720,442.5C 723.441,443.382 726.941,443.716 730.5,443.5 Z"/></g>
<g><path style="opacity:1" fill="#471106" d="M 709.5,446.5 C 703.208,449.411 696.541,451.411 689.5,452.5C 695.534,448.88 702.2,446.88 709.5,446.5 Z"/></g>
<g><path style="opacity:1" fill="#662012" d="M 827.5,449.5 C 831.16,449.159 834.493,449.825 837.5,451.5C 833.96,451.247 830.627,450.581 827.5,449.5 Z"/></g>
<g><path style="opacity:1" fill="#55170d" d="M 837.5,451.5 C 842.288,451.704 846.954,451.704 851.5,451.5C 852.298,451.957 852.631,452.624 852.5,453.5C 847.234,453.811 842.234,453.145 837.5,451.5 Z"/></g>
<g><path style="opacity:1" fill="#671e1a" d="M 852.5,453.5 C 854.777,454.449 856.777,455.782 858.5,457.5C 855.708,457.378 853.708,456.044 852.5,453.5 Z"/></g>
<g><path style="opacity:1" fill="#551910" d="M 689.5,452.5 C 682.247,454.805 674.913,457.139 667.5,459.5C 667.5,458.167 667.5,456.833 667.5,455.5C 672.337,456.289 677.004,455.456 681.5,453C 684.146,452.503 686.813,452.336 689.5,452.5 Z"/></g>
<g><path style="opacity:1" fill="#6d1d29" d="M 859.5,457.5 C 861.553,457.402 863.22,458.069 864.5,459.5C 862.302,459.88 860.635,459.213 859.5,457.5 Z"/></g>
<g><path style="opacity:1" fill="#48100c" d="M 663.5,460.5 C 660.453,461.183 657.453,462.183 654.5,463.5C 654.953,462.542 655.619,461.708 656.5,461C 658.81,460.503 661.143,460.337 663.5,460.5 Z"/></g>
<g><path style="opacity:1" fill="#521711" d="M 864.5,459.5 C 866.527,459.338 868.527,459.505 870.5,460C 879.283,463.65 887.949,467.483 896.5,471.5C 897.425,472.357 898.092,473.357 898.5,474.5C 887.129,469.479 875.795,464.479 864.5,459.5 Z"/></g>
<g><path style="opacity:1" fill="#5e1e0b" d="M 653.5,463.5 C 651.698,464.458 649.698,465.125 647.5,465.5C 647.414,464.504 647.748,463.671 648.5,463C 650.197,462.616 651.863,462.782 653.5,463.5 Z"/></g>
<g><path style="opacity:1" fill="#491310" d="M 646.5,465.5 C 641.854,467.919 636.854,469.586 631.5,470.5C 631.47,469.503 631.97,468.836 633,468.5C 636.924,467.395 640.758,466.062 644.5,464.5C 645.183,464.863 645.85,465.196 646.5,465.5 Z"/></g>
<g><path style="opacity:1" fill="#6c1a2f" d="M 631.5,470.5 C 630.365,472.213 628.698,472.88 626.5,472.5C 627.93,471.463 629.597,470.796 631.5,470.5 Z"/></g>
<g><path style="opacity:1" fill="#581817" d="M 626.5,472.5 C 623.434,474.89 620.1,476.89 616.5,478.5C 618.046,476.242 620.046,474.409 622.5,473C 623.793,472.51 625.127,472.343 626.5,472.5 Z"/></g>
<g><path style="opacity:1" fill="#5f1c10" d="M 898.5,474.5 C 900.027,474.427 901.027,475.094 901.5,476.5C 899.973,476.573 898.973,475.906 898.5,474.5 Z"/></g>
<g><path style="opacity:1" fill="#571711" d="M 901.5,476.5 C 905.779,476.496 909.113,478.329 911.5,482C 915.039,482.422 917.373,484.255 918.5,487.5C 912.538,484.189 906.872,480.522 901.5,476.5 Z"/></g>
<g><path style="opacity:1" fill="#5e1429" d="M 616.5,478.5 C 614.879,480.942 612.546,482.275 609.5,482.5C 610.895,479.688 613.229,478.354 616.5,478.5 Z"/></g>
<g><path style="opacity:1" fill="#411410" d="M 609.5,482.5 C 608.101,483.89 606.434,484.89 604.5,485.5C 605.344,483.241 607.011,482.241 609.5,482.5 Z"/></g>
<g><path style="opacity:1" fill="#6e1b2e" d="M 604.5,485.5 C 603.365,487.213 601.698,487.88 599.5,487.5C 600.93,486.463 602.597,485.796 604.5,485.5 Z"/></g>
<g><path style="opacity:1" fill="#561912" d="M 918.5,487.5 C 921.285,486.916 922.952,487.916 923.5,490.5C 921.566,489.89 919.899,488.89 918.5,487.5 Z"/></g>
<g><path style="opacity:1" fill="#601a19" d="M 595.5,489.5 C 594.876,491.754 593.543,493.421 591.5,494.5C 591.67,491.796 593.003,490.129 595.5,489.5 Z"/></g>
<g><path style="opacity:1" fill="#46120b" d="M 923.5,490.5 C 925.179,490.892 926.846,491.392 928.5,492C 931.281,494.231 934.281,496.231 937.5,498C 939.439,498.908 940.439,500.408 940.5,502.5C 934.269,499.225 928.603,495.225 923.5,490.5 Z"/></g>
<g><path style="opacity:1" fill="#6b143c" d="M 588.5,495.5 C 587.313,497.975 585.313,498.975 582.5,498.5C 584.456,497.508 586.456,496.508 588.5,495.5 Z"/></g>
<g><path style="opacity:1" fill="#5f2005" d="M 582.5,498.5 C 581.71,499.401 580.71,500.068 579.5,500.5C 579.821,498.952 580.821,498.285 582.5,498.5 Z"/></g>
<g><path style="opacity:1" fill="#5a1718" d="M 579.5,500.5 C 578.329,501.345 576.995,502.011 575.5,502.5C 576.183,500.824 577.517,500.157 579.5,500.5 Z"/></g>
<g><path style="opacity:1" fill="#511510" d="M 575.5,502.5 C 574.101,503.89 572.434,504.89 570.5,505.5C 571.401,503.273 573.067,502.273 575.5,502.5 Z"/></g>
<g><path style="opacity:1" fill="#3c0f07" d="M 940.5,502.5 C 944.237,502.241 946.57,503.907 947.5,507.5C 944.883,506.214 942.55,504.547 940.5,502.5 Z"/></g>
<g><path style="opacity:1" fill="#591713" d="M 949.5,509.5 C 950.93,509.421 952.264,509.754 953.5,510.5C 957.074,514.009 960.408,517.676 963.5,521.5C 958.533,517.868 953.867,513.868 949.5,509.5 Z"/></g>
<g><path style="opacity:1" fill="#57151b" d="M 568.5,506.5 C 565.668,509.501 563.002,512.667 560.5,516C 559.906,516.464 559.239,516.631 558.5,516.5C 560.2,514.79 561.533,512.79 562.5,510.5C 563.993,508.33 565.993,506.996 568.5,506.5 Z"/></g>
<g><path style="opacity:1" fill="#6d1933" d="M 558.5,516.5 C 557.089,518.914 555.089,520.581 552.5,521.5C 553.911,519.086 555.911,517.419 558.5,516.5 Z"/></g>
<g><path style="opacity:1" fill="#6f1d2a" d="M 552.5,521.5 C 552.5,523.5 551.5,524.5 549.5,524.5C 550.167,523.167 551.167,522.167 552.5,521.5 Z"/></g>
<g><path style="opacity:1" fill="#561b10" d="M 963.5,521.5 C 967.615,521.62 970.281,523.62 971.5,527.5C 968.467,525.984 965.8,523.984 963.5,521.5 Z"/></g>
<g><path style="opacity:1" fill="#5e161e" d="M 548.5,524.5 C 548.912,526.973 547.912,528.306 545.5,528.5C 546.512,527.128 547.512,525.795 548.5,524.5 Z"/></g>
<g><path style="opacity:1" fill="#661b20" d="M 977.5,532.5 C 978.833,533.167 979.833,534.167 980.5,535.5C 978.5,535.5 977.5,534.5 977.5,532.5 Z"/></g>
<g><path style="opacity:1" fill="#551710" d="M 543.5,530.5 C 540.729,534.39 537.729,538.057 534.5,541.5C 535.673,538.933 536.839,536.267 538,533.5C 539.264,531.393 541.097,530.393 543.5,530.5 Z"/></g>
<g><path style="opacity:1" fill="#4f140b" d="M 980.5,535.5 C 984.833,536.5 987.5,539.167 988.5,543.5C 985.5,541.167 982.833,538.5 980.5,535.5 Z"/></g>
<g><path style="opacity:1" fill="#57190a" d="M 988.5,543.5 C 991.833,543.5 993.5,545.167 993.5,548.5C 991.64,547.061 989.973,545.395 988.5,543.5 Z"/></g>
<g><path style="opacity:1" fill="#651b20" d="M 534.5,541.5 C 531.017,546.257 527.017,550.59 522.5,554.5C 525.5,549.313 529.5,544.98 534.5,541.5 Z"/></g>
<g><path style="opacity:1" fill="#631c17" d="M 995.5,550.5 C 997.532,551.048 998.532,552.381 998.5,554.5C 996.738,553.738 995.738,552.404 995.5,550.5 Z"/></g>
<g><path style="opacity:1" fill="#5b171e" d="M 522.5,555.5 C 520.833,557.167 519.167,558.833 517.5,560.5C 517.537,557.298 519.203,555.632 522.5,555.5 Z"/></g>
<g><path style="opacity:1" fill="#531512" d="M 517.5,560.5 C 517.573,562.027 516.906,563.027 515.5,563.5C 515.285,561.821 515.952,560.821 517.5,560.5 Z"/></g>
<g><path style="opacity:1" fill="#50160d" d="M 1002.5,559.5 C 1006.69,561.737 1011.03,563.403 1015.5,564.5C 1012.99,564.054 1010.99,564.72 1009.5,566.5C 1006.83,564.5 1004.5,562.167 1002.5,559.5 Z"/></g>
<g><path style="opacity:1" fill="#6b192e" d="M 515.5,563.5 C 515.291,564.922 514.791,566.255 514,567.5C 511.908,569.475 510.075,571.475 508.5,573.5C 510.062,569.608 512.395,566.275 515.5,563.5 Z"/></g>
<g><path style="opacity:1" fill="#511614" d="M 508.5,573.5 C 506.413,577.344 504.08,581.011 501.5,584.5C 501.83,579.513 504.163,575.847 508.5,573.5 Z"/></g>
<g><path style="opacity:1" fill="#621e12" d="M 1015.5,564.5 C 1015.5,565.5 1015.5,566.5 1015.5,567.5C 1018.5,567.167 1019.83,568.5 1019.5,571.5C 1024.59,573.014 1028.09,576.348 1030,581.5C 1034.91,586.655 1040.24,591.322 1046,595.5C 1048.13,598.102 1049.96,600.768 1051.5,603.5C 1037.84,590.824 1023.84,578.49 1009.5,566.5C 1010.99,564.72 1012.99,564.054 1015.5,564.5 Z"/></g>
<g><path style="opacity:1" fill="#5e1d0f" d="M 501.5,584.5 C 499.066,588.382 496.399,592.048 493.5,595.5C 493.5,593.833 493.5,592.167 493.5,590.5C 494.5,590.5 495.5,590.5 496.5,590.5C 496.019,586.651 497.686,584.651 501.5,584.5 Z"/></g>
<g><path style="opacity:1" fill="#621e11" d="M 492.5,597.5 C 492.262,599.404 491.262,600.738 489.5,601.5C 489.468,599.381 490.468,598.048 492.5,597.5 Z"/></g>
<g><path style="opacity:1" fill="#521509" d="M 489.5,601.5 C 489.008,603.819 488.008,605.819 486.5,607.5C 486.34,605.801 486.506,604.134 487,602.5C 487.671,601.748 488.504,601.414 489.5,601.5 Z"/></g>
<g><path style="opacity:1" fill="#5c1916" d="M 486.5,607.5 C 484.656,611.192 482.323,614.525 479.5,617.5C 480.421,613.289 482.754,609.956 486.5,607.5 Z"/></g>
<g><path style="opacity:1" fill="#541613" d="M 479.5,617.5 C 479.072,621.244 477.405,624.244 474.5,626.5C 474.351,625.448 474.517,624.448 475,623.5C 476.491,621.336 477.991,619.336 479.5,617.5 Z"/></g>
<g><path style="opacity:1" fill="#53170f" d="M 474.5,627.5 C 472.682,630.974 470.682,634.307 468.5,637.5C 467.601,632.404 469.601,629.071 474.5,627.5 Z"/></g>
<g><path style="opacity:1" fill="#591911" d="M 1051.5,603.5 C 1058.19,607.766 1063.36,613.433 1067,620.5C 1073.34,626.843 1079.34,633.509 1085,640.5C 1086.56,642.217 1087.39,644.217 1087.5,646.5C 1077.86,634.236 1067.53,622.569 1056.5,611.5C 1054.3,609.092 1052.64,606.425 1051.5,603.5 Z"/></g>
<g><path style="opacity:1" fill="#6b2314" d="M 468.5,637.5 C 468.771,639.38 468.104,640.713 466.5,641.5C 466.66,639.847 467.326,638.514 468.5,637.5 Z"/></g>
<g><path style="opacity:1" fill="#641b1b" d="M 466.5,642.5 C 466.25,644.674 465.25,646.341 463.5,647.5C 463.75,645.326 464.75,643.659 466.5,642.5 Z"/></g>
<g><path style="opacity:1" fill="#591813" d="M 463.5,647.5 C 463.25,649.674 462.25,651.341 460.5,652.5C 460.273,650.067 461.273,648.401 463.5,647.5 Z"/></g>
<g><path style="opacity:1" fill="#4f140d" d="M 1087.5,646.5 C 1092.99,649.323 1096.66,653.656 1098.5,659.5C 1094.49,655.485 1090.82,651.152 1087.5,646.5 Z"/></g>
<g><path style="opacity:1" fill="#53160f" d="M 460.5,652.5 C 457.781,657 455.448,661.667 453.5,666.5C 453.758,660.649 456.092,655.983 460.5,652.5 Z"/></g>
<g><path style="opacity:1" fill="#541512" d="M 1098.5,659.5 C 1101.62,661.477 1104.45,663.811 1107,666.5C 1108.56,668.217 1109.39,670.217 1109.5,672.5C 1105.46,668.466 1101.8,664.132 1098.5,659.5 Z"/></g>
<g><path style="opacity:1" fill="#55151e" d="M 453.5,666.5 C 452.921,669.331 451.588,671.664 449.5,673.5C 449.687,671.436 450.187,669.436 451,667.5C 451.671,666.748 452.504,666.414 453.5,666.5 Z"/></g>
<g><path style="opacity:1" fill="#5a1b0d" d="M 1109.5,672.5 C 1111.83,672.833 1113.17,674.167 1113.5,676.5C 1111.83,675.5 1110.5,674.167 1109.5,672.5 Z"/></g>
<g><path style="opacity:1" fill="#5f1b14" d="M 449.5,673.5 C 449.293,676.241 448.293,678.574 446.5,680.5C 446.552,677.654 447.552,675.32 449.5,673.5 Z"/></g>
<g><path style="opacity:1" fill="#541511" d="M 1113.5,676.5 C 1119.23,680.574 1123.56,685.907 1126.5,692.5C 1121.42,687.752 1117.08,682.419 1113.5,676.5 Z"/></g>
<g><path style="opacity:1" fill="#5a1a0d" d="M 444.5,682.5 C 443.616,687.054 442.283,691.387 440.5,695.5C 440.588,690.67 441.922,686.337 444.5,682.5 Z"/></g>
<g><path style="opacity:1" fill="#671c1e" d="M 1128.5,694.5 C 1130.82,695.802 1132.16,697.802 1132.5,700.5C 1130.67,698.853 1129.34,696.853 1128.5,694.5 Z"/></g>
<g><path style="opacity:1" fill="#691d21" d="M 440.5,695.5 C 440.076,698.918 438.742,701.918 436.5,704.5C 436.343,703.127 436.51,701.793 437,700.5C 438.626,699.045 439.792,697.378 440.5,695.5 Z"/></g>
<g><path style="opacity:1" fill="#4a130d" d="M 1136.5,704.5 C 1138.05,704.821 1138.71,705.821 1138.5,707.5C 1137.09,707.027 1136.43,706.027 1136.5,704.5 Z"/></g>
<g><path style="opacity:1" fill="#52160c" d="M 436.5,705.5 C 435.677,707.987 434.677,710.321 433.5,712.5C 433.5,710.167 433.5,707.833 433.5,705.5C 434.5,705.5 435.5,705.5 436.5,705.5 Z"/></g>
<g><path style="opacity:1" fill="#4f160f" d="M 1138.5,707.5 C 1140.9,709.296 1142.57,711.63 1143.5,714.5C 1140.61,713.047 1138.94,710.714 1138.5,707.5 Z"/></g>
<g><path style="opacity:1" fill="#5c1815" d="M 1143.5,714.5 C 1146.81,716.146 1149.48,718.48 1151.5,721.5C 1148.22,719.883 1145.55,717.55 1143.5,714.5 Z"/></g>
<g><path style="opacity:1" fill="#591813" d="M 433.5,712.5 C 432.446,718.601 430.946,724.601 429,730.5C 428.42,737.014 427.587,743.347 426.5,749.5C 426.726,743.25 426.726,737.084 426.5,731C 428.526,724.644 430.86,718.477 433.5,712.5 Z"/></g>
<g><path style="opacity:1" fill="#5b1716" d="M 1151.5,721.5 C 1153.91,723.224 1156.58,724.558 1159.5,725.5C 1159.35,726.552 1159.52,727.552 1160,728.5C 1162.45,730.441 1164.29,732.775 1165.5,735.5C 1160.5,731.167 1155.83,726.5 1151.5,721.5 Z"/></g>
<g><path style="opacity:1" fill="#52160f" d="M 1165.5,735.5 C 1168.85,736.184 1170.85,738.184 1171.5,741.5C 1169.17,739.833 1167.17,737.833 1165.5,735.5 Z"/></g>
<g><path style="opacity:1" fill="#401305" d="M 1171.5,741.5 C 1174.7,741.537 1176.37,743.203 1176.5,746.5C 1174.5,745.167 1172.83,743.5 1171.5,741.5 Z"/></g>
<g><path style="opacity:1" fill="#50140f" d="M 1178.5,748.5 C 1181.59,749.92 1183.59,752.253 1184.5,755.5C 1181.76,753.761 1179.76,751.427 1178.5,748.5 Z"/></g>
<g><path style="opacity:1" fill="#531806" d="M 1184.5,755.5 C 1189.58,756.912 1192.58,760.245 1193.5,765.5C 1190.53,762.192 1187.53,758.859 1184.5,755.5 Z"/></g>
<g><path style="opacity:1" fill="#50170f" d="M 1193.5,765.5 C 1195.5,765.5 1196.5,766.5 1196.5,768.5C 1195.17,767.833 1194.17,766.833 1193.5,765.5 Z"/></g>
<g><path style="opacity:1" fill="#691d20" d="M 1196.5,768.5 C 1197.91,768.973 1198.57,769.973 1198.5,771.5C 1197.09,771.027 1196.43,770.027 1196.5,768.5 Z"/></g>
<g><path style="opacity:1" fill="#56170f" d="M 426.5,749.5 C 426.5,767.167 426.5,784.833 426.5,802.5C 425.756,797.752 424.756,792.919 423.5,788C 426.017,784.037 426.017,780.037 423.5,776C 424.833,770.667 424.833,765.333 423.5,760C 424.941,756.552 425.941,753.052 426.5,749.5 Z"/></g>
<g><path style="opacity:1" fill="#561711" d="M 1198.5,771.5 C 1199.5,771.5 1200.5,771.5 1201.5,771.5C 1206.29,777.049 1210.63,783.049 1214.5,789.5C 1208.82,783.823 1203.49,777.823 1198.5,771.5 Z"/></g>
<g><path style="opacity:1" fill="#60191a" d="M 1216.5,791.5 C 1218.26,792.262 1219.26,793.596 1219.5,795.5C 1217.74,794.738 1216.74,793.404 1216.5,791.5 Z"/></g>
<g><path style="opacity:1" fill="#511411" d="M 1219.5,795.5 C 1221.33,796.794 1223.33,797.794 1225.5,798.5C 1225.35,799.552 1225.52,800.552 1226,801.5C 1229,803.833 1231.67,806.5 1234,809.5C 1234.48,810.448 1234.65,811.448 1234.5,812.5C 1229.16,807.156 1224.16,801.489 1219.5,795.5 Z"/></g>
<g><path style="opacity:1" fill="#66220d" d="M 426.5,803.5 C 427.461,805.265 427.795,807.265 427.5,809.5C 426.503,809.53 425.836,809.03 425.5,808C 426.148,806.56 426.481,805.06 426.5,803.5 Z"/></g>
<g><path style="opacity:1" fill="#521611" d="M 1234.5,812.5 C 1235.9,812.971 1237.23,813.638 1238.5,814.5C 1239.19,817.123 1240.69,819.123 1243,820.5C 1243.48,821.448 1243.65,822.448 1243.5,823.5C 1239.78,820.393 1236.78,816.727 1234.5,812.5 Z"/></g>
<g><path style="opacity:1" fill="#5c1c0d" d="M 427.5,809.5 C 428.29,810.609 428.79,811.942 429,813.5C 429.5,820.158 429.666,826.825 429.5,833.5C 428.015,831.838 426.682,830.005 425.5,828C 427.424,826.072 428.424,823.738 428.5,821C 427.795,817.196 427.462,813.363 427.5,809.5 Z"/></g>
<g><path style="opacity:1" fill="#53150e" d="M 1243.5,823.5 C 1247.31,825.311 1249.64,828.311 1250.5,832.5C 1247.82,829.81 1245.48,826.81 1243.5,823.5 Z"/></g>
<g><path style="opacity:1" fill="#651c1d" d="M 1250.5,832.5 C 1252.26,833.262 1253.26,834.596 1253.5,836.5C 1251.74,835.738 1250.74,834.404 1250.5,832.5 Z"/></g>
<g><path style="opacity:1" fill="#60191a" d="M 1253.5,836.5 C 1255.19,836.856 1256.19,837.856 1256.5,839.5C 1254.5,839.5 1253.5,838.5 1253.5,836.5 Z"/></g>
<g><path style="opacity:1" fill="#5a1912" d="M 1256.5,839.5 C 1257.71,840.234 1259.04,840.567 1260.5,840.5C 1261.3,844.864 1262.97,848.864 1265.5,852.5C 1261.34,848.999 1258.34,844.665 1256.5,839.5 Z"/></g>
<g><path style="opacity:1" fill="#55170e" d="M 429.5,833.5 C 431.257,842.306 432.757,851.306 434,860.5C 435.209,865.954 436.709,871.287 438.5,876.5C 437.5,876.5 436.5,876.5 435.5,876.5C 435.5,875.167 435.5,873.833 435.5,872.5C 434.5,872.5 433.5,872.5 432.5,872.5C 432.36,870.876 433.027,869.71 434.5,869C 431.835,866.19 431.168,863.023 432.5,859.5C 431.717,853.866 430.383,848.366 428.5,843C 429.367,839.895 429.701,836.728 429.5,833.5 Z"/></g>
<g><path style="opacity:1" fill="#611a19" d="M 1265.5,852.5 C 1266.91,852.973 1267.57,853.973 1267.5,855.5C 1266.09,855.027 1265.43,854.027 1265.5,852.5 Z"/></g>
<g><path style="opacity:1" fill="#581917" d="M 1269.5,857.5 C 1271.45,858.035 1272.45,859.368 1272.5,861.5C 1271.03,860.564 1270.03,859.23 1269.5,857.5 Z"/></g>
<g><path style="opacity:1" fill="#4c1313" d="M 1272.5,861.5 C 1275.46,863.403 1277.46,866.07 1278.5,869.5C 1276.02,867.2 1274.02,864.533 1272.5,861.5 Z"/></g>
<g><path style="opacity:1" fill="#441410" d="M 1278.5,869.5 C 1281.03,870.634 1282.37,872.634 1282.5,875.5C 1280.67,873.853 1279.34,871.853 1278.5,869.5 Z"/></g>
<g><path style="opacity:1" fill="#521606" d="M 1282.5,875.5 C 1284.52,876.538 1284.85,877.872 1283.5,879.5C 1283.17,878.167 1282.83,876.833 1282.5,875.5 Z"/></g>
<g><path style="opacity:1" fill="#4c130d" d="M 1283.5,879.5 C 1283.08,880.222 1282.42,880.722 1281.5,881C 1278.85,881.497 1276.19,881.664 1273.5,881.5C 1276.66,880.566 1279.99,879.899 1283.5,879.5 Z"/></g>
<g><path style="opacity:1" fill="#591814" d="M 1260.5,884.5 C 1258.61,886.241 1256.27,887.241 1253.5,887.5C 1255.04,884.908 1257.37,883.908 1260.5,884.5 Z"/></g>
<g><path style="opacity:1" fill="#757574" d="M 1290.5,886.5 C 1290.49,888.017 1289.82,889.184 1288.5,890C 1285.63,890.131 1283.3,891.297 1281.5,893.5C 1281.73,895.671 1282.06,897.838 1282.5,900C 1285.16,900.175 1287.82,900.008 1290.5,899.5C 1291.83,901.924 1293.33,904.257 1295,906.5C 1298.71,909.722 1302.55,912.722 1306.5,915.5C 1306.17,916.167 1305.83,916.833 1305.5,917.5C 1307.47,920.64 1309.64,923.64 1312,926.5C 1319.73,933.066 1326.9,940.066 1333.5,947.5C 1347.03,962.17 1360.37,977.17 1373.5,992.5C 1378.8,1000.1 1384.8,1007.1 1391.5,1013.5C 1391.71,1014.92 1392.21,1016.26 1393,1017.5C 1396.37,1021.37 1399.87,1025.03 1403.5,1028.5C 1410.1,1036.11 1416.77,1043.78 1423.5,1051.5C 1423.24,1052.98 1423.57,1054.31 1424.5,1055.5C 1426.79,1056.47 1428.79,1057.8 1430.5,1059.5C 1432.01,1061.35 1433.35,1063.35 1434.5,1065.5C 1442.49,1072.44 1449.32,1080.44 1455,1089.5C 1458.33,1092 1461.5,1094.67 1464.5,1097.5C 1467.19,1101.51 1470.19,1105.18 1473.5,1108.5C 1486.56,1122.22 1499.23,1136.22 1511.5,1150.5C 1512.76,1154.02 1514.76,1157.02 1517.5,1159.5C 1530.48,1174.57 1543.65,1189.24 1557,1203.5C 1563.72,1210.56 1570.72,1217.23 1578,1223.5C 1583.47,1229.63 1588.14,1236.3 1592,1243.5C 1609.51,1262.84 1625.85,1283.17 1641,1304.5C 1643.18,1307.85 1646.01,1310.52 1649.5,1312.5C 1659.52,1326.87 1667.18,1342.54 1672.5,1359.5C 1684.34,1383.34 1691.01,1408.68 1692.5,1435.5C 1692.47,1445.36 1693.14,1455.03 1694.5,1464.5C 1697.03,1478.25 1698.36,1492.25 1698.5,1506.5C 1697.45,1520.81 1696.45,1535.14 1695.5,1549.5C 1693.87,1553.91 1692.87,1558.58 1692.5,1563.5C 1689.8,1580.89 1684.3,1597.23 1676,1612.5C 1674.92,1615.06 1674.42,1617.73 1674.5,1620.5C 1673.5,1620.5 1672.5,1620.5 1671.5,1620.5C 1663.22,1639.63 1653.39,1657.96 1642,1675.5C 1640.99,1677.02 1640.49,1678.69 1640.5,1680.5C 1639.32,1680.28 1638.32,1680.61 1637.5,1681.5C 1635.18,1685.15 1632.52,1688.48 1629.5,1691.5C 1628.46,1693.13 1628.46,1694.8 1629.5,1696.5C 1624.39,1702.26 1619.72,1708.26 1615.5,1714.5C 1607.63,1719.03 1600.63,1724.69 1594.5,1731.5C 1591.43,1732.69 1588.77,1734.36 1586.5,1736.5C 1581.48,1740.53 1576.48,1744.53 1571.5,1748.5C 1569.97,1748.43 1568.97,1749.09 1568.5,1750.5C 1562.94,1753.1 1557.94,1756.44 1553.5,1760.5C 1548.39,1764.12 1543.05,1767.46 1537.5,1770.5C 1533.12,1773.23 1528.79,1775.9 1524.5,1778.5C 1520.87,1779.7 1517.54,1781.37 1514.5,1783.5C 1501.65,1788.93 1488.98,1794.93 1476.5,1801.5C 1476.17,1801.5 1475.83,1801.5 1475.5,1801.5C 1470.58,1802.64 1465.91,1804.3 1461.5,1806.5C 1455.56,1808.7 1449.56,1810.7 1443.5,1812.5C 1438,1812.62 1433,1813.96 1428.5,1816.5C 1413.97,1818.2 1399.63,1820.2 1385.5,1822.5C 1383.41,1821.13 1381.08,1820.47 1378.5,1820.5C 1374.7,1820.45 1371.2,1820.11 1368,1819.5C 1366,1820.17 1364,1820.83 1362,1821.5C 1357.23,1819.89 1352.4,1819.56 1347.5,1820.5C 1346.18,1818.73 1344.68,1818.4 1343,1819.5C 1340.93,1818.61 1338.76,1817.94 1336.5,1817.5C 1330.33,1818.45 1323.99,1818.45 1317.5,1817.5C 1310.26,1815.92 1302.92,1814.75 1295.5,1814C 1288.83,1811.1 1281.83,1809.77 1274.5,1810C 1263.24,1806.31 1251.58,1802.81 1239.5,1799.5C 1235.06,1795.25 1229.73,1793.09 1223.5,1793C 1220.41,1791.13 1217.08,1789.79 1213.5,1789C 1210.12,1787.31 1207.12,1785.15 1204.5,1782.5C 1204.59,1781.5 1204.25,1780.67 1203.5,1780C 1200.59,1779.72 1197.92,1778.89 1195.5,1777.5C 1190.74,1775.26 1186.07,1772.76 1181.5,1770C 1168.62,1760.72 1156.28,1750.72 1144.5,1740C 1130.32,1725.79 1116.49,1711.29 1103,1696.5C 1096,1687.83 1089,1679.17 1082,1670.5C 1080.99,1669.66 1079.82,1669.33 1078.5,1669.5C 1070.79,1654.78 1061.46,1641.11 1050.5,1628.5C 1050.47,1625.15 1049.14,1622.48 1046.5,1620.5C 1043.87,1617.14 1041.71,1613.47 1040,1609.5C 1035.56,1605.38 1031.06,1601.38 1026.5,1597.5C 1025.5,1597.59 1024.67,1597.25 1024,1596.5C 1023.53,1594.75 1022.86,1593.09 1022,1591.5C 1013.38,1584.62 1006.38,1576.29 1001,1566.5C 997.892,1562.72 994.225,1559.72 990,1557.5C 983.944,1549.34 977.444,1541.67 970.5,1534.5C 969.243,1531.57 967.243,1529.24 964.5,1527.5C 957.634,1516.45 950.134,1505.79 942,1495.5C 927.869,1479.38 914.535,1462.71 902,1445.5C 900.989,1444.66 899.822,1444.33 898.5,1444.5C 898.613,1441.95 897.946,1439.62 896.5,1437.5C 891.833,1431.83 887.167,1426.17 882.5,1420.5C 880.807,1418.97 878.973,1417.64 877,1416.5C 873.858,1409.68 869.524,1403.68 864,1398.5C 860.156,1390.49 854.656,1383.82 847.5,1378.5C 842.364,1370.53 836.53,1363.2 830,1356.5C 827.005,1351.54 824.005,1346.54 821,1341.5C 815.571,1337.57 811.071,1332.91 807.5,1327.5C 807.896,1324.96 807.229,1322.79 805.5,1321C 801.41,1317.74 797.41,1317.91 793.5,1321.5C 792.818,1318.82 791.152,1317.15 788.5,1316.5C 787.306,1312.61 787.472,1308.61 789,1304.5C 792.519,1297.62 795.852,1290.62 799,1283.5C 802.943,1277.26 807.109,1271.26 811.5,1265.5C 813.39,1265.7 814.89,1265.04 816,1263.5C 821.099,1255.61 825.932,1247.61 830.5,1239.5C 842.006,1224.48 853.506,1209.48 865,1194.5C 875.755,1183.91 886.589,1173.57 897.5,1163.5C 900.295,1161.25 902.628,1158.58 904.5,1155.5C 908.174,1152.99 910.841,1149.66 912.5,1145.5C 914.525,1143.44 916.858,1142.1 919.5,1141.5C 920.239,1141.63 920.906,1141.46 921.5,1141C 924.969,1137.19 928.302,1133.35 931.5,1129.5C 934.364,1127.98 936.031,1125.64 936.5,1122.5C 938.783,1122.39 940.783,1121.56 942.5,1120C 952.494,1108.01 963.828,1097.34 976.5,1088C 981.249,1083.92 985.249,1079.26 988.5,1074C 995.715,1068.27 1002.72,1062.44 1009.5,1056.5C 1013.92,1053.66 1017.92,1050.33 1021.5,1046.5C 1030.52,1039.35 1039.86,1032.52 1049.5,1026C 1053.85,1019.82 1059.51,1015.32 1066.5,1012.5C 1073.85,1006.83 1081.52,1001.66 1089.5,997C 1090.25,995.266 1090.75,993.433 1091,991.5C 1093.83,989.333 1096.67,987.167 1099.5,985C 1136.78,960.565 1174.78,937.232 1213.5,915C 1214.83,913.667 1216.17,912.333 1217.5,911C 1232.02,903.909 1246.68,897.076 1261.5,890.5C 1269.52,888.262 1277.69,886.595 1286,885.5C 1287.53,885.773 1289.03,886.106 1290.5,886.5 Z"/></g>
<g><path style="opacity:1" fill="#54160d" d="M 439.5,879.5 C 441.582,885.638 444.249,891.638 447.5,897.5C 441.741,893.016 439.074,887.016 439.5,879.5 Z"/></g>
<g><path style="opacity:1" fill="#5a1a0d" d="M 1253.5,887.5 C 1248.06,889.871 1242.39,891.871 1236.5,893.5C 1237.06,892.21 1238.06,891.377 1239.5,891C 1244.01,889.107 1248.67,887.941 1253.5,887.5 Z"/></g>
<g><path style="opacity:1" fill="#531511" d="M 1234.5,894.5 C 1232.79,895.738 1230.79,896.405 1228.5,896.5C 1230.1,894.926 1232.1,894.259 1234.5,894.5 Z"/></g>
<g><path style="opacity:1" fill="#555555" d="M 1290.5,886.5 C 1291.57,887.251 1291.74,888.251 1291,889.5C 1288.38,891.414 1285.88,893.414 1283.5,895.5C 1284.36,896.425 1285.36,897.092 1286.5,897.5C 1287.83,898.167 1289.17,898.833 1290.5,899.5C 1287.82,900.008 1285.16,900.175 1282.5,900C 1282.06,897.838 1281.73,895.671 1281.5,893.5C 1283.3,891.297 1285.63,890.131 1288.5,890C 1289.82,889.184 1290.49,888.017 1290.5,886.5 Z"/></g>
<g><path style="opacity:1" fill="#44130d" d="M 1228.5,896.5 C 1226.81,898.818 1224.48,899.818 1221.5,899.5C 1223.43,897.707 1225.76,896.707 1228.5,896.5 Z"/></g>
<g><path style="opacity:1" fill="#460f0a" d="M 1221.5,899.5 C 1219.16,901.396 1216.5,902.73 1213.5,903.5C 1215.61,901.229 1218.28,899.896 1221.5,899.5 Z"/></g>
<g><path style="opacity:1" fill="#672111" d="M 1213.5,903.5 C 1211.97,905.346 1209.97,906.346 1207.5,906.5C 1208.69,904.025 1210.69,903.025 1213.5,903.5 Z"/></g>
<g><path style="opacity:1" fill="#350f05" d="M 1207.5,906.5 C 1205.81,908.818 1203.48,909.818 1200.5,909.5C 1202.6,908.088 1204.94,907.088 1207.5,906.5 Z"/></g>
<g><path style="opacity:1" fill="#56190b" d="M 1200.5,909.5 C 1199.13,911.86 1197.13,913.527 1194.5,914.5C 1195.89,912.11 1197.89,910.443 1200.5,909.5 Z"/></g>
<g><path style="opacity:1" fill="#611c15" d="M 1193.5,914.5 C 1191.06,917.78 1187.73,919.78 1183.5,920.5C 1185.69,917.819 1188.35,915.652 1191.5,914C 1192.44,913.308 1193.1,913.475 1193.5,914.5 Z"/></g>
<g><path style="opacity:1" fill="#511211" d="M 1172.5,927.5 C 1171.71,929.104 1170.38,929.771 1168.5,929.5C 1169.29,927.896 1170.62,927.229 1172.5,927.5 Z"/></g>
<g><path style="opacity:1" fill="#58190c" d="M 447.5,897.5 C 449.839,901.523 451.672,905.856 453,910.5C 460.482,922.816 467.316,935.483 473.5,948.5C 469.29,946.104 466.79,942.437 466,937.5C 460.002,926.238 454.002,914.905 448,903.5C 447.505,901.527 447.338,899.527 447.5,897.5 Z"/></g>
<g><path style="opacity:1" fill="#551516" d="M 1161.5,933.5 C 1161.03,934.906 1160.03,935.573 1158.5,935.5C 1158.97,934.094 1159.97,933.427 1161.5,933.5 Z"/></g>
<g><path style="opacity:1" fill="#53140f" d="M 1158.5,935.5 C 1158.03,936.906 1157.03,937.573 1155.5,937.5C 1155.97,936.094 1156.97,935.427 1158.5,935.5 Z"/></g>
<g><path style="opacity:1" fill="#2e2e2e" d="M 1286.5,897.5 C 1288.2,897.34 1289.87,897.506 1291.5,898C 1292.61,900.883 1294.28,903.383 1296.5,905.5C 1299.84,907.327 1302.51,909.827 1304.5,913C 1305.45,913.483 1306.45,913.649 1307.5,913.5C 1307.34,915.199 1307.51,916.866 1308,918.5C 1312.71,924.376 1317.88,929.71 1323.5,934.5C 1325.05,935.452 1326.71,935.785 1328.5,935.5C 1328.5,936.833 1328.5,938.167 1328.5,939.5C 1329.5,939.5 1330.5,939.5 1331.5,939.5C 1331.34,940.873 1331.51,942.207 1332,943.5C 1341.79,953.751 1351.13,964.418 1360,975.5C 1361.58,976.861 1363.42,977.528 1365.5,977.5C 1366.07,982.432 1368.41,986.432 1372.5,989.5C 1373.13,990.417 1373.46,991.417 1373.5,992.5C 1360.37,977.17 1347.03,962.17 1333.5,947.5C 1326.9,940.066 1319.73,933.066 1312,926.5C 1309.64,923.64 1307.47,920.64 1305.5,917.5C 1305.83,916.833 1306.17,916.167 1306.5,915.5C 1302.55,912.722 1298.71,909.722 1295,906.5C 1293.33,904.257 1291.83,901.924 1290.5,899.5C 1289.17,898.833 1287.83,898.167 1286.5,897.5 Z"/></g>
<g><path style="opacity:1" fill="#611d11" d="M 473.5,948.5 C 476.815,951.125 479.149,954.458 480.5,958.5C 477.893,956.654 475.726,954.32 474,951.5C 473.517,950.552 473.351,949.552 473.5,948.5 Z"/></g>
<g><path style="opacity:1" fill="#5b1915" d="M 1141.5,946.5 C 1138.66,949.173 1135.66,951.673 1132.5,954C 1129.98,955.341 1127.31,956.174 1124.5,956.5C 1129.66,952.414 1135.33,949.08 1141.5,946.5 Z"/></g>
<g><path style="opacity:1" fill="#57170e" d="M 1124.5,956.5 C 1123.18,960.13 1120.51,961.797 1116.5,961.5C 1119.13,959.847 1121.8,958.181 1124.5,956.5 Z"/></g>
<g><path style="opacity:1" fill="#631d15" d="M 1116.5,961.5 C 1115.49,962.674 1114.15,963.34 1112.5,963.5C 1113.29,961.896 1114.62,961.229 1116.5,961.5 Z"/></g>
<g><path style="opacity:1" fill="#521314" d="M 1112.5,963.5 C 1109.21,965.83 1105.88,968.163 1102.5,970.5C 1104.74,966.587 1108.08,964.253 1112.5,963.5 Z"/></g>
<g><path style="opacity:1" fill="#4f140a" d="M 1102.5,970.5 C 1102.31,972.912 1100.97,973.912 1098.5,973.5C 1099.8,972.512 1101.13,971.512 1102.5,970.5 Z"/></g>
<g><path style="opacity:1" fill="#430f07" d="M 1098.5,973.5 C 1098.51,976.142 1097.18,977.475 1094.5,977.5C 1095.5,975.833 1096.83,974.5 1098.5,973.5 Z"/></g>
<g><path style="opacity:1" fill="#52150c" d="M 1094.5,977.5 C 1093.74,979.262 1092.4,980.262 1090.5,980.5C 1091.26,978.738 1092.6,977.738 1094.5,977.5 Z"/></g>
<g><path style="opacity:1" fill="#561810" d="M 1090.5,980.5 C 1089.74,982.262 1088.4,983.262 1086.5,983.5C 1087.26,981.738 1088.6,980.738 1090.5,980.5 Z"/></g>
<g><path style="opacity:1" fill="#581515" d="M 1086.5,983.5 C 1085.74,985.262 1084.4,986.262 1082.5,986.5C 1083.26,984.738 1084.6,983.738 1086.5,983.5 Z"/></g>
<g><path style="opacity:1" fill="#59190e" d="M 480.5,958.5 C 487.138,967.087 493.305,976.087 499,985.5C 514.826,1002.48 529.659,1020.15 543.5,1038.5C 542.883,1038.61 542.383,1038.94 542,1039.5C 540.38,1037.76 538.88,1035.93 537.5,1034C 536.207,1033.51 534.873,1033.34 533.5,1033.5C 533.556,1029.55 531.89,1026.55 528.5,1024.5C 527.719,1023.27 527.219,1021.94 527,1020.5C 521.658,1014.98 516.825,1008.98 512.5,1002.5C 502.721,993.881 494.554,983.881 488,972.5C 486.303,971.636 485.137,970.303 484.5,968.5C 483.675,967.614 482.675,967.281 481.5,967.5C 481.33,966.178 481.663,965.011 482.5,964C 481.139,962.416 480.472,960.582 480.5,958.5 Z"/></g>
<g><path style="opacity:1" fill="#5c1913" d="M 1082.5,986.5 C 1081.97,988.446 1080.63,989.446 1078.5,989.5C 1079.44,988.026 1080.77,987.026 1082.5,986.5 Z"/></g>
<g><path style="opacity:1" fill="#4a130b" d="M 1078.5,989.5 C 1077.74,991.929 1076.07,993.262 1073.5,993.5C 1074.58,991.457 1076.25,990.124 1078.5,989.5 Z"/></g>
<g><path style="opacity:1" fill="#4c1209" d="M 1073.5,993.5 C 1072.71,996.621 1070.71,998.288 1067.5,998.5C 1069.48,996.863 1071.48,995.196 1073.5,993.5 Z"/></g>
<g><path style="opacity:1" fill="#44160c" d="M 1067.5,998.5 C 1065.81,1001.19 1063.47,1003.19 1060.5,1004.5C 1062.22,1001.78 1064.55,999.781 1067.5,998.5 Z"/></g>
<g><path style="opacity:1" fill="#521312" d="M 1056.5,1007.5 C 1056.03,1008.91 1055.03,1009.57 1053.5,1009.5C 1053.97,1008.09 1054.97,1007.43 1056.5,1007.5 Z"/></g>
<g><path style="opacity:1" fill="#3c1208" d="M 1053.5,1009.5 C 1053.5,1010.5 1053.5,1011.5 1053.5,1012.5C 1051.78,1012.63 1050.12,1012.96 1048.5,1013.5C 1049.94,1011.94 1051.61,1010.6 1053.5,1009.5 Z"/></g>
<g><path style="opacity:1" fill="#222222" d="M 1391.5,1013.5 C 1393.08,1014.07 1394.41,1015.07 1395.5,1016.5C 1398.61,1020.26 1401.28,1024.26 1403.5,1028.5C 1399.87,1025.03 1396.37,1021.37 1393,1017.5C 1392.21,1016.26 1391.71,1014.92 1391.5,1013.5 Z"/></g>
<g><path style="opacity:1" fill="#521612" d="M 1037.5,1022.5 C 1036.74,1024.26 1035.4,1025.26 1033.5,1025.5C 1034.26,1023.74 1035.6,1022.74 1037.5,1022.5 Z"/></g>
<g><path style="opacity:1" fill="#4f1318" d="M 1026.5,1030.5 C 1025.67,1032.26 1024.34,1033.6 1022.5,1034.5C 1022.89,1032.29 1024.23,1030.96 1026.5,1030.5 Z"/></g>
<g><path style="opacity:1" fill="#58190d" d="M 543.5,1038.5 C 554.256,1049.91 564.589,1061.58 574.5,1073.5C 571.329,1071.32 567.996,1069.32 564.5,1067.5C 558.307,1058.46 551.474,1049.79 544,1041.5C 543.517,1040.55 543.351,1039.55 543.5,1038.5 Z"/></g>
<g><path style="opacity:1" fill="#5d1916" d="M 1012.5,1042.5 C 1012.48,1045.18 1011.14,1046.51 1008.5,1046.5C 1009.5,1044.83 1010.83,1043.5 1012.5,1042.5 Z"/></g>
<g><path style="opacity:1" fill="#949493" d="M 1282.5,1049.5 C 1287.61,1049.06 1290.11,1051.39 1290,1056.5C 1288.92,1055.33 1288.08,1054 1287.5,1052.5C 1285.93,1051.37 1284.26,1051.2 1282.5,1052C 1281.58,1054.13 1281.42,1056.3 1282,1058.5C 1279.97,1055.38 1280.13,1052.38 1282.5,1049.5 Z"/></g>
<g><path style="opacity:1" fill="#414140" d="M 1021.5,1046.5 C 1017.92,1050.33 1013.92,1053.66 1009.5,1056.5C 1012.06,1053.59 1014.73,1050.59 1017.5,1047.5C 1018.74,1046.75 1020.07,1046.42 1021.5,1046.5 Z"/></g>
<g><path style="opacity:1" fill="#611c13" d="M 999.5,1053.5 C 998.738,1055.26 997.404,1056.26 995.5,1056.5C 996.262,1054.74 997.596,1053.74 999.5,1053.5 Z"/></g>
<g><path style="opacity:1" fill="#3c3c3c" d="M 1423.5,1051.5 C 1426.51,1053.52 1428.84,1056.19 1430.5,1059.5C 1428.79,1057.8 1426.79,1056.47 1424.5,1055.5C 1423.57,1054.31 1423.24,1052.98 1423.5,1051.5 Z"/></g>
<g><path style="opacity:1" fill="#481013" d="M 995.5,1056.5 C 993.761,1059.24 991.427,1061.24 988.5,1062.5C 990.239,1059.76 992.573,1057.76 995.5,1056.5 Z"/></g>
<g><path style="opacity:1" fill="#591715" d="M 988.5,1062.5 C 988.5,1063.83 988.5,1065.17 988.5,1066.5C 984.643,1067.69 981.643,1070.02 979.5,1073.5C 979.351,1072.45 979.517,1071.45 980,1070.5C 983.256,1067.4 986.089,1064.74 988.5,1062.5 Z"/></g>
<g><path style="opacity:1" fill="#571613" d="M 574.5,1073.5 C 576.167,1074.5 577.5,1075.83 578.5,1077.5C 576.167,1077.17 574.833,1075.83 574.5,1073.5 Z"/></g>
<g><path style="opacity:1" fill="#501115" d="M 578.5,1077.5 C 579.906,1077.97 580.573,1078.97 580.5,1080.5C 579.094,1080.03 578.427,1079.03 578.5,1077.5 Z"/></g>
<g><path style="opacity:1" fill="#581617" d="M 580.5,1080.5 C 582.822,1081.8 584.155,1083.8 584.5,1086.5C 582.674,1084.85 581.34,1082.85 580.5,1080.5 Z"/></g>
<g><path style="opacity:1" fill="#651d1a" d="M 970.5,1080.5 C 969.407,1083.26 967.407,1084.93 964.5,1085.5C 966.227,1083.43 968.227,1081.77 970.5,1080.5 Z"/></g>
<g><path style="opacity:1" fill="#333333" d="M 1434.5,1065.5 C 1438.35,1065.5 1441.02,1067.34 1442.5,1071C 1443.9,1072.44 1445.57,1073.27 1447.5,1073.5C 1448.17,1080.17 1451.84,1083.84 1458.5,1084.5C 1458.71,1086.14 1458.38,1087.64 1457.5,1089C 1460.45,1091.44 1462.78,1094.27 1464.5,1097.5C 1461.5,1094.67 1458.33,1092 1455,1089.5C 1449.32,1080.44 1442.49,1072.44 1434.5,1065.5 Z"/></g>
<g><path style="opacity:1" fill="#4f1110" d="M 584.5,1086.5 C 585.906,1086.97 586.573,1087.97 586.5,1089.5C 585.094,1089.03 584.427,1088.03 584.5,1086.5 Z"/></g>
<g><path style="opacity:1" fill="#571910" d="M 586.5,1089.5 C 587.906,1089.97 588.573,1090.97 588.5,1092.5C 587.094,1092.03 586.427,1091.03 586.5,1089.5 Z"/></g>
<g><path style="opacity:1" fill="#5e1c10" d="M 588.5,1092.5 C 589.906,1092.97 590.573,1093.97 590.5,1095.5C 588.952,1095.18 588.285,1094.18 588.5,1092.5 Z"/></g>
<g><path style="opacity:1" fill="#55160e" d="M 956.5,1093.5 C 956.461,1094.58 956.127,1095.58 955.5,1096.5C 952.238,1097.96 949.238,1099.62 946.5,1101.5C 949.42,1098.37 952.753,1095.7 956.5,1093.5 Z"/></g>
<g><path style="opacity:1" fill="#371107" d="M 590.5,1095.5 C 592.587,1096.58 593.92,1098.25 594.5,1100.5C 592.065,1099.73 590.731,1098.06 590.5,1095.5 Z"/></g>
<g><path style="opacity:1" fill="#323232" d="M 1464.5,1097.5 C 1468.99,1099.99 1471.99,1103.65 1473.5,1108.5C 1470.19,1105.18 1467.19,1101.51 1464.5,1097.5 Z"/></g>
<g><path style="opacity:1" fill="#54170e" d="M 594.5,1100.5 C 595.906,1100.97 596.573,1101.97 596.5,1103.5C 595.094,1103.03 594.427,1102.03 594.5,1100.5 Z"/></g>
<g><path style="opacity:1" fill="#591812" d="M 596.5,1103.5 C 598.587,1104.58 599.92,1106.25 600.5,1108.5C 598.469,1107.46 597.136,1105.79 596.5,1103.5 Z"/></g>
<g><path style="opacity:1" fill="#4b1406" d="M 946.5,1101.5 C 946.167,1105.17 944.167,1107.17 940.5,1107.5C 942.167,1105.17 944.167,1103.17 946.5,1101.5 Z"/></g>
<g><path style="opacity:1" fill="#65200f" d="M 600.5,1108.5 C 603.323,1109.99 604.99,1112.33 605.5,1115.5C 603.453,1113.45 601.786,1111.12 600.5,1108.5 Z"/></g>
<g><path style="opacity:1" fill="#641d17" d="M 605.5,1115.5 C 607.587,1116.58 608.92,1118.25 609.5,1120.5C 607.413,1119.42 606.08,1117.75 605.5,1115.5 Z"/></g>
<g><path style="opacity:1" fill="#561613" d="M 938.5,1108.5 C 938.297,1110.04 937.63,1111.38 936.5,1112.5C 932.421,1116.59 928.088,1120.25 923.5,1123.5C 928.194,1118.14 933.194,1113.14 938.5,1108.5 Z"/></g>
<g><path style="opacity:1" fill="#611c13" d="M 609.5,1120.5 C 611.587,1121.58 612.92,1123.25 613.5,1125.5C 611.413,1124.42 610.08,1122.75 609.5,1120.5 Z"/></g>
<g><path style="opacity:1" fill="#3a3a3a" d="M 931.5,1129.5 C 928.302,1133.35 924.969,1137.19 921.5,1141C 920.906,1141.46 920.239,1141.63 919.5,1141.5C 922.252,1138.92 924.419,1135.92 926,1132.5C 927.264,1130.39 929.097,1129.39 931.5,1129.5 Z"/></g>
<g><path style="opacity:1" fill="#53160f" d="M 613.5,1125.5 C 615.797,1127.29 617.963,1129.29 620,1131.5C 629.69,1144.68 639.523,1157.68 649.5,1170.5C 647.716,1169.04 645.716,1168.04 643.5,1167.5C 642.677,1164.65 641.344,1161.98 639.5,1159.5C 632.904,1151.31 626.07,1143.31 619,1135.5C 616.943,1132.28 615.109,1128.95 613.5,1125.5 Z"/></g>
<g><path style="opacity:1" fill="#571713" d="M 921.5,1125.5 C 920.223,1127.15 919.223,1128.98 918.5,1131C 914.89,1134.45 910.89,1137.29 906.5,1139.5C 910.961,1134.13 915.961,1129.46 921.5,1125.5 Z"/></g>
<g><path style="opacity:1" fill="#56170f" d="M 906.5,1139.5 C 905.232,1145.27 901.899,1149.44 896.5,1152C 893.961,1154.04 891.961,1156.54 890.5,1159.5C 889.583,1160.13 888.583,1160.46 887.5,1160.5C 893.492,1153.18 899.825,1146.18 906.5,1139.5 Z"/></g>
<g><path style="opacity:1" fill="#2e2e2d" d="M 1511.5,1150.5 C 1515.04,1152.39 1517.04,1155.39 1517.5,1159.5C 1514.76,1157.02 1512.76,1154.02 1511.5,1150.5 Z"/></g>
<g><path style="opacity:1" fill="#454545" d="M 904.5,1155.5 C 902.628,1158.58 900.295,1161.25 897.5,1163.5C 898.412,1161.4 899.579,1159.4 901,1157.5C 901.816,1156.18 902.983,1155.51 904.5,1155.5 Z"/></g>
<g><path style="opacity:1" fill="#541610" d="M 887.5,1160.5 C 880.642,1170.03 872.642,1178.7 863.5,1186.5C 871.138,1177.53 879.138,1168.86 887.5,1160.5 Z"/></g>
<g><path style="opacity:1" fill="#672014" d="M 649.5,1170.5 C 651.262,1171.26 652.262,1172.6 652.5,1174.5C 650.738,1173.74 649.738,1172.4 649.5,1170.5 Z"/></g>
<g><path style="opacity:1" fill="#581a11" d="M 652.5,1174.5 C 654.914,1175.91 656.581,1177.91 657.5,1180.5C 654.428,1179.7 652.762,1177.7 652.5,1174.5 Z"/></g>
<g><path style="opacity:1" fill="#641d18" d="M 657.5,1180.5 C 661.471,1183.78 664.471,1187.78 666.5,1192.5C 663.767,1190.57 661.433,1188.23 659.5,1185.5C 658.544,1183.92 657.877,1182.26 657.5,1180.5 Z"/></g>
<g><path style="opacity:1" fill="#4d1015" d="M 863.5,1186.5 C 861.57,1190.1 858.903,1193.1 855.5,1195.5C 857.43,1191.9 860.097,1188.9 863.5,1186.5 Z"/></g>
<g><path style="opacity:1" fill="#5d1a15" d="M 666.5,1192.5 C 668.262,1193.26 669.262,1194.6 669.5,1196.5C 667.468,1195.95 666.468,1194.62 666.5,1192.5 Z"/></g>
<g><path style="opacity:1" fill="#561613" d="M 671.5,1198.5 C 673.262,1199.26 674.262,1200.6 674.5,1202.5C 672.738,1201.74 671.738,1200.4 671.5,1198.5 Z"/></g>
<g><path style="opacity:1" fill="#4c0e12" d="M 851.5,1200.5 C 851.573,1202.03 850.906,1203.03 849.5,1203.5C 849.427,1201.97 850.094,1200.97 851.5,1200.5 Z"/></g>
<g><path style="opacity:1" fill="#521511" d="M 848.5,1204.5 C 848.262,1206.4 847.262,1207.74 845.5,1208.5C 845.738,1206.6 846.738,1205.26 848.5,1204.5 Z"/></g>
<g><path style="opacity:1" fill="#5c1914" d="M 674.5,1202.5 C 677.516,1205.52 680.183,1208.85 682.5,1212.5C 680.433,1211.74 678.766,1210.4 677.5,1208.5C 675.967,1206.71 674.967,1204.71 674.5,1202.5 Z"/></g>
<g><path style="opacity:1" fill="#571614" d="M 844.5,1209.5 C 842.906,1212.76 840.573,1215.43 837.5,1217.5C 839.094,1214.24 841.427,1211.57 844.5,1209.5 Z"/></g>
<g><path style="opacity:1" fill="#521416" d="M 682.5,1212.5 C 685.243,1214.24 687.243,1216.57 688.5,1219.5C 685.483,1218 683.483,1215.67 682.5,1212.5 Z"/></g>
<g><path style="opacity:1" fill="#4d160a" d="M 837.5,1217.5 C 836.833,1219.5 835.5,1220.83 833.5,1221.5C 834.167,1219.5 835.5,1218.17 837.5,1217.5 Z"/></g>
<g><path style="opacity:1" fill="#56170d" d="M 688.5,1219.5 C 690.167,1220.5 691.5,1221.83 692.5,1223.5C 690.167,1223.17 688.833,1221.83 688.5,1219.5 Z"/></g>
<g><path style="opacity:1" fill="#5b1817" d="M 692.5,1223.5 C 695.243,1225.24 697.243,1227.57 698.5,1230.5C 695.757,1228.76 693.757,1226.43 692.5,1223.5 Z"/></g>
<g><path style="opacity:1" fill="#4a130d" d="M 833.5,1221.5 C 829.209,1227.79 824.542,1233.79 819.5,1239.5C 819.5,1238.83 819.5,1238.17 819.5,1237.5C 823.801,1231.86 828.467,1226.53 833.5,1221.5 Z"/></g>
<g><path style="opacity:1" fill="#601b12" d="M 698.5,1230.5 C 699.906,1230.97 700.573,1231.97 700.5,1233.5C 699.094,1233.03 698.427,1232.03 698.5,1230.5 Z"/></g>
<g><path style="opacity:1" fill="#561a07" d="M 700.5,1233.5 C 701.906,1233.97 702.573,1234.97 702.5,1236.5C 701.094,1236.03 700.427,1235.03 700.5,1233.5 Z"/></g>
<g><path style="opacity:1" fill="#54160f" d="M 702.5,1236.5 C 705.54,1239.54 708.206,1242.87 710.5,1246.5C 706.426,1244.38 703.759,1241.05 702.5,1236.5 Z"/></g>
<g><path style="opacity:1" fill="#5e1b0f" d="M 710.5,1246.5 C 712.262,1247.26 713.262,1248.6 713.5,1250.5C 711.738,1249.74 710.738,1248.4 710.5,1246.5 Z"/></g>
<g><path style="opacity:1" fill="#611d10" d="M 819.5,1237.5 C 819.5,1238.17 819.5,1238.83 819.5,1239.5C 812.216,1249.78 804.55,1259.78 796.5,1269.5C 802.632,1257.71 810.298,1247.04 819.5,1237.5 Z"/></g>
<g><path style="opacity:1" fill="#601a18" d="M 713.5,1250.5 C 716.763,1252.97 719.597,1255.97 722,1259.5C 723.094,1261.08 723.928,1262.74 724.5,1264.5C 719.815,1260.64 716.149,1255.97 713.5,1250.5 Z"/></g>
<g><path style="opacity:1" fill="#424242" d="M 830.5,1239.5 C 825.932,1247.61 821.099,1255.61 816,1263.5C 814.89,1265.04 813.39,1265.7 811.5,1265.5C 812.688,1264.64 813.855,1263.64 815,1262.5C 819.352,1255.3 823.519,1247.97 827.5,1240.5C 828.325,1239.61 829.325,1239.28 830.5,1239.5 Z"/></g>
<g><path style="opacity:1" fill="#4e140e" d="M 724.5,1264.5 C 729.178,1269.18 733.511,1274.18 737.5,1279.5C 734.612,1279.78 733.112,1278.45 733,1275.5C 730.667,1273.5 728.333,1271.5 726,1269.5C 725.392,1267.85 724.892,1266.18 724.5,1264.5 Z"/></g>
<g><path style="opacity:1" fill="#5d1a12" d="M 796.5,1269.5 C 795.66,1271.85 794.326,1273.85 792.5,1275.5C 792.845,1272.8 794.178,1270.8 796.5,1269.5 Z"/></g>
<g><path style="opacity:1" fill="#58190e" d="M 792.5,1275.5 C 790.484,1282.22 786.984,1287.89 782,1292.5C 781.844,1295.19 781.011,1297.52 779.5,1299.5C 779.248,1296.68 779.748,1294.01 781,1291.5C 784.599,1285.96 788.432,1280.62 792.5,1275.5 Z"/></g>
<g><path style="opacity:1" fill="#5f1b16" d="M 737.5,1279.5 C 740.19,1282.85 742.857,1286.19 745.5,1289.5C 743.784,1287.79 741.784,1286.46 739.5,1285.5C 738.628,1283.55 737.961,1281.55 737.5,1279.5 Z"/></g>
<g><path style="opacity:1" fill="#4d160c" d="M 745.5,1289.5 C 753.139,1297.47 760.806,1305.47 768.5,1313.5C 767.325,1313.72 766.325,1313.39 765.5,1312.5C 762.774,1309.06 759.608,1306.06 756,1303.5C 753.739,1299.07 750.572,1295.4 746.5,1292.5C 745.873,1291.58 745.539,1290.58 745.5,1289.5 Z"/></g>
<g><path style="opacity:1" fill="#5a1712" d="M 768.5,1313.5 C 770.167,1314.5 771.5,1315.83 772.5,1317.5C 770.167,1317.17 768.833,1315.83 768.5,1313.5 Z"/></g>
<g><path style="opacity:1" fill="#591815" d="M 779.5,1301.5 C 778.946,1308.15 778.612,1314.82 778.5,1321.5C 775.112,1322.03 773.112,1320.7 772.5,1317.5C 773.482,1318.14 774.482,1318.81 775.5,1319.5C 776.869,1313.37 778.202,1307.37 779.5,1301.5 Z"/></g>
<g><path style="opacity:1" fill="#4c4c4b" d="M 788.5,1316.5 C 791.152,1317.15 792.818,1318.82 793.5,1321.5C 797.41,1317.91 801.41,1317.74 805.5,1321C 807.229,1322.79 807.896,1324.96 807.5,1327.5C 806.566,1326.43 806.232,1325.1 806.5,1323.5C 803.882,1323.22 801.382,1322.55 799,1321.5C 796.619,1322.44 794.119,1322.77 791.5,1322.5C 790.794,1320.33 789.794,1318.33 788.5,1316.5 Z"/></g>
<g><path style="opacity:1" fill="#555555" d="M 1692.5,1435.5 C 1693.86,1444.97 1694.53,1454.64 1694.5,1464.5C 1693.14,1455.03 1692.47,1445.36 1692.5,1435.5 Z"/></g>
<g><path style="opacity:1" fill="#2c2c2c" d="M 964.5,1527.5 C 967.243,1529.24 969.243,1531.57 970.5,1534.5C 967.339,1533.19 965.339,1530.85 964.5,1527.5 Z"/></g>
<g><path style="opacity:1" fill="#2c2c2b" d="M 1695.5,1549.5 C 1695.5,1554.5 1694.5,1559.17 1692.5,1563.5C 1692.87,1558.58 1693.87,1553.91 1695.5,1549.5 Z"/></g>
<g><path style="opacity:1" fill="#383838" d="M 1026.5,1597.5 C 1031.06,1601.38 1035.56,1605.38 1040,1609.5C 1041.71,1613.47 1043.87,1617.14 1046.5,1620.5C 1045.08,1620.29 1043.74,1619.79 1042.5,1619C 1039.79,1615.76 1037.46,1612.26 1035.5,1608.5C 1034.68,1607.61 1033.68,1607.28 1032.5,1607.5C 1032.65,1606.45 1032.48,1605.45 1032,1604.5C 1028.8,1603.15 1026.97,1600.82 1026.5,1597.5 Z"/></g>
<g><path style="opacity:1" fill="#2e2e2e" d="M 1046.5,1620.5 C 1049.14,1622.48 1050.47,1625.15 1050.5,1628.5C 1049.5,1628.59 1048.67,1628.25 1048,1627.5C 1047.02,1625.26 1046.52,1622.93 1046.5,1620.5 Z"/></g>
<g><path style="opacity:1" fill="#2e2e2e" d="M 1629.5,1696.5 C 1631.46,1696.95 1631.8,1697.95 1630.5,1699.5C 1626.81,1703.19 1623.48,1707.19 1620.5,1711.5C 1618.8,1712.55 1617.13,1713.55 1615.5,1714.5C 1619.72,1708.26 1624.39,1702.26 1629.5,1696.5 Z"/></g>
<g><path style="opacity:1" fill="#323232" d="M 1615.5,1714.5 C 1614.96,1716.12 1614.63,1717.78 1614.5,1719.5C 1613.13,1719.34 1611.79,1719.51 1610.5,1720C 1605.17,1725.49 1599.34,1730.33 1593,1734.5C 1591.12,1736.01 1588.95,1736.68 1586.5,1736.5C 1588.77,1734.36 1591.43,1732.69 1594.5,1731.5C 1600.63,1724.69 1607.63,1719.03 1615.5,1714.5 Z"/></g>
<g><path style="opacity:1" fill="#343434" d="M 1586.5,1736.5 C 1586.62,1738.48 1585.95,1740.15 1584.5,1741.5C 1579.95,1743.66 1575.62,1746 1571.5,1748.5C 1576.48,1744.53 1581.48,1740.53 1586.5,1736.5 Z"/></g>
<g><path style="opacity:1" fill="#272727" d="M 1568.5,1750.5 C 1567.41,1753.73 1565.07,1755.57 1561.5,1756C 1559.86,1759.32 1557.19,1760.82 1553.5,1760.5C 1557.94,1756.44 1562.94,1753.1 1568.5,1750.5 Z"/></g>
<g><path style="opacity:1" fill="#2a2a2a" d="M 1553.5,1760.5 C 1552.24,1762.93 1550.41,1764.93 1548,1766.5C 1544.59,1768.3 1541.09,1769.63 1537.5,1770.5C 1543.05,1767.46 1548.39,1764.12 1553.5,1760.5 Z"/></g>
<g><path style="opacity:1" fill="#30302f" d="M 1537.5,1770.5 C 1537.5,1771.5 1537.5,1772.5 1537.5,1773.5C 1533.59,1775.94 1529.25,1777.61 1524.5,1778.5C 1528.79,1775.9 1533.12,1773.23 1537.5,1770.5 Z"/></g>
<g><path style="opacity:1" fill="#4d4d4c" d="M 1195.5,1777.5 C 1197.92,1778.89 1200.59,1779.72 1203.5,1780C 1204.25,1780.67 1204.59,1781.5 1204.5,1782.5C 1200.72,1782.11 1197.72,1780.44 1195.5,1777.5 Z"/></g>
<g><path style="opacity:1" fill="#2b2b2a" d="M 1524.5,1778.5 C 1522.08,1781.66 1518.75,1783.33 1514.5,1783.5C 1517.54,1781.37 1520.87,1779.7 1524.5,1778.5 Z"/></g>
<g><path style="opacity:1" fill="#2a2a2a" d="M 1514.5,1783.5 C 1513.03,1785.13 1511.36,1786.63 1509.5,1788C 1502.76,1791.08 1496.09,1794.24 1489.5,1797.5C 1485.41,1799.71 1481.08,1801.05 1476.5,1801.5C 1488.98,1794.93 1501.65,1788.93 1514.5,1783.5 Z"/></g>
<g><path style="opacity:1" fill="#363636" d="M 1475.5,1801.5 C 1471.71,1805.08 1467.04,1806.75 1461.5,1806.5C 1465.91,1804.3 1470.58,1802.64 1475.5,1801.5 Z"/></g>
<g><path style="opacity:1" fill="#313131" d="M 1443.5,1812.5 C 1438.63,1814.08 1433.63,1815.41 1428.5,1816.5C 1433,1813.96 1438,1812.62 1443.5,1812.5 Z"/></g>
<g><path style="opacity:1" fill="#616160" d="M 1317.5,1817.5 C 1323.99,1818.45 1330.33,1818.45 1336.5,1817.5C 1338.76,1817.94 1340.93,1818.61 1343,1819.5C 1344.68,1818.4 1346.18,1818.73 1347.5,1820.5C 1352.4,1819.56 1357.23,1819.89 1362,1821.5C 1364,1820.83 1366,1820.17 1368,1819.5C 1371.2,1820.11 1374.7,1820.45 1378.5,1820.5C 1378.61,1822.38 1378.11,1822.71 1377,1821.5C 1371.4,1822.15 1365.9,1822.81 1360.5,1823.5C 1354.87,1824.04 1349.53,1823.37 1344.5,1821.5C 1341.57,1820.7 1338.57,1820.37 1335.5,1820.5C 1332.76,1821 1329.93,1821.33 1327,1821.5C 1325.31,1819.96 1323.31,1818.96 1321,1818.5C 1319.13,1821.16 1317.97,1820.83 1317.5,1817.5 Z"/></g>
<g><path style="opacity:1" fill="#343434" d="M 1428.5,1816.5 C 1422.29,1818.37 1415.96,1820.03 1409.5,1821.5C 1408.39,1820.98 1407.23,1820.64 1406,1820.5C 1399.29,1822.25 1392.46,1822.91 1385.5,1822.5C 1399.63,1820.2 1413.97,1818.2 1428.5,1816.5 Z"/></g>
<g><path style="opacity:1" fill="#3a3a39" d="M 1335.5,1820.5 C 1338.57,1820.37 1341.57,1820.7 1344.5,1821.5C 1344.38,1822.59 1343.71,1823.25 1342.5,1823.5C 1340.1,1822.34 1337.77,1821.34 1335.5,1820.5 Z"/></g>
<g><path style="opacity:1" fill="#3d3d3c" d="M 1378.5,1820.5 C 1381.08,1820.47 1383.41,1821.13 1385.5,1822.5C 1383.38,1825.53 1380.71,1826.03 1377.5,1824C 1371.84,1823.5 1366.18,1823.33 1360.5,1823.5C 1365.9,1822.81 1371.4,1822.15 1377,1821.5C 1378.11,1822.71 1378.61,1822.38 1378.5,1820.5 Z"/></g>
</svg>
