<?xml version="1.0" encoding="UTF-8"?>
<!DOCTYPE svg PUBLIC "-//W3C//DTD SVG 1.1//EN" "http://www.w3.org/Graphics/SVG/1.1/DTD/svg11.dtd">
<svg xmlns="http://www.w3.org/2000/svg" version="1.1" width="2048px" height="2048px" style="shape-rendering:geometricPrecision; text-rendering:geometricPrecision; image-rendering:optimizeQuality; fill-rule:evenodd; clip-rule:evenodd" xmlns:xlink="http://www.w3.org/1999/xlink">
<g><path style="opacity:1" fill="#d3ae37" d="M -0.5,-0.5 C 682.167,-0.5 1364.83,-0.5 2047.5,-0.5C 2047.5,682.167 2047.5,1364.83 2047.5,2047.5C 1364.83,2047.5 682.167,2047.5 -0.5,2047.5C -0.5,1364.83 -0.5,682.167 -0.5,-0.5 Z"/></g>
<g><path style="opacity:1" fill="#d1ae37" d="M 1143.5,810.5 C 1146,810.511 1146.17,811.178 1144,812.5C 1143.54,811.906 1143.37,811.239 1143.5,810.5 Z"/></g>
<g><path style="opacity:1" fill="#d1ae37" d="M 1141.5,854.5 C 1143.34,854.639 1143.67,855.306 1142.5,856.5C 1141.7,856.043 1141.37,855.376 1141.5,854.5 Z"/></g>
<g><path style="opacity:1" fill="#d1ae37" d="M 1141.5,863.5 C 1144,863.511 1144.17,864.178 1142,865.5C 1141.54,864.906 1141.37,864.239 1141.5,863.5 Z"/></g>
<g><path style="opacity:1" fill="#d1ae37" d="M 1140.5,867.5 C 1141.77,868.077 1141.77,868.743 1140.5,869.5C 1139.54,869.03 1139.54,868.363 1140.5,867.5 Z"/></g>
<g><path style="opacity:1" fill="#d1ae37" d="M 1140.5,870.5 C 1141.8,871.849 1141.63,873.182 1140,874.5C 1139.42,873.072 1139.59,871.738 1140.5,870.5 Z"/></g>
<g><path style="opacity:1" fill="#d1ae37" d="M 1142.5,872.5 C 1143.25,873.531 1143.92,874.698 1144.5,876C 1144.17,876.167 1143.83,876.333 1143.5,876.5C 1142.57,875.311 1142.24,873.978 1142.5,872.5 Z"/></g>
<g><path style="opacity:1" fill="#d1ae37" d="M 1138.5,878.5 C 1141,878.511 1141.17,879.178 1139,880.5C 1138.54,879.906 1138.37,879.239 1138.5,878.5 Z"/></g>
<g><path style="opacity:1" fill="#d1ae37" d="M 1137.5,895.5 C 1139.23,895.843 1139.73,896.843 1139,898.5C 1137.96,897.756 1137.46,896.756 1137.5,895.5 Z"/></g>
<g><path style="opacity:1" fill="#d1ae37" d="M 1142.5,897.5 C 1143.29,897.783 1143.96,898.283 1144.5,899C 1143.18,899.528 1142.52,899.028 1142.5,897.5 Z"/></g>
<g><path style="opacity:1" fill="#d1ae37" d="M 1136.5,925.5 C 1138.97,925.947 1139.14,926.947 1137,928.5C 1136.52,927.552 1136.35,926.552 1136.5,925.5 Z"/></g>
<g><path style="opacity:1" fill="#d1ae37" d="M 1127.5,960.5 C 1128.29,960.783 1128.96,961.283 1129.5,962C 1128.18,962.528 1127.52,962.028 1127.5,960.5 Z"/></g>
<g><path style="opacity:1" fill="#d1ae37" d="M 1126.5,965.5 C 1127.08,964.227 1127.74,964.227 1128.5,965.5C 1128.03,966.463 1127.36,966.463 1126.5,965.5 Z"/></g>
<g><path style="opacity:1" fill="#d1ae37" d="M 1149.5,967.5 C 1150.78,968.386 1150.78,969.386 1149.5,970.5C 1148.44,969.575 1148.44,968.575 1149.5,967.5 Z"/></g>
<g><path style="opacity:1" fill="#d1ae37" d="M 1125.5,970.5 C 1126.71,971.497 1126.55,972.497 1125,973.5C 1124.53,972.423 1124.7,971.423 1125.5,970.5 Z"/></g>
<g><path style="opacity:1" fill="#d1ae37" d="M 1150.5,975.5 C 1152.27,976.314 1152.77,977.648 1152,979.5C 1151.21,978.255 1150.71,976.922 1150.5,975.5 Z"/></g>
<g><path style="opacity:1" fill="#d1ae37" d="M 1123.5,985.5 C 1124.6,986.601 1124.76,987.934 1124,989.5C 1122.67,988.122 1122.5,986.789 1123.5,985.5 Z"/></g>
<g><path style="opacity:1" fill="#d1ae37" d="M 1153.5,986.5 C 1154.77,987.077 1154.77,987.743 1153.5,988.5C 1152.54,988.03 1152.54,987.363 1153.5,986.5 Z"/></g>
<g><path style="opacity:1" fill="#d1ae37" d="M 1153.5,990.5 C 1154.84,991.315 1155.84,992.482 1156.5,994C 1154.07,994.333 1153.07,993.166 1153.5,990.5 Z"/></g>
<g><path style="opacity:1" fill="#d1ae37" d="M 1122.5,996.5 C 1123.77,997.077 1123.77,997.743 1122.5,998.5C 1121.54,998.03 1121.54,997.363 1122.5,996.5 Z"/></g>
<g><path style="opacity:1" fill="#d1ae37" d="M 1120.5,999.5 C 1122.96,1001.49 1123.12,1003.83 1121,1006.5C 1120.5,1004.19 1120.34,1001.86 1120.5,999.5 Z"/></g>
<g><path style="opacity:1" fill="#d1ae37" d="M 1157.5,1004.5 C 1158.29,1004.78 1158.96,1005.28 1159.5,1006C 1159.87,1007.47 1159.37,1008.97 1158,1010.5C 1157.5,1008.53 1157.34,1006.53 1157.5,1004.5 Z"/></g>
<g><path style="opacity:1" fill="#d1ae37" d="M 1118.5,1011.5 C 1120.44,1012.64 1120.61,1014.3 1119,1016.5C 1118.51,1014.87 1118.34,1013.2 1118.5,1011.5 Z"/></g>
<g><path style="opacity:1" fill="#d1ae37" d="M 1118.5,1018.5 C 1119.77,1019.08 1119.77,1019.74 1118.5,1020.5C 1117.54,1020.03 1117.54,1019.36 1118.5,1018.5 Z"/></g>
<g><path style="opacity:1" fill="#d1ae37" d="M 1161.5,1022.5 C 1162.38,1022.37 1163.04,1022.7 1163.5,1023.5C 1161.99,1027.35 1161.33,1027.02 1161.5,1022.5 Z"/></g>
<g><path style="opacity:1" fill="#d1ae37" d="M 1117.5,1028.5 C 1118.77,1029.08 1118.77,1029.74 1117.5,1030.5C 1116.54,1030.03 1116.54,1029.36 1117.5,1028.5 Z"/></g>
<g><path style="opacity:1" fill="#d1ae37" d="M 1115.5,1036.5 C 1117.08,1037 1117.58,1038 1117,1039.5C 1115.96,1038.76 1115.46,1037.76 1115.5,1036.5 Z"/></g>
<g><path style="opacity:1" fill="#d1ae37" d="M 1164.5,1037.5 C 1166.34,1037.64 1166.67,1038.31 1165.5,1039.5C 1164.7,1039.04 1164.37,1038.38 1164.5,1037.5 Z"/></g>
<g><path style="opacity:1" fill="#d1ae37" d="M 1166.5,1046.5 C 1168.1,1047.8 1168.6,1049.47 1168,1051.5C 1166.99,1049.98 1166.49,1048.31 1166.5,1046.5 Z"/></g>
<g><path style="opacity:1" fill="#d1ae37" d="M 1169.5,1055.5 C 1171.08,1056 1171.58,1057 1171,1058.5C 1169.96,1057.76 1169.46,1056.76 1169.5,1055.5 Z"/></g>
<g><path style="opacity:1" fill="#d1ae37" d="M 1172.5,1069.5 C 1172.56,1068.96 1172.89,1068.62 1173.5,1068.5C 1174.58,1069.36 1174.75,1070.36 1174,1071.5C 1173.72,1070.58 1173.22,1069.92 1172.5,1069.5 Z"/></g>
</svg>
