<?xml version="1.0" encoding="UTF-8"?>
<!DOCTYPE svg PUBLIC "-//W3C//DTD SVG 1.1//EN" "http://www.w3.org/Graphics/SVG/1.1/DTD/svg11.dtd">
<svg xmlns="http://www.w3.org/2000/svg" version="1.1" width="2048px" height="2048px" style="shape-rendering:geometricPrecision; text-rendering:geometricPrecision; image-rendering:optimizeQuality; fill-rule:evenodd; clip-rule:evenodd" xmlns:xlink="http://www.w3.org/1999/xlink">
<g><path style="opacity:0.943" fill="#03033f" d="M 1397.5,1217.5 C 1413.04,1215.97 1427.37,1219.3 1440.5,1227.5C 1440.44,1228.04 1440.11,1228.38 1439.5,1228.5C 1434.51,1225.27 1429.17,1223.94 1423.5,1224.5C 1439.54,1230.06 1453.71,1238.73 1466,1250.5C 1466.48,1251.45 1466.65,1252.45 1466.5,1253.5C 1470.36,1255.14 1472.86,1258.14 1474,1262.5C 1475.67,1264.17 1477.33,1265.83 1479,1267.5C 1479.48,1266.55 1479.65,1265.55 1479.5,1264.5C 1481.1,1265.29 1481.77,1266.62 1481.5,1268.5C 1480.88,1268.92 1480.54,1269.58 1480.5,1270.5C 1485.89,1284.34 1489.39,1298.68 1491,1313.5C 1492.44,1309.03 1492.94,1304.36 1492.5,1299.5C 1493.75,1299.58 1494.58,1300.24 1495,1301.5C 1495.69,1307.28 1495.19,1312.95 1493.5,1318.5C 1492.84,1317.6 1492.18,1316.6 1491.5,1315.5C 1489.67,1323.51 1488,1331.51 1486.5,1339.5C 1483.82,1343.69 1481.99,1348.35 1481,1353.5C 1476.93,1357.74 1473.43,1362.4 1470.5,1367.5C 1469.76,1367.63 1469.09,1367.46 1468.5,1367C 1469.8,1365.38 1469.8,1363.88 1468.5,1362.5C 1480.82,1341.92 1484.16,1319.92 1478.5,1296.5C 1479.59,1296.38 1480.25,1295.71 1480.5,1294.5C 1476.97,1280.43 1470.64,1268.1 1461.5,1257.5C 1460.58,1256.87 1459.58,1256.54 1458.5,1256.5C 1436.07,1232.89 1408.74,1224.05 1376.5,1230C 1371.43,1232.08 1366.43,1234.24 1361.5,1236.5C 1360.05,1236.07 1358.38,1235.9 1356.5,1236C 1357.5,1233.67 1359.17,1232 1361.5,1231C 1369.05,1228.71 1376.39,1226.04 1383.5,1223C 1394.78,1221.76 1406.11,1221.09 1417.5,1221C 1410.23,1219.82 1402.9,1219.15 1395.5,1219C 1396.42,1218.72 1397.08,1218.22 1397.5,1217.5 Z"/></g>
<g><path style="opacity:0.941" fill="#060121" d="M 1397.5,1217.5 C 1397.08,1218.22 1396.42,1218.72 1395.5,1219C 1402.9,1219.15 1410.23,1219.82 1417.5,1221C 1406.11,1221.09 1394.78,1221.76 1383.5,1223C 1376.39,1226.04 1369.05,1228.71 1361.5,1231C 1359.17,1232 1357.5,1233.67 1356.5,1236C 1358.38,1235.9 1360.05,1236.07 1361.5,1236.5C 1359.48,1237.53 1357.48,1238.53 1355.5,1239.5C 1354.5,1239.5 1353.5,1239.5 1352.5,1239.5C 1352.66,1238.13 1352.49,1236.79 1352,1235.5C 1351.33,1236.25 1350.5,1236.59 1349.5,1236.5C 1352.95,1233.92 1356.28,1231.09 1359.5,1228C 1365.05,1226.89 1370.05,1224.72 1374.5,1221.5C 1382.27,1220.68 1389.93,1219.35 1397.5,1217.5 Z"/></g>
<g><path style="opacity:0.999" fill="#0102ab" d="M 1458.5,1256.5 C 1468.35,1268.21 1475.02,1281.54 1478.5,1296.5C 1484.16,1319.92 1480.82,1341.92 1468.5,1362.5C 1451.09,1387.49 1427.09,1398.32 1396.5,1395C 1356.83,1385.33 1332.66,1360.49 1324,1320.5C 1319.49,1294.73 1325.49,1271.73 1342,1251.5C 1346.69,1247.63 1351.19,1243.63 1355.5,1239.5C 1357.48,1238.53 1359.48,1237.53 1361.5,1236.5C 1366.43,1234.24 1371.43,1232.08 1376.5,1230C 1408.74,1224.05 1436.07,1232.89 1458.5,1256.5 Z"/></g>
<g><path style="opacity:0.192" fill="#06003f" d="M 1450.5,1233.5 C 1455.98,1234.98 1459.98,1238.31 1462.5,1243.5C 1457.75,1241.12 1453.75,1237.78 1450.5,1233.5 Z"/></g>
<g><path style="opacity:0.401" fill="#010013" d="M 1440.5,1227.5 C 1443.83,1229.5 1447.17,1231.5 1450.5,1233.5C 1453.75,1237.78 1457.75,1241.12 1462.5,1243.5C 1469.3,1249.63 1474.96,1256.63 1479.5,1264.5C 1479.65,1265.55 1479.48,1266.55 1479,1267.5C 1477.33,1265.83 1475.67,1264.17 1474,1262.5C 1472.86,1258.14 1470.36,1255.14 1466.5,1253.5C 1466.65,1252.45 1466.48,1251.45 1466,1250.5C 1453.71,1238.73 1439.54,1230.06 1423.5,1224.5C 1429.17,1223.94 1434.51,1225.27 1439.5,1228.5C 1440.11,1228.38 1440.44,1228.04 1440.5,1227.5 Z"/></g>
<g><path style="opacity:0.991" fill="#04022e" d="M 1458.5,1256.5 C 1459.58,1256.54 1460.58,1256.87 1461.5,1257.5C 1470.64,1268.1 1476.97,1280.43 1480.5,1294.5C 1480.25,1295.71 1479.59,1296.38 1478.5,1296.5C 1475.02,1281.54 1468.35,1268.21 1458.5,1256.5 Z"/></g>
<g><path style="opacity:1" fill="#fcfcfe" d="M 1355.5,1269.5 C 1393.33,1279.36 1430.99,1289.86 1468.5,1301C 1468.96,1301.41 1469.29,1301.91 1469.5,1302.5C 1468.47,1303.7 1467.64,1305.03 1467,1306.5C 1461.48,1311.59 1455.98,1316.59 1450.5,1321.5C 1420.47,1312.86 1390.47,1304.02 1360.5,1295C 1357.72,1287.9 1355.39,1280.57 1353.5,1273C 1353.98,1271.7 1354.64,1270.53 1355.5,1269.5 Z"/></g>
<g><path style="opacity:0.157" fill="#03001b" d="M 1481.5,1268.5 C 1487.34,1278.02 1491.01,1288.35 1492.5,1299.5C 1492.94,1304.36 1492.44,1309.03 1491,1313.5C 1489.39,1298.68 1485.89,1284.34 1480.5,1270.5C 1480.54,1269.58 1480.88,1268.92 1481.5,1268.5 Z"/></g>
<g><path style="opacity:1" fill="#fcfcfe" d="M 1366.5,1313.5 C 1374.11,1315.49 1381.78,1317.32 1389.5,1319C 1391.81,1320.11 1393.31,1321.94 1394,1324.5C 1397.31,1338.21 1400.81,1351.88 1404.5,1365.5C 1404.33,1366.5 1404.17,1367.5 1404,1368.5C 1397.7,1373.8 1391.7,1379.47 1386,1385.5C 1378.68,1361.76 1372.18,1337.76 1366.5,1313.5 Z"/></g>
<g><path style="opacity:0.227" fill="#000010" d="M 1493.5,1318.5 C 1492.6,1326.65 1490.94,1334.65 1488.5,1342.5C 1486.95,1342.18 1486.29,1341.18 1486.5,1339.5C 1488,1331.51 1489.67,1323.51 1491.5,1315.5C 1492.18,1316.6 1492.84,1317.6 1493.5,1318.5 Z"/></g>
<g><path style="opacity:0.227" fill="#010565" d="M 1330.5,1351.5 C 1333.89,1353.57 1336.22,1356.57 1337.5,1360.5C 1334.45,1358.08 1332.12,1355.08 1330.5,1351.5 Z"/></g>
<g><path style="opacity:0.773" fill="#08012a" d="M 1486.5,1339.5 C 1486.29,1341.18 1486.95,1342.18 1488.5,1342.5C 1488.11,1346.41 1486.94,1350.07 1485,1353.5C 1480.16,1359.17 1476.33,1365.5 1473.5,1372.5C 1472.42,1373.71 1471.09,1374.37 1469.5,1374.5C 1468.49,1372.9 1468.99,1371.57 1471,1370.5C 1471.74,1369.25 1471.57,1368.25 1470.5,1367.5C 1473.43,1362.4 1476.93,1357.74 1481,1353.5C 1481.99,1348.35 1483.82,1343.69 1486.5,1339.5 Z"/></g>
<g><path style="opacity:0.603" fill="#01000b" d="M 1355.5,1239.5 C 1351.19,1243.63 1346.69,1247.63 1342,1251.5C 1325.49,1271.73 1319.49,1294.73 1324,1320.5C 1332.66,1360.49 1356.83,1385.33 1396.5,1395C 1427.09,1398.32 1451.09,1387.49 1468.5,1362.5C 1469.8,1363.88 1469.8,1365.38 1468.5,1367C 1469.09,1367.46 1469.76,1367.63 1470.5,1367.5C 1471.57,1368.25 1471.74,1369.25 1471,1370.5C 1468.99,1371.57 1468.49,1372.9 1469.5,1374.5C 1458.93,1381.46 1447.93,1387.96 1436.5,1394C 1399.53,1405.35 1368.03,1396.52 1342,1367.5C 1340.25,1365.27 1338.75,1362.93 1337.5,1360.5C 1336.22,1356.57 1333.89,1353.57 1330.5,1351.5C 1316.45,1321.55 1315.95,1291.55 1329,1261.5C 1334.43,1251.95 1341.26,1243.62 1349.5,1236.5C 1350.5,1236.59 1351.33,1236.25 1352,1235.5C 1352.49,1236.79 1352.66,1238.13 1352.5,1239.5C 1353.5,1239.5 1354.5,1239.5 1355.5,1239.5 Z"/></g>
</svg>
