<?xml version="1.0" encoding="UTF-8"?>
<!DOCTYPE svg PUBLIC "-//W3C//DTD SVG 1.1//EN" "http://www.w3.org/Graphics/SVG/1.1/DTD/svg11.dtd">
<svg xmlns="http://www.w3.org/2000/svg" version="1.1" width="2048px" height="2048px" style="shape-rendering:geometricPrecision; text-rendering:geometricPrecision; image-rendering:optimizeQuality; fill-rule:evenodd; clip-rule:evenodd" xmlns:xlink="http://www.w3.org/1999/xlink">
<g><path style="opacity:0.412" fill="#43433e" d="M 396.5,1258.5 C 387.096,1260.32 377.596,1262.32 368,1264.5C 366.93,1264.47 366.097,1264.14 365.5,1263.5C 365.611,1262.88 365.944,1262.38 366.5,1262C 375.231,1259.8 384.065,1257.97 393,1256.5C 394.699,1256.39 395.866,1257.05 396.5,1258.5 Z"/></g>
<g><path style="opacity:0.102" fill="#40403e" d="M 344.5,1274.5 C 339.421,1279.92 333.754,1284.58 327.5,1288.5C 331.324,1284.18 335.324,1280.01 339.5,1276C 341.025,1274.99 342.692,1274.49 344.5,1274.5 Z"/></g>
<g><path style="opacity:0.075" fill="#1b1b1a" d="M 483.5,1329.5 C 480.668,1323.7 478.501,1317.36 477,1310.5C 474.423,1304.34 471.09,1298.67 467,1293.5C 466.187,1291.56 465.687,1289.56 465.5,1287.5C 467.308,1286.68 468.808,1287.35 470,1289.5C 472.192,1296.22 475.192,1302.55 479,1308.5C 481.203,1313.93 483.036,1319.43 484.5,1325C 483.852,1326.44 483.519,1327.94 483.5,1329.5 Z"/></g>
<g><path style="opacity:0.005" fill="#000000" d="M 309.5,1307.5 C 308.07,1307.58 306.736,1307.25 305.5,1306.5C 304.614,1307.32 304.281,1308.32 304.5,1309.5C 303.549,1308.08 303.216,1306.41 303.5,1304.5C 305.199,1304.34 306.866,1304.51 308.5,1305C 309.252,1305.67 309.586,1306.5 309.5,1307.5 Z"/></g>
<g><path style="opacity:0.008" fill="#7a7a7a" d="M 309.5,1307.5 C 309.437,1310.2 308.437,1311.2 306.5,1310.5C 305.833,1310.17 305.167,1309.83 304.5,1309.5C 304.281,1308.32 304.614,1307.32 305.5,1306.5C 306.736,1307.25 308.07,1307.58 309.5,1307.5 Z"/></g>
<g><path style="opacity:0.005" fill="#000000" d="M 304.5,1309.5 C 305.167,1309.83 305.833,1310.17 306.5,1310.5C 306.5,1312.5 306.5,1314.5 306.5,1316.5C 305.076,1314.49 304.41,1312.15 304.5,1309.5 Z"/></g>
<g><path style="opacity:0.039" fill="#4d4d49" d="M 309.5,1307.5 C 310.401,1308.29 311.068,1309.29 311.5,1310.5C 311.313,1312.56 310.813,1314.56 310,1316.5C 308.989,1317.34 307.822,1317.67 306.5,1317.5C 306.5,1317.17 306.5,1316.83 306.5,1316.5C 306.5,1314.5 306.5,1312.5 306.5,1310.5C 308.437,1311.2 309.437,1310.2 309.5,1307.5 Z"/></g>
<g><path style="opacity:0.043" fill="#383837" d="M 303.5,1333.5 C 304.139,1334.1 304.472,1334.93 304.5,1336C 303.946,1338.82 303.446,1341.66 303,1344.5C 302.617,1345.06 302.117,1345.39 301.5,1345.5C 301.332,1341.34 301.998,1337.34 303.5,1333.5 Z"/></g>
<g><path style="opacity:0.057" fill="#434341" d="M 307.5,1377.5 C 308.496,1377.41 309.329,1377.75 310,1378.5C 313.5,1384.83 317,1391.17 320.5,1397.5C 320.376,1398.11 320.043,1398.44 319.5,1398.5C 316.355,1394.23 313.188,1389.9 310,1385.5C 308.293,1383.09 307.46,1380.42 307.5,1377.5 Z"/></g>
<g><path style="opacity:0.978" fill="#090908" d="M 396.5,1258.5 C 413.639,1259.37 429.972,1263.87 445.5,1272C 452.657,1276.67 459.324,1281.84 465.5,1287.5C 465.687,1289.56 466.187,1291.56 467,1293.5C 471.09,1298.67 474.423,1304.34 477,1310.5C 478.501,1317.36 480.668,1323.7 483.5,1329.5C 484.584,1335.1 485.251,1340.76 485.5,1346.5C 483.434,1351.23 482.767,1356.06 483.5,1361C 482.722,1363.39 481.555,1365.56 480,1367.5C 479.703,1370.91 479.036,1374.25 478,1377.5C 476.846,1378.74 475.512,1379.74 474,1380.5C 471.147,1387.04 467.647,1393.21 463.5,1399C 462.167,1399.67 460.833,1400.33 459.5,1401C 437.595,1424.69 410.428,1435.53 378,1433.5C 370.215,1431.46 362.382,1429.63 354.5,1428C 347.704,1423.43 340.704,1419.1 333.5,1415C 329.4,1409.06 324.733,1403.56 319.5,1398.5C 320.043,1398.44 320.376,1398.11 320.5,1397.5C 317,1391.17 313.5,1384.83 310,1378.5C 309.329,1377.75 308.496,1377.41 307.5,1377.5C 304.701,1366.96 302.701,1356.29 301.5,1345.5C 302.117,1345.39 302.617,1345.06 303,1344.5C 303.446,1341.66 303.946,1338.82 304.5,1336C 304.472,1334.93 304.139,1334.1 303.5,1333.5C 304.042,1329.08 305.376,1324.91 307.5,1321C 307.011,1319.86 306.678,1318.69 306.5,1317.5C 307.822,1317.67 308.989,1317.34 310,1316.5C 310.813,1314.56 311.313,1312.56 311.5,1310.5C 314.309,1306.96 316.476,1302.96 318,1298.5C 321.399,1295.27 324.565,1291.94 327.5,1288.5C 333.754,1284.58 339.421,1279.92 344.5,1274.5C 351.417,1270.54 358.417,1266.88 365.5,1263.5C 366.097,1264.14 366.93,1264.47 368,1264.5C 377.596,1262.32 387.096,1260.32 396.5,1258.5 Z"/></g>
<g><path style="opacity:0.971" fill="#232322" d="M 473.5,1311.5 C 486.098,1351.88 475.764,1385.38 442.5,1412C 409.466,1434.09 375.799,1435.09 341.5,1415C 339.5,1413.33 337.5,1411.67 335.5,1410C 340.722,1412.47 346.055,1415.14 351.5,1418C 383.822,1428.61 413.822,1424.28 441.5,1405C 471.848,1380.22 482.514,1349.05 473.5,1311.5 Z"/></g>
<g><path style="opacity:0.982" fill="#4b4b48" d="M 405.5,1262.5 C 435.005,1266.53 456.172,1281.86 469,1308.5C 480.921,1352.49 467.421,1386.32 428.5,1410C 394.617,1427.36 362.284,1425.03 331.5,1403C 303.71,1375.22 298.877,1343.72 317,1308.5C 337.998,1276.92 367.498,1261.58 405.5,1262.5 Z"/></g>
<g><path style="opacity:0.878" fill="#919191" d="M 434.5,1324.5 C 436.951,1338 432.951,1349.5 422.5,1359C 420.323,1360.2 417.989,1360.7 415.5,1360.5C 422.643,1355.03 428.31,1348.36 432.5,1340.5C 433.222,1340.08 433.722,1339.42 434,1338.5C 434.499,1333.85 434.666,1329.18 434.5,1324.5 Z"/></g>
<g><path style="opacity:0.996" fill="#959595" d="M 443.5,1320.5 C 444.912,1322.6 445.912,1324.94 446.5,1327.5C 446.666,1333.18 446.499,1338.84 446,1344.5C 445.885,1348.61 444.718,1352.28 442.5,1355.5C 444.598,1343.88 444.931,1332.22 443.5,1320.5 Z"/></g>
<g><path style="opacity:0.995" fill="#121212" d="M 364.5,1392.5 C 367.552,1395.58 370.386,1398.91 373,1402.5C 374.653,1394 376.487,1385.67 378.5,1377.5C 379.781,1370.61 381.114,1363.61 382.5,1356.5C 384.588,1345.42 386.422,1334.42 388,1323.5C 377.448,1320.76 366.781,1318.1 356,1315.5C 352.745,1316.54 349.911,1318.21 347.5,1320.5C 343.5,1321.73 343.5,1323.23 347.5,1325C 349.518,1325.5 351.518,1326 353.5,1326.5C 358.312,1327.87 363.312,1328.71 368.5,1329C 370.587,1329.79 372.421,1330.96 374,1332.5C 373.408,1338.81 372.575,1345.15 371.5,1351.5C 370.076,1353.51 369.41,1355.85 369.5,1358.5C 368.498,1365.17 367.498,1371.84 366.5,1378.5C 365.076,1380.51 364.41,1382.85 364.5,1385.5C 361.475,1388.16 360.142,1387.16 360.5,1382.5C 362.355,1366.75 364.688,1351.09 367.5,1335.5C 356.815,1333.11 346.149,1330.61 335.5,1328C 334.01,1327.25 333.01,1326.09 332.5,1324.5C 333.903,1320.13 336.903,1317.63 341.5,1317C 345.682,1312.58 350.682,1309.75 356.5,1308.5C 366.362,1310.44 376.029,1312.94 385.5,1316C 388.806,1316.69 391.64,1318.19 394,1320.5C 393.532,1330.19 392.532,1339.86 391,1349.5C 386.02,1370.02 381.687,1390.69 378,1411.5C 377.439,1412.02 376.772,1412.36 376,1412.5C 374.51,1411.68 373.01,1410.85 371.5,1410C 366.869,1404.56 362.869,1398.73 359.5,1392.5C 361.2,1388.54 362.867,1388.54 364.5,1392.5 Z"/></g>
<g><path style="opacity:0.902" fill="#636363" d="M 366.5,1378.5 C 366.59,1381.15 365.924,1383.49 364.5,1385.5C 364.41,1382.85 365.076,1380.51 366.5,1378.5 Z"/></g>
<g><path style="opacity:0.986" fill="#989898" d="M 382.5,1356.5 C 381.114,1363.61 379.781,1370.61 378.5,1377.5C 378.5,1372.17 378.5,1366.83 378.5,1361.5C 379.5,1361.5 380.5,1361.5 381.5,1361.5C 381.216,1359.59 381.549,1357.92 382.5,1356.5 Z"/></g>
<g><path style="opacity:0.969" fill="#585758" d="M 371.5,1351.5 C 371.59,1354.15 370.924,1356.49 369.5,1358.5C 369.41,1355.85 370.076,1353.51 371.5,1351.5 Z"/></g>
<g><path style="opacity:0.996" fill="#4e4e4e" d="M 432.5,1318.5 C 434.074,1320.1 434.741,1322.1 434.5,1324.5C 434.666,1329.18 434.499,1333.85 434,1338.5C 433.722,1339.42 433.222,1340.08 432.5,1340.5C 433.833,1333.17 433.833,1325.83 432.5,1318.5 Z"/></g>
<g><path style="opacity:1" fill="#7a797a" d="M 347.5,1320.5 C 347.389,1321.12 347.056,1321.62 346.5,1322C 347.949,1323.12 349.616,1323.78 351.5,1324C 352.381,1324.71 353.047,1325.54 353.5,1326.5C 351.518,1326 349.518,1325.5 347.5,1325C 343.5,1323.23 343.5,1321.73 347.5,1320.5 Z"/></g>
<g><path style="opacity:0.998" fill="#cfcecf" d="M 382.5,1356.5 C 381.549,1357.92 381.216,1359.59 381.5,1361.5C 380.5,1361.5 379.5,1361.5 378.5,1361.5C 378.5,1366.83 378.5,1372.17 378.5,1377.5C 376.487,1385.67 374.653,1394 373,1402.5C 370.386,1398.91 367.552,1395.58 364.5,1392.5C 364.5,1390.17 364.5,1387.83 364.5,1385.5C 365.924,1383.49 366.59,1381.15 366.5,1378.5C 367.498,1371.84 368.498,1365.17 369.5,1358.5C 370.924,1356.49 371.59,1354.15 371.5,1351.5C 372.575,1345.15 373.408,1338.81 374,1332.5C 372.421,1330.96 370.587,1329.79 368.5,1329C 363.312,1328.71 358.312,1327.87 353.5,1326.5C 353.047,1325.54 352.381,1324.71 351.5,1324C 349.616,1323.78 347.949,1323.12 346.5,1322C 347.056,1321.62 347.389,1321.12 347.5,1320.5C 349.911,1318.21 352.745,1316.54 356,1315.5C 366.781,1318.1 377.448,1320.76 388,1323.5C 386.422,1334.42 384.588,1345.42 382.5,1356.5 Z"/></g>
<g><path style="opacity:0.992" fill="#707070" d="M 441.5,1312.5 C 443.163,1314.44 443.829,1316.77 443.5,1319.5C 442.076,1317.49 441.41,1315.15 441.5,1312.5 Z"/></g>
<g><path style="opacity:0.886" fill="#595959" d="M 434.5,1300.5 C 437.321,1304.13 439.654,1308.13 441.5,1312.5C 438.147,1309.13 435.814,1305.13 434.5,1300.5 Z"/></g>
<g><path style="opacity:0.996" fill="#525252" d="M 426.5,1305.5 C 429.407,1307.31 430.741,1309.98 430.5,1313.5C 428.983,1310.96 427.65,1308.3 426.5,1305.5 Z"/></g>
<g><path style="opacity:0.994" fill="#141414" d="M 417.5,1296.5 C 420.167,1299.83 423.167,1302.83 426.5,1305.5C 427.65,1308.3 428.983,1310.96 430.5,1313.5C 431.537,1314.93 432.204,1316.6 432.5,1318.5C 433.833,1325.83 433.833,1333.17 432.5,1340.5C 428.31,1348.36 422.643,1355.03 415.5,1360.5C 412.454,1360.72 410.121,1362.06 408.5,1364.5C 406.856,1364.29 405.356,1364.62 404,1365.5C 403.501,1369.15 403.335,1372.82 403.5,1376.5C 406.713,1376.81 409.713,1376.48 412.5,1375.5C 422.825,1373.83 431.491,1369.16 438.5,1361.5C 440.218,1359.78 441.551,1357.78 442.5,1355.5C 444.718,1352.28 445.885,1348.61 446,1344.5C 446.499,1338.84 446.666,1333.18 446.5,1327.5C 448.205,1333 449.705,1338.67 451,1344.5C 451.359,1338.48 451.859,1332.48 452.5,1326.5C 453.529,1328.95 454.196,1331.61 454.5,1334.5C 453.23,1345.88 449.397,1356.22 443,1365.5C 435.277,1373.72 426.11,1379.56 415.5,1383C 409.167,1383.67 402.833,1383.67 396.5,1383C 395.859,1380.42 395.525,1377.75 395.5,1375C 395.811,1369.97 396.811,1365.13 398.5,1360.5C 405.071,1358.43 411.071,1355.26 416.5,1351C 419.58,1346.4 422.914,1341.9 426.5,1337.5C 428.012,1329.04 427.512,1320.71 425,1312.5C 421.167,1309.33 417.667,1305.83 414.5,1302C 412.846,1301.39 411.179,1300.89 409.5,1300.5C 411.283,1296.94 412.283,1296.94 412.5,1300.5C 414.288,1300.79 415.955,1300.45 417.5,1299.5C 415.337,1297.68 412.837,1296.68 410,1296.5C 406.752,1296.94 403.585,1297.61 400.5,1298.5C 403.182,1295.82 406.515,1294.49 410.5,1294.5C 413.109,1294.44 415.443,1295.11 417.5,1296.5 Z"/></g>
<g><path style="opacity:0.973" fill="#828282" d="M 408.5,1364.5 C 407.312,1365.36 406.145,1366.36 405,1367.5C 404.503,1370.15 404.336,1372.81 404.5,1375.5C 407.167,1375.5 409.833,1375.5 412.5,1375.5C 409.713,1376.48 406.713,1376.81 403.5,1376.5C 403.335,1372.82 403.501,1369.15 404,1365.5C 405.356,1364.62 406.856,1364.29 408.5,1364.5 Z"/></g>
<g><path style="opacity:0.984" fill="#626262" d="M 438.5,1361.5 C 431.491,1369.16 422.825,1373.83 412.5,1375.5C 415.361,1374.48 418.028,1372.98 420.5,1371C 425.18,1370.33 428.847,1368 431.5,1364C 433.765,1362.88 436.099,1362.05 438.5,1361.5 Z"/></g>
<g><path style="opacity:0.933" fill="#535353" d="M 415.5,1360.5 C 413.434,1362.2 411.1,1363.53 408.5,1364.5C 410.121,1362.06 412.454,1360.72 415.5,1360.5 Z"/></g>
<g><path style="opacity:0.992" fill="#838282" d="M 442.5,1355.5 C 441.551,1357.78 440.218,1359.78 438.5,1361.5C 438.684,1358.66 440.018,1356.66 442.5,1355.5 Z"/></g>
<g><path style="opacity:0.994" fill="#cfcfcf" d="M 434.5,1300.5 C 435.814,1305.13 438.147,1309.13 441.5,1312.5C 441.41,1315.15 442.076,1317.49 443.5,1319.5C 443.5,1319.83 443.5,1320.17 443.5,1320.5C 444.931,1332.22 444.598,1343.88 442.5,1355.5C 440.018,1356.66 438.684,1358.66 438.5,1361.5C 436.099,1362.05 433.765,1362.88 431.5,1364C 428.847,1368 425.18,1370.33 420.5,1371C 418.028,1372.98 415.361,1374.48 412.5,1375.5C 409.833,1375.5 407.167,1375.5 404.5,1375.5C 404.336,1372.81 404.503,1370.15 405,1367.5C 406.145,1366.36 407.312,1365.36 408.5,1364.5C 411.1,1363.53 413.434,1362.2 415.5,1360.5C 417.989,1360.7 420.323,1360.2 422.5,1359C 432.951,1349.5 436.951,1338 434.5,1324.5C 434.741,1322.1 434.074,1320.1 432.5,1318.5C 432.204,1316.6 431.537,1314.93 430.5,1313.5C 430.741,1309.98 429.407,1307.31 426.5,1305.5C 424.5,1301.5 421.5,1298.5 417.5,1296.5C 415.443,1295.11 413.109,1294.44 410.5,1294.5C 406.515,1294.49 403.182,1295.82 400.5,1298.5C 397.86,1299.82 395.193,1301.15 392.5,1302.5C 385.659,1302.72 384.325,1300.39 388.5,1295.5C 396.289,1289.08 404.622,1283.42 413.5,1278.5C 421.87,1284.54 428.87,1291.87 434.5,1300.5 Z"/></g>
<g><path style="opacity:0.996" fill="#0e0e0e" d="M 452.5,1326.5 C 451.859,1332.48 451.359,1338.48 451,1344.5C 449.705,1338.67 448.205,1333 446.5,1327.5C 445.912,1324.94 444.912,1322.6 443.5,1320.5C 443.5,1320.17 443.5,1319.83 443.5,1319.5C 443.829,1316.77 443.163,1314.44 441.5,1312.5C 439.654,1308.13 437.321,1304.13 434.5,1300.5C 428.87,1291.87 421.87,1284.54 413.5,1278.5C 404.622,1283.42 396.289,1289.08 388.5,1295.5C 385.66,1296.42 383.326,1298.09 381.5,1300.5C 384.412,1301.43 387.079,1302.76 389.5,1304.5C 391.038,1304.55 392.038,1303.88 392.5,1302.5C 395.193,1301.15 397.86,1299.82 400.5,1298.5C 403.585,1297.61 406.752,1296.94 410,1296.5C 412.837,1296.68 415.337,1297.68 417.5,1299.5C 415.955,1300.45 414.288,1300.79 412.5,1300.5C 412.283,1296.94 411.283,1296.94 409.5,1300.5C 404.332,1303.81 398.998,1306.98 393.5,1310C 392.167,1310.17 390.833,1310.33 389.5,1310.5C 383.641,1308.91 377.974,1306.74 372.5,1304C 371.134,1301.62 371.467,1299.45 373.5,1297.5C 385.683,1289.13 397.683,1280.63 409.5,1272C 411.5,1271.33 413.5,1271.33 415.5,1272C 417.5,1273.33 419.5,1274.67 421.5,1276C 428.362,1283.53 435.195,1291.03 442,1298.5C 444.951,1305.47 447.951,1312.47 451,1319.5C 451.186,1322.04 451.686,1324.37 452.5,1326.5 Z"/></g>
<g><path style="opacity:0.933" fill="#9d9c9c" d="M 388.5,1295.5 C 384.325,1300.39 385.659,1302.72 392.5,1302.5C 392.038,1303.88 391.038,1304.55 389.5,1304.5C 387.079,1302.76 384.412,1301.43 381.5,1300.5C 383.326,1298.09 385.66,1296.42 388.5,1295.5 Z"/></g>
<g><path style="opacity:0.973" fill="#6c6c6c" d="M 417.5,1296.5 C 421.5,1298.5 424.5,1301.5 426.5,1305.5C 423.167,1302.83 420.167,1299.83 417.5,1296.5 Z"/></g>
</svg>
