<?xml version="1.0" encoding="UTF-8"?>
<!DOCTYPE svg PUBLIC "-//W3C//DTD SVG 1.1//EN" "http://www.w3.org/Graphics/SVG/1.1/DTD/svg11.dtd">
<svg xmlns="http://www.w3.org/2000/svg" version="1.1" width="2048px" height="2048px" style="shape-rendering:geometricPrecision; text-rendering:geometricPrecision; image-rendering:optimizeQuality; fill-rule:evenodd; clip-rule:evenodd" xmlns:xlink="http://www.w3.org/1999/xlink">
<g><path style="opacity:0.677" fill="#05000b" d="M 1611.5,1463.5 C 1611.24,1467.24 1612.91,1469.57 1616.5,1470.5C 1629.34,1487.9 1635.67,1507.57 1635.5,1529.5C 1634.58,1537 1633.25,1544.33 1631.5,1551.5C 1630.43,1550.57 1629.1,1550.23 1627.5,1550.5C 1628.64,1546.93 1629.31,1543.26 1629.5,1539.5C 1631.52,1534.24 1631.86,1528.91 1630.5,1523.5C 1627.81,1482.57 1607.48,1454.74 1569.5,1440C 1563.62,1438.09 1557.62,1436.93 1551.5,1436.5C 1534.7,1434.23 1518.7,1437.4 1503.5,1446C 1510.06,1444.04 1516.72,1442.04 1523.5,1440C 1526.48,1439.5 1529.48,1439.34 1532.5,1439.5C 1537.51,1439.33 1542.51,1439.5 1547.5,1440C 1541.98,1440.17 1536.65,1440.67 1531.5,1441.5C 1507.02,1444.23 1488.68,1456.23 1476.5,1477.5C 1474.86,1478.75 1473.7,1480.42 1473,1482.5C 1471.34,1485.98 1470.17,1489.64 1469.5,1493.5C 1468.31,1493.03 1467.64,1492.03 1467.5,1490.5C 1467.87,1488.08 1468.54,1485.75 1469.5,1483.5C 1469.46,1482.58 1469.12,1481.92 1468.5,1481.5C 1480.83,1453.48 1502.16,1436.64 1532.5,1431C 1564.03,1429.23 1590.36,1440.06 1611.5,1463.5 Z"/></g>
<g><path style="opacity:0.867" fill="#36006d" d="M 1551.5,1436.5 C 1546.49,1436.33 1541.49,1436.5 1536.5,1437C 1538.38,1437.2 1540.05,1437.7 1541.5,1438.5C 1538.29,1438.19 1535.29,1438.52 1532.5,1439.5C 1529.48,1439.34 1526.48,1439.5 1523.5,1440C 1516.72,1442.04 1510.06,1444.04 1503.5,1446C 1518.7,1437.4 1534.7,1434.23 1551.5,1436.5 Z"/></g>
<g><path style="opacity:0.978" fill="#14031f" d="M 1532.5,1439.5 C 1535.29,1438.52 1538.29,1438.19 1541.5,1438.5C 1573.64,1441.83 1597.81,1457.5 1614,1485.5C 1624.81,1507.49 1627.48,1530.49 1622,1554.5C 1619.04,1562.43 1615.54,1570.09 1611.5,1577.5C 1611.03,1580.52 1609.53,1581.52 1607,1580.5C 1606.58,1582.43 1605.41,1583.43 1603.5,1583.5C 1607.31,1578.17 1610.98,1572.67 1614.5,1567C 1616.93,1562.41 1618.6,1557.58 1619.5,1552.5C 1628.45,1507.75 1613.45,1473.75 1574.5,1450.5C 1566.11,1445.82 1557.11,1443.15 1547.5,1442.5C 1542.36,1441.51 1537.03,1441.18 1531.5,1441.5C 1536.65,1440.67 1541.98,1440.17 1547.5,1440C 1542.51,1439.5 1537.51,1439.33 1532.5,1439.5 Z"/></g>
<g><path style="opacity:0.98" fill="#8c1ff8" d="M 1547.5,1442.5 C 1557.11,1443.15 1566.11,1445.82 1574.5,1450.5C 1575.81,1453.11 1577.14,1455.78 1578.5,1458.5C 1578.54,1460.74 1577.7,1461.07 1576,1459.5C 1573.54,1461.57 1572.37,1460.57 1572.5,1456.5C 1570.64,1456.46 1569.31,1457.29 1568.5,1459C 1569.5,1459.33 1570.5,1459.67 1571.5,1460C 1570.62,1461.36 1570.29,1462.86 1570.5,1464.5C 1569.5,1464.5 1568.5,1464.5 1567.5,1464.5C 1567.99,1460.71 1567.16,1460.04 1565,1462.5C 1564.55,1465.77 1563.71,1468.93 1562.5,1472C 1564.91,1477.34 1563.91,1477.84 1559.5,1473.5C 1558.29,1474.58 1557.63,1475.91 1557.5,1477.5C 1556.78,1477.08 1556.28,1476.42 1556,1475.5C 1555.67,1476.17 1555.33,1476.83 1555,1477.5C 1554.8,1475.71 1553.97,1474.38 1552.5,1473.5C 1552.68,1475.31 1552.34,1477.31 1551.5,1479.5C 1549.38,1479.54 1547.38,1480.04 1545.5,1481C 1546.31,1481.31 1546.97,1481.81 1547.5,1482.5C 1547.15,1483.7 1546.65,1483.7 1546,1482.5C 1545.67,1483.5 1545.33,1484.5 1545,1485.5C 1544.29,1484.03 1543.12,1483.36 1541.5,1483.5C 1541.03,1485.2 1541.03,1486.7 1541.5,1488C 1540.72,1489.23 1539.72,1489.56 1538.5,1489C 1539.38,1485.55 1540.22,1482.05 1541,1478.5C 1543.25,1477.96 1545.09,1476.79 1546.5,1475C 1544.95,1474.67 1543.62,1475.17 1542.5,1476.5C 1541.01,1474.73 1539.18,1473.4 1537,1472.5C 1536.55,1474.41 1537.39,1475.58 1539.5,1476C 1538.71,1479.08 1538.21,1482.24 1538,1485.5C 1537.35,1486.7 1536.85,1486.7 1536.5,1485.5C 1537.93,1482.65 1537.26,1481.65 1534.5,1482.5C 1532.89,1485.16 1533.55,1486.99 1536.5,1488C 1535.8,1488.97 1535.8,1490.14 1536.5,1491.5C 1533.73,1498.6 1531.4,1498.77 1529.5,1492C 1529.72,1488.16 1530.05,1484.32 1530.5,1480.5C 1528.5,1480.5 1526.5,1480.5 1524.5,1480.5C 1525.14,1483.11 1525.14,1485.61 1524.5,1488C 1522.76,1489.64 1520.92,1489.8 1519,1488.5C 1518.05,1488.91 1517.39,1489.57 1517,1490.5C 1516.33,1489.75 1515.5,1489.41 1514.5,1489.5C 1515.12,1487.77 1516.12,1486.27 1517.5,1485C 1516.66,1483.99 1516.33,1482.82 1516.5,1481.5C 1517.5,1481.5 1518.5,1481.5 1519.5,1481.5C 1519.16,1478.84 1519.83,1476.51 1521.5,1474.5C 1521.29,1473.91 1520.96,1473.41 1520.5,1473C 1521.78,1472.32 1522.95,1472.48 1524,1473.5C 1525.11,1471.96 1526.61,1471.3 1528.5,1471.5C 1528.34,1473.53 1528.5,1475.53 1529,1477.5C 1530.33,1476.83 1531.33,1475.83 1532,1474.5C 1532.37,1472 1533.21,1469.67 1534.5,1467.5C 1533.15,1458.47 1535.15,1450.3 1540.5,1443C 1542.81,1442.5 1545.14,1442.34 1547.5,1442.5 Z"/></g>
<g><path style="opacity:0.953" fill="#891ef3" d="M 1531.5,1441.5 C 1537.03,1441.18 1542.36,1441.51 1547.5,1442.5C 1545.14,1442.34 1542.81,1442.5 1540.5,1443C 1535.15,1450.3 1533.15,1458.47 1534.5,1467.5C 1533.21,1469.67 1532.37,1472 1532,1474.5C 1531.33,1475.83 1530.33,1476.83 1529,1477.5C 1528.5,1475.53 1528.34,1473.53 1528.5,1471.5C 1526.61,1471.3 1525.11,1471.96 1524,1473.5C 1522.95,1472.48 1521.78,1472.32 1520.5,1473C 1520.96,1473.41 1521.29,1473.91 1521.5,1474.5C 1519.83,1476.51 1519.16,1478.84 1519.5,1481.5C 1518.5,1481.5 1517.5,1481.5 1516.5,1481.5C 1516.33,1482.82 1516.66,1483.99 1517.5,1485C 1516.12,1486.27 1515.12,1487.77 1514.5,1489.5C 1513.5,1489.5 1512.5,1489.5 1511.5,1489.5C 1512.07,1485.5 1512.74,1481.5 1513.5,1477.5C 1511.67,1474.35 1512.34,1473.35 1515.5,1474.5C 1516.29,1473.76 1516.95,1472.92 1517.5,1472C 1516.64,1471.31 1515.98,1470.48 1515.5,1469.5C 1515.91,1466.41 1516.58,1463.08 1517.5,1459.5C 1517.17,1459.17 1516.83,1458.83 1516.5,1458.5C 1515.73,1459.61 1514.73,1460.28 1513.5,1460.5C 1513.26,1457.42 1513.59,1454.42 1514.5,1451.5C 1512.81,1450.43 1511.15,1450.6 1509.5,1452C 1510.02,1452.56 1510.36,1453.23 1510.5,1454C 1509.72,1456.39 1508.56,1458.56 1507,1460.5C 1506,1459.17 1505,1457.83 1504,1456.5C 1502.98,1457.89 1502.15,1459.39 1501.5,1461C 1499.93,1460.62 1498.43,1460.79 1497,1461.5C 1495.35,1463.4 1495.02,1465.4 1496,1467.5C 1495.11,1466.29 1494.27,1466.29 1493.5,1467.5C 1490.47,1470.59 1490.31,1473.59 1493,1476.5C 1496.04,1471.19 1497.21,1471.85 1496.5,1478.5C 1495.5,1478.5 1494.5,1478.5 1493.5,1478.5C 1493.5,1479.5 1493.5,1480.5 1493.5,1481.5C 1492.18,1481.33 1491.01,1481.66 1490,1482.5C 1489.67,1479.17 1489.33,1475.83 1489,1472.5C 1488.38,1475.03 1487.38,1477.37 1486,1479.5C 1485.05,1473.43 1483.22,1473.1 1480.5,1478.5C 1479.75,1477.62 1479.25,1476.62 1479,1475.5C 1478.58,1476.76 1477.75,1477.42 1476.5,1477.5C 1488.68,1456.23 1507.02,1444.23 1531.5,1441.5 Z"/></g>
<g><path style="opacity:0.989" fill="#8a1ef4" d="M 1513.5,1460.5 C 1512,1464.42 1509.83,1468.09 1507,1471.5C 1506.8,1469.71 1505.97,1468.38 1504.5,1467.5C 1503.67,1469.54 1503.01,1471.71 1502.5,1474C 1502.17,1474.17 1501.83,1474.33 1501.5,1474.5C 1500.83,1472.83 1500.17,1471.17 1499.5,1469.5C 1498.71,1470.24 1498.05,1471.08 1497.5,1472C 1498.52,1472.52 1499.18,1473.35 1499.5,1474.5C 1498.09,1477.34 1497.26,1480.34 1497,1483.5C 1496.75,1482.38 1496.25,1481.38 1495.5,1480.5C 1495.17,1480.67 1494.83,1480.83 1494.5,1481C 1495.06,1482.68 1496.06,1484.01 1497.5,1485C 1496.42,1486.73 1496.26,1488.56 1497,1490.5C 1497.69,1489.64 1498.52,1488.98 1499.5,1488.5C 1500.16,1490.44 1500.49,1492.27 1500.5,1494C 1498.72,1498.04 1497.22,1502.2 1496,1506.5C 1495.67,1506.17 1495.33,1505.83 1495,1505.5C 1494.75,1506.62 1494.25,1507.62 1493.5,1508.5C 1494.7,1504.23 1494.7,1500.07 1493.5,1496C 1494.98,1494.81 1496.31,1494.31 1497.5,1494.5C 1496.5,1493.17 1495.5,1491.83 1494.5,1490.5C 1493.07,1494.01 1492.23,1497.68 1492,1501.5C 1489.47,1503.91 1487.97,1506.91 1487.5,1510.5C 1487.94,1511.51 1488.6,1511.51 1489.5,1510.5C 1489.83,1511.33 1490.17,1512.17 1490.5,1513C 1490.07,1514.93 1489.4,1516.76 1488.5,1518.5C 1491.1,1522.58 1490.93,1526.58 1488,1530.5C 1487.51,1529.21 1487.34,1527.87 1487.5,1526.5C 1484.39,1526.06 1483.72,1527.06 1485.5,1529.5C 1484.86,1532.47 1484.36,1535.47 1484,1538.5C 1482.19,1541.98 1480.02,1545.15 1477.5,1548C 1477.72,1549.62 1478.56,1550.79 1480,1551.5C 1481.1,1550.62 1481.6,1549.62 1481.5,1548.5C 1481.83,1549.17 1482.17,1549.83 1482.5,1550.5C 1481.39,1552.73 1481.39,1554.9 1482.5,1557C 1479.53,1559.18 1479.86,1560.34 1483.5,1560.5C 1483.68,1562.59 1483.35,1564.59 1482.5,1566.5C 1484.56,1567.95 1485.56,1569.95 1485.5,1572.5C 1468.89,1551.65 1462.89,1527.98 1467.5,1501.5C 1469.04,1499.16 1469.71,1496.5 1469.5,1493.5C 1470.17,1489.64 1471.34,1485.98 1473,1482.5C 1473.7,1480.42 1474.86,1478.75 1476.5,1477.5C 1477.75,1477.42 1478.58,1476.76 1479,1475.5C 1479.25,1476.62 1479.75,1477.62 1480.5,1478.5C 1483.22,1473.1 1485.05,1473.43 1486,1479.5C 1487.38,1477.37 1488.38,1475.03 1489,1472.5C 1489.33,1475.83 1489.67,1479.17 1490,1482.5C 1491.01,1481.66 1492.18,1481.33 1493.5,1481.5C 1493.5,1480.5 1493.5,1479.5 1493.5,1478.5C 1494.5,1478.5 1495.5,1478.5 1496.5,1478.5C 1497.21,1471.85 1496.04,1471.19 1493,1476.5C 1490.31,1473.59 1490.47,1470.59 1493.5,1467.5C 1494.27,1466.29 1495.11,1466.29 1496,1467.5C 1495.02,1465.4 1495.35,1463.4 1497,1461.5C 1498.43,1460.79 1499.93,1460.62 1501.5,1461C 1502.15,1459.39 1502.98,1457.89 1504,1456.5C 1505,1457.83 1506,1459.17 1507,1460.5C 1508.56,1458.56 1509.72,1456.39 1510.5,1454C 1510.36,1453.23 1510.02,1452.56 1509.5,1452C 1511.15,1450.6 1512.81,1450.43 1514.5,1451.5C 1513.59,1454.42 1513.26,1457.42 1513.5,1460.5 Z"/></g>
<g><path style="opacity:0.184" fill="#390158" d="M 1611.5,1463.5 C 1613.89,1465.27 1615.56,1467.6 1616.5,1470.5C 1612.91,1469.57 1611.24,1467.24 1611.5,1463.5 Z"/></g>
<g><path style="opacity:0.973" fill="#8b1ef5" d="M 1514.5,1489.5 C 1515.5,1489.41 1516.33,1489.75 1517,1490.5C 1517.39,1489.57 1518.05,1488.91 1519,1488.5C 1520.92,1489.8 1522.76,1489.64 1524.5,1488C 1525.14,1485.61 1525.14,1483.11 1524.5,1480.5C 1526.5,1480.5 1528.5,1480.5 1530.5,1480.5C 1530.05,1484.32 1529.72,1488.16 1529.5,1492C 1531.4,1498.77 1533.73,1498.6 1536.5,1491.5C 1535.8,1490.14 1535.8,1488.97 1536.5,1488C 1533.55,1486.99 1532.89,1485.16 1534.5,1482.5C 1537.26,1481.65 1537.93,1482.65 1536.5,1485.5C 1536.85,1486.7 1537.35,1486.7 1538,1485.5C 1538.21,1482.24 1538.71,1479.08 1539.5,1476C 1537.39,1475.58 1536.55,1474.41 1537,1472.5C 1539.18,1473.4 1541.01,1474.73 1542.5,1476.5C 1543.62,1475.17 1544.95,1474.67 1546.5,1475C 1545.09,1476.79 1543.25,1477.96 1541,1478.5C 1540.22,1482.05 1539.38,1485.55 1538.5,1489C 1539.72,1489.56 1540.72,1489.23 1541.5,1488C 1541.03,1486.7 1541.03,1485.2 1541.5,1483.5C 1543.12,1483.36 1544.29,1484.03 1545,1485.5C 1545.33,1484.5 1545.67,1483.5 1546,1482.5C 1546.65,1483.7 1547.15,1483.7 1547.5,1482.5C 1546.97,1481.81 1546.31,1481.31 1545.5,1481C 1547.38,1480.04 1549.38,1479.54 1551.5,1479.5C 1552.34,1477.31 1552.68,1475.31 1552.5,1473.5C 1553.97,1474.38 1554.8,1475.71 1555,1477.5C 1555.33,1476.83 1555.67,1476.17 1556,1475.5C 1556.28,1476.42 1556.78,1477.08 1557.5,1477.5C 1539.4,1494.49 1520.9,1511.16 1502,1527.5C 1499.16,1529.95 1498.99,1532.45 1501.5,1535C 1505.75,1536.19 1510.08,1536.69 1514.5,1536.5C 1515.78,1537.75 1516.78,1539.25 1517.5,1541C 1515.72,1545.38 1514.22,1549.88 1513,1554.5C 1512.26,1556.44 1512.42,1558.27 1513.5,1560C 1511.79,1560.2 1510.13,1560.2 1508.5,1560C 1507.91,1561.51 1507.24,1563.01 1506.5,1564.5C 1506.17,1564 1505.83,1563.5 1505.5,1563C 1506.82,1558.57 1507.32,1554.07 1507,1549.5C 1505.35,1550.89 1504.85,1552.39 1505.5,1554C 1504.69,1555.31 1503.69,1556.48 1502.5,1557.5C 1503.52,1559.43 1503.69,1561.43 1503,1563.5C 1502.11,1562.29 1501.27,1562.29 1500.5,1563.5C 1500.99,1564.45 1501.32,1565.45 1501.5,1566.5C 1501.15,1567.79 1500.48,1568.62 1499.5,1569C 1501.66,1572.46 1501.83,1575.96 1500,1579.5C 1498.94,1576.85 1497.1,1575.01 1494.5,1574C 1495.48,1571.85 1495.31,1569.69 1494,1567.5C 1493.81,1569.9 1493.31,1572.23 1492.5,1574.5C 1491.5,1573.83 1490.5,1573.17 1489.5,1572.5C 1488.27,1573.36 1486.94,1573.36 1485.5,1572.5C 1485.56,1569.95 1484.56,1567.95 1482.5,1566.5C 1483.35,1564.59 1483.68,1562.59 1483.5,1560.5C 1479.86,1560.34 1479.53,1559.18 1482.5,1557C 1481.39,1554.9 1481.39,1552.73 1482.5,1550.5C 1482.17,1549.83 1481.83,1549.17 1481.5,1548.5C 1481.6,1549.62 1481.1,1550.62 1480,1551.5C 1478.56,1550.79 1477.72,1549.62 1477.5,1548C 1480.02,1545.15 1482.19,1541.98 1484,1538.5C 1484.36,1535.47 1484.86,1532.47 1485.5,1529.5C 1483.72,1527.06 1484.39,1526.06 1487.5,1526.5C 1487.34,1527.87 1487.51,1529.21 1488,1530.5C 1490.93,1526.58 1491.1,1522.58 1488.5,1518.5C 1489.4,1516.76 1490.07,1514.93 1490.5,1513C 1490.17,1512.17 1489.83,1511.33 1489.5,1510.5C 1488.6,1511.51 1487.94,1511.51 1487.5,1510.5C 1487.97,1506.91 1489.47,1503.91 1492,1501.5C 1492.23,1497.68 1493.07,1494.01 1494.5,1490.5C 1495.5,1491.83 1496.5,1493.17 1497.5,1494.5C 1496.31,1494.31 1494.98,1494.81 1493.5,1496C 1494.7,1500.07 1494.7,1504.23 1493.5,1508.5C 1494.25,1507.62 1494.75,1506.62 1495,1505.5C 1495.33,1505.83 1495.67,1506.17 1496,1506.5C 1497.22,1502.2 1498.72,1498.04 1500.5,1494C 1500.49,1492.27 1500.16,1490.44 1499.5,1488.5C 1498.52,1488.98 1497.69,1489.64 1497,1490.5C 1496.26,1488.56 1496.42,1486.73 1497.5,1485C 1496.06,1484.01 1495.06,1482.68 1494.5,1481C 1494.83,1480.83 1495.17,1480.67 1495.5,1480.5C 1496.25,1481.38 1496.75,1482.38 1497,1483.5C 1497.26,1480.34 1498.09,1477.34 1499.5,1474.5C 1499.18,1473.35 1498.52,1472.52 1497.5,1472C 1498.05,1471.08 1498.71,1470.24 1499.5,1469.5C 1500.17,1471.17 1500.83,1472.83 1501.5,1474.5C 1501.83,1474.33 1502.17,1474.17 1502.5,1474C 1503.01,1471.71 1503.67,1469.54 1504.5,1467.5C 1505.97,1468.38 1506.8,1469.71 1507,1471.5C 1509.83,1468.09 1512,1464.42 1513.5,1460.5C 1514.73,1460.28 1515.73,1459.61 1516.5,1458.5C 1516.83,1458.83 1517.17,1459.17 1517.5,1459.5C 1516.58,1463.08 1515.91,1466.41 1515.5,1469.5C 1515.98,1470.48 1516.64,1471.31 1517.5,1472C 1516.95,1472.92 1516.29,1473.76 1515.5,1474.5C 1512.34,1473.35 1511.67,1474.35 1513.5,1477.5C 1512.74,1481.5 1512.07,1485.5 1511.5,1489.5C 1512.5,1489.5 1513.5,1489.5 1514.5,1489.5 Z"/></g>
<g><path style="opacity:0.963" fill="#891ef1" d="M 1574.5,1450.5 C 1613.45,1473.75 1628.45,1507.75 1619.5,1552.5C 1613.54,1565.81 1605.54,1577.81 1595.5,1588.5C 1590.51,1591.82 1585.51,1595.15 1580.5,1598.5C 1576.53,1600.15 1572.53,1601.49 1568.5,1602.5C 1568.17,1602.5 1567.83,1602.5 1567.5,1602.5C 1568.18,1600.82 1569.52,1600.16 1571.5,1600.5C 1571.47,1595.13 1573.97,1591.46 1579,1589.5C 1579.63,1587.29 1579.46,1585.12 1578.5,1583C 1578.82,1581.35 1579.82,1580.35 1581.5,1580C 1580.66,1576.92 1580.66,1574.08 1581.5,1571.5C 1583.57,1570.87 1585.4,1569.87 1587,1568.5C 1586.84,1570.81 1586.84,1573.14 1587,1575.5C 1587.62,1571.05 1589.45,1567.22 1592.5,1564C 1595.18,1564.45 1595.18,1565.45 1592.5,1567C 1593.79,1567.49 1595.13,1567.66 1596.5,1567.5C 1596.35,1570.72 1595.52,1571.05 1594,1568.5C 1591.93,1570.45 1591.26,1572.79 1592,1575.5C 1592.67,1574.83 1593.33,1574.17 1594,1573.5C 1595,1574.83 1596,1574.83 1597,1573.5C 1597.83,1569.82 1598.67,1566.15 1599.5,1562.5C 1598.18,1562.69 1596.85,1562.02 1595.5,1560.5C 1594.37,1558.93 1594.2,1557.26 1595,1555.5C 1595.65,1554.3 1596.15,1554.3 1596.5,1555.5C 1595.36,1556.89 1595.36,1558.22 1596.5,1559.5C 1597.83,1559.17 1599.17,1558.83 1600.5,1558.5C 1604.15,1551.72 1604.15,1545.06 1600.5,1538.5C 1599.17,1539.17 1597.83,1539.83 1596.5,1540.5C 1596.17,1539.5 1595.83,1538.5 1595.5,1537.5C 1596.24,1535 1597.08,1532.67 1598,1530.5C 1596.99,1531.34 1595.82,1531.67 1594.5,1531.5C 1594.76,1532.98 1594.43,1534.31 1593.5,1535.5C 1592.07,1534.06 1590.9,1532.4 1590,1530.5C 1589.38,1531.45 1589.55,1532.28 1590.5,1533C 1588.04,1533.95 1586.04,1533.45 1584.5,1531.5C 1588.04,1528.86 1588.71,1525.86 1586.5,1522.5C 1589.34,1519.83 1590.51,1516.49 1590,1512.5C 1589.03,1514.39 1588.36,1516.39 1588,1518.5C 1585.93,1515.86 1586.09,1513.36 1588.5,1511C 1587.96,1508.89 1586.96,1508.39 1585.5,1509.5C 1585.17,1509 1584.83,1508.5 1584.5,1508C 1589.72,1497.11 1591.88,1485.61 1591,1473.5C 1590.32,1475.69 1589.16,1476.02 1587.5,1474.5C 1586.18,1477.03 1585.02,1477.03 1584,1474.5C 1582.33,1476.83 1580.33,1478.83 1578,1480.5C 1578.43,1472.97 1576.76,1472.64 1573,1479.5C 1572.67,1479.17 1572.33,1478.83 1572,1478.5C 1571.02,1480.32 1569.52,1481.49 1567.5,1482C 1568.8,1482.8 1569.47,1483.97 1569.5,1485.5C 1566.91,1495.7 1563.91,1505.7 1560.5,1515.5C 1565.32,1516.17 1569.98,1516.83 1574.5,1517.5C 1566.51,1517.96 1558.68,1517.29 1551,1515.5C 1550.33,1514.5 1550.33,1513.5 1551,1512.5C 1555.64,1502.06 1560.14,1491.56 1564.5,1481C 1564.41,1479.89 1564.08,1478.89 1563.5,1478C 1561.53,1477.5 1559.53,1477.34 1557.5,1477.5C 1557.63,1475.91 1558.29,1474.58 1559.5,1473.5C 1563.91,1477.84 1564.91,1477.34 1562.5,1472C 1563.71,1468.93 1564.55,1465.77 1565,1462.5C 1567.16,1460.04 1567.99,1460.71 1567.5,1464.5C 1568.5,1464.5 1569.5,1464.5 1570.5,1464.5C 1570.29,1462.86 1570.62,1461.36 1571.5,1460C 1570.5,1459.67 1569.5,1459.33 1568.5,1459C 1569.31,1457.29 1570.64,1456.46 1572.5,1456.5C 1572.37,1460.57 1573.54,1461.57 1576,1459.5C 1577.7,1461.07 1578.54,1460.74 1578.5,1458.5C 1577.14,1455.78 1575.81,1453.11 1574.5,1450.5 Z"/></g>
<g><path style="opacity:0.533" fill="#340e5b" d="M 1468.5,1481.5 C 1469.12,1481.92 1469.46,1482.58 1469.5,1483.5C 1468.54,1485.75 1467.87,1488.08 1467.5,1490.5C 1467.64,1492.03 1468.31,1493.03 1469.5,1493.5C 1469.71,1496.5 1469.04,1499.16 1467.5,1501.5C 1467.84,1498.99 1467.84,1496.66 1467.5,1494.5C 1466.68,1496.36 1465.68,1498.03 1464.5,1499.5C 1465.91,1495.31 1466.57,1490.98 1466.5,1486.5C 1466.4,1484.45 1467.07,1482.78 1468.5,1481.5 Z"/></g>
<g><path style="opacity:0.982" fill="#8c1ff8" d="M 1567.5,1602.5 C 1566.43,1603.43 1565.1,1603.77 1563.5,1603.5C 1555.89,1604.43 1548.22,1604.77 1540.5,1604.5C 1542.66,1602.79 1543.83,1600.46 1544,1597.5C 1544.85,1599.12 1545.85,1599.46 1547,1598.5C 1547.77,1591.41 1549.77,1584.74 1553,1578.5C 1553.64,1579.61 1554.14,1580.78 1554.5,1582C 1551.04,1593.18 1552.38,1594.02 1558.5,1584.5C 1557.83,1583.5 1557.17,1582.5 1556.5,1581.5C 1558.76,1579.59 1558.93,1577.59 1557,1575.5C 1556.67,1576.5 1556.33,1577.5 1556,1578.5C 1555.63,1575.12 1555.63,1571.79 1556,1568.5C 1554.72,1570.72 1553.72,1573.05 1553,1575.5C 1552.83,1574.67 1552.67,1573.83 1552.5,1573C 1554.21,1567.54 1556.21,1561.87 1558.5,1556C 1557.35,1555.09 1557.51,1554.25 1559,1553.5C 1559.33,1554.5 1559.67,1555.5 1560,1556.5C 1560.84,1554.99 1562,1554.49 1563.5,1555C 1561.23,1558.49 1558.9,1561.99 1556.5,1565.5C 1556.83,1566.17 1557.17,1566.83 1557.5,1567.5C 1558.43,1566.36 1559.26,1566.36 1560,1567.5C 1562.7,1564.36 1564.03,1560.7 1564,1556.5C 1564.33,1557.5 1564.67,1558.5 1565,1559.5C 1566.77,1557.4 1568.1,1555.07 1569,1552.5C 1570.98,1554.36 1571.98,1556.69 1572,1559.5C 1575.44,1560.39 1575.94,1559.56 1573.5,1557C 1573.96,1556.59 1574.29,1556.09 1574.5,1555.5C 1572.13,1552.9 1571.3,1549.9 1572,1546.5C 1572.39,1547.43 1573.05,1548.09 1574,1548.5C 1575.66,1547.52 1577.32,1546.52 1579,1545.5C 1579.39,1543.8 1578.89,1542.3 1577.5,1541C 1577.76,1538.85 1578.76,1537.18 1580.5,1536C 1579.69,1535.69 1579.03,1535.19 1578.5,1534.5C 1579.63,1533.74 1580.79,1533.07 1582,1532.5C 1582.22,1527.71 1583.05,1523.04 1584.5,1518.5C 1581.87,1517.91 1578.87,1517.58 1575.5,1517.5C 1575.17,1517.5 1574.83,1517.5 1574.5,1517.5C 1569.98,1516.83 1565.32,1516.17 1560.5,1515.5C 1563.91,1505.7 1566.91,1495.7 1569.5,1485.5C 1569.47,1483.97 1568.8,1482.8 1567.5,1482C 1569.52,1481.49 1571.02,1480.32 1572,1478.5C 1572.33,1478.83 1572.67,1479.17 1573,1479.5C 1576.76,1472.64 1578.43,1472.97 1578,1480.5C 1580.33,1478.83 1582.33,1476.83 1584,1474.5C 1585.02,1477.03 1586.18,1477.03 1587.5,1474.5C 1589.16,1476.02 1590.32,1475.69 1591,1473.5C 1591.88,1485.61 1589.72,1497.11 1584.5,1508C 1584.83,1508.5 1585.17,1509 1585.5,1509.5C 1586.96,1508.39 1587.96,1508.89 1588.5,1511C 1586.09,1513.36 1585.93,1515.86 1588,1518.5C 1588.36,1516.39 1589.03,1514.39 1590,1512.5C 1590.51,1516.49 1589.34,1519.83 1586.5,1522.5C 1588.71,1525.86 1588.04,1528.86 1584.5,1531.5C 1586.04,1533.45 1588.04,1533.95 1590.5,1533C 1589.55,1532.28 1589.38,1531.45 1590,1530.5C 1590.9,1532.4 1592.07,1534.06 1593.5,1535.5C 1594.43,1534.31 1594.76,1532.98 1594.5,1531.5C 1595.82,1531.67 1596.99,1531.34 1598,1530.5C 1597.08,1532.67 1596.24,1535 1595.5,1537.5C 1595.83,1538.5 1596.17,1539.5 1596.5,1540.5C 1597.83,1539.83 1599.17,1539.17 1600.5,1538.5C 1604.15,1545.06 1604.15,1551.72 1600.5,1558.5C 1599.17,1558.83 1597.83,1559.17 1596.5,1559.5C 1595.36,1558.22 1595.36,1556.89 1596.5,1555.5C 1596.15,1554.3 1595.65,1554.3 1595,1555.5C 1594.2,1557.26 1594.37,1558.93 1595.5,1560.5C 1596.85,1562.02 1598.18,1562.69 1599.5,1562.5C 1598.67,1566.15 1597.83,1569.82 1597,1573.5C 1596,1574.83 1595,1574.83 1594,1573.5C 1593.33,1574.17 1592.67,1574.83 1592,1575.5C 1591.26,1572.79 1591.93,1570.45 1594,1568.5C 1595.52,1571.05 1596.35,1570.72 1596.5,1567.5C 1595.13,1567.66 1593.79,1567.49 1592.5,1567C 1595.18,1565.45 1595.18,1564.45 1592.5,1564C 1589.45,1567.22 1587.62,1571.05 1587,1575.5C 1586.84,1573.14 1586.84,1570.81 1587,1568.5C 1585.4,1569.87 1583.57,1570.87 1581.5,1571.5C 1580.66,1574.08 1580.66,1576.92 1581.5,1580C 1579.82,1580.35 1578.82,1581.35 1578.5,1583C 1579.46,1585.12 1579.63,1587.29 1579,1589.5C 1573.97,1591.46 1571.47,1595.13 1571.5,1600.5C 1569.52,1600.16 1568.18,1600.82 1567.5,1602.5 Z"/></g>
<g><path style="opacity:0.995" fill="#490091" d="M 1551.5,1436.5 C 1557.62,1436.93 1563.62,1438.09 1569.5,1440C 1607.48,1454.74 1627.81,1482.57 1630.5,1523.5C 1630.43,1528.85 1630.1,1534.19 1629.5,1539.5C 1629.31,1543.26 1628.64,1546.93 1627.5,1550.5C 1623.76,1560.55 1618.42,1569.55 1611.5,1577.5C 1615.54,1570.09 1619.04,1562.43 1622,1554.5C 1627.48,1530.49 1624.81,1507.49 1614,1485.5C 1597.81,1457.5 1573.64,1441.83 1541.5,1438.5C 1540.05,1437.7 1538.38,1437.2 1536.5,1437C 1541.49,1436.5 1546.49,1436.33 1551.5,1436.5 Z"/></g>
<g><path style="opacity:0.063" fill="#9317f3" d="M 1466.5,1486.5 C 1466.57,1490.98 1465.91,1495.31 1464.5,1499.5C 1461.62,1514.99 1462.29,1530.32 1466.5,1545.5C 1463.2,1537.43 1459.54,1529.6 1455.5,1522C 1456.17,1521.33 1456.83,1520.67 1457.5,1520C 1455.27,1517 1455.93,1514.34 1459.5,1512C 1458.98,1511.44 1458.64,1510.77 1458.5,1510C 1462.11,1502.42 1464.77,1494.59 1466.5,1486.5 Z"/></g>
<g><path style="opacity:0.865" fill="#1f0240" d="M 1630.5,1523.5 C 1631.86,1528.91 1631.52,1534.24 1629.5,1539.5C 1630.1,1534.19 1630.43,1528.85 1630.5,1523.5 Z"/></g>
<g><path style="opacity:0.024" fill="#8616de" d="M 1468.5,1552.5 C 1470.97,1554.9 1472.31,1557.9 1472.5,1561.5C 1468.99,1559.57 1467.66,1556.57 1468.5,1552.5 Z"/></g>
<g><path style="opacity:0.999" fill="#8b1ff5" d="M 1575.5,1517.5 C 1578.87,1517.58 1581.87,1517.91 1584.5,1518.5C 1583.05,1523.04 1582.22,1527.71 1582,1532.5C 1580.79,1533.07 1579.63,1533.74 1578.5,1534.5C 1579.03,1535.19 1579.69,1535.69 1580.5,1536C 1578.76,1537.18 1577.76,1538.85 1577.5,1541C 1578.89,1542.3 1579.39,1543.8 1579,1545.5C 1577.32,1546.52 1575.66,1547.52 1574,1548.5C 1573.05,1548.09 1572.39,1547.43 1572,1546.5C 1571.3,1549.9 1572.13,1552.9 1574.5,1555.5C 1574.29,1556.09 1573.96,1556.59 1573.5,1557C 1575.94,1559.56 1575.44,1560.39 1572,1559.5C 1571.98,1556.69 1570.98,1554.36 1569,1552.5C 1568.1,1555.07 1566.77,1557.4 1565,1559.5C 1564.67,1558.5 1564.33,1557.5 1564,1556.5C 1564.03,1560.7 1562.7,1564.36 1560,1567.5C 1559.26,1566.36 1558.43,1566.36 1557.5,1567.5C 1557.17,1566.83 1556.83,1566.17 1556.5,1565.5C 1558.9,1561.99 1561.23,1558.49 1563.5,1555C 1562,1554.49 1560.84,1554.99 1560,1556.5C 1559.67,1555.5 1559.33,1554.5 1559,1553.5C 1557.51,1554.25 1557.35,1555.09 1558.5,1556C 1556.21,1561.87 1554.21,1567.54 1552.5,1573C 1552.67,1573.83 1552.83,1574.67 1553,1575.5C 1553.72,1573.05 1554.72,1570.72 1556,1568.5C 1555.63,1571.79 1555.63,1575.12 1556,1578.5C 1556.33,1577.5 1556.67,1576.5 1557,1575.5C 1558.93,1577.59 1558.76,1579.59 1556.5,1581.5C 1557.17,1582.5 1557.83,1583.5 1558.5,1584.5C 1552.38,1594.02 1551.04,1593.18 1554.5,1582C 1554.14,1580.78 1553.64,1579.61 1553,1578.5C 1549.77,1584.74 1547.77,1591.41 1547,1598.5C 1545.85,1599.46 1544.85,1599.12 1544,1597.5C 1543.83,1600.46 1542.66,1602.79 1540.5,1604.5C 1535.89,1603.56 1531.22,1602.89 1526.5,1602.5C 1525.29,1602.07 1524.29,1601.4 1523.5,1600.5C 1520.43,1599.75 1518.76,1597.75 1518.5,1594.5C 1519.28,1592.22 1520.28,1590.06 1521.5,1588C 1520.02,1584.15 1521.19,1582.98 1525,1584.5C 1525.45,1582.41 1524.61,1580.91 1522.5,1580C 1524.53,1578.71 1525.53,1577.21 1525.5,1575.5C 1527.23,1576.03 1528.56,1577.03 1529.5,1578.5C 1527.73,1581.79 1526.4,1585.29 1525.5,1589C 1526.05,1592.2 1526.39,1595.37 1526.5,1598.5C 1527.43,1596.89 1528.26,1595.22 1529,1593.5C 1530.59,1594.38 1532.09,1595.38 1533.5,1596.5C 1535.01,1595.77 1536.34,1595.44 1537.5,1595.5C 1534.76,1593.3 1534.92,1591.3 1538,1589.5C 1537.82,1584.67 1536.32,1584.34 1533.5,1588.5C 1532.35,1587.86 1531.35,1587.02 1530.5,1586C 1530.15,1581.67 1530.82,1577.33 1532.5,1573C 1532.26,1572.13 1531.93,1571.29 1531.5,1570.5C 1532.75,1568.68 1533.41,1566.68 1533.5,1564.5C 1546.49,1551.17 1560.49,1539 1575.5,1528C 1579.19,1525.83 1580.86,1522.66 1580.5,1518.5C 1578.59,1518.78 1576.92,1518.45 1575.5,1517.5 Z"/></g>
<g><path style="opacity:0.227" fill="#3d006a" d="M 1625.5,1565.5 C 1625.25,1567.67 1624.25,1569.34 1622.5,1570.5C 1621.18,1567.76 1622.18,1566.1 1625.5,1565.5 Z"/></g>
<g><path style="opacity:0.945" fill="#1f1826" d="M 1557.5,1477.5 C 1559.53,1477.34 1561.53,1477.5 1563.5,1478C 1564.08,1478.89 1564.41,1479.89 1564.5,1481C 1560.14,1491.56 1555.64,1502.06 1551,1512.5C 1550.33,1513.5 1550.33,1514.5 1551,1515.5C 1558.68,1517.29 1566.51,1517.96 1574.5,1517.5C 1574.83,1517.5 1575.17,1517.5 1575.5,1517.5C 1576.92,1518.45 1578.59,1518.78 1580.5,1518.5C 1580.86,1522.66 1579.19,1525.83 1575.5,1528C 1560.49,1539 1546.49,1551.17 1533.5,1564.5C 1530.68,1566.42 1528.01,1568.59 1525.5,1571C 1523.35,1572.41 1521.02,1573.24 1518.5,1573.5C 1518.34,1571.14 1518.5,1568.81 1519,1566.5C 1523.8,1556.57 1528.3,1546.57 1532.5,1536.5C 1526.5,1536.5 1520.5,1536.5 1514.5,1536.5C 1510.08,1536.69 1505.75,1536.19 1501.5,1535C 1498.99,1532.45 1499.16,1529.95 1502,1527.5C 1520.9,1511.16 1539.4,1494.49 1557.5,1477.5 Z"/></g>
<g><path style="opacity:0.999" fill="#f7f7f7" d="M 1557.5,1480.5 C 1558.83,1480.5 1560.17,1480.5 1561.5,1480.5C 1559.02,1487.48 1556.52,1494.48 1554,1501.5C 1550.61,1506.85 1548.11,1512.51 1546.5,1518.5C 1556.97,1518.88 1567.3,1520.21 1577.5,1522.5C 1572.75,1527.38 1567.42,1531.55 1561.5,1535C 1548.64,1547.86 1535.14,1560.03 1521,1571.5C 1520.5,1571.17 1520,1570.83 1519.5,1570.5C 1525.61,1558.96 1530.61,1546.96 1534.5,1534.5C 1525.49,1534.67 1516.49,1534.5 1507.5,1534C 1505,1533.87 1503,1532.87 1501.5,1531C 1520.34,1514.33 1539,1497.5 1557.5,1480.5 Z"/></g>
<g><path style="opacity:0.965" fill="#891df0" d="M 1514.5,1536.5 C 1520.5,1536.5 1526.5,1536.5 1532.5,1536.5C 1528.3,1546.57 1523.8,1556.57 1519,1566.5C 1518.5,1568.81 1518.34,1571.14 1518.5,1573.5C 1521.02,1573.24 1523.35,1572.41 1525.5,1571C 1528.01,1568.59 1530.68,1566.42 1533.5,1564.5C 1533.41,1566.68 1532.75,1568.68 1531.5,1570.5C 1531.93,1571.29 1532.26,1572.13 1532.5,1573C 1530.82,1577.33 1530.15,1581.67 1530.5,1586C 1531.35,1587.02 1532.35,1587.86 1533.5,1588.5C 1536.32,1584.34 1537.82,1584.67 1538,1589.5C 1534.92,1591.3 1534.76,1593.3 1537.5,1595.5C 1536.34,1595.44 1535.01,1595.77 1533.5,1596.5C 1532.09,1595.38 1530.59,1594.38 1529,1593.5C 1528.26,1595.22 1527.43,1596.89 1526.5,1598.5C 1526.39,1595.37 1526.05,1592.2 1525.5,1589C 1526.4,1585.29 1527.73,1581.79 1529.5,1578.5C 1528.56,1577.03 1527.23,1576.03 1525.5,1575.5C 1525.53,1577.21 1524.53,1578.71 1522.5,1580C 1524.61,1580.91 1525.45,1582.41 1525,1584.5C 1521.19,1582.98 1520.02,1584.15 1521.5,1588C 1520.28,1590.06 1519.28,1592.22 1518.5,1594.5C 1518.76,1597.75 1520.43,1599.75 1523.5,1600.5C 1507.6,1595.55 1494.94,1586.22 1485.5,1572.5C 1486.94,1573.36 1488.27,1573.36 1489.5,1572.5C 1490.5,1573.17 1491.5,1573.83 1492.5,1574.5C 1493.31,1572.23 1493.81,1569.9 1494,1567.5C 1495.31,1569.69 1495.48,1571.85 1494.5,1574C 1497.1,1575.01 1498.94,1576.85 1500,1579.5C 1501.83,1575.96 1501.66,1572.46 1499.5,1569C 1500.48,1568.62 1501.15,1567.79 1501.5,1566.5C 1501.32,1565.45 1500.99,1564.45 1500.5,1563.5C 1501.27,1562.29 1502.11,1562.29 1503,1563.5C 1503.69,1561.43 1503.52,1559.43 1502.5,1557.5C 1503.69,1556.48 1504.69,1555.31 1505.5,1554C 1504.85,1552.39 1505.35,1550.89 1507,1549.5C 1507.32,1554.07 1506.82,1558.57 1505.5,1563C 1505.83,1563.5 1506.17,1564 1506.5,1564.5C 1507.24,1563.01 1507.91,1561.51 1508.5,1560C 1510.13,1560.2 1511.79,1560.2 1513.5,1560C 1512.42,1558.27 1512.26,1556.44 1513,1554.5C 1514.22,1549.88 1515.72,1545.38 1517.5,1541C 1516.78,1539.25 1515.78,1537.75 1514.5,1536.5 Z"/></g>
<g><path style="opacity:0.009" fill="#9511f3" d="M 1475.5,1567.5 C 1480.14,1573.14 1484.8,1578.81 1489.5,1584.5C 1491.63,1586.09 1493.63,1587.92 1495.5,1590C 1498.71,1590.91 1501.04,1592.74 1502.5,1595.5C 1498.74,1594.88 1495.08,1593.88 1491.5,1592.5C 1490.59,1591.67 1489.92,1590.67 1489.5,1589.5C 1486.31,1588.64 1483.64,1586.97 1481.5,1584.5C 1481.71,1583.91 1482.04,1583.41 1482.5,1583C 1481.01,1578.87 1478.85,1575.04 1476,1571.5C 1475.51,1570.21 1475.34,1568.87 1475.5,1567.5 Z"/></g>
<g><path style="opacity:0.067" fill="#44028d" d="M 1617.5,1577.5 C 1616.54,1581.45 1614.21,1584.12 1610.5,1585.5C 1611,1581.13 1613.34,1578.46 1617.5,1577.5 Z"/></g>
<g><path style="opacity:0.561" fill="#0e0215" d="M 1467.5,1501.5 C 1462.89,1527.98 1468.89,1551.65 1485.5,1572.5C 1494.94,1586.22 1507.6,1595.55 1523.5,1600.5C 1524.29,1601.4 1525.29,1602.07 1526.5,1602.5C 1534.02,1604.87 1541.85,1605.87 1550,1605.5C 1554.17,1605.33 1558.33,1605.17 1562.5,1605C 1563.06,1604.62 1563.39,1604.12 1563.5,1603.5C 1565.1,1603.77 1566.43,1603.43 1567.5,1602.5C 1567.83,1602.5 1568.17,1602.5 1568.5,1602.5C 1571.91,1602.54 1575.24,1602.04 1578.5,1601C 1579.38,1600.29 1580.05,1599.46 1580.5,1598.5C 1581.87,1598.66 1583.21,1598.49 1584.5,1598C 1587.33,1595.17 1590.66,1593.17 1594.5,1592C 1595.34,1590.99 1595.67,1589.82 1595.5,1588.5C 1598.51,1587.33 1601.18,1585.66 1603.5,1583.5C 1605.41,1583.43 1606.58,1582.43 1607,1580.5C 1609.53,1581.52 1611.03,1580.52 1611.5,1577.5C 1618.42,1569.55 1623.76,1560.55 1627.5,1550.5C 1629.1,1550.23 1630.43,1550.57 1631.5,1551.5C 1630.08,1556.44 1628.08,1561.1 1625.5,1565.5C 1622.18,1566.1 1621.18,1567.76 1622.5,1570.5C 1621.19,1573.14 1619.52,1575.47 1617.5,1577.5C 1613.34,1578.46 1611,1581.13 1610.5,1585.5C 1607.01,1588.41 1603.34,1591.08 1599.5,1593.5C 1595.61,1594.27 1592.61,1596.27 1590.5,1599.5C 1584.54,1602.98 1578.2,1605.65 1571.5,1607.5C 1569.71,1607.37 1568.04,1607.7 1566.5,1608.5C 1560.5,1609.5 1554.5,1610.5 1548.5,1611.5C 1548.39,1610.88 1548.06,1610.38 1547.5,1610C 1542.17,1609.43 1536.83,1608.93 1531.5,1608.5C 1530.83,1608.5 1530.17,1608.5 1529.5,1608.5C 1525.76,1605.47 1521.43,1603.81 1516.5,1603.5C 1514.8,1601.81 1512.8,1600.47 1510.5,1599.5C 1507.52,1598.67 1504.85,1597.34 1502.5,1595.5C 1501.04,1592.74 1498.71,1590.91 1495.5,1590C 1493.63,1587.92 1491.63,1586.09 1489.5,1584.5C 1484.8,1578.81 1480.14,1573.14 1475.5,1567.5C 1474.5,1565.5 1473.5,1563.5 1472.5,1561.5C 1472.31,1557.9 1470.97,1554.9 1468.5,1552.5C 1467.54,1550.25 1466.88,1547.92 1466.5,1545.5C 1462.29,1530.32 1461.62,1514.99 1464.5,1499.5C 1465.68,1498.03 1466.68,1496.36 1467.5,1494.5C 1467.84,1496.66 1467.84,1498.99 1467.5,1501.5 Z"/></g>
<g><path style="opacity:0.851" fill="#3f0e70" d="M 1595.5,1588.5 C 1595.67,1589.82 1595.34,1590.99 1594.5,1592C 1590.66,1593.17 1587.33,1595.17 1584.5,1598C 1583.21,1598.49 1581.87,1598.66 1580.5,1598.5C 1585.51,1595.15 1590.51,1591.82 1595.5,1588.5 Z"/></g>
<g><path style="opacity:0.949" fill="#440b7c" d="M 1619.5,1552.5 C 1618.6,1557.58 1616.93,1562.41 1614.5,1567C 1610.98,1572.67 1607.31,1578.17 1603.5,1583.5C 1601.18,1585.66 1598.51,1587.33 1595.5,1588.5C 1605.54,1577.81 1613.54,1565.81 1619.5,1552.5 Z"/></g>
<g><path style="opacity:0.027" fill="#7d1ada" d="M 1599.5,1593.5 C 1597.05,1596.28 1594.05,1598.28 1590.5,1599.5C 1592.61,1596.27 1595.61,1594.27 1599.5,1593.5 Z"/></g>
<g><path style="opacity:0.012" fill="#840ef6" d="M 1510.5,1599.5 C 1512.8,1600.47 1514.8,1601.81 1516.5,1603.5C 1513.66,1603.32 1511.66,1601.98 1510.5,1599.5 Z"/></g>
<g><path style="opacity:0.933" fill="#4d128a" d="M 1580.5,1598.5 C 1580.05,1599.46 1579.38,1600.29 1578.5,1601C 1575.24,1602.04 1571.91,1602.54 1568.5,1602.5C 1572.53,1601.49 1576.53,1600.15 1580.5,1598.5 Z"/></g>
<g><path style="opacity:0.757" fill="#51128f" d="M 1526.5,1602.5 C 1531.22,1602.89 1535.89,1603.56 1540.5,1604.5C 1548.22,1604.77 1555.89,1604.43 1563.5,1603.5C 1563.39,1604.12 1563.06,1604.62 1562.5,1605C 1558.33,1605.17 1554.17,1605.33 1550,1605.5C 1541.85,1605.87 1534.02,1604.87 1526.5,1602.5 Z"/></g>
<g><path style="opacity:0.02" fill="#8c1ff0" d="M 1516.5,1603.5 C 1521.43,1603.81 1525.76,1605.47 1529.5,1608.5C 1526.73,1609.41 1524.07,1609.75 1521.5,1609.5C 1518.44,1608.65 1516.77,1606.65 1516.5,1603.5 Z"/></g>
<g><path style="opacity:0.106" fill="#8310ea" d="M 1571.5,1607.5 C 1570,1609.34 1568.34,1609.68 1566.5,1608.5C 1568.04,1607.7 1569.71,1607.37 1571.5,1607.5 Z"/></g>
<g><path style="opacity:0.024" fill="#8917f2" d="M 1531.5,1608.5 C 1536.83,1608.93 1542.17,1609.43 1547.5,1610C 1548.06,1610.38 1548.39,1610.88 1548.5,1611.5C 1545.01,1613.11 1541.01,1613.61 1536.5,1613C 1534.34,1612 1532.67,1610.5 1531.5,1608.5 Z"/></g>
</svg>
