<?xml version="1.0" encoding="UTF-8"?>
<!DOCTYPE svg PUBLIC "-//W3C//DTD SVG 1.1//EN" "http://www.w3.org/Graphics/SVG/1.1/DTD/svg11.dtd">
<svg xmlns="http://www.w3.org/2000/svg" version="1.1" width="2048px" height="2048px" style="shape-rendering:geometricPrecision; text-rendering:geometricPrecision; image-rendering:optimizeQuality; fill-rule:evenodd; clip-rule:evenodd" xmlns:xlink="http://www.w3.org/1999/xlink">
<g><path style="opacity:0.007" fill="#000000" d="M 1181.5,1366.5 C 1185.48,1366.47 1186.48,1368.14 1184.5,1371.5C 1183.5,1371.5 1182.5,1371.5 1181.5,1371.5C 1181.5,1370.5 1181.5,1369.5 1181.5,1368.5C 1180.45,1368.65 1179.45,1368.48 1178.5,1368C 1179.74,1367.77 1180.74,1367.27 1181.5,1366.5 Z"/></g>
<g><path style="opacity:0.004" fill="#000000" d="M 1175.5,1369.5 C 1176.83,1370.17 1176.83,1370.17 1175.5,1369.5 Z"/></g>
<g><path style="opacity:0.004" fill="#000000" d="M 1180.5,1372.5 C 1181.83,1373.17 1181.83,1373.17 1180.5,1372.5 Z"/></g>
<g><path style="opacity:0.004" fill="#000000" d="M 1180.5,1376.5 C 1181.83,1377.17 1181.83,1377.17 1180.5,1376.5 Z"/></g>
<g><path style="opacity:0.004" fill="#000000" d="M 1182.5,1376.5 C 1183.83,1377.17 1183.83,1377.17 1182.5,1376.5 Z"/></g>
<g><path style="opacity:0.004" fill="#000000" d="M 1181.5,1379.5 C 1180.83,1378.17 1180.83,1378.17 1181.5,1379.5 Z"/></g>
<g><path style="opacity:0.133" fill="#726a00" d="M 1115.5,1381.5 C 1113.49,1382.92 1111.15,1383.59 1108.5,1383.5C 1110.44,1381.84 1112.77,1381.17 1115.5,1381.5 Z"/></g>
<g><path style="opacity:0.885" fill="#030303" d="M 1175.5,1370.5 C 1175.99,1371.47 1176.49,1372.47 1177,1373.5C 1178.67,1372.66 1178.83,1373.16 1177.5,1375C 1178.74,1375.23 1179.74,1375.73 1180.5,1376.5C 1179.5,1376.5 1178.5,1376.5 1177.5,1376.5C 1177.69,1379.57 1179.03,1380.57 1181.5,1379.5C 1182.56,1380.6 1183.39,1381.93 1184,1383.5C 1184.41,1383.04 1184.91,1382.71 1185.5,1382.5C 1186.52,1383.85 1187.86,1384.52 1189.5,1384.5C 1189.6,1386.7 1190.27,1388.7 1191.5,1390.5C 1190.17,1390.83 1190.17,1391.17 1191.5,1391.5C 1189.55,1393.74 1187.21,1394.08 1184.5,1392.5C 1184.65,1389.07 1183.48,1388.74 1181,1391.5C 1180.67,1391.17 1180.33,1390.83 1180,1390.5C 1179.68,1392.55 1180.01,1394.55 1181,1396.5C 1185.59,1399.76 1190.42,1402.59 1195.5,1405C 1195.17,1405.33 1194.83,1405.67 1194.5,1406C 1195.45,1406.48 1196.45,1406.65 1197.5,1406.5C 1206.45,1433.63 1214.78,1460.96 1222.5,1488.5C 1221.68,1489.39 1220.68,1489.72 1219.5,1489.5C 1219.34,1490.87 1219.51,1492.21 1220,1493.5C 1220.89,1492.11 1221.39,1492.28 1221.5,1494C 1221.11,1495.01 1220.44,1495.51 1219.5,1495.5C 1219.71,1496.09 1220.04,1496.59 1220.5,1497C 1219.17,1497.67 1217.83,1498.33 1216.5,1499C 1217.62,1499.25 1218.62,1499.75 1219.5,1500.5C 1218.01,1502.89 1218.34,1503.55 1220.5,1502.5C 1220.5,1503.5 1220.5,1504.5 1220.5,1505.5C 1219.81,1506.85 1218.81,1508.02 1217.5,1509C 1220.46,1509.84 1220.8,1510.84 1218.5,1512C 1219.17,1512.33 1219.83,1512.67 1220.5,1513C 1218.76,1513.65 1217.1,1513.48 1215.5,1512.5C 1205.6,1516.85 1195.44,1520.52 1185,1523.5C 1186.35,1521.22 1188.01,1518.89 1190,1516.5C 1190.33,1516.83 1190.67,1517.17 1191,1517.5C 1192.56,1515.78 1193.39,1513.78 1193.5,1511.5C 1194.27,1512.26 1194.77,1513.26 1195,1514.5C 1195.49,1513.21 1195.66,1511.87 1195.5,1510.5C 1195.5,1509.83 1195.83,1509.5 1196.5,1509.5C 1197.08,1510.55 1197.74,1510.38 1198.5,1509C 1198.27,1508.6 1197.94,1508.43 1197.5,1508.5C 1197.16,1506.77 1196.16,1506.27 1194.5,1507C 1191.76,1508.89 1190.09,1511.39 1189.5,1514.5C 1186.27,1516.76 1182.61,1519.26 1178.5,1522C 1177.83,1523.33 1177.17,1524.67 1176.5,1526C 1166.75,1529.04 1157.08,1532.37 1147.5,1536C 1143.42,1536.04 1139.59,1536.87 1136,1538.5C 1135.24,1538.43 1134.74,1538.1 1134.5,1537.5C 1133.5,1537.59 1132.67,1537.25 1132,1536.5C 1131.78,1537.94 1131.28,1539.27 1130.5,1540.5C 1124.4,1536.47 1117.74,1533.63 1110.5,1532C 1106.98,1529.8 1103.48,1527.64 1100,1525.5C 1097.3,1528.52 1094.14,1529.18 1090.5,1527.5C 1089.31,1526.64 1088.15,1525.64 1087,1524.5C 1086.6,1524.73 1086.43,1525.06 1086.5,1525.5C 1085.26,1524.59 1083.93,1524.42 1082.5,1525C 1084.43,1525.42 1085.43,1526.59 1085.5,1528.5C 1086.17,1528.17 1086.83,1527.83 1087.5,1527.5C 1087.12,1529.94 1087.79,1530.61 1089.5,1529.5C 1091.7,1531.06 1091.7,1532.22 1089.5,1533C 1091.13,1533.49 1092.8,1533.66 1094.5,1533.5C 1093.06,1538.11 1093.72,1538.44 1096.5,1534.5C 1101.37,1536.99 1106.04,1539.66 1110.5,1542.5C 1108.85,1544.12 1106.85,1545.29 1104.5,1546C 1105.93,1547.71 1105.59,1549.05 1103.5,1550C 1098.19,1551.61 1092.85,1553.11 1087.5,1554.5C 1087.17,1554 1086.83,1553.5 1086.5,1553C 1074.25,1518.78 1063.59,1484.28 1054.5,1449.5C 1055.19,1450.03 1055.69,1450.69 1056,1451.5C 1056.71,1450.03 1057.88,1449.36 1059.5,1449.5C 1059.99,1447.19 1059.99,1445.03 1059.5,1443C 1062.12,1441.03 1061.95,1439.19 1059,1437.5C 1057.33,1440.21 1056.5,1440.04 1056.5,1437C 1056.8,1435.11 1057.3,1433.28 1058,1431.5C 1058.42,1432.67 1059.09,1433.67 1060,1434.5C 1060.17,1434.17 1060.33,1433.83 1060.5,1433.5C 1059.46,1431.87 1059.46,1430.2 1060.5,1428.5C 1065.85,1421.39 1071.02,1414.06 1076,1406.5C 1084.48,1395.51 1095.31,1387.84 1108.5,1383.5C 1111.15,1383.59 1113.49,1382.92 1115.5,1381.5C 1123.2,1379.67 1131.03,1379.33 1139,1380.5C 1140.31,1379.43 1141.81,1378.76 1143.5,1378.5C 1145.1,1379.43 1146.6,1379.43 1148,1378.5C 1150.91,1382.21 1154.07,1382.38 1157.5,1379C 1155.78,1378.26 1154.11,1377.43 1152.5,1376.5C 1159.99,1373.05 1167.66,1371.05 1175.5,1370.5 Z M 1158.5,1382.5 C 1160.13,1382 1161.63,1382 1163,1382.5C 1163.67,1383.83 1163.67,1385.17 1163,1386.5C 1161.99,1385.66 1160.82,1385.33 1159.5,1385.5C 1159.74,1384.21 1159.4,1383.21 1158.5,1382.5 Z M 1176.5,1392.5 C 1179,1392.51 1179.17,1393.18 1177,1394.5C 1176.54,1393.91 1176.37,1393.24 1176.5,1392.5 Z M 1212.5,1489.5 C 1213.05,1490.69 1213.38,1491.86 1213.5,1493C 1212.5,1493.67 1211.5,1493.67 1210.5,1493C 1211.83,1492 1211.83,1491 1210.5,1490C 1211.09,1489.54 1211.76,1489.37 1212.5,1489.5 Z M 1209.5,1496.5 C 1210.17,1495.73 1211.01,1495.07 1212,1494.5C 1212.19,1496.06 1211.35,1496.73 1209.5,1496.5 Z M 1197.5,1508.5 C 1197.94,1508.43 1198.27,1508.6 1198.5,1509C 1197.74,1510.38 1197.08,1510.55 1196.5,1509.5C 1196.5,1508.83 1196.83,1508.5 1197.5,1508.5 Z M 1193.5,1511.5 C 1193.84,1510.66 1194.51,1510.33 1195.5,1510.5C 1195.66,1511.87 1195.49,1513.21 1195,1514.5C 1194.77,1513.26 1194.27,1512.26 1193.5,1511.5 Z M 1085.5,1517.5 C 1088,1517.51 1088.17,1518.18 1086,1519.5C 1085.54,1518.91 1085.37,1518.24 1085.5,1517.5 Z M 1086.5,1525.5 C 1086.83,1526.17 1087.17,1526.83 1087.5,1527.5C 1086.83,1527.83 1086.17,1528.17 1085.5,1528.5C 1085.43,1526.59 1084.43,1525.42 1082.5,1525C 1083.93,1524.42 1085.26,1524.59 1086.5,1525.5 Z M 1094.5,1525.5 C 1095.29,1525.78 1095.96,1526.28 1096.5,1527C 1095.18,1527.53 1094.52,1527.03 1094.5,1525.5 Z M 1134.5,1537.5 C 1134.52,1535.97 1135.18,1535.47 1136.5,1536C 1135.96,1536.72 1135.29,1537.22 1134.5,1537.5 Z"/></g>
<g><path style="opacity:0.706" fill="#675f02" d="M 1161.5,1390.5 C 1160.45,1390.35 1159.45,1390.52 1158.5,1391C 1159.38,1391.71 1160.05,1392.54 1160.5,1393.5C 1150.28,1388.09 1139.28,1385.42 1127.5,1385.5C 1119.67,1386.27 1112,1387.43 1104.5,1389C 1113.38,1384.95 1122.71,1383.11 1132.5,1383.5C 1136.5,1383.67 1140.5,1383.83 1144.5,1384C 1150.4,1385.72 1156.06,1387.88 1161.5,1390.5 Z"/></g>
<g><path style="opacity:0.004" fill="#000000" d="M 1151.5,1379.5 C 1152.83,1380.17 1152.83,1380.17 1151.5,1379.5 Z"/></g>
<g><path style="opacity:0.004" fill="#000000" d="M 1191.5,1390.5 C 1192.83,1391.17 1192.83,1391.17 1191.5,1390.5 Z"/></g>
<g><path style="opacity:0.004" fill="#000000" d="M 1191.5,1393.5 C 1192.53,1393.9 1192.69,1394.56 1192,1395.5C 1191.54,1394.91 1191.37,1394.24 1191.5,1393.5 Z"/></g>
<g><path style="opacity:0.004" fill="#000000" d="M 1075.5,1401.5 C 1075.9,1400.47 1076.56,1400.31 1077.5,1401C 1076.91,1401.46 1076.24,1401.63 1075.5,1401.5 Z"/></g>
<g><path style="opacity:0.004" fill="#000000" d="M 1075.5,1401.5 C 1073.08,1404.67 1070.92,1408 1069,1411.5C 1067.63,1413.04 1066.13,1414.37 1064.5,1415.5C 1063.69,1414.16 1062.52,1413.16 1061,1412.5C 1059.38,1413.54 1059.22,1414.7 1060.5,1416C 1059.55,1416.62 1058.72,1416.45 1058,1415.5C 1055.9,1417.29 1055.4,1419.29 1056.5,1421.5C 1055.6,1422.6 1054.77,1422.6 1054,1421.5C 1052.81,1422.56 1052.31,1423.9 1052.5,1425.5C 1051.66,1425.84 1051.33,1426.51 1051.5,1427.5C 1050.29,1428.67 1050.29,1430.01 1051.5,1431.5C 1050.39,1432.27 1049.72,1433.27 1049.5,1434.5C 1048.88,1434.39 1048.38,1434.06 1048,1433.5C 1045.36,1426.21 1042.86,1419.21 1040.5,1412.5C 1051.81,1408.73 1063.48,1405.07 1075.5,1401.5 Z"/></g>
<g><path style="opacity:0.845" fill="#857b01" d="M 1161.5,1390.5 C 1184.3,1401.4 1199.13,1419.07 1206,1443.5C 1209.92,1465.14 1205.92,1485.14 1194,1503.5C 1193.19,1504.96 1192.36,1505.29 1191.5,1504.5C 1205.24,1478.93 1206.08,1452.93 1194,1426.5C 1190.68,1421.2 1187.35,1415.87 1184,1410.5C 1176.77,1403.74 1168.94,1398.07 1160.5,1393.5C 1160.05,1392.54 1159.38,1391.71 1158.5,1391C 1159.45,1390.52 1160.45,1390.35 1161.5,1390.5 Z"/></g>
<g><path style="opacity:0.004" fill="#000000" d="M 1064.5,1415.5 C 1063.78,1418.01 1062.78,1418.01 1061.5,1415.5C 1062.23,1414.91 1063.23,1414.91 1064.5,1415.5 Z"/></g>
<g><path style="opacity:0.004" fill="#000000" d="M 1057.5,1418.5 C 1058.83,1419.17 1058.83,1419.17 1057.5,1418.5 Z"/></g>
<g><path style="opacity:0.004" fill="#000000" d="M 1059.5,1420.5 C 1060.83,1421.17 1060.83,1421.17 1059.5,1420.5 Z"/></g>
<g><path style="opacity:0.004" fill="#000000" d="M 1056.5,1421.5 C 1057.83,1422.17 1057.83,1422.17 1056.5,1421.5 Z"/></g>
<g><path style="opacity:0.004" fill="#000000" d="M 1054.5,1423.5 C 1056.23,1423.84 1056.73,1424.84 1056,1426.5C 1054.96,1425.76 1054.46,1424.76 1054.5,1423.5 Z"/></g>
<g><path style="opacity:0.004" fill="#000000" d="M 1057.5,1423.5 C 1058.83,1424.17 1058.83,1424.17 1057.5,1423.5 Z"/></g>
<g><path style="opacity:0.004" fill="#000000" d="M 1052.5,1425.5 C 1053.83,1426.17 1053.83,1426.17 1052.5,1425.5 Z"/></g>
<g><path style="opacity:1" fill="#8d8d8d" d="M 1163.5,1407.5 C 1163.21,1409.29 1163.55,1410.95 1164.5,1412.5C 1166.39,1410.51 1168.39,1410.18 1170.5,1411.5C 1169.5,1411.5 1168.5,1411.5 1167.5,1411.5C 1166.03,1417.9 1164.37,1424.23 1162.5,1430.5C 1161.25,1430.58 1160.42,1431.24 1160,1432.5C 1159.28,1431.96 1158.78,1431.29 1158.5,1430.5C 1160.8,1425.71 1162.47,1420.55 1163.5,1415C 1162.28,1412.35 1162.28,1409.85 1163.5,1407.5 Z"/></g>
<g><path style="opacity:0.004" fill="#000000" d="M 1051.5,1427.5 C 1052.83,1428.17 1052.83,1428.17 1051.5,1427.5 Z"/></g>
<g><path style="opacity:0.004" fill="#000000" d="M 1057.5,1427.5 C 1058.83,1428.17 1058.83,1428.17 1057.5,1427.5 Z"/></g>
<g><path style="opacity:0.004" fill="#000000" d="M 1060.5,1428.5 C 1059.83,1427.17 1059.83,1427.17 1060.5,1428.5 Z"/></g>
<g><path style="opacity:0.004" fill="#000000" d="M 1053.5,1429.5 C 1053.9,1428.47 1054.56,1428.31 1055.5,1429C 1054.91,1429.46 1054.24,1429.63 1053.5,1429.5 Z"/></g>
<g><path style="opacity:1" fill="#636363" d="M 1130.5,1418.5 C 1131.86,1423.26 1131.19,1427.76 1128.5,1432C 1129.43,1432.39 1130.09,1433.05 1130.5,1434C 1129.9,1436.22 1129.24,1438.39 1128.5,1440.5C 1127.83,1440.5 1127.17,1440.5 1126.5,1440.5C 1125.29,1439.12 1125.63,1437.95 1127.5,1437C 1126.59,1433.1 1126.92,1428.93 1128.5,1424.5C 1129.29,1424.22 1129.96,1423.72 1130.5,1423C 1129.2,1421.38 1129.2,1419.88 1130.5,1418.5 Z"/></g>
<g><path style="opacity:0.004" fill="#000000" d="M 1053.5,1429.5 C 1052.83,1430.17 1052.83,1430.17 1053.5,1429.5 Z"/></g>
<g><path style="opacity:0.004" fill="#000000" d="M 1053.5,1431.5 C 1054.83,1432.17 1054.83,1432.17 1053.5,1431.5 Z"/></g>
<g><path style="opacity:1" fill="#4e4e4e" d="M 1096.5,1432.5 C 1095.26,1431.59 1093.93,1431.42 1092.5,1432C 1093.17,1432.33 1093.83,1432.67 1094.5,1433C 1091.55,1433.11 1090.22,1434.61 1090.5,1437.5C 1089.01,1434.09 1090.18,1431.76 1094,1430.5C 1095.38,1430.68 1096.21,1431.35 1096.5,1432.5 Z"/></g>
<g><path style="opacity:1" fill="#535353" d="M 1158.5,1430.5 C 1158.78,1431.29 1159.28,1431.96 1160,1432.5C 1160.42,1431.24 1161.25,1430.58 1162.5,1430.5C 1162.12,1434.45 1161.12,1438.11 1159.5,1441.5C 1159.65,1440.45 1159.48,1439.45 1159,1438.5C 1158.33,1439.25 1157.5,1439.59 1156.5,1439.5C 1156.65,1435.97 1157.32,1432.97 1158.5,1430.5 Z"/></g>
<g><path style="opacity:0.004" fill="#000000" d="M 1049.5,1434.5 C 1050.83,1435.17 1050.83,1435.17 1049.5,1434.5 Z"/></g>
<g><path style="opacity:0.004" fill="#000000" d="M 1054.5,1437.5 C 1055.83,1438.17 1055.83,1438.17 1054.5,1437.5 Z"/></g>
<g><path style="opacity:0.004" fill="#000000" d="M 1058.5,1439.5 C 1059.83,1440.17 1059.83,1440.17 1058.5,1439.5 Z"/></g>
<g><path style="opacity:0.004" fill="#000000" d="M 1051.5,1440.5 C 1052.83,1441.17 1052.83,1441.17 1051.5,1440.5 Z"/></g>
<g><path style="opacity:1" fill="#d4d4d4" d="M 1159.5,1441.5 C 1158.79,1442.4 1157.79,1442.74 1156.5,1442.5C 1156.5,1441.5 1156.5,1440.5 1156.5,1439.5C 1157.5,1439.59 1158.33,1439.25 1159,1438.5C 1159.48,1439.45 1159.65,1440.45 1159.5,1441.5 Z"/></g>
<g><path style="opacity:0.004" fill="#000000" d="M 1051.5,1441.5 C 1050.83,1442.17 1050.83,1442.17 1051.5,1441.5 Z"/></g>
<g><path style="opacity:1" fill="#868686" d="M 1130.5,1418.5 C 1129.2,1419.88 1129.2,1421.38 1130.5,1423C 1129.96,1423.72 1129.29,1424.22 1128.5,1424.5C 1127.88,1424.39 1127.38,1424.06 1127,1423.5C 1125.07,1416.09 1127.57,1413.59 1134.5,1416C 1140.36,1427.5 1147.03,1439 1154.5,1450.5C 1153.21,1451.41 1151.88,1451.24 1150.5,1450C 1146.73,1445.79 1144.39,1441.12 1143.5,1436C 1142.07,1435.53 1140.9,1434.7 1140,1433.5C 1137.52,1428.56 1135.35,1423.56 1133.5,1418.5C 1132.5,1418.5 1131.5,1418.5 1130.5,1418.5 Z"/></g>
<g><path style="opacity:1" fill="#7e7e7e" d="M 1096.5,1432.5 C 1098.19,1433.47 1099.69,1434.81 1101,1436.5C 1105.41,1443.92 1109.91,1451.25 1114.5,1458.5C 1113.5,1459.83 1112.5,1459.83 1111.5,1458.5C 1104.7,1451.54 1098.87,1443.87 1094,1435.5C 1093.54,1438.3 1094.04,1440.97 1095.5,1443.5C 1095.29,1447.63 1094.95,1451.79 1094.5,1456C 1096.34,1458.8 1097.01,1461.97 1096.5,1465.5C 1095.7,1464.05 1095.2,1462.38 1095,1460.5C 1093.63,1464.7 1093.13,1469.03 1093.5,1473.5C 1092.79,1465.81 1092.12,1457.98 1091.5,1450C 1091.83,1449 1092.17,1448 1092.5,1447C 1091.64,1443.86 1090.97,1440.7 1090.5,1437.5C 1090.22,1434.61 1091.55,1433.11 1094.5,1433C 1093.83,1432.67 1093.17,1432.33 1092.5,1432C 1093.93,1431.42 1095.26,1431.59 1096.5,1432.5 Z"/></g>
<g><path style="opacity:1" fill="#d6d6d6" d="M 1126.5,1440.5 C 1127.17,1440.5 1127.83,1440.5 1128.5,1440.5C 1128.48,1442.56 1128.15,1444.56 1127.5,1446.5C 1126.5,1446.5 1125.5,1446.5 1124.5,1446.5C 1124.5,1445.17 1124.5,1443.83 1124.5,1442.5C 1125.83,1442.5 1126.5,1441.83 1126.5,1440.5 Z"/></g>
<g><path style="opacity:1" fill="#4f4f4f" d="M 1124.5,1442.5 C 1124.5,1443.83 1124.5,1445.17 1124.5,1446.5C 1125.5,1446.5 1126.5,1446.5 1127.5,1446.5C 1127.79,1448.74 1127.46,1450.74 1126.5,1452.5C 1126.88,1449.43 1125.88,1448.43 1123.5,1449.5C 1123.2,1446.94 1123.53,1444.61 1124.5,1442.5 Z"/></g>
<g><path style="opacity:1" fill="#6c6c6c" d="M 1126.5,1452.5 C 1126.7,1457.07 1125.36,1461.07 1122.5,1464.5C 1121.45,1459.31 1121.78,1454.31 1123.5,1449.5C 1125.88,1448.43 1126.88,1449.43 1126.5,1452.5 Z"/></g>
<g><path style="opacity:1" fill="#9a9a9a" d="M 1113.5,1460.5 C 1117.34,1460.89 1119.67,1463.05 1120.5,1467C 1120.17,1467.83 1119.83,1468.67 1119.5,1469.5C 1116.74,1466.97 1114.74,1463.97 1113.5,1460.5 Z"/></g>
<g><path style="opacity:1" fill="#c2c2c2" d="M 1096.5,1465.5 C 1097.2,1469.59 1097.2,1473.59 1096.5,1477.5C 1095.02,1476.55 1094.02,1475.22 1093.5,1473.5C 1093.13,1469.03 1093.63,1464.7 1095,1460.5C 1095.2,1462.38 1095.7,1464.05 1096.5,1465.5 Z"/></g>
<g><path style="opacity:1" fill="#c4c4c4" d="M 1122.5,1465.5 C 1124.9,1466.83 1124.9,1468.49 1122.5,1470.5C 1122.19,1469.11 1122.19,1467.45 1122.5,1465.5 Z"/></g>
<g><path style="opacity:1" fill="#adadad" d="M 1172.5,1466.5 C 1172.76,1464.44 1173.93,1463.1 1176,1462.5C 1176.33,1460.15 1176.17,1457.82 1175.5,1455.5C 1176.98,1455.24 1178.31,1455.57 1179.5,1456.5C 1181.31,1460.61 1182.97,1464.78 1184.5,1469C 1181.92,1473.89 1177.92,1475.55 1172.5,1474C 1171.38,1473.16 1170.71,1471.99 1170.5,1470.5C 1170.34,1468.65 1171.01,1467.31 1172.5,1466.5 Z"/></g>
<g><path style="opacity:1" fill="#171717" d="M 1172.5,1466.5 C 1174.3,1465.27 1176.3,1464.6 1178.5,1464.5C 1179.25,1470.07 1176.91,1471.9 1171.5,1470C 1172.34,1468.99 1172.67,1467.82 1172.5,1466.5 Z"/></g>
<g><path style="opacity:1" fill="#6a6a6a" d="M 1125.5,1474.5 C 1124.17,1476.2 1124.51,1477.53 1126.5,1478.5C 1123.75,1478.53 1121.42,1479.53 1119.5,1481.5C 1118.5,1481.17 1117.83,1480.5 1117.5,1479.5C 1119.6,1476.79 1122.26,1475.13 1125.5,1474.5 Z"/></g>
<g><path style="opacity:1" fill="#a8a8a8" d="M 1157.5,1469.5 C 1160.55,1468.92 1162.55,1470.09 1163.5,1473C 1160.97,1476.43 1160.3,1476.27 1161.5,1472.5C 1161,1471.48 1160.33,1471.31 1159.5,1472C 1156.41,1474.77 1156.41,1476.93 1159.5,1478.5C 1161,1477.92 1162.33,1477.08 1163.5,1476C 1164.83,1475.33 1166.17,1475.33 1167.5,1476C 1163.79,1478.57 1159.79,1479.9 1155.5,1480C 1154.11,1479.04 1153.44,1477.71 1153.5,1476C 1153.84,1473.17 1155.18,1471 1157.5,1469.5 Z"/></g>
<g><path style="opacity:1" fill="#bcbcbc" d="M 1140.5,1469.5 C 1141.68,1469.28 1142.68,1469.61 1143.5,1470.5C 1139.19,1475.42 1140.53,1477.58 1147.5,1477C 1148.88,1479.54 1148.21,1481.54 1145.5,1483C 1143.46,1483.45 1141.63,1484.29 1140,1485.5C 1139.5,1485.17 1139,1484.83 1138.5,1484.5C 1145.27,1481.58 1144.94,1479.58 1137.5,1478.5C 1137.17,1477.67 1136.83,1476.83 1136.5,1476C 1137.57,1473.65 1138.9,1471.48 1140.5,1469.5 Z"/></g>
<g><path style="opacity:1" fill="#c4c4c4" d="M 1122.5,1501.5 C 1121.11,1502.26 1119.61,1502.93 1118,1503.5C 1116.62,1503.32 1115.79,1502.65 1115.5,1501.5C 1129.44,1496.91 1143.44,1492.41 1157.5,1488C 1158.17,1487.33 1158.83,1486.67 1159.5,1486C 1169.78,1482.39 1179.95,1478.56 1190,1474.5C 1187.04,1467.67 1184.04,1460.67 1181,1453.5C 1177.81,1439.32 1174.31,1425.32 1170.5,1411.5C 1168.39,1410.18 1166.39,1410.51 1164.5,1412.5C 1163.55,1410.95 1163.21,1409.29 1163.5,1407.5C 1167.02,1404.51 1170.19,1404.84 1173,1408.5C 1177.44,1424.79 1181.77,1441.12 1186,1457.5C 1188.14,1462.25 1190.47,1466.92 1193,1471.5C 1194.46,1475.78 1193.29,1478.95 1189.5,1481C 1170.88,1486.71 1152.55,1492.87 1134.5,1499.5C 1130.55,1500.49 1126.55,1501.16 1122.5,1501.5 Z"/></g>
<g><path style="opacity:1" fill="#b0b0b0" d="M 1096.5,1477.5 C 1097.42,1483.83 1097.75,1490.16 1097.5,1496.5C 1096.37,1497.26 1095.21,1497.93 1094,1498.5C 1094.15,1492.2 1094.49,1485.87 1095,1479.5C 1095.72,1478.96 1096.22,1478.29 1096.5,1477.5 Z"/></g>
<g><path style="opacity:1" fill="#b3b3b3" d="M 1125.5,1474.5 C 1127.37,1474.86 1128.87,1475.86 1130,1477.5C 1131.92,1481.09 1133.76,1484.75 1135.5,1488.5C 1130.43,1491.39 1125.1,1492.39 1119.5,1491.5C 1118.37,1489.93 1118.2,1488.26 1119,1486.5C 1120.83,1485.33 1122.33,1483.83 1123.5,1482C 1124.45,1481.52 1125.45,1481.35 1126.5,1481.5C 1126.5,1480.5 1126.5,1479.5 1126.5,1478.5C 1124.51,1477.53 1124.17,1476.2 1125.5,1474.5 Z"/></g>
<g><path style="opacity:1" fill="#181818" d="M 1124.5,1483.5 C 1126.2,1483.34 1127.87,1483.51 1129.5,1484C 1129.06,1488.22 1126.72,1490.06 1122.5,1489.5C 1122.61,1487.28 1123.28,1485.28 1124.5,1483.5 Z"/></g>
<g><path style="opacity:1" fill="#b6b6b6" d="M 1100.5,1482.5 C 1103.47,1482.75 1104.8,1484.41 1104.5,1487.5C 1107.87,1486.6 1111.2,1486.6 1114.5,1487.5C 1118.01,1493.05 1116.51,1496.71 1110,1498.5C 1109.67,1498.17 1109.33,1497.83 1109,1497.5C 1104.84,1500.33 1104.01,1499.66 1106.5,1495.5C 1105.31,1494.57 1103.98,1494.24 1102.5,1494.5C 1101.83,1490.5 1101.17,1486.5 1100.5,1482.5 Z"/></g>
<g><path style="opacity:1" fill="#1a1a1a" d="M 1107.5,1488.5 C 1116.71,1490 1116.71,1492 1107.5,1494.5C 1107.07,1492.3 1107.07,1490.3 1107.5,1488.5 Z"/></g>
<g><path style="opacity:0.004" fill="#000000" d="M 1222.5,1493.5 C 1223.83,1494.17 1223.83,1494.17 1222.5,1493.5 Z"/></g>
<g><path style="opacity:0.004" fill="#000000" d="M 1224.5,1508.5 C 1223.73,1509.26 1223.23,1510.26 1223,1511.5C 1220.87,1509.92 1220.03,1507.92 1220.5,1505.5C 1224.3,1505.48 1224.3,1504.48 1220.5,1502.5C 1220.92,1501.78 1221.58,1501.28 1222.5,1501C 1222.17,1500.67 1221.83,1500.33 1221.5,1500C 1222.5,1499.67 1223.5,1499.33 1224.5,1499C 1224.36,1497.74 1224.36,1496.57 1224.5,1495.5C 1226.13,1500.21 1228.13,1504.71 1230.5,1509C 1228.29,1509.79 1226.29,1509.62 1224.5,1508.5 Z M 1223.5,1500.5 C 1224.29,1500.78 1224.96,1501.28 1225.5,1502C 1224.18,1502.53 1223.52,1502.03 1223.5,1500.5 Z M 1224.5,1508.5 C 1223.54,1507.64 1223.54,1506.97 1224.5,1506.5C 1225.77,1507.26 1225.77,1507.92 1224.5,1508.5 Z"/></g>
<g><path style="opacity:0.004" fill="#000000" d="M 1221.5,1496.5 C 1222.83,1497.17 1222.83,1497.17 1221.5,1496.5 Z"/></g>
<g><path style="opacity:1" fill="#515151" d="M 1115.5,1501.5 C 1115.79,1502.65 1116.62,1503.32 1118,1503.5C 1119.61,1502.93 1121.11,1502.26 1122.5,1501.5C 1120.99,1504.09 1118.66,1505.43 1115.5,1505.5C 1114.71,1503.9 1113.38,1503.23 1111.5,1503.5C 1112.67,1502.66 1114,1501.99 1115.5,1501.5 Z"/></g>
<g><path style="opacity:1" fill="#a0a0a0" d="M 1097.5,1501.5 C 1097.39,1503.65 1098.06,1503.98 1099.5,1502.5C 1100.5,1503.17 1101.5,1503.83 1102.5,1504.5C 1105.42,1503.59 1108.42,1503.26 1111.5,1503.5C 1113.38,1503.23 1114.71,1503.9 1115.5,1505.5C 1111.92,1507.81 1107.92,1509.14 1103.5,1509.5C 1101.37,1508.69 1099.04,1508.19 1096.5,1508C 1102.82,1505.63 1102.49,1504.63 1095.5,1505C 1096.08,1503.7 1096.75,1502.53 1097.5,1501.5 Z"/></g>
<g><path style="opacity:1" fill="#d9d9d9" d="M 1097.5,1501.5 C 1096.75,1502.53 1096.08,1503.7 1095.5,1505C 1102.49,1504.63 1102.82,1505.63 1096.5,1508C 1099.04,1508.19 1101.37,1508.69 1103.5,1509.5C 1098.89,1513.25 1094.39,1513.25 1090,1509.5C 1089.33,1508.17 1089.33,1506.83 1090,1505.5C 1091.83,1504 1093.67,1502.5 1095.5,1501C 1096.44,1500.31 1097.1,1500.47 1097.5,1501.5 Z"/></g>
<g><path style="opacity:0.086" fill="#918900" d="M 1197.5,1508.5 C 1196.83,1508.5 1196.5,1508.83 1196.5,1509.5C 1195.83,1509.5 1195.5,1509.83 1195.5,1510.5C 1194.51,1510.33 1193.84,1510.66 1193.5,1511.5C 1192.47,1512.85 1191.14,1513.85 1189.5,1514.5C 1190.09,1511.39 1191.76,1508.89 1194.5,1507C 1196.16,1506.27 1197.16,1506.77 1197.5,1508.5 Z"/></g>
<g><path style="opacity:0.007" fill="#000000" d="M 1223.5,1515.5 C 1221.97,1515.48 1221.47,1514.82 1222,1513.5C 1222.72,1514.04 1223.22,1514.71 1223.5,1515.5 Z"/></g>
<g><path style="opacity:0.006" fill="#000000" d="M 1223.5,1515.5 C 1224.49,1515.33 1225.16,1515.66 1225.5,1516.5C 1224.51,1516.67 1223.84,1516.34 1223.5,1515.5 Z"/></g>
<g><path style="opacity:0.008" fill="#000000" d="M 1225.5,1516.5 C 1226.83,1517.17 1226.83,1517.17 1225.5,1516.5 Z"/></g>
<g><path style="opacity:0.005" fill="#000000" d="M 1229.5,1520.5 C 1228.71,1520.22 1228.04,1519.72 1227.5,1519C 1228.82,1518.47 1229.48,1518.97 1229.5,1520.5 Z"/></g>
<g><path style="opacity:0.004" fill="#000000" d="M 1229.5,1520.5 C 1230.24,1520.37 1230.91,1520.54 1231.5,1521C 1230.56,1521.69 1229.9,1521.53 1229.5,1520.5 Z"/></g>
<g><path style="opacity:0.004" fill="#000000" d="M 1180.5,1522.5 C 1181.04,1522.56 1181.38,1522.89 1181.5,1523.5C 1178.23,1525.96 1177.9,1525.63 1180.5,1522.5 Z"/></g>
<g><path style="opacity:0.004" fill="#000000" d="M 1090.5,1527.5 C 1090.1,1528.53 1089.44,1528.69 1088.5,1528C 1089.09,1527.54 1089.76,1527.37 1090.5,1527.5 Z"/></g>
<g><path style="opacity:0.004" fill="#000000" d="M 1094.5,1532.5 C 1095.83,1533.17 1095.83,1533.17 1094.5,1532.5 Z"/></g>
<g><path style="opacity:0.004" fill="#000000" d="M 1096.5,1532.5 C 1097.83,1533.17 1097.83,1533.17 1096.5,1532.5 Z"/></g>
<g><path style="opacity:0.004" fill="#000000" d="M 1100.5,1534.5 C 1101.83,1535.17 1101.83,1535.17 1100.5,1534.5 Z"/></g>
<g><path style="opacity:0.005" fill="#000000" d="M 1113.5,1542.5 C 1114.92,1542.75 1115.92,1543.58 1116.5,1545C 1114.5,1545.67 1112.5,1545.67 1110.5,1545C 1111.57,1544.15 1112.57,1543.31 1113.5,1542.5 Z"/></g>
</svg>
