<?xml version="1.0" encoding="UTF-8"?>
<!DOCTYPE svg PUBLIC "-//W3C//DTD SVG 1.1//EN" "http://www.w3.org/Graphics/SVG/1.1/DTD/svg11.dtd">
<svg xmlns="http://www.w3.org/2000/svg" version="1.1" width="2048px" height="2048px" style="shape-rendering:geometricPrecision; text-rendering:geometricPrecision; image-rendering:optimizeQuality; fill-rule:evenodd; clip-rule:evenodd" xmlns:xlink="http://www.w3.org/1999/xlink">
<g><path style="opacity:0.693" fill="#070403" d="M 752.5,434.5 C 783.547,435.803 814.214,439.469 844.5,445.5C 867.361,451.933 889.028,461.1 909.5,473C 941.011,492.449 970.011,515.282 996.5,541.5C 998.078,542.298 999.744,542.798 1001.5,543C 1009.17,550 1016.83,557 1024.5,564C 1037.66,579.159 1051.49,593.659 1066,607.5C 1077.58,622.75 1090.25,637.083 1104,650.5C 1116.62,666.79 1129.62,682.79 1143,698.5C 1144.92,702.004 1147.08,705.337 1149.5,708.5C 1185.62,745.093 1220.12,783.093 1253,822.5C 1268.82,842.81 1284.15,863.477 1299,884.5C 1299.67,887.167 1299.67,889.833 1299,892.5C 1297.7,894.402 1297.03,896.402 1297,898.5C 1303.79,904.286 1309.46,910.952 1314,918.5C 1347.78,952.28 1379.45,987.947 1409,1025.5C 1416.69,1033.53 1424.36,1041.53 1432,1049.5C 1450.73,1073.98 1471.06,1096.98 1493,1118.5C 1510.34,1139.21 1527.68,1159.87 1545,1180.5C 1557.31,1194.14 1570.31,1207.14 1584,1219.5C 1594.8,1235.41 1606.8,1250.41 1620,1264.5C 1627.05,1273.22 1633.72,1282.22 1640,1291.5C 1650.53,1302.03 1659.53,1313.69 1667,1326.5C 1674.47,1345.25 1682.14,1363.91 1690,1382.5C 1696.11,1400.86 1699.28,1419.53 1699.5,1438.5C 1703.8,1467.67 1705.63,1497 1705,1526.5C 1703.34,1557.16 1696.34,1586.49 1684,1614.5C 1669.64,1643.54 1653.98,1671.88 1637,1699.5C 1633.62,1702.88 1630.62,1706.54 1628,1710.5C 1577.2,1759.17 1518.37,1795 1451.5,1818C 1420.29,1825.65 1388.63,1830.48 1356.5,1832.5C 1342.21,1832.34 1328.38,1830 1315,1825.5C 1305.12,1825.65 1295.62,1823.48 1286.5,1819C 1271,1815.84 1255.67,1811.84 1240.5,1807C 1228.34,1802.61 1216.34,1797.61 1204.5,1792C 1188.96,1783.07 1173.96,1773.4 1159.5,1763C 1145.03,1750.2 1130.87,1737.03 1117,1723.5C 1087.18,1689.16 1057.85,1654.5 1029,1619.5C 1019.91,1606.32 1010.58,1593.32 1001,1580.5C 997.779,1577.14 994.279,1574.14 990.5,1571.5C 982.763,1559.39 973.596,1548.39 963,1538.5C 943.03,1508.91 921.364,1480.57 898,1453.5C 889.54,1440.26 879.873,1427.93 869,1416.5C 859.574,1401 848.24,1387 835,1374.5C 827.52,1364.89 820.52,1354.89 814,1344.5C 811.54,1343.04 809.373,1341.21 807.5,1339C 802.856,1339.29 798.189,1339.29 793.5,1339C 787.622,1337.39 781.956,1335.23 776.5,1332.5C 762.877,1317.71 749.044,1303.04 735,1288.5C 696.906,1241.32 658.573,1194.32 620,1147.5C 603.089,1124.68 586.422,1101.68 570,1078.5C 550.5,1057.84 532.166,1036.17 515,1013.5C 509.366,1006.86 503.366,1000.53 497,994.5C 473.916,963.737 454.583,930.737 439,895.5C 436.667,894.5 435,892.833 434,890.5C 430.764,877.527 427.764,864.194 425,850.5C 423.339,828.881 421.173,807.381 418.5,786C 417.323,761.382 419.823,736.882 426,712.5C 434.111,690.177 443.778,668.51 455,647.5C 472.497,615.827 491.497,585.161 512,555.5C 520.749,546.756 528.749,537.422 536,527.5C 545.404,518.48 554.904,509.647 564.5,501C 584.371,488.23 604.705,476.23 625.5,465C 653.778,456.129 682.111,447.463 710.5,439C 724.646,437.463 738.646,435.963 752.5,434.5 Z"/></g>
<g><path style="opacity:1" fill="#863a0a" d="M 758.5,440.5 C 760.895,441.814 763.395,441.814 766,440.5C 767.622,441.099 769.122,441.766 770.5,442.5C 763.167,442.5 755.833,442.5 748.5,442.5C 742.833,442.5 737.167,442.5 731.5,442.5C 740.401,441.808 749.401,441.141 758.5,440.5 Z"/></g>
<g><path style="opacity:1" fill="#4d1506" d="M 790.5,442.5 C 790.5,442.833 790.5,443.167 790.5,443.5C 783.646,443.824 776.979,443.491 770.5,442.5C 769.122,441.766 767.622,441.099 766,440.5C 763.395,441.814 760.895,441.814 758.5,440.5C 761.219,440.603 763.885,440.269 766.5,439.5C 774.379,441.338 782.379,442.338 790.5,442.5 Z"/></g>
<g><path style="opacity:1" fill="#aa530b" d="M 731.5,442.5 C 737.167,442.5 742.833,442.5 748.5,442.5C 742.3,443.243 735.966,443.91 729.5,444.5C 729.5,444.167 729.5,443.833 729.5,443.5C 730.167,443.167 730.833,442.833 731.5,442.5 Z"/></g>
<g><path style="opacity:1" fill="#f78813" d="M 748.5,442.5 C 755.833,442.5 763.167,442.5 770.5,442.5C 776.979,443.491 783.646,443.824 790.5,443.5C 795.438,445.947 800.772,446.947 806.5,446.5C 807.5,446.5 808.5,446.5 809.5,446.5C 812.312,446.312 815.312,446.645 818.5,447.5C 819.167,447.833 819.833,448.167 820.5,448.5C 820.611,449.117 820.944,449.617 821.5,450C 827.56,450.517 833.56,451.35 839.5,452.5C 843.382,453.637 847.216,453.637 851,452.5C 852.965,453.83 854.965,455.164 857,456.5C 861.666,458.579 866.499,460.246 871.5,461.5C 872.058,462.79 873.058,463.623 874.5,464C 879.08,465.791 883.746,467.291 888.5,468.5C 891.113,470.718 894.113,472.385 897.5,473.5C 898.262,475.262 899.596,476.262 901.5,476.5C 901.5,477.167 901.833,477.5 902.5,477.5C 904.03,479.346 906.03,480.346 908.5,480.5C 909.605,481.6 910.938,482.267 912.5,482.5C 913.585,484.587 915.251,485.92 917.5,486.5C 921.728,488.711 925.728,491.377 929.5,494.5C 932.597,497.888 936.264,500.555 940.5,502.5C 949.349,508.776 957.682,515.776 965.5,523.5C 966.965,524.737 968.632,525.737 970.5,526.5C 971.694,527.272 972.694,528.272 973.5,529.5C 974.5,531.833 976.167,533.5 978.5,534.5C 979.605,535.6 980.938,536.267 982.5,536.5C 983.517,538.911 985.184,540.578 987.5,541.5C 990.5,545.167 993.5,548.833 996.5,552.5C 996.833,553.5 997.5,554.167 998.5,554.5C 999.803,556.142 1001.14,557.809 1002.5,559.5C 1005.03,561.605 1007.36,563.939 1009.5,566.5C 1011.31,569.647 1013.98,571.647 1017.5,572.5C 1017.5,573.167 1017.83,573.5 1018.5,573.5C 1019.17,576.167 1020.83,577.833 1023.5,578.5C 1025.46,581.386 1028.13,583.386 1031.5,584.5C 1033.47,588.134 1036.13,591.134 1039.5,593.5C 1040.71,596.044 1042.71,597.378 1045.5,597.5C 1046.45,600.455 1048.45,602.455 1051.5,603.5C 1052.73,606.253 1054.23,608.92 1056,611.5C 1057.01,612.337 1058.18,612.67 1059.5,612.5C 1060.34,614.853 1061.67,616.853 1063.5,618.5C 1064.42,621.089 1066.09,623.089 1068.5,624.5C 1069.5,624.833 1070.17,625.5 1070.5,626.5C 1073.25,627.945 1075.08,630.279 1076,633.5C 1076.82,634.823 1077.98,635.489 1079.5,635.5C 1082.37,639.909 1085.7,643.909 1089.5,647.5C 1089.5,647.833 1089.5,648.167 1089.5,648.5C 1095.59,656.351 1101.93,664.018 1108.5,671.5C 1111.08,673.955 1113.41,676.622 1115.5,679.5C 1118.61,683.397 1121.94,687.064 1125.5,690.5C 1129.09,695.32 1132.92,699.987 1137,704.5C 1137.89,707.03 1139.06,709.363 1140.5,711.5C 1141.17,712.833 1142.17,713.833 1143.5,714.5C 1145.5,716.167 1147.5,717.833 1149.5,719.5C 1150.58,721.587 1152.25,722.92 1154.5,723.5C 1154.83,724.5 1155.5,725.167 1156.5,725.5C 1157.6,727.389 1158.94,729.055 1160.5,730.5C 1168.74,738.684 1176.74,747.017 1184.5,755.5C 1186.5,758.167 1188.83,760.5 1191.5,762.5C 1195.21,766.208 1198.54,770.208 1201.5,774.5C 1201.37,775.239 1201.54,775.906 1202,776.5C 1204.29,778.054 1206.45,779.721 1208.5,781.5C 1212.83,786.833 1217.17,792.167 1221.5,797.5C 1222.5,799.167 1223.83,800.5 1225.5,801.5C 1226.5,803.833 1228.17,805.5 1230.5,806.5C 1231.08,808.749 1232.41,810.415 1234.5,811.5C 1235.53,813.184 1236.53,814.851 1237.5,816.5C 1238.08,818.749 1239.41,820.415 1241.5,821.5C 1242.53,822.853 1243.86,823.853 1245.5,824.5C 1246.75,828.003 1248.75,831.003 1251.5,833.5C 1252.7,835.909 1254.37,837.909 1256.5,839.5C 1257.06,840.79 1258.06,841.623 1259.5,842C 1259.04,842.414 1258.71,842.914 1258.5,843.5C 1259.95,844.94 1260.95,846.606 1261.5,848.5C 1262.08,850.749 1263.41,852.415 1265.5,853.5C 1271.9,860.238 1277.57,867.571 1282.5,875.5C 1282.83,876.833 1283.17,878.167 1283.5,879.5C 1278.93,880.493 1274.26,881.493 1269.5,882.5C 1266.81,882.336 1264.15,882.503 1261.5,883C 1260.94,883.383 1260.61,883.883 1260.5,884.5C 1257.94,885.051 1255.61,886.051 1253.5,887.5C 1248.58,888.227 1243.92,889.56 1239.5,891.5C 1238.83,891.5 1238.5,891.833 1238.5,892.5C 1235.01,893.658 1231.68,894.991 1228.5,896.5C 1223.28,898.386 1218.28,900.719 1213.5,903.5C 1210.69,903.025 1208.69,904.025 1207.5,906.5C 1204.94,907.088 1202.6,908.088 1200.5,909.5C 1198.06,910.109 1196.39,911.609 1195.5,914C 1194.21,914.49 1192.87,914.657 1191.5,914.5C 1188.68,915.236 1186.68,916.902 1185.5,919.5C 1169.78,928.352 1154.45,937.686 1139.5,947.5C 1137.46,948.508 1135.46,949.508 1133.5,950.5C 1130.48,952.53 1127.48,954.53 1124.5,956.5C 1121.75,958.175 1119.09,959.842 1116.5,961.5C 1114.62,961.229 1113.29,961.896 1112.5,963.5C 1107.58,966.416 1102.91,969.749 1098.5,973.5C 1096.83,974.5 1095.5,975.833 1094.5,977.5C 1092.6,977.738 1091.26,978.738 1090.5,980.5C 1084.64,984.593 1078.98,988.927 1073.5,993.5C 1071.48,995.196 1069.48,996.863 1067.5,998.5C 1060.11,1003.72 1053.11,1009.55 1046.5,1016C 1033.69,1024.08 1022.02,1033.58 1011.5,1044.5C 999.545,1051.85 989.545,1060.51 981.5,1070.5C 979.952,1070.82 979.285,1071.82 979.5,1073.5C 975.292,1075.37 971.625,1078.03 968.5,1081.5C 966.64,1082.94 964.973,1084.61 963.5,1086.5C 960.806,1088.53 958.473,1090.86 956.5,1093.5C 952.854,1095.82 949.52,1098.48 946.5,1101.5C 944.167,1103.17 942.167,1105.17 940.5,1107.5C 937.68,1108.46 936.347,1110.46 936.5,1113.5C 932.083,1113.99 929.083,1116.32 927.5,1120.5C 924.236,1122.09 921.569,1124.43 919.5,1127.5C 917.167,1129.17 915.167,1131.17 913.5,1133.5C 911.736,1134.33 910.402,1135.66 909.5,1137.5C 908.29,1137.93 907.29,1138.6 906.5,1139.5C 902.82,1143.18 899.486,1147.18 896.5,1151.5C 894.167,1151.83 892.833,1153.17 892.5,1155.5C 890.605,1156.97 888.939,1158.64 887.5,1160.5C 884.167,1164.17 880.833,1167.83 877.5,1171.5C 876.449,1172.22 875.782,1173.22 875.5,1174.5C 874.167,1174.5 873.5,1175.17 873.5,1176.5C 861.094,1187.91 850.094,1200.58 840.5,1214.5C 837.833,1216.5 835.5,1218.83 833.5,1221.5C 831.413,1222.58 830.08,1224.25 829.5,1226.5C 827.086,1227.91 825.419,1229.91 824.5,1232.5C 823.167,1232.5 822.5,1233.17 822.5,1234.5C 819.149,1236.85 816.482,1239.85 814.5,1243.5C 811.077,1246.85 807.91,1250.52 805,1254.5C 803.239,1257.41 801.739,1260.41 800.5,1263.5C 799.094,1263.97 798.427,1264.97 798.5,1266.5C 797.094,1266.97 796.427,1267.97 796.5,1269.5C 795.094,1269.97 794.427,1270.97 794.5,1272.5C 793.094,1272.97 792.427,1273.97 792.5,1275.5C 787.989,1281.2 783.989,1287.2 780.5,1293.5C 779.883,1293.61 779.383,1293.94 779,1294.5C 778.501,1298.49 778.334,1302.49 778.5,1306.5C 778.167,1308.5 777.833,1310.5 777.5,1312.5C 777.083,1315.16 776.083,1317.49 774.5,1319.5C 772.833,1318.17 771.167,1316.83 769.5,1315.5C 769.167,1314.5 768.5,1313.83 767.5,1313.5C 762.481,1306.82 756.815,1300.82 750.5,1295.5C 748.886,1293.54 747.219,1291.54 745.5,1289.5C 744.581,1286.91 742.914,1284.91 740.5,1283.5C 740.167,1282.5 739.5,1281.83 738.5,1281.5C 735.41,1277.69 732.076,1274.02 728.5,1270.5C 728.262,1268.6 727.262,1267.26 725.5,1266.5C 724.458,1263.07 722.458,1260.4 719.5,1258.5C 718.925,1256.59 717.925,1254.92 716.5,1253.5C 715.833,1251.5 714.5,1250.17 712.5,1249.5C 712.573,1247.97 711.906,1246.97 710.5,1246.5C 708.883,1243.22 706.55,1240.55 703.5,1238.5C 702.321,1235.14 700.487,1232.14 698,1229.5C 691.484,1222.43 684.984,1215.43 678.5,1208.5C 678.573,1206.97 677.906,1205.97 676.5,1205.5C 675.189,1202.86 673.522,1200.53 671.5,1198.5C 670.167,1196.5 668.5,1194.83 666.5,1193.5C 666.672,1192.51 666.338,1191.84 665.5,1191.5C 664.89,1190.61 664.557,1189.61 664.5,1188.5C 663.396,1186.61 662.063,1184.94 660.5,1183.5C 658.806,1182.47 657.473,1181.14 656.5,1179.5C 656.068,1178.29 655.401,1177.29 654.5,1176.5C 653.5,1176.17 652.833,1175.5 652.5,1174.5C 651.92,1172.25 650.587,1170.58 648.5,1169.5C 645.417,1163.97 641.417,1159.3 636.5,1155.5C 636.672,1154.51 636.338,1153.84 635.5,1153.5C 628.262,1144.71 621.262,1135.71 614.5,1126.5C 610.137,1121.14 605.803,1115.81 601.5,1110.5C 600.92,1108.25 599.587,1106.58 597.5,1105.5C 595.644,1101.77 593.31,1098.44 590.5,1095.5C 590.573,1093.97 589.906,1092.97 588.5,1092.5C 584.274,1084.04 578.607,1076.71 571.5,1070.5C 562.568,1059.56 553.235,1048.9 543.5,1038.5C 542.299,1036.09 540.633,1034.09 538.5,1032.5C 536.794,1030.93 535.627,1028.93 535,1026.5C 533.693,1024.81 532.193,1023.47 530.5,1022.5C 525.213,1014.88 519.213,1007.88 512.5,1001.5C 506.139,994.308 499.972,986.974 494,979.5C 492.829,975.5 490.662,972.167 487.5,969.5C 487.727,967.067 486.727,965.401 484.5,964.5C 483.762,962.06 482.429,960.06 480.5,958.5C 480.155,955.802 478.822,953.802 476.5,952.5C 476.262,950.596 475.262,949.262 473.5,948.5C 472.89,946.566 471.89,944.899 470.5,943.5C 470.346,941.03 469.346,939.03 467.5,937.5C 467.545,934.923 466.545,932.923 464.5,931.5C 463.428,928.37 461.594,925.704 459,923.5C 458.667,921.833 458.333,920.167 458,918.5C 454.165,911.1 450.331,903.766 446.5,896.5C 444.153,891.109 441.82,885.776 439.5,880.5C 439.167,879.167 438.833,877.833 438.5,876.5C 436.817,871.083 435.151,865.75 433.5,860.5C 432.926,855.817 432.26,851.15 431.5,846.5C 431.161,836.326 430.494,826.326 429.5,816.5C 429.279,813.608 428.446,810.941 427,808.5C 426.5,798.506 426.334,788.506 426.5,778.5C 426.39,766.484 426.723,754.484 427.5,742.5C 428.232,736.845 428.899,731.179 429.5,725.5C 430.924,723.485 431.59,721.152 431.5,718.5C 432.291,715.885 432.957,713.218 433.5,710.5C 434.486,708.574 435.486,706.574 436.5,704.5C 437.931,703.097 439.098,701.431 440,699.5C 440.49,698.207 440.657,696.873 440.5,695.5C 440.833,694.167 441.167,692.833 441.5,691.5C 442.921,688.706 443.921,685.706 444.5,682.5C 448.573,677.02 451.573,671.02 453.5,664.5C 455.497,661.175 457.497,657.841 459.5,654.5C 461.685,650.623 463.685,646.623 465.5,642.5C 468.01,638.813 470.01,634.813 471.5,630.5C 473.833,627.167 476.167,623.833 478.5,620.5C 479.674,619.486 480.34,618.153 480.5,616.5C 481.449,614.223 482.782,612.223 484.5,610.5C 485.458,610.047 486.292,609.381 487,608.5C 488.118,606.235 488.951,603.901 489.5,601.5C 491.262,600.738 492.262,599.404 492.5,597.5C 492.328,596.508 492.662,595.842 493.5,595.5C 495.444,591.89 497.777,588.557 500.5,585.5C 504.141,579.205 508.141,573.205 512.5,567.5C 514.587,566.415 515.92,564.749 516.5,562.5C 517.73,560.703 518.396,558.703 518.5,556.5C 520.664,556.279 522.33,555.279 523.5,553.5C 524.906,553.027 525.573,552.027 525.5,550.5C 527.144,550.19 528.144,549.19 528.5,547.5C 529.167,547.167 529.833,546.833 530.5,546.5C 533.243,544.761 535.243,542.427 536.5,539.5C 536.833,538.833 537.167,538.167 537.5,537.5C 538.974,536.564 539.974,535.23 540.5,533.5C 543.221,530.112 546.221,527.112 549.5,524.5C 552.427,523.243 554.761,521.243 556.5,518.5C 561.586,511.752 567.919,506.419 575.5,502.5C 578.032,501.404 580.365,500.071 582.5,498.5C 585.97,496.391 589.637,494.558 593.5,493C 594.071,491.795 594.738,490.628 595.5,489.5C 605.517,484.159 615.517,478.825 625.5,473.5C 627.967,473.245 629.967,472.245 631.5,470.5C 634.619,469.13 637.952,468.13 641.5,467.5C 643.553,467.598 645.22,466.931 646.5,465.5C 653.396,463.224 660.396,461.224 667.5,459.5C 669.306,458.976 670.972,458.309 672.5,457.5C 678.792,455.068 685.125,453.068 691.5,451.5C 699.868,450.063 707.868,447.73 715.5,444.5C 720.167,444.5 724.833,444.5 729.5,444.5C 735.966,443.91 742.3,443.243 748.5,442.5 Z"/></g>
<g><path style="opacity:1" fill="#5e1f06" d="M 729.5,443.5 C 729.5,443.833 729.5,444.167 729.5,444.5C 724.833,444.5 720.167,444.5 715.5,444.5C 716.641,443.661 717.974,442.994 719.5,442.5C 722.758,443.417 726.091,443.751 729.5,443.5 Z"/></g>
<g><path style="opacity:1" fill="#813708" d="M 790.5,442.5 C 794.028,444.478 797.695,444.811 801.5,443.5C 803.396,444.275 805.063,445.275 806.5,446.5C 800.772,446.947 795.438,445.947 790.5,443.5C 790.5,443.167 790.5,442.833 790.5,442.5 Z"/></g>
<g><path style="opacity:1" fill="#652406" d="M 818.5,447.5 C 815.312,446.645 812.312,446.312 809.5,446.5C 811.288,446.029 813.122,445.696 815,445.5C 816.681,445.608 817.848,446.275 818.5,447.5 Z"/></g>
<g><path style="opacity:1" fill="#410e03" d="M 715.5,444.5 C 707.868,447.73 699.868,450.063 691.5,451.5C 699.006,448.004 707.006,445.67 715.5,444.5 Z"/></g>
<g><path style="opacity:1" fill="#b85c0d" d="M 820.5,448.5 C 827.2,448.667 833.533,450 839.5,452.5C 833.56,451.35 827.56,450.517 821.5,450C 820.944,449.617 820.611,449.117 820.5,448.5 Z"/></g>
<g><path style="opacity:1" fill="#722d07" d="M 672.5,457.5 C 670.972,458.309 669.306,458.976 667.5,459.5C 667.343,458.127 667.51,456.793 668,455.5C 669.11,457.037 670.61,457.703 672.5,457.5 Z"/></g>
<g><path style="opacity:1" fill="#4e1706" d="M 871.5,461.5 C 876.34,462.502 881.007,464.002 885.5,466C 886.942,466.377 887.942,467.21 888.5,468.5C 883.746,467.291 879.08,465.791 874.5,464C 873.058,463.623 872.058,462.79 871.5,461.5 Z"/></g>
<g><path style="opacity:1" fill="#6b2808" d="M 646.5,465.5 C 645.22,466.931 643.553,467.598 641.5,467.5C 642.425,464.869 644.091,464.202 646.5,465.5 Z"/></g>
<g><path style="opacity:1" fill="#581a05" d="M 888.5,468.5 C 891.126,469.422 893.793,470.422 896.5,471.5C 897.298,471.957 897.631,472.624 897.5,473.5C 894.113,472.385 891.113,470.718 888.5,468.5 Z"/></g>
<g><path style="opacity:1" fill="#a9520d" d="M 631.5,470.5 C 629.967,472.245 627.967,473.245 625.5,473.5C 627.033,471.755 629.033,470.755 631.5,470.5 Z"/></g>
<g><path style="opacity:1" fill="#5d1f07" d="M 897.5,473.5 C 899.404,473.738 900.738,474.738 901.5,476.5C 899.596,476.262 898.262,475.262 897.5,473.5 Z"/></g>
<g><path style="opacity:1" fill="#4f1503" d="M 901.5,476.5 C 903.199,476.34 904.866,476.506 906.5,477C 907.252,477.671 907.586,478.504 907.5,479.5C 906.18,478.058 904.514,477.392 902.5,477.5C 901.833,477.5 901.5,477.167 901.5,476.5 Z"/></g>
<g><path style="opacity:1" fill="#a8520b" d="M 902.5,477.5 C 904.514,477.392 906.18,478.058 907.5,479.5C 908.167,479.5 908.5,479.833 908.5,480.5C 906.03,480.346 904.03,479.346 902.5,477.5 Z"/></g>
<g><path style="opacity:1" fill="#4e1404" d="M 912.5,482.5 C 915.204,482.67 916.871,484.003 917.5,486.5C 915.251,485.92 913.585,484.587 912.5,482.5 Z"/></g>
<g><path style="opacity:1" fill="#561c07" d="M 929.5,494.5 C 932.165,495.544 934.832,496.711 937.5,498C 939.439,498.908 940.439,500.408 940.5,502.5C 936.264,500.555 932.597,497.888 929.5,494.5 Z"/></g>
<g><path style="opacity:1" fill="#461204" d="M 582.5,498.5 C 580.365,500.071 578.032,501.404 575.5,502.5C 576.985,499.917 579.318,498.584 582.5,498.5 Z"/></g>
<g><path style="opacity:1" fill="#a7510c" d="M 556.5,518.5 C 554.761,521.243 552.427,523.243 549.5,524.5C 551.239,521.757 553.573,519.757 556.5,518.5 Z"/></g>
<g><path style="opacity:1" fill="#4b1706" d="M 965.5,523.5 C 968.285,522.916 969.952,523.916 970.5,526.5C 968.632,525.737 966.965,524.737 965.5,523.5 Z"/></g>
<g><path style="opacity:1" fill="#a5500c" d="M 973.5,529.5 C 976.167,530.167 977.833,531.833 978.5,534.5C 976.167,533.5 974.5,531.833 973.5,529.5 Z"/></g>
<g><path style="opacity:1" fill="#5b1d06" d="M 540.5,533.5 C 539.974,535.23 538.974,536.564 537.5,537.5C 537.5,536.167 537.5,534.833 537.5,533.5C 538.5,533.5 539.5,533.5 540.5,533.5 Z"/></g>
<g><path style="opacity:1" fill="#451004" d="M 982.5,536.5 C 985.167,537.167 986.833,538.833 987.5,541.5C 985.184,540.578 983.517,538.911 982.5,536.5 Z"/></g>
<g><path style="opacity:1" fill="#a44f0c" d="M 536.5,539.5 C 535.243,542.427 533.243,544.761 530.5,546.5C 531.757,543.573 533.757,541.239 536.5,539.5 Z"/></g>
<g><path style="opacity:1" fill="#853a0b" d="M 528.5,547.5 C 528.144,549.19 527.144,550.19 525.5,550.5C 525.856,548.81 526.856,547.81 528.5,547.5 Z"/></g>
<g><path style="opacity:1" fill="#8d3f0b" d="M 525.5,550.5 C 525.573,552.027 524.906,553.027 523.5,553.5C 523.427,551.973 524.094,550.973 525.5,550.5 Z"/></g>
<g><path style="opacity:1" fill="#7b3307" d="M 998.5,554.5 C 997.5,554.167 996.833,553.5 996.5,552.5C 998.203,551.34 998.869,552.007 998.5,554.5 Z"/></g>
<g><path style="opacity:1" fill="#a04d0c" d="M 516.5,562.5 C 515.92,564.749 514.587,566.415 512.5,567.5C 513.08,565.251 514.413,563.585 516.5,562.5 Z"/></g>
<g><path style="opacity:1" fill="#a04c0a" d="M 1009.5,566.5 C 1013.7,566.589 1016.37,568.589 1017.5,572.5C 1013.98,571.647 1011.31,569.647 1009.5,566.5 Z"/></g>
<g><path style="opacity:1" fill="#a8510b" d="M 1023.5,578.5 C 1020.83,577.833 1019.17,576.167 1018.5,573.5C 1022.47,572.306 1024.14,573.973 1023.5,578.5 Z"/></g>
<g><path style="opacity:1" fill="#5f2007" d="M 1002.5,559.5 C 1005.14,559.954 1007.47,561.121 1009.5,563C 1011.47,563.495 1013.47,563.662 1015.5,563.5C 1015.5,564.833 1015.5,566.167 1015.5,567.5C 1018.5,567.167 1019.83,568.5 1019.5,571.5C 1024.59,573.014 1028.09,576.348 1030,581.5C 1034.91,586.655 1040.24,591.322 1046,595.5C 1048.05,598.047 1049.89,600.714 1051.5,603.5C 1048.45,602.455 1046.45,600.455 1045.5,597.5C 1043.85,595.674 1041.85,594.34 1039.5,593.5C 1036.13,591.134 1033.47,588.134 1031.5,584.5C 1028.13,583.386 1025.46,581.386 1023.5,578.5C 1024.14,573.973 1022.47,572.306 1018.5,573.5C 1017.83,573.5 1017.5,573.167 1017.5,572.5C 1016.37,568.589 1013.7,566.589 1009.5,566.5C 1007.36,563.939 1005.03,561.605 1002.5,559.5 Z"/></g>
<g><path style="opacity:1" fill="#5a1e07" d="M 500.5,585.5 C 497.777,588.557 495.444,591.89 493.5,595.5C 493.566,592.085 494.732,589.085 497,586.5C 498.011,585.663 499.178,585.33 500.5,585.5 Z"/></g>
<g><path style="opacity:1" fill="#a04b0a" d="M 1039.5,593.5 C 1041.85,594.34 1043.85,595.674 1045.5,597.5C 1042.71,597.378 1040.71,596.044 1039.5,593.5 Z"/></g>
<g><path style="opacity:1" fill="#6e2a08" d="M 492.5,597.5 C 492.262,599.404 491.262,600.738 489.5,601.5C 489.468,599.381 490.468,598.048 492.5,597.5 Z"/></g>
<g><path style="opacity:1" fill="#84390b" d="M 489.5,601.5 C 488.951,603.901 488.118,606.235 487,608.5C 486.292,609.381 485.458,610.047 484.5,610.5C 485.891,608.079 486.725,605.412 487,602.5C 487.671,601.748 488.504,601.414 489.5,601.5 Z"/></g>
<g><path style="opacity:1" fill="#863a0a" d="M 1051.5,603.5 C 1054.89,605.886 1057.55,608.886 1059.5,612.5C 1058.18,612.67 1057.01,612.337 1056,611.5C 1054.23,608.92 1052.73,606.253 1051.5,603.5 Z"/></g>
<g><path style="opacity:1" fill="#571d09" d="M 1059.5,612.5 C 1063.23,613.953 1065.56,616.619 1066.5,620.5C 1065.5,619.833 1064.5,619.167 1063.5,618.5C 1061.67,616.853 1060.34,614.853 1059.5,612.5 Z"/></g>
<g><path style="opacity:1" fill="#8e4009" d="M 480.5,616.5 C 480.34,618.153 479.674,619.486 478.5,620.5C 478.229,618.62 478.896,617.287 480.5,616.5 Z"/></g>
<g><path style="opacity:1" fill="#ac540c" d="M 1063.5,618.5 C 1064.5,619.167 1065.5,619.833 1066.5,620.5C 1067.6,621.605 1068.27,622.938 1068.5,624.5C 1066.09,623.089 1064.42,621.089 1063.5,618.5 Z"/></g>
<g><path style="opacity:1" fill="#622308" d="M 1070.5,626.5 C 1074.2,627.458 1076.86,629.791 1078.5,633.5C 1078.83,634.167 1079.17,634.833 1079.5,635.5C 1077.98,635.489 1076.82,634.823 1076,633.5C 1075.08,630.279 1073.25,627.945 1070.5,626.5 Z"/></g>
<g><path style="opacity:1" fill="#390b01" d="M 1078.5,633.5 C 1082.87,637.544 1086.53,642.211 1089.5,647.5C 1085.7,643.909 1082.37,639.909 1079.5,635.5C 1079.17,634.833 1078.83,634.167 1078.5,633.5 Z"/></g>
<g><path style="opacity:1" fill="#370b01" d="M 471.5,630.5 C 470.01,634.813 468.01,638.813 465.5,642.5C 466.652,638.855 467.818,635.188 469,631.5C 469.671,630.748 470.504,630.414 471.5,630.5 Z"/></g>
<g><path style="opacity:1" fill="#411004" d="M 1089.5,648.5 C 1092.39,649.882 1094.89,651.882 1097,654.5C 1099.61,659.109 1102.94,663.109 1107,666.5C 1107.61,668.154 1108.11,669.821 1108.5,671.5C 1101.93,664.018 1095.59,656.351 1089.5,648.5 Z"/></g>
<g><path style="opacity:1" fill="#4d1506" d="M 459.5,654.5 C 457.497,657.841 455.497,661.175 453.5,664.5C 453.977,660.207 455.977,656.873 459.5,654.5 Z"/></g>
<g><path style="opacity:1" fill="#430d02" d="M 1115.5,679.5 C 1116.82,679.33 1117.99,679.663 1119,680.5C 1121.42,683.734 1123.58,687.067 1125.5,690.5C 1121.94,687.064 1118.61,683.397 1115.5,679.5 Z"/></g>
<g><path style="opacity:1" fill="#541905" d="M 444.5,682.5 C 443.921,685.706 442.921,688.706 441.5,691.5C 441.132,687.956 442.132,684.956 444.5,682.5 Z"/></g>
<g><path style="opacity:1" fill="#a44f0c" d="M 440.5,695.5 C 440.657,696.873 440.49,698.207 440,699.5C 439.098,701.431 437.931,703.097 436.5,704.5C 436.833,703.167 437.167,701.833 437.5,700.5C 438.692,698.887 439.692,697.22 440.5,695.5 Z"/></g>
<g><path style="opacity:1" fill="#3d0d02" d="M 437.5,700.5 C 437.167,701.833 436.833,703.167 436.5,704.5C 435.486,706.574 434.486,708.574 433.5,710.5C 433.488,706.55 434.821,703.216 437.5,700.5 Z"/></g>
<g><path style="opacity:1" fill="#5f2007" d="M 1140.5,711.5 C 1142.5,711.5 1143.5,712.5 1143.5,714.5C 1142.17,713.833 1141.17,712.833 1140.5,711.5 Z"/></g>
<g><path style="opacity:1" fill="#3f0f04" d="M 1149.5,719.5 C 1152.2,719.67 1153.87,721.003 1154.5,723.5C 1152.25,722.92 1150.58,721.587 1149.5,719.5 Z"/></g>
<g><path style="opacity:1" fill="#551907" d="M 431.5,718.5 C 431.59,721.152 430.924,723.485 429.5,725.5C 429.171,722.772 429.837,720.438 431.5,718.5 Z"/></g>
<g><path style="opacity:1" fill="#5d1f08" d="M 1156.5,725.5 C 1157.5,725.5 1158.5,725.5 1159.5,725.5C 1159.63,727.216 1159.96,728.883 1160.5,730.5C 1158.94,729.055 1157.6,727.389 1156.5,725.5 Z"/></g>
<g><path style="opacity:1" fill="#521906" d="M 429.5,725.5 C 428.899,731.179 428.232,736.845 427.5,742.5C 427.167,742.5 426.833,742.5 426.5,742.5C 426.334,738.154 426.501,733.821 427,729.5C 427.934,728.142 428.768,726.808 429.5,725.5 Z"/></g>
<g><path style="opacity:1" fill="#581b05" d="M 1184.5,755.5 C 1188.5,756.167 1190.83,758.5 1191.5,762.5C 1188.83,760.5 1186.5,758.167 1184.5,755.5 Z"/></g>
<g><path style="opacity:1" fill="#9b490a" d="M 426.5,742.5 C 426.833,742.5 427.167,742.5 427.5,742.5C 426.723,754.484 426.39,766.484 426.5,778.5C 425.815,772.433 425.149,766.266 424.5,760C 425.252,759.329 425.586,758.496 425.5,757.5C 425.751,752.493 426.084,747.493 426.5,742.5 Z"/></g>
<g><path style="opacity:1" fill="#4d1504" d="M 425.5,757.5 C 425.586,758.496 425.252,759.329 424.5,760C 425.149,766.266 425.815,772.433 426.5,778.5C 426.334,788.506 426.5,798.506 427,808.5C 428.446,810.941 429.279,813.608 429.5,816.5C 429.806,819.385 429.473,822.052 428.5,824.5C 426.565,812.376 424.898,800.21 423.5,788C 426.017,784.037 426.017,780.037 423.5,776C 424.833,770.667 424.833,765.333 423.5,760C 423.639,758.699 424.305,757.866 425.5,757.5 Z"/></g>
<g><path style="opacity:1" fill="#551b08" d="M 1201.5,774.5 C 1203.01,775.836 1204.68,777.003 1206.5,778C 1207.82,778.816 1208.49,779.983 1208.5,781.5C 1206.45,779.721 1204.29,778.054 1202,776.5C 1201.54,775.906 1201.37,775.239 1201.5,774.5 Z"/></g>
<g><path style="opacity:1" fill="#441103" d="M 1221.5,797.5 C 1224.18,797.525 1225.51,798.858 1225.5,801.5C 1223.83,800.5 1222.5,799.167 1221.5,797.5 Z"/></g>
<g><path style="opacity:1" fill="#480f02" d="M 1230.5,806.5 C 1232.59,807.585 1233.92,809.251 1234.5,811.5C 1232.41,810.415 1231.08,808.749 1230.5,806.5 Z"/></g>
<g><path style="opacity:1" fill="#893c0a" d="M 1237.5,816.5 C 1238.87,817.512 1240.2,818.512 1241.5,819.5C 1241.5,820.167 1241.5,820.833 1241.5,821.5C 1239.41,820.415 1238.08,818.749 1237.5,816.5 Z"/></g>
<g><path style="opacity:1" fill="#3d0c02" d="M 1241.5,819.5 C 1243.21,820.873 1244.54,822.539 1245.5,824.5C 1243.86,823.853 1242.53,822.853 1241.5,821.5C 1241.5,820.833 1241.5,820.167 1241.5,819.5 Z"/></g>
<g><path style="opacity:1" fill="#4a1404" d="M 1245.5,824.5 C 1248.32,826.979 1250.32,829.979 1251.5,833.5C 1248.75,831.003 1246.75,828.003 1245.5,824.5 Z"/></g>
<g><path style="opacity:1" fill="#3d0d02" d="M 1251.5,833.5 C 1254.09,834.638 1255.75,836.638 1256.5,839.5C 1254.37,837.909 1252.7,835.909 1251.5,833.5 Z"/></g>
<g><path style="opacity:1" fill="#ab530c" d="M 429.5,816.5 C 430.494,826.326 431.161,836.326 431.5,846.5C 430.19,840.712 429.523,834.712 429.5,828.5C 428.448,828.649 427.448,828.483 426.5,828C 427.823,827.184 428.489,826.017 428.5,824.5C 429.473,822.052 429.806,819.385 429.5,816.5 Z"/></g>
<g><path style="opacity:1" fill="#4c1404" d="M 1256.5,839.5 C 1257.58,839.539 1258.58,839.873 1259.5,840.5C 1260.57,843.204 1261.57,845.87 1262.5,848.5C 1262.17,848.5 1261.83,848.5 1261.5,848.5C 1260.95,846.606 1259.95,844.94 1258.5,843.5C 1258.71,842.914 1259.04,842.414 1259.5,842C 1258.06,841.623 1257.06,840.79 1256.5,839.5 Z"/></g>
<g><path style="opacity:1" fill="#410e02" d="M 428.5,824.5 C 428.489,826.017 427.823,827.184 426.5,828C 427.448,828.483 428.448,828.649 429.5,828.5C 429.523,834.712 430.19,840.712 431.5,846.5C 432.26,851.15 432.926,855.817 433.5,860.5C 433.5,862.5 433.5,864.5 433.5,866.5C 431.299,864.525 430.965,862.192 432.5,859.5C 431.717,853.866 430.383,848.366 428.5,843C 429.535,837.572 428.535,832.572 425.5,828C 425.978,826.358 426.978,825.191 428.5,824.5 Z"/></g>
<g><path style="opacity:1" fill="#ac540c" d="M 1261.5,848.5 C 1261.83,848.5 1262.17,848.5 1262.5,848.5C 1263.92,849.922 1264.92,851.589 1265.5,853.5C 1263.41,852.415 1262.08,850.749 1261.5,848.5 Z"/></g>
<g><path style="opacity:1" fill="#662507" d="M 433.5,860.5 C 435.151,865.75 436.817,871.083 438.5,876.5C 437.5,876.5 436.5,876.5 435.5,876.5C 435.5,875.167 435.5,873.833 435.5,872.5C 434.5,872.5 433.5,872.5 432.5,872.5C 432.36,870.876 433.027,869.71 434.5,869C 433.748,868.329 433.414,867.496 433.5,866.5C 433.5,864.5 433.5,862.5 433.5,860.5 Z"/></g>
<g><path style="opacity:1" fill="#551905" d="M 1282.5,875.5 C 1284.52,876.538 1284.85,877.872 1283.5,879.5C 1283.17,878.167 1282.83,876.833 1282.5,875.5 Z"/></g>
<g><path style="opacity:1" fill="#a8510c" d="M 1269.5,882.5 C 1266.73,883.657 1263.73,884.324 1260.5,884.5C 1260.61,883.883 1260.94,883.383 1261.5,883C 1264.15,882.503 1266.81,882.336 1269.5,882.5 Z"/></g>
<g><path style="opacity:1" fill="#591c05" d="M 439.5,880.5 C 441.82,885.776 444.153,891.109 446.5,896.5C 441.568,892.491 439.235,887.157 439.5,880.5 Z"/></g>
<g><path style="opacity:1" fill="#757574" d="M 1286.5,897.5 C 1287.57,898.434 1288.9,898.768 1290.5,898.5C 1290.35,899.552 1290.52,900.552 1291,901.5C 1295.6,906.73 1300.77,911.397 1306.5,915.5C 1306.17,916.167 1305.83,916.833 1305.5,917.5C 1307.47,920.64 1309.64,923.64 1312,926.5C 1319.73,933.066 1326.9,940.066 1333.5,947.5C 1347.03,962.17 1360.37,977.17 1373.5,992.5C 1380.17,1000.67 1386.67,1009 1393,1017.5C 1403.25,1028.59 1413.42,1039.93 1423.5,1051.5C 1423.24,1052.98 1423.57,1054.31 1424.5,1055.5C 1426.79,1056.47 1428.79,1057.8 1430.5,1059.5C 1432.01,1061.35 1433.35,1063.35 1434.5,1065.5C 1442.49,1072.44 1449.32,1080.44 1455,1089.5C 1458.33,1092 1461.5,1094.67 1464.5,1097.5C 1466.82,1100.99 1469.32,1104.32 1472,1107.5C 1488.49,1123.65 1503.49,1140.98 1517,1159.5C 1530.39,1174.41 1543.72,1189.08 1557,1203.5C 1563.72,1210.56 1570.72,1217.23 1578,1223.5C 1583.47,1229.63 1588.14,1236.3 1592,1243.5C 1610.62,1264.73 1628.28,1286.73 1645,1309.5C 1646.31,1310.77 1647.81,1311.77 1649.5,1312.5C 1659.52,1326.87 1667.18,1342.54 1672.5,1359.5C 1683.01,1380.17 1689.51,1402.17 1692,1425.5C 1694.06,1452.52 1696.23,1479.52 1698.5,1506.5C 1698.01,1536.13 1693.51,1565.13 1685,1593.5C 1682.74,1600.19 1679.74,1606.52 1676,1612.5C 1674.92,1615.06 1674.42,1617.73 1674.5,1620.5C 1673.5,1620.5 1672.5,1620.5 1671.5,1620.5C 1663.22,1639.63 1653.39,1657.96 1642,1675.5C 1640.99,1677.02 1640.49,1678.69 1640.5,1680.5C 1639.32,1680.28 1638.32,1680.61 1637.5,1681.5C 1635.18,1685.15 1632.52,1688.48 1629.5,1691.5C 1628.46,1693.13 1628.46,1694.8 1629.5,1696.5C 1624.39,1702.26 1619.72,1708.26 1615.5,1714.5C 1607.63,1719.03 1600.63,1724.69 1594.5,1731.5C 1591.43,1732.69 1588.77,1734.36 1586.5,1736.5C 1581.48,1740.53 1576.48,1744.53 1571.5,1748.5C 1569.97,1748.43 1568.97,1749.09 1568.5,1750.5C 1562.94,1753.1 1557.94,1756.44 1553.5,1760.5C 1548.39,1764.12 1543.05,1767.46 1537.5,1770.5C 1533.12,1773.23 1528.79,1775.9 1524.5,1778.5C 1520.87,1779.7 1517.54,1781.37 1514.5,1783.5C 1501.65,1788.93 1488.98,1794.93 1476.5,1801.5C 1476.17,1801.5 1475.83,1801.5 1475.5,1801.5C 1470.58,1802.64 1465.91,1804.3 1461.5,1806.5C 1452.44,1810.82 1442.77,1813.32 1432.5,1814C 1431.14,1814.93 1429.81,1815.77 1428.5,1816.5C 1413.97,1818.2 1399.63,1820.2 1385.5,1822.5C 1380.8,1821.02 1375.97,1820.02 1371,1819.5C 1368.15,1819.74 1365.15,1820.41 1362,1821.5C 1357.23,1819.89 1352.4,1819.56 1347.5,1820.5C 1346.18,1818.73 1344.68,1818.4 1343,1819.5C 1340.93,1818.61 1338.76,1817.94 1336.5,1817.5C 1330.33,1818.45 1323.99,1818.45 1317.5,1817.5C 1310.26,1815.92 1302.92,1814.75 1295.5,1814C 1288.83,1811.1 1281.83,1809.77 1274.5,1810C 1263.24,1806.31 1251.58,1802.81 1239.5,1799.5C 1235.06,1795.25 1229.73,1793.09 1223.5,1793C 1220.41,1791.13 1217.08,1789.79 1213.5,1789C 1208.89,1784.73 1203.56,1781.73 1197.5,1780C 1185.22,1772.18 1173.22,1763.85 1161.5,1755C 1156.43,1749.26 1150.76,1744.26 1144.5,1740C 1130.32,1725.79 1116.49,1711.29 1103,1696.5C 1096,1687.83 1089,1679.17 1082,1670.5C 1080.99,1669.66 1079.82,1669.33 1078.5,1669.5C 1076.27,1664.75 1073.77,1660.08 1071,1655.5C 1061.8,1644.39 1053.63,1632.72 1046.5,1620.5C 1043.87,1617.14 1041.71,1613.47 1040,1609.5C 1035.56,1605.38 1031.06,1601.38 1026.5,1597.5C 1025.5,1597.59 1024.67,1597.25 1024,1596.5C 1023.53,1594.75 1022.86,1593.09 1022,1591.5C 1013.38,1584.62 1006.38,1576.29 1001,1566.5C 998.386,1563.21 995.219,1560.71 991.5,1559C 973.57,1539.06 957.07,1517.89 942,1495.5C 927.869,1479.38 914.535,1462.71 902,1445.5C 900.989,1444.66 899.822,1444.33 898.5,1444.5C 898.613,1441.95 897.946,1439.62 896.5,1437.5C 891.833,1431.83 887.167,1426.17 882.5,1420.5C 880.807,1418.97 878.973,1417.64 877,1416.5C 873.858,1409.68 869.524,1403.68 864,1398.5C 860.156,1390.49 854.656,1383.82 847.5,1378.5C 842.364,1370.53 836.53,1363.2 830,1356.5C 827.005,1351.54 824.005,1346.54 821,1341.5C 815.571,1337.57 811.071,1332.91 807.5,1327.5C 807.896,1324.96 807.229,1322.79 805.5,1321C 801.41,1317.74 797.41,1317.91 793.5,1321.5C 792.818,1318.82 791.152,1317.15 788.5,1316.5C 787.306,1312.61 787.472,1308.61 789,1304.5C 792.519,1297.62 795.852,1290.62 799,1283.5C 802.943,1277.26 807.109,1271.26 811.5,1265.5C 813.39,1265.7 814.89,1265.04 816,1263.5C 821.099,1255.61 825.932,1247.61 830.5,1239.5C 842.006,1224.48 853.506,1209.48 865,1194.5C 875.755,1183.91 886.589,1173.57 897.5,1163.5C 900.295,1161.25 902.628,1158.58 904.5,1155.5C 908.174,1152.99 910.841,1149.66 912.5,1145.5C 914.525,1143.44 916.858,1142.1 919.5,1141.5C 920.239,1141.63 920.906,1141.46 921.5,1141C 924.969,1137.19 928.302,1133.35 931.5,1129.5C 934.364,1127.98 936.031,1125.64 936.5,1122.5C 938.783,1122.39 940.783,1121.56 942.5,1120C 952.494,1108.01 963.828,1097.34 976.5,1088C 981.249,1083.92 985.249,1079.26 988.5,1074C 995.715,1068.27 1002.72,1062.44 1009.5,1056.5C 1013.92,1053.66 1017.92,1050.33 1021.5,1046.5C 1030.52,1039.35 1039.86,1032.52 1049.5,1026C 1053.85,1019.82 1059.51,1015.32 1066.5,1012.5C 1073.85,1006.83 1081.52,1001.66 1089.5,997C 1090.25,995.266 1090.75,993.433 1091,991.5C 1093.83,989.333 1096.67,987.167 1099.5,985C 1136.78,960.565 1174.78,937.232 1213.5,915C 1214.83,913.667 1216.17,912.333 1217.5,911C 1232.02,903.909 1246.68,897.076 1261.5,890.5C 1269.52,888.262 1277.69,886.595 1286,885.5C 1287.82,885.943 1289.66,886.277 1291.5,886.5C 1291.65,887.552 1291.48,888.552 1291,889.5C 1288.38,891.414 1285.88,893.414 1283.5,895.5C 1284.36,896.425 1285.36,897.092 1286.5,897.5 Z"/></g>
<g><path style="opacity:1" fill="#591d07" d="M 1253.5,887.5 C 1253.39,888.117 1253.06,888.617 1252.5,889C 1248.21,890.153 1243.88,890.987 1239.5,891.5C 1243.92,889.56 1248.58,888.227 1253.5,887.5 Z"/></g>
<g><path style="opacity:1" fill="#340f03" d="M 1238.5,892.5 C 1235.89,895.16 1232.55,896.493 1228.5,896.5C 1231.68,894.991 1235.01,893.658 1238.5,892.5 Z"/></g>
<g><path style="opacity:1" fill="#672508" d="M 1213.5,903.5 C 1212.09,905.539 1210.09,906.539 1207.5,906.5C 1208.69,904.025 1210.69,903.025 1213.5,903.5 Z"/></g>
<g><path style="opacity:1" fill="#391003" d="M 1200.5,909.5 C 1199.05,911.133 1197.72,912.966 1196.5,915C 1194.87,915.494 1193.2,915.66 1191.5,915.5C 1191.5,915.167 1191.5,914.833 1191.5,914.5C 1192.87,914.657 1194.21,914.49 1195.5,914C 1196.39,911.609 1198.06,910.109 1200.5,909.5 Z"/></g>
<g><path style="opacity:1" fill="#7a3209" d="M 1191.5,914.5 C 1191.5,914.833 1191.5,915.167 1191.5,915.5C 1190.51,918.086 1188.51,919.419 1185.5,919.5C 1186.68,916.902 1188.68,915.236 1191.5,914.5 Z"/></g>
<g><path style="opacity:1" fill="#531806" d="M 446.5,896.5 C 450.331,903.766 454.165,911.1 458,918.5C 458.333,920.167 458.667,921.833 459,923.5C 461.594,925.704 463.428,928.37 464.5,931.5C 463.5,931.5 462.5,931.5 461.5,931.5C 457.356,922.132 452.856,912.799 448,903.5C 447.338,901.187 446.838,898.854 446.5,896.5 Z"/></g>
<g><path style="opacity:1" fill="#ab530c" d="M 464.5,931.5 C 466.545,932.923 467.545,934.923 467.5,937.5C 465.621,937.607 465.288,937.107 466.5,936C 464.963,934.89 464.297,933.39 464.5,931.5 Z"/></g>
<g><path style="opacity:1" fill="#2e2e2e" d="M 1286.5,897.5 C 1288.2,897.34 1289.87,897.506 1291.5,898C 1292.61,900.883 1294.28,903.383 1296.5,905.5C 1299.84,907.327 1302.51,909.827 1304.5,913C 1305.45,913.483 1306.45,913.649 1307.5,913.5C 1307.34,915.199 1307.51,916.866 1308,918.5C 1312.71,924.376 1317.88,929.71 1323.5,934.5C 1325.05,935.452 1326.71,935.785 1328.5,935.5C 1328.5,936.833 1328.5,938.167 1328.5,939.5C 1329.5,939.5 1330.5,939.5 1331.5,939.5C 1331.34,940.873 1331.51,942.207 1332,943.5C 1341.79,953.751 1351.13,964.418 1360,975.5C 1361.58,976.861 1363.42,977.528 1365.5,977.5C 1366.07,982.432 1368.41,986.432 1372.5,989.5C 1373.13,990.417 1373.46,991.417 1373.5,992.5C 1360.37,977.17 1347.03,962.17 1333.5,947.5C 1326.9,940.066 1319.73,933.066 1312,926.5C 1309.64,923.64 1307.47,920.64 1305.5,917.5C 1305.83,916.833 1306.17,916.167 1306.5,915.5C 1300.77,911.397 1295.6,906.73 1291,901.5C 1290.52,900.552 1290.35,899.552 1290.5,898.5C 1288.9,898.768 1287.57,898.434 1286.5,897.5 Z"/></g>
<g><path style="opacity:1" fill="#662407" d="M 467.5,937.5 C 469.346,939.03 470.346,941.03 470.5,943.5C 469.5,943.5 468.5,943.5 467.5,943.5C 467.5,941.5 467.5,939.5 467.5,937.5 Z"/></g>
<g><path style="opacity:1" fill="#612005" d="M 470.5,943.5 C 471.89,944.899 472.89,946.566 473.5,948.5C 471.259,947.7 470.259,946.034 470.5,943.5 Z"/></g>
<g><path style="opacity:1" fill="#9d4a0b" d="M 1139.5,947.5 C 1139.19,949.144 1138.19,950.144 1136.5,950.5C 1135.5,950.5 1134.5,950.5 1133.5,950.5C 1135.46,949.508 1137.46,948.508 1139.5,947.5 Z"/></g>
<g><path style="opacity:1" fill="#6b2707" d="M 473.5,948.5 C 475.262,949.262 476.262,950.596 476.5,952.5C 474.088,952.306 473.088,950.973 473.5,948.5 Z"/></g>
<g><path style="opacity:1" fill="#622207" d="M 476.5,952.5 C 478.822,953.802 480.155,955.802 480.5,958.5C 477.687,957.554 476.354,955.554 476.5,952.5 Z"/></g>
<g><path style="opacity:1" fill="#421305" d="M 1133.5,950.5 C 1134.5,950.5 1135.5,950.5 1136.5,950.5C 1133.3,954.101 1129.3,956.101 1124.5,956.5C 1127.48,954.53 1130.48,952.53 1133.5,950.5 Z"/></g>
<g><path style="opacity:1" fill="#612107" d="M 1124.5,956.5 C 1123.18,960.13 1120.51,961.797 1116.5,961.5C 1119.09,959.842 1121.75,958.175 1124.5,956.5 Z"/></g>
<g><path style="opacity:1" fill="#4b1204" d="M 480.5,958.5 C 482.429,960.06 483.762,962.06 484.5,964.5C 483.791,965.404 482.791,965.737 481.5,965.5C 481.611,964.883 481.944,964.383 482.5,964C 481.139,962.416 480.472,960.582 480.5,958.5 Z"/></g>
<g><path style="opacity:1" fill="#752f0a" d="M 1116.5,961.5 C 1115.49,962.674 1114.15,963.34 1112.5,963.5C 1113.29,961.896 1114.62,961.229 1116.5,961.5 Z"/></g>
<g><path style="opacity:1" fill="#9a480a" d="M 484.5,964.5 C 486.727,965.401 487.727,967.067 487.5,969.5C 486.733,968.828 486.066,967.995 485.5,967C 484.251,966.26 483.251,966.427 482.5,967.5C 481.662,967.158 481.328,966.492 481.5,965.5C 482.791,965.737 483.791,965.404 484.5,964.5 Z"/></g>
<g><path style="opacity:1" fill="#471306" d="M 1098.5,973.5 C 1098.51,976.142 1097.18,977.475 1094.5,977.5C 1095.5,975.833 1096.83,974.5 1098.5,973.5 Z"/></g>
<g><path style="opacity:1" fill="#5a1c08" d="M 1094.5,977.5 C 1093.74,979.262 1092.4,980.262 1090.5,980.5C 1091.26,978.738 1092.6,977.738 1094.5,977.5 Z"/></g>
<g><path style="opacity:1" fill="#5a1d07" d="M 482.5,967.5 C 483.251,966.427 484.251,966.26 485.5,967C 486.066,967.995 486.733,968.828 487.5,969.5C 490.662,972.167 492.829,975.5 494,979.5C 499.972,986.974 506.139,994.308 512.5,1001.5C 508.979,999.898 505.979,997.565 503.5,994.5C 497.75,987.582 492.583,980.249 488,972.5C 486.147,970.72 484.313,969.053 482.5,967.5 Z"/></g>
<g><path style="opacity:1" fill="#521707" d="M 1073.5,993.5 C 1072.71,996.621 1070.71,998.288 1067.5,998.5C 1069.48,996.863 1071.48,995.196 1073.5,993.5 Z"/></g>
<g><path style="opacity:1" fill="#5a1c06" d="M 512.5,1001.5 C 519.213,1007.88 525.213,1014.88 530.5,1022.5C 532.795,1025.46 534.128,1028.79 534.5,1032.5C 535.833,1032.5 537.167,1032.5 538.5,1032.5C 540.633,1034.09 542.299,1036.09 543.5,1038.5C 542.883,1038.61 542.383,1038.94 542,1039.5C 540.38,1037.76 538.88,1035.93 537.5,1034C 536.207,1033.51 534.873,1033.34 533.5,1033.5C 533.785,1031.71 533.452,1030.05 532.5,1028.5C 525.849,1019.51 519.183,1010.51 512.5,1001.5 Z"/></g>
<g><path style="opacity:1" fill="#9b480a" d="M 530.5,1022.5 C 532.193,1023.47 533.693,1024.81 535,1026.5C 535.627,1028.93 536.794,1030.93 538.5,1032.5C 537.167,1032.5 535.833,1032.5 534.5,1032.5C 534.128,1028.79 532.795,1025.46 530.5,1022.5 Z"/></g>
<g><path style="opacity:1" fill="#414140" d="M 1021.5,1046.5 C 1017.92,1050.33 1013.92,1053.66 1009.5,1056.5C 1012.06,1053.59 1014.73,1050.59 1017.5,1047.5C 1018.74,1046.75 1020.07,1046.42 1021.5,1046.5 Z"/></g>
<g><path style="opacity:1" fill="#3c3c3c" d="M 1423.5,1051.5 C 1426.51,1053.52 1428.84,1056.19 1430.5,1059.5C 1428.79,1057.8 1426.79,1056.47 1424.5,1055.5C 1423.57,1054.31 1423.24,1052.98 1423.5,1051.5 Z"/></g>
<g><path style="opacity:1" fill="#602107" d="M 543.5,1038.5 C 553.235,1048.9 562.568,1059.56 571.5,1070.5C 568.995,1070.02 566.662,1069.02 564.5,1067.5C 563.876,1065.04 562.376,1063.38 560,1062.5C 559.654,1060.78 559.154,1059.12 558.5,1057.5C 554.148,1053.98 550.314,1049.98 547,1045.5C 545.121,1043.47 543.954,1041.14 543.5,1038.5 Z"/></g>
<g><path style="opacity:1" fill="#8a3d08" d="M 981.5,1070.5 C 981.068,1071.71 980.401,1072.71 979.5,1073.5C 979.285,1071.82 979.952,1070.82 981.5,1070.5 Z"/></g>
<g><path style="opacity:1" fill="#333333" d="M 1434.5,1065.5 C 1438.35,1065.5 1441.02,1067.34 1442.5,1071C 1443.9,1072.44 1445.57,1073.27 1447.5,1073.5C 1448.17,1080.17 1451.84,1083.84 1458.5,1084.5C 1458.71,1086.14 1458.38,1087.64 1457.5,1089C 1460.45,1091.44 1462.78,1094.27 1464.5,1097.5C 1461.5,1094.67 1458.33,1092 1455,1089.5C 1449.32,1080.44 1442.49,1072.44 1434.5,1065.5 Z"/></g>
<g><path style="opacity:1" fill="#531e09" d="M 968.5,1081.5 C 968.001,1084.26 966.335,1085.93 963.5,1086.5C 964.973,1084.61 966.64,1082.94 968.5,1081.5 Z"/></g>
<g><path style="opacity:1" fill="#762f08" d="M 588.5,1092.5 C 589.906,1092.97 590.573,1093.97 590.5,1095.5C 589.094,1095.03 588.427,1094.03 588.5,1092.5 Z"/></g>
<g><path style="opacity:1" fill="#4b1505" d="M 956.5,1093.5 C 956.461,1094.58 956.127,1095.58 955.5,1096.5C 953.263,1097.13 951.597,1098.47 950.5,1100.5C 949.311,1101.43 947.978,1101.76 946.5,1101.5C 949.52,1098.48 952.854,1095.82 956.5,1093.5 Z"/></g>
<g><path style="opacity:1" fill="#4d1605" d="M 946.5,1101.5 C 946.167,1105.17 944.167,1107.17 940.5,1107.5C 942.167,1105.17 944.167,1103.17 946.5,1101.5 Z"/></g>
<g><path style="opacity:1" fill="#3e0e03" d="M 597.5,1105.5 C 599.587,1106.58 600.92,1108.25 601.5,1110.5C 599.065,1109.73 597.731,1108.06 597.5,1105.5 Z"/></g>
<g><path style="opacity:1" fill="#3b1305" d="M 927.5,1120.5 C 925.909,1122.44 924.242,1124.44 922.5,1126.5C 921.675,1127.39 920.675,1127.72 919.5,1127.5C 921.569,1124.43 924.236,1122.09 927.5,1120.5 Z"/></g>
<g><path style="opacity:1" fill="#3a3a3a" d="M 931.5,1129.5 C 928.302,1133.35 924.969,1137.19 921.5,1141C 920.906,1141.46 920.239,1141.63 919.5,1141.5C 922.252,1138.92 924.419,1135.92 926,1132.5C 927.264,1130.39 929.097,1129.39 931.5,1129.5 Z"/></g>
<g><path style="opacity:1" fill="#491405" d="M 913.5,1133.5 C 913.167,1135.83 911.833,1137.17 909.5,1137.5C 910.402,1135.66 911.736,1134.33 913.5,1133.5 Z"/></g>
<g><path style="opacity:1" fill="#491304" d="M 614.5,1126.5 C 621.262,1135.71 628.262,1144.71 635.5,1153.5C 633.629,1153.14 632.129,1152.14 631,1150.5C 627.35,1145.19 623.35,1140.19 619,1135.5C 617.273,1132.61 615.773,1129.61 614.5,1126.5 Z"/></g>
<g><path style="opacity:1" fill="#5c1e07" d="M 906.5,1139.5 C 905.344,1145.32 902.011,1149.32 896.5,1151.5C 899.486,1147.18 902.82,1143.18 906.5,1139.5 Z"/></g>
<g><path style="opacity:1" fill="#4e1406" d="M 896.5,1151.5 C 895.833,1153.5 894.5,1154.83 892.5,1155.5C 892.833,1153.17 894.167,1151.83 896.5,1151.5 Z"/></g>
<g><path style="opacity:1" fill="#454545" d="M 904.5,1155.5 C 902.628,1158.58 900.295,1161.25 897.5,1163.5C 898.412,1161.4 899.579,1159.4 901,1157.5C 901.816,1156.18 902.983,1155.51 904.5,1155.5 Z"/></g>
<g><path style="opacity:1" fill="#491405" d="M 636.5,1155.5 C 641.417,1159.3 645.417,1163.97 648.5,1169.5C 646.989,1168.5 645.322,1167.83 643.5,1167.5C 643.649,1166.45 643.483,1165.45 643,1164.5C 639.834,1162.15 637.667,1159.15 636.5,1155.5 Z"/></g>
<g><path style="opacity:1" fill="#4b1707" d="M 887.5,1160.5 C 885.575,1165.43 882.242,1169.09 877.5,1171.5C 880.833,1167.83 884.167,1164.17 887.5,1160.5 Z"/></g>
<g><path style="opacity:1" fill="#6a2809" d="M 648.5,1169.5 C 650.587,1170.58 651.92,1172.25 652.5,1174.5C 650.107,1173.65 648.774,1171.98 648.5,1169.5 Z"/></g>
<g><path style="opacity:1" fill="#692607" d="M 875.5,1174.5 C 875.5,1175.83 874.833,1176.5 873.5,1176.5C 873.5,1175.17 874.167,1174.5 875.5,1174.5 Z"/></g>
<g><path style="opacity:1" fill="#5f1f06" d="M 654.5,1176.5 C 655.401,1177.29 656.068,1178.29 656.5,1179.5C 654.952,1179.18 654.285,1178.18 654.5,1176.5 Z"/></g>
<g><path style="opacity:1" fill="#461204" d="M 656.5,1179.5 C 657.473,1181.14 658.806,1182.47 660.5,1183.5C 660.67,1186.2 662.003,1187.87 664.5,1188.5C 664.557,1189.61 664.89,1190.61 665.5,1191.5C 663.629,1191.14 662.129,1190.14 661,1188.5C 659.192,1185.56 657.692,1182.56 656.5,1179.5 Z"/></g>
<g><path style="opacity:1" fill="#a04c0b" d="M 660.5,1183.5 C 662.063,1184.94 663.396,1186.61 664.5,1188.5C 662.003,1187.87 660.67,1186.2 660.5,1183.5 Z"/></g>
<g><path style="opacity:1" fill="#491405" d="M 666.5,1193.5 C 668.5,1194.83 670.167,1196.5 671.5,1198.5C 668.833,1197.83 667.167,1196.17 666.5,1193.5 Z"/></g>
<g><path style="opacity:1" fill="#602006" d="M 676.5,1205.5 C 677.906,1205.97 678.573,1206.97 678.5,1208.5C 677.094,1208.03 676.427,1207.03 676.5,1205.5 Z"/></g>
<g><path style="opacity:1" fill="#3e1003" d="M 840.5,1214.5 C 839.167,1217.83 836.833,1220.17 833.5,1221.5C 835.5,1218.83 837.833,1216.5 840.5,1214.5 Z"/></g>
<g><path style="opacity:1" fill="#561d07" d="M 833.5,1221.5 C 832.92,1223.75 831.587,1225.42 829.5,1226.5C 830.08,1224.25 831.413,1222.58 833.5,1221.5 Z"/></g>
<g><path style="opacity:1" fill="#401104" d="M 829.5,1226.5 C 828.581,1229.09 826.914,1231.09 824.5,1232.5C 825.419,1229.91 827.086,1227.91 829.5,1226.5 Z"/></g>
<g><path style="opacity:1" fill="#4b1405" d="M 703.5,1238.5 C 706.55,1240.55 708.883,1243.22 710.5,1246.5C 707.137,1244.8 704.803,1242.13 703.5,1238.5 Z"/></g>
<g><path style="opacity:1" fill="#6a2809" d="M 822.5,1234.5 C 821.232,1238.77 818.565,1241.77 814.5,1243.5C 816.482,1239.85 819.149,1236.85 822.5,1234.5 Z"/></g>
<g><path style="opacity:1" fill="#622107" d="M 710.5,1246.5 C 711.906,1246.97 712.573,1247.97 712.5,1249.5C 711.094,1249.03 710.427,1248.03 710.5,1246.5 Z"/></g>
<g><path style="opacity:1" fill="#7b340b" d="M 712.5,1249.5 C 714.5,1250.17 715.833,1251.5 716.5,1253.5C 716.167,1253.5 715.833,1253.5 715.5,1253.5C 713.738,1252.74 712.738,1251.4 712.5,1249.5 Z"/></g>
<g><path style="opacity:1" fill="#6c2809" d="M 814.5,1243.5 C 811.424,1251.25 806.757,1257.92 800.5,1263.5C 801.739,1260.41 803.239,1257.41 805,1254.5C 807.91,1250.52 811.077,1246.85 814.5,1243.5 Z"/></g>
<g><path style="opacity:1" fill="#3e0e03" d="M 715.5,1253.5 C 715.833,1253.5 716.167,1253.5 716.5,1253.5C 717.925,1254.92 718.925,1256.59 719.5,1258.5C 717.003,1257.87 715.67,1256.2 715.5,1253.5 Z"/></g>
<g><path style="opacity:1" fill="#424242" d="M 830.5,1239.5 C 825.932,1247.61 821.099,1255.61 816,1263.5C 814.89,1265.04 813.39,1265.7 811.5,1265.5C 812.688,1264.64 813.855,1263.64 815,1262.5C 819.352,1255.3 823.519,1247.97 827.5,1240.5C 828.325,1239.61 829.325,1239.28 830.5,1239.5 Z"/></g>
<g><path style="opacity:1" fill="#6a2707" d="M 800.5,1263.5 C 800.573,1265.03 799.906,1266.03 798.5,1266.5C 798.427,1264.97 799.094,1263.97 800.5,1263.5 Z"/></g>
<g><path style="opacity:1" fill="#451104" d="M 725.5,1266.5 C 727.262,1267.26 728.262,1268.6 728.5,1270.5C 726.088,1270.31 725.088,1268.97 725.5,1266.5 Z"/></g>
<g><path style="opacity:1" fill="#793108" d="M 798.5,1266.5 C 798.573,1268.03 797.906,1269.03 796.5,1269.5C 796.427,1267.97 797.094,1266.97 798.5,1266.5 Z"/></g>
<g><path style="opacity:1" fill="#5f2008" d="M 796.5,1269.5 C 796.573,1271.03 795.906,1272.03 794.5,1272.5C 794.427,1270.97 795.094,1269.97 796.5,1269.5 Z"/></g>
<g><path style="opacity:1" fill="#742e08" d="M 794.5,1272.5 C 794.573,1274.03 793.906,1275.03 792.5,1275.5C 792.427,1273.97 793.094,1272.97 794.5,1272.5 Z"/></g>
<g><path style="opacity:1" fill="#4d1505" d="M 738.5,1281.5 C 739.5,1281.83 740.167,1282.5 740.5,1283.5C 740.557,1284.61 740.89,1285.61 741.5,1286.5C 739.259,1285.7 738.259,1284.03 738.5,1281.5 Z"/></g>
<g><path style="opacity:1" fill="#8e3f09" d="M 740.5,1283.5 C 742.914,1284.91 744.581,1286.91 745.5,1289.5C 744.167,1288.5 742.833,1287.5 741.5,1286.5C 740.89,1285.61 740.557,1284.61 740.5,1283.5 Z"/></g>
<g><path style="opacity:1" fill="#461304" d="M 792.5,1275.5 C 790.285,1282.27 786.785,1288.27 782,1293.5C 781.161,1297.64 780.327,1301.64 779.5,1305.5C 779.307,1301.43 779.64,1297.43 780.5,1293.5C 783.989,1287.2 787.989,1281.2 792.5,1275.5 Z"/></g>
<g><path style="opacity:1" fill="#bd5f0e" d="M 780.5,1293.5 C 779.64,1297.43 779.307,1301.43 779.5,1305.5C 779.5,1305.83 779.5,1306.17 779.5,1306.5C 779.167,1306.5 778.833,1306.5 778.5,1306.5C 778.334,1302.49 778.501,1298.49 779,1294.5C 779.383,1293.94 779.883,1293.61 780.5,1293.5 Z"/></g>
<g><path style="opacity:1" fill="#4c1606" d="M 750.5,1295.5 C 756.815,1300.82 762.481,1306.82 767.5,1313.5C 762.216,1308.39 756.716,1303.39 751,1298.5C 750.517,1297.55 750.351,1296.55 750.5,1295.5 Z"/></g>
<g><path style="opacity:1" fill="#350a01" d="M 778.5,1306.5 C 778.833,1306.5 779.167,1306.5 779.5,1306.5C 778.836,1311.47 778.503,1316.47 778.5,1321.5C 773.891,1321.89 770.891,1319.89 769.5,1315.5C 771.167,1316.83 772.833,1318.17 774.5,1319.5C 775.209,1320.4 776.209,1320.74 777.5,1320.5C 777.5,1317.83 777.5,1315.17 777.5,1312.5C 777.833,1310.5 778.167,1308.5 778.5,1306.5 Z"/></g>
<g><path style="opacity:1" fill="#9e4b0b" d="M 777.5,1312.5 C 777.5,1315.17 777.5,1317.83 777.5,1320.5C 776.209,1320.74 775.209,1320.4 774.5,1319.5C 776.083,1317.49 777.083,1315.16 777.5,1312.5 Z"/></g>
<g><path style="opacity:1" fill="#4c4c4b" d="M 788.5,1316.5 C 791.152,1317.15 792.818,1318.82 793.5,1321.5C 797.41,1317.91 801.41,1317.74 805.5,1321C 807.229,1322.79 807.896,1324.96 807.5,1327.5C 806.566,1326.43 806.232,1325.1 806.5,1323.5C 803.882,1323.22 801.382,1322.55 799,1321.5C 796.619,1322.44 794.119,1322.77 791.5,1322.5C 790.794,1320.33 789.794,1318.33 788.5,1316.5 Z"/></g>
<g><path style="opacity:1" fill="#383838" d="M 1026.5,1597.5 C 1031.06,1601.38 1035.56,1605.38 1040,1609.5C 1041.71,1613.47 1043.87,1617.14 1046.5,1620.5C 1045.08,1620.29 1043.74,1619.79 1042.5,1619C 1039.79,1615.76 1037.46,1612.26 1035.5,1608.5C 1034.68,1607.61 1033.68,1607.28 1032.5,1607.5C 1032.65,1606.45 1032.48,1605.45 1032,1604.5C 1028.8,1603.15 1026.97,1600.82 1026.5,1597.5 Z"/></g>
<g><path style="opacity:1" fill="#2e2e2e" d="M 1629.5,1696.5 C 1631.46,1696.95 1631.8,1697.95 1630.5,1699.5C 1626.81,1703.19 1623.48,1707.19 1620.5,1711.5C 1618.8,1712.55 1617.13,1713.55 1615.5,1714.5C 1619.72,1708.26 1624.39,1702.26 1629.5,1696.5 Z"/></g>
<g><path style="opacity:1" fill="#323232" d="M 1615.5,1714.5 C 1614.96,1716.12 1614.63,1717.78 1614.5,1719.5C 1613.13,1719.34 1611.79,1719.51 1610.5,1720C 1605.17,1725.49 1599.34,1730.33 1593,1734.5C 1591.12,1736.01 1588.95,1736.68 1586.5,1736.5C 1588.77,1734.36 1591.43,1732.69 1594.5,1731.5C 1600.63,1724.69 1607.63,1719.03 1615.5,1714.5 Z"/></g>
<g><path style="opacity:1" fill="#343434" d="M 1586.5,1736.5 C 1586.62,1738.48 1585.95,1740.15 1584.5,1741.5C 1579.95,1743.66 1575.62,1746 1571.5,1748.5C 1576.48,1744.53 1581.48,1740.53 1586.5,1736.5 Z"/></g>
<g><path style="opacity:1" fill="#272727" d="M 1568.5,1750.5 C 1567.41,1753.73 1565.07,1755.57 1561.5,1756C 1559.86,1759.32 1557.19,1760.82 1553.5,1760.5C 1557.94,1756.44 1562.94,1753.1 1568.5,1750.5 Z"/></g>
<g><path style="opacity:1" fill="#2a2a2a" d="M 1553.5,1760.5 C 1552.24,1762.93 1550.41,1764.93 1548,1766.5C 1544.59,1768.3 1541.09,1769.63 1537.5,1770.5C 1543.05,1767.46 1548.39,1764.12 1553.5,1760.5 Z"/></g>
<g><path style="opacity:1" fill="#30302f" d="M 1537.5,1770.5 C 1537.5,1771.5 1537.5,1772.5 1537.5,1773.5C 1533.59,1775.94 1529.25,1777.61 1524.5,1778.5C 1528.79,1775.9 1533.12,1773.23 1537.5,1770.5 Z"/></g>
<g><path style="opacity:1" fill="#2a2a2a" d="M 1514.5,1783.5 C 1513.03,1785.13 1511.36,1786.63 1509.5,1788C 1502.76,1791.08 1496.09,1794.24 1489.5,1797.5C 1485.41,1799.71 1481.08,1801.05 1476.5,1801.5C 1488.98,1794.93 1501.65,1788.93 1514.5,1783.5 Z"/></g>
<g><path style="opacity:1" fill="#363636" d="M 1475.5,1801.5 C 1471.71,1805.08 1467.04,1806.75 1461.5,1806.5C 1465.91,1804.3 1470.58,1802.64 1475.5,1801.5 Z"/></g>
<g><path style="opacity:1" fill="#575756" d="M 1317.5,1817.5 C 1323.99,1818.45 1330.33,1818.45 1336.5,1817.5C 1338.76,1817.94 1340.93,1818.61 1343,1819.5C 1344.68,1818.4 1346.18,1818.73 1347.5,1820.5C 1352.4,1819.56 1357.23,1819.89 1362,1821.5C 1365.15,1820.41 1368.15,1819.74 1371,1819.5C 1375.97,1820.02 1380.8,1821.02 1385.5,1822.5C 1383.38,1825.53 1380.71,1826.03 1377.5,1824C 1366.42,1824.13 1355.58,1823.3 1345,1821.5C 1344.48,1822.52 1343.65,1823.18 1342.5,1823.5C 1339.96,1822.15 1337.29,1821.15 1334.5,1820.5C 1332.23,1821.48 1329.73,1821.82 1327,1821.5C 1325.31,1819.96 1323.31,1818.96 1321,1818.5C 1319.13,1821.16 1317.97,1820.83 1317.5,1817.5 Z"/></g>
<g><path style="opacity:1" fill="#343434" d="M 1428.5,1816.5 C 1422.29,1818.37 1415.96,1820.03 1409.5,1821.5C 1408.39,1820.98 1407.23,1820.64 1406,1820.5C 1399.29,1822.25 1392.46,1822.91 1385.5,1822.5C 1399.63,1820.2 1413.97,1818.2 1428.5,1816.5 Z"/></g>
</svg>
