<?xml version="1.0" encoding="UTF-8"?>
<!DOCTYPE svg PUBLIC "-//W3C//DTD SVG 1.1//EN" "http://www.w3.org/Graphics/SVG/1.1/DTD/svg11.dtd">
<svg xmlns="http://www.w3.org/2000/svg" version="1.1" width="2048px" height="2048px" style="shape-rendering:geometricPrecision; text-rendering:geometricPrecision; image-rendering:optimizeQuality; fill-rule:evenodd; clip-rule:evenodd" xmlns:xlink="http://www.w3.org/1999/xlink">
<g><path style="opacity:0.695" fill="#060606" d="M 752.5,434.5 C 783.547,435.803 814.214,439.469 844.5,445.5C 867.361,451.933 889.028,461.1 909.5,473C 941.011,492.449 970.011,515.282 996.5,541.5C 998.078,542.298 999.744,542.798 1001.5,543C 1009.17,550 1016.83,557 1024.5,564C 1037.66,579.159 1051.49,593.659 1066,607.5C 1077.58,622.75 1090.25,637.083 1104,650.5C 1116.62,666.79 1129.62,682.79 1143,698.5C 1144.92,702.004 1147.08,705.337 1149.5,708.5C 1185.62,745.093 1220.12,783.093 1253,822.5C 1268.82,842.81 1284.15,863.477 1299,884.5C 1299.67,887.167 1299.67,889.833 1299,892.5C 1297.7,894.402 1297.03,896.402 1297,898.5C 1303.79,904.286 1309.46,910.952 1314,918.5C 1347.78,952.28 1379.45,987.947 1409,1025.5C 1416.69,1033.53 1424.36,1041.53 1432,1049.5C 1450.73,1073.98 1471.06,1096.98 1493,1118.5C 1510.34,1139.21 1527.68,1159.87 1545,1180.5C 1557.31,1194.14 1570.31,1207.14 1584,1219.5C 1594.8,1235.41 1606.8,1250.41 1620,1264.5C 1627.05,1273.22 1633.72,1282.22 1640,1291.5C 1650.53,1302.03 1659.53,1313.69 1667,1326.5C 1674.47,1345.25 1682.14,1363.91 1690,1382.5C 1696.11,1400.86 1699.28,1419.53 1699.5,1438.5C 1703.8,1467.67 1705.63,1497 1705,1526.5C 1703.34,1557.16 1696.34,1586.49 1684,1614.5C 1669.64,1643.54 1653.98,1671.88 1637,1699.5C 1633.62,1702.88 1630.62,1706.54 1628,1710.5C 1577.2,1759.17 1518.37,1795 1451.5,1818C 1420.29,1825.65 1388.63,1830.48 1356.5,1832.5C 1342.21,1832.34 1328.38,1830 1315,1825.5C 1305.12,1825.65 1295.62,1823.48 1286.5,1819C 1271,1815.84 1255.67,1811.84 1240.5,1807C 1228.34,1802.61 1216.34,1797.61 1204.5,1792C 1188.96,1783.07 1173.96,1773.4 1159.5,1763C 1145.03,1750.2 1130.87,1737.03 1117,1723.5C 1087.18,1689.16 1057.85,1654.5 1029,1619.5C 1019.91,1606.32 1010.58,1593.32 1001,1580.5C 997.779,1577.14 994.279,1574.14 990.5,1571.5C 982.763,1559.39 973.596,1548.39 963,1538.5C 943.03,1508.91 921.364,1480.57 898,1453.5C 889.54,1440.26 879.873,1427.93 869,1416.5C 859.574,1401 848.24,1387 835,1374.5C 827.52,1364.89 820.52,1354.89 814,1344.5C 811.54,1343.04 809.373,1341.21 807.5,1339C 802.856,1339.29 798.189,1339.29 793.5,1339C 787.622,1337.39 781.956,1335.23 776.5,1332.5C 762.877,1317.71 749.044,1303.04 735,1288.5C 696.906,1241.32 658.573,1194.32 620,1147.5C 603.089,1124.68 586.422,1101.68 570,1078.5C 550.5,1057.84 532.166,1036.17 515,1013.5C 509.366,1006.86 503.366,1000.53 497,994.5C 473.916,963.737 454.583,930.737 439,895.5C 436.667,894.5 435,892.833 434,890.5C 430.764,877.527 427.764,864.194 425,850.5C 423.339,828.881 421.173,807.381 418.5,786C 417.323,761.382 419.823,736.882 426,712.5C 434.111,690.177 443.778,668.51 455,647.5C 472.497,615.827 491.497,585.161 512,555.5C 520.749,546.756 528.749,537.422 536,527.5C 545.404,518.48 554.904,509.647 564.5,501C 584.371,488.23 604.705,476.23 625.5,465C 653.778,456.129 682.111,447.463 710.5,439C 724.646,437.463 738.646,435.963 752.5,434.5 Z"/></g>
<g><path style="opacity:1" fill="#3e1d18" d="M 820.5,448.5 C 804.067,446.088 787.4,444.255 770.5,443C 757.165,442.712 743.832,442.879 730.5,443.5C 730.611,442.883 730.944,442.383 731.5,442C 741.186,441.756 750.853,441.256 760.5,440.5C 761.772,440.57 762.938,440.903 764,441.5C 764.519,440.484 765.353,439.818 766.5,439.5C 771.075,441.487 775.742,442.154 780.5,441.5C 787.805,442.531 795.138,443.364 802.5,444C 805.172,444.834 807.839,445.668 810.5,446.5C 813.103,445.438 815.77,445.272 818.5,446C 819.381,446.708 820.047,447.542 820.5,448.5 Z"/></g>
<g><path style="opacity:1" fill="#121077" d="M 820.5,448.5 C 827.673,450.031 835.007,451.364 842.5,452.5C 845.625,453.479 848.958,453.813 852.5,453.5C 853.29,454.794 854.29,455.961 855.5,457C 858.955,457.898 862.289,459.065 865.5,460.5C 872.627,463.73 879.961,466.397 887.5,468.5C 890.678,471.258 894.345,473.258 898.5,474.5C 898.973,475.906 899.973,476.573 901.5,476.5C 903.336,478.588 905.669,479.921 908.5,480.5C 911.275,483.605 914.608,485.938 918.5,487.5C 921.32,489.745 924.32,491.745 927.5,493.5C 929.975,496.241 932.975,498.241 936.5,499.5C 940.614,503.064 944.948,506.397 949.5,509.5C 952.126,511.823 954.793,514.157 957.5,516.5C 964.895,523.234 972.561,529.567 980.5,535.5C 982.833,538.5 985.5,541.167 988.5,543.5C 993.462,549.797 998.795,555.797 1004.5,561.5C 1008.59,566.594 1013.26,570.927 1018.5,574.5C 1019.5,576.167 1020.83,577.5 1022.5,578.5C 1025.08,581.252 1028.08,583.419 1031.5,585C 1034.49,589.829 1038.49,593.329 1043.5,595.5C 1045.19,599.188 1047.86,601.855 1051.5,603.5C 1052.64,606.425 1054.3,609.092 1056.5,611.5C 1060.2,614.532 1063.53,617.865 1066.5,621.5C 1068.48,625.146 1071.15,628.146 1074.5,630.5C 1078.36,636.24 1082.7,641.573 1087.5,646.5C 1090.82,651.152 1094.49,655.485 1098.5,659.5C 1103.42,666.76 1109.09,673.426 1115.5,679.5C 1118.46,684.43 1122.13,688.763 1126.5,692.5C 1129.43,697.765 1133.1,702.432 1137.5,706.5C 1138.38,710.042 1140.38,712.709 1143.5,714.5C 1145.55,717.55 1148.22,719.883 1151.5,721.5C 1156.17,726.167 1160.83,730.833 1165.5,735.5C 1171.53,741.86 1177.53,748.193 1183.5,754.5C 1185.83,757.5 1188.5,760.167 1191.5,762.5C 1194.86,766.857 1198.2,771.191 1201.5,775.5C 1203.5,778.167 1205.83,780.5 1208.5,782.5C 1212.49,787.821 1216.82,792.821 1221.5,797.5C 1225.47,802.801 1229.8,807.801 1234.5,812.5C 1235.12,814.122 1236.12,815.455 1237.5,816.5C 1238.78,819.447 1240.78,821.781 1243.5,823.5C 1245.48,826.81 1247.82,829.81 1250.5,832.5C 1251.41,834.595 1252.58,836.595 1254,838.5C 1254.67,839.252 1255.5,839.586 1256.5,839.5C 1258,844.322 1260.66,848.322 1264.5,851.5C 1271.2,860.205 1277.53,869.205 1283.5,878.5C 1274.35,881.232 1265.02,883.398 1255.5,885C 1254.62,885.708 1253.95,886.542 1253.5,887.5C 1249.02,887.882 1244.69,888.882 1240.5,890.5C 1234.04,893.627 1227.37,896.461 1220.5,899C 1217.81,900.049 1215.48,901.549 1213.5,903.5C 1210.69,903.025 1208.69,904.025 1207.5,906.5C 1202.11,907.895 1197.44,910.562 1193.5,914.5C 1193.44,913.957 1193.11,913.624 1192.5,913.5C 1189.92,914.943 1187.59,916.61 1185.5,918.5C 1169.79,927.681 1154.46,937.347 1139.5,947.5C 1129.19,953.974 1118.52,959.807 1107.5,965C 1105.63,966.704 1103.96,968.537 1102.5,970.5C 1063.24,1000.96 1024.57,1032.13 986.5,1064C 983.72,1066.34 981.053,1069.51 978.5,1073.5C 970.522,1079.48 963.189,1086.15 956.5,1093.5C 950.88,1097.02 945.88,1101.35 941.5,1106.5C 940.29,1106.93 939.29,1107.6 938.5,1108.5C 933.194,1113.14 928.194,1118.14 923.5,1123.5C 920.457,1125.18 918.123,1127.51 916.5,1130.5C 912.544,1132.79 909.211,1135.79 906.5,1139.5C 899.825,1146.18 893.492,1153.18 887.5,1160.5C 885.833,1161.5 884.5,1162.83 883.5,1164.5C 881.273,1166.61 879.273,1168.94 877.5,1171.5C 872.106,1175.89 867.439,1180.89 863.5,1186.5C 860.87,1188.63 858.37,1190.96 856,1193.5C 846.681,1205.98 836.847,1217.98 826.5,1229.5C 823.427,1231.57 821.094,1234.24 819.5,1237.5C 810.656,1245.78 803.656,1255.44 798.5,1266.5C 795.723,1268.95 793.723,1271.95 792.5,1275.5C 789.723,1277.95 787.723,1280.95 786.5,1284.5C 784.613,1287.58 782.446,1290.58 780,1293.5C 779.193,1302.32 777.693,1310.99 775.5,1319.5C 774.482,1318.81 773.482,1318.14 772.5,1317.5C 767.5,1311.83 762.167,1306.5 756.5,1301.5C 754.628,1298.42 752.295,1295.75 749.5,1293.5C 748.5,1291.83 747.167,1290.5 745.5,1289.5C 742.857,1286.19 740.19,1282.85 737.5,1279.5C 735.212,1275.54 732.212,1272.21 728.5,1269.5C 727.876,1267.25 726.543,1265.58 724.5,1264.5C 721.547,1259.55 718.214,1254.88 714.5,1250.5C 708.202,1243.26 702.368,1235.59 697,1227.5C 691.936,1222.6 687.103,1217.6 682.5,1212.5C 680.183,1208.85 677.516,1205.52 674.5,1202.5C 673.581,1199.91 671.914,1197.91 669.5,1196.5C 666.647,1190.31 662.647,1184.98 657.5,1180.5C 655.206,1176.87 652.54,1173.54 649.5,1170.5C 647.118,1165.75 643.784,1161.75 639.5,1158.5C 639.5,1157.83 639.167,1157.5 638.5,1157.5C 633.799,1149.44 628.132,1142.1 621.5,1135.5C 620.005,1131.33 617.338,1127.99 613.5,1125.5C 602.801,1111.62 592.634,1097.29 583,1082.5C 580.666,1079 577.832,1076 574.5,1073.5C 566.218,1064.21 557.884,1054.88 549.5,1045.5C 548.219,1042.55 546.219,1040.22 543.5,1038.5C 535.218,1026.95 526.218,1015.95 516.5,1005.5C 512.561,999.892 507.894,994.892 502.5,990.5C 495.55,979.553 488.216,968.887 480.5,958.5C 480.672,957.508 480.338,956.842 479.5,956.5C 478.471,953.109 476.471,950.443 473.5,948.5C 471.724,943.815 469.391,939.482 466.5,935.5C 463.4,929.632 460.566,923.632 458,917.5C 453.798,911.722 450.631,905.388 448.5,898.5C 448.5,897.833 448.167,897.5 447.5,897.5C 444.622,891.989 442.289,886.323 440.5,880.5C 440.011,879.005 439.345,877.671 438.5,876.5C 435.401,867.766 433.401,858.766 432.5,849.5C 432.672,848.508 432.338,847.842 431.5,847.5C 431.628,843.119 431.295,838.785 430.5,834.5C 430.5,833.833 430.167,833.5 429.5,833.5C 429.5,830.5 429.5,827.5 429.5,824.5C 429.5,824.167 429.5,823.833 429.5,823.5C 430.097,823.265 430.43,822.765 430.5,822C 429.908,817.61 428.908,813.443 427.5,809.5C 426.59,789.851 426.257,770.185 426.5,750.5C 426.5,750.167 426.5,749.833 426.5,749.5C 427.579,739.513 429.245,729.513 431.5,719.5C 437.936,702.173 444.936,685.173 452.5,668.5C 454.794,665.63 456.128,662.297 456.5,658.5C 458.796,656.599 460.629,654.266 462,651.5C 465.876,645.081 469.209,638.414 472,631.5C 479.748,619.008 487.248,606.341 494.5,593.5C 496.975,591.23 498.975,588.563 500.5,585.5C 508.363,573.455 516.863,561.788 526,550.5C 531.453,546.886 535.619,542.22 538.5,536.5C 539.803,534.858 541.136,533.191 542.5,531.5C 544.175,529.998 546.008,528.665 548,527.5C 548.483,526.552 548.649,525.552 548.5,524.5C 555.494,519.966 561.828,514.466 567.5,508C 575.558,502.965 583.891,498.299 592.5,494C 593.743,492.846 594.743,491.512 595.5,490C 606.958,484.772 617.958,478.772 628.5,472C 633.002,470.635 637.336,469.135 641.5,467.5C 643.553,467.598 645.22,466.931 646.5,465.5C 653.677,463.722 660.677,461.722 667.5,459.5C 669.306,458.976 670.972,458.309 672.5,457.5C 680.759,455.442 688.759,453.109 696.5,450.5C 701.165,449.943 705.498,448.61 709.5,446.5C 715.64,444.977 721.807,444.643 728,445.5C 729.301,445.361 730.134,444.695 730.5,443.5C 743.832,442.879 757.165,442.712 770.5,443C 787.4,444.255 804.067,446.088 820.5,448.5 Z"/></g>
<g><path style="opacity:1" fill="#401c13" d="M 730.5,443.5 C 730.134,444.695 729.301,445.361 728,445.5C 721.807,444.643 715.64,444.977 709.5,446.5C 709.611,445.883 709.944,445.383 710.5,445C 713.832,444.751 716.999,443.918 720,442.5C 723.441,443.382 726.941,443.716 730.5,443.5 Z"/></g>
<g><path style="opacity:1" fill="#37170d" d="M 709.5,446.5 C 705.498,448.61 701.165,449.943 696.5,450.5C 698.547,448.657 701.047,447.324 704,446.5C 705.626,446.854 707.459,446.854 709.5,446.5 Z"/></g>
<g><path style="opacity:1" fill="#441f14" d="M 852.5,453.5 C 848.958,453.813 845.625,453.479 842.5,452.5C 845.456,452.301 848.456,451.968 851.5,451.5C 852.298,451.957 852.631,452.624 852.5,453.5 Z"/></g>
<g><path style="opacity:1" fill="#592d0d" d="M 672.5,457.5 C 670.972,458.309 669.306,458.976 667.5,459.5C 667.343,458.127 667.51,456.793 668,455.5C 669.11,457.037 670.61,457.703 672.5,457.5 Z"/></g>
<g><path style="opacity:1" fill="#3e1c16" d="M 865.5,460.5 C 867.726,459.441 870.059,459.608 872.5,461C 877.844,462.962 882.844,465.462 887.5,468.5C 879.961,466.397 872.627,463.73 865.5,460.5 Z"/></g>
<g><path style="opacity:1" fill="#5a2e10" d="M 646.5,465.5 C 645.22,466.931 643.553,467.598 641.5,467.5C 642.715,465.212 644.381,464.545 646.5,465.5 Z"/></g>
<g><path style="opacity:1" fill="#472217" d="M 887.5,468.5 C 890.641,468.949 893.641,469.949 896.5,471.5C 897.425,472.357 898.092,473.357 898.5,474.5C 894.345,473.258 890.678,471.258 887.5,468.5 Z"/></g>
<g><path style="opacity:1" fill="#432023" d="M 901.5,476.5 C 904.931,476.045 907.264,477.379 908.5,480.5C 905.669,479.921 903.336,478.588 901.5,476.5 Z"/></g>
<g><path style="opacity:1" fill="#3d1a17" d="M 908.5,480.5 C 911.269,481.437 913.936,482.604 916.5,484C 917.305,485.113 917.972,486.279 918.5,487.5C 914.608,485.938 911.275,483.605 908.5,480.5 Z"/></g>
<g><path style="opacity:1" fill="#3b1a13" d="M 927.5,493.5 C 931.316,494.323 934.316,496.323 936.5,499.5C 932.975,498.241 929.975,496.241 927.5,493.5 Z"/></g>
<g><path style="opacity:1" fill="#452015" d="M 949.5,509.5 C 953.395,510.393 956.062,512.726 957.5,516.5C 954.793,514.157 952.126,511.823 949.5,509.5 Z"/></g>
<g><path style="opacity:1" fill="#4d2510" d="M 542.5,531.5 C 541.136,533.191 539.803,534.858 538.5,536.5C 537.719,533.575 539.052,531.908 542.5,531.5 Z"/></g>
<g><path style="opacity:1" fill="#36170f" d="M 980.5,535.5 C 984.833,536.5 987.5,539.167 988.5,543.5C 985.5,541.167 982.833,538.5 980.5,535.5 Z"/></g>
<g><path style="opacity:1" fill="#4e2717" d="M 1004.5,561.5 C 1008.05,562.679 1011.72,563.679 1015.5,564.5C 1017.71,568.777 1021.05,572.111 1025.5,574.5C 1026.52,577.21 1028.02,579.543 1030,581.5C 1034.08,586.743 1038.58,591.41 1043.5,595.5C 1038.49,593.329 1034.49,589.829 1031.5,585C 1028.08,583.419 1025.08,581.252 1022.5,578.5C 1024.22,574.218 1022.89,572.885 1018.5,574.5C 1013.26,570.927 1008.59,566.594 1004.5,561.5 Z"/></g>
<g><path style="opacity:1" fill="#3b2141" d="M 1022.5,578.5 C 1020.83,577.5 1019.5,576.167 1018.5,574.5C 1022.89,572.885 1024.22,574.218 1022.5,578.5 Z"/></g>
<g><path style="opacity:1" fill="#462015" d="M 500.5,585.5 C 498.975,588.563 496.975,591.23 494.5,593.5C 493.086,591.402 493.752,590.402 496.5,590.5C 495.756,587.05 497.09,585.384 500.5,585.5 Z"/></g>
<g><path style="opacity:1" fill="#492210" d="M 1043.5,595.5 C 1047.14,597.145 1049.81,599.812 1051.5,603.5C 1047.86,601.855 1045.19,599.188 1043.5,595.5 Z"/></g>
<g><path style="opacity:1" fill="#421f18" d="M 1051.5,603.5 C 1052.71,604.234 1054.04,604.567 1055.5,604.5C 1055.35,605.552 1055.52,606.552 1056,607.5C 1058.68,610.016 1061.18,612.683 1063.5,615.5C 1065.03,617.289 1066.03,619.289 1066.5,621.5C 1063.53,617.865 1060.2,614.532 1056.5,611.5C 1054.3,609.092 1052.64,606.425 1051.5,603.5 Z"/></g>
<g><path style="opacity:1" fill="#3c1a16" d="M 1066.5,621.5 C 1069.06,622.592 1071.23,624.258 1073,626.5C 1073.79,627.745 1074.29,629.078 1074.5,630.5C 1071.15,628.146 1068.48,625.146 1066.5,621.5 Z"/></g>
<g><path style="opacity:1" fill="#3c1a14" d="M 1074.5,630.5 C 1075.24,630.369 1075.91,630.536 1076.5,631C 1081.19,635.509 1084.85,640.675 1087.5,646.5C 1082.7,641.573 1078.36,636.24 1074.5,630.5 Z"/></g>
<g><path style="opacity:1" fill="#3a1a15" d="M 1087.5,646.5 C 1091.09,648.586 1094.26,651.253 1097,654.5C 1097.32,656.061 1098.15,657.228 1099.5,658C 1098.94,658.383 1098.61,658.883 1098.5,659.5C 1094.49,655.485 1090.82,651.152 1087.5,646.5 Z"/></g>
<g><path style="opacity:1" fill="#391914" d="M 456.5,658.5 C 456.128,662.297 454.794,665.63 452.5,668.5C 452.752,664.673 454.085,661.34 456.5,658.5 Z"/></g>
<g><path style="opacity:1" fill="#3c1a15" d="M 1115.5,679.5 C 1116.68,679.281 1117.68,679.614 1118.5,680.5C 1121.97,683.969 1124.64,687.969 1126.5,692.5C 1122.13,688.763 1118.46,684.43 1115.5,679.5 Z"/></g>
<g><path style="opacity:1" fill="#3b1c14" d="M 1137.5,706.5 C 1139.81,708.83 1141.81,711.496 1143.5,714.5C 1140.38,712.709 1138.38,710.042 1137.5,706.5 Z"/></g>
<g><path style="opacity:1" fill="#3d1b1b" d="M 1143.5,714.5 C 1146.81,716.146 1149.48,718.48 1151.5,721.5C 1148.22,719.883 1145.55,717.55 1143.5,714.5 Z"/></g>
<g><path style="opacity:1" fill="#3e1d1b" d="M 1151.5,721.5 C 1157.46,724.79 1162.12,729.456 1165.5,735.5C 1160.83,730.833 1156.17,726.167 1151.5,721.5 Z"/></g>
<g><path style="opacity:1" fill="#401e18" d="M 431.5,719.5 C 429.245,729.513 427.579,739.513 426.5,749.5C 426.704,743.404 426.704,737.404 426.5,731.5C 428.43,728.128 429.596,724.461 430,720.5C 430.383,719.944 430.883,719.611 431.5,719.5 Z"/></g>
<g><path style="opacity:1" fill="#3b1909" d="M 1183.5,754.5 C 1187.87,755.536 1190.54,758.203 1191.5,762.5C 1188.5,760.167 1185.83,757.5 1183.5,754.5 Z"/></g>
<g><path style="opacity:1" fill="#452018" d="M 1208.5,782.5 C 1205.83,780.5 1203.5,778.167 1201.5,775.5C 1201.56,774.957 1201.89,774.624 1202.5,774.5C 1204.93,776.921 1206.93,779.588 1208.5,782.5 Z"/></g>
<g><path style="opacity:1" fill="#452014" d="M 426.5,750.5 C 426.257,770.185 426.59,789.851 427.5,809.5C 426.522,809.189 425.855,808.522 425.5,807.5C 425.523,801.637 425.523,795.803 425.5,790C 424.572,789.612 423.905,788.945 423.5,788C 426.114,784.118 426.114,780.285 423.5,776.5C 424.135,772.633 424.801,768.8 425.5,765C 424.76,763.215 424.093,761.382 423.5,759.5C 424.953,756.575 425.953,753.575 426.5,750.5 Z"/></g>
<g><path style="opacity:1" fill="#3b1917" d="M 1221.5,797.5 C 1225.72,801.22 1229.89,805.22 1234,809.5C 1234.48,810.448 1234.65,811.448 1234.5,812.5C 1229.8,807.801 1225.47,802.801 1221.5,797.5 Z"/></g>
<g><path style="opacity:1" fill="#482213" d="M 427.5,809.5 C 428.908,813.443 429.908,817.61 430.5,822C 430.43,822.765 430.097,823.265 429.5,823.5C 428.402,818.908 427.735,814.241 427.5,809.5 Z"/></g>
<g><path style="opacity:1" fill="#411d17" d="M 1237.5,816.5 C 1240.58,817.914 1242.58,820.248 1243.5,823.5C 1240.78,821.781 1238.78,819.447 1237.5,816.5 Z"/></g>
<g><path style="opacity:1" fill="#3a1912" d="M 1243.5,823.5 C 1247.31,825.311 1249.64,828.311 1250.5,832.5C 1247.82,829.81 1245.48,826.81 1243.5,823.5 Z"/></g>
<g><path style="opacity:1" fill="#4e2612" d="M 429.5,824.5 C 429.5,827.5 429.5,830.5 429.5,833.5C 425.509,830.482 425.509,827.482 429.5,824.5 Z"/></g>
<g><path style="opacity:1" fill="#3e1e21" d="M 430.5,834.5 C 431.295,838.785 431.628,843.119 431.5,847.5C 429.698,846.685 428.698,845.185 428.5,843C 428.905,842.055 429.572,841.388 430.5,841C 429.189,838.726 429.189,836.56 430.5,834.5 Z"/></g>
<g><path style="opacity:1" fill="#3f1c16" d="M 1256.5,839.5 C 1257.72,840.028 1258.89,840.695 1260,841.5C 1261.45,844.909 1262.95,848.242 1264.5,851.5C 1260.66,848.322 1258,844.322 1256.5,839.5 Z"/></g>
<g><path style="opacity:1" fill="#472111" d="M 432.5,849.5 C 433.401,858.766 435.401,867.766 438.5,876.5C 437.5,876.5 436.5,876.5 435.5,876.5C 435.5,875.167 435.5,873.833 435.5,872.5C 434.5,872.5 433.5,872.5 432.5,872.5C 432.48,870.857 433.147,869.524 434.5,868.5C 433.248,866.999 432.248,865.332 431.5,863.5C 431.632,858.717 431.965,854.05 432.5,849.5 Z"/></g>
<g><path style="opacity:1" fill="#335253" d="M 1288.5,891.5 C 1288.54,890.417 1288.87,889.417 1289.5,888.5C 1279.67,887.547 1270,888.547 1260.5,891.5C 1261.68,889.933 1263.35,889.099 1265.5,889C 1272.54,887.253 1279.71,886.087 1287,885.5C 1289.67,885.123 1291.5,886.123 1292.5,888.5C 1291.9,890.468 1290.57,891.468 1288.5,891.5 Z"/></g>
<g><path style="opacity:1" fill="#6c7676" d="M 1288.5,891.5 C 1286.83,891.5 1285.17,891.5 1283.5,891.5C 1282.84,894.455 1282.51,897.455 1282.5,900.5C 1285.48,900.037 1288.48,899.704 1291.5,899.5C 1291.34,900.873 1291.51,902.207 1292,903.5C 1299.7,910.204 1306.37,917.87 1312,926.5C 1326.17,939.954 1339.83,953.954 1353,968.5C 1369.62,988.796 1386.46,1008.8 1403.5,1028.5C 1408.04,1034.71 1413.37,1040.38 1419.5,1045.5C 1420.16,1047.49 1421.33,1049.15 1423,1050.5C 1423.49,1051.79 1423.66,1053.13 1423.5,1054.5C 1426.06,1055.7 1428.39,1057.37 1430.5,1059.5C 1431.66,1060.74 1432.66,1062.07 1433.5,1063.5C 1436.79,1066.81 1439.79,1070.47 1442.5,1074.5C 1443.32,1075.39 1444.32,1075.72 1445.5,1075.5C 1450.57,1084.27 1457.07,1091.94 1465,1098.5C 1468.85,1102.36 1472.35,1106.52 1475.5,1111C 1476.09,1111.46 1476.76,1111.63 1477.5,1111.5C 1479.58,1115.68 1482.58,1119.01 1486.5,1121.5C 1487.8,1122.88 1488.63,1124.55 1489,1126.5C 1493.39,1130.29 1497.56,1134.29 1501.5,1138.5C 1503.51,1141.2 1505.51,1143.87 1507.5,1146.5C 1508.83,1147.5 1510.17,1148.5 1511.5,1149.5C 1512.48,1153.46 1514.48,1156.79 1517.5,1159.5C 1526.59,1169.91 1535.59,1180.24 1544.5,1190.5C 1547.5,1193.5 1550.5,1196.5 1553.5,1199.5C 1561.09,1207.92 1569.25,1215.92 1578,1223.5C 1583.14,1229.31 1587.48,1235.64 1591,1242.5C 1609.09,1261.94 1625.76,1282.6 1641,1304.5C 1644,1308.83 1647.67,1312.5 1652,1315.5C 1660.56,1328.96 1667.23,1343.29 1672,1358.5C 1680.17,1373.2 1685.84,1388.86 1689,1405.5C 1692.25,1426.07 1694.42,1446.73 1695.5,1467.5C 1696.96,1486.12 1697.63,1504.78 1697.5,1523.5C 1696.62,1554.77 1689.45,1584.43 1676,1612.5C 1674.92,1615.06 1674.42,1617.73 1674.5,1620.5C 1673.32,1620.28 1672.32,1620.61 1671.5,1621.5C 1663.33,1639.68 1653.66,1657.02 1642.5,1673.5C 1641.42,1675.73 1640.76,1678.06 1640.5,1680.5C 1636.17,1682.5 1633.17,1685.83 1631.5,1690.5C 1629.88,1690.79 1628.88,1691.79 1628.5,1693.5C 1629.68,1695.2 1629.68,1696.86 1628.5,1698.5C 1623.66,1703.57 1619.33,1708.9 1615.5,1714.5C 1606.9,1718.65 1599.56,1724.48 1593.5,1732C 1590.19,1733.97 1586.85,1735.97 1583.5,1738C 1578.6,1742.41 1573.6,1746.57 1568.5,1750.5C 1566.33,1750.75 1564.66,1751.75 1563.5,1753.5C 1559.81,1755.34 1556.48,1757.68 1553.5,1760.5C 1540.59,1768.45 1527.59,1776.12 1514.5,1783.5C 1497.27,1792.13 1479.61,1799.8 1461.5,1806.5C 1456.01,1808.33 1450.68,1810.33 1445.5,1812.5C 1444.83,1812.5 1444.17,1812.5 1443.5,1812.5C 1437.99,1812.55 1432.99,1813.89 1428.5,1816.5C 1413.79,1818.29 1399.12,1820.29 1384.5,1822.5C 1382.24,1819.91 1380.07,1819.91 1378,1822.5C 1377.67,1822.17 1377.33,1821.83 1377,1821.5C 1371.4,1822.15 1365.9,1822.81 1360.5,1823.5C 1358.83,1823.5 1357.17,1823.5 1355.5,1823.5C 1354.19,1822.53 1353.53,1821.2 1353.5,1819.5C 1349.95,1818.39 1346.45,1818.39 1343,1819.5C 1340.93,1818.61 1338.76,1817.94 1336.5,1817.5C 1332.95,1817.24 1329.28,1817.57 1325.5,1818.5C 1321.64,1816.97 1317.64,1816.31 1313.5,1816.5C 1307.67,1815.48 1301.67,1814.64 1295.5,1814C 1293.91,1813.14 1292.25,1812.47 1290.5,1812C 1282.43,1812.38 1274.76,1810.88 1267.5,1807.5C 1266.91,1807.71 1266.41,1808.04 1266,1808.5C 1265.48,1807.48 1264.65,1806.82 1263.5,1806.5C 1255.57,1803.85 1247.57,1801.52 1239.5,1799.5C 1237.04,1797.43 1234.38,1795.6 1231.5,1794C 1225.32,1792.91 1219.32,1791.24 1213.5,1789C 1211.1,1787.48 1208.77,1785.98 1206.5,1784.5C 1205.39,1780.4 1202.72,1778.73 1198.5,1779.5C 1195.27,1777.72 1191.94,1776.22 1188.5,1775C 1173.6,1763.51 1158.93,1751.84 1144.5,1740C 1122.56,1717.73 1101.72,1694.56 1082,1670.5C 1080.99,1669.66 1079.82,1669.33 1078.5,1669.5C 1072.85,1657.49 1065.51,1646.49 1056.5,1636.5C 1055.06,1631.02 1052.22,1626.36 1048,1622.5C 1045.58,1617.99 1042.91,1613.65 1040,1609.5C 1032.05,1603.62 1024.88,1596.95 1018.5,1589.5C 1010.62,1580.12 1002.96,1570.46 995.5,1560.5C 992.345,1559.85 989.845,1558.18 988,1555.5C 983.085,1547.75 977.252,1540.75 970.5,1534.5C 968.878,1531.55 966.878,1528.88 964.5,1526.5C 955.562,1513.24 945.896,1500.57 935.5,1488.5C 932.818,1484.49 929.818,1480.83 926.5,1477.5C 919.263,1468.08 911.763,1458.74 904,1449.5C 898.696,1441.85 893.363,1434.19 888,1426.5C 885.167,1424.03 882.667,1421.2 880.5,1418C 879.234,1417.69 878.067,1417.19 877,1416.5C 875.245,1411.33 872.245,1407 868,1403.5C 863.06,1393.62 856.227,1385.29 847.5,1378.5C 842.353,1370.49 836.519,1363.16 830,1356.5C 827.005,1351.54 824.005,1346.54 821,1341.5C 817.047,1339.28 813.881,1336.28 811.5,1332.5C 809.197,1328.93 807.197,1325.1 805.5,1321C 803.444,1320.69 801.444,1320.19 799.5,1319.5C 797.5,1320.17 795.5,1320.83 793.5,1321.5C 792.676,1318.42 790.676,1316.75 787.5,1316.5C 788.128,1309.31 790.128,1302.65 793.5,1296.5C 794.809,1293.22 796.642,1290.22 799,1287.5C 801.358,1279.12 805.524,1271.78 811.5,1265.5C 812.552,1265.65 813.552,1265.48 814.5,1265C 822.534,1253.77 830.2,1242.27 837.5,1230.5C 845.156,1221.18 852.323,1211.52 859,1201.5C 865.279,1194.55 871.946,1187.89 879,1181.5C 879.483,1180.55 879.649,1179.55 879.5,1178.5C 883.297,1178.04 885.964,1176.04 887.5,1172.5C 891.167,1170.83 893.833,1168.17 895.5,1164.5C 896.167,1164.17 896.833,1163.83 897.5,1163.5C 900.688,1160.92 903.355,1157.92 905.5,1154.5C 908.404,1153.39 910.404,1151.39 911.5,1148.5C 914.432,1147.2 916.766,1145.2 918.5,1142.5C 919.393,1140.7 920.726,1139.37 922.5,1138.5C 925.785,1135.88 928.785,1132.88 931.5,1129.5C 933.104,1128.71 933.771,1127.38 933.5,1125.5C 934.5,1125.5 935.5,1125.5 936.5,1125.5C 936.5,1124.5 936.5,1123.5 936.5,1122.5C 939.5,1122.17 941.167,1120.5 941.5,1117.5C 942.791,1117.74 943.791,1117.4 944.5,1116.5C 949.5,1113.5 953.5,1109.5 956.5,1104.5C 966.117,1095.99 975.783,1087.66 985.5,1079.5C 986.005,1076.81 987.338,1074.65 989.5,1073C 992.557,1070.28 995.89,1067.94 999.5,1066C 1001.43,1062.19 1004.43,1059.53 1008.5,1058C 1010.07,1056.6 1011.4,1055.1 1012.5,1053.5C 1015.79,1051.54 1018.79,1049.21 1021.5,1046.5C 1029.7,1040.24 1038.03,1034.24 1046.5,1028.5C 1050.06,1028.5 1052.22,1026.84 1053,1023.5C 1056.77,1019.22 1060.93,1015.56 1065.5,1012.5C 1073.1,1006.74 1081.1,1001.57 1089.5,997C 1090.83,994.333 1092.17,991.667 1093.5,989C 1127.62,965.278 1162.95,943.611 1199.5,924C 1209.12,917.731 1218.79,911.397 1228.5,905C 1233.83,903.508 1238.83,901.341 1243.5,898.5C 1249.77,897.522 1255.43,895.189 1260.5,891.5C 1270,888.547 1279.67,887.547 1289.5,888.5C 1288.87,889.417 1288.54,890.417 1288.5,891.5 Z"/></g>
<g><path style="opacity:1" fill="#472012" d="M 1253.5,887.5 C 1249.91,889.193 1246.08,890.527 1242,891.5C 1241.24,891.43 1240.74,891.097 1240.5,890.5C 1244.69,888.882 1249.02,887.882 1253.5,887.5 Z"/></g>
<g><path style="opacity:1" fill="#3f1b13" d="M 440.5,880.5 C 442.289,886.323 444.622,891.989 447.5,897.5C 443.168,893.676 440.501,888.843 439.5,883C 439.528,881.93 439.861,881.097 440.5,880.5 Z"/></g>
<g><path style="opacity:1" fill="#315152" d="M 1260.5,891.5 C 1255.43,895.189 1249.77,897.522 1243.5,898.5C 1246.8,896.667 1250.14,894.834 1253.5,893C 1255.81,892.338 1258.15,891.838 1260.5,891.5 Z"/></g>
<g><path style="opacity:1" fill="#4c2516" d="M 1213.5,903.5 C 1211.97,905.346 1209.97,906.346 1207.5,906.5C 1208.69,904.025 1210.69,903.025 1213.5,903.5 Z"/></g>
<g><path style="opacity:1" fill="#3e1b11" d="M 448.5,898.5 C 450.631,905.388 453.798,911.722 458,917.5C 460.566,923.632 463.4,929.632 466.5,935.5C 461.883,930.6 458.549,924.934 456.5,918.5C 452.643,913.808 449.81,908.474 448,902.5C 447.235,900.934 447.402,899.601 448.5,898.5 Z"/></g>
<g><path style="opacity:1" fill="#46211a" d="M 1193.5,914.5 C 1192.05,917.268 1189.72,918.935 1186.5,919.5C 1185.89,919.376 1185.56,919.043 1185.5,918.5C 1187.59,916.61 1189.92,914.943 1192.5,913.5C 1193.11,913.624 1193.44,913.957 1193.5,914.5 Z"/></g>
<g><path style="opacity:1" fill="#452010" d="M 466.5,935.5 C 469.391,939.482 471.724,943.815 473.5,948.5C 471.687,946.947 469.853,945.28 468,943.5C 467.697,941.112 466.863,938.945 465.5,937C 466.056,936.617 466.389,936.117 466.5,935.5 Z"/></g>
<g><path style="opacity:1" fill="#3e1c19" d="M 1139.5,947.5 C 1131.86,953.661 1123.53,958.827 1114.5,963C 1110.28,965.272 1106.28,967.772 1102.5,970.5C 1103.96,968.537 1105.63,966.704 1107.5,965C 1118.52,959.807 1129.19,953.974 1139.5,947.5 Z"/></g>
<g><path style="opacity:1" fill="#083537" d="M 1288.5,891.5 C 1287.99,892.859 1286.99,893.859 1285.5,894.5C 1286.77,896.812 1288.77,898.145 1291.5,898.5C 1295.34,903.758 1299.67,908.591 1304.5,913C 1305.45,913.483 1306.45,913.649 1307.5,913.5C 1307.34,915.199 1307.51,916.866 1308,918.5C 1312.71,924.376 1317.88,929.71 1323.5,934.5C 1325.05,935.452 1326.71,935.785 1328.5,935.5C 1328.5,936.833 1328.5,938.167 1328.5,939.5C 1329.5,939.5 1330.5,939.5 1331.5,939.5C 1331.34,940.873 1331.51,942.207 1332,943.5C 1341.8,953.776 1351.13,964.443 1360,975.5C 1361.58,976.861 1363.42,977.528 1365.5,977.5C 1365.34,979.199 1365.51,980.866 1366,982.5C 1373.66,991.126 1381.32,999.793 1389,1008.5C 1394.46,1014.78 1399.3,1021.45 1403.5,1028.5C 1386.46,1008.8 1369.62,988.796 1353,968.5C 1339.83,953.954 1326.17,939.954 1312,926.5C 1306.37,917.87 1299.7,910.204 1292,903.5C 1291.51,902.207 1291.34,900.873 1291.5,899.5C 1288.48,899.704 1285.48,900.037 1282.5,900.5C 1282.51,897.455 1282.84,894.455 1283.5,891.5C 1285.17,891.5 1286.83,891.5 1288.5,891.5 Z"/></g>
<g><path style="opacity:1" fill="#472114" d="M 473.5,948.5 C 476.471,950.443 478.471,953.109 479.5,956.5C 478.5,956.5 477.5,956.5 476.5,956.5C 475.783,953.677 474.783,951.01 473.5,948.5 Z"/></g>
<g><path style="opacity:1" fill="#431e14" d="M 480.5,958.5 C 488.216,968.887 495.55,979.553 502.5,990.5C 499.931,989.604 497.931,987.938 496.5,985.5C 492.599,979.509 488.599,973.675 484.5,968C 483.552,967.517 482.552,967.351 481.5,967.5C 481.36,965.876 482.027,964.71 483.5,964C 481.658,962.654 480.658,960.821 480.5,958.5 Z"/></g>
<g><path style="opacity:1" fill="#442018" d="M 502.5,990.5 C 507.894,994.892 512.561,999.892 516.5,1005.5C 513.715,1002.99 510.715,1000.66 507.5,998.5C 506.614,997.675 506.281,996.675 506.5,995.5C 505.5,995.5 504.5,995.5 503.5,995.5C 503.371,993.784 503.038,992.117 502.5,990.5 Z"/></g>
<g><path style="opacity:1" fill="#314f51" d="M 1065.5,1012.5 C 1060.93,1015.56 1056.77,1019.22 1053,1023.5C 1052.22,1026.84 1050.06,1028.5 1046.5,1028.5C 1051.61,1021.73 1057.94,1016.4 1065.5,1012.5 Z"/></g>
<g><path style="opacity:1" fill="#472113" d="M 516.5,1005.5 C 526.218,1015.95 535.218,1026.95 543.5,1038.5C 542.883,1038.61 542.383,1038.94 542,1039.5C 540.359,1035.68 537.526,1033.68 533.5,1033.5C 533.859,1031.23 533.192,1029.4 531.5,1028C 531.833,1027.67 532.167,1027.33 532.5,1027C 531.034,1026.36 529.7,1025.53 528.5,1024.5C 526.571,1021.26 524.737,1017.93 523,1014.5C 519.349,1012.52 517.182,1009.52 516.5,1005.5 Z"/></g>
<g><path style="opacity:1" fill="#194547" d="M 1021.5,1046.5 C 1018.79,1049.21 1015.79,1051.54 1012.5,1053.5C 1013.8,1051.31 1015.47,1049.31 1017.5,1047.5C 1018.74,1046.75 1020.07,1046.42 1021.5,1046.5 Z"/></g>
<g><path style="opacity:1" fill="#482213" d="M 549.5,1045.5 C 557.884,1054.88 566.218,1064.21 574.5,1073.5C 571.493,1071 568.16,1069 564.5,1067.5C 563.876,1065.04 562.376,1063.38 560,1062.5C 558.462,1057.43 555.462,1053.43 551,1050.5C 549.991,1048.98 549.491,1047.31 549.5,1045.5 Z"/></g>
<g><path style="opacity:1" fill="#073134" d="M 1419.5,1045.5 C 1421.1,1046.25 1422.6,1047.25 1424,1048.5C 1426.01,1052.33 1428.18,1055.99 1430.5,1059.5C 1428.39,1057.37 1426.06,1055.7 1423.5,1054.5C 1423.66,1053.13 1423.49,1051.79 1423,1050.5C 1421.33,1049.15 1420.16,1047.49 1419.5,1045.5 Z"/></g>
<g><path style="opacity:1" fill="#0a3739" d="M 1433.5,1063.5 C 1435.08,1064.38 1436.75,1065.22 1438.5,1066C 1440.36,1069.36 1443.03,1071.86 1446.5,1073.5C 1448.01,1080.01 1452.01,1083.68 1458.5,1084.5C 1458.71,1086.14 1458.38,1087.64 1457.5,1089C 1465,1095.87 1471.66,1103.37 1477.5,1111.5C 1476.76,1111.63 1476.09,1111.46 1475.5,1111C 1472.35,1106.52 1468.85,1102.36 1465,1098.5C 1457.07,1091.94 1450.57,1084.27 1445.5,1075.5C 1444.32,1075.72 1443.32,1075.39 1442.5,1074.5C 1439.79,1070.47 1436.79,1066.81 1433.5,1063.5 Z"/></g>
<g><path style="opacity:1" fill="#3b1912" d="M 956.5,1093.5 C 955.766,1094.71 955.433,1096.04 955.5,1097.5C 953.692,1097.49 952.025,1097.99 950.5,1099C 947.924,1102.08 944.924,1104.58 941.5,1106.5C 945.88,1101.35 950.88,1097.02 956.5,1093.5 Z"/></g>
<g><path style="opacity:1" fill="#0c383a" d="M 956.5,1104.5 C 953.5,1109.5 949.5,1113.5 944.5,1116.5C 944.369,1115.76 944.536,1115.09 945,1114.5C 948.699,1110.96 952.533,1107.63 956.5,1104.5 Z"/></g>
<g><path style="opacity:1" fill="#3b1a17" d="M 938.5,1108.5 C 937.489,1110.37 936.655,1112.37 936,1114.5C 935.667,1114.17 935.333,1113.83 935,1113.5C 931.545,1117.47 927.712,1120.8 923.5,1123.5C 928.194,1118.14 933.194,1113.14 938.5,1108.5 Z"/></g>
<g><path style="opacity:1" fill="#083538" d="M 1477.5,1111.5 C 1481.52,1113.86 1484.52,1117.19 1486.5,1121.5C 1482.58,1119.01 1479.58,1115.68 1477.5,1111.5 Z"/></g>
<g><path style="opacity:1" fill="#472219" d="M 613.5,1125.5 C 617.338,1127.99 620.005,1131.33 621.5,1135.5C 620.504,1135.59 619.671,1135.25 619,1134.5C 617.311,1131.33 615.478,1128.33 613.5,1125.5 Z"/></g>
<g><path style="opacity:1" fill="#0d3a3d" d="M 931.5,1129.5 C 928.785,1132.88 925.785,1135.88 922.5,1138.5C 923.907,1136.69 925.074,1134.69 926,1132.5C 927.264,1130.39 929.097,1129.39 931.5,1129.5 Z"/></g>
<g><path style="opacity:1" fill="#421e19" d="M 916.5,1130.5 C 913.815,1134.18 910.482,1137.18 906.5,1139.5C 909.211,1135.79 912.544,1132.79 916.5,1130.5 Z"/></g>
<g><path style="opacity:1" fill="#462017" d="M 621.5,1135.5 C 628.132,1142.1 633.799,1149.44 638.5,1157.5C 636.673,1155.87 634.839,1154.2 633,1152.5C 628.953,1146.96 625.119,1141.29 621.5,1135.5 Z"/></g>
<g><path style="opacity:1" fill="#013134" d="M 1501.5,1138.5 C 1505.35,1139.7 1507.35,1142.36 1507.5,1146.5C 1505.51,1143.87 1503.51,1141.2 1501.5,1138.5 Z"/></g>
<g><path style="opacity:1" fill="#0b393c" d="M 918.5,1142.5 C 916.766,1145.2 914.432,1147.2 911.5,1148.5C 912.568,1145.1 914.901,1143.1 918.5,1142.5 Z"/></g>
<g><path style="opacity:1" fill="#3b1915" d="M 906.5,1139.5 C 906.039,1141.55 905.372,1143.55 904.5,1145.5C 898.594,1150.42 892.927,1155.42 887.5,1160.5C 893.492,1153.18 899.825,1146.18 906.5,1139.5 Z"/></g>
<g><path style="opacity:1" fill="#173f42" d="M 905.5,1154.5 C 903.355,1157.92 900.688,1160.92 897.5,1163.5C 898.768,1159.23 901.435,1156.23 905.5,1154.5 Z"/></g>
<g><path style="opacity:1" fill="#023335" d="M 1511.5,1149.5 C 1514.73,1152.07 1516.73,1155.4 1517.5,1159.5C 1514.48,1156.79 1512.48,1153.46 1511.5,1149.5 Z"/></g>
<g><path style="opacity:1" fill="#492211" d="M 887.5,1160.5 C 887.512,1163.14 886.179,1164.48 883.5,1164.5C 884.5,1162.83 885.833,1161.5 887.5,1160.5 Z"/></g>
<g><path style="opacity:1" fill="#3e1c17" d="M 639.5,1158.5 C 643.784,1161.75 647.118,1165.75 649.5,1170.5C 644.761,1167.7 641.427,1163.7 639.5,1158.5 Z"/></g>
<g><path style="opacity:1" fill="#1d4345" d="M 895.5,1164.5 C 893.833,1168.17 891.167,1170.83 887.5,1172.5C 889.446,1170.37 891.279,1168.04 893,1165.5C 893.671,1164.75 894.504,1164.41 895.5,1164.5 Z"/></g>
<g><path style="opacity:1" fill="#361716" d="M 877.5,1171.5 C 873.589,1177.08 868.923,1182.08 863.5,1186.5C 867.439,1180.89 872.106,1175.89 877.5,1171.5 Z"/></g>
<g><path style="opacity:1" fill="#43201b" d="M 657.5,1180.5 C 662.647,1184.98 666.647,1190.31 669.5,1196.5C 664.043,1192.25 660.043,1186.92 657.5,1180.5 Z"/></g>
<g><path style="opacity:1" fill="#0f3b3d" d="M 1544.5,1190.5 C 1546.17,1190.5 1547.83,1190.5 1549.5,1190.5C 1550.83,1193.5 1552.17,1196.5 1553.5,1199.5C 1550.5,1196.5 1547.5,1193.5 1544.5,1190.5 Z"/></g>
<g><path style="opacity:1" fill="#431e1b" d="M 674.5,1202.5 C 677.516,1205.52 680.183,1208.85 682.5,1212.5C 678.786,1210.11 676.119,1206.77 674.5,1202.5 Z"/></g>
<g><path style="opacity:1" fill="#3f1d18" d="M 826.5,1229.5 C 824.906,1232.76 822.573,1235.43 819.5,1237.5C 821.094,1234.24 823.427,1231.57 826.5,1229.5 Z"/></g>
<g><path style="opacity:1" fill="#1d4547" d="M 837.5,1230.5 C 830.2,1242.27 822.534,1253.77 814.5,1265C 813.552,1265.48 812.552,1265.65 811.5,1265.5C 812.688,1264.64 813.855,1263.64 815,1262.5C 819.328,1254.84 823.661,1247.17 828,1239.5C 829.11,1237.96 830.61,1237.3 832.5,1237.5C 833.028,1234.31 834.695,1231.98 837.5,1230.5 Z"/></g>
<g><path style="opacity:1" fill="#462015" d="M 819.5,1237.5 C 813.734,1248.02 806.734,1257.69 798.5,1266.5C 803.656,1255.44 810.656,1245.78 819.5,1237.5 Z"/></g>
<g><path style="opacity:1" fill="#45211f" d="M 714.5,1250.5 C 718.214,1254.88 721.547,1259.55 724.5,1264.5C 719.97,1260.64 716.637,1255.98 714.5,1250.5 Z"/></g>
<g><path style="opacity:1" fill="#401d17" d="M 728.5,1269.5 C 732.212,1272.21 735.212,1275.54 737.5,1279.5C 735.983,1279.49 734.816,1278.82 734,1277.5C 731.92,1274.93 730.087,1272.27 728.5,1269.5 Z"/></g>
<g><path style="opacity:1" fill="#441f14" d="M 792.5,1275.5 C 791.584,1279.29 789.584,1282.29 786.5,1284.5C 787.723,1280.95 789.723,1277.95 792.5,1275.5 Z"/></g>
<g><path style="opacity:1" fill="#3b1a16" d="M 737.5,1279.5 C 740.19,1282.85 742.857,1286.19 745.5,1289.5C 740.775,1287.89 738.108,1284.55 737.5,1279.5 Z"/></g>
<g><path style="opacity:1" fill="#421d17" d="M 749.5,1293.5 C 752.295,1295.75 754.628,1298.42 756.5,1301.5C 755.325,1301.72 754.325,1301.39 753.5,1300.5C 752.111,1298.13 750.778,1295.8 749.5,1293.5 Z"/></g>
<g><path style="opacity:1" fill="#083336" d="M 793.5,1296.5 C 790.128,1302.65 788.128,1309.31 787.5,1316.5C 786.844,1315.38 786.511,1314.05 786.5,1312.5C 786.745,1306.09 789.078,1300.76 793.5,1296.5 Z"/></g>
<g><path style="opacity:1" fill="#3d1c18" d="M 786.5,1284.5 C 784.883,1288.61 783.05,1292.61 781,1296.5C 779.598,1304.81 778.431,1313.15 777.5,1321.5C 774.454,1321.82 772.787,1320.48 772.5,1317.5C 773.482,1318.14 774.482,1318.81 775.5,1319.5C 777.693,1310.99 779.193,1302.32 780,1293.5C 782.446,1290.58 784.613,1287.58 786.5,1284.5 Z"/></g>
<g><path style="opacity:1" fill="#103b3e" d="M 787.5,1316.5 C 790.676,1316.75 792.676,1318.42 793.5,1321.5C 795.5,1320.83 797.5,1320.17 799.5,1319.5C 801.444,1320.19 803.444,1320.69 805.5,1321C 807.197,1325.1 809.197,1328.93 811.5,1332.5C 809.974,1331.9 808.974,1330.73 808.5,1329C 807.207,1328.51 805.873,1328.34 804.5,1328.5C 804.33,1327.18 804.663,1326.01 805.5,1325C 804.3,1323.97 802.966,1323.14 801.5,1322.5C 798.326,1322.17 794.992,1322.17 791.5,1322.5C 790.708,1320.11 789.374,1318.11 787.5,1316.5 Z"/></g>
<g><path style="opacity:1" fill="#0b3436" d="M 926.5,1477.5 C 929.818,1480.83 932.818,1484.49 935.5,1488.5C 930.848,1486.2 927.848,1482.54 926.5,1477.5 Z"/></g>
<g><path style="opacity:1" fill="#355758" d="M 1695.5,1467.5 C 1698.4,1486.1 1699.07,1504.76 1697.5,1523.5C 1697.63,1504.78 1696.96,1486.12 1695.5,1467.5 Z"/></g>
<g><path style="opacity:1" fill="#0b393b" d="M 964.5,1526.5 C 966.878,1528.88 968.878,1531.55 970.5,1534.5C 967.053,1532.95 965.053,1530.28 964.5,1526.5 Z"/></g>
<g><path style="opacity:1" fill="#184143" d="M 1018.5,1589.5 C 1024.88,1596.95 1032.05,1603.62 1040,1609.5C 1042.91,1613.65 1045.58,1617.99 1048,1622.5C 1052.22,1626.36 1055.06,1631.02 1056.5,1636.5C 1053.63,1635.12 1051.96,1632.78 1051.5,1629.5C 1050.25,1628.96 1049.09,1628.29 1048,1627.5C 1046.85,1622.2 1044.01,1618.2 1039.5,1615.5C 1038.51,1611.51 1036.17,1608.85 1032.5,1607.5C 1032.65,1606.45 1032.48,1605.45 1032,1604.5C 1026.56,1600.23 1022.06,1595.23 1018.5,1589.5 Z"/></g>
<g><path style="opacity:1" fill="#063134" d="M 1631.5,1690.5 C 1630.25,1692.99 1630.25,1695.49 1631.5,1698C 1626.57,1704.09 1621.24,1709.59 1615.5,1714.5C 1619.33,1708.9 1623.66,1703.57 1628.5,1698.5C 1629.68,1696.86 1629.68,1695.2 1628.5,1693.5C 1628.88,1691.79 1629.88,1690.79 1631.5,1690.5 Z"/></g>
<g><path style="opacity:1" fill="#0d3b3e" d="M 1615.5,1714.5 C 1614.96,1716.12 1614.63,1717.78 1614.5,1719.5C 1613.13,1719.34 1611.79,1719.51 1610.5,1720C 1603.53,1726.81 1595.86,1732.65 1587.5,1737.5C 1586.5,1738.83 1585.5,1740.17 1584.5,1741.5C 1579.16,1744.51 1573.83,1747.51 1568.5,1750.5C 1573.6,1746.57 1578.6,1742.41 1583.5,1738C 1586.85,1735.97 1590.19,1733.97 1593.5,1732C 1599.56,1724.48 1606.9,1718.65 1615.5,1714.5 Z"/></g>
<g><path style="opacity:1" fill="#0d383a" d="M 1563.5,1753.5 C 1561.86,1755.48 1560.19,1757.48 1558.5,1759.5C 1556.93,1760.31 1555.26,1760.64 1553.5,1760.5C 1556.48,1757.68 1559.81,1755.34 1563.5,1753.5 Z"/></g>
<g><path style="opacity:1" fill="#0b3739" d="M 1553.5,1760.5 C 1552.59,1762.42 1551.26,1764.08 1549.5,1765.5C 1543.43,1768.52 1537.77,1772.02 1532.5,1776C 1526.94,1779.57 1520.94,1782.07 1514.5,1783.5C 1527.59,1776.12 1540.59,1768.45 1553.5,1760.5 Z"/></g>
<g><path style="opacity:1" fill="#164144" d="M 1198.5,1779.5 C 1202.72,1778.73 1205.39,1780.4 1206.5,1784.5C 1203.7,1782.84 1201.03,1781.17 1198.5,1779.5 Z"/></g>
<g><path style="opacity:1" fill="#0d3739" d="M 1514.5,1783.5 C 1513.36,1785.43 1511.69,1786.93 1509.5,1788C 1496.89,1793.87 1484.22,1799.53 1471.5,1805C 1468.21,1805.83 1464.87,1806.33 1461.5,1806.5C 1479.61,1799.8 1497.27,1792.13 1514.5,1783.5 Z"/></g>
<g><path style="opacity:1" fill="#083134" d="M 1461.5,1806.5 C 1457.14,1810.63 1451.81,1812.63 1445.5,1812.5C 1450.68,1810.33 1456.01,1808.33 1461.5,1806.5 Z"/></g>
<g><path style="opacity:1" fill="#063538" d="M 1443.5,1812.5 C 1438.76,1814.17 1433.76,1815.5 1428.5,1816.5C 1432.99,1813.89 1437.99,1812.55 1443.5,1812.5 Z"/></g>
<g><path style="opacity:1" fill="#496363" d="M 1313.5,1816.5 C 1317.64,1816.31 1321.64,1816.97 1325.5,1818.5C 1329.28,1817.57 1332.95,1817.24 1336.5,1817.5C 1338.76,1817.94 1340.93,1818.61 1343,1819.5C 1346.45,1818.39 1349.95,1818.39 1353.5,1819.5C 1353.53,1821.2 1354.19,1822.53 1355.5,1823.5C 1351.5,1823.96 1347.83,1823.3 1344.5,1821.5C 1341.57,1820.7 1338.57,1820.37 1335.5,1820.5C 1330.12,1821.25 1324.62,1821.25 1319,1820.5C 1317.46,1818.17 1315.63,1816.83 1313.5,1816.5 Z"/></g>
<g><path style="opacity:1" fill="#0e3b3e" d="M 1428.5,1816.5 C 1425.14,1818.22 1421.47,1819.39 1417.5,1820C 1407.59,1820.72 1397.59,1821.72 1387.5,1823C 1385.37,1824.29 1383.04,1825.12 1380.5,1825.5C 1373.98,1823.67 1367.32,1823 1360.5,1823.5C 1365.9,1822.81 1371.4,1822.15 1377,1821.5C 1377.33,1821.83 1377.67,1822.17 1378,1822.5C 1380.07,1819.91 1382.24,1819.91 1384.5,1822.5C 1399.12,1820.29 1413.79,1818.29 1428.5,1816.5 Z"/></g>
<g><path style="opacity:1" fill="#0e4043" d="M 1335.5,1820.5 C 1338.57,1820.37 1341.57,1820.7 1344.5,1821.5C 1344.38,1822.59 1343.71,1823.25 1342.5,1823.5C 1340.1,1822.34 1337.77,1821.34 1335.5,1820.5 Z"/></g>
</svg>
