<?xml version="1.0" encoding="UTF-8"?>
<!DOCTYPE svg PUBLIC "-//W3C//DTD SVG 1.1//EN" "http://www.w3.org/Graphics/SVG/1.1/DTD/svg11.dtd">
<svg xmlns="http://www.w3.org/2000/svg" version="1.1" width="2048px" height="2048px" style="shape-rendering:geometricPrecision; text-rendering:geometricPrecision; image-rendering:optimizeQuality; fill-rule:evenodd; clip-rule:evenodd" xmlns:xlink="http://www.w3.org/1999/xlink">
<g><path style="opacity:0.004" fill="#261305" d="M 1283.5,1193.5 C 1282.66,1193.16 1282.33,1192.49 1282.5,1191.5C 1282.5,1191.17 1282.5,1190.83 1282.5,1190.5C 1282.5,1189.83 1282.5,1189.17 1282.5,1188.5C 1284.49,1188.17 1286.49,1187.84 1288.5,1187.5C 1290.07,1187.48 1291.4,1187.98 1292.5,1189C 1292.64,1190.92 1292.14,1192.75 1291,1194.5C 1290.44,1192.27 1289.44,1190.27 1288,1188.5C 1286.95,1190.11 1285.45,1190.77 1283.5,1190.5C 1283.5,1191.5 1283.5,1192.5 1283.5,1193.5 Z"/></g>
<g><path style="opacity:0.004" fill="#feff00" d="M 1280.5,1188.5 C 1281.17,1188.5 1281.83,1188.5 1282.5,1188.5C 1282.5,1189.17 1282.5,1189.83 1282.5,1190.5C 1281.83,1190.5 1281.5,1190.83 1281.5,1191.5C 1281.5,1191.83 1281.5,1192.17 1281.5,1192.5C 1280.5,1192.5 1279.5,1192.5 1278.5,1192.5C 1277.56,1191.67 1277.89,1191.01 1279.5,1190.5C 1280.17,1190.5 1280.5,1190.17 1280.5,1189.5C 1280.5,1189.17 1280.5,1188.83 1280.5,1188.5 Z"/></g>
<g><path style="opacity:0.007" fill="#060404" d="M 1273.5,1189.5 C 1272.83,1190.17 1272.17,1190.83 1271.5,1191.5C 1266.03,1191.91 1261.37,1193.91 1257.5,1197.5C 1257.19,1198.74 1256.69,1198.74 1256,1197.5C 1254.96,1198.24 1254.46,1199.24 1254.5,1200.5C 1252.88,1200.64 1251.71,1199.97 1251,1198.5C 1250.21,1199.71 1249.55,1200.71 1249,1201.5C 1247.11,1200.8 1245.27,1199.97 1243.5,1199C 1244.46,1197.85 1244.12,1196.85 1242.5,1196C 1243.67,1195.58 1244.67,1194.91 1245.5,1194C 1254.86,1192.61 1264.2,1191.11 1273.5,1189.5 Z"/></g>
<g><path style="opacity:0.004" fill="#000000" d="M 1281.5,1191.5 C 1281.83,1191.5 1282.17,1191.5 1282.5,1191.5C 1282.33,1192.49 1282.66,1193.16 1283.5,1193.5C 1283.29,1195.42 1282.62,1195.76 1281.5,1194.5C 1281.5,1193.83 1281.5,1193.17 1281.5,1192.5C 1281.5,1192.17 1281.5,1191.83 1281.5,1191.5 Z"/></g>
<g><path style="opacity:0.004" fill="#fe0000" d="M 1278.5,1192.5 C 1279.5,1192.5 1280.5,1192.5 1281.5,1192.5C 1281.5,1193.17 1281.5,1193.83 1281.5,1194.5C 1281.17,1194.5 1280.83,1194.5 1280.5,1194.5C 1279.83,1193.83 1279.17,1193.17 1278.5,1192.5 Z"/></g>
<g><path style="opacity:0.008" fill="#826923" d="M 1280.5,1188.5 C 1280.5,1188.83 1280.5,1189.17 1280.5,1189.5C 1279.83,1189.5 1279.5,1189.83 1279.5,1190.5C 1277.89,1191.01 1277.56,1191.67 1278.5,1192.5C 1279.17,1193.17 1279.83,1193.83 1280.5,1194.5C 1280.5,1194.83 1280.5,1195.17 1280.5,1195.5C 1279.15,1196.17 1277.99,1196.17 1277,1195.5C 1276.52,1197.13 1275.69,1198.47 1274.5,1199.5C 1265.22,1198.64 1265.22,1197.48 1274.5,1196C 1275.17,1195.33 1275.83,1194.67 1276.5,1194C 1275.09,1192.63 1273.42,1191.79 1271.5,1191.5C 1272.17,1190.83 1272.83,1190.17 1273.5,1189.5C 1275.86,1189.33 1278.19,1188.99 1280.5,1188.5 Z"/></g>
<g><path style="opacity:0.016" fill="#b6924f" d="M 1271.5,1191.5 C 1268.5,1194.51 1265.83,1197.84 1263.5,1201.5C 1263.17,1201.5 1262.83,1201.5 1262.5,1201.5C 1261.26,1201.19 1261.26,1200.69 1262.5,1200C 1261.21,1199.51 1259.87,1199.34 1258.5,1199.5C 1258.67,1198.51 1258.34,1197.84 1257.5,1197.5C 1261.37,1193.91 1266.03,1191.91 1271.5,1191.5 Z"/></g>
<g><path style="opacity:0.004" fill="#000000" d="M 1284.5,1196.5 C 1285.83,1197.17 1285.83,1197.17 1284.5,1196.5 Z"/></g>
<g><path style="opacity:0.004" fill="#fffe24" d="M 1257.5,1197.5 C 1258.34,1197.84 1258.67,1198.51 1258.5,1199.5C 1258.5,1200.17 1258.17,1200.5 1257.5,1200.5C 1256.65,1199.38 1255.65,1199.38 1254.5,1200.5C 1254.46,1199.24 1254.96,1198.24 1256,1197.5C 1256.69,1198.74 1257.19,1198.74 1257.5,1197.5 Z"/></g>
<g><path style="opacity:0.004" fill="#000000" d="M 1223.5,1198.5 C 1224.83,1199.17 1224.83,1199.17 1223.5,1198.5 Z"/></g>
<g><path style="opacity:0.004" fill="#ecd700" d="M 1280.5,1195.5 C 1280.5,1196.5 1280.5,1197.5 1280.5,1198.5C 1280.17,1198.5 1279.83,1198.5 1279.5,1198.5C 1278.5,1199.5 1277.5,1200.5 1276.5,1201.5C 1275.66,1201.84 1275.33,1202.51 1275.5,1203.5C 1275.17,1203.5 1274.83,1203.5 1274.5,1203.5C 1273.59,1202.04 1273.59,1200.7 1274.5,1199.5C 1275.69,1198.47 1276.52,1197.13 1277,1195.5C 1277.99,1196.17 1279.15,1196.17 1280.5,1195.5 Z"/></g>
<g><path style="opacity:0.004" fill="#220d03" d="M 1279.5,1198.5 C 1279.78,1199.78 1280.45,1200.78 1281.5,1201.5C 1280.21,1201.26 1279.21,1201.6 1278.5,1202.5C 1278.17,1202.5 1277.83,1202.5 1277.5,1202.5C 1277.5,1201.83 1277.17,1201.5 1276.5,1201.5C 1277.5,1200.5 1278.5,1199.5 1279.5,1198.5 Z"/></g>
<g><path style="opacity:0.004" fill="#000000" d="M 1280.5,1198.5 C 1281.83,1199.17 1281.83,1199.17 1280.5,1198.5 Z"/></g>
<g><path style="opacity:0.005" fill="#000000" d="M 1216.5,1205.5 C 1215.76,1205.37 1215.09,1205.54 1214.5,1206C 1215.7,1206.65 1215.7,1207.15 1214.5,1207.5C 1211.76,1205.98 1208.93,1205.64 1206,1206.5C 1205.05,1205.98 1204.22,1205.31 1203.5,1204.5C 1201.66,1204.76 1199.66,1204.92 1197.5,1205C 1197,1205.5 1196.5,1206 1196,1206.5C 1194.7,1205.89 1193.53,1205.55 1192.5,1205.5C 1192.98,1204.52 1193.64,1203.69 1194.5,1203C 1203.75,1200.9 1213.08,1199.9 1222.5,1200C 1218.7,1199.97 1216.7,1201.81 1216.5,1205.5 Z"/></g>
<g><path style="opacity:0.004" fill="#000000" d="M 1257.5,1200.5 C 1257.5,1200.83 1257.5,1201.17 1257.5,1201.5C 1256.5,1201.5 1255.5,1201.5 1254.5,1201.5C 1254.5,1201.17 1254.5,1200.83 1254.5,1200.5C 1255.65,1199.38 1256.65,1199.38 1257.5,1200.5 Z"/></g>
<g><path style="opacity:0.004" fill="#ca1607" d="M 1258.5,1199.5 C 1259.87,1199.34 1261.21,1199.51 1262.5,1200C 1261.26,1200.69 1261.26,1201.19 1262.5,1201.5C 1262.5,1202.17 1262.17,1202.5 1261.5,1202.5C 1261.17,1202.5 1260.83,1202.5 1260.5,1202.5C 1260.17,1201.17 1259.83,1201.17 1259.5,1202.5C 1258.51,1202.67 1257.84,1202.34 1257.5,1201.5C 1257.5,1201.17 1257.5,1200.83 1257.5,1200.5C 1258.17,1200.5 1258.5,1200.17 1258.5,1199.5 Z"/></g>
<g><path style="opacity:0.004" fill="#000000" d="M 1243.5,1200.5 C 1244.53,1200.9 1244.69,1201.56 1244,1202.5C 1243.54,1201.91 1243.37,1201.24 1243.5,1200.5 Z"/></g>
<g><path style="opacity:0.004" fill="#000000" d="M 1254.5,1201.5 C 1254.5,1201.83 1254.5,1202.17 1254.5,1202.5C 1253.83,1202.02 1253.83,1201.69 1254.5,1201.5 Z"/></g>
<g><path style="opacity:0.004" fill="#29130c" d="M 1262.5,1201.5 C 1262.83,1201.5 1263.17,1201.5 1263.5,1201.5C 1264.98,1202.42 1266.31,1203.59 1267.5,1205C 1267.36,1206.3 1266.69,1207.13 1265.5,1207.5C 1264.39,1206.71 1263.06,1206.21 1261.5,1206C 1262.68,1204.85 1262.68,1203.69 1261.5,1202.5C 1262.17,1202.5 1262.5,1202.17 1262.5,1201.5 Z"/></g>
<g><path style="opacity:0.012" fill="#be603f" d="M 1271.5,1191.5 C 1273.42,1191.79 1275.09,1192.63 1276.5,1194C 1275.83,1194.67 1275.17,1195.33 1274.5,1196C 1265.22,1197.48 1265.22,1198.64 1274.5,1199.5C 1273.59,1200.7 1273.59,1202.04 1274.5,1203.5C 1274.5,1204.17 1274.5,1204.83 1274.5,1205.5C 1273.18,1200.93 1271.84,1200.77 1270.5,1205C 1271.02,1205.95 1271.69,1206.78 1272.5,1207.5C 1269.73,1208.53 1269.07,1210.2 1270.5,1212.5C 1268.22,1212.14 1267.56,1211.14 1268.5,1209.5C 1267.68,1208.61 1266.68,1208.28 1265.5,1208.5C 1265.5,1208.17 1265.5,1207.83 1265.5,1207.5C 1266.69,1207.13 1267.36,1206.3 1267.5,1205C 1266.31,1203.59 1264.98,1202.42 1263.5,1201.5C 1265.83,1197.84 1268.5,1194.51 1271.5,1191.5 Z"/></g>
<g><path style="opacity:0.004" fill="#000000" d="M 1281.5,1201.5 C 1282.83,1202.17 1282.83,1202.17 1281.5,1201.5 Z"/></g>
<g><path style="opacity:0.004" fill="#281004" d="M 1247.5,1206.5 C 1247.5,1205.83 1247.5,1205.17 1247.5,1204.5C 1247.64,1202.66 1248.31,1202.33 1249.5,1203.5C 1249.06,1204.74 1248.39,1205.74 1247.5,1206.5 Z"/></g>
<g><path style="opacity:0.004" fill="#000000" d="M 1253.5,1202.5 C 1252.83,1203.17 1252.83,1203.17 1253.5,1202.5 Z"/></g>
<g><path style="opacity:0.004" fill="#000000" d="M 1254.5,1202.5 C 1255.83,1203.17 1255.83,1203.17 1254.5,1202.5 Z"/></g>
<g><path style="opacity:0.004" fill="#000000" d="M 1259.5,1202.5 C 1259.83,1202.5 1260.17,1202.5 1260.5,1202.5C 1260.31,1203.17 1259.98,1203.17 1259.5,1202.5 Z"/></g>
<g><path style="opacity:0.004" fill="#291005" d="M 1276.5,1201.5 C 1277.17,1201.5 1277.5,1201.83 1277.5,1202.5C 1277.56,1203.61 1277.89,1204.61 1278.5,1205.5C 1276.97,1205.57 1275.97,1204.91 1275.5,1203.5C 1275.33,1202.51 1275.66,1201.84 1276.5,1201.5 Z"/></g>
<g><path style="opacity:0.004" fill="#000000" d="M 1278.5,1202.5 C 1279.83,1203.17 1279.83,1203.17 1278.5,1202.5 Z"/></g>
<g><path style="opacity:0.004" fill="#000000" d="M 1245.5,1204.5 C 1245.5,1204.83 1245.5,1205.17 1245.5,1205.5C 1244.32,1205.72 1243.32,1205.39 1242.5,1204.5C 1243.23,1203.91 1244.23,1203.91 1245.5,1204.5 Z"/></g>
<g><path style="opacity:0.004" fill="#ba1808" d="M 1247.5,1204.5 C 1247.5,1205.17 1247.5,1205.83 1247.5,1206.5C 1247.17,1206.5 1246.83,1206.5 1246.5,1206.5C 1246.5,1205.83 1246.17,1205.5 1245.5,1205.5C 1245.5,1205.17 1245.5,1204.83 1245.5,1204.5C 1245.35,1203.45 1245.52,1202.45 1246,1201.5C 1246.23,1202.74 1246.73,1203.74 1247.5,1204.5 Z"/></g>
<g><path style="opacity:0.004" fill="#ff40fd" d="M 1274.5,1203.5 C 1274.83,1203.5 1275.17,1203.5 1275.5,1203.5C 1275.97,1204.91 1276.97,1205.57 1278.5,1205.5C 1278.5,1206.83 1277.83,1207.5 1276.5,1207.5C 1275.83,1206.83 1275.17,1206.17 1274.5,1205.5C 1274.5,1204.83 1274.5,1204.17 1274.5,1203.5 Z"/></g>
<g><path style="opacity:0.004" fill="#000000" d="M 1188.5,1204.5 C 1189.83,1205.17 1189.83,1205.17 1188.5,1204.5 Z"/></g>
<g><path style="opacity:0.004" fill="#000000" d="M 1186.5,1205.5 C 1187.83,1206.17 1187.83,1206.17 1186.5,1205.5 Z"/></g>
<g><path style="opacity:0.004" fill="#000000" d="M 1216.5,1205.5 C 1217.83,1206.17 1217.83,1206.17 1216.5,1205.5 Z"/></g>
<g><path style="opacity:0.004" fill="#000000" d="M 1278.5,1205.5 C 1279.78,1206.39 1279.78,1207.39 1278.5,1208.5C 1277.79,1210.43 1276.79,1210.77 1275.5,1209.5C 1275.83,1208.83 1276.17,1208.17 1276.5,1207.5C 1277.83,1207.5 1278.5,1206.83 1278.5,1205.5 Z"/></g>
<g><path style="opacity:0.004" fill="#000000" d="M 1157.5,1214.5 C 1154.79,1211.17 1152.29,1211.17 1150,1214.5C 1149.49,1213 1149.99,1211.84 1151.5,1211C 1153.68,1210.84 1155.51,1210 1157,1208.5C 1159.85,1209.24 1162.52,1209.24 1165,1208.5C 1164.65,1210.23 1164.48,1211.89 1164.5,1213.5C 1163.91,1213.29 1163.41,1212.96 1163,1212.5C 1161.68,1215.09 1159.85,1215.76 1157.5,1214.5 Z"/></g>
<g><path style="opacity:0.004" fill="#000000" d="M 1217.5,1207.5 C 1218.83,1208.17 1218.83,1208.17 1217.5,1207.5 Z"/></g>
<g><path style="opacity:0.004" fill="#d51306" d="M 1246.5,1206.5 C 1246.5,1207.17 1246.5,1207.83 1246.5,1208.5C 1245.83,1208.5 1245.5,1208.83 1245.5,1209.5C 1245.5,1209.83 1245.5,1210.17 1245.5,1210.5C 1242.55,1208.44 1242.88,1207.1 1246.5,1206.5 Z"/></g>
<g><path style="opacity:0.004" fill="#000000" d="M 1250.5,1212.5 C 1248.83,1211.83 1247.17,1211.17 1245.5,1210.5C 1245.5,1210.17 1245.5,1209.83 1245.5,1209.5C 1246.17,1209.5 1246.5,1209.17 1246.5,1208.5C 1248.14,1207.78 1249.8,1207.62 1251.5,1208C 1251.09,1209.56 1250.75,1211.06 1250.5,1212.5 Z"/></g>
<g><path style="opacity:0.004" fill="#000000" d="M 1166.5,1208.5 C 1167.83,1209.17 1167.83,1209.17 1166.5,1208.5 Z"/></g>
<g><path style="opacity:0.004" fill="#000000" d="M 1262.5,1208.5 C 1263.83,1209.17 1263.83,1209.17 1262.5,1208.5 Z"/></g>
<g><path style="opacity:0.004" fill="#130501" d="M 1265.5,1208.5 C 1266.68,1208.28 1267.68,1208.61 1268.5,1209.5C 1267.56,1211.14 1268.22,1212.14 1270.5,1212.5C 1270.5,1212.83 1270.5,1213.17 1270.5,1213.5C 1270.72,1214.68 1270.39,1215.68 1269.5,1216.5C 1268.87,1214.26 1267.53,1212.6 1265.5,1211.5C 1266.79,1210.47 1266.79,1209.47 1265.5,1208.5 Z"/></g>
<g><path style="opacity:0.008" fill="#b48931" d="M 1274.5,1205.5 C 1275.17,1206.17 1275.83,1206.83 1276.5,1207.5C 1276.17,1208.17 1275.83,1208.83 1275.5,1209.5C 1275.5,1209.83 1275.5,1210.17 1275.5,1210.5C 1273.97,1210.43 1272.97,1211.09 1272.5,1212.5C 1271.83,1212.5 1271.5,1212.83 1271.5,1213.5C 1271.17,1213.5 1270.83,1213.5 1270.5,1213.5C 1270.5,1213.17 1270.5,1212.83 1270.5,1212.5C 1269.07,1210.2 1269.73,1208.53 1272.5,1207.5C 1271.69,1206.78 1271.02,1205.95 1270.5,1205C 1271.84,1200.77 1273.18,1200.93 1274.5,1205.5 Z"/></g>
<g><path style="opacity:0.004" fill="#fe0000" d="M 1239.5,1209.5 C 1240.83,1210.17 1240.83,1210.17 1239.5,1209.5 Z"/></g>
<g><path style="opacity:0.004" fill="#ffc1f7" d="M 1241.5,1210.5 C 1241.9,1209.47 1242.56,1209.31 1243.5,1210C 1242.91,1210.46 1242.24,1210.63 1241.5,1210.5 Z"/></g>
<g><path style="opacity:0.004" fill="#000000" d="M 1275.5,1210.5 C 1275.5,1211.17 1275.5,1211.83 1275.5,1212.5C 1275.17,1212.5 1274.83,1212.5 1274.5,1212.5C 1273.83,1212.5 1273.17,1212.5 1272.5,1212.5C 1272.97,1211.09 1273.97,1210.43 1275.5,1210.5 Z"/></g>
<g><path style="opacity:0.832" fill="#020202" d="M 1137.5,1224.5 C 1139,1224.17 1140.66,1224.17 1142.5,1224.5C 1143.57,1225.43 1144.9,1225.77 1146.5,1225.5C 1146.5,1225.83 1146.5,1226.17 1146.5,1226.5C 1145.83,1226.5 1145.5,1226.83 1145.5,1227.5C 1144.17,1227.83 1144.17,1228.17 1145.5,1228.5C 1143.58,1229.82 1143.41,1231.15 1145,1232.5C 1145.41,1232.04 1145.91,1231.71 1146.5,1231.5C 1147.33,1232.5 1148.17,1233.5 1149,1234.5C 1150.22,1232.3 1152.06,1230.8 1154.5,1230C 1153.04,1229.58 1152.54,1228.74 1153,1227.5C 1154,1228.17 1155,1228.83 1156,1229.5C 1157.98,1227.34 1160.31,1225.68 1163,1224.5C 1164.11,1223.24 1164.28,1222.07 1163.5,1221C 1165.63,1220.08 1166.3,1218.75 1165.5,1217C 1168.17,1216.33 1168.17,1215.67 1165.5,1215C 1168.54,1215.01 1171.54,1215.51 1174.5,1216.5C 1174.37,1217.24 1174.54,1217.91 1175,1218.5C 1177.4,1215.8 1180.4,1214.13 1184,1213.5C 1188.64,1213.76 1192.97,1213.76 1197,1213.5C 1199.35,1215.68 1201.52,1215.34 1203.5,1212.5C 1206.56,1214.35 1209.73,1214.68 1213,1213.5C 1214.55,1215.15 1216.22,1215.48 1218,1214.5C 1219.49,1215.25 1219.65,1216.09 1218.5,1217C 1221.09,1219.46 1223.59,1219.62 1226,1217.5C 1227.55,1221.45 1230.22,1223.12 1234,1222.5C 1234.85,1224.12 1235.85,1224.46 1237,1223.5C 1238.49,1225.16 1240.32,1226.16 1242.5,1226.5C 1243.5,1227.17 1244.5,1227.83 1245.5,1228.5C 1244.73,1229.69 1243.73,1230.69 1242.5,1231.5C 1237.86,1230.42 1233.53,1228.59 1229.5,1226C 1226.41,1225.35 1223.41,1225.68 1220.5,1227C 1228.77,1230.47 1236.77,1234.47 1244.5,1239C 1247.33,1240.67 1249.66,1242.83 1251.5,1245.5C 1260.86,1252.5 1268.19,1261.16 1273.5,1271.5C 1289.74,1303.46 1288.91,1334.79 1271,1365.5C 1274.15,1361.44 1275.65,1362.11 1275.5,1367.5C 1274.07,1369.8 1274.73,1371.47 1277.5,1372.5C 1278.25,1371.62 1278.75,1370.62 1279,1369.5C 1279.38,1370.06 1279.88,1370.39 1280.5,1370.5C 1281.62,1372.09 1281.45,1373.76 1280,1375.5C 1279.59,1375.04 1279.09,1374.71 1278.5,1374.5C 1277.67,1376.16 1276.51,1377.5 1275,1378.5C 1273.85,1377.26 1272.51,1376.26 1271,1375.5C 1265.74,1379.1 1260.24,1382.27 1254.5,1385C 1253.17,1387 1251.5,1388.67 1249.5,1390C 1239.54,1392.45 1229.71,1395.28 1220,1398.5C 1217.15,1397.85 1214.32,1397.52 1211.5,1397.5C 1204.07,1398.5 1196.9,1399.5 1190,1400.5C 1186.02,1398.09 1181.86,1396.09 1177.5,1394.5C 1177.17,1393.17 1176.83,1393.17 1176.5,1394.5C 1173.29,1393.99 1170.46,1392.65 1168,1390.5C 1164.88,1390.24 1162.21,1388.58 1160,1385.5C 1159.67,1385.83 1159.33,1386.17 1159,1386.5C 1157.45,1385.03 1155.61,1384.03 1153.5,1383.5C 1152.48,1382.1 1151.48,1380.77 1150.5,1379.5C 1145.34,1374.36 1139.34,1370.36 1132.5,1367.5C 1131.89,1366.61 1131.56,1365.61 1131.5,1364.5C 1132.24,1364.63 1132.91,1364.46 1133.5,1364C 1131.21,1362.86 1129.21,1361.36 1127.5,1359.5C 1126.32,1360.85 1125.32,1360.69 1124.5,1359C 1125.52,1356.47 1124.52,1354.97 1121.5,1354.5C 1119.62,1356.81 1117.62,1356.64 1115.5,1354C 1115.83,1353.67 1116.17,1353.33 1116.5,1353C 1115.17,1352.67 1113.83,1352.33 1112.5,1352C 1114.9,1351.19 1114.73,1350.36 1112,1349.5C 1111.59,1349.96 1111.09,1350.29 1110.5,1350.5C 1109.77,1348.66 1109.1,1346.83 1108.5,1345C 1109.35,1343.27 1110.35,1343.1 1111.5,1344.5C 1111.39,1345.12 1111.06,1345.62 1110.5,1346C 1112.33,1347.5 1114.17,1349 1116,1350.5C 1116.79,1349.26 1117.29,1347.92 1117.5,1346.5C 1117.83,1346.5 1118.17,1346.5 1118.5,1346.5C 1119.63,1344.69 1120.3,1342.69 1120.5,1340.5C 1121.1,1340.26 1121.43,1339.76 1121.5,1339C 1120.91,1335.27 1119.58,1331.94 1117.5,1329C 1117.67,1327.88 1118,1326.72 1118.5,1325.5C 1117.97,1324.81 1117.31,1324.31 1116.5,1324C 1117.65,1321.22 1117.31,1318.56 1115.5,1316C 1117.77,1313.97 1117.1,1312.63 1113.5,1312C 1114.25,1310.51 1115.09,1310.35 1116,1311.5C 1116.17,1310.83 1116.33,1310.17 1116.5,1309.5C 1115.8,1308.14 1115.8,1306.97 1116.5,1306C 1115.96,1305.28 1115.29,1304.78 1114.5,1304.5C 1114.36,1302.93 1114.03,1301.27 1113.5,1299.5C 1115.09,1297.23 1116.59,1294.89 1118,1292.5C 1118.94,1285.95 1120.11,1279.79 1121.5,1274C 1120.73,1272 1121.4,1270.34 1123.5,1269C 1122.23,1268.69 1121.07,1268.19 1120,1267.5C 1118.68,1265.03 1118.18,1262.7 1118.5,1260.5C 1118.17,1259.17 1117.83,1259.17 1117.5,1260.5C 1115.57,1260.23 1114.24,1259.23 1113.5,1257.5C 1112.34,1256.05 1112.84,1255.05 1115,1254.5C 1116.51,1252.7 1116.67,1250.87 1115.5,1249C 1116.17,1248.67 1116.83,1248.33 1117.5,1248C 1117.17,1247 1116.83,1246 1116.5,1245C 1118.17,1242.67 1119.83,1240.33 1121.5,1238C 1120.12,1236.29 1118.46,1234.95 1116.5,1234C 1119.54,1233.64 1119.88,1232.97 1117.5,1232C 1117.83,1231.67 1118.17,1231.33 1118.5,1231C 1117.36,1229.85 1116.36,1228.69 1115.5,1227.5C 1114.59,1225.91 1114.59,1224.41 1115.5,1223C 1112.06,1222.78 1111.72,1221.78 1114.5,1220C 1114.04,1219.59 1113.71,1219.09 1113.5,1218.5C 1116.09,1215.77 1119.09,1215.1 1122.5,1216.5C 1123.82,1214.73 1125.32,1214.4 1127,1215.5C 1131.24,1213.51 1135.57,1212.85 1140,1213.5C 1142.5,1211.46 1145.17,1211.13 1148,1212.5C 1148.67,1213.5 1148.67,1214.5 1148,1215.5C 1147.3,1213.97 1146.13,1212.97 1144.5,1212.5C 1142.7,1214.7 1140.37,1215.87 1137.5,1216C 1137.5,1217 1137.5,1218 1137.5,1219C 1132.86,1221.59 1132.86,1223.42 1137.5,1224.5 Z M 1122.5,1230.5 C 1123.19,1231.85 1124.19,1233.02 1125.5,1234C 1124.12,1235.33 1122.79,1235.5 1121.5,1234.5C 1121.83,1233.17 1122.17,1231.83 1122.5,1230.5 Z M 1126.5,1230.5 C 1126.48,1232.03 1125.82,1232.53 1124.5,1232C 1125.04,1231.28 1125.71,1230.78 1126.5,1230.5 Z M 1132.5,1241.5 C 1131.17,1240.5 1131.17,1239.5 1132.5,1238.5C 1133.88,1237.43 1135.05,1236.09 1136,1234.5C 1136.62,1235.45 1136.45,1236.28 1135.5,1237C 1136.45,1237.48 1137.45,1237.65 1138.5,1237.5C 1138.97,1235.8 1138.97,1234.3 1138.5,1233C 1139.5,1232.33 1140.5,1232.33 1141.5,1233C 1139.85,1234.55 1139.52,1236.22 1140.5,1238C 1137.89,1239.48 1135.22,1240.65 1132.5,1241.5 Z M 1132.5,1241.5 C 1133.6,1242.4 1133.6,1243.23 1132.5,1244C 1134.88,1244.97 1134.54,1245.64 1131.5,1246C 1130.17,1246.67 1130.17,1247.33 1131.5,1248C 1130.58,1248.37 1129.75,1248.87 1129,1249.5C 1127.67,1249.5 1126.33,1249.5 1125,1249.5C 1126.26,1246.48 1127.93,1243.48 1130,1240.5C 1130.34,1242.62 1131.18,1242.95 1132.5,1241.5 Z M 1125.5,1252.5 C 1125.5,1252.17 1125.5,1251.83 1125.5,1251.5C 1127.18,1251.29 1128.18,1251.95 1128.5,1253.5C 1127.83,1253.5 1127.5,1253.83 1127.5,1254.5C 1127.17,1254.5 1126.83,1254.5 1126.5,1254.5C 1126.67,1253.51 1126.34,1252.84 1125.5,1252.5 Z M 1125.5,1252.5 C 1125.33,1253.49 1125.66,1254.16 1126.5,1254.5C 1126.44,1255.04 1126.11,1255.38 1125.5,1255.5C 1123.34,1253.87 1123.34,1252.87 1125.5,1252.5 Z M 1123.5,1264.5 C 1123.44,1265.04 1123.11,1265.38 1122.5,1265.5C 1121.61,1264.68 1121.28,1263.68 1121.5,1262.5C 1122.68,1262.28 1123.68,1262.61 1124.5,1263.5C 1124.38,1264.11 1124.04,1264.44 1123.5,1264.5 Z M 1118.5,1346.5 C 1119.98,1346.12 1121.32,1346.12 1122.5,1346.5C 1121.04,1347.78 1119.71,1347.78 1118.5,1346.5 Z M 1121.5,1354.5 C 1120.71,1354.22 1120.04,1353.72 1119.5,1353C 1120.82,1352.47 1121.48,1352.97 1121.5,1354.5 Z"/></g>
<g><path style="opacity:0.004" fill="#000000" d="M 1183.5,1211.5 C 1184.83,1212.17 1184.83,1212.17 1183.5,1211.5 Z"/></g>
<g><path style="opacity:0.004" fill="#000000" d="M 1203.5,1212.5 C 1202.83,1211.17 1202.83,1211.17 1203.5,1212.5 Z"/></g>
<g><path style="opacity:0.004" fill="#b9b818" d="M 1243.5,1211.5 C 1244.29,1211.78 1244.96,1212.28 1245.5,1213C 1244.18,1213.53 1243.52,1213.03 1243.5,1211.5 Z"/></g>
<g><path style="opacity:0.004" fill="#000000" d="M 1276.5,1214.5 C 1276.5,1213.83 1276.5,1213.17 1276.5,1212.5C 1276.43,1212.06 1276.6,1211.73 1277,1211.5C 1278.81,1213.3 1278.65,1214.3 1276.5,1214.5 Z"/></g>
<g><path style="opacity:0.004" fill="#000000" d="M 1250.5,1212.5 C 1251.83,1213.17 1251.83,1213.17 1250.5,1212.5 Z"/></g>
<g><path style="opacity:0.004" fill="#000000" d="M 1272.5,1212.5 C 1272.5,1212.83 1272.5,1213.17 1272.5,1213.5C 1272.5,1214.17 1272.83,1214.5 1273.5,1214.5C 1273.83,1214.5 1274.17,1214.5 1274.5,1214.5C 1273.05,1215.89 1272.05,1215.55 1271.5,1213.5C 1271.5,1212.83 1271.83,1212.5 1272.5,1212.5 Z"/></g>
<g><path style="opacity:0.004" fill="#ba3825" d="M 1272.5,1213.5 C 1272.5,1213.17 1272.5,1212.83 1272.5,1212.5C 1273.17,1212.5 1273.83,1212.5 1274.5,1212.5C 1274.83,1213.83 1275.17,1213.83 1275.5,1212.5C 1275.83,1212.5 1276.17,1212.5 1276.5,1212.5C 1276.5,1213.17 1276.5,1213.83 1276.5,1214.5C 1277.11,1215.39 1277.44,1216.39 1277.5,1217.5C 1276.27,1216.69 1275.27,1215.69 1274.5,1214.5C 1274.17,1214.5 1273.83,1214.5 1273.5,1214.5C 1272.83,1214.5 1272.5,1214.17 1272.5,1213.5 Z"/></g>
<g><path style="opacity:0.004" fill="#000000" d="M 1241.5,1213.5 C 1242.83,1214.17 1242.83,1214.17 1241.5,1213.5 Z"/></g>
<g><path style="opacity:0.004" fill="#000000" d="M 1152.5,1214.5 C 1153.83,1215.17 1153.83,1215.17 1152.5,1214.5 Z"/></g>
<g><path style="opacity:0.004" fill="#000000" d="M 1157.5,1214.5 C 1157.22,1215.29 1156.72,1215.96 1156,1216.5C 1155.47,1215.18 1155.97,1214.52 1157.5,1214.5 Z"/></g>
<g><path style="opacity:0.004" fill="#000000" d="M 1163.5,1214.5 C 1164.83,1215.17 1164.83,1215.17 1163.5,1214.5 Z"/></g>
<g><path style="opacity:0.004" fill="#000000" d="M 1246.5,1215.5 C 1245.83,1214.17 1245.83,1214.17 1246.5,1215.5 Z"/></g>
<g><path style="opacity:0.004" fill="#000000" d="M 1251.5,1214.5 C 1252.83,1215.17 1252.83,1215.17 1251.5,1214.5 Z"/></g>
<g><path style="opacity:0.004" fill="#000000" d="M 1174.5,1215.5 C 1175.83,1216.17 1175.83,1216.17 1174.5,1215.5 Z"/></g>
<g><path style="opacity:0.004" fill="#a41a0a" d="M 1246.5,1215.5 C 1247.87,1215.34 1249.21,1215.51 1250.5,1216C 1248.93,1216.76 1247.6,1216.6 1246.5,1215.5 Z"/></g>
<g><path style="opacity:0.004" fill="#000000" d="M 1153.5,1217.5 C 1152.83,1216.17 1152.83,1216.17 1153.5,1217.5 Z"/></g>
<g><path style="opacity:0.004" fill="#000000" d="M 1148.5,1217.5 C 1149.83,1218.17 1149.83,1218.17 1148.5,1217.5 Z"/></g>
<g><path style="opacity:0.004" fill="#000000" d="M 1152.5,1217.5 C 1152.65,1218.55 1152.48,1219.55 1152,1220.5C 1151.26,1219.25 1151.43,1218.25 1152.5,1217.5 Z"/></g>
<g><path style="opacity:0.004" fill="#000000" d="M 1153.5,1217.5 C 1154.53,1217.9 1154.69,1218.56 1154,1219.5C 1153.54,1218.91 1153.37,1218.24 1153.5,1217.5 Z"/></g>
<g><path style="opacity:0.004" fill="#fe0000" d="M 1249.5,1217.5 C 1250.83,1218.17 1250.83,1218.17 1249.5,1217.5 Z"/></g>
<g><path style="opacity:0.004" fill="#000000" d="M 1271.5,1217.5 C 1272.6,1218.6 1272.76,1219.93 1272,1221.5C 1271.51,1220.21 1271.34,1218.87 1271.5,1217.5 Z"/></g>
<g><path style="opacity:0.004" fill="#000000" d="M 1277.5,1217.5 C 1278.17,1217.5 1278.5,1217.83 1278.5,1218.5C 1278.17,1218.17 1277.83,1217.83 1277.5,1217.5 Z"/></g>
<g><path style="opacity:0.004" fill="#000000" d="M 1278.5,1218.5 C 1279.65,1217.1 1280.65,1217.27 1281.5,1219C 1280.25,1219.74 1279.25,1219.57 1278.5,1218.5 Z"/></g>
<g><path style="opacity:0.004" fill="#000000" d="M 1098.5,1219.5 C 1099.53,1219.9 1099.69,1220.56 1099,1221.5C 1098.54,1220.91 1098.37,1220.24 1098.5,1219.5 Z"/></g>
<g><path style="opacity:0.004" fill="#000000" d="M 1252.5,1219.5 C 1253.83,1220.17 1253.83,1220.17 1252.5,1219.5 Z"/></g>
<g><path style="opacity:0.005" fill="#000000" d="M 1090.5,1220.5 C 1091.81,1220.88 1093.14,1221.21 1094.5,1221.5C 1093.2,1223.14 1091.7,1224.48 1090,1225.5C 1086.54,1223.31 1086.71,1221.64 1090.5,1220.5 Z"/></g>
<g><path style="opacity:0.004" fill="#000000" d="M 1095.5,1221.5 C 1095.9,1220.47 1096.56,1220.31 1097.5,1221C 1096.91,1221.46 1096.24,1221.63 1095.5,1221.5 Z"/></g>
<g><path style="opacity:0.004" fill="#000000" d="M 1136.5,1220.5 C 1137.77,1221.08 1137.77,1221.74 1136.5,1222.5C 1135.54,1222.03 1135.54,1221.36 1136.5,1220.5 Z"/></g>
<g><path style="opacity:0.004" fill="#000000" d="M 1140.5,1220.5 C 1141.83,1221.17 1141.83,1221.17 1140.5,1220.5 Z"/></g>
<g><path style="opacity:0.004" fill="#000000" d="M 1149.5,1222.5 C 1148.54,1221.64 1148.54,1220.97 1149.5,1220.5C 1150.77,1221.26 1150.77,1221.92 1149.5,1222.5 Z"/></g>
<g><path style="opacity:0.004" fill="#000000" d="M 1149.5,1222.5 C 1149.5,1222.83 1149.5,1223.17 1149.5,1223.5C 1148.83,1223.02 1148.83,1222.69 1149.5,1222.5 Z"/></g>
<g><path style="opacity:0.004" fill="#000000" d="M 1280.5,1222.5 C 1281.83,1223.17 1281.83,1223.17 1280.5,1222.5 Z"/></g>
<g><path style="opacity:0.004" fill="#000000" d="M 1112.5,1223.5 C 1113.53,1223.9 1113.69,1224.56 1113,1225.5C 1112.54,1224.91 1112.37,1224.24 1112.5,1223.5 Z"/></g>
<g><path style="opacity:0.004" fill="#000000" d="M 1137.5,1223.5 C 1138.83,1224.17 1138.83,1224.17 1137.5,1223.5 Z"/></g>
<g><path style="opacity:0.004" fill="#000000" d="M 1142.5,1223.5 C 1143.83,1224.17 1143.83,1224.17 1142.5,1223.5 Z"/></g>
<g><path style="opacity:0.004" fill="#000000" d="M 1149.5,1223.5 C 1150.83,1224.17 1150.83,1224.17 1149.5,1223.5 Z"/></g>
<g><path style="opacity:0.004" fill="#000000" d="M 1146.5,1224.5 C 1147.83,1225.17 1147.83,1225.17 1146.5,1224.5 Z"/></g>
<g><path style="opacity:0.004" fill="#000000" d="M 1149.5,1224.5 C 1149.67,1225.49 1149.34,1226.16 1148.5,1226.5C 1148.33,1225.51 1148.66,1224.84 1149.5,1224.5 Z"/></g>
<g><path style="opacity:0.004" fill="#000000" d="M 1278.5,1224.5 C 1279.83,1225.17 1279.83,1225.17 1278.5,1224.5 Z"/></g>
<g><path style="opacity:0.004" fill="#000000" d="M 1242.5,1225.5 C 1243.83,1226.17 1243.83,1226.17 1242.5,1225.5 Z"/></g>
<g><path style="opacity:0.004" fill="#000000" d="M 1093.5,1226.5 C 1094.83,1227.17 1094.83,1227.17 1093.5,1226.5 Z"/></g>
<g><path style="opacity:0.004" fill="#000000" d="M 1146.5,1227.5 C 1146.5,1227.17 1146.5,1226.83 1146.5,1226.5C 1147.17,1226.5 1147.83,1226.5 1148.5,1226.5C 1148.16,1227.34 1147.49,1227.67 1146.5,1227.5 Z"/></g>
<g><path style="opacity:0.004" fill="#000000" d="M 1154.5,1226.5 C 1155.83,1227.17 1155.83,1227.17 1154.5,1226.5 Z"/></g>
<g><path style="opacity:0.004" fill="#000000" d="M 1115.5,1227.5 C 1114.83,1228.17 1114.83,1228.17 1115.5,1227.5 Z"/></g>
<g><path style="opacity:0.004" fill="#000000" d="M 1145.5,1227.5 C 1145.83,1227.5 1146.17,1227.5 1146.5,1227.5C 1146.31,1228.17 1145.98,1228.17 1145.5,1227.5 Z"/></g>
<g><path style="opacity:1" fill="#684323" d="M 1244.5,1242.5 C 1244.19,1243.48 1243.52,1244.14 1242.5,1244.5C 1241.76,1243.09 1240.92,1241.76 1240,1240.5C 1238.86,1240.62 1237.69,1240.95 1236.5,1241.5C 1236.57,1241.06 1236.4,1240.73 1236,1240.5C 1232.6,1243.73 1229.43,1247.06 1226.5,1250.5C 1228.97,1246.34 1229.13,1242 1227,1237.5C 1224.93,1240.3 1223.43,1239.96 1222.5,1236.5C 1220.31,1235.78 1218.15,1235.11 1216,1234.5C 1214.59,1236.69 1212.75,1238.35 1210.5,1239.5C 1212.72,1235.77 1215.56,1232.43 1219,1229.5C 1228.32,1232.41 1236.82,1236.74 1244.5,1242.5 Z"/></g>
<g><path style="opacity:0.004" fill="#000000" d="M 1271.5,1242.5 C 1272.83,1243.17 1272.83,1243.17 1271.5,1242.5 Z"/></g>
<g><path style="opacity:0.008" fill="#5f360c" d="M 1269.5,1242.5 C 1270.17,1242.83 1270.83,1243.17 1271.5,1243.5C 1271.5,1243.83 1271.5,1244.17 1271.5,1244.5C 1271.29,1246.14 1271.62,1247.64 1272.5,1249C 1271.34,1250.61 1270.01,1250.61 1268.5,1249C 1267.17,1247.67 1267.17,1246.33 1268.5,1245C 1266.26,1243.99 1266.59,1243.16 1269.5,1242.5 Z"/></g>
<g><path style="opacity:0.004" fill="#000000" d="M 1280.5,1245.5 C 1281.83,1246.17 1281.83,1246.17 1280.5,1245.5 Z"/></g>
<g><path style="opacity:0.004" fill="#000000" d="M 1280.5,1248.5 C 1281.83,1249.17 1281.83,1249.17 1280.5,1248.5 Z"/></g>
<g><path style="opacity:0.004" fill="#000000" d="M 1288.5,1251.5 C 1289.83,1252.17 1289.83,1252.17 1288.5,1251.5 Z"/></g>
<g><path style="opacity:0.004" fill="#000000" d="M 1283.5,1253.5 C 1284.83,1254.17 1284.83,1254.17 1283.5,1253.5 Z"/></g>
<g><path style="opacity:0.004" fill="#000000" d="M 1289.5,1253.5 C 1290.83,1254.17 1290.83,1254.17 1289.5,1253.5 Z"/></g>
<g><path style="opacity:1" fill="#5d4223" d="M 1210.5,1239.5 C 1209.32,1242.83 1208.48,1246.16 1208,1249.5C 1208.93,1246.64 1210.6,1244.31 1213,1242.5C 1213.78,1244.91 1212.95,1246.57 1210.5,1247.5C 1209.17,1248.83 1209.17,1250.17 1210.5,1251.5C 1207.77,1255.72 1205.27,1260.06 1203,1264.5C 1202.44,1266.88 1202.61,1269.22 1203.5,1271.5C 1202.17,1270.2 1200.84,1268.87 1199.5,1267.5C 1198.1,1267.87 1197.1,1268.7 1196.5,1270C 1193.32,1279.92 1191.49,1290.08 1191,1300.5C 1190.5,1298.19 1190.34,1295.86 1190.5,1293.5C 1191.59,1277.13 1196.09,1261.79 1204,1247.5C 1205.95,1244.58 1208.11,1241.91 1210.5,1239.5 Z"/></g>
<g><path style="opacity:0.004" fill="#000000" d="M 1095.5,1258.5 C 1094.83,1258.5 1094.5,1258.83 1094.5,1259.5C 1093.96,1259.44 1093.62,1259.11 1093.5,1258.5C 1094.26,1257.23 1094.92,1257.23 1095.5,1258.5 Z"/></g>
<g><path style="opacity:0.004" fill="#000000" d="M 1113.5,1257.5 C 1112.83,1258.17 1112.83,1258.17 1113.5,1257.5 Z"/></g>
<g><path style="opacity:0.004" fill="#000000" d="M 1095.5,1258.5 C 1098.12,1259.47 1098.12,1260.47 1095.5,1261.5C 1094.7,1261.04 1094.37,1260.38 1094.5,1259.5C 1095.17,1259.5 1095.5,1259.17 1095.5,1258.5 Z"/></g>
<g><path style="opacity:0.004" fill="#000000" d="M 1117.5,1260.5 C 1117.83,1260.5 1118.17,1260.5 1118.5,1260.5C 1118.31,1261.17 1117.98,1261.17 1117.5,1260.5 Z"/></g>
<g><path style="opacity:0.004" fill="#000000" d="M 1097.5,1262.5 C 1097.9,1261.47 1098.56,1261.31 1099.5,1262C 1098.91,1262.46 1098.24,1262.63 1097.5,1262.5 Z"/></g>
<g><path style="opacity:0.004" fill="#000000" d="M 1114.5,1261.5 C 1115.83,1262.17 1115.83,1262.17 1114.5,1261.5 Z"/></g>
<g><path style="opacity:0.004" fill="#000000" d="M 1285.5,1261.5 C 1286.83,1262.17 1286.83,1262.17 1285.5,1261.5 Z"/></g>
<g><path style="opacity:0.004" fill="#000000" d="M 1095.5,1262.5 C 1097.24,1264.12 1097.74,1266.12 1097,1268.5C 1095.68,1266.75 1095.18,1264.75 1095.5,1262.5 Z"/></g>
<g><path style="opacity:1" fill="#291f14" d="M 1226.5,1250.5 C 1222.94,1257.4 1218.94,1264.07 1214.5,1270.5C 1213.28,1269.74 1212.28,1268.74 1211.5,1267.5C 1209.73,1268.04 1209.4,1268.87 1210.5,1270C 1208.69,1270.93 1207.03,1272.09 1205.5,1273.5C 1204.82,1272.76 1204.15,1272.09 1203.5,1271.5C 1202.61,1269.22 1202.44,1266.88 1203,1264.5C 1205.27,1260.06 1207.77,1255.72 1210.5,1251.5C 1209.17,1250.17 1209.17,1248.83 1210.5,1247.5C 1212.95,1246.57 1213.78,1244.91 1213,1242.5C 1210.6,1244.31 1208.93,1246.64 1208,1249.5C 1208.48,1246.16 1209.32,1242.83 1210.5,1239.5C 1212.75,1238.35 1214.59,1236.69 1216,1234.5C 1218.15,1235.11 1220.31,1235.78 1222.5,1236.5C 1223.43,1239.96 1224.93,1240.3 1227,1237.5C 1229.13,1242 1228.97,1246.34 1226.5,1250.5 Z"/></g>
<g><path style="opacity:1" fill="#553d22" d="M 1221.5,1243.5 C 1223.42,1243.79 1225.09,1244.63 1226.5,1246C 1224.44,1249.9 1221.77,1253.4 1218.5,1256.5C 1217.17,1255.83 1216.17,1254.83 1215.5,1253.5C 1218.01,1250.47 1220.01,1247.14 1221.5,1243.5 Z"/></g>
<g><path style="opacity:1" fill="#5e4325" d="M 1262.5,1260.5 C 1263.49,1261.8 1264.49,1263.13 1265.5,1264.5C 1264.27,1266.3 1263.6,1268.3 1263.5,1270.5C 1261.61,1270.7 1260.11,1270.04 1259,1268.5C 1258.67,1269.5 1258.33,1270.5 1258,1271.5C 1255.42,1270.31 1253.26,1268.64 1251.5,1266.5C 1252.05,1264.61 1253.05,1262.94 1254.5,1261.5C 1255.48,1261.98 1256.31,1262.64 1257,1263.5C 1257.22,1262.06 1257.72,1260.73 1258.5,1259.5C 1259.74,1260.25 1261.07,1260.58 1262.5,1260.5 Z"/></g>
<g><path style="opacity:1" fill="#34271b" d="M 1242.5,1231.5 C 1258,1240.38 1270.17,1252.71 1279,1268.5C 1279.8,1270.26 1279.63,1271.93 1278.5,1273.5C 1277.15,1272.05 1275.48,1271.38 1273.5,1271.5C 1268.19,1261.16 1260.86,1252.5 1251.5,1245.5C 1249.66,1242.83 1247.33,1240.67 1244.5,1239C 1236.77,1234.47 1228.77,1230.47 1220.5,1227C 1223.41,1225.68 1226.41,1225.35 1229.5,1226C 1233.53,1228.59 1237.86,1230.42 1242.5,1231.5 Z"/></g>
<g><path style="opacity:0.004" fill="#000000" d="M 1096.5,1272.5 C 1097.83,1273.17 1097.83,1273.17 1096.5,1272.5 Z"/></g>
<g><path style="opacity:1" fill="#906533" d="M 1243.5,1270.5 C 1240.25,1274.66 1237.75,1279.33 1236,1284.5C 1235.67,1284.83 1235.33,1285.17 1235,1285.5C 1234.52,1284.55 1234.35,1283.55 1234.5,1282.5C 1237.31,1274.89 1240.64,1267.56 1244.5,1260.5C 1246.2,1260.34 1247.87,1260.51 1249.5,1261C 1246.85,1263.8 1244.85,1266.97 1243.5,1270.5 Z"/></g>
<g><path style="opacity:0.004" fill="#000000" d="M 1292.5,1280.5 C 1293.24,1280.37 1293.91,1280.54 1294.5,1281C 1293.56,1281.69 1292.9,1281.53 1292.5,1280.5 Z"/></g>
<g><path style="opacity:1" fill="#70502a" d="M 1236.5,1241.5 C 1233.01,1246.46 1229.51,1251.46 1226,1256.5C 1225.42,1258.38 1225.59,1260.21 1226.5,1262C 1226.17,1262.5 1225.83,1263 1225.5,1263.5C 1224.39,1262.41 1223.39,1262.41 1222.5,1263.5C 1220.84,1268 1218.51,1272.17 1215.5,1276C 1216.98,1276.98 1218.31,1278.15 1219.5,1279.5C 1226.92,1268.99 1233.59,1257.99 1239.5,1246.5C 1239.15,1248.67 1239.65,1250.67 1241,1252.5C 1236.33,1259.83 1231.67,1267.17 1227,1274.5C 1223.5,1282.13 1220.17,1289.46 1217,1296.5C 1216.68,1294.94 1215.85,1293.77 1214.5,1293C 1216.57,1291.57 1216.07,1290.4 1213,1289.5C 1207.43,1291.67 1207.26,1292.84 1212.5,1293C 1215.29,1294.04 1215.79,1295.54 1214,1297.5C 1213.69,1296.69 1213.19,1296.03 1212.5,1295.5C 1211.4,1296.62 1210.23,1296.62 1209,1295.5C 1207.41,1296.36 1206.57,1297.69 1206.5,1299.5C 1200.95,1301.14 1198.78,1299.48 1200,1294.5C 1201.62,1290.29 1203.62,1286.29 1206,1282.5C 1207.44,1284.27 1208.44,1286.27 1209,1288.5C 1209.64,1287.39 1210.14,1286.22 1210.5,1285C 1208.32,1281.49 1206.15,1277.99 1204,1274.5C 1200.6,1280.25 1197.6,1286.25 1195,1292.5C 1193.84,1293.99 1193.01,1293.83 1192.5,1292C 1194.35,1286.39 1196.52,1280.56 1199,1274.5C 1200.08,1272.61 1201.41,1272.27 1203,1273.5C 1203.46,1272.91 1203.63,1272.24 1203.5,1271.5C 1204.15,1272.09 1204.82,1272.76 1205.5,1273.5C 1207.03,1272.09 1208.69,1270.93 1210.5,1270C 1209.4,1268.87 1209.73,1268.04 1211.5,1267.5C 1212.28,1268.74 1213.28,1269.74 1214.5,1270.5C 1218.94,1264.07 1222.94,1257.4 1226.5,1250.5C 1229.43,1247.06 1232.6,1243.73 1236,1240.5C 1236.4,1240.73 1236.57,1241.06 1236.5,1241.5 Z"/></g>
<g><path style="opacity:1" fill="#634829" d="M 1245.5,1269.5 C 1243.29,1274.08 1240.96,1278.58 1238.5,1283C 1238.75,1284.33 1239.42,1285.33 1240.5,1286C 1239.5,1286.33 1238.5,1286.67 1237.5,1287C 1238.67,1287.42 1239.67,1288.09 1240.5,1289C 1239.17,1290.33 1237.83,1291.67 1236.5,1293C 1236.83,1293.33 1237.17,1293.67 1237.5,1294C 1235.58,1293.87 1233.58,1293.7 1231.5,1293.5C 1229.55,1289.3 1230.55,1285.64 1234.5,1282.5C 1234.35,1283.55 1234.52,1284.55 1235,1285.5C 1235.33,1285.17 1235.67,1284.83 1236,1284.5C 1237.75,1279.33 1240.25,1274.66 1243.5,1270.5C 1244.17,1270.17 1244.83,1269.83 1245.5,1269.5 Z"/></g>
<g><path style="opacity:0.316" fill="#130f0b" d="M 1245.5,1228.5 C 1247.37,1228.86 1248.87,1229.86 1250,1231.5C 1250.33,1230.83 1250.67,1230.17 1251,1229.5C 1252.35,1230.96 1253.85,1232.29 1255.5,1233.5C 1256.09,1233.29 1256.59,1232.96 1257,1232.5C 1259.58,1233.77 1261.41,1235.77 1262.5,1238.5C 1265.15,1239.47 1267.49,1240.81 1269.5,1242.5C 1266.59,1243.16 1266.26,1243.99 1268.5,1245C 1267.17,1246.33 1267.17,1247.67 1268.5,1249C 1270.01,1250.61 1271.34,1250.61 1272.5,1249C 1271.62,1247.64 1271.29,1246.14 1271.5,1244.5C 1274.38,1246.23 1277.38,1247.57 1280.5,1248.5C 1279.17,1248.83 1279.17,1249.17 1280.5,1249.5C 1280.66,1253.5 1282.32,1256.66 1285.5,1259C 1284.21,1260.29 1284.21,1261.46 1285.5,1262.5C 1285.5,1263.17 1285.5,1263.83 1285.5,1264.5C 1286.04,1267.6 1287.38,1270.44 1289.5,1273C 1287.56,1274.19 1287.72,1275.69 1290,1277.5C 1290.67,1276.17 1291.33,1276.17 1292,1277.5C 1292.48,1278.45 1292.65,1279.45 1292.5,1280.5C 1291.96,1280.56 1291.62,1280.89 1291.5,1281.5C 1292.5,1282.33 1293.5,1283.17 1294.5,1284C 1294.5,1285.4 1294.17,1286.9 1293.5,1288.5C 1295.99,1289.54 1295.99,1290.37 1293.5,1291C 1295.98,1294.72 1296.64,1298.72 1295.5,1303C 1296.17,1304.33 1296.83,1305.67 1297.5,1307C 1296.83,1307.33 1296.17,1307.67 1295.5,1308C 1297.68,1310.42 1298.01,1313.08 1296.5,1316C 1297.17,1316.67 1297.83,1317.33 1298.5,1318C 1295.97,1327.2 1294.3,1336.7 1293.5,1346.5C 1291.07,1347.55 1291.07,1348.21 1293.5,1348.5C 1293.5,1349.17 1293.83,1349.5 1294.5,1349.5C 1294.83,1350.83 1295.17,1350.83 1295.5,1349.5C 1296.17,1349.5 1296.83,1349.5 1297.5,1349.5C 1295.18,1350.85 1293.85,1352.52 1293.5,1354.5C 1292.17,1354.83 1292.17,1355.17 1293.5,1355.5C 1293.5,1356.17 1293.5,1356.83 1293.5,1357.5C 1291.89,1358.36 1290.23,1358.53 1288.5,1358C 1288.83,1358.33 1289.17,1358.67 1289.5,1359C 1287.3,1360.68 1286.63,1362.68 1287.5,1365C 1285.94,1365.72 1284.94,1366.89 1284.5,1368.5C 1283.83,1368.17 1283.17,1367.83 1282.5,1367.5C 1280.31,1366.38 1277.98,1366.38 1275.5,1367.5C 1275.65,1362.11 1274.15,1361.44 1271,1365.5C 1288.91,1334.79 1289.74,1303.46 1273.5,1271.5C 1275.48,1271.38 1277.15,1272.05 1278.5,1273.5C 1279.63,1271.93 1279.8,1270.26 1279,1268.5C 1270.17,1252.71 1258,1240.38 1242.5,1231.5C 1243.73,1230.69 1244.73,1229.69 1245.5,1228.5 Z"/></g>
<g><path style="opacity:0.016" fill="#7a4c0a" d="M 1285.5,1264.5 C 1284.37,1266.5 1284.21,1268.5 1285,1270.5C 1282.28,1266.21 1279.44,1262.04 1276.5,1258C 1277.64,1257.25 1278.64,1257.42 1279.5,1258.5C 1281.33,1260.71 1283.33,1262.71 1285.5,1264.5 Z"/></g>
<g><path style="opacity:0.012" fill="#7e4f00" d="M 1272.5,1250.5 C 1274.63,1251.03 1276.63,1251.87 1278.5,1253C 1275.62,1255.75 1273.62,1254.92 1272.5,1250.5 Z"/></g>
<g><path style="opacity:0.004" fill="#000000" d="M 1103.5,1291.5 C 1104.83,1292.17 1104.83,1292.17 1103.5,1291.5 Z"/></g>
<g><path style="opacity:1" fill="#1e1914" d="M 1265.5,1264.5 C 1268.34,1268.17 1270.67,1272.17 1272.5,1276.5C 1271.4,1278.36 1270.07,1280.02 1268.5,1281.5C 1263.75,1276.88 1261.08,1277.88 1260.5,1284.5C 1259.5,1284.5 1258.5,1284.5 1257.5,1284.5C 1257.68,1282.33 1258.35,1280.33 1259.5,1278.5C 1259.33,1277.83 1259.17,1277.17 1259,1276.5C 1258.67,1277.5 1258.33,1278.5 1258,1279.5C 1257.36,1278.35 1256.52,1277.35 1255.5,1276.5C 1258.17,1275.5 1258.17,1274.5 1255.5,1273.5C 1254.13,1277.08 1252.13,1280.25 1249.5,1283C 1253,1285.17 1255.83,1288 1258,1291.5C 1259.12,1290.45 1259.62,1289.28 1259.5,1288C 1260.45,1287.38 1261.28,1287.55 1262,1288.5C 1261.47,1290.57 1260.64,1292.57 1259.5,1294.5C 1257.28,1294.18 1255.44,1294.84 1254,1296.5C 1251.99,1295.33 1249.83,1294.66 1247.5,1294.5C 1247.8,1297.34 1247.13,1297.84 1245.5,1296C 1246.17,1294 1247.5,1292.67 1249.5,1292C 1248.23,1290.69 1247.23,1289.19 1246.5,1287.5C 1243.96,1290.87 1241.62,1294.37 1239.5,1298C 1239.67,1299.5 1240.5,1300.33 1242,1300.5C 1244.22,1300.28 1246.39,1300.28 1248.5,1300.5C 1249.39,1301.32 1249.72,1302.32 1249.5,1303.5C 1248.61,1305.29 1247.61,1307.12 1246.5,1309C 1246.83,1309.33 1247.17,1309.67 1247.5,1310C 1244.96,1312.91 1242.8,1316.07 1241,1319.5C 1239.62,1317.05 1239.12,1314.71 1239.5,1312.5C 1238.2,1314.8 1236.53,1316.8 1234.5,1318.5C 1235.52,1321.03 1236.68,1321.03 1238,1318.5C 1238.5,1319.5 1239,1320.5 1239.5,1321.5C 1238.3,1325.2 1236.13,1328.2 1233,1330.5C 1233.28,1334.01 1232.28,1337.34 1230,1340.5C 1228.33,1338.3 1226.33,1337.97 1224,1339.5C 1220.61,1343.11 1220.77,1346.44 1224.5,1349.5C 1224.06,1350.74 1223.39,1351.74 1222.5,1352.5C 1221.03,1351.22 1220.37,1349.55 1220.5,1347.5C 1219.5,1347.5 1218.5,1347.5 1217.5,1347.5C 1216.13,1345.48 1216.29,1343.48 1218,1341.5C 1218.49,1342.55 1218.33,1343.55 1217.5,1344.5C 1217.85,1345.7 1218.35,1345.7 1219,1344.5C 1221.17,1340.17 1223.33,1335.83 1225.5,1331.5C 1225.03,1329.19 1223.7,1327.86 1221.5,1327.5C 1220.85,1324.85 1219.18,1323.18 1216.5,1322.5C 1216.62,1321.89 1216.96,1321.56 1217.5,1321.5C 1217.56,1322.04 1217.89,1322.38 1218.5,1322.5C 1219.17,1321.83 1219.83,1321.17 1220.5,1320.5C 1223.09,1321.59 1225.26,1323.26 1227,1325.5C 1228.36,1323.31 1230.19,1321.64 1232.5,1320.5C 1231.05,1318.82 1229.71,1317.15 1228.5,1315.5C 1228.52,1311.44 1228.02,1307.44 1227,1303.5C 1226.67,1306.17 1226.33,1308.83 1226,1311.5C 1224.71,1312.79 1223.54,1312.79 1222.5,1311.5C 1226.25,1306.99 1226.25,1302.16 1222.5,1297C 1221.18,1296.81 1219.85,1296.97 1218.5,1297.5C 1218.35,1296.45 1218.52,1295.45 1219,1294.5C 1220.01,1295.34 1221.18,1295.67 1222.5,1295.5C 1222.62,1292.31 1223.45,1289.31 1225,1286.5C 1225.61,1290.27 1226.61,1290.27 1228,1286.5C 1228.59,1287.9 1228.43,1289.23 1227.5,1290.5C 1227.85,1291.7 1228.35,1291.7 1229,1290.5C 1229.22,1291.94 1229.72,1293.27 1230.5,1294.5C 1231.11,1294.38 1231.44,1294.04 1231.5,1293.5C 1233.58,1293.7 1235.58,1293.87 1237.5,1294C 1237.17,1293.67 1236.83,1293.33 1236.5,1293C 1237.83,1291.67 1239.17,1290.33 1240.5,1289C 1239.67,1288.09 1238.67,1287.42 1237.5,1287C 1238.5,1286.67 1239.5,1286.33 1240.5,1286C 1239.42,1285.33 1238.75,1284.33 1238.5,1283C 1240.96,1278.58 1243.29,1274.08 1245.5,1269.5C 1247.71,1268.88 1249.71,1267.88 1251.5,1266.5C 1253.26,1268.64 1255.42,1270.31 1258,1271.5C 1258.33,1270.5 1258.67,1269.5 1259,1268.5C 1260.11,1270.04 1261.61,1270.7 1263.5,1270.5C 1263.6,1268.3 1264.27,1266.3 1265.5,1264.5 Z"/></g>
<g><path style="opacity:1" fill="#5c4225" d="M 1246.5,1270.5 C 1249.24,1271.11 1251.57,1271.78 1253.5,1272.5C 1250.62,1276.93 1248.29,1281.6 1246.5,1286.5C 1245.48,1284.16 1243.82,1282.5 1241.5,1281.5C 1244.53,1278.44 1246.2,1274.77 1246.5,1270.5 Z"/></g>
<g><path style="opacity:0.004" fill="#000000" d="M 1105.5,1296.5 C 1104.43,1295.75 1104.26,1294.75 1105,1293.5C 1105.48,1294.45 1105.65,1295.45 1105.5,1296.5 Z"/></g>
<g><path style="opacity:0.004" fill="#000000" d="M 1106.5,1295.5 C 1107.83,1296.17 1107.83,1296.17 1106.5,1295.5 Z"/></g>
<g><path style="opacity:1" fill="#ecebea" d="M 1227.5,1295.5 C 1228.73,1295.72 1229.73,1296.39 1230.5,1297.5C 1233.54,1294.56 1236.04,1294.89 1238,1298.5C 1238.67,1301.17 1238.67,1303.83 1238,1306.5C 1236.56,1308.16 1234.72,1308.82 1232.5,1308.5C 1232.79,1310.29 1232.45,1311.95 1231.5,1313.5C 1230.91,1313.29 1230.41,1312.96 1230,1312.5C 1229.36,1306.79 1228.52,1301.13 1227.5,1295.5 Z"/></g>
<g><path style="opacity:1" fill="#694b28" d="M 1272.5,1276.5 C 1272.83,1276.5 1273.17,1276.5 1273.5,1276.5C 1272.64,1277.94 1272.64,1279.27 1273.5,1280.5C 1272.09,1281.24 1270.76,1282.08 1269.5,1283C 1270.45,1283.72 1270.62,1284.55 1270,1285.5C 1266.45,1288.69 1263.29,1292.19 1260.5,1296C 1261.5,1296.83 1262.5,1297.67 1263.5,1298.5C 1262.48,1299.35 1261.64,1300.35 1261,1301.5C 1260.31,1300.64 1259.48,1299.98 1258.5,1299.5C 1257.38,1300.91 1256.38,1302.41 1255.5,1304C 1257.54,1306.13 1258.38,1308.63 1258,1311.5C 1255.38,1313.41 1253.21,1315.74 1251.5,1318.5C 1250.83,1317.5 1250.17,1316.5 1249.5,1315.5C 1247.37,1317.09 1245.7,1319.09 1244.5,1321.5C 1247.27,1324.6 1250.61,1326.94 1254.5,1328.5C 1254.44,1329.04 1254.11,1329.38 1253.5,1329.5C 1249.9,1327.9 1246.57,1325.9 1243.5,1323.5C 1242.91,1323.71 1242.41,1324.04 1242,1324.5C 1233.42,1337.02 1226.58,1350.02 1221.5,1363.5C 1225.53,1363.84 1227.2,1365.84 1226.5,1369.5C 1227.45,1368.67 1228.45,1368.51 1229.5,1369C 1228.33,1370.17 1227.17,1371.33 1226,1372.5C 1224.2,1368.49 1223.2,1368.82 1223,1373.5C 1221.11,1372.07 1219.45,1370.4 1218,1368.5C 1217.22,1369.73 1216.72,1371.06 1216.5,1372.5C 1218.06,1375.13 1219.73,1377.63 1221.5,1380C 1220.17,1380.67 1218.83,1380.67 1217.5,1380C 1217.41,1378.58 1217.07,1377.08 1216.5,1375.5C 1215.68,1377.11 1215.01,1378.77 1214.5,1380.5C 1216.64,1384.48 1219.64,1387.64 1223.5,1390C 1225,1390.51 1226.16,1390.01 1227,1388.5C 1227.3,1390.07 1226.8,1391.4 1225.5,1392.5C 1219.24,1389.24 1214.24,1384.57 1210.5,1378.5C 1211.33,1377.67 1212.16,1378 1213,1379.5C 1214.03,1372.87 1216.19,1366.7 1219.5,1361C 1217.83,1359.83 1216.17,1358.67 1214.5,1357.5C 1215.73,1354.96 1216.9,1354.96 1218,1357.5C 1219.63,1355.94 1221.13,1354.27 1222.5,1352.5C 1223.39,1351.74 1224.06,1350.74 1224.5,1349.5C 1220.77,1346.44 1220.61,1343.11 1224,1339.5C 1226.33,1337.97 1228.33,1338.3 1230,1340.5C 1232.28,1337.34 1233.28,1334.01 1233,1330.5C 1236.13,1328.2 1238.3,1325.2 1239.5,1321.5C 1239,1320.5 1238.5,1319.5 1238,1318.5C 1236.68,1321.03 1235.52,1321.03 1234.5,1318.5C 1236.53,1316.8 1238.2,1314.8 1239.5,1312.5C 1239.12,1314.71 1239.62,1317.05 1241,1319.5C 1242.8,1316.07 1244.96,1312.91 1247.5,1310C 1247.17,1309.67 1246.83,1309.33 1246.5,1309C 1247.61,1307.12 1248.61,1305.29 1249.5,1303.5C 1250.22,1303.92 1250.72,1304.58 1251,1305.5C 1254.05,1301.96 1256.88,1298.29 1259.5,1294.5C 1260.64,1292.57 1261.47,1290.57 1262,1288.5C 1261.28,1287.55 1260.45,1287.38 1259.5,1288C 1259.62,1289.28 1259.12,1290.45 1258,1291.5C 1255.83,1288 1253,1285.17 1249.5,1283C 1252.13,1280.25 1254.13,1277.08 1255.5,1273.5C 1258.17,1274.5 1258.17,1275.5 1255.5,1276.5C 1256.52,1277.35 1257.36,1278.35 1258,1279.5C 1258.33,1278.5 1258.67,1277.5 1259,1276.5C 1259.17,1277.17 1259.33,1277.83 1259.5,1278.5C 1258.35,1280.33 1257.68,1282.33 1257.5,1284.5C 1258.5,1284.5 1259.5,1284.5 1260.5,1284.5C 1261.08,1277.88 1263.75,1276.88 1268.5,1281.5C 1270.07,1280.02 1271.4,1278.36 1272.5,1276.5 Z"/></g>
<g><path style="opacity:0.004" fill="#000000" d="M 1105.5,1296.5 C 1105.83,1296.5 1106.17,1296.5 1106.5,1296.5C 1106.5,1296.83 1106.5,1297.17 1106.5,1297.5C 1106.17,1297.17 1105.83,1296.83 1105.5,1296.5 Z"/></g>
<g><path style="opacity:0.004" fill="#000000" d="M 1106.5,1297.5 C 1110.36,1302.65 1109.69,1307.32 1104.5,1311.5C 1102.23,1309.86 1102.23,1308.36 1104.5,1307C 1103.08,1304.38 1103.24,1301.88 1105,1299.5C 1105.33,1300.17 1105.67,1300.83 1106,1301.5C 1106.49,1300.21 1106.66,1298.87 1106.5,1297.5 Z"/></g>
<g><path style="opacity:1" fill="#3b3a3a" d="M 1230.5,1298.5 C 1236.7,1298.31 1238.04,1300.81 1234.5,1306C 1233.21,1306.49 1231.87,1306.66 1230.5,1306.5C 1230.04,1303.69 1230.04,1301.02 1230.5,1298.5 Z"/></g>
<g><path style="opacity:1" fill="#382b1b" d="M 1259.5,1294.5 C 1256.88,1298.29 1254.05,1301.96 1251,1305.5C 1250.72,1304.58 1250.22,1303.92 1249.5,1303.5C 1249.72,1302.32 1249.39,1301.32 1248.5,1300.5C 1246.39,1300.28 1244.22,1300.28 1242,1300.5C 1240.5,1300.33 1239.67,1299.5 1239.5,1298C 1241.62,1294.37 1243.96,1290.87 1246.5,1287.5C 1247.23,1289.19 1248.23,1290.69 1249.5,1292C 1247.5,1292.67 1246.17,1294 1245.5,1296C 1247.13,1297.84 1247.8,1297.34 1247.5,1294.5C 1249.83,1294.66 1251.99,1295.33 1254,1296.5C 1255.44,1294.84 1257.28,1294.18 1259.5,1294.5 Z"/></g>
<g><path style="opacity:1" fill="#d3d2d1" d="M 1188.5,1300.5 C 1188.5,1301.5 1188.5,1302.5 1188.5,1303.5C 1192.5,1304.17 1192.5,1304.83 1188.5,1305.5C 1188.22,1307.41 1188.55,1309.08 1189.5,1310.5C 1189.33,1311.49 1189.66,1312.16 1190.5,1312.5C 1191.48,1312.81 1192.14,1313.48 1192.5,1314.5C 1190.99,1315.75 1189.49,1315.75 1188,1314.5C 1186.71,1311.65 1186.21,1308.65 1186.5,1305.5C 1185.21,1305.74 1184.21,1305.4 1183.5,1304.5C 1184.81,1303.53 1185.47,1302.2 1185.5,1300.5C 1186.5,1300.5 1187.5,1300.5 1188.5,1300.5 Z"/></g>
<g><path style="opacity:0.004" fill="#000000" d="M 1101.5,1302.5 C 1102.83,1303.17 1102.83,1303.17 1101.5,1302.5 Z"/></g>
<g><path style="opacity:1" fill="#c3c3c2" d="M 1231.5,1299.5 C 1232.27,1300.26 1232.77,1301.26 1233,1302.5C 1233.65,1299.06 1234.15,1298.9 1234.5,1302C 1234.61,1303.66 1233.95,1304.83 1232.5,1305.5C 1231.53,1303.6 1231.2,1301.6 1231.5,1299.5 Z"/></g>
<g><path style="opacity:0.004" fill="#000000" d="M 1114.5,1304.5 C 1113.83,1305.17 1113.83,1305.17 1114.5,1304.5 Z"/></g>
<g><path style="opacity:1" fill="#2e2e2e" d="M 1188.5,1300.5 C 1187.5,1300.5 1186.5,1300.5 1185.5,1300.5C 1185.47,1302.2 1184.81,1303.53 1183.5,1304.5C 1183.13,1306.59 1183.13,1308.92 1183.5,1311.5C 1182.08,1309.49 1181.41,1307.15 1181.5,1304.5C 1180.45,1304.35 1179.45,1304.52 1178.5,1305C 1179.38,1307.91 1180.04,1310.91 1180.5,1314C 1180.68,1315.38 1181.35,1316.21 1182.5,1316.5C 1182.08,1317.12 1181.42,1317.46 1180.5,1317.5C 1178.71,1316.56 1177.38,1315.23 1176.5,1313.5C 1176.63,1312.76 1176.46,1312.09 1176,1311.5C 1174.72,1315.56 1171.89,1317.23 1167.5,1316.5C 1167.5,1314.5 1167.5,1312.5 1167.5,1310.5C 1172.5,1310 1172.17,1309.66 1166.5,1309.5C 1165.68,1303.84 1167.85,1302.18 1173,1304.5C 1173.72,1306.11 1173.55,1307.61 1172.5,1309C 1178.75,1307.98 1179.08,1305.81 1173.5,1302.5C 1174.93,1300.4 1176.1,1298.07 1177,1295.5C 1180.16,1296.81 1182.16,1299.14 1183,1302.5C 1184.17,1299.59 1186.01,1298.92 1188.5,1300.5 Z"/></g>
<g><path style="opacity:1" fill="#e0dcd9" d="M 1222.5,1311.5 C 1218.55,1312.43 1215.89,1311.09 1214.5,1307.5C 1217.31,1305.68 1219.97,1303.68 1222.5,1301.5C 1222,1300.12 1221,1299.45 1219.5,1299.5C 1213.25,1302.2 1212.92,1301.54 1218.5,1297.5C 1219.85,1296.97 1221.18,1296.81 1222.5,1297C 1226.25,1302.16 1226.25,1306.99 1222.5,1311.5 Z"/></g>
<g><path style="opacity:1" fill="#d2d2d2" d="M 1173.5,1302.5 C 1179.08,1305.81 1178.75,1307.98 1172.5,1309C 1173.55,1307.61 1173.72,1306.11 1173,1304.5C 1167.85,1302.18 1165.68,1303.84 1166.5,1309.5C 1172.17,1309.66 1172.5,1310 1167.5,1310.5C 1167.5,1312.5 1167.5,1314.5 1167.5,1316.5C 1166.29,1317.69 1164.96,1317.69 1163.5,1316.5C 1163.33,1312.15 1163.5,1307.82 1164,1303.5C 1166.96,1301.27 1170.13,1300.94 1173.5,1302.5 Z"/></g>
<g><path style="opacity:0.004" fill="#000000" d="M 1112.5,1308.5 C 1113.83,1309.17 1113.83,1309.17 1112.5,1308.5 Z"/></g>
<g><path style="opacity:0.004" fill="#000000" d="M 1114.5,1308.5 C 1115.83,1309.17 1115.83,1309.17 1114.5,1308.5 Z"/></g>
<g><path style="opacity:1" fill="#e6e6e6" d="M 1183.5,1311.5 C 1183.63,1313.29 1183.3,1314.96 1182.5,1316.5C 1181.35,1316.21 1180.68,1315.38 1180.5,1314C 1180.04,1310.91 1179.38,1307.91 1178.5,1305C 1179.45,1304.52 1180.45,1304.35 1181.5,1304.5C 1181.41,1307.15 1182.08,1309.49 1183.5,1311.5 Z"/></g>
<g><path style="opacity:0.004" fill="#000000" d="M 1104.5,1311.5 C 1105.83,1312.17 1105.83,1312.17 1104.5,1311.5 Z"/></g>
<g><path style="opacity:1" fill="#1d1813" d="M 1273.5,1276.5 C 1275.19,1280.85 1276.19,1285.19 1276.5,1289.5C 1272.13,1295.72 1268.13,1302.22 1264.5,1309C 1266.09,1309.86 1267.75,1310.53 1269.5,1311C 1268.22,1314.05 1266.55,1314.21 1264.5,1311.5C 1263.06,1314.56 1260.73,1316.73 1257.5,1318C 1258.67,1318.42 1259.67,1319.09 1260.5,1320C 1259.6,1322.57 1258.27,1324.9 1256.5,1327C 1257.74,1326.92 1258.74,1327.09 1259.5,1327.5C 1258.22,1329.7 1256.55,1330.04 1254.5,1328.5C 1250.61,1326.94 1247.27,1324.6 1244.5,1321.5C 1245.7,1319.09 1247.37,1317.09 1249.5,1315.5C 1250.17,1316.5 1250.83,1317.5 1251.5,1318.5C 1253.21,1315.74 1255.38,1313.41 1258,1311.5C 1258.38,1308.63 1257.54,1306.13 1255.5,1304C 1256.38,1302.41 1257.38,1300.91 1258.5,1299.5C 1259.48,1299.98 1260.31,1300.64 1261,1301.5C 1261.64,1300.35 1262.48,1299.35 1263.5,1298.5C 1262.5,1297.67 1261.5,1296.83 1260.5,1296C 1263.29,1292.19 1266.45,1288.69 1270,1285.5C 1270.62,1284.55 1270.45,1283.72 1269.5,1283C 1270.76,1282.08 1272.09,1281.24 1273.5,1280.5C 1272.64,1279.27 1272.64,1277.94 1273.5,1276.5 Z"/></g>
<g><path style="opacity:1" fill="#5b4123" d="M 1228.5,1315.5 C 1229.71,1317.15 1231.05,1318.82 1232.5,1320.5C 1230.19,1321.64 1228.36,1323.31 1227,1325.5C 1225.26,1323.26 1223.09,1321.59 1220.5,1320.5C 1219.83,1321.17 1219.17,1321.83 1218.5,1322.5C 1217.89,1322.38 1217.56,1322.04 1217.5,1321.5C 1218.39,1320.74 1219.06,1319.74 1219.5,1318.5C 1217.43,1318.15 1216.43,1316.48 1216.5,1313.5C 1220.77,1313.08 1224.77,1313.75 1228.5,1315.5 Z"/></g>
<g><path style="opacity:1" fill="#8c8c8c" d="M 1176.5,1313.5 C 1176.78,1316.39 1175.45,1317.89 1172.5,1318C 1171.83,1319 1171.17,1320 1170.5,1321C 1169.84,1319.73 1167.51,1319.23 1163.5,1319.5C 1163.5,1318.5 1163.5,1317.5 1163.5,1316.5C 1164.96,1317.69 1166.29,1317.69 1167.5,1316.5C 1171.89,1317.23 1174.72,1315.56 1176,1311.5C 1176.46,1312.09 1176.63,1312.76 1176.5,1313.5 Z"/></g>
<g><path style="opacity:0.004" fill="#000000" d="M 1114.5,1317.5 C 1115.83,1318.17 1115.83,1318.17 1114.5,1317.5 Z"/></g>
<g><path style="opacity:1" fill="#533d23" d="M 1198.5,1308.5 C 1199.5,1310.5 1200.5,1312.5 1201.5,1314.5C 1201.83,1314.5 1202.17,1314.5 1202.5,1314.5C 1205.3,1313.64 1207.96,1313.31 1210.5,1313.5C 1211.58,1314.36 1211.75,1315.36 1211,1316.5C 1209.62,1317.55 1208.62,1318.88 1208,1320.5C 1205.44,1318.82 1202.6,1318.15 1199.5,1318.5C 1198.78,1318.22 1197.95,1317.88 1197,1317.5C 1196.58,1318.67 1195.91,1319.67 1195,1320.5C 1194.07,1324.58 1193.4,1328.58 1193,1332.5C 1192.77,1331.26 1192.27,1330.26 1191.5,1329.5C 1190.47,1325.55 1190.31,1321.55 1191,1317.5C 1191.36,1323.88 1192.53,1323.88 1194.5,1317.5C 1195.91,1316.19 1197.58,1315.36 1199.5,1315C 1198.58,1312.96 1198.24,1310.79 1198.5,1308.5 Z"/></g>
<g><path style="opacity:1" fill="#5f4526" d="M 1281.5,1328.5 C 1281.5,1329.17 1281.5,1329.83 1281.5,1330.5C 1280.05,1329.34 1279.05,1329.84 1278.5,1332C 1278.83,1332.33 1279.17,1332.67 1279.5,1333C 1278.81,1334.07 1278.31,1335.23 1278,1336.5C 1276.49,1335.91 1274.99,1335.24 1273.5,1334.5C 1274.97,1331.86 1276.64,1329.36 1278.5,1327C 1279.79,1326.76 1280.79,1327.26 1281.5,1328.5 Z"/></g>
<g><path style="opacity:1" fill="#664927" d="M 1281.5,1321.5 C 1281.5,1322.17 1281.5,1322.83 1281.5,1323.5C 1279.7,1322.54 1278.37,1323.2 1277.5,1325.5C 1275.09,1324.28 1273.26,1324.94 1272,1327.5C 1270.99,1326.66 1269.82,1326.33 1268.5,1326.5C 1268.12,1328.94 1268.79,1329.61 1270.5,1328.5C 1273.68,1330.56 1273.68,1333.06 1270.5,1336C 1273.01,1337.3 1275.67,1338.3 1278.5,1339C 1274.82,1339.01 1272.66,1340.84 1272,1344.5C 1271.39,1342.25 1270.06,1340.58 1268,1339.5C 1267.6,1339.73 1267.43,1340.06 1267.5,1340.5C 1266.19,1339.52 1264.85,1338.52 1263.5,1337.5C 1264.38,1336.75 1265.38,1336.25 1266.5,1336C 1265.02,1334.81 1263.69,1334.31 1262.5,1334.5C 1263.52,1331.97 1264.68,1331.97 1266,1334.5C 1267.16,1332.2 1268.16,1332.54 1269,1335.5C 1269.96,1334.42 1270.79,1333.25 1271.5,1332C 1269.13,1331.46 1267.13,1330.3 1265.5,1328.5C 1267.99,1327.46 1267.99,1326.63 1265.5,1326C 1267.21,1324.62 1268.55,1322.96 1269.5,1321C 1270.55,1320.51 1271.55,1320.67 1272.5,1321.5C 1273.33,1320.5 1274.17,1319.5 1275,1318.5C 1276.11,1319.71 1277.28,1319.71 1278.5,1318.5C 1279.73,1319.34 1280.73,1320.34 1281.5,1321.5 Z"/></g>
<g><path style="opacity:1" fill="#694a27" d="M 1221.5,1327.5 C 1223.7,1327.86 1225.03,1329.19 1225.5,1331.5C 1223.33,1335.83 1221.17,1340.17 1219,1344.5C 1218.35,1345.7 1217.85,1345.7 1217.5,1344.5C 1218.33,1343.55 1218.49,1342.55 1218,1341.5C 1216.29,1343.48 1216.13,1345.48 1217.5,1347.5C 1217.44,1348.04 1217.11,1348.38 1216.5,1348.5C 1214.81,1344.78 1215.48,1341.61 1218.5,1339C 1218.11,1337.47 1218.11,1335.81 1218.5,1334C 1215.02,1332.52 1215.02,1330.68 1218.5,1328.5C 1218.83,1328.83 1219.17,1329.17 1219.5,1329.5C 1218.83,1330.17 1218.17,1330.83 1217.5,1331.5C 1218,1332.52 1218.67,1332.69 1219.5,1332C 1220.58,1330.67 1221.25,1329.17 1221.5,1327.5 Z"/></g>
<g><path style="opacity:0.004" fill="#000000" d="M 1120.5,1340.5 C 1119.83,1339.17 1119.83,1339.17 1120.5,1340.5 Z"/></g>
<g><path style="opacity:0.004" fill="#000000" d="M 1112.5,1340.5 C 1113.83,1341.17 1113.83,1341.17 1112.5,1340.5 Z"/></g>
<g><path style="opacity:0.004" fill="#000000" d="M 1112.5,1341.5 C 1111.83,1342.17 1111.83,1342.17 1112.5,1341.5 Z"/></g>
<g><path style="opacity:0.004" fill="#000000" d="M 1118.5,1341.5 C 1119.83,1342.17 1119.83,1342.17 1118.5,1341.5 Z"/></g>
<g><path style="opacity:0.004" fill="#000000" d="M 1111.5,1343.5 C 1112.83,1344.17 1112.83,1344.17 1111.5,1343.5 Z"/></g>
<g><path style="opacity:0.004" fill="#000000" d="M 1113.5,1344.5 C 1114.83,1345.17 1114.83,1345.17 1113.5,1344.5 Z"/></g>
<g><path style="opacity:0.004" fill="#000000" d="M 1304.5,1345.5 C 1303.83,1344.17 1303.83,1344.17 1304.5,1345.5 Z"/></g>
<g><path style="opacity:0.004" fill="#000000" d="M 1117.5,1346.5 C 1116.83,1345.17 1116.83,1345.17 1117.5,1346.5 Z"/></g>
<g><path style="opacity:0.004" fill="#000000" d="M 1304.5,1345.5 C 1305.83,1346.17 1305.83,1346.17 1304.5,1345.5 Z"/></g>
<g><path style="opacity:1" fill="#694a27" d="M 1199.5,1318.5 C 1200.93,1322.32 1203.1,1322.99 1206,1320.5C 1207.68,1321.06 1209.01,1322.06 1210,1323.5C 1211.01,1322.66 1212.18,1322.33 1213.5,1322.5C 1213.66,1323.87 1213.49,1325.21 1213,1326.5C 1211.13,1328.76 1209.63,1331.26 1208.5,1334C 1209.03,1334.69 1209.69,1335.19 1210.5,1335.5C 1211.94,1332.96 1213.1,1330.29 1214,1327.5C 1212.82,1334.74 1210.98,1341.9 1208.5,1349C 1208.64,1349.77 1208.98,1350.44 1209.5,1351C 1207.5,1354.1 1206.5,1357.6 1206.5,1361.5C 1207.18,1366.9 1208.18,1371.9 1209.5,1376.5C 1203.32,1368.47 1198.99,1359.47 1196.5,1349.5C 1193.83,1343.2 1192.17,1336.53 1191.5,1329.5C 1192.27,1330.26 1192.77,1331.26 1193,1332.5C 1193.4,1328.58 1194.07,1324.58 1195,1320.5C 1195.91,1319.67 1196.58,1318.67 1197,1317.5C 1197.95,1317.88 1198.78,1318.22 1199.5,1318.5 Z"/></g>
<g><path style="opacity:1" fill="#362818" d="M 1196.5,1349.5 C 1197.41,1346.52 1198.74,1343.69 1200.5,1341C 1199.29,1339.37 1198.45,1337.54 1198,1335.5C 1197.68,1337.3 1197.02,1337.63 1196,1336.5C 1195.67,1338.17 1195.33,1339.83 1195,1341.5C 1194.19,1339.1 1194.35,1336.76 1195.5,1334.5C 1198.81,1330.94 1201.98,1327.27 1205,1323.5C 1205.79,1325.6 1207.29,1326.94 1209.5,1327.5C 1208.74,1327.91 1207.74,1328.08 1206.5,1328C 1206.83,1328.33 1207.17,1328.67 1207.5,1329C 1206.75,1330.73 1206.25,1332.57 1206,1334.5C 1205.35,1333.3 1204.85,1333.3 1204.5,1334.5C 1206.53,1335.09 1208.53,1336.42 1210.5,1338.5C 1209.19,1339.91 1208.36,1341.58 1208,1343.5C 1206.84,1341.2 1205.84,1341.54 1205,1344.5C 1204.19,1342.1 1203.36,1342.27 1202.5,1345C 1203.38,1346.36 1203.71,1347.86 1203.5,1349.5C 1202.45,1349.35 1201.45,1349.52 1200.5,1350C 1199.3,1350.65 1199.3,1351.15 1200.5,1351.5C 1203.25,1351.04 1205.42,1349.71 1207,1347.5C 1205.96,1352.27 1204.3,1356.94 1202,1361.5C 1200.24,1357.36 1198.41,1353.36 1196.5,1349.5 Z"/></g>
<g><path style="opacity:0.004" fill="#000000" d="M 1293.5,1346.5 C 1294.91,1346.97 1295.57,1347.97 1295.5,1349.5C 1295.17,1349.5 1294.83,1349.5 1294.5,1349.5C 1293.83,1349.5 1293.5,1349.17 1293.5,1348.5C 1293.5,1347.83 1293.5,1347.17 1293.5,1346.5 Z"/></g>
<g><path style="opacity:0.004" fill="#000000" d="M 1301.5,1346.5 C 1302.83,1347.17 1302.83,1347.17 1301.5,1346.5 Z"/></g>
<g><path style="opacity:0.004" fill="#000000" d="M 1114.5,1347.5 C 1115.83,1348.17 1115.83,1348.17 1114.5,1347.5 Z"/></g>
<g><path style="opacity:0.004" fill="#000000" d="M 1297.5,1349.5 C 1298.08,1348.23 1298.74,1348.23 1299.5,1349.5C 1299.03,1350.46 1298.36,1350.46 1297.5,1349.5 Z"/></g>
<g><path style="opacity:0.004" fill="#000000" d="M 1300.5,1348.5 C 1301.83,1349.17 1301.83,1349.17 1300.5,1348.5 Z"/></g>
<g><path style="opacity:1" fill="#664927" d="M 1263.5,1351.5 C 1263.63,1352.38 1263.3,1353.04 1262.5,1353.5C 1260.22,1352.79 1257.89,1352.29 1255.5,1352C 1254.03,1351.29 1253.36,1350.12 1253.5,1348.5C 1253.35,1347.45 1253.52,1346.45 1254,1345.5C 1254.33,1346.83 1254.67,1348.17 1255,1349.5C 1255.72,1350.45 1256.55,1350.62 1257.5,1350C 1258.12,1347.5 1257.45,1345.17 1255.5,1343C 1259.54,1344.21 1262.2,1347.04 1263.5,1351.5 Z"/></g>
<g><path style="opacity:0.004" fill="#000000" d="M 1307.5,1357.5 C 1306.17,1357.83 1306.17,1358.17 1307.5,1358.5C 1306.81,1359.77 1305.98,1359.77 1305,1358.5C 1304.17,1360 1303,1361.17 1301.5,1362C 1302.45,1362.48 1303.45,1362.65 1304.5,1362.5C 1305.01,1364.23 1305.84,1364.57 1307,1363.5C 1307.97,1366.34 1307.13,1368.34 1304.5,1369.5C 1300.15,1368.01 1299.48,1369.17 1302.5,1373C 1301.93,1373.99 1301.27,1374.83 1300.5,1375.5C 1300.17,1374.17 1299.83,1374.17 1299.5,1375.5C 1298.17,1376.83 1296.83,1378.17 1295.5,1379.5C 1294.83,1379.5 1294.5,1379.83 1294.5,1380.5C 1293.16,1382.11 1291.5,1382.61 1289.5,1382C 1290.42,1381.72 1291.08,1381.22 1291.5,1380.5C 1292.4,1379.79 1292.74,1378.79 1292.5,1377.5C 1293.83,1377.5 1295.17,1377.5 1296.5,1377.5C 1296.62,1374.8 1295.62,1374.13 1293.5,1375.5C 1292.71,1374.76 1292.05,1373.92 1291.5,1373C 1292.66,1371.17 1293.99,1369.51 1295.5,1368C 1295.17,1367.67 1294.83,1367.33 1294.5,1367C 1295.46,1365.58 1296.29,1364.08 1297,1362.5C 1297.23,1363.74 1297.73,1364.74 1298.5,1365.5C 1298.29,1363.86 1298.62,1362.36 1299.5,1361C 1297.01,1359.42 1297.17,1357.92 1300,1356.5C 1300.33,1356.83 1300.67,1357.17 1301,1357.5C 1303,1356.17 1304.67,1354.5 1306,1352.5C 1306.61,1354.15 1307.11,1355.82 1307.5,1357.5 Z M 1298.5,1365.5 C 1299.65,1364.1 1300.65,1364.27 1301.5,1366C 1300,1366.83 1298.83,1368 1298,1369.5C 1297.81,1368.18 1297.97,1366.85 1298.5,1365.5 Z M 1302.5,1365.5 C 1303.47,1365.99 1304.47,1366.49 1305.5,1367C 1303.84,1367.73 1302.84,1367.23 1302.5,1365.5 Z"/></g>
<g><path style="opacity:0.004" fill="#000000" d="M 1296.5,1353.5 C 1297.83,1354.17 1297.83,1354.17 1296.5,1353.5 Z"/></g>
<g><path style="opacity:0.004" fill="#000000" d="M 1302.5,1353.5 C 1303.83,1354.17 1303.83,1354.17 1302.5,1353.5 Z"/></g>
<g><path style="opacity:0.004" fill="#000000" d="M 1293.5,1354.5 C 1294.83,1355.17 1294.83,1355.17 1293.5,1354.5 Z"/></g>
<g><path style="opacity:0.004" fill="#000000" d="M 1111.5,1355.5 C 1112.83,1356.17 1112.83,1356.17 1111.5,1355.5 Z"/></g>
<g><path style="opacity:0.004" fill="#000000" d="M 1114.5,1355.5 C 1115.83,1356.17 1115.83,1356.17 1114.5,1355.5 Z"/></g>
<g><path style="opacity:0.004" fill="#000000" d="M 1126.5,1363.5 C 1124.82,1363.29 1123.82,1363.95 1123.5,1365.5C 1121.23,1364.18 1118.9,1362.85 1116.5,1361.5C 1115.89,1361.62 1115.56,1361.96 1115.5,1362.5C 1114.29,1361.81 1112.96,1361.64 1111.5,1362C 1112.19,1360.93 1112.69,1359.77 1113,1358.5C 1113.33,1358.83 1113.67,1359.17 1114,1359.5C 1116.79,1355.5 1118.45,1356.17 1119,1361.5C 1119.33,1361.17 1119.67,1360.83 1120,1360.5C 1122.05,1361.93 1124.21,1362.93 1126.5,1363.5 Z"/></g>
<g><path style="opacity:0.004" fill="#000000" d="M 1293.5,1357.5 C 1294.83,1358.17 1294.83,1358.17 1293.5,1357.5 Z"/></g>
<g><path style="opacity:0.004" fill="#000000" d="M 1307.5,1357.5 C 1308.83,1358.17 1308.83,1358.17 1307.5,1357.5 Z"/></g>
<g><path style="opacity:1" fill="#201a14" d="M 1281.5,1323.5 C 1281.5,1325.17 1281.5,1326.83 1281.5,1328.5C 1280.79,1327.26 1279.79,1326.76 1278.5,1327C 1276.64,1329.36 1274.97,1331.86 1273.5,1334.5C 1274.99,1335.24 1276.49,1335.91 1278,1336.5C 1278.31,1335.23 1278.81,1334.07 1279.5,1333C 1279.17,1332.67 1278.83,1332.33 1278.5,1332C 1279.05,1329.84 1280.05,1329.34 1281.5,1330.5C 1278.88,1345.74 1272.55,1359.07 1262.5,1370.5C 1262.84,1362.16 1260.84,1361.5 1256.5,1368.5C 1257.77,1369.56 1258.94,1370.56 1260,1371.5C 1260.38,1370.94 1260.88,1370.61 1261.5,1370.5C 1260.46,1373.06 1258.79,1375.22 1256.5,1377C 1250.1,1382.2 1243.1,1386.37 1235.5,1389.5C 1234.7,1387.96 1234.37,1386.29 1234.5,1384.5C 1236.53,1384.66 1238.53,1384.5 1240.5,1384C 1239.55,1383.52 1238.55,1383.35 1237.5,1383.5C 1237.66,1381.8 1237.49,1380.13 1237,1378.5C 1236.38,1380.12 1235.38,1381.45 1234,1382.5C 1233.57,1379.68 1234.07,1377.01 1235.5,1374.5C 1237.15,1375.81 1238.81,1377.14 1240.5,1378.5C 1240.41,1377.03 1241.41,1375.86 1243.5,1375C 1242.81,1370.63 1243.97,1370.46 1247,1374.5C 1247.62,1373.55 1247.45,1372.72 1246.5,1372C 1248.33,1371.73 1249.83,1370.89 1251,1369.5C 1251.5,1370 1252,1370.5 1252.5,1371C 1250.83,1372.67 1249.17,1374.33 1247.5,1376C 1250.27,1375.28 1252.6,1373.61 1254.5,1371C 1252,1368.17 1249.5,1365.33 1247,1362.5C 1244.97,1364.35 1244.97,1365.02 1247,1364.5C 1247.68,1366.53 1248.01,1368.53 1248,1370.5C 1246.68,1367.97 1245.52,1367.97 1244.5,1370.5C 1243.83,1369.5 1243.17,1368.5 1242.5,1367.5C 1241.29,1369.94 1239.62,1371.94 1237.5,1373.5C 1241.47,1364.9 1245.97,1356.57 1251,1348.5C 1251.77,1347.4 1252.6,1347.4 1253.5,1348.5C 1253.36,1350.12 1254.03,1351.29 1255.5,1352C 1257.89,1352.29 1260.22,1352.79 1262.5,1353.5C 1263.3,1353.04 1263.63,1352.38 1263.5,1351.5C 1265.48,1350.86 1266.81,1349.52 1267.5,1347.5C 1262.44,1345.26 1262.44,1342.93 1267.5,1340.5C 1267.43,1340.06 1267.6,1339.73 1268,1339.5C 1270.06,1340.58 1271.39,1342.25 1272,1344.5C 1272.66,1340.84 1274.82,1339.01 1278.5,1339C 1275.67,1338.3 1273.01,1337.3 1270.5,1336C 1273.68,1333.06 1273.68,1330.56 1270.5,1328.5C 1268.79,1329.61 1268.12,1328.94 1268.5,1326.5C 1269.82,1326.33 1270.99,1326.66 1272,1327.5C 1273.26,1324.94 1275.09,1324.28 1277.5,1325.5C 1278.37,1323.2 1279.7,1322.54 1281.5,1323.5 Z"/></g>
<g><path style="opacity:0.004" fill="#000000" d="M 1290.5,1360.5 C 1290.9,1359.47 1291.56,1359.31 1292.5,1360C 1291.91,1360.46 1291.24,1360.63 1290.5,1360.5 Z"/></g>
<g><path style="opacity:0.004" fill="#000000" d="M 1304.5,1361.5 C 1305.83,1362.17 1305.83,1362.17 1304.5,1361.5 Z"/></g>
<g><path style="opacity:0.004" fill="#000000" d="M 1115.5,1362.5 C 1116.83,1363.17 1116.83,1363.17 1115.5,1362.5 Z"/></g>
<g><path style="opacity:0.004" fill="#000000" d="M 1115.5,1363.5 C 1115.5,1363.83 1115.5,1364.17 1115.5,1364.5C 1114.83,1364.02 1114.83,1363.69 1115.5,1363.5 Z"/></g>
<g><path style="opacity:0.004" fill="#000000" d="M 1126.5,1363.5 C 1127.71,1364.23 1129.04,1364.57 1130.5,1364.5C 1130.67,1365.49 1130.34,1366.16 1129.5,1366.5C 1128.46,1365.21 1127.29,1365.21 1126,1366.5C 1125.53,1365.42 1125.7,1364.42 1126.5,1363.5 Z"/></g>
<g><path style="opacity:0.004" fill="#000000" d="M 1131.5,1364.5 C 1130.83,1363.17 1130.83,1363.17 1131.5,1364.5 Z"/></g>
<g><path style="opacity:0.004" fill="#000000" d="M 1114.5,1366.5 C 1114.44,1367.04 1114.11,1367.38 1113.5,1367.5C 1112.42,1366.64 1112.25,1365.64 1113,1364.5C 1113.28,1365.42 1113.78,1366.08 1114.5,1366.5 Z"/></g>
<g><path style="opacity:0.004" fill="#000000" d="M 1115.5,1364.5 C 1116.76,1365.62 1116.42,1366.29 1114.5,1366.5C 1114.83,1365.83 1115.17,1365.17 1115.5,1364.5 Z"/></g>
<g><path style="opacity:1" fill="#2c2217" d="M 1276.5,1289.5 C 1277.12,1289.92 1277.46,1290.58 1277.5,1291.5C 1276.38,1293.57 1275.38,1295.74 1274.5,1298C 1275.86,1301.44 1276.53,1301.28 1276.5,1297.5C 1277.83,1297.5 1279.17,1297.5 1280.5,1297.5C 1282.01,1305.53 1282.34,1313.53 1281.5,1321.5C 1280.73,1320.34 1279.73,1319.34 1278.5,1318.5C 1277.28,1319.71 1276.11,1319.71 1275,1318.5C 1274.17,1319.5 1273.33,1320.5 1272.5,1321.5C 1271.55,1320.67 1270.55,1320.51 1269.5,1321C 1268.55,1322.96 1267.21,1324.62 1265.5,1326C 1267.99,1326.63 1267.99,1327.46 1265.5,1328.5C 1267.13,1330.3 1269.13,1331.46 1271.5,1332C 1270.79,1333.25 1269.96,1334.42 1269,1335.5C 1268.16,1332.54 1267.16,1332.2 1266,1334.5C 1264.68,1331.97 1263.52,1331.97 1262.5,1334.5C 1263.69,1334.31 1265.02,1334.81 1266.5,1336C 1265.38,1336.25 1264.38,1336.75 1263.5,1337.5C 1264.85,1338.52 1266.19,1339.52 1267.5,1340.5C 1262.44,1342.93 1262.44,1345.26 1267.5,1347.5C 1266.81,1349.52 1265.48,1350.86 1263.5,1351.5C 1262.2,1347.04 1259.54,1344.21 1255.5,1343C 1257.45,1345.17 1258.12,1347.5 1257.5,1350C 1256.55,1350.62 1255.72,1350.45 1255,1349.5C 1254.67,1348.17 1254.33,1346.83 1254,1345.5C 1253.52,1346.45 1253.35,1347.45 1253.5,1348.5C 1252.6,1347.4 1251.77,1347.4 1251,1348.5C 1245.97,1356.57 1241.47,1364.9 1237.5,1373.5C 1236.08,1371.97 1235.41,1372.3 1235.5,1374.5C 1234.07,1377.01 1233.57,1379.68 1234,1382.5C 1235.38,1381.45 1236.38,1380.12 1237,1378.5C 1237.49,1380.13 1237.66,1381.8 1237.5,1383.5C 1238.55,1383.35 1239.55,1383.52 1240.5,1384C 1238.53,1384.5 1236.53,1384.66 1234.5,1384.5C 1234.37,1386.29 1234.7,1387.96 1235.5,1389.5C 1232.38,1391.12 1229.04,1392.12 1225.5,1392.5C 1226.8,1391.4 1227.3,1390.07 1227,1388.5C 1226.16,1390.01 1225,1390.51 1223.5,1390C 1219.64,1387.64 1216.64,1384.48 1214.5,1380.5C 1215.01,1378.77 1215.68,1377.11 1216.5,1375.5C 1217.07,1377.08 1217.41,1378.58 1217.5,1380C 1218.83,1380.67 1220.17,1380.67 1221.5,1380C 1219.73,1377.63 1218.06,1375.13 1216.5,1372.5C 1216.72,1371.06 1217.22,1369.73 1218,1368.5C 1219.45,1370.4 1221.11,1372.07 1223,1373.5C 1223.2,1368.82 1224.2,1368.49 1226,1372.5C 1227.17,1371.33 1228.33,1370.17 1229.5,1369C 1228.45,1368.51 1227.45,1368.67 1226.5,1369.5C 1227.2,1365.84 1225.53,1363.84 1221.5,1363.5C 1226.58,1350.02 1233.42,1337.02 1242,1324.5C 1242.41,1324.04 1242.91,1323.71 1243.5,1323.5C 1246.57,1325.9 1249.9,1327.9 1253.5,1329.5C 1254.11,1329.38 1254.44,1329.04 1254.5,1328.5C 1256.55,1330.04 1258.22,1329.7 1259.5,1327.5C 1258.74,1327.09 1257.74,1326.92 1256.5,1327C 1258.27,1324.9 1259.6,1322.57 1260.5,1320C 1259.67,1319.09 1258.67,1318.42 1257.5,1318C 1260.73,1316.73 1263.06,1314.56 1264.5,1311.5C 1266.55,1314.21 1268.22,1314.05 1269.5,1311C 1267.75,1310.53 1266.09,1309.86 1264.5,1309C 1268.13,1302.22 1272.13,1295.72 1276.5,1289.5 Z"/></g>
<g><path style="opacity:1" fill="#7f592d" d="M 1243.5,1327.5 C 1244.98,1327.24 1246.31,1327.57 1247.5,1328.5C 1246.96,1330.54 1246.29,1332.54 1245.5,1334.5C 1244.28,1333.29 1243.11,1333.29 1242,1334.5C 1241.83,1334 1241.67,1333.5 1241.5,1333C 1242.32,1331.2 1242.99,1329.37 1243.5,1327.5 Z"/></g>
<g><path style="opacity:0.004" fill="#000000" d="M 1123.5,1365.5 C 1124.83,1366.17 1124.83,1366.17 1123.5,1365.5 Z"/></g>
<g><path style="opacity:0.004" fill="#000000" d="M 1129.5,1366.5 C 1129.5,1366.83 1129.5,1367.17 1129.5,1367.5C 1128.83,1367.02 1128.83,1366.69 1129.5,1366.5 Z"/></g>
<g><path style="opacity:1" fill="#634626" d="M 1262.5,1370.5 C 1262.17,1370.5 1261.83,1370.5 1261.5,1370.5C 1260.88,1370.61 1260.38,1370.94 1260,1371.5C 1258.94,1370.56 1257.77,1369.56 1256.5,1368.5C 1260.84,1361.5 1262.84,1362.16 1262.5,1370.5 Z"/></g>
<g><path style="opacity:0.012" fill="#7c70a4" d="M 1282.5,1367.5 C 1282.96,1368.77 1282.29,1369.77 1280.5,1370.5C 1279.88,1370.39 1279.38,1370.06 1279,1369.5C 1278.75,1370.62 1278.25,1371.62 1277.5,1372.5C 1274.73,1371.47 1274.07,1369.8 1275.5,1367.5C 1277.98,1366.38 1280.31,1366.38 1282.5,1367.5 Z"/></g>
<g><path style="opacity:0.004" fill="#000000" d="M 1129.5,1367.5 C 1130.83,1368.17 1130.83,1368.17 1129.5,1367.5 Z"/></g>
<g><path style="opacity:0.004" fill="#000000" d="M 1132.5,1367.5 C 1131.83,1368.17 1131.83,1368.17 1132.5,1367.5 Z"/></g>
<g><path style="opacity:0.004" fill="#000000" d="M 1284.5,1368.5 C 1285.83,1369.17 1285.83,1369.17 1284.5,1368.5 Z"/></g>
<g><path style="opacity:0.004" fill="#000000" d="M 1307.5,1368.5 C 1308.83,1369.17 1308.83,1369.17 1307.5,1368.5 Z"/></g>
<g><path style="opacity:0.004" fill="#000000" d="M 1304.5,1369.5 C 1305.83,1370.17 1305.83,1370.17 1304.5,1369.5 Z"/></g>
<g><path style="opacity:1" fill="#2e2319" d="M 1244.5,1242.5 C 1246.21,1244.85 1248.55,1245.85 1251.5,1245.5C 1251.39,1246.12 1251.06,1246.62 1250.5,1247C 1255.12,1251.11 1259.12,1255.61 1262.5,1260.5C 1261.07,1260.58 1259.74,1260.25 1258.5,1259.5C 1257.72,1260.73 1257.22,1262.06 1257,1263.5C 1256.31,1262.64 1255.48,1261.98 1254.5,1261.5C 1253.05,1262.94 1252.05,1264.61 1251.5,1266.5C 1249.71,1267.88 1247.71,1268.88 1245.5,1269.5C 1244.83,1269.83 1244.17,1270.17 1243.5,1270.5C 1244.85,1266.97 1246.85,1263.8 1249.5,1261C 1247.87,1260.51 1246.2,1260.34 1244.5,1260.5C 1240.64,1267.56 1237.31,1274.89 1234.5,1282.5C 1230.55,1285.64 1229.55,1289.3 1231.5,1293.5C 1231.44,1294.04 1231.11,1294.38 1230.5,1294.5C 1229.72,1293.27 1229.22,1291.94 1229,1290.5C 1228.35,1291.7 1227.85,1291.7 1227.5,1290.5C 1228.43,1289.23 1228.59,1287.9 1228,1286.5C 1226.61,1290.27 1225.61,1290.27 1225,1286.5C 1223.45,1289.31 1222.62,1292.31 1222.5,1295.5C 1221.18,1295.67 1220.01,1295.34 1219,1294.5C 1218.52,1295.45 1218.35,1296.45 1218.5,1297.5C 1212.92,1301.54 1213.25,1302.2 1219.5,1299.5C 1221,1299.45 1222,1300.12 1222.5,1301.5C 1219.97,1303.68 1217.31,1305.68 1214.5,1307.5C 1215.89,1311.09 1218.55,1312.43 1222.5,1311.5C 1223.54,1312.79 1224.71,1312.79 1226,1311.5C 1226.33,1308.83 1226.67,1306.17 1227,1303.5C 1228.02,1307.44 1228.52,1311.44 1228.5,1315.5C 1224.77,1313.75 1220.77,1313.08 1216.5,1313.5C 1216.43,1316.48 1217.43,1318.15 1219.5,1318.5C 1219.06,1319.74 1218.39,1320.74 1217.5,1321.5C 1216.96,1321.56 1216.62,1321.89 1216.5,1322.5C 1219.18,1323.18 1220.85,1324.85 1221.5,1327.5C 1221.25,1329.17 1220.58,1330.67 1219.5,1332C 1218.67,1332.69 1218,1332.52 1217.5,1331.5C 1218.17,1330.83 1218.83,1330.17 1219.5,1329.5C 1219.17,1329.17 1218.83,1328.83 1218.5,1328.5C 1215.02,1330.68 1215.02,1332.52 1218.5,1334C 1218.11,1335.81 1218.11,1337.47 1218.5,1339C 1215.48,1341.61 1214.81,1344.78 1216.5,1348.5C 1217.11,1348.38 1217.44,1348.04 1217.5,1347.5C 1218.5,1347.5 1219.5,1347.5 1220.5,1347.5C 1220.37,1349.55 1221.03,1351.22 1222.5,1352.5C 1221.13,1354.27 1219.63,1355.94 1218,1357.5C 1216.9,1354.96 1215.73,1354.96 1214.5,1357.5C 1216.17,1358.67 1217.83,1359.83 1219.5,1361C 1216.19,1366.7 1214.03,1372.87 1213,1379.5C 1212.16,1378 1211.33,1377.67 1210.5,1378.5C 1209.66,1378.16 1209.33,1377.49 1209.5,1376.5C 1208.18,1371.9 1207.18,1366.9 1206.5,1361.5C 1206.5,1357.6 1207.5,1354.1 1209.5,1351C 1208.98,1350.44 1208.64,1349.77 1208.5,1349C 1210.98,1341.9 1212.82,1334.74 1214,1327.5C 1213.1,1330.29 1211.94,1332.96 1210.5,1335.5C 1209.69,1335.19 1209.03,1334.69 1208.5,1334C 1209.63,1331.26 1211.13,1328.76 1213,1326.5C 1213.49,1325.21 1213.66,1323.87 1213.5,1322.5C 1212.18,1322.33 1211.01,1322.66 1210,1323.5C 1209.01,1322.06 1207.68,1321.06 1206,1320.5C 1203.1,1322.99 1200.93,1322.32 1199.5,1318.5C 1202.6,1318.15 1205.44,1318.82 1208,1320.5C 1208.62,1318.88 1209.62,1317.55 1211,1316.5C 1211.75,1315.36 1211.58,1314.36 1210.5,1313.5C 1207.96,1313.31 1205.3,1313.64 1202.5,1314.5C 1202.33,1313.51 1202.66,1312.84 1203.5,1312.5C 1204.29,1312.23 1204.63,1311.07 1204.5,1309C 1204.51,1306.7 1204.01,1304.53 1203,1302.5C 1199.59,1300.78 1197.26,1301.78 1196,1305.5C 1195.79,1303.94 1195.29,1302.61 1194.5,1301.5C 1194.3,1306.15 1193.96,1309.48 1193.5,1311.5C 1192.21,1311.26 1191.21,1311.6 1190.5,1312.5C 1189.66,1312.16 1189.33,1311.49 1189.5,1310.5C 1189.33,1305.96 1190,1305.63 1191.5,1309.5C 1192.47,1307.26 1192.81,1304.92 1192.5,1302.5C 1191.5,1302.5 1190.5,1302.5 1189.5,1302.5C 1189.19,1299.29 1189.52,1296.29 1190.5,1293.5C 1190.34,1295.86 1190.5,1298.19 1191,1300.5C 1191.49,1290.08 1193.32,1279.92 1196.5,1270C 1197.1,1268.7 1198.1,1267.87 1199.5,1267.5C 1200.84,1268.87 1202.17,1270.2 1203.5,1271.5C 1203.63,1272.24 1203.46,1272.91 1203,1273.5C 1201.41,1272.27 1200.08,1272.61 1199,1274.5C 1196.52,1280.56 1194.35,1286.39 1192.5,1292C 1193.01,1293.83 1193.84,1293.99 1195,1292.5C 1197.6,1286.25 1200.6,1280.25 1204,1274.5C 1206.15,1277.99 1208.32,1281.49 1210.5,1285C 1210.14,1286.22 1209.64,1287.39 1209,1288.5C 1208.44,1286.27 1207.44,1284.27 1206,1282.5C 1203.62,1286.29 1201.62,1290.29 1200,1294.5C 1198.78,1299.48 1200.95,1301.14 1206.5,1299.5C 1206.57,1297.69 1207.41,1296.36 1209,1295.5C 1210.23,1296.62 1211.4,1296.62 1212.5,1295.5C 1213.19,1296.03 1213.69,1296.69 1214,1297.5C 1215.79,1295.54 1215.29,1294.04 1212.5,1293C 1207.26,1292.84 1207.43,1291.67 1213,1289.5C 1216.07,1290.4 1216.57,1291.57 1214.5,1293C 1215.85,1293.77 1216.68,1294.94 1217,1296.5C 1220.17,1289.46 1223.5,1282.13 1227,1274.5C 1231.67,1267.17 1236.33,1259.83 1241,1252.5C 1239.65,1250.67 1239.15,1248.67 1239.5,1246.5C 1233.59,1257.99 1226.92,1268.99 1219.5,1279.5C 1218.31,1278.15 1216.98,1276.98 1215.5,1276C 1218.51,1272.17 1220.84,1268 1222.5,1263.5C 1223.39,1262.41 1224.39,1262.41 1225.5,1263.5C 1225.83,1263 1226.17,1262.5 1226.5,1262C 1225.59,1260.21 1225.42,1258.38 1226,1256.5C 1229.51,1251.46 1233.01,1246.46 1236.5,1241.5C 1237.69,1240.95 1238.86,1240.62 1240,1240.5C 1240.92,1241.76 1241.76,1243.09 1242.5,1244.5C 1243.52,1244.14 1244.19,1243.48 1244.5,1242.5 Z"/></g>
<g><path style="opacity:1" fill="#beb3a6" d="M 1201.5,1314.5 C 1200.5,1312.5 1199.5,1310.5 1198.5,1308.5C 1198.71,1307.08 1199.21,1305.74 1200,1304.5C 1201.41,1307.62 1201.91,1310.95 1201.5,1314.5 Z"/></g>
<g><path style="opacity:1" fill="#d0cecd" d="M 1206.5,1299.5 C 1209.45,1300.36 1211.29,1302.36 1212,1305.5C 1212.81,1307.9 1212.65,1310.24 1211.5,1312.5C 1210.71,1309.09 1209.71,1305.76 1208.5,1302.5C 1207,1302.17 1205.66,1302.17 1204.5,1302.5C 1205.19,1301.48 1205.86,1300.48 1206.5,1299.5 Z"/></g>
<g><path style="opacity:1" fill="#373736" d="M 1218.5,1305.5 C 1219.83,1305.5 1221.17,1305.5 1222.5,1305.5C 1222.62,1308.91 1220.95,1310.24 1217.5,1309.5C 1217.43,1308.04 1217.77,1306.71 1218.5,1305.5 Z"/></g>
<g><path style="opacity:1" fill="#e5e4e4" d="M 1194.5,1301.5 C 1195.29,1302.61 1195.79,1303.94 1196,1305.5C 1197.26,1301.78 1199.59,1300.78 1203,1302.5C 1204.01,1304.53 1204.51,1306.7 1204.5,1309C 1204.63,1311.07 1204.29,1312.23 1203.5,1312.5C 1203.81,1308.61 1202.65,1305.27 1200,1302.5C 1198.62,1303.55 1197.62,1304.88 1197,1306.5C 1196.95,1309.28 1196.78,1311.94 1196.5,1314.5C 1195.27,1310.25 1194.61,1305.92 1194.5,1301.5 Z"/></g>
<g><path style="opacity:1" fill="#654827" d="M 1235.5,1374.5 C 1235.41,1372.3 1236.08,1371.97 1237.5,1373.5C 1239.62,1371.94 1241.29,1369.94 1242.5,1367.5C 1243.17,1368.5 1243.83,1369.5 1244.5,1370.5C 1245.52,1367.97 1246.68,1367.97 1248,1370.5C 1248.01,1368.53 1247.68,1366.53 1247,1364.5C 1244.97,1365.02 1244.97,1364.35 1247,1362.5C 1249.5,1365.33 1252,1368.17 1254.5,1371C 1252.6,1373.61 1250.27,1375.28 1247.5,1376C 1249.17,1374.33 1250.83,1372.67 1252.5,1371C 1252,1370.5 1251.5,1370 1251,1369.5C 1249.83,1370.89 1248.33,1371.73 1246.5,1372C 1247.45,1372.72 1247.62,1373.55 1247,1374.5C 1243.97,1370.46 1242.81,1370.63 1243.5,1375C 1241.41,1375.86 1240.41,1377.03 1240.5,1378.5C 1238.81,1377.14 1237.15,1375.81 1235.5,1374.5 Z"/></g>
<g><path style="opacity:0.004" fill="#000000" d="M 1290.5,1374.5 C 1289.83,1373.17 1289.83,1373.17 1290.5,1374.5 Z"/></g>
<g><path style="opacity:0.004" fill="#000000" d="M 1290.5,1374.5 C 1291.53,1374.9 1291.69,1375.56 1291,1376.5C 1290.54,1375.91 1290.37,1375.24 1290.5,1374.5 Z"/></g>
<g><path style="opacity:0.004" fill="#000000" d="M 1299.5,1375.5 C 1299.83,1375.5 1300.17,1375.5 1300.5,1375.5C 1300.31,1376.17 1299.98,1376.17 1299.5,1375.5 Z"/></g>
<g><path style="opacity:0.004" fill="#000000" d="M 1306.5,1375.5 C 1307.83,1376.17 1307.83,1376.17 1306.5,1375.5 Z"/></g>
<g><path style="opacity:0.004" fill="#000000" d="M 1322.5,1376.5 C 1323.83,1377.17 1323.83,1377.17 1322.5,1376.5 Z"/></g>
<g><path style="opacity:0.004" fill="#000000" d="M 1302.5,1378.5 C 1301.83,1377.17 1301.83,1377.17 1302.5,1378.5 Z"/></g>
<g><path style="opacity:0.004" fill="#000000" d="M 1276.5,1378.5 C 1277.83,1379.17 1277.83,1379.17 1276.5,1378.5 Z"/></g>
<g><path style="opacity:0.004" fill="#000000" d="M 1291.5,1380.5 C 1289.66,1380.36 1289.33,1379.69 1290.5,1378.5C 1291.3,1378.96 1291.63,1379.62 1291.5,1380.5 Z"/></g>
<g><path style="opacity:0.004" fill="#000000" d="M 1299.5,1378.5 C 1300.83,1379.17 1300.83,1379.17 1299.5,1378.5 Z"/></g>
<g><path style="opacity:0.004" fill="#000000" d="M 1302.5,1378.5 C 1303.83,1379.17 1303.83,1379.17 1302.5,1378.5 Z"/></g>
<g><path style="opacity:0.004" fill="#000000" d="M 1310.5,1379.5 C 1310.9,1378.47 1311.56,1378.31 1312.5,1379C 1311.91,1379.46 1311.24,1379.63 1310.5,1379.5 Z"/></g>
<g><path style="opacity:0.004" fill="#000000" d="M 1150.5,1379.5 C 1149.83,1380.17 1149.83,1380.17 1150.5,1379.5 Z"/></g>
<g><path style="opacity:0.004" fill="#000000" d="M 1285.5,1379.5 C 1288.17,1379.68 1288.84,1380.85 1287.5,1383C 1286.06,1383.78 1284.72,1383.61 1283.5,1382.5C 1284.26,1382.09 1285.26,1381.92 1286.5,1382C 1285.75,1381.33 1285.41,1380.5 1285.5,1379.5 Z"/></g>
<g><path style="opacity:0.004" fill="#000000" d="M 1295.5,1379.5 C 1296.04,1379.56 1296.38,1379.89 1296.5,1380.5C 1295.74,1381.77 1295.08,1381.77 1294.5,1380.5C 1295.17,1380.5 1295.5,1380.17 1295.5,1379.5 Z"/></g>
<g><path style="opacity:0.004" fill="#000000" d="M 1306.5,1379.5 C 1307.83,1380.17 1307.83,1380.17 1306.5,1379.5 Z"/></g>
<g><path style="opacity:1" fill="#7d592e" d="M 1228.5,1376.5 C 1229.4,1377.6 1230.23,1377.6 1231,1376.5C 1229.87,1379.98 1227.53,1382.65 1224,1384.5C 1223.5,1384.17 1223,1383.83 1222.5,1383.5C 1224.42,1381.93 1225.42,1379.93 1225.5,1377.5C 1226.79,1377.74 1227.79,1377.4 1228.5,1376.5 Z"/></g>
<g><path style="opacity:0.004" fill="#000000" d="M 1280.5,1381.5 C 1281.83,1382.17 1281.83,1382.17 1280.5,1381.5 Z"/></g>
<g><path style="opacity:0.004" fill="#000000" d="M 1136.5,1388.5 C 1137.83,1389.17 1137.83,1389.17 1136.5,1388.5 Z"/></g>
<g><path style="opacity:0.004" fill="#000000" d="M 1139.5,1388.5 C 1143.05,1391.06 1146.38,1393.23 1149.5,1395C 1148.32,1397.7 1146.65,1397.7 1144.5,1395C 1143.21,1394.51 1141.87,1394.34 1140.5,1394.5C 1140.17,1392.5 1139.83,1390.5 1139.5,1388.5 Z"/></g>
<g><path style="opacity:0.004" fill="#000000" d="M 1176.5,1394.5 C 1176.83,1394.5 1177.17,1394.5 1177.5,1394.5C 1177.31,1395.17 1176.98,1395.17 1176.5,1394.5 Z"/></g>
<g><path style="opacity:0.004" fill="#000000" d="M 1150.5,1395.5 C 1151.83,1396.17 1151.83,1396.17 1150.5,1395.5 Z"/></g>
<g><path style="opacity:0.004" fill="#000000" d="M 1117.5,1397.5 C 1118.83,1398.17 1118.83,1398.17 1117.5,1397.5 Z"/></g>
<g><path style="opacity:0.004" fill="#000000" d="M 1149.5,1397.5 C 1150.83,1398.17 1150.83,1398.17 1149.5,1397.5 Z"/></g>
<g><path style="opacity:0.005" fill="#020202" d="M 1161.5,1403.5 C 1161.42,1404.75 1160.76,1405.58 1159.5,1406C 1156.78,1406.27 1154.11,1406.77 1151.5,1407.5C 1148.71,1403.69 1149.55,1400.69 1154,1398.5C 1156.29,1400.52 1158.79,1402.19 1161.5,1403.5 Z"/></g>
<g><path style="opacity:0.004" fill="#000000" d="M 1118.5,1400.5 C 1117.83,1399.17 1117.83,1399.17 1118.5,1400.5 Z"/></g>
<g><path style="opacity:0.004" fill="#000000" d="M 1118.5,1400.5 C 1119.83,1401.17 1119.83,1401.17 1118.5,1400.5 Z"/></g>
<g><path style="opacity:0.004" fill="#000000" d="M 1123.5,1402.5 C 1124.83,1403.17 1124.83,1403.17 1123.5,1402.5 Z"/></g>
<g><path style="opacity:0.004" fill="#000000" d="M 1161.5,1403.5 C 1161.9,1402.47 1162.56,1402.31 1163.5,1403C 1162.91,1403.46 1162.24,1403.63 1161.5,1403.5 Z"/></g>
<g><path style="opacity:0.004" fill="#000000" d="M 1119.5,1404.5 C 1120.83,1405.17 1120.83,1405.17 1119.5,1404.5 Z"/></g>
<g><path style="opacity:0.004" fill="#000000" d="M 1162.5,1404.5 C 1163.83,1405.17 1163.83,1405.17 1162.5,1404.5 Z"/></g>
<g><path style="opacity:0.004" fill="#000000" d="M 1131.5,1407.5 C 1132.83,1408.17 1132.83,1408.17 1131.5,1407.5 Z"/></g>
<g><path style="opacity:0.004" fill="#000000" d="M 1134.5,1407.5 C 1135.83,1408.17 1135.83,1408.17 1134.5,1407.5 Z"/></g>
<g><path style="opacity:0.004" fill="#000000" d="M 1128.5,1408.5 C 1129.83,1409.17 1129.83,1409.17 1128.5,1408.5 Z"/></g>
<g><path style="opacity:0.004" fill="#000000" d="M 1120.5,1409.5 C 1121.53,1409.9 1121.69,1410.56 1121,1411.5C 1120.54,1410.91 1120.37,1410.24 1120.5,1409.5 Z"/></g>
<g><path style="opacity:0.004" fill="#000000" d="M 1125.5,1409.5 C 1126.83,1410.17 1126.83,1410.17 1125.5,1409.5 Z"/></g>
</svg>
