<?xml version="1.0" encoding="UTF-8"?>
<!DOCTYPE svg PUBLIC "-//W3C//DTD SVG 1.1//EN" "http://www.w3.org/Graphics/SVG/1.1/DTD/svg11.dtd">
<svg xmlns="http://www.w3.org/2000/svg" version="1.1" width="2048px" height="2048px" style="shape-rendering:geometricPrecision; text-rendering:geometricPrecision; image-rendering:optimizeQuality; fill-rule:evenodd; clip-rule:evenodd" xmlns:xlink="http://www.w3.org/1999/xlink">
<g><path style="opacity:0.008" fill="#fe8000" d="M 1287.5,914.5 C 1288.83,915.167 1288.83,915.167 1287.5,914.5 Z"/></g>
<g><path style="opacity:0.004" fill="#fe0000" d="M 1291.5,917.5 C 1290.53,918.806 1289.2,919.473 1287.5,919.5C 1287.5,918.5 1287.5,917.5 1287.5,916.5C 1288.82,916.67 1289.99,916.337 1291,915.5C 1291.46,916.094 1291.63,916.761 1291.5,917.5 Z"/></g>
<g><path style="opacity:0.004" fill="#fe0000" d="M 1301.5,915.5 C 1302.83,916.167 1302.83,916.167 1301.5,915.5 Z"/></g>
<g><path style="opacity:0.004" fill="#d82b02" d="M 1291.5,917.5 C 1293.79,918.355 1296.12,918.522 1298.5,918C 1297.59,919.414 1297.59,920.914 1298.5,922.5C 1296.09,922.863 1294.59,921.863 1294,919.5C 1292.19,920.609 1291.35,919.942 1291.5,917.5 Z"/></g>
<g><path style="opacity:0.004" fill="#f00902" d="M 1253.5,919.5 C 1252.24,922.061 1250.24,923.728 1247.5,924.5C 1248.47,921.504 1250.47,919.837 1253.5,919.5 Z"/></g>
<g><path style="opacity:0.004" fill="#f52aff" d="M 1308.5,926.5 C 1306.46,926.146 1304.63,926.146 1303,926.5C 1302.31,925.563 1302.47,924.897 1303.5,924.5C 1305.55,923.674 1307.22,924.341 1308.5,926.5 Z"/></g>
<g><path style="opacity:0.004" fill="#f20802" d="M 1229.5,929.5 C 1230.17,929.5 1230.83,929.5 1231.5,929.5C 1233.37,930.285 1235.37,930.952 1237.5,931.5C 1233.02,935.137 1228.35,938.637 1223.5,942C 1221.58,943.46 1220.91,945.127 1221.5,947C 1220.31,947.698 1219.31,948.531 1218.5,949.5C 1216.88,948.509 1215.88,949.176 1215.5,951.5C 1209.11,951.259 1202.95,952.259 1197,954.5C 1196.1,954.257 1195.26,953.923 1194.5,953.5C 1194.5,952.833 1194.5,952.167 1194.5,951.5C 1195.34,951.158 1195.67,950.492 1195.5,949.5C 1197.48,948.895 1197.81,947.895 1196.5,946.5C 1197.83,946.5 1198.5,945.833 1198.5,944.5C 1200.48,943.516 1202.15,942.183 1203.5,940.5C 1201.97,939.075 1202.3,938.409 1204.5,938.5C 1206.14,938.19 1207.14,937.19 1207.5,935.5C 1209.73,932.004 1212.39,931.004 1215.5,932.5C 1216.5,929.826 1218.17,929.159 1220.5,930.5C 1221.7,930.154 1221.7,929.654 1220.5,929C 1222.43,928.217 1223.93,928.717 1225,930.5C 1225.33,929.167 1225.67,927.833 1226,926.5C 1226.72,928.056 1227.89,929.056 1229.5,929.5 Z"/></g>
<g><path style="opacity:0.004" fill="#d31d06" d="M 1308.5,926.5 C 1311.56,927.296 1314.56,928.296 1317.5,929.5C 1316.76,930.182 1316.09,930.849 1315.5,931.5C 1314.21,931.737 1313.21,931.404 1312.5,930.5C 1310.92,929.618 1309.25,928.785 1307.5,928C 1308.06,927.617 1308.39,927.117 1308.5,926.5 Z"/></g>
<g><path style="opacity:0.004" fill="#000000" d="M 1231.5,929.5 C 1230.83,929.5 1230.17,929.5 1229.5,929.5C 1230.55,927.067 1231.21,927.067 1231.5,929.5 Z"/></g>
<g><path style="opacity:0.027" fill="#de5600" d="M 1278.5,916.5 C 1279.88,917.234 1281.38,917.901 1283,918.5C 1284,917.167 1285,917.167 1286,918.5C 1286.46,917.906 1286.63,917.239 1286.5,916.5C 1286.5,915.833 1286.83,915.5 1287.5,915.5C 1287.5,915.833 1287.5,916.167 1287.5,916.5C 1287.5,917.5 1287.5,918.5 1287.5,919.5C 1289.2,919.473 1290.53,918.806 1291.5,917.5C 1291.35,919.942 1292.19,920.609 1294,919.5C 1294.59,921.863 1296.09,922.863 1298.5,922.5C 1299.24,920.618 1300.4,919.952 1302,920.5C 1303.19,921.563 1303.69,922.897 1303.5,924.5C 1302.47,924.897 1302.31,925.563 1303,926.5C 1304.63,926.146 1306.46,926.146 1308.5,926.5C 1308.39,927.117 1308.06,927.617 1307.5,928C 1309.25,928.785 1310.92,929.618 1312.5,930.5C 1313.21,931.404 1314.21,931.737 1315.5,931.5C 1316.6,932.397 1316.6,933.23 1315.5,934C 1318.4,934.133 1320.74,935.3 1322.5,937.5C 1322.83,937.5 1323.17,937.5 1323.5,937.5C 1323.63,938.376 1323.3,939.043 1322.5,939.5C 1320.87,938.703 1319.37,937.703 1318,936.5C 1317.05,936.905 1316.39,937.572 1316,938.5C 1313.27,937.638 1313.1,936.805 1315.5,936C 1314.06,932.919 1312.06,932.253 1309.5,934C 1313.5,935 1313.5,936 1309.5,937C 1310.84,939.687 1312.51,941.353 1314.5,942C 1311.76,944.599 1308.76,944.599 1305.5,942C 1305.74,938.726 1306.57,935.56 1308,932.5C 1305.7,932.925 1303.87,934.591 1302.5,937.5C 1302.17,936.833 1301.83,936.167 1301.5,935.5C 1299.38,935.377 1297.21,935.377 1295,935.5C 1289.58,934.485 1285.25,931.818 1282,927.5C 1281.14,929.087 1280.47,930.754 1280,932.5C 1279.09,931.672 1278.42,930.672 1278,929.5C 1275.66,930.127 1273.49,931.127 1271.5,932.5C 1270.16,931.098 1269.32,931.431 1269,933.5C 1268.32,931.521 1268.82,929.854 1270.5,928.5C 1269.76,927.713 1268.92,927.047 1268,926.5C 1267.81,928.577 1267.31,930.577 1266.5,932.5C 1265.75,931.624 1265.25,930.624 1265,929.5C 1263.99,930.337 1262.82,930.67 1261.5,930.5C 1261.65,931.552 1261.48,932.552 1261,933.5C 1259.81,932.022 1259.31,930.688 1259.5,929.5C 1258.81,930.025 1258.31,930.692 1258,931.5C 1257.67,931.167 1257.33,930.833 1257,930.5C 1255.53,934.818 1252.69,936.318 1248.5,935C 1249.85,936.635 1249.68,938.135 1248,939.5C 1248.8,936.145 1247.63,935.645 1244.5,938C 1245.45,938.718 1245.62,939.551 1245,940.5C 1243.74,937.18 1242.07,936.846 1240,939.5C 1238.84,939.002 1238.01,938.169 1237.5,937C 1238.87,935.127 1240.53,933.46 1242.5,932C 1241.5,931.333 1240.5,931.333 1239.5,932C 1237.34,934.897 1234.67,937.064 1231.5,938.5C 1233.02,940.156 1232.69,941.323 1230.5,942C 1232.06,942.318 1233.23,943.151 1234,944.5C 1234.97,942.74 1236.13,942.406 1237.5,943.5C 1235.21,945.2 1233.87,947.534 1233.5,950.5C 1228.49,950.728 1223.49,950.394 1218.5,949.5C 1219.31,948.531 1220.31,947.698 1221.5,947C 1220.91,945.127 1221.58,943.46 1223.5,942C 1228.35,938.637 1233.02,935.137 1237.5,931.5C 1238.17,931.5 1238.5,931.167 1238.5,930.5C 1239.17,930.5 1239.5,930.167 1239.5,929.5C 1239.5,929.167 1239.5,928.833 1239.5,928.5C 1240.79,927.71 1241.96,926.71 1243,925.5C 1244.75,926.553 1246.25,926.22 1247.5,924.5C 1250.24,923.728 1252.24,922.061 1253.5,919.5C 1254.74,919.19 1254.74,918.69 1253.5,918C 1256.34,916.166 1259.17,914.333 1262,912.5C 1264.92,914.403 1267.75,915.737 1270.5,916.5C 1271.88,912.622 1273.05,912.622 1274,916.5C 1275.62,915.199 1277.12,915.199 1278.5,916.5 Z"/></g>
<g><path style="opacity:0.004" fill="#ff0f00" d="M 1286.5,916.5 C 1286.63,917.239 1286.46,917.906 1286,918.5C 1285,917.167 1284,917.167 1283,918.5C 1281.38,917.901 1279.88,917.234 1278.5,916.5C 1281.05,916.063 1283.72,916.063 1286.5,916.5 Z"/></g>
<g><path style="opacity:0.004" fill="#421307" d="M 1239.5,928.5 C 1239.5,928.833 1239.5,929.167 1239.5,929.5C 1238.83,929.5 1238.5,929.833 1238.5,930.5C 1238.5,931.167 1238.17,931.5 1237.5,931.5C 1237.12,930.069 1236.12,929.236 1234.5,929C 1235.42,928.626 1236.25,928.126 1237,927.5C 1237.67,928.252 1238.5,928.586 1239.5,928.5 Z"/></g>
<g><path style="opacity:0.004" fill="#000000" d="M 1204.5,929.5 C 1205.83,930.167 1205.83,930.167 1204.5,929.5 Z"/></g>
<g><path style="opacity:0.004" fill="#f40f01" d="M 1315.5,931.5 C 1317.46,932.138 1319.29,932.138 1321,931.5C 1323.08,933.262 1323.58,935.262 1322.5,937.5C 1320.74,935.3 1318.4,934.133 1315.5,934C 1316.6,933.23 1316.6,932.397 1315.5,931.5 Z"/></g>
<g><path style="opacity:0.004" fill="#000000" d="M 1207.5,935.5 C 1207.14,937.19 1206.14,938.19 1204.5,938.5C 1204.5,936.5 1205.5,935.5 1207.5,935.5 Z"/></g>
<g><path style="opacity:0.004" fill="#fe0000" d="M 1328.5,939.5 C 1329.83,940.167 1329.83,940.167 1328.5,939.5 Z"/></g>
<g><path style="opacity:0.004" fill="#000000" d="M 1203.5,940.5 C 1202.15,942.183 1200.48,943.516 1198.5,944.5C 1199.26,942.071 1200.93,940.738 1203.5,940.5 Z"/></g>
<g><path style="opacity:0.004" fill="#fe0000" d="M 1329.5,941.5 C 1330.83,942.167 1330.83,942.167 1329.5,941.5 Z"/></g>
<g><path style="opacity:0.004" fill="#000000" d="M 1198.5,944.5 C 1198.5,945.833 1197.83,946.5 1196.5,946.5C 1196.83,945.5 1197.5,944.833 1198.5,944.5 Z"/></g>
<g><path style="opacity:0.004" fill="#000000" d="M 1196.5,946.5 C 1197.81,947.895 1197.48,948.895 1195.5,949.5C 1195.26,948.209 1195.6,947.209 1196.5,946.5 Z"/></g>
<g><path style="opacity:0.004" fill="#fe0000" d="M 1338.5,946.5 C 1339.83,947.167 1339.83,947.167 1338.5,946.5 Z"/></g>
<g><path style="opacity:0.004" fill="#000000" d="M 1195.5,949.5 C 1195.67,950.492 1195.34,951.158 1194.5,951.5C 1192.97,950.075 1193.3,949.409 1195.5,949.5 Z"/></g>
<g><path style="opacity:0.095" fill="#db5109" d="M 1323.5,937.5 C 1324.71,938.234 1326.04,938.567 1327.5,938.5C 1327.16,940.483 1327.82,941.817 1329.5,942.5C 1330.23,944.045 1331.56,944.878 1333.5,945C 1333.04,945.414 1332.71,945.914 1332.5,946.5C 1333.5,947.167 1334.5,947.833 1335.5,948.5C 1335.18,951.087 1336.52,952.92 1339.5,954C 1338.83,954.333 1338.17,954.667 1337.5,955C 1338.43,958.005 1340.43,960.672 1343.5,963C 1342.5,964 1341.5,965 1340.5,966C 1341.67,966.5 1342.5,967.333 1343,968.5C 1343.3,972.397 1344.47,975.897 1346.5,979C 1342.58,983.406 1342.58,987.739 1346.5,992C 1345.29,992.787 1344.29,993.454 1343.5,994C 1346.04,996.394 1345.7,998.561 1342.5,1000.5C 1343.46,1001.81 1343.29,1003.15 1342,1004.5C 1341.67,1004.17 1341.33,1003.83 1341,1003.5C 1337.61,1005.94 1336.11,1009.28 1336.5,1013.5C 1335.32,1013.28 1334.32,1013.61 1333.5,1014.5C 1333.62,1015.11 1333.96,1015.44 1334.5,1015.5C 1334.39,1016.12 1334.06,1016.62 1333.5,1017C 1334.83,1017.67 1336.17,1018.33 1337.5,1019C 1335.21,1020.69 1332.88,1021.86 1330.5,1022.5C 1329.83,1021.5 1329.17,1020.5 1328.5,1019.5C 1310.71,984.555 1282.71,962.388 1244.5,953C 1242.19,952.503 1239.86,952.337 1237.5,952.5C 1230.35,951.508 1223.02,951.175 1215.5,951.5C 1215.88,949.176 1216.88,948.509 1218.5,949.5C 1223.49,950.394 1228.49,950.728 1233.5,950.5C 1233.87,947.534 1235.21,945.2 1237.5,943.5C 1236.13,942.406 1234.97,942.74 1234,944.5C 1233.23,943.151 1232.06,942.318 1230.5,942C 1232.69,941.323 1233.02,940.156 1231.5,938.5C 1234.67,937.064 1237.34,934.897 1239.5,932C 1240.5,931.333 1241.5,931.333 1242.5,932C 1240.53,933.46 1238.87,935.127 1237.5,937C 1238.01,938.169 1238.84,939.002 1240,939.5C 1242.07,936.846 1243.74,937.18 1245,940.5C 1245.62,939.551 1245.45,938.718 1244.5,938C 1247.63,935.645 1248.8,936.145 1248,939.5C 1249.68,938.135 1249.85,936.635 1248.5,935C 1252.69,936.318 1255.53,934.818 1257,930.5C 1257.33,930.833 1257.67,931.167 1258,931.5C 1258.31,930.692 1258.81,930.025 1259.5,929.5C 1259.31,930.688 1259.81,932.022 1261,933.5C 1261.48,932.552 1261.65,931.552 1261.5,930.5C 1262.82,930.67 1263.99,930.337 1265,929.5C 1265.25,930.624 1265.75,931.624 1266.5,932.5C 1267.31,930.577 1267.81,928.577 1268,926.5C 1268.92,927.047 1269.76,927.713 1270.5,928.5C 1268.82,929.854 1268.32,931.521 1269,933.5C 1269.32,931.431 1270.16,931.098 1271.5,932.5C 1273.49,931.127 1275.66,930.127 1278,929.5C 1278.42,930.672 1279.09,931.672 1280,932.5C 1280.47,930.754 1281.14,929.087 1282,927.5C 1285.25,931.818 1289.58,934.485 1295,935.5C 1297.21,935.377 1299.38,935.377 1301.5,935.5C 1301.83,936.167 1302.17,936.833 1302.5,937.5C 1303.87,934.591 1305.7,932.925 1308,932.5C 1306.57,935.56 1305.74,938.726 1305.5,942C 1308.76,944.599 1311.76,944.599 1314.5,942C 1312.51,941.353 1310.84,939.687 1309.5,937C 1313.5,936 1313.5,935 1309.5,934C 1312.06,932.253 1314.06,932.919 1315.5,936C 1313.1,936.805 1313.27,937.638 1316,938.5C 1316.39,937.572 1317.05,936.905 1318,936.5C 1319.37,937.703 1320.87,938.703 1322.5,939.5C 1323.3,939.043 1323.63,938.376 1323.5,937.5 Z"/></g>
<g><path style="opacity:0.543" fill="#0d0400" d="M 1215.5,951.5 C 1223.02,951.175 1230.35,951.508 1237.5,952.5C 1237.88,953.931 1238.88,954.764 1240.5,955C 1236.51,955.499 1232.51,955.666 1228.5,955.5C 1219.56,954.922 1210.9,956.089 1202.5,959C 1212.5,958.242 1222.5,958.409 1232.5,959.5C 1232.83,959.5 1233.17,959.5 1233.5,959.5C 1233.5,960.5 1233.5,961.5 1233.5,962.5C 1231.83,962.5 1230.17,962.5 1228.5,962.5C 1219.16,962.334 1209.83,962.5 1200.5,963C 1198.94,963.21 1197.61,963.71 1196.5,964.5C 1156.38,977.643 1133.71,1005.31 1128.5,1047.5C 1126.51,1100.37 1148.84,1138.87 1195.5,1163C 1200.37,1164.29 1205.04,1165.79 1209.5,1167.5C 1229.58,1172.38 1249.25,1171.05 1268.5,1163.5C 1273.08,1162.21 1277.08,1159.87 1280.5,1156.5C 1280.83,1156.5 1281.17,1156.5 1281.5,1156.5C 1296.54,1147.06 1307.87,1134.39 1315.5,1118.5C 1316.5,1117.83 1317.5,1117.17 1318.5,1116.5C 1317.92,1120.36 1317.09,1124.03 1316,1127.5C 1330.99,1107.51 1337.32,1084.84 1335,1059.5C 1333.91,1050.64 1332.08,1041.97 1329.5,1033.5C 1328.05,1028.6 1326.05,1023.93 1323.5,1019.5C 1323.35,1018.45 1323.52,1017.45 1324,1016.5C 1324.91,1018.44 1326.41,1019.44 1328.5,1019.5C 1329.17,1020.5 1329.83,1021.5 1330.5,1022.5C 1330.56,1023.61 1330.89,1024.61 1331.5,1025.5C 1343.97,1057.27 1342.8,1088.6 1328,1119.5C 1312.33,1145.16 1290.17,1162.66 1261.5,1172C 1204.49,1182.1 1162.32,1161.6 1135,1110.5C 1119.71,1075.24 1119.71,1039.91 1135,1004.5C 1139.31,997.205 1143.97,990.205 1149,983.5C 1150.11,981.963 1151.61,981.297 1153.5,981.5C 1153.3,979.61 1153.96,978.11 1155.5,977C 1159.97,973.92 1164.31,970.587 1168.5,967C 1173.8,964.014 1179.13,961.014 1184.5,958C 1186.81,957.338 1189.15,956.838 1191.5,956.5C 1191.24,955.022 1191.57,953.689 1192.5,952.5C 1193.11,952.624 1193.44,952.957 1193.5,953.5C 1192.23,954.077 1192.23,954.743 1193.5,955.5C 1194.3,955.043 1194.63,954.376 1194.5,953.5C 1195.26,953.923 1196.1,954.257 1197,954.5C 1202.95,952.259 1209.11,951.259 1215.5,951.5 Z"/></g>
<g><path style="opacity:0.004" fill="#fe0000" d="M 1193.5,953.5 C 1193.83,953.5 1194.17,953.5 1194.5,953.5C 1194.63,954.376 1194.3,955.043 1193.5,955.5C 1192.23,954.743 1192.23,954.077 1193.5,953.5 Z"/></g>
<g><path style="opacity:0.496" fill="#5d2306" d="M 1228.5,955.5 C 1234.91,956.016 1241.24,957.016 1247.5,958.5C 1241.52,957.591 1235.52,957.425 1229.5,958C 1230.74,958.232 1231.74,958.732 1232.5,959.5C 1222.5,958.409 1212.5,958.242 1202.5,959C 1210.9,956.089 1219.56,954.922 1228.5,955.5 Z"/></g>
<g><path style="opacity:0.784" fill="#a64f09" d="M 1228.5,962.5 C 1228.5,962.833 1228.5,963.167 1228.5,963.5C 1225.17,963.5 1221.83,963.5 1218.5,963.5C 1211.14,963.365 1203.8,963.698 1196.5,964.5C 1197.61,963.71 1198.94,963.21 1200.5,963C 1209.83,962.5 1219.16,962.334 1228.5,962.5 Z"/></g>
<g><path style="opacity:0.957" fill="#542205" d="M 1233.5,959.5 C 1242.04,960.874 1250.38,963.208 1258.5,966.5C 1265.8,971.489 1273.47,975.989 1281.5,980C 1286.88,985.054 1286.55,986.221 1280.5,983.5C 1276.51,980.215 1272.18,977.382 1267.5,975C 1262.41,972.371 1257.24,969.871 1252,967.5C 1244.27,965.418 1236.43,964.085 1228.5,963.5C 1228.5,963.167 1228.5,962.833 1228.5,962.5C 1230.17,962.5 1231.83,962.5 1233.5,962.5C 1233.5,961.5 1233.5,960.5 1233.5,959.5 Z"/></g>
<g><path style="opacity:0.004" fill="#fe0000" d="M 1346.5,968.5 C 1347.83,969.167 1347.83,969.167 1346.5,968.5 Z"/></g>
<g><path style="opacity:0.008" fill="#fe8000" d="M 1344.5,969.5 C 1345.83,970.167 1345.83,970.167 1344.5,969.5 Z"/></g>
<g><path style="opacity:0.004" fill="#fe0000" d="M 1345.5,982.5 C 1346.53,982.897 1346.69,983.563 1346,984.5C 1345.54,983.906 1345.37,983.239 1345.5,982.5 Z"/></g>
<g><path style="opacity:0.85" fill="#792e07" d="M 1247.5,958.5 C 1281.78,967.792 1307.12,988.125 1323.5,1019.5C 1326.05,1023.93 1328.05,1028.6 1329.5,1033.5C 1329.32,1035.59 1329.65,1037.59 1330.5,1039.5C 1328.95,1040.45 1327.29,1040.79 1325.5,1040.5C 1325.65,1039.45 1325.48,1038.45 1325,1037.5C 1324.81,1039.71 1324.31,1041.71 1323.5,1043.5C 1321.58,1038.23 1319.74,1032.89 1318,1027.5C 1311.86,1013.39 1303.36,1000.89 1292.5,990C 1291.17,989 1289.83,988 1288.5,987C 1287.25,986.26 1286.25,986.427 1285.5,987.5C 1283.25,986.876 1281.58,985.543 1280.5,983.5C 1286.55,986.221 1286.88,985.054 1281.5,980C 1273.47,975.989 1265.8,971.489 1258.5,966.5C 1250.38,963.208 1242.04,960.874 1233.5,959.5C 1233.17,959.5 1232.83,959.5 1232.5,959.5C 1231.74,958.732 1230.74,958.232 1229.5,958C 1235.52,957.425 1241.52,957.591 1247.5,958.5 Z"/></g>
<g><path style="opacity:0.012" fill="#ff4c00" d="M 1346.5,985.5 C 1347.27,986.172 1347.93,987.005 1348.5,988C 1346.94,988.188 1346.27,987.355 1346.5,985.5 Z"/></g>
<g><path style="opacity:0.016" fill="#a33509" d="M 1347.5,995.5 C 1350.29,995.74 1350.79,996.74 1349,998.5C 1346.84,997.95 1346.34,996.95 1347.5,995.5 Z"/></g>
<g><path style="opacity:0.998" fill="#17100c" d="M 1205.5,997.5 C 1208.17,997.5 1210.83,997.5 1213.5,997.5C 1213.91,1003.5 1214.41,1009.5 1215,1015.5C 1215.92,1017.5 1217.09,1017.83 1218.5,1016.5C 1219.17,1016.5 1219.83,1016.5 1220.5,1016.5C 1220.7,1010.69 1220.87,1004.69 1221,998.5C 1222.39,997.446 1223.89,997.28 1225.5,998C 1224.94,998.383 1224.61,998.883 1224.5,999.5C 1223.17,1000.83 1223.17,1002.17 1224.5,1003.5C 1224.67,1009.18 1224.5,1014.84 1224,1020.5C 1219.93,1021.46 1215.77,1021.8 1211.5,1021.5C 1211.5,1019.83 1211.5,1018.17 1211.5,1016.5C 1211.5,1011.5 1211.5,1006.5 1211.5,1001.5C 1208.5,1001.5 1205.5,1001.5 1202.5,1001.5C 1202.5,1008.17 1202.5,1014.83 1202.5,1021.5C 1199,1022.81 1195.34,1023.81 1191.5,1024.5C 1188.5,1024.5 1185.5,1024.5 1182.5,1024.5C 1182.5,1028.17 1182.5,1031.83 1182.5,1035.5C 1187.83,1035.5 1193.17,1035.5 1198.5,1035.5C 1198.9,1039.01 1199.57,1042.34 1200.5,1045.5C 1201.69,1058.51 1203.02,1071.51 1204.5,1084.5C 1205.02,1088.48 1205.35,1092.48 1205.5,1096.5C 1202.34,1097.43 1199.01,1098.1 1195.5,1098.5C 1194.52,1101.62 1194.19,1104.96 1194.5,1108.5C 1192.95,1108.82 1192.29,1109.82 1192.5,1111.5C 1195.17,1111.5 1197.83,1111.5 1200.5,1111.5C 1200.5,1111.83 1200.5,1112.17 1200.5,1112.5C 1197.43,1112.82 1194.43,1112.48 1191.5,1111.5C 1190.4,1105.86 1190.4,1100.2 1191.5,1094.5C 1194.88,1094.54 1198.21,1094.21 1201.5,1093.5C 1199.8,1080.35 1197.8,1067.35 1195.5,1054.5C 1195.5,1049.5 1195.5,1044.5 1195.5,1039.5C 1190.83,1039.5 1186.17,1039.5 1181.5,1039.5C 1181.17,1039.5 1180.83,1039.5 1180.5,1039.5C 1178.67,1034.39 1178,1029.06 1178.5,1023.5C 1178.58,1022.25 1179.24,1021.42 1180.5,1021C 1186.17,1020.67 1191.83,1020.33 1197.5,1020C 1198.31,1012.91 1198.81,1005.75 1199,998.5C 1201.04,997.577 1203.21,997.244 1205.5,997.5 Z"/></g>
<g><path style="opacity:0.822" fill="#240f01" d="M 1237.5,952.5 C 1239.86,952.337 1242.19,952.503 1244.5,953C 1282.71,962.388 1310.71,984.555 1328.5,1019.5C 1326.41,1019.44 1324.91,1018.44 1324,1016.5C 1323.52,1017.45 1323.35,1018.45 1323.5,1019.5C 1307.12,988.125 1281.78,967.792 1247.5,958.5C 1241.24,957.016 1234.91,956.016 1228.5,955.5C 1232.51,955.666 1236.51,955.499 1240.5,955C 1238.88,954.764 1237.88,953.931 1237.5,952.5 Z"/></g>
<g><path style="opacity:0.004" fill="#fe0000" d="M 1344.5,1000.5 C 1345.83,1001.17 1345.83,1001.17 1344.5,1000.5 Z"/></g>
<g><path style="opacity:1" fill="#b6580a" d="M 1229.5,994.5 C 1226.06,995.019 1222.73,996.019 1219.5,997.5C 1218.7,998.952 1218.2,1000.62 1218,1002.5C 1217.8,1000.74 1217.3,999.078 1216.5,997.5C 1215.32,1002.83 1215.32,1008.16 1216.5,1013.5C 1216.64,1015.03 1217.31,1016.03 1218.5,1016.5C 1217.09,1017.83 1215.92,1017.5 1215,1015.5C 1214.41,1009.5 1213.91,1003.5 1213.5,997.5C 1210.83,997.5 1208.17,997.5 1205.5,997.5C 1206.21,996.596 1207.21,996.263 1208.5,996.5C 1215.48,995.672 1222.48,995.005 1229.5,994.5 Z"/></g>
<g><path style="opacity:1" fill="#1e1610" d="M 1229.5,994.5 C 1231.72,994.178 1233.56,994.845 1235,996.5C 1235.18,999.695 1235.68,1002.69 1236.5,1005.5C 1236.5,1008.5 1236.5,1011.5 1236.5,1014.5C 1240.9,1014.29 1245.23,1014.63 1249.5,1015.5C 1258.09,1018.45 1264.09,1024.12 1267.5,1032.5C 1267.82,1037.66 1267.15,1042.66 1265.5,1047.5C 1264.37,1049.13 1263.04,1050.63 1261.5,1052C 1279.36,1059.57 1283.86,1072.07 1275,1089.5C 1268.34,1098.58 1259.51,1104.24 1248.5,1106.5C 1248.59,1110.86 1248.92,1115.19 1249.5,1119.5C 1249.29,1123.89 1246.96,1125.89 1242.5,1125.5C 1240.83,1125.33 1239.17,1125.17 1237.5,1125C 1236.88,1122.72 1236.22,1120.56 1235.5,1118.5C 1234.95,1115.19 1234.62,1111.86 1234.5,1108.5C 1232.83,1108.5 1231.17,1108.5 1229.5,1108.5C 1229.97,1114.76 1229.97,1120.92 1229.5,1127C 1224.83,1127.67 1220.17,1127.67 1215.5,1127C 1214.53,1122.6 1214.2,1118.1 1214.5,1113.5C 1210.29,1111.56 1205.62,1110.9 1200.5,1111.5C 1197.83,1111.5 1195.17,1111.5 1192.5,1111.5C 1192.29,1109.82 1192.95,1108.82 1194.5,1108.5C 1199.36,1108.82 1204.03,1108.49 1208.5,1107.5C 1212.01,1106.99 1215.17,1107.66 1218,1109.5C 1218.5,1114.15 1218.67,1118.82 1218.5,1123.5C 1220.95,1124.47 1223.61,1124.81 1226.5,1124.5C 1226.5,1117.83 1226.5,1111.17 1226.5,1104.5C 1230.35,1103.36 1234.35,1103.36 1238.5,1104.5C 1238.45,1110.2 1238.78,1115.86 1239.5,1121.5C 1241.5,1121.5 1243.5,1121.5 1245.5,1121.5C 1244.8,1115.84 1244.63,1110.17 1245,1104.5C 1247.76,1103.68 1250.59,1103.01 1253.5,1102.5C 1256.91,1099.69 1260.74,1097.69 1265,1096.5C 1268.38,1092.78 1271.38,1088.78 1274,1084.5C 1278.84,1069.33 1273.67,1059.83 1258.5,1056C 1257.42,1055.33 1256.75,1054.33 1256.5,1053C 1268.49,1040.29 1266.83,1029.62 1251.5,1021C 1246.21,1019.99 1240.88,1019.16 1235.5,1018.5C 1234.02,1015.57 1233.02,1012.57 1232.5,1009.5C 1232.5,1006.17 1232.5,1002.83 1232.5,999.5C 1229.83,999.5 1227.17,999.5 1224.5,999.5C 1224.61,998.883 1224.94,998.383 1225.5,998C 1223.89,997.28 1222.39,997.446 1221,998.5C 1220.87,1004.69 1220.7,1010.69 1220.5,1016.5C 1219.74,1010.2 1219.41,1003.86 1219.5,997.5C 1222.73,996.019 1226.06,995.019 1229.5,994.5 Z"/></g>
<g><path style="opacity:0.998" fill="#f7f6f6" d="M 1232.5,1009.5 C 1233.02,1012.57 1234.02,1015.57 1235.5,1018.5C 1240.88,1019.16 1246.21,1019.99 1251.5,1021C 1266.83,1029.62 1268.49,1040.29 1256.5,1053C 1256.75,1054.33 1257.42,1055.33 1258.5,1056C 1273.67,1059.83 1278.84,1069.33 1274,1084.5C 1271.38,1088.78 1268.38,1092.78 1265,1096.5C 1260.74,1097.69 1256.91,1099.69 1253.5,1102.5C 1250.59,1103.01 1247.76,1103.68 1245,1104.5C 1244.63,1110.17 1244.8,1115.84 1245.5,1121.5C 1243.5,1121.5 1241.5,1121.5 1239.5,1121.5C 1238.78,1115.86 1238.45,1110.2 1238.5,1104.5C 1234.35,1103.36 1230.35,1103.36 1226.5,1104.5C 1225.51,1110.64 1225.18,1116.98 1225.5,1123.5C 1223.17,1123.5 1220.83,1123.5 1218.5,1123.5C 1218.67,1118.82 1218.5,1114.15 1218,1109.5C 1215.17,1107.66 1212.01,1106.99 1208.5,1107.5C 1203.98,1107.73 1199.65,1107.06 1195.5,1105.5C 1195.5,1103.17 1195.5,1100.83 1195.5,1098.5C 1199.01,1098.1 1202.34,1097.43 1205.5,1096.5C 1206.64,1093.02 1206.81,1089.36 1206,1085.5C 1205.62,1084.94 1205.12,1084.61 1204.5,1084.5C 1203.02,1071.51 1201.69,1058.51 1200.5,1045.5C 1200.5,1041.83 1200.5,1038.17 1200.5,1034.5C 1194.83,1034.5 1189.17,1034.5 1183.5,1034.5C 1183.5,1031.5 1183.5,1028.5 1183.5,1025.5C 1186.39,1025.81 1189.05,1025.47 1191.5,1024.5C 1195.34,1023.81 1199,1022.81 1202.5,1021.5C 1203.18,1015.43 1203.85,1009.27 1204.5,1003C 1206.44,1002.26 1208.27,1002.42 1210,1003.5C 1210.18,1008.02 1210.68,1012.35 1211.5,1016.5C 1211.5,1018.17 1211.5,1019.83 1211.5,1021.5C 1215.77,1021.8 1219.93,1021.46 1224,1020.5C 1224.5,1014.84 1224.67,1009.18 1224.5,1003.5C 1224.5,1002.5 1224.5,1001.5 1224.5,1000.5C 1226.6,1000.2 1228.6,1000.53 1230.5,1001.5C 1231.08,1004.31 1231.75,1006.98 1232.5,1009.5 Z"/></g>
<g><path style="opacity:1" fill="#9c9189" d="M 1224.5,999.5 C 1227.17,999.5 1229.83,999.5 1232.5,999.5C 1232.5,1002.83 1232.5,1006.17 1232.5,1009.5C 1231.75,1006.98 1231.08,1004.31 1230.5,1001.5C 1228.6,1000.53 1226.6,1000.2 1224.5,1000.5C 1224.5,1001.5 1224.5,1002.5 1224.5,1003.5C 1223.17,1002.17 1223.17,1000.83 1224.5,999.5 Z"/></g>
<g><path style="opacity:0.008" fill="#7f8000" d="M 1344.5,1007.5 C 1345.83,1008.17 1345.83,1008.17 1344.5,1007.5 Z"/></g>
<g><path style="opacity:0.999" fill="#f3750b" d="M 1219.5,997.5 C 1219.41,1003.86 1219.74,1010.2 1220.5,1016.5C 1219.83,1016.5 1219.17,1016.5 1218.5,1016.5C 1217.31,1016.03 1216.64,1015.03 1216.5,1013.5C 1215.32,1008.16 1215.32,1002.83 1216.5,997.5C 1217.3,999.078 1217.8,1000.74 1218,1002.5C 1218.2,1000.62 1218.7,998.952 1219.5,997.5 Z"/></g>
<g><path style="opacity:0.998" fill="#f6780d" d="M 1218.5,963.5 C 1221.83,963.5 1225.17,963.5 1228.5,963.5C 1236.43,964.085 1244.27,965.418 1252,967.5C 1257.24,969.871 1262.41,972.371 1267.5,975C 1272.18,977.382 1276.51,980.215 1280.5,983.5C 1281.58,985.543 1283.25,986.876 1285.5,987.5C 1299.77,1000.67 1310.6,1016.33 1318,1034.5C 1319.66,1038.66 1320.83,1042.99 1321.5,1047.5C 1322.09,1050.61 1322.76,1053.61 1323.5,1056.5C 1324.16,1059.46 1324.49,1062.46 1324.5,1065.5C 1325.49,1083.89 1322.49,1101.55 1315.5,1118.5C 1307.87,1134.39 1296.54,1147.06 1281.5,1156.5C 1280.18,1153.21 1281.51,1151.87 1285.5,1152.5C 1285.33,1151.18 1285.66,1150.01 1286.5,1149C 1288.42,1147.88 1290.42,1147.04 1292.5,1146.5C 1293.04,1144.42 1293.88,1142.42 1295,1140.5C 1295.75,1139.87 1296.58,1139.37 1297.5,1139C 1294.53,1136.82 1294.86,1135.66 1298.5,1135.5C 1298.38,1132.09 1300.05,1130.76 1303.5,1131.5C 1304.2,1129.01 1305.2,1126.67 1306.5,1124.5C 1302.7,1124.18 1302.53,1123.18 1306,1121.5C 1306.3,1119.11 1307.14,1116.94 1308.5,1115C 1307.5,1114.67 1306.5,1114.33 1305.5,1114C 1306.66,1112.17 1307.99,1110.51 1309.5,1109C 1304.13,1108.84 1299.13,1110.18 1294.5,1113C 1293.17,1113.67 1291.83,1113.67 1290.5,1113C 1297.28,1108.74 1304.45,1105.24 1312,1102.5C 1314.73,1100.82 1316.06,1098.48 1316,1095.5C 1314.6,1094.77 1313.1,1094.27 1311.5,1094C 1311.83,1093.67 1312.17,1093.33 1312.5,1093C 1311.69,1092.69 1311.03,1092.19 1310.5,1091.5C 1315.55,1090.61 1318.88,1087.78 1320.5,1083C 1319.17,1082.67 1317.83,1082.33 1316.5,1082C 1317.97,1081.29 1318.64,1080.12 1318.5,1078.5C 1317.13,1078.66 1315.79,1078.49 1314.5,1078C 1317.3,1076.69 1319.97,1075.19 1322.5,1073.5C 1320.5,1073.17 1318.5,1072.83 1316.5,1072.5C 1317.12,1070.25 1318.46,1068.58 1320.5,1067.5C 1318.5,1066.83 1316.5,1066.17 1314.5,1065.5C 1316.34,1064.08 1318.34,1062.91 1320.5,1062C 1319.64,1059.93 1318.3,1058.26 1316.5,1057C 1320.01,1055.44 1320.34,1053.28 1317.5,1050.5C 1315.68,1051.75 1313.68,1052.41 1311.5,1052.5C 1311.7,1050.61 1311.04,1049.11 1309.5,1048C 1310.55,1047.51 1311.55,1047.67 1312.5,1048.5C 1312.83,1048.17 1313.17,1047.83 1313.5,1047.5C 1312.19,1046.74 1311.69,1045.74 1312,1044.5C 1316.96,1043.48 1317.46,1041.64 1313.5,1039C 1310.57,1037.4 1307.57,1037.4 1304.5,1039C 1299.48,1041.93 1294.31,1044.77 1289,1047.5C 1286.85,1046.19 1285.35,1044.35 1284.5,1042C 1287.73,1042.23 1291.07,1042.07 1294.5,1041.5C 1294.5,1039.83 1294.5,1038.17 1294.5,1036.5C 1293.13,1036.34 1291.79,1036.51 1290.5,1037C 1286.83,1040.03 1282.83,1041.53 1278.5,1041.5C 1279.69,1040.48 1280.69,1039.31 1281.5,1038C 1285.73,1037.76 1289.4,1036.26 1292.5,1033.5C 1292.17,1033.17 1291.83,1032.83 1291.5,1032.5C 1290.5,1033.17 1289.5,1033.83 1288.5,1034.5C 1286.18,1032.42 1283.52,1031.59 1280.5,1032C 1281.73,1033.59 1281.39,1034.92 1279.5,1036C 1275.67,1037.7 1272,1039.54 1268.5,1041.5C 1268.81,1038.29 1268.48,1035.29 1267.5,1032.5C 1264.09,1024.12 1258.09,1018.45 1249.5,1015.5C 1249.39,1014.88 1249.06,1014.38 1248.5,1014C 1245.18,1013.5 1241.85,1013.33 1238.5,1013.5C 1238.66,1011.14 1238.5,1008.81 1238,1006.5C 1237.62,1005.94 1237.12,1005.61 1236.5,1005.5C 1235.68,1002.69 1235.18,999.695 1235,996.5C 1233.56,994.845 1231.72,994.178 1229.5,994.5C 1222.48,995.005 1215.48,995.672 1208.5,996.5C 1209.57,995.566 1210.9,995.232 1212.5,995.5C 1212.29,993.856 1212.62,992.356 1213.5,991C 1218.61,989.924 1223.61,988.424 1228.5,986.5C 1230.87,987.363 1230.87,988.529 1228.5,990C 1230.53,991.205 1232.53,991.372 1234.5,990.5C 1233,989.096 1233.33,988.43 1235.5,988.5C 1237.14,989.304 1238.64,990.304 1240,991.5C 1240.5,991 1241,990.5 1241.5,990C 1240.33,989.581 1239.33,988.915 1238.5,988C 1239.83,987 1239.83,986 1238.5,985C 1236.18,984.658 1234.02,985.158 1232,986.5C 1231.5,986 1231,985.5 1230.5,985C 1233.65,983.33 1236.65,981.497 1239.5,979.5C 1238.26,978.643 1236.93,977.977 1235.5,977.5C 1234.61,978.325 1234.28,979.325 1234.5,980.5C 1232.8,980.34 1231.13,980.506 1229.5,981C 1226.41,983.588 1222.91,985.421 1219,986.5C 1218.38,985.551 1218.55,984.718 1219.5,984C 1223.74,981.147 1228.07,978.48 1232.5,976C 1228.18,975.827 1224.18,976.994 1220.5,979.5C 1219.17,978.833 1219.17,978.167 1220.5,977.5C 1224.21,975.233 1228.21,973.566 1232.5,972.5C 1233.5,973.167 1234.5,973.833 1235.5,974.5C 1236.51,974.062 1236.51,973.396 1235.5,972.5C 1238.36,971.694 1238.86,970.361 1237,968.5C 1234.37,968.767 1231.54,968.934 1228.5,969C 1229.71,968.107 1229.71,967.274 1228.5,966.5C 1226.88,967.154 1225.22,967.654 1223.5,968C 1222.91,969.982 1221.74,971.816 1220,973.5C 1219.69,972.234 1219.19,971.067 1218.5,970C 1216.77,970.409 1215.11,970.242 1213.5,969.5C 1215.04,967.272 1216.7,965.272 1218.5,963.5 Z"/></g>
<g><path style="opacity:0.004" fill="#e72d00" d="M 1338.5,1009.5 C 1340.34,1009.64 1340.67,1010.31 1339.5,1011.5C 1338.7,1011.04 1338.37,1010.38 1338.5,1009.5 Z"/></g>
<g><path style="opacity:1" fill="#656564" d="M 1211.5,1016.5 C 1210.68,1012.35 1210.18,1008.02 1210,1003.5C 1208.27,1002.42 1206.44,1002.26 1204.5,1003C 1203.85,1009.27 1203.18,1015.43 1202.5,1021.5C 1202.5,1014.83 1202.5,1008.17 1202.5,1001.5C 1205.5,1001.5 1208.5,1001.5 1211.5,1001.5C 1211.5,1006.5 1211.5,1011.5 1211.5,1016.5 Z"/></g>
<g><path style="opacity:0.941" fill="#9e4b08" d="M 1236.5,1005.5 C 1237.12,1005.61 1237.62,1005.94 1238,1006.5C 1238.5,1008.81 1238.66,1011.14 1238.5,1013.5C 1241.85,1013.33 1245.18,1013.5 1248.5,1014C 1249.06,1014.38 1249.39,1014.88 1249.5,1015.5C 1245.23,1014.63 1240.9,1014.29 1236.5,1014.5C 1236.5,1011.5 1236.5,1008.5 1236.5,1005.5 Z"/></g>
<g><path style="opacity:0.004" fill="#fe0000" d="M 1336.5,1013.5 C 1337.04,1013.56 1337.38,1013.89 1337.5,1014.5C 1336.68,1015.39 1335.68,1015.72 1334.5,1015.5C 1335.17,1014.83 1335.83,1014.17 1336.5,1013.5 Z"/></g>
<g><path style="opacity:0.004" fill="#fe0000" d="M 1341.5,1013.5 C 1342.83,1014.17 1342.83,1014.17 1341.5,1013.5 Z"/></g>
<g><path style="opacity:0.004" fill="#ff46ff" d="M 1341.5,1014.5 C 1341.63,1015.24 1341.46,1015.91 1341,1016.5C 1340.31,1015.56 1340.47,1014.9 1341.5,1014.5 Z"/></g>
<g><path style="opacity:0.941" fill="#401904" d="M 1323.5,1043.5 C 1323.84,1045.48 1323.18,1046.82 1321.5,1047.5C 1320.83,1042.99 1319.66,1038.66 1318,1034.5C 1310.6,1016.33 1299.77,1000.67 1285.5,987.5C 1286.25,986.427 1287.25,986.26 1288.5,987C 1289.83,988 1291.17,989 1292.5,990C 1303.36,1000.89 1311.86,1013.39 1318,1027.5C 1319.74,1032.89 1321.58,1038.23 1323.5,1043.5 Z"/></g>
<g><path style="opacity:0.016" fill="#a544ff" d="M 1330.5,1022.5 C 1333.22,1023.68 1333.55,1024.68 1331.5,1025.5C 1330.89,1024.61 1330.56,1023.61 1330.5,1022.5 Z"/></g>
<g><path style="opacity:1" fill="#f87e0f" d="M 1218.5,963.5 C 1216.7,965.272 1215.04,967.272 1213.5,969.5C 1215.11,970.242 1216.77,970.409 1218.5,970C 1219.19,971.067 1219.69,972.234 1220,973.5C 1221.74,971.816 1222.91,969.982 1223.5,968C 1225.22,967.654 1226.88,967.154 1228.5,966.5C 1229.71,967.274 1229.71,968.107 1228.5,969C 1231.54,968.934 1234.37,968.767 1237,968.5C 1238.86,970.361 1238.36,971.694 1235.5,972.5C 1236.51,973.396 1236.51,974.062 1235.5,974.5C 1234.5,973.833 1233.5,973.167 1232.5,972.5C 1228.21,973.566 1224.21,975.233 1220.5,977.5C 1219.17,978.167 1219.17,978.833 1220.5,979.5C 1224.18,976.994 1228.18,975.827 1232.5,976C 1228.07,978.48 1223.74,981.147 1219.5,984C 1218.55,984.718 1218.38,985.551 1219,986.5C 1222.91,985.421 1226.41,983.588 1229.5,981C 1231.13,980.506 1232.8,980.34 1234.5,980.5C 1234.28,979.325 1234.61,978.325 1235.5,977.5C 1236.93,977.977 1238.26,978.643 1239.5,979.5C 1236.65,981.497 1233.65,983.33 1230.5,985C 1231,985.5 1231.5,986 1232,986.5C 1234.02,985.158 1236.18,984.658 1238.5,985C 1239.83,986 1239.83,987 1238.5,988C 1239.33,988.915 1240.33,989.581 1241.5,990C 1241,990.5 1240.5,991 1240,991.5C 1238.64,990.304 1237.14,989.304 1235.5,988.5C 1233.33,988.43 1233,989.096 1234.5,990.5C 1232.53,991.372 1230.53,991.205 1228.5,990C 1230.87,988.529 1230.87,987.363 1228.5,986.5C 1223.61,988.424 1218.61,989.924 1213.5,991C 1212.62,992.356 1212.29,993.856 1212.5,995.5C 1210.9,995.232 1209.57,995.566 1208.5,996.5C 1207.21,996.263 1206.21,996.596 1205.5,997.5C 1203.21,997.244 1201.04,997.577 1199,998.5C 1198.81,1005.75 1198.31,1012.91 1197.5,1020C 1191.83,1020.33 1186.17,1020.67 1180.5,1021C 1179.24,1021.42 1178.58,1022.25 1178.5,1023.5C 1177.52,1027.63 1177.18,1031.97 1177.5,1036.5C 1176.6,1037.21 1176.26,1038.21 1176.5,1039.5C 1175.13,1039.66 1173.79,1039.49 1172.5,1039C 1174.64,1038.26 1174.81,1037.42 1173,1036.5C 1171.37,1036.88 1169.87,1037.54 1168.5,1038.5C 1170.37,1039.62 1171.87,1040.95 1173,1042.5C 1174.94,1041.66 1176.77,1041.66 1178.5,1042.5C 1176.47,1042.95 1174.47,1044.11 1172.5,1046C 1173.83,1047 1173.83,1048 1172.5,1049C 1171.23,1049.31 1170.07,1049.81 1169,1050.5C 1167.69,1048.34 1166.02,1048.01 1164,1049.5C 1163.67,1048.83 1163.33,1048.17 1163,1047.5C 1161.49,1048.26 1160.15,1049.26 1159,1050.5C 1159.41,1052.23 1159.24,1053.89 1158.5,1055.5C 1157.2,1056.72 1156.2,1056.38 1155.5,1054.5C 1154.07,1054.98 1152.74,1055.64 1151.5,1056.5C 1152.75,1058.04 1152.75,1059.54 1151.5,1061C 1148.87,1060.75 1146.2,1060.75 1143.5,1061C 1139.31,1062.09 1136.31,1064.59 1134.5,1068.5C 1135.94,1069.93 1137.6,1071.1 1139.5,1072C 1138.33,1073.08 1137,1073.92 1135.5,1074.5C 1134.57,1075.69 1134.24,1077.02 1134.5,1078.5C 1133.76,1078.63 1133.09,1078.46 1132.5,1078C 1133.41,1076.3 1133.74,1074.47 1133.5,1072.5C 1132.45,1072.65 1131.45,1072.48 1130.5,1072C 1132.58,1070.51 1133.91,1068.51 1134.5,1066C 1133.21,1065.51 1131.87,1065.34 1130.5,1065.5C 1130.33,1064.18 1130.66,1063.01 1131.5,1062C 1133.66,1061.09 1135.66,1059.92 1137.5,1058.5C 1139.4,1057.53 1141.4,1057.2 1143.5,1057.5C 1143.5,1056.17 1143.5,1054.83 1143.5,1053.5C 1139.77,1053.85 1136.44,1055.19 1133.5,1057.5C 1132.83,1057.33 1132.17,1057.17 1131.5,1057C 1132.36,1056.31 1133.02,1055.48 1133.5,1054.5C 1132.29,1053.28 1132.29,1052.11 1133.5,1051C 1132,1050.49 1130.84,1050.99 1130,1052.5C 1129.8,1050.62 1129.3,1048.95 1128.5,1047.5C 1133.71,1005.31 1156.38,977.643 1196.5,964.5C 1203.8,963.698 1211.14,963.365 1218.5,963.5 Z"/></g>
<g><path style="opacity:0.971" fill="#a4a4a4" d="M 1191.5,1024.5 C 1189.05,1025.47 1186.39,1025.81 1183.5,1025.5C 1183.5,1028.5 1183.5,1031.5 1183.5,1034.5C 1189.17,1034.5 1194.83,1034.5 1200.5,1034.5C 1200.5,1038.17 1200.5,1041.83 1200.5,1045.5C 1199.57,1042.34 1198.9,1039.01 1198.5,1035.5C 1193.17,1035.5 1187.83,1035.5 1182.5,1035.5C 1182.5,1031.83 1182.5,1028.17 1182.5,1024.5C 1185.5,1024.5 1188.5,1024.5 1191.5,1024.5 Z"/></g>
<g><path style="opacity:1" fill="#a8550a" d="M 1178.5,1023.5 C 1178,1029.06 1178.67,1034.39 1180.5,1039.5C 1179.5,1039.5 1178.5,1039.5 1177.5,1039.5C 1177.5,1038.5 1177.5,1037.5 1177.5,1036.5C 1177.18,1031.97 1177.52,1027.63 1178.5,1023.5 Z"/></g>
<g><path style="opacity:0.91" fill="#6d2a07" d="M 1329.5,1033.5 C 1332.08,1041.97 1333.91,1050.64 1335,1059.5C 1337.32,1084.84 1330.99,1107.51 1316,1127.5C 1317.09,1124.03 1317.92,1120.36 1318.5,1116.5C 1320.29,1113.45 1321.79,1110.12 1323,1106.5C 1326.03,1096.06 1327.2,1085.39 1326.5,1074.5C 1328.3,1065.69 1327.47,1057.02 1324,1048.5C 1323.5,1051.15 1323.34,1053.81 1323.5,1056.5C 1322.76,1053.61 1322.09,1050.61 1321.5,1047.5C 1323.18,1046.82 1323.84,1045.48 1323.5,1043.5C 1324.31,1041.71 1324.81,1039.71 1325,1037.5C 1325.48,1038.45 1325.65,1039.45 1325.5,1040.5C 1327.29,1040.79 1328.95,1040.45 1330.5,1039.5C 1329.65,1037.59 1329.32,1035.59 1329.5,1033.5 Z"/></g>
<g><path style="opacity:0.965" fill="#8a4709" d="M 1181.5,1039.5 C 1186.17,1039.5 1190.83,1039.5 1195.5,1039.5C 1195.5,1044.5 1195.5,1049.5 1195.5,1054.5C 1194.53,1052.05 1194.19,1049.39 1194.5,1046.5C 1194.5,1044.5 1194.5,1042.5 1194.5,1040.5C 1189.97,1040.82 1185.63,1040.48 1181.5,1039.5 Z"/></g>
<g><path style="opacity:0.996" fill="#8b4608" d="M 1267.5,1032.5 C 1268.48,1035.29 1268.81,1038.29 1268.5,1041.5C 1268.25,1043.97 1267.25,1045.97 1265.5,1047.5C 1267.15,1042.66 1267.82,1037.66 1267.5,1032.5 Z"/></g>
<g><path style="opacity:0.993" fill="#1e1b19" d="M 1219.5,1028.5 C 1228.3,1027.68 1236.64,1029.18 1244.5,1033C 1247.32,1035.13 1248.65,1037.97 1248.5,1041.5C 1247.16,1049.67 1242.49,1054.84 1234.5,1057C 1229.56,1058.33 1224.56,1058.66 1219.5,1058C 1219,1057.5 1218.5,1057 1218,1056.5C 1216.67,1048.53 1216,1040.53 1216,1032.5C 1217.63,1031.47 1218.79,1030.13 1219.5,1028.5 Z"/></g>
<g><path style="opacity:0.951" fill="#ba5d0b" d="M 1239.5,1034.5 C 1236.89,1034.94 1234.22,1035.27 1231.5,1035.5C 1230.3,1035.15 1230.3,1034.65 1231.5,1034C 1227.85,1033.5 1224.18,1033.33 1220.5,1033.5C 1220.89,1040.5 1221.23,1047.5 1221.5,1054.5C 1219.4,1047.77 1218.57,1040.77 1219,1033.5C 1226.09,1030.5 1232.92,1030.83 1239.5,1034.5 Z"/></g>
<g><path style="opacity:1" fill="#f67e0f" d="M 1239.5,1034.5 C 1246.24,1040.06 1245.9,1045.56 1238.5,1051C 1236.81,1051.85 1235.14,1052.68 1233.5,1053.5C 1229.53,1054.16 1225.53,1054.5 1221.5,1054.5C 1221.23,1047.5 1220.89,1040.5 1220.5,1033.5C 1224.18,1033.33 1227.85,1033.5 1231.5,1034C 1230.3,1034.65 1230.3,1035.15 1231.5,1035.5C 1234.22,1035.27 1236.89,1034.94 1239.5,1034.5 Z"/></g>
<g><path style="opacity:0.994" fill="#723606" d="M 1233.5,1053.5 C 1231.32,1054.93 1228.82,1055.59 1226,1055.5C 1224.29,1055.49 1222.79,1055.16 1221.5,1054.5C 1225.53,1054.5 1229.53,1054.16 1233.5,1053.5 Z"/></g>
<g><path style="opacity:0.963" fill="#1b0a01" d="M 1326.5,1074.5 C 1325.83,1071.5 1325.17,1068.5 1324.5,1065.5C 1324.49,1062.46 1324.16,1059.46 1323.5,1056.5C 1323.34,1053.81 1323.5,1051.15 1324,1048.5C 1327.47,1057.02 1328.3,1065.69 1326.5,1074.5 Z"/></g>
<g><path style="opacity:1" fill="#4e4e4e" d="M 1247.5,1064.5 C 1238.72,1064.08 1230.06,1064.75 1221.5,1066.5C 1221.5,1070.5 1221.5,1074.5 1221.5,1078.5C 1220.66,1075.67 1219.99,1072.67 1219.5,1069.5C 1219.58,1067.67 1220.41,1066.34 1222,1065.5C 1230.58,1062.44 1239.08,1062.11 1247.5,1064.5 Z"/></g>
<g><path style="opacity:0.987" fill="#1d1612" d="M 1247.5,1064.5 C 1249.22,1065.86 1251.22,1066.86 1253.5,1067.5C 1256.31,1070.28 1257.14,1073.61 1256,1077.5C 1252.68,1084.31 1247.51,1089.14 1240.5,1092C 1235.62,1093.81 1230.62,1094.81 1225.5,1095C 1224.97,1094.31 1224.31,1093.81 1223.5,1093.5C 1222.4,1088.55 1221.73,1083.55 1221.5,1078.5C 1221.5,1074.5 1221.5,1070.5 1221.5,1066.5C 1230.06,1064.75 1238.72,1064.08 1247.5,1064.5 Z"/></g>
<g><path style="opacity:0.997" fill="#f17a0f" d="M 1232.5,1066.5 C 1238.32,1066.28 1243.99,1067.11 1249.5,1069C 1252.86,1072.03 1253.36,1075.53 1251,1079.5C 1245.63,1086.86 1238.29,1090.86 1229,1091.5C 1227.12,1090.91 1226.12,1089.57 1226,1087.5C 1225.03,1081.18 1224.19,1074.84 1223.5,1068.5C 1226.69,1068.14 1229.69,1067.47 1232.5,1066.5 Z"/></g>
<g><path style="opacity:1" fill="#9e9e9e" d="M 1204.5,1084.5 C 1205.12,1084.61 1205.62,1084.94 1206,1085.5C 1206.81,1089.36 1206.64,1093.02 1205.5,1096.5C 1205.35,1092.48 1205.02,1088.48 1204.5,1084.5 Z"/></g>
<g><path style="opacity:0.998" fill="#f97f10" d="M 1281.5,1156.5 C 1281.17,1156.5 1280.83,1156.5 1280.5,1156.5C 1277.81,1156.34 1275.15,1156.5 1272.5,1157C 1269.86,1158.57 1267.02,1159.74 1264,1160.5C 1257.91,1159.23 1252.41,1160.56 1247.5,1164.5C 1247.17,1164 1246.83,1163.5 1246.5,1163C 1252.55,1159.22 1258.88,1156.05 1265.5,1153.5C 1266.83,1152.83 1266.83,1152.17 1265.5,1151.5C 1264.17,1152.5 1262.83,1153.5 1261.5,1154.5C 1260.67,1153.59 1259.67,1152.92 1258.5,1152.5C 1256.49,1153.36 1254.49,1153.86 1252.5,1154C 1253.05,1153.08 1253.71,1152.24 1254.5,1151.5C 1261.5,1148.5 1268.5,1145.5 1275.5,1142.5C 1276.71,1141.73 1276.71,1140.89 1275.5,1140C 1277.63,1139.46 1279.63,1138.62 1281.5,1137.5C 1281.33,1137.17 1281.17,1136.83 1281,1136.5C 1277.51,1137.04 1274.18,1138.04 1271,1139.5C 1269.27,1139.35 1269.11,1138.69 1270.5,1137.5C 1271.32,1136.61 1272.32,1136.28 1273.5,1136.5C 1274.45,1134.26 1275.12,1131.93 1275.5,1129.5C 1277.86,1129.34 1280.19,1129.5 1282.5,1130C 1282.83,1131 1283.17,1132 1283.5,1133C 1287.9,1134.38 1291.23,1133.04 1293.5,1129C 1291.09,1128.85 1288.76,1129.35 1286.5,1130.5C 1284.08,1130.28 1283.08,1128.95 1283.5,1126.5C 1287.84,1124.36 1292.5,1123.36 1297.5,1123.5C 1297.15,1121.46 1297.15,1119.63 1297.5,1118C 1297,1117.83 1296.5,1117.67 1296,1117.5C 1290.51,1120.99 1284.34,1124.33 1277.5,1127.5C 1276.83,1127.33 1276.17,1127.17 1275.5,1127C 1277.99,1124.92 1280.66,1123.09 1283.5,1121.5C 1284.52,1121 1284.69,1120.33 1284,1119.5C 1281.24,1120.12 1278.41,1120.28 1275.5,1120C 1272.41,1122.42 1268.91,1123.92 1265,1124.5C 1261.77,1124.23 1259.61,1123.23 1258.5,1121.5C 1255.53,1122.32 1252.87,1123.65 1250.5,1125.5C 1250.79,1123.26 1250.46,1121.26 1249.5,1119.5C 1248.92,1115.19 1248.59,1110.86 1248.5,1106.5C 1259.51,1104.24 1268.34,1098.58 1275,1089.5C 1283.86,1072.07 1279.36,1059.57 1261.5,1052C 1263.04,1050.63 1264.37,1049.13 1265.5,1047.5C 1267.25,1045.97 1268.25,1043.97 1268.5,1041.5C 1272,1039.54 1275.67,1037.7 1279.5,1036C 1281.39,1034.92 1281.73,1033.59 1280.5,1032C 1283.52,1031.59 1286.18,1032.42 1288.5,1034.5C 1289.5,1033.83 1290.5,1033.17 1291.5,1032.5C 1291.83,1032.83 1292.17,1033.17 1292.5,1033.5C 1289.4,1036.26 1285.73,1037.76 1281.5,1038C 1280.69,1039.31 1279.69,1040.48 1278.5,1041.5C 1282.83,1041.53 1286.83,1040.03 1290.5,1037C 1291.79,1036.51 1293.13,1036.34 1294.5,1036.5C 1294.5,1038.17 1294.5,1039.83 1294.5,1041.5C 1291.07,1042.07 1287.73,1042.23 1284.5,1042C 1285.35,1044.35 1286.85,1046.19 1289,1047.5C 1294.31,1044.77 1299.48,1041.93 1304.5,1039C 1307.57,1037.4 1310.57,1037.4 1313.5,1039C 1317.46,1041.64 1316.96,1043.48 1312,1044.5C 1311.69,1045.74 1312.19,1046.74 1313.5,1047.5C 1313.17,1047.83 1312.83,1048.17 1312.5,1048.5C 1311.55,1047.67 1310.55,1047.51 1309.5,1048C 1311.04,1049.11 1311.7,1050.61 1311.5,1052.5C 1313.68,1052.41 1315.68,1051.75 1317.5,1050.5C 1320.34,1053.28 1320.01,1055.44 1316.5,1057C 1318.3,1058.26 1319.64,1059.93 1320.5,1062C 1318.34,1062.91 1316.34,1064.08 1314.5,1065.5C 1316.5,1066.17 1318.5,1066.83 1320.5,1067.5C 1318.46,1068.58 1317.12,1070.25 1316.5,1072.5C 1318.5,1072.83 1320.5,1073.17 1322.5,1073.5C 1319.97,1075.19 1317.3,1076.69 1314.5,1078C 1315.79,1078.49 1317.13,1078.66 1318.5,1078.5C 1318.64,1080.12 1317.97,1081.29 1316.5,1082C 1317.83,1082.33 1319.17,1082.67 1320.5,1083C 1318.88,1087.78 1315.55,1090.61 1310.5,1091.5C 1311.03,1092.19 1311.69,1092.69 1312.5,1093C 1312.17,1093.33 1311.83,1093.67 1311.5,1094C 1313.1,1094.27 1314.6,1094.77 1316,1095.5C 1316.06,1098.48 1314.73,1100.82 1312,1102.5C 1304.45,1105.24 1297.28,1108.74 1290.5,1113C 1291.83,1113.67 1293.17,1113.67 1294.5,1113C 1299.13,1110.18 1304.13,1108.84 1309.5,1109C 1307.99,1110.51 1306.66,1112.17 1305.5,1114C 1306.5,1114.33 1307.5,1114.67 1308.5,1115C 1307.14,1116.94 1306.3,1119.11 1306,1121.5C 1302.53,1123.18 1302.7,1124.18 1306.5,1124.5C 1305.2,1126.67 1304.2,1129.01 1303.5,1131.5C 1300.05,1130.76 1298.38,1132.09 1298.5,1135.5C 1294.86,1135.66 1294.53,1136.82 1297.5,1139C 1296.58,1139.37 1295.75,1139.87 1295,1140.5C 1293.88,1142.42 1293.04,1144.42 1292.5,1146.5C 1290.42,1147.04 1288.42,1147.88 1286.5,1149C 1285.66,1150.01 1285.33,1151.18 1285.5,1152.5C 1281.51,1151.87 1280.18,1153.21 1281.5,1156.5 Z"/></g>
<g><path style="opacity:0.912" fill="#401c05" d="M 1324.5,1065.5 C 1325.17,1068.5 1325.83,1071.5 1326.5,1074.5C 1327.2,1085.39 1326.03,1096.06 1323,1106.5C 1321.79,1110.12 1320.29,1113.45 1318.5,1116.5C 1317.5,1117.17 1316.5,1117.83 1315.5,1118.5C 1322.49,1101.55 1325.49,1083.89 1324.5,1065.5 Z"/></g>
<g><path style="opacity:1" fill="#c5beb6" d="M 1195.5,1098.5 C 1195.5,1100.83 1195.5,1103.17 1195.5,1105.5C 1199.65,1107.06 1203.98,1107.73 1208.5,1107.5C 1204.03,1108.49 1199.36,1108.82 1194.5,1108.5C 1194.19,1104.96 1194.52,1101.62 1195.5,1098.5 Z"/></g>
<g><path style="opacity:0.996" fill="#7c7b7b" d="M 1226.5,1104.5 C 1226.5,1111.17 1226.5,1117.83 1226.5,1124.5C 1223.61,1124.81 1220.95,1124.47 1218.5,1123.5C 1220.83,1123.5 1223.17,1123.5 1225.5,1123.5C 1225.18,1116.98 1225.51,1110.64 1226.5,1104.5 Z"/></g>
<g><path style="opacity:1" fill="#f98311" d="M 1177.5,1036.5 C 1177.5,1037.5 1177.5,1038.5 1177.5,1039.5C 1178.5,1039.5 1179.5,1039.5 1180.5,1039.5C 1180.83,1039.5 1181.17,1039.5 1181.5,1039.5C 1185.63,1040.48 1189.97,1040.82 1194.5,1040.5C 1194.5,1042.5 1194.5,1044.5 1194.5,1046.5C 1192.26,1045.46 1189.93,1045.3 1187.5,1046C 1184.24,1047.57 1181.24,1049.57 1178.5,1052C 1179,1052.5 1179.5,1053 1180,1053.5C 1181.92,1052.46 1183.75,1051.29 1185.5,1050C 1189.26,1049.81 1189.43,1050.64 1186,1052.5C 1185.32,1053.78 1185.48,1054.95 1186.5,1056C 1182.61,1058.16 1182.61,1058.99 1186.5,1058.5C 1187.31,1062.85 1185.48,1065.85 1181,1067.5C 1179.7,1066.55 1178.53,1066.55 1177.5,1067.5C 1179.29,1068.32 1180.95,1069.32 1182.5,1070.5C 1181.75,1071.74 1181.42,1073.07 1181.5,1074.5C 1182.87,1074.34 1184.21,1074.51 1185.5,1075C 1182.78,1077 1180.11,1079 1177.5,1081C 1179.05,1081.33 1180.38,1080.83 1181.5,1079.5C 1182.48,1079.98 1183.31,1080.64 1184,1081.5C 1183.29,1083.05 1182.45,1084.71 1181.5,1086.5C 1181.83,1087.17 1182.17,1087.83 1182.5,1088.5C 1184.34,1085.79 1186.67,1085.13 1189.5,1086.5C 1189.17,1087.17 1188.83,1087.83 1188.5,1088.5C 1189.72,1089.61 1191.06,1089.78 1192.5,1089C 1194.34,1084.02 1196.34,1083.69 1198.5,1088C 1196.29,1090.89 1193.29,1092.22 1189.5,1092C 1186.5,1095 1183.5,1098 1180.5,1101C 1182.28,1101.23 1183.95,1100.73 1185.5,1099.5C 1186.17,1099.83 1186.83,1100.17 1187.5,1100.5C 1184.17,1103.15 1184.17,1105.98 1187.5,1109C 1186.45,1110.39 1186.28,1111.89 1187,1113.5C 1188.07,1112.72 1189.24,1112.89 1190.5,1114C 1188.83,1114.33 1187.17,1114.67 1185.5,1115C 1187.9,1116.45 1190.23,1116.12 1192.5,1114C 1199.2,1113.29 1205.87,1113.45 1212.5,1114.5C 1213.83,1119.5 1213.83,1124.5 1212.5,1129.5C 1217.83,1127.9 1222.99,1128.24 1228,1130.5C 1233.54,1128.68 1234.37,1129.51 1230.5,1133C 1230.83,1133.5 1231.17,1134 1231.5,1134.5C 1233.95,1131.77 1236.95,1129.77 1240.5,1128.5C 1240.83,1128.67 1241.17,1128.83 1241.5,1129C 1240.5,1130 1239.5,1131 1238.5,1132C 1240.81,1131.84 1243.14,1131.84 1245.5,1132C 1240.98,1136.14 1235.65,1138.81 1229.5,1140C 1220.77,1144.78 1212.1,1149.44 1203.5,1154C 1204.5,1154.17 1205.5,1154.33 1206.5,1154.5C 1220.9,1146.47 1235.57,1139.3 1250.5,1133C 1252.35,1131.91 1254.02,1130.57 1255.5,1129C 1253.07,1127.27 1253.4,1125.77 1256.5,1124.5C 1256.44,1125.66 1256.77,1126.99 1257.5,1128.5C 1259.42,1129.31 1261.42,1129.81 1263.5,1130C 1264.34,1131.01 1264.67,1132.18 1264.5,1133.5C 1261.15,1131.92 1258.31,1132.59 1256,1135.5C 1255.67,1135.17 1255.33,1134.83 1255,1134.5C 1251.17,1136.79 1247,1138.46 1242.5,1139.5C 1236.01,1142.85 1229.68,1146.35 1223.5,1150C 1224.79,1150.49 1226.13,1150.66 1227.5,1150.5C 1227.19,1152.45 1227.19,1154.11 1227.5,1155.5C 1231.12,1152.77 1235.12,1151.27 1239.5,1151C 1243.3,1152.45 1243.47,1154.28 1240,1156.5C 1239.67,1155.17 1239.33,1153.83 1239,1152.5C 1237.63,1154.86 1235.63,1156.53 1233,1157.5C 1232.59,1157.04 1232.09,1156.71 1231.5,1156.5C 1227.52,1159.2 1223.36,1161.53 1219,1163.5C 1218.03,1162.8 1216.86,1162.8 1215.5,1163.5C 1214.83,1163.17 1214.17,1162.83 1213.5,1162.5C 1214.65,1160.85 1215.98,1159.35 1217.5,1158C 1214.27,1156.19 1210.93,1156.02 1207.5,1157.5C 1205.94,1157.28 1204.61,1156.61 1203.5,1155.5C 1201.8,1158.04 1199.63,1160.04 1197,1161.5C 1195.15,1160.83 1193.99,1159.5 1193.5,1157.5C 1195.65,1155.85 1197.65,1154.02 1199.5,1152C 1197.89,1151.28 1196.39,1151.45 1195,1152.5C 1192.74,1150.02 1190.4,1150.02 1188,1152.5C 1187.5,1152.17 1187,1151.83 1186.5,1151.5C 1187.62,1148.88 1189.29,1146.71 1191.5,1145C 1187.63,1144.11 1183.96,1144.61 1180.5,1146.5C 1179.29,1145.73 1179.29,1144.89 1180.5,1144C 1177.96,1142.9 1177.29,1141.23 1178.5,1139C 1176.99,1138.15 1175.49,1137.32 1174,1136.5C 1172.14,1138.2 1169.97,1139.2 1167.5,1139.5C 1167.72,1138.32 1167.39,1137.32 1166.5,1136.5C 1164.93,1137.31 1163.26,1137.64 1161.5,1137.5C 1161.5,1134.83 1161.5,1132.17 1161.5,1129.5C 1166.06,1129.72 1166.73,1128.22 1163.5,1125C 1166.01,1123.91 1168.51,1122.74 1171,1121.5C 1171.17,1121.17 1171.33,1120.83 1171.5,1120.5C 1170.67,1120.17 1169.83,1119.83 1169,1119.5C 1167.45,1119.95 1165.95,1120.12 1164.5,1120C 1166.5,1118.67 1168.17,1117 1169.5,1115C 1167.71,1114.48 1166.04,1114.81 1164.5,1116C 1163.36,1118.97 1161.36,1121.14 1158.5,1122.5C 1155.34,1119.76 1152.01,1117.26 1148.5,1115C 1150.42,1113.09 1152.76,1111.93 1155.5,1111.5C 1156.65,1109.85 1157.98,1108.35 1159.5,1107C 1157.82,1107.11 1156.16,1107.61 1154.5,1108.5C 1152.3,1108.1 1149.97,1107.93 1147.5,1108C 1148.98,1106.43 1150.65,1105.09 1152.5,1104C 1152.04,1103.59 1151.71,1103.09 1151.5,1102.5C 1155.64,1099.24 1155.31,1097.74 1150.5,1098C 1148.97,1099.36 1147.3,1100.53 1145.5,1101.5C 1145.58,1099.26 1145.25,1096.93 1144.5,1094.5C 1146.29,1093.38 1146.62,1092.04 1145.5,1090.5C 1143.59,1092.16 1141.59,1092.49 1139.5,1091.5C 1141.17,1090.33 1142.83,1089.17 1144.5,1088C 1143.55,1087.38 1142.72,1087.55 1142,1088.5C 1141.22,1086.09 1142.05,1084.43 1144.5,1083.5C 1142.31,1082.23 1140.14,1082.23 1138,1083.5C 1137.13,1082.89 1136.63,1082.06 1136.5,1081C 1140.46,1077.71 1144.46,1074.38 1148.5,1071C 1147.5,1070.33 1146.5,1070.33 1145.5,1071C 1142.11,1073.99 1138.45,1076.49 1134.5,1078.5C 1134.24,1077.02 1134.57,1075.69 1135.5,1074.5C 1137,1073.92 1138.33,1073.08 1139.5,1072C 1137.6,1071.1 1135.94,1069.93 1134.5,1068.5C 1136.31,1064.59 1139.31,1062.09 1143.5,1061C 1146.2,1060.75 1148.87,1060.75 1151.5,1061C 1152.75,1059.54 1152.75,1058.04 1151.5,1056.5C 1152.74,1055.64 1154.07,1054.98 1155.5,1054.5C 1156.2,1056.38 1157.2,1056.72 1158.5,1055.5C 1159.24,1053.89 1159.41,1052.23 1159,1050.5C 1160.15,1049.26 1161.49,1048.26 1163,1047.5C 1163.33,1048.17 1163.67,1048.83 1164,1049.5C 1166.02,1048.01 1167.69,1048.34 1169,1050.5C 1170.07,1049.81 1171.23,1049.31 1172.5,1049C 1173.83,1048 1173.83,1047 1172.5,1046C 1174.47,1044.11 1176.47,1042.95 1178.5,1042.5C 1176.77,1041.66 1174.94,1041.66 1173,1042.5C 1171.87,1040.95 1170.37,1039.62 1168.5,1038.5C 1169.87,1037.54 1171.37,1036.88 1173,1036.5C 1174.81,1037.42 1174.64,1038.26 1172.5,1039C 1173.79,1039.49 1175.13,1039.66 1176.5,1039.5C 1176.26,1038.21 1176.6,1037.21 1177.5,1036.5 Z"/></g>
<g><path style="opacity:1" fill="#f67b0e" d="M 1194.5,1046.5 C 1194.19,1049.39 1194.53,1052.05 1195.5,1054.5C 1197.8,1067.35 1199.8,1080.35 1201.5,1093.5C 1198.21,1094.21 1194.88,1094.54 1191.5,1094.5C 1190.4,1100.2 1190.4,1105.86 1191.5,1111.5C 1194.43,1112.48 1197.43,1112.82 1200.5,1112.5C 1205.26,1112.23 1209.93,1112.56 1214.5,1113.5C 1214.2,1118.1 1214.53,1122.6 1215.5,1127C 1220.17,1127.67 1224.83,1127.67 1229.5,1127C 1229.97,1120.92 1229.97,1114.76 1229.5,1108.5C 1231.17,1108.5 1232.83,1108.5 1234.5,1108.5C 1234.62,1111.86 1234.95,1115.19 1235.5,1118.5C 1235.23,1121.12 1235.56,1123.62 1236.5,1126C 1241.25,1126.77 1245.92,1126.61 1250.5,1125.5C 1252.87,1123.65 1255.53,1122.32 1258.5,1121.5C 1259.61,1123.23 1261.77,1124.23 1265,1124.5C 1268.91,1123.92 1272.41,1122.42 1275.5,1120C 1278.41,1120.28 1281.24,1120.12 1284,1119.5C 1284.69,1120.33 1284.52,1121 1283.5,1121.5C 1280.66,1123.09 1277.99,1124.92 1275.5,1127C 1276.17,1127.17 1276.83,1127.33 1277.5,1127.5C 1284.34,1124.33 1290.51,1120.99 1296,1117.5C 1296.5,1117.67 1297,1117.83 1297.5,1118C 1297.15,1119.63 1297.15,1121.46 1297.5,1123.5C 1292.5,1123.36 1287.84,1124.36 1283.5,1126.5C 1283.08,1128.95 1284.08,1130.28 1286.5,1130.5C 1288.76,1129.35 1291.09,1128.85 1293.5,1129C 1291.23,1133.04 1287.9,1134.38 1283.5,1133C 1283.17,1132 1282.83,1131 1282.5,1130C 1280.19,1129.5 1277.86,1129.34 1275.5,1129.5C 1275.12,1131.93 1274.45,1134.26 1273.5,1136.5C 1272.32,1136.28 1271.32,1136.61 1270.5,1137.5C 1269.11,1138.69 1269.27,1139.35 1271,1139.5C 1274.18,1138.04 1277.51,1137.04 1281,1136.5C 1281.17,1136.83 1281.33,1137.17 1281.5,1137.5C 1279.63,1138.62 1277.63,1139.46 1275.5,1140C 1276.71,1140.89 1276.71,1141.73 1275.5,1142.5C 1268.5,1145.5 1261.5,1148.5 1254.5,1151.5C 1253.71,1152.24 1253.05,1153.08 1252.5,1154C 1254.49,1153.86 1256.49,1153.36 1258.5,1152.5C 1259.67,1152.92 1260.67,1153.59 1261.5,1154.5C 1262.83,1153.5 1264.17,1152.5 1265.5,1151.5C 1266.83,1152.17 1266.83,1152.83 1265.5,1153.5C 1258.88,1156.05 1252.55,1159.22 1246.5,1163C 1246.83,1163.5 1247.17,1164 1247.5,1164.5C 1252.41,1160.56 1257.91,1159.23 1264,1160.5C 1267.02,1159.74 1269.86,1158.57 1272.5,1157C 1275.15,1156.5 1277.81,1156.34 1280.5,1156.5C 1277.08,1159.87 1273.08,1162.21 1268.5,1163.5C 1265.15,1163.33 1261.82,1163.5 1258.5,1164C 1254.89,1165.19 1251.22,1166.53 1247.5,1168C 1234.82,1168.66 1222.15,1168.49 1209.5,1167.5C 1205.04,1165.79 1200.37,1164.29 1195.5,1163C 1148.84,1138.87 1126.51,1100.37 1128.5,1047.5C 1129.3,1048.95 1129.8,1050.62 1130,1052.5C 1130.84,1050.99 1132,1050.49 1133.5,1051C 1132.29,1052.11 1132.29,1053.28 1133.5,1054.5C 1133.02,1055.48 1132.36,1056.31 1131.5,1057C 1132.17,1057.17 1132.83,1057.33 1133.5,1057.5C 1136.44,1055.19 1139.77,1053.85 1143.5,1053.5C 1143.5,1054.83 1143.5,1056.17 1143.5,1057.5C 1141.4,1057.2 1139.4,1057.53 1137.5,1058.5C 1135.66,1059.92 1133.66,1061.09 1131.5,1062C 1130.66,1063.01 1130.33,1064.18 1130.5,1065.5C 1131.87,1065.34 1133.21,1065.51 1134.5,1066C 1133.91,1068.51 1132.58,1070.51 1130.5,1072C 1131.45,1072.48 1132.45,1072.65 1133.5,1072.5C 1133.74,1074.47 1133.41,1076.3 1132.5,1078C 1133.09,1078.46 1133.76,1078.63 1134.5,1078.5C 1138.45,1076.49 1142.11,1073.99 1145.5,1071C 1146.5,1070.33 1147.5,1070.33 1148.5,1071C 1144.46,1074.38 1140.46,1077.71 1136.5,1081C 1136.63,1082.06 1137.13,1082.89 1138,1083.5C 1140.14,1082.23 1142.31,1082.23 1144.5,1083.5C 1142.05,1084.43 1141.22,1086.09 1142,1088.5C 1142.72,1087.55 1143.55,1087.38 1144.5,1088C 1142.83,1089.17 1141.17,1090.33 1139.5,1091.5C 1141.59,1092.49 1143.59,1092.16 1145.5,1090.5C 1146.62,1092.04 1146.29,1093.38 1144.5,1094.5C 1145.25,1096.93 1145.58,1099.26 1145.5,1101.5C 1147.3,1100.53 1148.97,1099.36 1150.5,1098C 1155.31,1097.74 1155.64,1099.24 1151.5,1102.5C 1151.71,1103.09 1152.04,1103.59 1152.5,1104C 1150.65,1105.09 1148.98,1106.43 1147.5,1108C 1149.97,1107.93 1152.3,1108.1 1154.5,1108.5C 1156.16,1107.61 1157.82,1107.11 1159.5,1107C 1157.98,1108.35 1156.65,1109.85 1155.5,1111.5C 1152.76,1111.93 1150.42,1113.09 1148.5,1115C 1152.01,1117.26 1155.34,1119.76 1158.5,1122.5C 1161.36,1121.14 1163.36,1118.97 1164.5,1116C 1166.04,1114.81 1167.71,1114.48 1169.5,1115C 1168.17,1117 1166.5,1118.67 1164.5,1120C 1165.95,1120.12 1167.45,1119.95 1169,1119.5C 1169.83,1119.83 1170.67,1120.17 1171.5,1120.5C 1171.33,1120.83 1171.17,1121.17 1171,1121.5C 1168.51,1122.74 1166.01,1123.91 1163.5,1125C 1166.73,1128.22 1166.06,1129.72 1161.5,1129.5C 1161.5,1132.17 1161.5,1134.83 1161.5,1137.5C 1163.26,1137.64 1164.93,1137.31 1166.5,1136.5C 1167.39,1137.32 1167.72,1138.32 1167.5,1139.5C 1169.97,1139.2 1172.14,1138.2 1174,1136.5C 1175.49,1137.32 1176.99,1138.15 1178.5,1139C 1177.29,1141.23 1177.96,1142.9 1180.5,1144C 1179.29,1144.89 1179.29,1145.73 1180.5,1146.5C 1183.96,1144.61 1187.63,1144.11 1191.5,1145C 1189.29,1146.71 1187.62,1148.88 1186.5,1151.5C 1187,1151.83 1187.5,1152.17 1188,1152.5C 1190.4,1150.02 1192.74,1150.02 1195,1152.5C 1196.39,1151.45 1197.89,1151.28 1199.5,1152C 1197.65,1154.02 1195.65,1155.85 1193.5,1157.5C 1193.99,1159.5 1195.15,1160.83 1197,1161.5C 1199.63,1160.04 1201.8,1158.04 1203.5,1155.5C 1204.61,1156.61 1205.94,1157.28 1207.5,1157.5C 1210.93,1156.02 1214.27,1156.19 1217.5,1158C 1215.98,1159.35 1214.65,1160.85 1213.5,1162.5C 1214.17,1162.83 1214.83,1163.17 1215.5,1163.5C 1216.86,1162.8 1218.03,1162.8 1219,1163.5C 1223.36,1161.53 1227.52,1159.2 1231.5,1156.5C 1232.09,1156.71 1232.59,1157.04 1233,1157.5C 1235.63,1156.53 1237.63,1154.86 1239,1152.5C 1239.33,1153.83 1239.67,1155.17 1240,1156.5C 1243.47,1154.28 1243.3,1152.45 1239.5,1151C 1235.12,1151.27 1231.12,1152.77 1227.5,1155.5C 1227.19,1154.11 1227.19,1152.45 1227.5,1150.5C 1226.13,1150.66 1224.79,1150.49 1223.5,1150C 1229.68,1146.35 1236.01,1142.85 1242.5,1139.5C 1247,1138.46 1251.17,1136.79 1255,1134.5C 1255.33,1134.83 1255.67,1135.17 1256,1135.5C 1258.31,1132.59 1261.15,1131.92 1264.5,1133.5C 1264.67,1132.18 1264.34,1131.01 1263.5,1130C 1261.42,1129.81 1259.42,1129.31 1257.5,1128.5C 1256.77,1126.99 1256.44,1125.66 1256.5,1124.5C 1253.4,1125.77 1253.07,1127.27 1255.5,1129C 1254.02,1130.57 1252.35,1131.91 1250.5,1133C 1235.57,1139.3 1220.9,1146.47 1206.5,1154.5C 1205.5,1154.33 1204.5,1154.17 1203.5,1154C 1212.1,1149.44 1220.77,1144.78 1229.5,1140C 1235.65,1138.81 1240.98,1136.14 1245.5,1132C 1243.14,1131.84 1240.81,1131.84 1238.5,1132C 1239.5,1131 1240.5,1130 1241.5,1129C 1241.17,1128.83 1240.83,1128.67 1240.5,1128.5C 1236.95,1129.77 1233.95,1131.77 1231.5,1134.5C 1231.17,1134 1230.83,1133.5 1230.5,1133C 1234.37,1129.51 1233.54,1128.68 1228,1130.5C 1222.99,1128.24 1217.83,1127.9 1212.5,1129.5C 1213.83,1124.5 1213.83,1119.5 1212.5,1114.5C 1205.87,1113.45 1199.2,1113.29 1192.5,1114C 1190.23,1116.12 1187.9,1116.45 1185.5,1115C 1187.17,1114.67 1188.83,1114.33 1190.5,1114C 1189.24,1112.89 1188.07,1112.72 1187,1113.5C 1186.28,1111.89 1186.45,1110.39 1187.5,1109C 1184.17,1105.98 1184.17,1103.15 1187.5,1100.5C 1186.83,1100.17 1186.17,1099.83 1185.5,1099.5C 1183.95,1100.73 1182.28,1101.23 1180.5,1101C 1183.5,1098 1186.5,1095 1189.5,1092C 1193.29,1092.22 1196.29,1090.89 1198.5,1088C 1196.34,1083.69 1194.34,1084.02 1192.5,1089C 1191.06,1089.78 1189.72,1089.61 1188.5,1088.5C 1188.83,1087.83 1189.17,1087.17 1189.5,1086.5C 1186.67,1085.13 1184.34,1085.79 1182.5,1088.5C 1182.17,1087.83 1181.83,1087.17 1181.5,1086.5C 1182.45,1084.71 1183.29,1083.05 1184,1081.5C 1183.31,1080.64 1182.48,1079.98 1181.5,1079.5C 1180.38,1080.83 1179.05,1081.33 1177.5,1081C 1180.11,1079 1182.78,1077 1185.5,1075C 1184.21,1074.51 1182.87,1074.34 1181.5,1074.5C 1181.42,1073.07 1181.75,1071.74 1182.5,1070.5C 1180.95,1069.32 1179.29,1068.32 1177.5,1067.5C 1178.53,1066.55 1179.7,1066.55 1181,1067.5C 1185.48,1065.85 1187.31,1062.85 1186.5,1058.5C 1182.61,1058.99 1182.61,1058.16 1186.5,1056C 1185.48,1054.95 1185.32,1053.78 1186,1052.5C 1189.43,1050.64 1189.26,1049.81 1185.5,1050C 1183.75,1051.29 1181.92,1052.46 1180,1053.5C 1179.5,1053 1179,1052.5 1178.5,1052C 1181.24,1049.57 1184.24,1047.57 1187.5,1046C 1189.93,1045.3 1192.26,1045.46 1194.5,1046.5 Z"/></g>
<g><path style="opacity:0.996" fill="#b7600d" d="M 1235.5,1118.5 C 1236.22,1120.56 1236.88,1122.72 1237.5,1125C 1239.17,1125.17 1240.83,1125.33 1242.5,1125.5C 1246.96,1125.89 1249.29,1123.89 1249.5,1119.5C 1250.46,1121.26 1250.79,1123.26 1250.5,1125.5C 1245.92,1126.61 1241.25,1126.77 1236.5,1126C 1235.56,1123.62 1235.23,1121.12 1235.5,1118.5 Z"/></g>
<g><path style="opacity:0.98" fill="#7a3b07" d="M 1200.5,1112.5 C 1200.5,1112.17 1200.5,1111.83 1200.5,1111.5C 1205.62,1110.9 1210.29,1111.56 1214.5,1113.5C 1209.93,1112.56 1205.26,1112.23 1200.5,1112.5 Z"/></g>
<g><path style="opacity:0.993" fill="#d46409" d="M 1268.5,1163.5 C 1249.25,1171.05 1229.58,1172.38 1209.5,1167.5C 1222.15,1168.49 1234.82,1168.66 1247.5,1168C 1251.22,1166.53 1254.89,1165.19 1258.5,1164C 1261.82,1163.5 1265.15,1163.33 1268.5,1163.5 Z"/></g>
<g><path style="opacity:0.084" fill="#060240" d="M 1376.5,1222.5 C 1381.4,1224.62 1381.73,1227.45 1377.5,1231C 1372.34,1232.83 1367.67,1235.5 1363.5,1239C 1358.5,1239 1357.5,1237 1360.5,1233C 1366.07,1229.72 1371.4,1226.22 1376.5,1222.5 Z"/></g>
</svg>
