<?xml version="1.0" encoding="UTF-8"?>
<!DOCTYPE svg PUBLIC "-//W3C//DTD SVG 1.1//EN" "http://www.w3.org/Graphics/SVG/1.1/DTD/svg11.dtd">
<svg xmlns="http://www.w3.org/2000/svg" version="1.1" width="2048px" height="2048px" style="shape-rendering:geometricPrecision; text-rendering:geometricPrecision; image-rendering:optimizeQuality; fill-rule:evenodd; clip-rule:evenodd" xmlns:xlink="http://www.w3.org/1999/xlink">
<g><path style="opacity:0.803" fill="#060800" d="M 752.5,434.5 C 783.547,435.803 814.214,439.469 844.5,445.5C 867.361,451.933 889.028,461.1 909.5,473C 941.011,492.449 970.011,515.282 996.5,541.5C 998.078,542.298 999.744,542.798 1001.5,543C 1009.17,550 1016.83,557 1024.5,564C 1037.66,579.159 1051.49,593.659 1066,607.5C 1077.58,622.75 1090.25,637.083 1104,650.5C 1116.62,666.79 1129.62,682.79 1143,698.5C 1144.92,702.004 1147.08,705.337 1149.5,708.5C 1185.62,745.093 1220.12,783.093 1253,822.5C 1268.82,842.81 1284.15,863.477 1299,884.5C 1299.67,887.167 1299.67,889.833 1299,892.5C 1297.7,894.402 1297.03,896.402 1297,898.5C 1303.79,904.286 1309.46,910.952 1314,918.5C 1347.78,952.28 1379.45,987.947 1409,1025.5C 1416.69,1033.53 1424.36,1041.53 1432,1049.5C 1450.73,1073.98 1471.06,1096.98 1493,1118.5C 1510.34,1139.21 1527.68,1159.87 1545,1180.5C 1557.31,1194.14 1570.31,1207.14 1584,1219.5C 1594.8,1235.41 1606.8,1250.41 1620,1264.5C 1627.05,1273.22 1633.72,1282.22 1640,1291.5C 1650.53,1302.03 1659.53,1313.69 1667,1326.5C 1674.47,1345.25 1682.14,1363.91 1690,1382.5C 1696.11,1400.86 1699.28,1419.53 1699.5,1438.5C 1703.8,1467.67 1705.63,1497 1705,1526.5C 1703.34,1557.16 1696.34,1586.49 1684,1614.5C 1669.64,1643.54 1653.98,1671.88 1637,1699.5C 1633.62,1702.88 1630.62,1706.54 1628,1710.5C 1577.2,1759.17 1518.37,1795 1451.5,1818C 1420.29,1825.65 1388.63,1830.48 1356.5,1832.5C 1342.21,1832.34 1328.38,1830 1315,1825.5C 1305.12,1825.65 1295.62,1823.48 1286.5,1819C 1271,1815.84 1255.67,1811.84 1240.5,1807C 1228.34,1802.61 1216.34,1797.61 1204.5,1792C 1188.96,1783.07 1173.96,1773.4 1159.5,1763C 1145.03,1750.2 1130.87,1737.03 1117,1723.5C 1087.18,1689.16 1057.85,1654.5 1029,1619.5C 1019.91,1606.32 1010.58,1593.32 1001,1580.5C 997.779,1577.14 994.279,1574.14 990.5,1571.5C 982.763,1559.39 973.596,1548.39 963,1538.5C 943.03,1508.91 921.364,1480.57 898,1453.5C 889.54,1440.26 879.873,1427.93 869,1416.5C 859.574,1401 848.24,1387 835,1374.5C 827.52,1364.89 820.52,1354.89 814,1344.5C 811.54,1343.04 809.373,1341.21 807.5,1339C 802.856,1339.29 798.189,1339.29 793.5,1339C 787.622,1337.39 781.956,1335.23 776.5,1332.5C 762.877,1317.71 749.044,1303.04 735,1288.5C 696.906,1241.32 658.573,1194.32 620,1147.5C 603.089,1124.68 586.422,1101.68 570,1078.5C 550.5,1057.84 532.166,1036.17 515,1013.5C 509.366,1006.86 503.366,1000.53 497,994.5C 473.916,963.737 454.583,930.737 439,895.5C 436.667,894.5 435,892.833 434,890.5C 430.764,877.527 427.764,864.194 425,850.5C 423.339,828.881 421.173,807.381 418.5,786C 417.323,761.382 419.823,736.882 426,712.5C 434.111,690.177 443.778,668.51 455,647.5C 472.497,615.827 491.497,585.161 512,555.5C 520.749,546.756 528.749,537.422 536,527.5C 545.404,518.48 554.904,509.647 564.5,501C 584.371,488.23 604.705,476.23 625.5,465C 653.778,456.129 682.111,447.463 710.5,439C 724.646,437.463 738.646,435.963 752.5,434.5 Z"/></g>
<g><path style="opacity:1" fill="#5b3f09" d="M 770.5,442.5 C 763.5,442.5 756.5,442.5 749.5,442.5C 752.983,441.598 756.65,440.932 760.5,440.5C 762.72,441.602 764.887,441.602 767,440.5C 768.699,440.387 769.866,441.053 770.5,442.5 Z"/></g>
<g><path style="opacity:1" fill="#583f0a" d="M 748.5,442.5 C 742.3,443.243 735.966,443.91 729.5,444.5C 729.953,443.542 730.619,442.708 731.5,442C 737.188,441.446 742.855,441.613 748.5,442.5 Z"/></g>
<g><path style="opacity:1" fill="#425727" d="M 748.5,442.5 C 748.833,442.5 749.167,442.5 749.5,442.5C 756.5,442.5 763.5,442.5 770.5,442.5C 774.371,442.185 778.038,442.518 781.5,443.5C 785.634,444.485 789.968,444.818 794.5,444.5C 798.657,445.449 802.99,446.116 807.5,446.5C 808.167,446.5 808.833,446.5 809.5,446.5C 812.995,446.808 816.662,447.474 820.5,448.5C 823.874,450.07 827.541,451.237 831.5,452C 834.146,452.497 836.813,452.664 839.5,452.5C 840.5,452.5 841.5,452.5 842.5,452.5C 846.403,454.898 850.736,456.231 855.5,456.5C 860.86,457.36 865.86,459.027 870.5,461.5C 872.426,463.293 874.759,464.293 877.5,464.5C 878.492,464.328 879.158,464.662 879.5,465.5C 880.78,466.931 882.447,467.598 884.5,467.5C 885.791,467.263 886.791,467.596 887.5,468.5C 890.678,471.258 894.345,473.258 898.5,474.5C 901.096,477.476 904.43,479.476 908.5,480.5C 910.702,482.954 913.368,484.954 916.5,486.5C 918.366,487.014 920.2,487.68 922,488.5C 924.067,491.069 926.567,493.069 929.5,494.5C 931.296,496.9 933.63,498.567 936.5,499.5C 945.23,505.06 953.23,511.56 960.5,519C 971.247,525.582 980.58,533.748 988.5,543.5C 988.833,546.5 990.5,548.167 993.5,548.5C 997.32,551.946 1000.99,556.279 1004.5,561.5C 1017.17,573.06 1029.84,584.893 1042.5,597C 1043.45,597.483 1044.45,597.649 1045.5,597.5C 1046.5,600.5 1048.5,602.5 1051.5,603.5C 1052.73,606.253 1054.23,608.92 1056,611.5C 1057.01,612.337 1058.18,612.67 1059.5,612.5C 1060.79,615.117 1062.45,617.45 1064.5,619.5C 1065.42,622.089 1067.09,624.089 1069.5,625.5C 1069.83,625.5 1070.17,625.5 1070.5,625.5C 1072.11,630.104 1075.11,633.438 1079.5,635.5C 1079.75,637.674 1080.75,639.341 1082.5,640.5C 1085.15,643.165 1087.49,646.165 1089.5,649.5C 1090.17,651.5 1091.5,652.833 1093.5,653.5C 1097.23,657.227 1100.57,661.227 1103.5,665.5C 1104.76,668.427 1106.76,670.761 1109.5,672.5C 1113.48,676.49 1117.15,680.823 1120.5,685.5C 1123.03,690.706 1126.7,695.04 1131.5,698.5C 1136.64,705.973 1142.31,712.973 1148.5,719.5C 1149.29,720.401 1150.29,721.068 1151.5,721.5C 1161.06,729.306 1169.73,737.973 1177.5,747.5C 1178.08,749.749 1179.41,751.415 1181.5,752.5C 1181.37,753.239 1181.54,753.906 1182,754.5C 1185.33,757.002 1188.5,759.668 1191.5,762.5C 1194.21,765.208 1196.54,768.208 1198.5,771.5C 1199.76,774.427 1201.76,776.761 1204.5,778.5C 1205.5,778.414 1206.33,778.748 1207,779.5C 1217.36,792.357 1227.86,805.023 1238.5,817.5C 1239.08,819.749 1240.41,821.415 1242.5,822.5C 1243.5,823.167 1244.5,823.833 1245.5,824.5C 1245.37,827.367 1246.7,829.033 1249.5,829.5C 1249.5,830.167 1249.5,830.833 1249.5,831.5C 1250.08,833.749 1251.41,835.415 1253.5,836.5C 1254.83,837.167 1255.83,838.167 1256.5,839.5C 1258,843.173 1260,846.506 1262.5,849.5C 1270.13,858.066 1277.29,867.066 1284,876.5C 1284.74,877.749 1284.57,878.749 1283.5,879.5C 1280.81,879.336 1278.15,879.503 1275.5,880C 1274.58,880.278 1273.92,880.778 1273.5,881.5C 1270.74,882.92 1267.74,883.587 1264.5,883.5C 1255.55,884.809 1247.22,887.475 1239.5,891.5C 1230.91,895.696 1222.24,899.696 1213.5,903.5C 1210.69,903.025 1208.69,904.025 1207.5,906.5C 1203.07,907.588 1199.4,909.921 1196.5,913.5C 1194.95,914.452 1193.29,914.785 1191.5,914.5C 1188.48,916.211 1185.81,918.211 1183.5,920.5C 1168.76,929.528 1154.1,938.528 1139.5,947.5C 1136.33,948.436 1133.66,950.103 1131.5,952.5C 1129.16,953.857 1126.83,955.19 1124.5,956.5C 1121.75,958.175 1119.09,959.842 1116.5,961.5C 1112.99,963.468 1109.33,965.302 1105.5,967C 1095.59,977.151 1084.59,986.151 1072.5,994C 1057.14,1007.34 1041.14,1020.01 1024.5,1032C 1019.99,1036.68 1015.32,1041.18 1010.5,1045.5C 997.933,1053.1 987.6,1062.43 979.5,1073.5C 975.595,1074.75 972.595,1077.08 970.5,1080.5C 968.251,1081.08 966.585,1082.41 965.5,1084.5C 960.531,1089.8 955.198,1094.8 949.5,1099.5C 948.29,1099.93 947.29,1100.6 946.5,1101.5C 946.5,1102.17 946.167,1102.5 945.5,1102.5C 943.833,1103.5 942.5,1104.83 941.5,1106.5C 940.71,1107.4 939.71,1108.07 938.5,1108.5C 936.167,1110.83 933.833,1113.17 931.5,1115.5C 930.833,1116.83 929.833,1117.83 928.5,1118.5C 926.5,1119.83 924.833,1121.5 923.5,1123.5C 918.1,1128.22 913.1,1133.38 908.5,1139C 907.906,1139.46 907.239,1139.63 906.5,1139.5C 903.195,1143.14 899.862,1146.81 896.5,1150.5C 895.833,1151.83 894.833,1152.83 893.5,1153.5C 891.674,1155.15 890.34,1157.15 889.5,1159.5C 887.896,1160.29 887.229,1161.62 887.5,1163.5C 886.448,1163.35 885.448,1163.52 884.5,1164C 879.497,1171.2 873.497,1177.37 866.5,1182.5C 864.413,1183.58 863.08,1185.25 862.5,1187.5C 856.784,1193.72 851.617,1200.39 847,1207.5C 839.532,1215.79 832.032,1223.79 824.5,1231.5C 821.757,1233.24 819.757,1235.57 818.5,1238.5C 816.413,1239.58 815.08,1241.25 814.5,1243.5C 809.605,1248.94 804.939,1254.61 800.5,1260.5C 799.523,1262.41 798.857,1264.41 798.5,1266.5C 796.745,1269.68 794.745,1272.68 792.5,1275.5C 789.723,1277.95 787.723,1280.95 786.5,1284.5C 784.896,1285.29 784.229,1286.62 784.5,1288.5C 783.5,1288.5 782.5,1288.5 781.5,1288.5C 780.956,1290.58 780.122,1292.58 779,1294.5C 778.331,1302.41 776.831,1310.08 774.5,1317.5C 773.583,1316.87 772.583,1316.54 771.5,1316.5C 751.273,1297.95 733.273,1277.62 717.5,1255.5C 717.334,1252.83 716.334,1250.5 714.5,1248.5C 713.423,1247.29 712.09,1246.63 710.5,1246.5C 709.026,1245.56 708.026,1244.23 707.5,1242.5C 706.551,1240.26 705.884,1237.93 705.5,1235.5C 703.678,1235.17 702.011,1234.5 700.5,1233.5C 688.419,1220.42 677.086,1206.76 666.5,1192.5C 665.657,1189.48 664.157,1186.82 662,1184.5C 660.871,1182.86 659.371,1181.86 657.5,1181.5C 655.588,1179.34 653.921,1177.01 652.5,1174.5C 651.864,1172.21 650.531,1170.54 648.5,1169.5C 647.92,1167.25 646.587,1165.58 644.5,1164.5C 644.167,1163.83 643.833,1163.17 643.5,1162.5C 642.164,1160.99 640.997,1159.32 640,1157.5C 639.184,1156.18 638.017,1155.51 636.5,1155.5C 636.5,1155.17 636.5,1154.83 636.5,1154.5C 634.6,1151.71 632.933,1148.71 631.5,1145.5C 630.583,1144.87 629.583,1144.54 628.5,1144.5C 627.903,1141.51 626.57,1138.84 624.5,1136.5C 623.583,1135.87 622.583,1135.54 621.5,1135.5C 620.647,1131.98 618.647,1129.31 615.5,1127.5C 614.5,1127.17 613.833,1126.5 613.5,1125.5C 612.864,1123.21 611.531,1121.54 609.5,1120.5C 608.256,1115.69 605.59,1112.03 601.5,1109.5C 593.033,1100.52 585.867,1090.52 580,1079.5C 576.271,1075.6 572.438,1071.94 568.5,1068.5C 565.21,1062.91 561.21,1057.91 556.5,1053.5C 554.856,1053.19 553.856,1052.19 553.5,1050.5C 553.269,1047.94 551.935,1046.27 549.5,1045.5C 549.115,1041.7 547.115,1039.37 543.5,1038.5C 538.479,1032.97 533.979,1026.97 530,1020.5C 528.296,1018.63 526.463,1016.96 524.5,1015.5C 523.588,1013.4 522.421,1011.4 521,1009.5C 517.454,1006.95 514.621,1003.79 512.5,1000C 511.906,999.536 511.239,999.369 510.5,999.5C 508.906,996.236 506.573,993.569 503.5,991.5C 498.73,984.276 493.73,977.276 488.5,970.5C 487.404,967.968 486.071,965.635 484.5,963.5C 484.167,963.5 483.833,963.5 483.5,963.5C 481.9,957.36 478.567,952.36 473.5,948.5C 471.456,944.715 469.79,940.715 468.5,936.5C 467.817,936.137 467.15,935.804 466.5,935.5C 465.226,932.24 463.56,929.24 461.5,926.5C 459.205,922.684 457.205,918.684 455.5,914.5C 454.488,908.814 452.155,903.814 448.5,899.5C 447.662,899.158 447.328,898.492 447.5,897.5C 446.492,895.456 445.492,893.456 444.5,891.5C 443.662,891.158 443.328,890.492 443.5,889.5C 443.052,886.318 441.718,883.651 439.5,881.5C 439.371,879.784 439.038,878.117 438.5,876.5C 436.639,870.036 434.639,863.703 432.5,857.5C 432.577,853.785 432.244,850.119 431.5,846.5C 431.033,836.336 430.366,826.336 429.5,816.5C 429.279,813.933 428.612,811.599 427.5,809.5C 427.795,807.265 427.461,805.265 426.5,803.5C 426.5,803.167 426.5,802.833 426.5,802.5C 426.5,785.167 426.5,767.833 426.5,750.5C 426.423,746.785 426.756,743.119 427.5,739.5C 428.281,734.503 429.281,729.503 430.5,724.5C 431.31,718.897 432.643,713.397 434.5,708C 433.057,705.922 433.724,705.089 436.5,705.5C 438.16,700.844 439.826,696.177 441.5,691.5C 443.31,688.855 444.31,685.855 444.5,682.5C 445.167,681.5 445.833,680.5 446.5,679.5C 448.975,678.313 449.975,676.313 449.5,673.5C 455.938,659.961 462.938,646.628 470.5,633.5C 470.291,632.914 469.957,632.414 469.5,632C 470.931,631.535 472.097,630.701 473,629.5C 473.872,625.819 475.706,622.819 478.5,620.5C 480.341,618.151 481.674,615.485 482.5,612.5C 482.5,611.167 483.167,610.5 484.5,610.5C 487.416,607.788 489.416,604.454 490.5,600.5C 489.509,598.877 490.176,597.877 492.5,597.5C 493.376,597.631 494.043,597.298 494.5,596.5C 495.32,594.026 496.32,591.693 497.5,589.5C 499.104,588.713 499.771,587.38 499.5,585.5C 505.72,576.092 512.22,566.759 519,557.5C 522.05,553.905 525.216,550.405 528.5,547C 529.094,546.536 529.761,546.369 530.5,546.5C 534.622,544.315 537.289,540.982 538.5,536.5C 540.19,534.481 541.856,532.481 543.5,530.5C 545.543,528.491 547.543,526.491 549.5,524.5C 552.764,522.906 555.431,520.573 557.5,517.5C 560.368,514.312 563.368,511.145 566.5,508C 574.547,502.644 582.881,497.811 591.5,493.5C 592.853,492.476 593.52,491.143 593.5,489.5C 603.95,485.904 613.617,480.737 622.5,474C 628.477,470.757 634.81,468.59 641.5,467.5C 647.261,467.564 652.261,465.898 656.5,462.5C 659.518,462.665 662.518,462.498 665.5,462C 672.233,459.228 678.9,456.394 685.5,453.5C 691.225,453.33 696.558,451.996 701.5,449.5C 704.251,447.025 707.584,446.025 711.5,446.5C 717.669,446.082 723.669,445.415 729.5,444.5C 735.966,443.91 742.3,443.243 748.5,442.5 Z"/></g>
<g><path style="opacity:1" fill="#5b420a" d="M 794.5,444.5 C 789.968,444.818 785.634,444.485 781.5,443.5C 784.988,443.022 788.322,442.689 791.5,442.5C 792.739,442.942 793.739,443.609 794.5,444.5 Z"/></g>
<g><path style="opacity:1" fill="#544613" d="M 729.5,444.5 C 723.669,445.415 717.669,446.082 711.5,446.5C 714.327,445.719 716.993,444.386 719.5,442.5C 722.791,443.382 726.124,444.048 729.5,444.5 Z"/></g>
<g><path style="opacity:1" fill="#5d3a04" d="M 807.5,446.5 C 802.99,446.116 798.657,445.449 794.5,444.5C 796.92,444.708 799.253,444.374 801.5,443.5C 803.604,444.519 805.604,445.519 807.5,446.5 Z"/></g>
<g><path style="opacity:1" fill="#543304" d="M 820.5,448.5 C 816.662,447.474 812.995,446.808 809.5,446.5C 813.732,444.67 817.399,445.337 820.5,448.5 Z"/></g>
<g><path style="opacity:1" fill="#544c18" d="M 820.5,448.5 C 827.243,448.55 833.576,449.883 839.5,452.5C 836.813,452.664 834.146,452.497 831.5,452C 827.541,451.237 823.874,450.07 820.5,448.5 Z"/></g>
<g><path style="opacity:1" fill="#534614" d="M 701.5,449.5 C 696.558,451.996 691.225,453.33 685.5,453.5C 690.428,451.268 695.761,449.934 701.5,449.5 Z"/></g>
<g><path style="opacity:1" fill="#504c1a" d="M 842.5,452.5 C 845.85,452.335 849.183,452.502 852.5,453C 854.063,453.759 855.063,454.926 855.5,456.5C 850.736,456.231 846.403,454.898 842.5,452.5 Z"/></g>
<g><path style="opacity:1" fill="#603802" d="M 672.5,457.5 C 670.972,458.309 669.306,458.976 667.5,459.5C 667.343,458.127 667.51,456.793 668,455.5C 669.11,457.037 670.61,457.703 672.5,457.5 Z"/></g>
<g><path style="opacity:1" fill="#4f4e1b" d="M 685.5,453.5 C 678.9,456.394 672.233,459.228 665.5,462C 662.518,462.498 659.518,462.665 656.5,462.5C 660.019,461.368 663.686,460.368 667.5,459.5C 669.306,458.976 670.972,458.309 672.5,457.5C 673.794,456.71 674.961,455.71 676,454.5C 676.561,455.022 677.228,455.355 678,455.5C 680.433,454.521 682.933,453.855 685.5,453.5 Z"/></g>
<g><path style="opacity:1" fill="#4a2a05" d="M 870.5,461.5 C 873.461,461.464 875.794,462.464 877.5,464.5C 874.759,464.293 872.426,463.293 870.5,461.5 Z"/></g>
<g><path style="opacity:1" fill="#554914" d="M 656.5,462.5 C 652.261,465.898 647.261,467.564 641.5,467.5C 642.693,465.246 644.36,464.58 646.5,465.5C 649.687,463.996 653.021,462.996 656.5,462.5 Z"/></g>
<g><path style="opacity:1" fill="#4e2f06" d="M 879.5,465.5 C 881.781,465.077 883.448,465.744 884.5,467.5C 882.447,467.598 880.78,466.931 879.5,465.5 Z"/></g>
<g><path style="opacity:1" fill="#543406" d="M 887.5,468.5 C 890.641,468.949 893.641,469.949 896.5,471.5C 897.425,472.357 898.092,473.357 898.5,474.5C 894.345,473.258 890.678,471.258 887.5,468.5 Z"/></g>
<g><path style="opacity:1" fill="#533708" d="M 898.5,474.5 C 901.023,475.801 903.69,476.801 906.5,477.5C 907.425,478.357 908.092,479.357 908.5,480.5C 904.43,479.476 901.096,477.476 898.5,474.5 Z"/></g>
<g><path style="opacity:1" fill="#533b0b" d="M 908.5,480.5 C 910.954,482.06 913.62,483.06 916.5,483.5C 916.5,484.5 916.5,485.5 916.5,486.5C 913.368,484.954 910.702,482.954 908.5,480.5 Z"/></g>
<g><path style="opacity:1" fill="#543305" d="M 929.5,494.5 C 932.382,495.379 934.715,497.046 936.5,499.5C 933.63,498.567 931.296,496.9 929.5,494.5 Z"/></g>
<g><path style="opacity:1" fill="#554612" d="M 557.5,517.5 C 555.431,520.573 552.764,522.906 549.5,524.5C 551.569,521.427 554.236,519.094 557.5,517.5 Z"/></g>
<g><path style="opacity:1" fill="#573707" d="M 543.5,530.5 C 541.856,532.481 540.19,534.481 538.5,536.5C 537.209,535.527 537.209,534.527 538.5,533.5C 540.029,532.237 541.695,531.237 543.5,530.5 Z"/></g>
<g><path style="opacity:1" fill="#524312" d="M 538.5,536.5 C 537.289,540.982 534.622,544.315 530.5,546.5C 532.794,542.873 535.46,539.539 538.5,536.5 Z"/></g>
<g><path style="opacity:1" fill="#4e3f13" d="M 988.5,543.5 C 991.702,543.537 993.368,545.203 993.5,548.5C 990.5,548.167 988.833,546.5 988.5,543.5 Z"/></g>
<g><path style="opacity:1" fill="#583504" d="M 499.5,585.5 C 499.771,587.38 499.104,588.713 497.5,589.5C 495.998,587.171 496.664,585.837 499.5,585.5 Z"/></g>
<g><path style="opacity:1" fill="#583806" d="M 1004.5,561.5 C 1007.95,562.91 1011.62,563.576 1015.5,563.5C 1015.24,564.978 1015.57,566.311 1016.5,567.5C 1023.89,573.547 1030.39,580.547 1036,588.5C 1039.69,591.029 1042.86,594.029 1045.5,597.5C 1044.45,597.649 1043.45,597.483 1042.5,597C 1029.84,584.893 1017.17,573.06 1004.5,561.5 Z"/></g>
<g><path style="opacity:1" fill="#554914" d="M 497.5,589.5 C 496.32,591.693 495.32,594.026 494.5,596.5C 494.043,597.298 493.376,597.631 492.5,597.5C 492.703,595.956 493.37,594.622 494.5,593.5C 494.291,592.914 493.957,592.414 493.5,592C 494.984,591.338 496.317,590.504 497.5,589.5 Z"/></g>
<g><path style="opacity:1" fill="#5a3704" d="M 1045.5,597.5 C 1048.4,598.614 1050.4,600.614 1051.5,603.5C 1048.5,602.5 1046.5,600.5 1045.5,597.5 Z"/></g>
<g><path style="opacity:1" fill="#4e3c10" d="M 490.5,600.5 C 489.416,604.454 487.416,607.788 484.5,610.5C 485.225,606.331 487.225,602.998 490.5,600.5 Z"/></g>
<g><path style="opacity:1" fill="#593d09" d="M 1051.5,603.5 C 1054.92,605.912 1057.58,608.912 1059.5,612.5C 1058.18,612.67 1057.01,612.337 1056,611.5C 1054.23,608.92 1052.73,606.253 1051.5,603.5 Z"/></g>
<g><path style="opacity:1" fill="#543305" d="M 1059.5,612.5 C 1062.26,613.948 1063.93,616.281 1064.5,619.5C 1062.45,617.45 1060.79,615.117 1059.5,612.5 Z"/></g>
<g><path style="opacity:1" fill="#573a09" d="M 482.5,612.5 C 481.674,615.485 480.341,618.151 478.5,620.5C 478.518,617.079 479.851,614.412 482.5,612.5 Z"/></g>
<g><path style="opacity:1" fill="#59450e" d="M 1064.5,619.5 C 1066.91,620.911 1068.58,622.911 1069.5,625.5C 1067.09,624.089 1065.42,622.089 1064.5,619.5 Z"/></g>
<g><path style="opacity:1" fill="#55420f" d="M 1070.5,625.5 C 1073.49,628.827 1076.49,632.16 1079.5,635.5C 1075.11,633.438 1072.11,630.104 1070.5,625.5 Z"/></g>
<g><path style="opacity:1" fill="#543708" d="M 1079.5,635.5 C 1081.73,636.401 1082.73,638.067 1082.5,640.5C 1080.75,639.341 1079.75,637.674 1079.5,635.5 Z"/></g>
<g><path style="opacity:1" fill="#5a420c" d="M 1089.5,649.5 C 1091.83,649.833 1093.17,651.167 1093.5,653.5C 1093.17,651.167 1091.83,649.833 1089.5,649.5 Z"/></g>
<g><path style="opacity:1" fill="#583f0b" d="M 1103.5,665.5 C 1106.24,667.239 1108.24,669.573 1109.5,672.5C 1106.76,670.761 1104.76,668.427 1103.5,665.5 Z"/></g>
<g><path style="opacity:1" fill="#523d0d" d="M 449.5,673.5 C 449.975,676.313 448.975,678.313 446.5,679.5C 446.511,677.983 447.177,676.816 448.5,676C 447.434,674.841 447.767,674.008 449.5,673.5 Z"/></g>
<g><path style="opacity:1" fill="#4d2b03" d="M 444.5,682.5 C 444.31,685.855 443.31,688.855 441.5,691.5C 441.528,688.084 442.528,685.084 444.5,682.5 Z"/></g>
<g><path style="opacity:1" fill="#513d0e" d="M 1120.5,685.5 C 1121.5,685.5 1122.5,685.5 1123.5,685.5C 1123.35,686.552 1123.52,687.552 1124,688.5C 1126.74,691.729 1129.24,695.062 1131.5,698.5C 1126.7,695.04 1123.03,690.706 1120.5,685.5 Z"/></g>
<g><path style="opacity:1" fill="#4c2b04" d="M 1148.5,719.5 C 1150.18,719.285 1151.18,719.952 1151.5,721.5C 1150.29,721.068 1149.29,720.401 1148.5,719.5 Z"/></g>
<g><path style="opacity:1" fill="#5c3d07" d="M 430.5,724.5 C 429.281,729.503 428.281,734.503 427.5,739.5C 427.142,736.857 426.809,734.19 426.5,731.5C 428.564,729.475 429.898,727.142 430.5,724.5 Z"/></g>
<g><path style="opacity:1" fill="#52390b" d="M 1177.5,747.5 C 1179.59,748.585 1180.92,750.251 1181.5,752.5C 1179.41,751.415 1178.08,749.749 1177.5,747.5 Z"/></g>
<g><path style="opacity:1" fill="#563908" d="M 426.5,750.5 C 426.5,767.833 426.5,785.167 426.5,802.5C 426.008,797.669 425.008,792.835 423.5,788C 426.114,784.118 426.114,780.285 423.5,776.5C 424.415,775.672 425.081,774.672 425.5,773.5C 424.936,770.988 424.936,768.321 425.5,765.5C 425.33,763.285 424.663,761.285 423.5,759.5C 424.953,756.575 425.953,753.575 426.5,750.5 Z"/></g>
<g><path style="opacity:1" fill="#523205" d="M 1181.5,752.5 C 1183.43,754.596 1185.77,756.096 1188.5,757C 1190.61,758.264 1191.61,760.097 1191.5,762.5C 1188.5,759.668 1185.33,757.002 1182,754.5C 1181.54,753.906 1181.37,753.239 1181.5,752.5 Z"/></g>
<g><path style="opacity:1" fill="#58420d" d="M 1198.5,771.5 C 1201.24,773.239 1203.24,775.573 1204.5,778.5C 1201.76,776.761 1199.76,774.427 1198.5,771.5 Z"/></g>
<g><path style="opacity:1" fill="#593604" d="M 426.5,803.5 C 427.461,805.265 427.795,807.265 427.5,809.5C 426.522,809.189 425.855,808.522 425.5,807.5C 426.246,806.264 426.579,804.93 426.5,803.5 Z"/></g>
<g><path style="opacity:1" fill="#533305" d="M 427.5,809.5 C 428.612,811.599 429.279,813.933 429.5,816.5C 429.5,818.167 429.5,819.833 429.5,821.5C 428.205,817.733 427.539,813.733 427.5,809.5 Z"/></g>
<g><path style="opacity:1" fill="#5a3e08" d="M 1238.5,817.5 C 1240.59,818.585 1241.92,820.251 1242.5,822.5C 1240.41,821.415 1239.08,819.749 1238.5,817.5 Z"/></g>
<g><path style="opacity:1" fill="#402003" d="M 1245.5,824.5 C 1247.18,825.853 1248.52,827.52 1249.5,829.5C 1246.7,829.033 1245.37,827.367 1245.5,824.5 Z"/></g>
<g><path style="opacity:1" fill="#533c0c" d="M 1249.5,831.5 C 1251.59,832.585 1252.92,834.251 1253.5,836.5C 1251.41,835.415 1250.08,833.749 1249.5,831.5 Z"/></g>
<g><path style="opacity:1" fill="#4a2c06" d="M 1256.5,839.5 C 1257.72,840.028 1258.89,840.695 1260,841.5C 1261.14,844.102 1261.97,846.769 1262.5,849.5C 1260,846.506 1258,843.173 1256.5,839.5 Z"/></g>
<g><path style="opacity:1" fill="#59410c" d="M 429.5,816.5 C 430.366,826.336 431.033,836.336 431.5,846.5C 430.086,844.956 429.753,843.289 430.5,841.5C 430.123,837.003 428.79,832.836 426.5,829C 427.8,826.563 428.8,824.063 429.5,821.5C 429.5,819.833 429.5,818.167 429.5,816.5 Z"/></g>
<g><path style="opacity:1" fill="#502d03" d="M 432.5,857.5 C 434.639,863.703 436.639,870.036 438.5,876.5C 437.5,876.5 436.5,876.5 435.5,876.5C 435.5,875.167 435.5,873.833 435.5,872.5C 434.5,872.5 433.5,872.5 432.5,872.5C 432.48,870.857 433.147,869.524 434.5,868.5C 433.248,866.999 432.248,865.332 431.5,863.5C 432.348,861.591 432.682,859.591 432.5,857.5 Z"/></g>
<g><path style="opacity:1" fill="#524110" d="M 1283.5,879.5 C 1280.46,881.011 1277.12,881.678 1273.5,881.5C 1273.92,880.778 1274.58,880.278 1275.5,880C 1278.15,879.503 1280.81,879.336 1283.5,879.5 Z"/></g>
<g><path style="opacity:1" fill="#758467" d="M 1416.5,1043.5 C 1418.83,1045.17 1420.83,1047.17 1422.5,1049.5C 1422.32,1051.59 1422.65,1053.59 1423.5,1055.5C 1426.73,1056.43 1429.4,1058.09 1431.5,1060.5C 1431.54,1061.58 1431.87,1062.58 1432.5,1063.5C 1437.87,1068.7 1442.7,1074.37 1447,1080.5C 1467.75,1102.07 1487.91,1124.07 1507.5,1146.5C 1510.48,1150.43 1513.48,1154.43 1516.5,1158.5C 1522.12,1166.03 1528.46,1173.03 1535.5,1179.5C 1540.42,1187.09 1546.42,1193.76 1553.5,1199.5C 1555.83,1203.83 1559.17,1207.17 1563.5,1209.5C 1565.21,1211.88 1567.21,1213.88 1569.5,1215.5C 1570.17,1216.83 1571.17,1217.83 1572.5,1218.5C 1576.28,1223.06 1580.28,1227.4 1584.5,1231.5C 1584.5,1231.83 1584.5,1232.17 1584.5,1232.5C 1587.01,1238.35 1590.68,1243.35 1595.5,1247.5C 1598.13,1251.46 1601.13,1255.13 1604.5,1258.5C 1605.76,1261.43 1607.76,1263.76 1610.5,1265.5C 1611.5,1265.83 1612.17,1266.5 1612.5,1267.5C 1613.12,1269.75 1614.46,1271.42 1616.5,1272.5C 1618.26,1273.26 1619.26,1274.6 1619.5,1276.5C 1620.42,1279.09 1622.09,1281.09 1624.5,1282.5C 1625.5,1282.83 1626.17,1283.5 1626.5,1284.5C 1627.79,1287.12 1629.45,1289.45 1631.5,1291.5C 1633.37,1292.76 1634.7,1294.43 1635.5,1296.5C 1635.84,1299.2 1637.18,1301.2 1639.5,1302.5C 1642.73,1305.31 1645.73,1308.31 1648.5,1311.5C 1651.11,1316.99 1654.44,1321.99 1658.5,1326.5C 1660.1,1327.29 1660.77,1328.62 1660.5,1330.5C 1660.75,1332.67 1661.75,1334.34 1663.5,1335.5C 1663.5,1336.17 1663.5,1336.83 1663.5,1337.5C 1666.26,1344.68 1669.26,1351.68 1672.5,1358.5C 1672.5,1358.83 1672.5,1359.17 1672.5,1359.5C 1673.51,1361.54 1674.51,1363.54 1675.5,1365.5C 1675.12,1367.7 1675.79,1369.36 1677.5,1370.5C 1679.58,1372.68 1680.58,1375.35 1680.5,1378.5C 1680.8,1380.4 1681.46,1382.07 1682.5,1383.5C 1682.69,1386.86 1683.69,1389.86 1685.5,1392.5C 1685.34,1395.52 1685.5,1398.52 1686,1401.5C 1686.38,1402.06 1686.88,1402.39 1687.5,1402.5C 1689.05,1413.28 1690.72,1423.94 1692.5,1434.5C 1692.5,1434.83 1692.5,1435.17 1692.5,1435.5C 1692.56,1445.36 1693.22,1455.03 1694.5,1464.5C 1694.86,1470.74 1695.86,1476.74 1697.5,1482.5C 1697.5,1484.83 1697.5,1487.17 1697.5,1489.5C 1697.5,1501.5 1697.5,1513.5 1697.5,1525.5C 1697.22,1537.42 1695.88,1549.09 1693.5,1560.5C 1691.67,1565.26 1690.34,1570.26 1689.5,1575.5C 1689.5,1575.83 1689.5,1576.17 1689.5,1576.5C 1687.96,1578.84 1687.29,1581.5 1687.5,1584.5C 1687.44,1585.61 1687.11,1586.61 1686.5,1587.5C 1684.72,1588.99 1684.05,1590.99 1684.5,1593.5C 1683.54,1595.3 1682.88,1597.3 1682.5,1599.5C 1682.11,1601.28 1681.44,1602.95 1680.5,1604.5C 1678.99,1606.18 1677.99,1608.18 1677.5,1610.5C 1677.25,1612.97 1676.25,1614.97 1674.5,1616.5C 1673.33,1617.51 1672.66,1618.85 1672.5,1620.5C 1672.67,1621.49 1672.34,1622.16 1671.5,1622.5C 1670.33,1623.51 1669.66,1624.85 1669.5,1626.5C 1668.51,1628.46 1667.51,1630.46 1666.5,1632.5C 1665.67,1635.48 1664.34,1638.15 1662.5,1640.5C 1661.09,1640.97 1660.43,1641.97 1660.5,1643.5C 1658.94,1648.29 1656.61,1652.62 1653.5,1656.5C 1652.11,1657.9 1651.11,1659.57 1650.5,1661.5C 1650.67,1662.49 1650.34,1663.16 1649.5,1663.5C 1647.27,1664.4 1646.27,1666.07 1646.5,1668.5C 1645.53,1671.47 1643.87,1673.8 1641.5,1675.5C 1639.75,1676.66 1638.75,1678.33 1638.5,1680.5C 1637.09,1680.97 1636.43,1681.97 1636.5,1683.5C 1635.09,1683.97 1634.43,1684.97 1634.5,1686.5C 1634.5,1687.17 1634.17,1687.5 1633.5,1687.5C 1630.14,1689.09 1628.81,1691.42 1629.5,1694.5C 1629.5,1694.83 1629.5,1695.17 1629.5,1695.5C 1624.31,1703.04 1618.31,1710.04 1611.5,1716.5C 1604.71,1720.79 1598.71,1725.96 1593.5,1732C 1587.65,1734.43 1582.65,1738.1 1578.5,1743C 1572.26,1746.94 1566.26,1751.11 1560.5,1755.5C 1545.49,1765.34 1530.16,1774.67 1514.5,1783.5C 1492.29,1794.34 1469.29,1803.84 1445.5,1812C 1440.49,1812.79 1435.49,1813.62 1430.5,1814.5C 1429.29,1814.75 1428.62,1815.41 1428.5,1816.5C 1415.24,1818.51 1401.91,1820.01 1388.5,1821C 1387.26,1821.23 1386.26,1821.73 1385.5,1822.5C 1384.17,1822.5 1383.5,1821.83 1383.5,1820.5C 1380.77,1819.79 1377.94,1819.13 1375,1818.5C 1359.14,1819.79 1343.64,1819.79 1328.5,1818.5C 1324.79,1818.58 1321.12,1818.24 1317.5,1817.5C 1313.26,1815.47 1308.93,1815.14 1304.5,1816.5C 1303.17,1815.83 1301.83,1815.17 1300.5,1814.5C 1297.09,1812.93 1293.43,1811.93 1289.5,1811.5C 1281.74,1812.34 1274.41,1811.01 1267.5,1807.5C 1266.91,1807.71 1266.41,1808.04 1266,1808.5C 1264.69,1807.1 1263.19,1806.1 1261.5,1805.5C 1259.56,1803.84 1257.23,1803.17 1254.5,1803.5C 1252.09,1802.23 1249.43,1801.57 1246.5,1801.5C 1244.59,1801.78 1242.92,1801.45 1241.5,1800.5C 1240.2,1798.18 1238.2,1796.84 1235.5,1796.5C 1235.05,1795.54 1234.38,1794.71 1233.5,1794C 1231.19,1793.5 1228.86,1793.34 1226.5,1793.5C 1226.17,1793.5 1225.83,1793.5 1225.5,1793.5C 1219.12,1790.7 1212.79,1787.7 1206.5,1784.5C 1206.72,1783.32 1206.39,1782.32 1205.5,1781.5C 1201.43,1780.12 1197.43,1778.79 1193.5,1777.5C 1193.5,1777.17 1193.5,1776.83 1193.5,1776.5C 1191.18,1774.34 1188.51,1772.67 1185.5,1771.5C 1184.51,1771.67 1183.84,1771.34 1183.5,1770.5C 1183.03,1769.09 1182.03,1768.43 1180.5,1768.5C 1179.05,1765.73 1176.72,1764.06 1173.5,1763.5C 1170.07,1759.74 1166.07,1756.74 1161.5,1754.5C 1160.13,1753.49 1158.8,1752.49 1157.5,1751.5C 1154.35,1745.68 1149.68,1741.68 1143.5,1739.5C 1142.5,1737.83 1141.17,1736.5 1139.5,1735.5C 1139.57,1733.97 1138.91,1732.97 1137.5,1732.5C 1136.48,1730.09 1134.82,1728.42 1132.5,1727.5C 1130.19,1726.52 1128.52,1724.86 1127.5,1722.5C 1127.19,1720.86 1126.19,1719.86 1124.5,1719.5C 1124.17,1719.5 1123.83,1719.5 1123.5,1719.5C 1123.57,1717.97 1122.91,1716.97 1121.5,1716.5C 1117.29,1710.74 1112.63,1705.41 1107.5,1700.5C 1106.21,1697.55 1104.21,1695.21 1101.5,1693.5C 1100.5,1693.17 1099.83,1692.5 1099.5,1691.5C 1098.83,1688.83 1097.17,1687.17 1094.5,1686.5C 1093.17,1684.83 1091.83,1683.17 1090.5,1681.5C 1089.53,1678.87 1087.86,1676.87 1085.5,1675.5C 1083.84,1673.54 1082.18,1671.54 1080.5,1669.5C 1078.83,1666.17 1076.5,1663.5 1073.5,1661.5C 1073.88,1659.3 1073.21,1657.64 1071.5,1656.5C 1070.03,1655.56 1069.03,1654.23 1068.5,1652.5C 1068.57,1650.97 1067.91,1649.97 1066.5,1649.5C 1064.96,1646.4 1062.96,1643.73 1060.5,1641.5C 1058.74,1640.74 1057.74,1639.4 1057.5,1637.5C 1055.04,1634.24 1053.37,1630.57 1052.5,1626.5C 1050.85,1625.35 1049.35,1624.02 1048,1622.5C 1042.49,1612.38 1035.15,1603.71 1026,1596.5C 1021.82,1592.32 1017.99,1587.82 1014.5,1583C 1013.91,1582.54 1013.24,1582.37 1012.5,1582.5C 1011.86,1580.21 1010.53,1578.54 1008.5,1577.5C 1007.03,1576.56 1006.03,1575.23 1005.5,1573.5C 1004.54,1570.56 1002.88,1568.23 1000.5,1566.5C 999.833,1563.83 998.167,1562.17 995.5,1561.5C 991.575,1558.24 987.909,1554.58 984.5,1550.5C 983.5,1550.17 982.833,1549.5 982.5,1548.5C 980.183,1544.52 977.183,1541.18 973.5,1538.5C 970.212,1533.21 966.546,1528.21 962.5,1523.5C 961.5,1523.17 960.833,1522.5 960.5,1521.5C 960.573,1519.97 959.906,1518.97 958.5,1518.5C 956.738,1517.74 955.738,1516.4 955.5,1514.5C 954.602,1511.6 952.935,1509.27 950.5,1507.5C 946.93,1500.93 942.263,1495.26 936.5,1490.5C 936.167,1489.83 935.833,1489.17 935.5,1488.5C 932.856,1485.01 930.356,1481.34 928,1477.5C 926.25,1475.58 924.417,1473.91 922.5,1472.5C 921.512,1471.2 920.512,1469.87 919.5,1468.5C 916.406,1463.98 913.073,1459.64 909.5,1455.5C 908.864,1453.21 907.531,1451.54 905.5,1450.5C 905.167,1450.5 904.833,1450.5 904.5,1450.5C 904.071,1447.85 902.738,1445.85 900.5,1444.5C 900.573,1442.97 899.906,1441.97 898.5,1441.5C 897.662,1441.16 897.328,1440.49 897.5,1439.5C 897.269,1436.94 895.935,1435.27 893.5,1434.5C 893.167,1434.5 892.833,1434.5 892.5,1434.5C 892.727,1432.07 891.727,1430.4 889.5,1429.5C 887.605,1428.03 885.939,1426.36 884.5,1424.5C 881.926,1419.59 878.592,1415.26 874.5,1411.5C 871.025,1407.9 868.025,1403.9 865.5,1399.5C 861.702,1392.25 856.702,1385.92 850.5,1380.5C 849.833,1379.17 848.833,1378.17 847.5,1377.5C 846.167,1376.83 845.167,1375.83 844.5,1374.5C 843.864,1372.21 842.531,1370.54 840.5,1369.5C 840.573,1367.97 839.906,1366.97 838.5,1366.5C 838.573,1364.97 837.906,1363.97 836.5,1363.5C 835.167,1363.5 834.5,1362.83 834.5,1361.5C 833.527,1358.87 831.86,1356.87 829.5,1355.5C 826.084,1351.68 823.418,1347.34 821.5,1342.5C 820.833,1339.83 819.167,1338.17 816.5,1337.5C 813.856,1336.86 812.189,1335.19 811.5,1332.5C 808.991,1329.18 807.324,1325.34 806.5,1321C 802.042,1319.08 797.708,1319.25 793.5,1321.5C 792.002,1318.75 790.002,1316.41 787.5,1314.5C 788.086,1307.37 790.586,1301.03 795,1295.5C 795.49,1294.21 795.657,1292.87 795.5,1291.5C 799.198,1286.1 802.532,1280.44 805.5,1274.5C 808.508,1270.49 811.508,1266.49 814.5,1262.5C 814.833,1262.5 815.167,1262.5 815.5,1262.5C 819.646,1256.9 823.812,1251.23 828,1245.5C 829.707,1243.09 830.54,1240.42 830.5,1237.5C 831.552,1237.65 832.552,1237.48 833.5,1237C 835.616,1233.05 838.282,1229.55 841.5,1226.5C 845.262,1223.07 848.262,1219.07 850.5,1214.5C 852.914,1213.09 854.581,1211.09 855.5,1208.5C 855.229,1206.62 855.896,1205.29 857.5,1204.5C 859.587,1203.42 860.92,1201.75 861.5,1199.5C 863.833,1197.83 865.833,1195.83 867.5,1193.5C 868.522,1191.14 870.188,1189.48 872.5,1188.5C 875.027,1186.39 877.36,1184.06 879.5,1181.5C 899.641,1161.69 919.641,1142.02 939.5,1122.5C 939.5,1121.17 940.167,1120.5 941.5,1120.5C 942.5,1120.17 943.167,1119.5 943.5,1118.5C 948.812,1113.85 953.812,1108.85 958.5,1103.5C 960.749,1102.92 962.415,1101.59 963.5,1099.5C 964.614,1096.6 966.614,1094.6 969.5,1093.5C 970.71,1093.07 971.71,1092.4 972.5,1091.5C 977.051,1087.19 981.718,1082.86 986.5,1078.5C 989.471,1075.19 992.471,1071.86 995.5,1068.5C 1007.79,1058.55 1020.12,1048.55 1032.5,1038.5C 1035.09,1037.58 1037.09,1035.91 1038.5,1033.5C 1038.97,1032.09 1039.97,1031.43 1041.5,1031.5C 1043.67,1031.25 1045.34,1030.25 1046.5,1028.5C 1047.26,1026.74 1048.6,1025.74 1050.5,1025.5C 1053.25,1023.25 1055.92,1020.75 1058.5,1018C 1063.5,1015 1068.5,1012 1073.5,1009C 1075.04,1007.63 1076.37,1006.13 1077.5,1004.5C 1079.85,1003.66 1081.85,1002.33 1083.5,1000.5C 1086.1,999.081 1088.6,997.415 1091,995.5C 1091.49,994.207 1091.66,992.873 1091.5,991.5C 1092.29,990.206 1093.29,989.039 1094.5,988C 1103.56,982.146 1112.56,976.312 1121.5,970.5C 1123.67,970.25 1125.34,969.25 1126.5,967.5C 1129.51,966.331 1132.18,964.664 1134.5,962.5C 1138.13,962.299 1140.8,960.632 1142.5,957.5C 1143.66,955.75 1145.33,954.75 1147.5,954.5C 1150.21,952.828 1152.88,951.162 1155.5,949.5C 1157.67,949.25 1159.34,948.25 1160.5,946.5C 1162.34,944.331 1164.67,942.998 1167.5,942.5C 1171.36,941.287 1174.7,939.287 1177.5,936.5C 1177.84,935.662 1178.51,935.328 1179.5,935.5C 1182.33,934.921 1184.66,933.588 1186.5,931.5C 1189.38,929.234 1192.38,927.234 1195.5,925.5C 1198.33,924.921 1200.66,923.588 1202.5,921.5C 1211.04,917.284 1219.04,912.284 1226.5,906.5C 1227.82,905.058 1229.49,904.392 1231.5,904.5C 1238.2,901.479 1244.87,898.479 1251.5,895.5C 1257.99,893.305 1264.32,890.972 1270.5,888.5C 1276.48,887.501 1282.48,887.001 1288.5,887C 1289.16,890.5 1287.49,892 1283.5,891.5C 1282.84,894.455 1282.51,897.455 1282.5,900.5C 1285.24,899.795 1287.91,899.795 1290.5,900.5C 1292.98,904.449 1296.15,907.783 1300,910.5C 1305.94,919.439 1312.94,927.439 1321,934.5C 1334.99,949.792 1348.99,965.125 1363,980.5C 1373.6,994.272 1384.77,1007.61 1396.5,1020.5C 1402.07,1029.07 1408.74,1036.74 1416.5,1043.5 Z"/></g>
<g><path style="opacity:1" fill="#573202" d="M 439.5,881.5 C 441.718,883.651 443.052,886.318 443.5,889.5C 442.5,889.5 441.5,889.5 440.5,889.5C 440.167,886.833 439.833,884.167 439.5,881.5 Z"/></g>
<g><path style="opacity:1" fill="#543b0b" d="M 1264.5,883.5 C 1256.65,887.222 1248.32,889.889 1239.5,891.5C 1247.22,887.475 1255.55,884.809 1264.5,883.5 Z"/></g>
<g><path style="opacity:1" fill="#306322" d="M 1270.5,888.5 C 1264.32,890.972 1257.99,893.305 1251.5,895.5C 1254.4,893.156 1257.73,891.322 1261.5,890C 1264.43,889.047 1267.43,888.547 1270.5,888.5 Z"/></g>
<g><path style="opacity:1" fill="#4b2a04" d="M 444.5,891.5 C 445.492,893.456 446.492,895.456 447.5,897.5C 445.087,896.32 444.087,894.32 444.5,891.5 Z"/></g>
<g><path style="opacity:1" fill="#205315" d="M 1251.5,895.5 C 1244.87,898.479 1238.2,901.479 1231.5,904.5C 1237.07,899.387 1243.74,896.387 1251.5,895.5 Z"/></g>
<g><path style="opacity:1" fill="#534b17" d="M 448.5,899.5 C 452.155,903.814 454.488,908.814 455.5,914.5C 453.319,912.236 451.985,909.569 451.5,906.5C 450.221,904.877 448.887,903.21 447.5,901.5C 447.863,900.817 448.196,900.15 448.5,899.5 Z"/></g>
<g><path style="opacity:1" fill="#533004" d="M 1213.5,903.5 C 1211.97,905.346 1209.97,906.346 1207.5,906.5C 1208.69,904.025 1210.69,903.025 1213.5,903.5 Z"/></g>
<g><path style="opacity:1" fill="#235118" d="M 1226.5,906.5 C 1219.04,912.284 1211.04,917.284 1202.5,921.5C 1205.4,918.036 1209.07,915.536 1213.5,914C 1217,909.92 1221.34,907.42 1226.5,906.5 Z"/></g>
<g><path style="opacity:1" fill="#3c1c01" d="M 451.5,906.5 C 451.985,909.569 453.319,912.236 455.5,914.5C 457.205,918.684 459.205,922.684 461.5,926.5C 461.5,927.167 461.167,927.5 460.5,927.5C 458.218,922.277 455.384,917.277 452,912.5C 451.505,910.527 451.338,908.527 451.5,906.5 Z"/></g>
<g><path style="opacity:1" fill="#5a3d07" d="M 1191.5,914.5 C 1191.72,915.675 1191.39,916.675 1190.5,917.5C 1188.22,918.702 1185.89,919.702 1183.5,920.5C 1185.81,918.211 1188.48,916.211 1191.5,914.5 Z"/></g>
<g><path style="opacity:1" fill="#255c19" d="M 1416.5,1043.5 C 1408.74,1036.74 1402.07,1029.07 1396.5,1020.5C 1384.77,1007.61 1373.6,994.272 1363,980.5C 1348.99,965.125 1334.99,949.792 1321,934.5C 1312.94,927.439 1305.94,919.439 1300,910.5C 1296.15,907.783 1292.98,904.449 1290.5,900.5C 1287.91,899.795 1285.24,899.795 1282.5,900.5C 1282.51,897.455 1282.84,894.455 1283.5,891.5C 1287.49,892 1289.16,890.5 1288.5,887C 1282.48,887.001 1276.48,887.501 1270.5,888.5C 1277.18,885.581 1284.18,884.914 1291.5,886.5C 1291.54,890.32 1289.54,892.987 1285.5,894.5C 1286.75,896.78 1288.75,897.947 1291.5,898C 1292.19,899.067 1292.69,900.234 1293,901.5C 1297.17,905 1301,908.833 1304.5,913C 1305.45,913.483 1306.45,913.649 1307.5,913.5C 1307.34,915.199 1307.51,916.866 1308,918.5C 1312.71,924.376 1317.88,929.71 1323.5,934.5C 1325.05,935.452 1326.71,935.785 1328.5,935.5C 1328.5,936.833 1328.5,938.167 1328.5,939.5C 1329.5,939.5 1330.5,939.5 1331.5,939.5C 1331.34,940.873 1331.51,942.207 1332,943.5C 1341.8,953.776 1351.13,964.443 1360,975.5C 1361.58,976.861 1363.42,977.528 1365.5,977.5C 1365.34,979.199 1365.51,980.866 1366,982.5C 1383.89,1002.2 1400.72,1022.53 1416.5,1043.5 Z"/></g>
<g><path style="opacity:1" fill="#306621" d="M 1202.5,921.5 C 1200.66,923.588 1198.33,924.921 1195.5,925.5C 1197.05,922.888 1199.39,921.555 1202.5,921.5 Z"/></g>
<g><path style="opacity:1" fill="#5a3804" d="M 461.5,926.5 C 463.56,929.24 465.226,932.24 466.5,935.5C 464.147,933.14 462.147,930.473 460.5,927.5C 461.167,927.5 461.5,927.167 461.5,926.5 Z"/></g>
<g><path style="opacity:1" fill="#2b5e1e" d="M 1186.5,931.5 C 1184.66,933.588 1182.33,934.921 1179.5,935.5C 1181.34,933.331 1183.67,931.998 1186.5,931.5 Z"/></g>
<g><path style="opacity:1" fill="#4a2b05" d="M 466.5,935.5 C 467.15,935.804 467.817,936.137 468.5,936.5C 469.79,940.715 471.456,944.715 473.5,948.5C 471.687,946.947 469.853,945.28 468,943.5C 467.933,940.953 467.099,938.786 465.5,937C 466.056,936.617 466.389,936.117 466.5,935.5 Z"/></g>
<g><path style="opacity:1" fill="#336326" d="M 1177.5,936.5 C 1174.7,939.287 1171.36,941.287 1167.5,942.5C 1168.41,941.035 1169.74,940.035 1171.5,939.5C 1172.39,938.675 1172.72,937.675 1172.5,936.5C 1174.17,936.5 1175.83,936.5 1177.5,936.5 Z"/></g>
<g><path style="opacity:1" fill="#275b1b" d="M 1160.5,946.5 C 1159.34,948.25 1157.67,949.25 1155.5,949.5C 1156.66,947.75 1158.33,946.75 1160.5,946.5 Z"/></g>
<g><path style="opacity:1" fill="#57400c" d="M 1139.5,947.5 C 1139.63,948.376 1139.3,949.043 1138.5,949.5C 1136.03,950.32 1133.69,951.32 1131.5,952.5C 1133.66,950.103 1136.33,948.436 1139.5,947.5 Z"/></g>
<g><path style="opacity:1" fill="#295c1e" d="M 1155.5,949.5 C 1152.88,951.162 1150.21,952.828 1147.5,954.5C 1149.2,951.368 1151.87,949.701 1155.5,949.5 Z"/></g>
<g><path style="opacity:1" fill="#503a0d" d="M 473.5,948.5 C 478.567,952.36 481.9,957.36 483.5,963.5C 481.876,961.849 480.543,959.849 479.5,957.5C 478.675,956.614 477.675,956.281 476.5,956.5C 475.783,953.677 474.783,951.01 473.5,948.5 Z"/></g>
<g><path style="opacity:1" fill="#4b2b04" d="M 1124.5,956.5 C 1123.15,960.107 1120.49,961.774 1116.5,961.5C 1119.09,959.842 1121.75,958.175 1124.5,956.5 Z"/></g>
<g><path style="opacity:1" fill="#486d39" d="M 1142.5,957.5 C 1140.8,960.632 1138.13,962.299 1134.5,962.5C 1136.45,959.758 1139.12,958.091 1142.5,957.5 Z"/></g>
<g><path style="opacity:1" fill="#5c3a05" d="M 484.5,963.5 C 486.071,965.635 487.404,967.968 488.5,970.5C 486.195,969.213 483.862,967.88 481.5,966.5C 482.993,965.859 483.993,964.859 484.5,963.5 Z"/></g>
<g><path style="opacity:1" fill="#2a581f" d="M 1134.5,962.5 C 1132.18,964.664 1129.51,966.331 1126.5,967.5C 1128.4,964.6 1131.07,962.934 1134.5,962.5 Z"/></g>
<g><path style="opacity:1" fill="#3b662e" d="M 1126.5,967.5 C 1125.34,969.25 1123.67,970.25 1121.5,970.5C 1122.49,968.592 1124.15,967.592 1126.5,967.5 Z"/></g>
<g><path style="opacity:1" fill="#4d2e06" d="M 488.5,970.5 C 493.73,977.276 498.73,984.276 503.5,991.5C 497.466,986.958 492.633,981.291 489,974.5C 489.355,973.041 489.189,971.707 488.5,970.5 Z"/></g>
<g><path style="opacity:1" fill="#573504" d="M 503.5,991.5 C 506.573,993.569 508.906,996.236 510.5,999.5C 509.292,998.766 507.959,998.433 506.5,998.5C 506.5,997.5 506.5,996.5 506.5,995.5C 505.5,995.5 504.5,995.5 503.5,995.5C 503.5,994.167 503.5,992.833 503.5,991.5 Z"/></g>
<g><path style="opacity:1" fill="#2b631c" d="M 1091.5,991.5 C 1091.66,992.873 1091.49,994.207 1091,995.5C 1088.6,997.415 1086.1,999.081 1083.5,1000.5C 1086.62,997.824 1089.28,994.824 1091.5,991.5 Z"/></g>
<g><path style="opacity:1" fill="#376829" d="M 1083.5,1000.5 C 1081.85,1002.33 1079.85,1003.66 1077.5,1004.5C 1078.8,1002.18 1080.8,1000.84 1083.5,1000.5 Z"/></g>
<g><path style="opacity:1" fill="#4b2d07" d="M 510.5,999.5 C 511.239,999.369 511.906,999.536 512.5,1000C 514.621,1003.79 517.454,1006.95 521,1009.5C 522.421,1011.4 523.588,1013.4 524.5,1015.5C 518.449,1011.41 513.782,1006.08 510.5,999.5 Z"/></g>
<g><path style="opacity:1" fill="#356327" d="M 1077.5,1004.5 C 1076.37,1006.13 1075.04,1007.63 1073.5,1009C 1068.5,1012 1063.5,1015 1058.5,1018C 1055.92,1020.75 1053.25,1023.25 1050.5,1025.5C 1052.54,1021.95 1055.21,1018.78 1058.5,1016C 1064.85,1012.07 1071.18,1008.23 1077.5,1004.5 Z"/></g>
<g><path style="opacity:1" fill="#2f6221" d="M 1046.5,1028.5 C 1045.34,1030.25 1043.67,1031.25 1041.5,1031.5C 1042.49,1029.59 1044.15,1028.59 1046.5,1028.5 Z"/></g>
<g><path style="opacity:1" fill="#4d2c04" d="M 524.5,1015.5 C 526.463,1016.96 528.296,1018.63 530,1020.5C 533.979,1026.97 538.479,1032.97 543.5,1038.5C 542.883,1038.61 542.383,1038.94 542,1039.5C 540.38,1037.76 538.88,1035.93 537.5,1034C 536.207,1033.51 534.873,1033.34 533.5,1033.5C 533.859,1031.23 533.192,1029.4 531.5,1028C 531.833,1027.67 532.167,1027.33 532.5,1027C 531.034,1026.36 529.7,1025.53 528.5,1024.5C 526.995,1021.48 525.661,1018.48 524.5,1015.5 Z"/></g>
<g><path style="opacity:1" fill="#306223" d="M 1038.5,1033.5 C 1037.09,1035.91 1035.09,1037.58 1032.5,1038.5C 1033.91,1036.09 1035.91,1034.42 1038.5,1033.5 Z"/></g>
<g><path style="opacity:1" fill="#534513" d="M 543.5,1038.5 C 547.115,1039.37 549.115,1041.7 549.5,1045.5C 547.974,1044.9 546.974,1043.73 546.5,1042C 545.552,1041.52 544.552,1041.35 543.5,1041.5C 543.5,1040.5 543.5,1039.5 543.5,1038.5 Z"/></g>
<g><path style="opacity:1" fill="#58430e" d="M 549.5,1045.5 C 551.935,1046.27 553.269,1047.94 553.5,1050.5C 551.469,1049.46 550.136,1047.79 549.5,1045.5 Z"/></g>
<g><path style="opacity:1" fill="#949492" d="M 1282.5,1049.5 C 1287.61,1049.06 1290.11,1051.39 1290,1056.5C 1288.92,1055.33 1288.08,1054 1287.5,1052.5C 1285.93,1051.37 1284.26,1051.2 1282.5,1052C 1281.58,1054.13 1281.42,1056.3 1282,1058.5C 1279.97,1055.38 1280.13,1052.38 1282.5,1049.5 Z"/></g>
<g><path style="opacity:1" fill="#2c5d1f" d="M 1422.5,1049.5 C 1426.22,1052.61 1429.22,1056.27 1431.5,1060.5C 1429.4,1058.09 1426.73,1056.43 1423.5,1055.5C 1422.65,1053.59 1422.32,1051.59 1422.5,1049.5 Z"/></g>
<g><path style="opacity:1" fill="#2b5d1e" d="M 1032.5,1038.5 C 1020.12,1048.55 1007.79,1058.55 995.5,1068.5C 997.002,1066.83 998.335,1064.99 999.5,1063C 1005.95,1058.38 1011.95,1053.22 1017.5,1047.5C 1022.09,1043.71 1027.09,1040.71 1032.5,1038.5 Z"/></g>
<g><path style="opacity:1" fill="#593503" d="M 556.5,1053.5 C 561.21,1057.91 565.21,1062.91 568.5,1068.5C 567.07,1068.58 565.736,1068.25 564.5,1067.5C 563.876,1065.04 562.376,1063.38 560,1062.5C 559.35,1059.22 558.184,1056.22 556.5,1053.5 Z"/></g>
<g><path style="opacity:1" fill="#336426" d="M 995.5,1068.5 C 992.471,1071.86 989.471,1075.19 986.5,1078.5C 988.069,1073.93 991.069,1070.6 995.5,1068.5 Z"/></g>
<g><path style="opacity:1" fill="#285d1c" d="M 1431.5,1060.5 C 1436.8,1064.47 1441.8,1068.8 1446.5,1073.5C 1448.01,1080.01 1452.01,1083.68 1458.5,1084.5C 1458.71,1086.14 1458.38,1087.64 1457.5,1089C 1473.6,1106.36 1489.76,1123.86 1506,1141.5C 1506.61,1143.15 1507.11,1144.82 1507.5,1146.5C 1487.91,1124.07 1467.75,1102.07 1447,1080.5C 1442.7,1074.37 1437.87,1068.7 1432.5,1063.5C 1431.87,1062.58 1431.54,1061.58 1431.5,1060.5 Z"/></g>
<g><path style="opacity:1" fill="#563e0c" d="M 970.5,1080.5 C 969.647,1082.89 967.981,1084.23 965.5,1084.5C 966.585,1082.41 968.251,1081.08 970.5,1080.5 Z"/></g>
<g><path style="opacity:1" fill="#265e1a" d="M 972.5,1091.5 C 971.71,1092.4 970.71,1093.07 969.5,1093.5C 969.821,1091.95 970.821,1091.29 972.5,1091.5 Z"/></g>
<g><path style="opacity:1" fill="#5a3502" d="M 949.5,1099.5 C 949.179,1101.05 948.179,1101.71 946.5,1101.5C 947.29,1100.6 948.29,1099.93 949.5,1099.5 Z"/></g>
<g><path style="opacity:1" fill="#497439" d="M 963.5,1099.5 C 962.415,1101.59 960.749,1102.92 958.5,1103.5C 959.585,1101.41 961.251,1100.08 963.5,1099.5 Z"/></g>
<g><path style="opacity:1" fill="#492603" d="M 945.5,1102.5 C 945.167,1104.83 943.833,1106.17 941.5,1106.5C 942.5,1104.83 943.833,1103.5 945.5,1102.5 Z"/></g>
<g><path style="opacity:1" fill="#523a0b" d="M 938.5,1108.5 C 937.5,1112.17 935.167,1114.5 931.5,1115.5C 933.833,1113.17 936.167,1110.83 938.5,1108.5 Z"/></g>
<g><path style="opacity:1" fill="#544412" d="M 601.5,1109.5 C 605.59,1112.03 608.256,1115.69 609.5,1120.5C 606.067,1117.4 603.4,1113.73 601.5,1109.5 Z"/></g>
<g><path style="opacity:1" fill="#2a5e1e" d="M 958.5,1103.5 C 953.812,1108.85 948.812,1113.85 943.5,1118.5C 944.09,1117.23 944.59,1115.9 945,1114.5C 948.678,1111.32 952.178,1107.99 955.5,1104.5C 956.417,1103.87 957.417,1103.54 958.5,1103.5 Z"/></g>
<g><path style="opacity:1" fill="#236416" d="M 943.5,1118.5 C 943.167,1119.5 942.5,1120.17 941.5,1120.5C 941.131,1118.01 941.797,1117.34 943.5,1118.5 Z"/></g>
<g><path style="opacity:1" fill="#503207" d="M 928.5,1118.5 C 928.167,1121.5 926.5,1123.17 923.5,1123.5C 924.833,1121.5 926.5,1119.83 928.5,1118.5 Z"/></g>
<g><path style="opacity:1" fill="#543c0b" d="M 609.5,1120.5 C 611.531,1121.54 612.864,1123.21 613.5,1125.5C 611.457,1124.42 610.124,1122.75 609.5,1120.5 Z"/></g>
<g><path style="opacity:1" fill="#553405" d="M 615.5,1127.5 C 618.647,1129.31 620.647,1131.98 621.5,1135.5C 620.504,1135.59 619.671,1135.25 619,1134.5C 617.807,1132.11 616.64,1129.78 615.5,1127.5 Z"/></g>
<g><path style="opacity:1" fill="#514515" d="M 621.5,1135.5 C 622.583,1135.54 623.583,1135.87 624.5,1136.5C 626.57,1138.84 627.903,1141.51 628.5,1144.5C 625.878,1141.86 623.545,1138.86 621.5,1135.5 Z"/></g>
<g><path style="opacity:1" fill="#4d2d06" d="M 906.5,1139.5 C 905.539,1145.32 902.206,1148.98 896.5,1150.5C 899.862,1146.81 903.195,1143.14 906.5,1139.5 Z"/></g>
<g><path style="opacity:1" fill="#26591a" d="M 939.5,1122.5 C 919.641,1142.02 899.641,1161.69 879.5,1181.5C 879.351,1180.45 879.517,1179.45 880,1178.5C 886.227,1172.61 892.06,1166.44 897.5,1160C 905.327,1154 912.66,1147.5 919.5,1140.5C 924.192,1134.14 929.525,1128.48 935.5,1123.5C 936.689,1122.57 938.022,1122.24 939.5,1122.5 Z"/></g>
<g><path style="opacity:1" fill="#583f0b" d="M 628.5,1144.5 C 629.583,1144.54 630.583,1144.87 631.5,1145.5C 632.933,1148.71 634.6,1151.71 636.5,1154.5C 635.279,1153.97 634.113,1153.31 633,1152.5C 632.105,1149.45 630.605,1146.79 628.5,1144.5 Z"/></g>
<g><path style="opacity:1" fill="#205915" d="M 1507.5,1146.5 C 1512.45,1149.09 1515.45,1153.09 1516.5,1158.5C 1513.48,1154.43 1510.48,1150.43 1507.5,1146.5 Z"/></g>
<g><path style="opacity:1" fill="#553908" d="M 636.5,1155.5 C 638.017,1155.51 639.184,1156.18 640,1157.5C 640.997,1159.32 642.164,1160.99 643.5,1162.5C 642.761,1162.63 642.094,1162.46 641.5,1162C 639.946,1159.71 638.279,1157.55 636.5,1155.5 Z"/></g>
<g><path style="opacity:1" fill="#3c1d03" d="M 893.5,1153.5 C 893.155,1156.2 891.822,1158.2 889.5,1159.5C 890.34,1157.15 891.674,1155.15 893.5,1153.5 Z"/></g>
<g><path style="opacity:1" fill="#285a1c" d="M 1516.5,1158.5 C 1523.16,1163.99 1529.32,1169.99 1535,1176.5C 1535.48,1177.45 1535.65,1178.45 1535.5,1179.5C 1528.46,1173.03 1522.12,1166.03 1516.5,1158.5 Z"/></g>
<g><path style="opacity:1" fill="#573504" d="M 644.5,1164.5 C 646.587,1165.58 647.92,1167.25 648.5,1169.5C 646.107,1168.65 644.774,1166.98 644.5,1164.5 Z"/></g>
<g><path style="opacity:1" fill="#563c0a" d="M 648.5,1169.5 C 650.531,1170.54 651.864,1172.21 652.5,1174.5C 650.457,1173.42 649.124,1171.75 648.5,1169.5 Z"/></g>
<g><path style="opacity:1" fill="#2a591d" d="M 879.5,1181.5 C 877.36,1184.06 875.027,1186.39 872.5,1188.5C 873.693,1185.06 876.026,1182.73 879.5,1181.5 Z"/></g>
<g><path style="opacity:1" fill="#523508" d="M 866.5,1182.5 C 865.92,1184.75 864.587,1186.42 862.5,1187.5C 863.08,1185.25 864.413,1183.58 866.5,1182.5 Z"/></g>
<g><path style="opacity:1" fill="#285b1c" d="M 1535.5,1179.5 C 1538.97,1180.63 1540.97,1182.97 1541.5,1186.5C 1542.5,1186.5 1543.5,1186.5 1544.5,1186.5C 1544.38,1189.91 1546.05,1191.24 1549.5,1190.5C 1550.83,1193.5 1552.17,1196.5 1553.5,1199.5C 1546.42,1193.76 1540.42,1187.09 1535.5,1179.5 Z"/></g>
<g><path style="opacity:1" fill="#5a3f09" d="M 657.5,1181.5 C 659.371,1181.86 660.871,1182.86 662,1184.5C 664.157,1186.82 665.657,1189.48 666.5,1192.5C 663.152,1189.15 660.152,1185.48 657.5,1181.5 Z"/></g>
<g><path style="opacity:1" fill="#275d1a" d="M 867.5,1193.5 C 865.833,1195.83 863.833,1197.83 861.5,1199.5C 862.5,1196.5 864.5,1194.5 867.5,1193.5 Z"/></g>
<g><path style="opacity:1" fill="#315f24" d="M 1553.5,1199.5 C 1554.24,1199.37 1554.91,1199.54 1555.5,1200C 1558.48,1202.97 1561.15,1206.14 1563.5,1209.5C 1559.17,1207.17 1555.83,1203.83 1553.5,1199.5 Z"/></g>
<g><path style="opacity:1" fill="#3f6c31" d="M 861.5,1199.5 C 860.92,1201.75 859.587,1203.42 857.5,1204.5C 858.08,1202.25 859.413,1200.58 861.5,1199.5 Z"/></g>
<g><path style="opacity:1" fill="#225617" d="M 1563.5,1209.5 C 1566.81,1210.16 1568.81,1212.16 1569.5,1215.5C 1567.21,1213.88 1565.21,1211.88 1563.5,1209.5 Z"/></g>
<g><path style="opacity:1" fill="#436c34" d="M 855.5,1208.5 C 854.581,1211.09 852.914,1213.09 850.5,1214.5C 851.419,1211.91 853.086,1209.91 855.5,1208.5 Z"/></g>
<g><path style="opacity:1" fill="#235316" d="M 1569.5,1215.5 C 1571.5,1215.5 1572.5,1216.5 1572.5,1218.5C 1571.17,1217.83 1570.17,1216.83 1569.5,1215.5 Z"/></g>
<g><path style="opacity:1" fill="#386829" d="M 850.5,1214.5 C 848.262,1219.07 845.262,1223.07 841.5,1226.5C 843.777,1221.9 846.777,1217.9 850.5,1214.5 Z"/></g>
<g><path style="opacity:1" fill="#28571d" d="M 1572.5,1218.5 C 1575.03,1219.03 1577.03,1220.36 1578.5,1222.5C 1580.96,1225.27 1582.96,1228.27 1584.5,1231.5C 1580.28,1227.4 1576.28,1223.06 1572.5,1218.5 Z"/></g>
<g><path style="opacity:1" fill="#285a1c" d="M 841.5,1226.5 C 838.282,1229.55 835.616,1233.05 833.5,1237C 832.552,1237.48 831.552,1237.65 830.5,1237.5C 832.223,1235.75 833.723,1233.75 835,1231.5C 836.777,1229.21 838.944,1227.54 841.5,1226.5 Z"/></g>
<g><path style="opacity:1" fill="#513406" d="M 824.5,1231.5 C 823.243,1234.43 821.243,1236.76 818.5,1238.5C 819.757,1235.57 821.757,1233.24 824.5,1231.5 Z"/></g>
<g><path style="opacity:1" fill="#524817" d="M 700.5,1233.5 C 702.011,1234.5 703.678,1235.17 705.5,1235.5C 705.884,1237.93 706.551,1240.26 707.5,1242.5C 704.87,1239.85 702.537,1236.85 700.5,1233.5 Z"/></g>
<g><path style="opacity:1" fill="#5b3904" d="M 818.5,1238.5 C 818.226,1240.98 816.893,1242.65 814.5,1243.5C 815.08,1241.25 816.413,1239.58 818.5,1238.5 Z"/></g>
<g><path style="opacity:1" fill="#2d5821" d="M 1584.5,1232.5 C 1587.16,1235.5 1589.83,1238.5 1592.5,1241.5C 1593.55,1243.53 1594.55,1245.53 1595.5,1247.5C 1590.68,1243.35 1587.01,1238.35 1584.5,1232.5 Z"/></g>
<g><path style="opacity:1" fill="#523408" d="M 814.5,1243.5 C 810.396,1252.05 805.063,1259.71 798.5,1266.5C 798.857,1264.41 799.523,1262.41 800.5,1260.5C 804.939,1254.61 809.605,1248.94 814.5,1243.5 Z"/></g>
<g><path style="opacity:1" fill="#504716" d="M 710.5,1246.5 C 712.09,1246.63 713.423,1247.29 714.5,1248.5C 716.334,1250.5 717.334,1252.83 717.5,1255.5C 714.791,1252.79 712.458,1249.79 710.5,1246.5 Z"/></g>
<g><path style="opacity:1" fill="#235b17" d="M 830.5,1237.5 C 830.54,1240.42 829.707,1243.09 828,1245.5C 823.812,1251.23 819.646,1256.9 815.5,1262.5C 817.116,1256.35 820.283,1251.02 825,1246.5C 825.533,1242.61 827.366,1239.61 830.5,1237.5 Z"/></g>
<g><path style="opacity:1" fill="#39672b" d="M 1595.5,1247.5 C 1600.08,1249.95 1603.08,1253.62 1604.5,1258.5C 1601.13,1255.13 1598.13,1251.46 1595.5,1247.5 Z"/></g>
<g><path style="opacity:1" fill="#38682a" d="M 1604.5,1258.5 C 1607.24,1260.24 1609.24,1262.57 1610.5,1265.5C 1607.76,1263.76 1605.76,1261.43 1604.5,1258.5 Z"/></g>
<g><path style="opacity:1" fill="#375e2a" d="M 814.5,1262.5 C 811.508,1266.49 808.508,1270.49 805.5,1274.5C 806.111,1268.57 809.111,1264.57 814.5,1262.5 Z"/></g>
<g><path style="opacity:1" fill="#346427" d="M 1612.5,1267.5 C 1614.53,1268.54 1615.86,1270.21 1616.5,1272.5C 1614.46,1271.42 1613.12,1269.75 1612.5,1267.5 Z"/></g>
<g><path style="opacity:1" fill="#306023" d="M 1619.5,1276.5 C 1621.91,1277.91 1623.58,1279.91 1624.5,1282.5C 1622.09,1281.09 1620.42,1279.09 1619.5,1276.5 Z"/></g>
<g><path style="opacity:1" fill="#2f5f22" d="M 805.5,1274.5 C 802.532,1280.44 799.198,1286.1 795.5,1291.5C 797.216,1284.81 800.55,1279.14 805.5,1274.5 Z"/></g>
<g><path style="opacity:1" fill="#4f2e05" d="M 792.5,1275.5 C 791.584,1279.29 789.584,1282.29 786.5,1284.5C 787.723,1280.95 789.723,1277.95 792.5,1275.5 Z"/></g>
<g><path style="opacity:1" fill="#315d24" d="M 1626.5,1284.5 C 1629.32,1285.99 1630.99,1288.33 1631.5,1291.5C 1629.45,1289.45 1627.79,1287.12 1626.5,1284.5 Z"/></g>
<g><path style="opacity:1" fill="#3d662e" d="M 1635.5,1296.5 C 1637.37,1298.03 1638.7,1300.03 1639.5,1302.5C 1637.18,1301.2 1635.84,1299.2 1635.5,1296.5 Z"/></g>
<g><path style="opacity:1" fill="#524916" d="M 786.5,1284.5 C 786.142,1288.37 784.309,1291.37 781,1293.5C 779.449,1302.8 778.116,1312.14 777,1321.5C 774.383,1320.65 772.549,1318.98 771.5,1316.5C 772.583,1316.54 773.583,1316.87 774.5,1317.5C 776.831,1310.08 778.331,1302.41 779,1294.5C 780.122,1292.58 780.956,1290.58 781.5,1288.5C 782.5,1288.5 783.5,1288.5 784.5,1288.5C 784.229,1286.62 784.896,1285.29 786.5,1284.5 Z"/></g>
<g><path style="opacity:1" fill="#2c5920" d="M 1648.5,1311.5 C 1649.72,1312.03 1650.89,1312.69 1652,1313.5C 1653.77,1316.72 1655.77,1319.72 1658,1322.5C 1658.49,1323.79 1658.66,1325.13 1658.5,1326.5C 1654.44,1321.99 1651.11,1316.99 1648.5,1311.5 Z"/></g>
<g><path style="opacity:1" fill="#2b601d" d="M 795.5,1291.5 C 795.657,1292.87 795.49,1294.21 795,1295.5C 790.586,1301.03 788.086,1307.37 787.5,1314.5C 790.002,1316.41 792.002,1318.75 793.5,1321.5C 797.708,1319.25 802.042,1319.08 806.5,1321C 807.324,1325.34 808.991,1329.18 811.5,1332.5C 809.974,1331.9 808.974,1330.73 808.5,1329C 807.207,1328.51 805.873,1328.34 804.5,1328.5C 804.33,1327.18 804.663,1326.01 805.5,1325C 803.535,1323.43 801.369,1322.27 799,1321.5C 796.544,1323.32 793.711,1323.99 790.5,1323.5C 790.405,1320.64 789.238,1318.31 787,1316.5C 786.271,1311.33 786.938,1306.33 789,1301.5C 791.265,1298.16 793.431,1294.82 795.5,1291.5 Z"/></g>
<g><path style="opacity:1" fill="#205115" d="M 1660.5,1330.5 C 1662.76,1331.34 1663.76,1333.01 1663.5,1335.5C 1661.75,1334.34 1660.75,1332.67 1660.5,1330.5 Z"/></g>
<g><path style="opacity:1" fill="#346227" d="M 816.5,1337.5 C 819.167,1338.17 820.833,1339.83 821.5,1342.5C 819.548,1341.22 817.882,1339.55 816.5,1337.5 Z"/></g>
<g><path style="opacity:1" fill="#29591d" d="M 1663.5,1337.5 C 1664.87,1337.86 1665.87,1338.69 1666.5,1340C 1668.74,1346.16 1670.74,1352.33 1672.5,1358.5C 1669.26,1351.68 1666.26,1344.68 1663.5,1337.5 Z"/></g>
<g><path style="opacity:1" fill="#376729" d="M 829.5,1355.5 C 831.86,1356.87 833.527,1358.87 834.5,1361.5C 832.11,1360.11 830.443,1358.11 829.5,1355.5 Z"/></g>
<g><path style="opacity:1" fill="#245819" d="M 1672.5,1359.5 C 1674.91,1360.68 1675.91,1362.68 1675.5,1365.5C 1674.51,1363.54 1673.51,1361.54 1672.5,1359.5 Z"/></g>
<g><path style="opacity:1" fill="#275d1c" d="M 836.5,1363.5 C 837.906,1363.97 838.573,1364.97 838.5,1366.5C 837.094,1366.03 836.427,1365.03 836.5,1363.5 Z"/></g>
<g><path style="opacity:1" fill="#235518" d="M 838.5,1366.5 C 839.906,1366.97 840.573,1367.97 840.5,1369.5C 839.094,1369.03 838.427,1368.03 838.5,1366.5 Z"/></g>
<g><path style="opacity:1" fill="#366229" d="M 1675.5,1365.5 C 1677.21,1366.64 1677.88,1368.3 1677.5,1370.5C 1675.79,1369.36 1675.12,1367.7 1675.5,1365.5 Z"/></g>
<g><path style="opacity:1" fill="#27581b" d="M 840.5,1369.5 C 842.531,1370.54 843.864,1372.21 844.5,1374.5C 842.124,1373.79 840.79,1372.13 840.5,1369.5 Z"/></g>
<g><path style="opacity:1" fill="#2d6320" d="M 847.5,1377.5 C 848.833,1378.17 849.833,1379.17 850.5,1380.5C 848.5,1380.5 847.5,1379.5 847.5,1377.5 Z"/></g>
<g><path style="opacity:1" fill="#266319" d="M 1680.5,1378.5 C 1682.21,1379.64 1682.88,1381.3 1682.5,1383.5C 1681.46,1382.07 1680.8,1380.4 1680.5,1378.5 Z"/></g>
<g><path style="opacity:1" fill="#27561b" d="M 850.5,1380.5 C 856.702,1385.92 861.702,1392.25 865.5,1399.5C 864.128,1397.91 862.461,1396.58 860.5,1395.5C 857.474,1390.17 854.141,1385.17 850.5,1380.5 Z"/></g>
<g><path style="opacity:1" fill="#2e6221" d="M 1682.5,1383.5 C 1684.47,1386.08 1685.47,1389.08 1685.5,1392.5C 1683.69,1389.86 1682.69,1386.86 1682.5,1383.5 Z"/></g>
<g><path style="opacity:1" fill="#456d36" d="M 1685.5,1392.5 C 1686.78,1395.59 1687.45,1398.92 1687.5,1402.5C 1686.88,1402.39 1686.38,1402.06 1686,1401.5C 1685.5,1398.52 1685.34,1395.52 1685.5,1392.5 Z"/></g>
<g><path style="opacity:1" fill="#3b642d" d="M 1687.5,1402.5 C 1690.06,1407.06 1691.56,1412.06 1692,1417.5C 1692.5,1423.16 1692.67,1428.82 1692.5,1434.5C 1690.72,1423.94 1689.05,1413.28 1687.5,1402.5 Z"/></g>
<g><path style="opacity:1" fill="#245219" d="M 874.5,1411.5 C 878.592,1415.26 881.926,1419.59 884.5,1424.5C 880.068,1421.06 876.735,1416.73 874.5,1411.5 Z"/></g>
<g><path style="opacity:1" fill="#285e1b" d="M 889.5,1429.5 C 891.727,1430.4 892.727,1432.07 892.5,1434.5C 890.592,1433.51 889.592,1431.85 889.5,1429.5 Z"/></g>
<g><path style="opacity:1" fill="#406c31" d="M 893.5,1434.5 C 895.935,1435.27 897.269,1436.94 897.5,1439.5C 894.53,1439.25 893.197,1437.59 893.5,1434.5 Z"/></g>
<g><path style="opacity:1" fill="#2a671d" d="M 898.5,1441.5 C 899.906,1441.97 900.573,1442.97 900.5,1444.5C 898.952,1444.18 898.285,1443.18 898.5,1441.5 Z"/></g>
<g><path style="opacity:1" fill="#1c4c13" d="M 900.5,1444.5 C 902.738,1445.85 904.071,1447.85 904.5,1450.5C 902.631,1448.97 901.298,1446.97 900.5,1444.5 Z"/></g>
<g><path style="opacity:1" fill="#3b692c" d="M 905.5,1450.5 C 907.531,1451.54 908.864,1453.21 909.5,1455.5C 907.457,1454.42 906.124,1452.75 905.5,1450.5 Z"/></g>
<g><path style="opacity:1" fill="#3f6b31" d="M 1692.5,1435.5 C 1693.9,1440.97 1694.9,1446.64 1695.5,1452.5C 1694.52,1456.3 1694.18,1460.3 1694.5,1464.5C 1693.22,1455.03 1692.56,1445.36 1692.5,1435.5 Z"/></g>
<g><path style="opacity:1" fill="#1e4e14" d="M 909.5,1455.5 C 913.073,1459.64 916.406,1463.98 919.5,1468.5C 914.706,1465.31 911.373,1460.98 909.5,1455.5 Z"/></g>
<g><path style="opacity:1" fill="#1c4713" d="M 1695.5,1452.5 C 1695.51,1462.55 1696.18,1472.55 1697.5,1482.5C 1695.86,1476.74 1694.86,1470.74 1694.5,1464.5C 1694.18,1460.3 1694.52,1456.3 1695.5,1452.5 Z"/></g>
<g><path style="opacity:1" fill="#225617" d="M 922.5,1472.5 C 924.417,1473.91 926.25,1475.58 928,1477.5C 930.356,1481.34 932.856,1485.01 935.5,1488.5C 933.608,1487.3 931.774,1485.97 930,1484.5C 928.055,1480.08 925.555,1476.08 922.5,1472.5 Z"/></g>
<g><path style="opacity:1" fill="#2a5a1e" d="M 936.5,1490.5 C 942.263,1495.26 946.93,1500.93 950.5,1507.5C 944.737,1502.74 940.07,1497.07 936.5,1490.5 Z"/></g>
<g><path style="opacity:1" fill="#346226" d="M 950.5,1507.5 C 952.935,1509.27 954.602,1511.6 955.5,1514.5C 952.497,1513.16 950.831,1510.83 950.5,1507.5 Z"/></g>
<g><path style="opacity:1" fill="#346b25" d="M 1697.5,1489.5 C 1698.32,1492.66 1698.99,1496 1699.5,1499.5C 1698.89,1508.32 1698.22,1516.98 1697.5,1525.5C 1697.5,1513.5 1697.5,1501.5 1697.5,1489.5 Z"/></g>
<g><path style="opacity:1" fill="#265c1a" d="M 958.5,1518.5 C 959.906,1518.97 960.573,1519.97 960.5,1521.5C 959.094,1521.03 958.427,1520.03 958.5,1518.5 Z"/></g>
<g><path style="opacity:1" fill="#25571a" d="M 962.5,1523.5 C 966.546,1528.21 970.212,1533.21 973.5,1538.5C 968.151,1534.83 964.484,1529.83 962.5,1523.5 Z"/></g>
<g><path style="opacity:1" fill="#225417" d="M 973.5,1538.5 C 977.183,1541.18 980.183,1544.52 982.5,1548.5C 980.867,1547.05 979.034,1545.72 977,1544.5C 976.517,1543.55 976.351,1542.55 976.5,1541.5C 975.5,1541.5 974.5,1541.5 973.5,1541.5C 973.5,1540.5 973.5,1539.5 973.5,1538.5 Z"/></g>
<g><path style="opacity:1" fill="#235618" d="M 984.5,1550.5 C 987.909,1554.58 991.575,1558.24 995.5,1561.5C 989.463,1560.13 985.796,1556.46 984.5,1550.5 Z"/></g>
<g><path style="opacity:1" fill="#27531c" d="M 995.5,1561.5 C 998.167,1562.17 999.833,1563.83 1000.5,1566.5C 998.5,1565.17 996.833,1563.5 995.5,1561.5 Z"/></g>
<g><path style="opacity:1" fill="#38632b" d="M 1000.5,1566.5 C 1002.88,1568.23 1004.54,1570.56 1005.5,1573.5C 1003.11,1571.73 1001.44,1569.4 1000.5,1566.5 Z"/></g>
<g><path style="opacity:1" fill="#2c5e1f" d="M 1693.5,1560.5 C 1693.22,1564.19 1692.72,1567.85 1692,1571.5C 1691.8,1573.32 1690.97,1574.65 1689.5,1575.5C 1690.34,1570.26 1691.67,1565.26 1693.5,1560.5 Z"/></g>
<g><path style="opacity:1" fill="#416e32" d="M 1008.5,1577.5 C 1010.53,1578.54 1011.86,1580.21 1012.5,1582.5C 1010.46,1581.42 1009.12,1579.75 1008.5,1577.5 Z"/></g>
<g><path style="opacity:1" fill="#2a5f1d" d="M 1689.5,1576.5 C 1689.66,1578.86 1689.5,1581.19 1689,1583.5C 1688.62,1584.06 1688.12,1584.39 1687.5,1584.5C 1687.29,1581.5 1687.96,1578.84 1689.5,1576.5 Z"/></g>
<g><path style="opacity:1" fill="#3a642d" d="M 1686.5,1587.5 C 1688.13,1590.24 1687.47,1592.24 1684.5,1593.5C 1684.05,1590.99 1684.72,1588.99 1686.5,1587.5 Z"/></g>
<g><path style="opacity:1" fill="#194b10" d="M 1684.5,1593.5 C 1684.95,1596.01 1684.28,1598.01 1682.5,1599.5C 1682.88,1597.3 1683.54,1595.3 1684.5,1593.5 Z"/></g>
<g><path style="opacity:1" fill="#1e4e15" d="M 1680.5,1604.5 C 1680.98,1607.31 1679.98,1609.31 1677.5,1610.5C 1677.99,1608.18 1678.99,1606.18 1680.5,1604.5 Z"/></g>
<g><path style="opacity:1" fill="#2f6521" d="M 1012.5,1582.5 C 1013.24,1582.37 1013.91,1582.54 1014.5,1583C 1017.99,1587.82 1021.82,1592.32 1026,1596.5C 1035.15,1603.71 1042.49,1612.38 1048,1622.5C 1049.35,1624.02 1050.85,1625.35 1052.5,1626.5C 1053.37,1630.57 1055.04,1634.24 1057.5,1637.5C 1054.57,1634.06 1051.4,1630.73 1048,1627.5C 1046.85,1622.2 1044.01,1618.2 1039.5,1615.5C 1038.51,1611.51 1036.17,1608.85 1032.5,1607.5C 1032.65,1606.45 1032.48,1605.45 1032,1604.5C 1024.61,1597.94 1018.11,1590.61 1012.5,1582.5 Z"/></g>
<g><path style="opacity:1" fill="#2d6a1e" d="M 1674.5,1616.5 C 1674.33,1617.82 1674.66,1618.99 1675.5,1620C 1674.55,1620.48 1673.55,1620.65 1672.5,1620.5C 1672.66,1618.85 1673.33,1617.51 1674.5,1616.5 Z"/></g>
<g><path style="opacity:1" fill="#173d10" d="M 1671.5,1622.5 C 1671.84,1624.48 1671.18,1625.82 1669.5,1626.5C 1669.66,1624.85 1670.33,1623.51 1671.5,1622.5 Z"/></g>
<g><path style="opacity:1" fill="#214f17" d="M 1669.5,1626.5 C 1669.98,1629.31 1668.98,1631.31 1666.5,1632.5C 1667.51,1630.46 1668.51,1628.46 1669.5,1626.5 Z"/></g>
<g><path style="opacity:1" fill="#39652b" d="M 1060.5,1641.5 C 1062.96,1643.73 1064.96,1646.4 1066.5,1649.5C 1063.54,1647.59 1061.54,1644.92 1060.5,1641.5 Z"/></g>
<g><path style="opacity:1" fill="#205317" d="M 1662.5,1640.5 C 1662.57,1642.03 1661.91,1643.03 1660.5,1643.5C 1660.43,1641.97 1661.09,1640.97 1662.5,1640.5 Z"/></g>
<g><path style="opacity:1" fill="#215117" d="M 1066.5,1649.5 C 1067.91,1649.97 1068.57,1650.97 1068.5,1652.5C 1067.09,1652.03 1066.43,1651.03 1066.5,1649.5 Z"/></g>
<g><path style="opacity:1" fill="#2c631e" d="M 1071.5,1656.5 C 1073.21,1657.64 1073.88,1659.3 1073.5,1661.5C 1072.46,1660.07 1071.8,1658.4 1071.5,1656.5 Z"/></g>
<g><path style="opacity:1" fill="#225218" d="M 1653.5,1656.5 C 1654.08,1659.29 1653.08,1660.95 1650.5,1661.5C 1651.11,1659.57 1652.11,1657.9 1653.5,1656.5 Z"/></g>
<g><path style="opacity:1" fill="#3b6b2d" d="M 1073.5,1661.5 C 1076.5,1663.5 1078.83,1666.17 1080.5,1669.5C 1077.5,1667.5 1075.17,1664.83 1073.5,1661.5 Z"/></g>
<g><path style="opacity:1" fill="#376629" d="M 1649.5,1663.5 C 1649.25,1665.67 1648.25,1667.34 1646.5,1668.5C 1646.27,1666.07 1647.27,1664.4 1649.5,1663.5 Z"/></g>
<g><path style="opacity:1" fill="#2a581e" d="M 1085.5,1675.5 C 1087.86,1676.87 1089.53,1678.87 1090.5,1681.5C 1087.84,1680.35 1086.18,1678.35 1085.5,1675.5 Z"/></g>
<g><path style="opacity:1" fill="#2b641f" d="M 1641.5,1675.5 C 1641.74,1678.03 1640.74,1679.7 1638.5,1680.5C 1638.75,1678.33 1639.75,1676.66 1641.5,1675.5 Z"/></g>
<g><path style="opacity:1" fill="#204f14" d="M 1638.5,1680.5 C 1638.57,1682.03 1637.91,1683.03 1636.5,1683.5C 1636.43,1681.97 1637.09,1680.97 1638.5,1680.5 Z"/></g>
<g><path style="opacity:1" fill="#16460d" d="M 1636.5,1683.5 C 1636.57,1685.03 1635.91,1686.03 1634.5,1686.5C 1634.43,1684.97 1635.09,1683.97 1636.5,1683.5 Z"/></g>
<g><path style="opacity:1" fill="#316124" d="M 1094.5,1686.5 C 1097.17,1687.17 1098.83,1688.83 1099.5,1691.5C 1097.5,1690.17 1095.83,1688.5 1094.5,1686.5 Z"/></g>
<g><path style="opacity:1" fill="#205115" d="M 1633.5,1687.5 C 1632.42,1690 1631.09,1692.33 1629.5,1694.5C 1628.81,1691.42 1630.14,1689.09 1633.5,1687.5 Z"/></g>
<g><path style="opacity:1" fill="#457136" d="M 1101.5,1693.5 C 1104.21,1695.21 1106.21,1697.55 1107.5,1700.5C 1104.76,1698.76 1102.76,1696.43 1101.5,1693.5 Z"/></g>
<g><path style="opacity:1" fill="#326125" d="M 1107.5,1700.5 C 1112.63,1705.41 1117.29,1710.74 1121.5,1716.5C 1115.92,1712.04 1111.25,1706.7 1107.5,1700.5 Z"/></g>
<g><path style="opacity:1" fill="#153f0d" d="M 1121.5,1716.5 C 1122.91,1716.97 1123.57,1717.97 1123.5,1719.5C 1121.95,1719.18 1121.29,1718.18 1121.5,1716.5 Z"/></g>
<g><path style="opacity:1" fill="#2c651f" d="M 1124.5,1719.5 C 1126.19,1719.86 1127.19,1720.86 1127.5,1722.5C 1126.5,1722.5 1125.5,1722.5 1124.5,1722.5C 1124.5,1721.5 1124.5,1720.5 1124.5,1719.5 Z"/></g>
<g><path style="opacity:1" fill="#235319" d="M 1132.5,1727.5 C 1134.82,1728.42 1136.48,1730.09 1137.5,1732.5C 1134.86,1731.86 1133.19,1730.19 1132.5,1727.5 Z"/></g>
<g><path style="opacity:1" fill="#123d0c" d="M 1137.5,1732.5 C 1138.91,1732.97 1139.57,1733.97 1139.5,1735.5C 1137.95,1735.18 1137.29,1734.18 1137.5,1732.5 Z"/></g>
<g><path style="opacity:1" fill="#356029" d="M 1143.5,1739.5 C 1149.68,1741.68 1154.35,1745.68 1157.5,1751.5C 1153.06,1747.04 1148.39,1743.04 1143.5,1739.5 Z"/></g>
<g><path style="opacity:1" fill="#245c18" d="M 1629.5,1695.5 C 1630.69,1695.87 1631.36,1696.7 1631.5,1698C 1625.96,1704.2 1620.46,1710.37 1615,1716.5C 1614.52,1717.45 1614.35,1718.45 1614.5,1719.5C 1613.13,1719.34 1611.79,1719.51 1610.5,1720C 1603.52,1726.85 1595.86,1732.68 1587.5,1737.5C 1586.5,1738.83 1585.5,1740.17 1584.5,1741.5C 1578.09,1745.08 1572.09,1749.25 1566.5,1754C 1564.65,1755.13 1562.65,1755.63 1560.5,1755.5C 1566.26,1751.11 1572.26,1746.94 1578.5,1743C 1582.65,1738.1 1587.65,1734.43 1593.5,1732C 1598.71,1725.96 1604.71,1720.79 1611.5,1716.5C 1618.31,1710.04 1624.31,1703.04 1629.5,1695.5 Z"/></g>
<g><path style="opacity:1" fill="#2e6021" d="M 1161.5,1754.5 C 1166.07,1756.74 1170.07,1759.74 1173.5,1763.5C 1168.42,1761.96 1164.42,1758.96 1161.5,1754.5 Z"/></g>
<g><path style="opacity:1" fill="#225817" d="M 1560.5,1755.5 C 1560.37,1757.09 1559.71,1758.42 1558.5,1759.5C 1547.37,1766.13 1536.37,1772.96 1525.5,1780C 1521.99,1781.76 1518.32,1782.93 1514.5,1783.5C 1530.16,1774.67 1545.49,1765.34 1560.5,1755.5 Z"/></g>
<g><path style="opacity:1" fill="#436d34" d="M 1173.5,1763.5 C 1176.72,1764.06 1179.05,1765.73 1180.5,1768.5C 1178.25,1767.54 1175.92,1766.88 1173.5,1766.5C 1173.5,1765.5 1173.5,1764.5 1173.5,1763.5 Z"/></g>
<g><path style="opacity:1" fill="#275b1b" d="M 1180.5,1768.5 C 1182.03,1768.43 1183.03,1769.09 1183.5,1770.5C 1181.82,1770.71 1180.82,1770.05 1180.5,1768.5 Z"/></g>
<g><path style="opacity:1" fill="#305f23" d="M 1185.5,1771.5 C 1188.51,1772.67 1191.18,1774.34 1193.5,1776.5C 1189.87,1776.3 1187.2,1774.63 1185.5,1771.5 Z"/></g>
<g><path style="opacity:1" fill="#2a5e1e" d="M 1193.5,1777.5 C 1197.43,1778.79 1201.43,1780.12 1205.5,1781.5C 1206.39,1782.32 1206.72,1783.32 1206.5,1784.5C 1201.91,1782.61 1197.58,1780.27 1193.5,1777.5 Z"/></g>
<g><path style="opacity:1" fill="#245519" d="M 1206.5,1784.5 C 1212.79,1787.7 1219.12,1790.7 1225.5,1793.5C 1219.31,1792.71 1213.31,1790.54 1207.5,1787C 1206.75,1786.33 1206.41,1785.5 1206.5,1784.5 Z"/></g>
<g><path style="opacity:1" fill="#225417" d="M 1514.5,1783.5 C 1513.36,1785.43 1511.69,1786.93 1509.5,1788C 1489.66,1797.5 1469.32,1805.84 1448.5,1813C 1441.68,1813.84 1435.01,1815.01 1428.5,1816.5C 1428.62,1815.41 1429.29,1814.75 1430.5,1814.5C 1435.49,1813.62 1440.49,1812.79 1445.5,1812C 1469.29,1803.84 1492.29,1794.34 1514.5,1783.5 Z"/></g>
<g><path style="opacity:1" fill="#3d6d2d" d="M 1226.5,1793.5 C 1228.86,1793.34 1231.19,1793.5 1233.5,1794C 1234.38,1794.71 1235.05,1795.54 1235.5,1796.5C 1232.55,1795.18 1229.55,1794.18 1226.5,1793.5 Z"/></g>
<g><path style="opacity:1" fill="#356028" d="M 1235.5,1796.5 C 1238.2,1796.84 1240.2,1798.18 1241.5,1800.5C 1238.48,1800.66 1236.48,1799.32 1235.5,1796.5 Z"/></g>
<g><path style="opacity:1" fill="#1e4e14" d="M 1246.5,1801.5 C 1249.43,1801.57 1252.09,1802.23 1254.5,1803.5C 1251.3,1804.04 1248.64,1803.37 1246.5,1801.5 Z"/></g>
<g><path style="opacity:1" fill="#3e702e" d="M 1254.5,1803.5 C 1257.23,1803.17 1259.56,1803.84 1261.5,1805.5C 1258.85,1805.59 1256.51,1804.92 1254.5,1803.5 Z"/></g>
<g><path style="opacity:1" fill="#447134" d="M 1289.5,1811.5 C 1293.43,1811.93 1297.09,1812.93 1300.5,1814.5C 1296.43,1814.57 1292.76,1813.57 1289.5,1811.5 Z"/></g>
<g><path style="opacity:1" fill="#205614" d="M 1304.5,1816.5 C 1308.93,1815.14 1313.26,1815.47 1317.5,1817.5C 1316.5,1817.41 1315.67,1817.75 1315,1818.5C 1311.76,1816.74 1308.26,1816.07 1304.5,1816.5 Z"/></g>
<g><path style="opacity:1" fill="#3e6f2e" d="M 1317.5,1817.5 C 1321.12,1818.24 1324.79,1818.58 1328.5,1818.5C 1330.79,1818.59 1332.79,1819.26 1334.5,1820.5C 1329.58,1821.68 1324.41,1821.68 1319,1820.5C 1317.96,1819.76 1317.46,1818.76 1317.5,1817.5 Z"/></g>
<g><path style="opacity:1" fill="#688059" d="M 1328.5,1818.5 C 1343.64,1819.79 1359.14,1819.79 1375,1818.5C 1377.94,1819.13 1380.77,1819.79 1383.5,1820.5C 1378.46,1820.26 1373.63,1820.93 1369,1822.5C 1364.66,1821.44 1360.5,1821.77 1356.5,1823.5C 1356.17,1823.5 1355.83,1823.5 1355.5,1823.5C 1354.53,1822.69 1353.7,1821.69 1353,1820.5C 1347.23,1821.41 1341.4,1821.41 1335.5,1820.5C 1335.17,1820.5 1334.83,1820.5 1334.5,1820.5C 1332.79,1819.26 1330.79,1818.59 1328.5,1818.5 Z"/></g>
<g><path style="opacity:1" fill="#275e1a" d="M 1428.5,1816.5 C 1422.49,1818.92 1416.16,1820.59 1409.5,1821.5C 1408.39,1820.98 1407.23,1820.64 1406,1820.5C 1399.29,1822.25 1392.46,1822.91 1385.5,1822.5C 1386.26,1821.73 1387.26,1821.23 1388.5,1821C 1401.91,1820.01 1415.24,1818.51 1428.5,1816.5 Z"/></g>
<g><path style="opacity:1" fill="#316b21" d="M 1335.5,1820.5 C 1341.4,1821.41 1347.23,1821.41 1353,1820.5C 1353.7,1821.69 1354.53,1822.69 1355.5,1823.5C 1352.09,1823.25 1348.76,1823.58 1345.5,1824.5C 1342.07,1823.13 1338.73,1821.79 1335.5,1820.5 Z"/></g>
<g><path style="opacity:1" fill="#306822" d="M 1383.5,1820.5 C 1383.5,1821.83 1384.17,1822.5 1385.5,1822.5C 1382.8,1825.83 1379.47,1826.33 1375.5,1824C 1369.18,1823.5 1362.84,1823.33 1356.5,1823.5C 1360.5,1821.77 1364.66,1821.44 1369,1822.5C 1373.63,1820.93 1378.46,1820.26 1383.5,1820.5 Z"/></g>
</svg>
