<?xml version="1.0" encoding="UTF-8"?>
<!DOCTYPE svg PUBLIC "-//W3C//DTD SVG 1.1//EN" "http://www.w3.org/Graphics/SVG/1.1/DTD/svg11.dtd">
<svg xmlns="http://www.w3.org/2000/svg" version="1.1" width="2048px" height="2048px" style="shape-rendering:geometricPrecision; text-rendering:geometricPrecision; image-rendering:optimizeQuality; fill-rule:evenodd; clip-rule:evenodd" xmlns:xlink="http://www.w3.org/1999/xlink">
<g><path style="opacity:0.997" fill="#3e5225" d="M 1363.5,1570.5 C 1400.19,1583.02 1422.02,1608.36 1429,1646.5C 1431.65,1670.58 1425.31,1692.25 1410,1711.5C 1412.51,1706.26 1415.17,1700.93 1418,1695.5C 1430.57,1655.64 1422.07,1621.14 1392.5,1592C 1381.26,1582.13 1368.59,1575.63 1354.5,1572.5C 1353.29,1572.75 1352.62,1573.41 1352.5,1574.5C 1350.9,1574.77 1349.57,1574.43 1348.5,1573.5C 1349.68,1573.72 1350.68,1573.39 1351.5,1572.5C 1336.08,1568.77 1320.91,1570.1 1306,1576.5C 1305.5,1576.33 1305,1576.17 1304.5,1576C 1323.08,1566.82 1342.75,1564.98 1363.5,1570.5 Z"/></g>
<g><path style="opacity:0.999" fill="#789950" d="M 1348.5,1573.5 C 1349.57,1574.43 1350.9,1574.77 1352.5,1574.5C 1387.18,1584.35 1409.35,1606.68 1419,1641.5C 1424.82,1669.22 1419.15,1694.22 1402,1716.5C 1374.23,1743.39 1343.06,1747.89 1308.5,1730C 1270.83,1704.33 1256.66,1669.16 1266,1624.5C 1272.55,1606.13 1284.05,1591.79 1300.5,1581.5C 1306.52,1578.82 1312.52,1576.16 1318.5,1573.5C 1328.37,1572.35 1338.37,1572.35 1348.5,1573.5 Z"/></g>
<g><path style="opacity:0.935" fill="#14170c" d="M 1373.5,1569.5 C 1370.57,1570.38 1367.57,1570.05 1364.5,1568.5C 1363.7,1568.96 1363.37,1569.62 1363.5,1570.5C 1342.75,1564.98 1323.08,1566.82 1304.5,1576C 1305,1576.17 1305.5,1576.33 1306,1576.5C 1320.91,1570.1 1336.08,1568.77 1351.5,1572.5C 1350.68,1573.39 1349.68,1573.72 1348.5,1573.5C 1338.37,1572.35 1328.37,1572.35 1318.5,1573.5C 1312.52,1576.16 1306.52,1578.82 1300.5,1581.5C 1300.63,1580.76 1300.46,1580.09 1300,1579.5C 1295.84,1583.68 1291.01,1585.68 1285.5,1585.5C 1286.05,1583.61 1287.05,1581.94 1288.5,1580.5C 1314.78,1562.05 1343.11,1558.38 1373.5,1569.5 Z"/></g>
<g><path style="opacity:0.004" fill="#fefffe" d="M 1260.5,1609.5 C 1260.5,1608.83 1260.17,1608.5 1259.5,1608.5C 1260.53,1607.15 1261.86,1606.65 1263.5,1607C 1262.63,1608.04 1261.63,1608.88 1260.5,1609.5 Z"/></g>
<g><path style="opacity:0.005" fill="#fefffe" d="M 1259.5,1608.5 C 1260.17,1608.5 1260.5,1608.83 1260.5,1609.5C 1261.6,1610.4 1261.6,1611.23 1260.5,1612C 1262.77,1613.08 1262.93,1614.58 1261,1616.5C 1259.26,1614.3 1257.76,1611.97 1256.5,1609.5C 1257.32,1608.61 1258.32,1608.28 1259.5,1608.5 Z"/></g>
<g><path style="opacity:0.004" fill="#fefffe" d="M 1264.5,1618.5 C 1264.5,1619.17 1264.5,1619.83 1264.5,1620.5C 1263.83,1620.5 1263.5,1620.83 1263.5,1621.5C 1261.97,1620.9 1260.97,1619.73 1260.5,1618C 1261.82,1617.81 1263.15,1617.97 1264.5,1618.5 Z"/></g>
<g><path style="opacity:0.035" fill="#35481c" d="M 1417.5,1708.5 C 1416.62,1712.96 1414.29,1716.29 1410.5,1718.5C 1408.97,1718.48 1408.47,1717.82 1409,1716.5C 1411.75,1713.58 1414.58,1710.91 1417.5,1708.5 Z"/></g>
<g><path style="opacity:0.674" fill="#080b05" d="M 1373.5,1569.5 C 1424.32,1595.48 1442.15,1636.15 1427,1691.5C 1424.39,1696.38 1422.06,1701.38 1420,1706.5C 1419.29,1707.38 1418.46,1708.05 1417.5,1708.5C 1414.58,1710.91 1411.75,1713.58 1409,1716.5C 1408.47,1717.82 1408.97,1718.48 1410.5,1718.5C 1402.81,1723.86 1394.81,1729.03 1386.5,1734C 1382.37,1736.4 1378.03,1738.24 1373.5,1739.5C 1363.06,1741.23 1352.72,1742.9 1342.5,1744.5C 1326.1,1742.47 1311.1,1736.8 1297.5,1727.5C 1296.97,1726.28 1296.31,1725.11 1295.5,1724C 1291.18,1721.04 1287.18,1717.87 1283.5,1714.5C 1260.97,1686.84 1254.3,1655.84 1263.5,1621.5C 1264.17,1621.5 1264.5,1621.17 1264.5,1620.5C 1264.5,1619.83 1264.5,1619.17 1264.5,1618.5C 1268.66,1605.68 1275.66,1594.68 1285.5,1585.5C 1291.01,1585.68 1295.84,1583.68 1300,1579.5C 1300.46,1580.09 1300.63,1580.76 1300.5,1581.5C 1284.05,1591.79 1272.55,1606.13 1266,1624.5C 1256.66,1669.16 1270.83,1704.33 1308.5,1730C 1343.06,1747.89 1374.23,1743.39 1402,1716.5C 1419.15,1694.22 1424.82,1669.22 1419,1641.5C 1409.35,1606.68 1387.18,1584.35 1352.5,1574.5C 1352.62,1573.41 1353.29,1572.75 1354.5,1572.5C 1368.59,1575.63 1381.26,1582.13 1392.5,1592C 1422.07,1621.14 1430.57,1655.64 1418,1695.5C 1415.17,1700.93 1412.51,1706.26 1410,1711.5C 1425.31,1692.25 1431.65,1670.58 1429,1646.5C 1422.02,1608.36 1400.19,1583.02 1363.5,1570.5C 1363.37,1569.62 1363.7,1568.96 1364.5,1568.5C 1367.57,1570.05 1370.57,1570.38 1373.5,1569.5 Z"/></g>
<g><path style="opacity:1" fill="#191c16" d="M 1362.5,1690.5 C 1371.25,1688.88 1373.92,1692.05 1370.5,1700C 1368.68,1702.65 1366.68,1705.15 1364.5,1707.5C 1367.76,1711.69 1367.1,1715.03 1362.5,1717.5C 1357.16,1711.5 1354.66,1704.5 1355,1696.5C 1357.11,1693.88 1359.61,1691.88 1362.5,1690.5 Z"/></g>
<g><path style="opacity:1" fill="#11130f" d="M 1325.5,1708.5 C 1332.93,1707.76 1335.1,1710.76 1332,1717.5C 1330.54,1719.96 1328.71,1722.13 1326.5,1724C 1329.59,1727.74 1329.09,1730.9 1325,1733.5C 1324.08,1732.95 1323.24,1732.29 1322.5,1731.5C 1320.77,1727.05 1318.77,1722.71 1316.5,1718.5C 1318.16,1713.85 1321.16,1710.51 1325.5,1708.5 Z"/></g>
<g><path style="opacity:1" fill="#f0f1ef" d="M 1327.5,1709.5 C 1330.24,1709.08 1331.58,1710.24 1331.5,1713C 1330.28,1717.28 1327.95,1720.78 1324.5,1723.5C 1325.17,1725.5 1325.83,1727.5 1326.5,1729.5C 1326.17,1730.5 1325.5,1731.17 1324.5,1731.5C 1321.95,1727.07 1319.95,1722.4 1318.5,1717.5C 1320.28,1713.39 1323.28,1710.72 1327.5,1709.5 Z"/></g>
<g><path style="opacity:1" fill="#dddedc" d="M 1364.5,1691.5 C 1367.59,1690.83 1369.26,1692 1369.5,1695C 1368.4,1699.76 1366.06,1703.76 1362.5,1707C 1363.02,1709.08 1363.68,1711.08 1364.5,1713C 1363.97,1713.69 1363.31,1714.19 1362.5,1714.5C 1359.91,1709.65 1357.58,1704.65 1355.5,1699.5C 1357.95,1696.04 1360.95,1693.37 1364.5,1691.5 Z"/></g>
<g><path style="opacity:1" fill="#1b1e17" d="M 1360.5,1697.5 C 1362.95,1697.01 1364.62,1697.84 1365.5,1700C 1364.71,1702.62 1363.05,1704.45 1360.5,1705.5C 1356.67,1702.73 1356.67,1700.06 1360.5,1697.5 Z"/></g>
<g><path style="opacity:1" fill="#8b8b8b" d="M 1316.5,1685.5 C 1315.46,1688.54 1315.46,1691.54 1316.5,1694.5C 1316.57,1694.94 1316.4,1695.27 1316,1695.5C 1315.67,1694.83 1315.33,1694.17 1315,1693.5C 1314.32,1694.78 1314.48,1695.95 1315.5,1697C 1314.33,1697.5 1313.5,1698.33 1313,1699.5C 1311.8,1697.18 1310.96,1694.68 1310.5,1692C 1311.47,1691.65 1312.31,1690.82 1313,1689.5C 1313.33,1690.17 1313.67,1690.83 1314,1691.5C 1314.24,1689.15 1315.07,1687.15 1316.5,1685.5 Z"/></g>
<g><path style="opacity:1" fill="#2e302c" d="M 1310.5,1679.5 C 1311.17,1679.5 1311.83,1679.5 1312.5,1679.5C 1314.26,1680.31 1315.93,1681.31 1317.5,1682.5C 1317.44,1683.61 1317.11,1684.61 1316.5,1685.5C 1315.07,1687.15 1314.24,1689.15 1314,1691.5C 1313.67,1690.83 1313.33,1690.17 1313,1689.5C 1312.31,1690.82 1311.47,1691.65 1310.5,1692C 1310.96,1694.68 1311.8,1697.18 1313,1699.5C 1313.5,1698.33 1314.33,1697.5 1315.5,1697C 1314.48,1695.95 1314.32,1694.78 1315,1693.5C 1315.33,1694.17 1315.67,1694.83 1316,1695.5C 1316.4,1695.27 1316.57,1694.94 1316.5,1694.5C 1318.47,1697.08 1319.47,1700.08 1319.5,1703.5C 1318.26,1705.04 1316.6,1706.04 1314.5,1706.5C 1310.16,1700.15 1308.5,1693.15 1309.5,1685.5C 1310.46,1683.74 1310.79,1681.74 1310.5,1679.5 Z"/></g>
<g><path style="opacity:1" fill="#1a1d17" d="M 1383.5,1680.5 C 1386.53,1681.18 1388.2,1683.18 1388.5,1686.5C 1386.39,1688.73 1384.06,1690.73 1381.5,1692.5C 1381.83,1693.5 1382.5,1694.17 1383.5,1694.5C 1385.17,1693.17 1386.83,1691.83 1388.5,1690.5C 1390.07,1692.97 1391.07,1695.64 1391.5,1698.5C 1389.69,1698.49 1388.02,1698.99 1386.5,1700C 1387.03,1700.69 1387.69,1701.19 1388.5,1701.5C 1390.5,1700.17 1392.5,1698.83 1394.5,1697.5C 1396.6,1699.58 1396.94,1701.92 1395.5,1704.5C 1391.7,1706.55 1387.7,1708.22 1383.5,1709.5C 1380.27,1703.37 1376.77,1697.37 1373,1691.5C 1372.25,1690.36 1372.42,1689.36 1373.5,1688.5C 1377.17,1686.16 1380.5,1683.49 1383.5,1680.5 Z"/></g>
<g><path style="opacity:1" fill="#e7e8e6" d="M 1383.5,1683.5 C 1384.69,1683.87 1385.36,1684.7 1385.5,1686C 1383.43,1688.01 1381.43,1690.01 1379.5,1692C 1381.28,1697.35 1383.94,1697.85 1387.5,1693.5C 1388.83,1696.05 1388,1697.72 1385,1698.5C 1384.28,1701.12 1385.28,1702.79 1388,1703.5C 1389.86,1701.8 1392.03,1700.8 1394.5,1700.5C 1394.5,1701.83 1394.5,1703.17 1394.5,1704.5C 1390.85,1704.58 1387.52,1705.58 1384.5,1707.5C 1381.09,1702.34 1377.92,1697.01 1375,1691.5C 1374.38,1690.55 1374.55,1689.72 1375.5,1689C 1378.41,1687.39 1381.07,1685.56 1383.5,1683.5 Z"/></g>
<g><path style="opacity:1" fill="#bfcdad" d="M 1367.5,1638.5 C 1366.58,1641.73 1367.25,1644.73 1369.5,1647.5C 1358.54,1652.88 1347.21,1657.38 1335.5,1661C 1333.41,1662.04 1331.75,1663.54 1330.5,1665.5C 1331.25,1666.74 1331.58,1668.07 1331.5,1669.5C 1334.19,1669.66 1336.85,1669.5 1339.5,1669C 1348.73,1664.05 1358.4,1660.22 1368.5,1657.5C 1367.77,1658.71 1367.43,1660.04 1367.5,1661.5C 1356.24,1671.58 1343.24,1678.41 1328.5,1682C 1324.85,1682.5 1321.18,1682.67 1317.5,1682.5C 1315.93,1681.31 1314.26,1680.31 1312.5,1679.5C 1314.41,1679.78 1316.08,1679.45 1317.5,1678.5C 1321.31,1680.31 1325.31,1680.81 1329.5,1680C 1333.83,1678.28 1337.5,1676.61 1340.5,1675C 1337.46,1673.72 1334.63,1672.22 1332,1670.5C 1331.58,1671.96 1330.74,1672.46 1329.5,1672C 1329.83,1671.67 1330.17,1671.33 1330.5,1671C 1327.48,1666.2 1328.48,1662.37 1333.5,1659.5C 1330.6,1658.1 1327.93,1658.43 1325.5,1660.5C 1321.97,1659.47 1319.14,1657.47 1317,1654.5C 1314.53,1655.12 1312.37,1654.28 1310.5,1652C 1311.38,1651.29 1312.05,1650.46 1312.5,1649.5C 1313.39,1648.89 1314.39,1648.56 1315.5,1648.5C 1318.77,1651.01 1321.61,1654.01 1324,1657.5C 1329.87,1655.48 1335.71,1653.32 1341.5,1651C 1342.89,1650.04 1343.56,1648.71 1343.5,1647C 1342.35,1643.86 1341.35,1640.7 1340.5,1637.5C 1342.5,1637.17 1344.5,1636.83 1346.5,1636.5C 1347.09,1639.69 1348.26,1642.69 1350,1645.5C 1355.93,1643.39 1361.76,1641.06 1367.5,1638.5 Z"/></g>
<g><path style="opacity:1" fill="#737670" d="M 1369.5,1663.5 C 1376.31,1662.51 1380.64,1665.18 1382.5,1671.5C 1382.65,1672.55 1382.48,1673.55 1382,1674.5C 1379.46,1668.79 1375.3,1665.12 1369.5,1663.5 Z"/></g>
<g><path style="opacity:1" fill="#070706" d="M 1367.5,1661.5 C 1368.17,1662.17 1368.83,1662.83 1369.5,1663.5C 1375.3,1665.12 1379.46,1668.79 1382,1674.5C 1382.48,1673.55 1382.65,1672.55 1382.5,1671.5C 1384.65,1672.93 1384.98,1674.77 1383.5,1677C 1362.26,1686.12 1340.93,1694.96 1319.5,1703.5C 1319.47,1700.08 1318.47,1697.08 1316.5,1694.5C 1315.46,1691.54 1315.46,1688.54 1316.5,1685.5C 1317.11,1684.61 1317.44,1683.61 1317.5,1682.5C 1321.18,1682.67 1324.85,1682.5 1328.5,1682C 1343.24,1678.41 1356.24,1671.58 1367.5,1661.5 Z"/></g>
<g><path style="opacity:1" fill="#a5bc8b" d="M 1312.5,1649.5 C 1312.05,1650.46 1311.38,1651.29 1310.5,1652C 1312.37,1654.28 1314.53,1655.12 1317,1654.5C 1319.14,1657.47 1321.97,1659.47 1325.5,1660.5C 1327.93,1658.43 1330.6,1658.1 1333.5,1659.5C 1328.48,1662.37 1327.48,1666.2 1330.5,1671C 1330.17,1671.33 1329.83,1671.67 1329.5,1672C 1330.74,1672.46 1331.58,1671.96 1332,1670.5C 1334.63,1672.22 1337.46,1673.72 1340.5,1675C 1337.5,1676.61 1333.83,1678.28 1329.5,1680C 1325.31,1680.81 1321.31,1680.31 1317.5,1678.5C 1316.08,1679.45 1314.41,1679.78 1312.5,1679.5C 1311.83,1679.5 1311.17,1679.5 1310.5,1679.5C 1302.44,1672.57 1299.77,1663.9 1302.5,1653.5C 1305.9,1652.37 1309.23,1651.03 1312.5,1649.5 Z"/></g>
<g><path style="opacity:1" fill="#8aa867" d="M 1317.5,1678.5 C 1314.28,1677.66 1313.94,1676.33 1316.5,1674.5C 1310.15,1670.81 1310.15,1667.15 1316.5,1663.5C 1317.17,1663.67 1317.83,1663.83 1318.5,1664C 1316.79,1665.13 1316.29,1666.63 1317,1668.5C 1318.28,1665.37 1320.12,1664.53 1322.5,1666C 1321.17,1667.84 1321.33,1668.34 1323,1667.5C 1323.23,1669.78 1324.07,1671.78 1325.5,1673.5C 1324.33,1674.91 1324.67,1676.07 1326.5,1677C 1324.06,1680.01 1321.56,1679.84 1319,1676.5C 1318.28,1677.04 1317.78,1677.71 1317.5,1678.5 Z"/></g>
<g><path style="opacity:1" fill="#e3b9b6" d="M 1369.5,1647.5 C 1370.29,1648.92 1370.96,1650.42 1371.5,1652C 1370.26,1653.73 1369.26,1655.56 1368.5,1657.5C 1358.4,1660.22 1348.73,1664.05 1339.5,1669C 1336.85,1669.5 1334.19,1669.66 1331.5,1669.5C 1331.58,1668.07 1331.25,1666.74 1330.5,1665.5C 1331.75,1663.54 1333.41,1662.04 1335.5,1661C 1347.21,1657.38 1358.54,1652.88 1369.5,1647.5 Z"/></g>
<g><path style="opacity:1" fill="#4d593f" d="M 1297.5,1652.5 C 1299.22,1652.63 1300.88,1652.96 1302.5,1653.5C 1299.77,1663.9 1302.44,1672.57 1310.5,1679.5C 1310.79,1681.74 1310.46,1683.74 1309.5,1685.5C 1309.66,1683.47 1309.5,1681.47 1309,1679.5C 1301.74,1673.45 1298.91,1665.79 1300.5,1656.5C 1299.02,1655.52 1297.69,1654.35 1296.5,1653C 1296.73,1652.6 1297.06,1652.43 1297.5,1652.5 Z"/></g>
<g><path style="opacity:1" fill="#33332f" d="M 1363.5,1618.5 C 1366.57,1623.33 1368.9,1628.66 1370.5,1634.5C 1370.21,1636.44 1369.21,1637.78 1367.5,1638.5C 1361.76,1641.06 1355.93,1643.39 1350,1645.5C 1348.26,1642.69 1347.09,1639.69 1346.5,1636.5C 1344.5,1636.83 1342.5,1637.17 1340.5,1637.5C 1341.35,1640.7 1342.35,1643.86 1343.5,1647C 1343.56,1648.71 1342.89,1650.04 1341.5,1651C 1335.71,1653.32 1329.87,1655.48 1324,1657.5C 1321.61,1654.01 1318.77,1651.01 1315.5,1648.5C 1315.92,1647.78 1316.58,1647.28 1317.5,1647C 1316.83,1646.67 1316.17,1646.33 1315.5,1646C 1316.71,1644.89 1316.71,1643.72 1315.5,1642.5C 1317.02,1641.44 1318.69,1640.77 1320.5,1640.5C 1320.33,1641.49 1320.66,1642.16 1321.5,1642.5C 1322.55,1645.6 1323.88,1648.6 1325.5,1651.5C 1330.06,1649.72 1334.39,1647.72 1338.5,1645.5C 1337.02,1642.57 1335.68,1639.57 1334.5,1636.5C 1339.18,1634.49 1343.84,1632.49 1348.5,1630.5C 1350.02,1633.42 1351.69,1636.42 1353.5,1639.5C 1357.23,1636.97 1361.23,1634.97 1365.5,1633.5C 1363.44,1629.79 1361.44,1626.13 1359.5,1622.5C 1360.5,1620.83 1361.83,1619.5 1363.5,1618.5 Z"/></g>
<g><path style="opacity:1" fill="#4b4c41" d="M 1294.5,1639.5 C 1294.49,1641.02 1293.82,1642.18 1292.5,1643C 1298.95,1643.55 1305.28,1643.05 1311.5,1641.5C 1312.33,1642.33 1312,1643.16 1310.5,1644C 1306.13,1645.25 1302.13,1647.08 1298.5,1649.5C 1300.28,1648.33 1301.28,1646.66 1301.5,1644.5C 1297.77,1644.82 1294.11,1644.49 1290.5,1643.5C 1291.52,1641.81 1292.85,1640.48 1294.5,1639.5 Z"/></g>
<g><path style="opacity:1" fill="#0c0d0b" d="M 1317.5,1639.5 C 1318.79,1639.26 1319.79,1639.6 1320.5,1640.5C 1318.69,1640.77 1317.02,1641.44 1315.5,1642.5C 1316.71,1643.72 1316.71,1644.89 1315.5,1646C 1316.17,1646.33 1316.83,1646.67 1317.5,1647C 1316.58,1647.28 1315.92,1647.78 1315.5,1648.5C 1314.39,1648.56 1313.39,1648.89 1312.5,1649.5C 1309.23,1651.03 1305.9,1652.37 1302.5,1653.5C 1300.88,1652.96 1299.22,1652.63 1297.5,1652.5C 1297.56,1651.39 1297.89,1650.39 1298.5,1649.5C 1302.13,1647.08 1306.13,1645.25 1310.5,1644C 1312,1643.16 1312.33,1642.33 1311.5,1641.5C 1313.1,1639.93 1315.1,1639.26 1317.5,1639.5 Z"/></g>
<g><path style="opacity:1" fill="#0215e4" d="M 1334.5,1636.5 C 1335.68,1639.57 1337.02,1642.57 1338.5,1645.5C 1334.39,1647.72 1330.06,1649.72 1325.5,1651.5C 1323.88,1648.6 1322.55,1645.6 1321.5,1642.5C 1321.5,1641.5 1321.5,1640.5 1321.5,1639.5C 1325.87,1638.66 1330.21,1637.66 1334.5,1636.5 Z"/></g>
<g><path style="opacity:1" fill="#b10dac" d="M 1361.5,1610.5 C 1361.83,1610.5 1362.17,1610.5 1362.5,1610.5C 1364.22,1611.02 1365.55,1612.02 1366.5,1613.5C 1357.14,1623.18 1346.14,1630.35 1333.5,1635C 1328.04,1636.53 1322.71,1638.03 1317.5,1639.5C 1315.1,1639.26 1313.1,1639.93 1311.5,1641.5C 1305.28,1643.05 1298.95,1643.55 1292.5,1643C 1293.82,1642.18 1294.49,1641.02 1294.5,1639.5C 1295.5,1638.17 1296.5,1636.83 1297.5,1635.5C 1301.45,1634.8 1305.45,1634.3 1309.5,1634C 1310.42,1633.72 1311.08,1633.22 1311.5,1632.5C 1312.17,1632.5 1312.83,1632.5 1313.5,1632.5C 1318.1,1632.53 1322.1,1631.2 1325.5,1628.5C 1329.06,1626.89 1332.73,1625.55 1336.5,1624.5C 1341.39,1623.65 1345.39,1621.32 1348.5,1617.5C 1351.2,1617.16 1353.2,1615.82 1354.5,1613.5C 1354.83,1612.5 1355.5,1611.83 1356.5,1611.5C 1358.04,1610.7 1359.71,1610.37 1361.5,1610.5 Z"/></g>
<g><path style="opacity:1" fill="#312530" d="M 1311.5,1632.5 C 1311.08,1633.22 1310.42,1633.72 1309.5,1634C 1305.45,1634.3 1301.45,1634.8 1297.5,1635.5C 1297.5,1634.83 1297.5,1634.17 1297.5,1633.5C 1302.15,1633 1306.82,1632.67 1311.5,1632.5 Z"/></g>
<g><path style="opacity:1" fill="#3d1039" d="M 1366.5,1613.5 C 1365.92,1615.41 1364.92,1617.08 1363.5,1618.5C 1361.83,1619.5 1360.5,1620.83 1359.5,1622.5C 1355.26,1624.44 1351.6,1627.11 1348.5,1630.5C 1343.84,1632.49 1339.18,1634.49 1334.5,1636.5C 1330.21,1637.66 1325.87,1638.66 1321.5,1639.5C 1321.5,1640.5 1321.5,1641.5 1321.5,1642.5C 1320.66,1642.16 1320.33,1641.49 1320.5,1640.5C 1319.79,1639.6 1318.79,1639.26 1317.5,1639.5C 1322.71,1638.03 1328.04,1636.53 1333.5,1635C 1346.14,1630.35 1357.14,1623.18 1366.5,1613.5 Z"/></g>
<g><path style="opacity:1" fill="#301e2f" d="M 1325.5,1628.5 C 1322.1,1631.2 1318.1,1632.53 1313.5,1632.5C 1317.21,1630.57 1321.21,1629.23 1325.5,1628.5 Z"/></g>
<g><path style="opacity:1" fill="#736571" d="M 1324.5,1623.5 C 1321.21,1625.78 1317.54,1627.11 1313.5,1627.5C 1316.66,1625 1320.33,1623.67 1324.5,1623.5 Z"/></g>
<g><path style="opacity:1" fill="#ed0305" d="M 1359.5,1622.5 C 1361.44,1626.13 1363.44,1629.79 1365.5,1633.5C 1361.23,1634.97 1357.23,1636.97 1353.5,1639.5C 1351.69,1636.42 1350.02,1633.42 1348.5,1630.5C 1351.6,1627.11 1355.26,1624.44 1359.5,1622.5 Z"/></g>
<g><path style="opacity:1" fill="#552d58" d="M 1348.5,1617.5 C 1345.39,1621.32 1341.39,1623.65 1336.5,1624.5C 1340.19,1621.71 1344.19,1619.38 1348.5,1617.5 Z"/></g>
<g><path style="opacity:1" fill="#5e445b" d="M 1335.5,1618.5 C 1332.78,1621.18 1329.45,1622.51 1325.5,1622.5C 1328.58,1620.82 1331.91,1619.48 1335.5,1618.5 Z"/></g>
<g><path style="opacity:1" fill="#614860" d="M 1342.5,1615.5 C 1340.57,1617.29 1338.24,1618.29 1335.5,1618.5C 1337.19,1616.18 1339.52,1615.18 1342.5,1615.5 Z"/></g>
<g><path style="opacity:1" fill="#4f324c" d="M 1354.5,1613.5 C 1353.2,1615.82 1351.2,1617.16 1348.5,1617.5C 1350.15,1615.67 1352.15,1614.34 1354.5,1613.5 Z"/></g>
<g><path style="opacity:1" fill="#634c61" d="M 1348.5,1611.5 C 1347.2,1613.82 1345.2,1615.16 1342.5,1615.5C 1344.15,1613.67 1346.15,1612.34 1348.5,1611.5 Z"/></g>
<g><path style="opacity:1" fill="#2f2727" d="M 1362.5,1610.5 C 1364.75,1610.18 1366.75,1610.68 1368.5,1612C 1367.96,1612.72 1367.29,1613.22 1366.5,1613.5C 1365.55,1612.02 1364.22,1611.02 1362.5,1610.5 Z"/></g>
<g><path style="opacity:1" fill="#312a2b" d="M 1355.5,1607.5 C 1357.54,1608.52 1359.54,1609.52 1361.5,1610.5C 1359.71,1610.37 1358.04,1610.7 1356.5,1611.5C 1356.57,1610.04 1356.23,1608.71 1355.5,1607.5 Z"/></g>
<g><path style="opacity:1" fill="#580753" d="M 1342.5,1593.5 C 1343.71,1593.93 1344.71,1594.6 1345.5,1595.5C 1337.25,1600.54 1328.58,1605.04 1319.5,1609C 1314.17,1610.67 1308.83,1612.33 1303.5,1614C 1301.19,1614.5 1298.86,1614.66 1296.5,1614.5C 1296.5,1616.5 1296.5,1618.5 1296.5,1620.5C 1295.17,1617.17 1295.17,1613.83 1296.5,1610.5C 1297.51,1611.76 1299.01,1612.43 1301,1612.5C 1316.59,1609.79 1330.42,1603.45 1342.5,1593.5 Z"/></g>
<g><path style="opacity:1" fill="#e3e2e2" d="M 1355.5,1607.5 C 1356.23,1608.71 1356.57,1610.04 1356.5,1611.5C 1355.5,1611.83 1354.83,1612.5 1354.5,1613.5C 1352.15,1614.34 1350.15,1615.67 1348.5,1617.5C 1344.19,1619.38 1340.19,1621.71 1336.5,1624.5C 1332.73,1625.55 1329.06,1626.89 1325.5,1628.5C 1321.21,1629.23 1317.21,1630.57 1313.5,1632.5C 1312.83,1632.5 1312.17,1632.5 1311.5,1632.5C 1306.82,1632.67 1302.15,1633 1297.5,1633.5C 1297.5,1632.5 1297.5,1631.5 1297.5,1630.5C 1300.85,1630.67 1304.18,1630.5 1307.5,1630C 1308.42,1629.72 1309.08,1629.22 1309.5,1628.5C 1310.57,1627.57 1311.9,1627.23 1313.5,1627.5C 1317.54,1627.11 1321.21,1625.78 1324.5,1623.5C 1325.17,1623.5 1325.5,1623.17 1325.5,1622.5C 1329.45,1622.51 1332.78,1621.18 1335.5,1618.5C 1338.24,1618.29 1340.57,1617.29 1342.5,1615.5C 1345.2,1615.16 1347.2,1613.82 1348.5,1611.5C 1350.83,1610.17 1353.17,1608.83 1355.5,1607.5 Z"/></g>
<g><path style="opacity:1" fill="#4c394d" d="M 1352.5,1603.5 C 1353.49,1604.8 1354.49,1606.13 1355.5,1607.5C 1353.17,1608.83 1350.83,1610.17 1348.5,1611.5C 1349.46,1610.04 1350.62,1608.71 1352,1607.5C 1352.49,1606.21 1352.66,1604.87 1352.5,1603.5 Z"/></g>
<g><path style="opacity:1" fill="#bb07b2" d="M 1345.5,1595.5 C 1345.83,1595.5 1346.17,1595.5 1346.5,1595.5C 1347.76,1598.43 1349.76,1600.76 1352.5,1602.5C 1352.5,1602.83 1352.5,1603.17 1352.5,1603.5C 1352.66,1604.87 1352.49,1606.21 1352,1607.5C 1350.62,1608.71 1349.46,1610.04 1348.5,1611.5C 1346.15,1612.34 1344.15,1613.67 1342.5,1615.5C 1339.52,1615.18 1337.19,1616.18 1335.5,1618.5C 1331.91,1619.48 1328.58,1620.82 1325.5,1622.5C 1325.5,1623.17 1325.17,1623.5 1324.5,1623.5C 1320.33,1623.67 1316.66,1625 1313.5,1627.5C 1311.9,1627.23 1310.57,1627.57 1309.5,1628.5C 1305.81,1629.46 1302.14,1629.46 1298.5,1628.5C 1297.7,1625.86 1297.04,1623.19 1296.5,1620.5C 1296.5,1618.5 1296.5,1616.5 1296.5,1614.5C 1298.86,1614.66 1301.19,1614.5 1303.5,1614C 1308.83,1612.33 1314.17,1610.67 1319.5,1609C 1328.58,1605.04 1337.25,1600.54 1345.5,1595.5 Z"/></g>
<g><path style="opacity:1" fill="#281c24" d="M 1346.5,1595.5 C 1349.24,1597.24 1351.24,1599.57 1352.5,1602.5C 1349.76,1600.76 1347.76,1598.43 1346.5,1595.5 Z"/></g>
<g><path style="opacity:1" fill="#bc09ac" d="M 1342.5,1593.5 C 1330.42,1603.45 1316.59,1609.79 1301,1612.5C 1299.01,1612.43 1297.51,1611.76 1296.5,1610.5C 1296.61,1609.88 1296.94,1609.38 1297.5,1609C 1299.5,1608.67 1301.5,1608.33 1303.5,1608C 1304.26,1606.49 1305.26,1605.15 1306.5,1604C 1311.47,1601.18 1316.47,1598.35 1321.5,1595.5C 1326.78,1594.18 1332.11,1593.18 1337.5,1592.5C 1339.37,1592.51 1341.04,1592.84 1342.5,1593.5 Z"/></g>
<g><path style="opacity:1" fill="#161813" d="M 1344.5,1699.5 C 1346.65,1700.59 1347.98,1702.42 1348.5,1705C 1346.98,1706.85 1345.14,1708.35 1343,1709.5C 1342.44,1710.72 1342.77,1711.72 1344,1712.5C 1345.35,1710.98 1346.85,1709.65 1348.5,1708.5C 1349.5,1710.49 1350.5,1712.49 1351.5,1714.5C 1350.17,1715.5 1348.83,1716.5 1347.5,1717.5C 1348,1717.83 1348.5,1718.17 1349,1718.5C 1354.47,1713.78 1356.97,1715.11 1356.5,1722.5C 1351.83,1723.83 1347.17,1725.17 1342.5,1726.5C 1339.88,1720.52 1337.21,1714.52 1334.5,1708.5C 1334.61,1707.56 1334.94,1706.72 1335.5,1706C 1338.92,1704.3 1341.92,1702.13 1344.5,1699.5 Z"/></g>
<g><path style="opacity:1" fill="#eeefed" d="M 1344.5,1701.5 C 1345.69,1701.87 1346.36,1702.7 1346.5,1704C 1344.98,1705.85 1343.14,1707.35 1341,1708.5C 1340.55,1711.09 1341.55,1713.09 1344,1714.5C 1345.24,1712.17 1346.91,1711.5 1349,1712.5C 1349.17,1712.83 1349.33,1713.17 1349.5,1713.5C 1347.95,1714.44 1346.61,1715.61 1345.5,1717C 1345.76,1718.26 1346.43,1719.26 1347.5,1720C 1349.76,1720.04 1351.76,1719.21 1353.5,1717.5C 1354.83,1718.83 1354.83,1720.17 1353.5,1721.5C 1350.83,1722.5 1348.17,1723.5 1345.5,1724.5C 1342.06,1719.12 1338.72,1713.62 1335.5,1708C 1338.92,1706.3 1341.92,1704.13 1344.5,1701.5 Z"/></g>
<g><path style="opacity:1" fill="#131411" d="M 1323.5,1714.5 C 1328.87,1717.46 1328.54,1720.13 1322.5,1722.5C 1319.64,1719.31 1319.97,1716.65 1323.5,1714.5 Z"/></g>
<g><path style="opacity:1" fill="#678344" d="M 1321.5,1718.5 C 1322.71,1717.22 1324.04,1717.22 1325.5,1718.5C 1323.85,1720.93 1322.52,1720.93 1321.5,1718.5 Z"/></g>
<g><path style="opacity:0.071" fill="#6e8950" d="M 1283.5,1714.5 C 1287.18,1717.87 1291.18,1721.04 1295.5,1724C 1296.31,1725.11 1296.97,1726.28 1297.5,1727.5C 1291.57,1724.57 1286.91,1720.24 1283.5,1714.5 Z"/></g>
<g><path style="opacity:0.91" fill="#495c30" d="M 1373.5,1739.5 C 1373.39,1740.12 1373.06,1740.62 1372.5,1741C 1362.66,1743.52 1352.66,1744.69 1342.5,1744.5C 1352.72,1742.9 1363.06,1741.23 1373.5,1739.5 Z"/></g>
</svg>
